M48
; DRILL file {KiCad 8.0.4} date 2024-11-19T12:42:17+0300
; FORMAT={-:-/ absolute / metric / decimal}
; #@! TF.CreationDate,2024-11-19T12:42:17+03:00
; #@! TF.GenerationSoftware,Kicad,Pcbnew,8.0.4
; #@! TF.FileFunction,MixedPlating,1,6
FMAT,2
METRIC
; #@! TA.AperFunction,Plated,PTH,ViaDrill
T1C0.400
; #@! TA.AperFunction,Plated,PTH,ComponentDrill
T2C0.900
; #@! TA.AperFunction,Plated,PTH,ComponentDrill
T3C1.000
; #@! TA.AperFunction,Plated,PTH,ComponentDrill
T4C1.020
; #@! TA.AperFunction,Plated,PTH,ComponentDrill
T5C1.200
; #@! TA.AperFunction,Plated,PTH,ComponentDrill
T6C1.500
; #@! TA.AperFunction,NonPlated,NPTH,ComponentDrill
T7C1.020
; #@! TA.AperFunction,NonPlated,NPTH,ComponentDrill
T8C11.000
%
G90
G05
T1
X113.538Y-112.776
X115.57Y-82.804
X121.666Y-82.55
X121.666Y-83.566
X121.666Y-86.36
X121.666Y-87.376
X121.92Y-105.41
X121.92Y-107.95
X122.152Y-91.037
X123.097Y-105.317
X124.227Y-91.037
X125.73Y-85.598
X125.796Y-81.092
X125.984Y-109.728
X126.365Y-88.011
X126.746Y-85.598
X127.0Y-92.71
X127.696Y-81.092
X127.762Y-85.598
X128.016Y-106.172
X128.27Y-92.71
X129.54Y-92.71
X130.048Y-104.902
X130.8Y-86.0
X130.81Y-92.71
X131.064Y-109.728
X132.08Y-92.71
X133.35Y-105.41
X133.35Y-107.95
X133.582Y-91.037
X134.781Y-105.317
X135.255Y-80.899
X135.657Y-91.037
X136.652Y-89.154
X137.414Y-109.728
X137.795Y-85.217
X138.176Y-80.96
X138.43Y-92.71
X139.446Y-106.172
X139.7Y-92.71
X140.335Y-85.217
X140.97Y-92.71
X141.732Y-105.156
X142.24Y-92.71
X142.875Y-81.153
X142.875Y-85.385
X143.51Y-92.71
X143.764Y-107.95
X145.415Y-80.985
X145.415Y-85.09
X146.715Y-82.185
X154.675Y-65.825
X154.675Y-72.175
X154.686Y-82.804
X154.686Y-83.82
X154.686Y-86.36
X154.686Y-87.376
X155.448Y-105.918
X155.448Y-106.934
X156.2Y-95.5
X158.2Y-101.2
X159.004Y-111.506
X160.02Y-111.506
X160.782Y-105.918
X160.782Y-106.934
X161.036Y-111.506
X162.3Y-101.2
X162.775Y-100.175
X164.5Y-68.5
X164.595Y-73.595
X168.402Y-105.41
X168.402Y-106.426
X168.402Y-108.458
X168.402Y-110.998
X168.402Y-113.03
X168.402Y-114.046
X168.405Y-73.595
X168.9Y-95.5
X170.9Y-101.2
X172.55Y-65.55
X173.5Y-70.5
X174.45Y-65.55
X175.0Y-101.2
X175.375Y-100.175
X181.38Y-72.88
X181.38Y-75.12
X185.19Y-72.81
X185.19Y-75.19
X187.095Y-75.095
X190.905Y-75.095
T2
X98.5Y-78.5
X98.5Y-116.0
X120.0Y-68.0
X139.5Y-68.0
T3
X118.455Y-90.17
X118.455Y-92.71
X118.455Y-95.25
X118.455Y-100.33
X118.455Y-102.87
X118.455Y-105.41
X118.455Y-107.95
X151.475Y-90.17
X151.475Y-92.71
X151.475Y-95.25
X151.475Y-100.33
X151.475Y-102.87
X151.475Y-105.41
X151.475Y-107.95
X175.45Y-107.188
X175.45Y-109.728
X175.45Y-112.268
T4
X160.5Y-88.42
X160.5Y-91.42
X163.5Y-88.42
X163.5Y-91.42
X166.5Y-88.42
X166.5Y-91.42
X169.5Y-88.42
X169.5Y-91.42
X172.5Y-88.42
X172.5Y-91.42
X175.5Y-88.42
X175.5Y-91.42
T5
X87.0Y-83.25
X87.0Y-110.75
T6
X105.452Y-85.852
X105.452Y-89.662
X105.452Y-104.902
X105.452Y-108.712
X114.572Y-118.232
X118.382Y-76.332
X118.382Y-118.232
X122.192Y-76.332
X126.002Y-118.232
X129.812Y-118.232
X137.432Y-76.332
X137.432Y-118.232
X141.242Y-76.332
X141.242Y-118.232
X148.862Y-118.232
X152.672Y-118.232
X156.482Y-76.332
X160.292Y-76.332
X160.292Y-118.232
X164.102Y-118.232
X171.722Y-76.332
X171.722Y-118.232
X175.532Y-76.332
X175.532Y-118.232
X184.652Y-85.852
X184.652Y-89.662
X184.652Y-104.902
X184.652Y-108.712
T7
X157.5Y-87.48
X178.5Y-87.48
T8
X98.552Y-97.282
X191.552Y-97.282
M30
