M48
METRIC,TZ
T1C0.400
T2C0.900
T3C1.000
T4C1.020
T5C1.200
T6C1.500
%
G90
G05
T1
X113538Y-112776
X115570Y-82804
X121666Y-82550
X121666Y-83566
X121666Y-86360
X121666Y-87376
X121920Y-105410
X121920Y-107950
X122152Y-91038
X123097Y-105317
X124227Y-91038
X125730Y-85598
X125796Y-81092
X125984Y-109728
X126365Y-88011
X126746Y-85598
X127000Y-92710
X127696Y-81092
X127762Y-85598
X128016Y-106172
X128270Y-92710
X129540Y-92710
X130048Y-104902
X130800Y-86000
X130810Y-92710
X131064Y-109728
X132080Y-92710
X133350Y-105410
X133350Y-107950
X133582Y-91038
X134781Y-105317
X135255Y-80899
X135658Y-91038
X136652Y-89154
X137414Y-109728
X137795Y-85217
X138176Y-80960
X138430Y-92710
X139446Y-106172
X139700Y-92710
X140335Y-85217
X140970Y-92710
X141732Y-105156
X142240Y-92710
X142875Y-81153
X142875Y-85385
X143510Y-92710
X143764Y-107950
X145415Y-80985
X145415Y-85090
X146715Y-82185
X154675Y-65825
X154675Y-72175
X154686Y-82804
X154686Y-83820
X154686Y-86360
X154686Y-87376
X155448Y-105918
X155448Y-106934
X156200Y-95500
X158200Y-101200
X159004Y-111506
X160020Y-111506
X160782Y-105918
X160782Y-106934
X161036Y-111506
X162300Y-101200
X162775Y-100175
X164500Y-68500
X164595Y-73595
X168402Y-105410
X168402Y-106426
X168402Y-108458
X168402Y-110998
X168402Y-113030
X168402Y-114046
X168405Y-73595
X168900Y-95500
X170900Y-101200
X172550Y-65550
X173500Y-70500
X174450Y-65550
X175000Y-101200
X175375Y-100175
X181380Y-72880
X181380Y-75120
X185190Y-72810
X185190Y-75190
X187095Y-75095
X190905Y-75095
T2
X98500Y-78500
X98500Y-116000
X120000Y-68000
X139500Y-68000
T3
X118455Y-90170
X118455Y-92710
X118455Y-95250
X118455Y-100330
X118455Y-102870
X118455Y-105410
X118455Y-107950
X151475Y-90170
X151475Y-92710
X151475Y-95250
X151475Y-100330
X151475Y-102870
X151475Y-105410
X151475Y-107950
X175450Y-107188
X175450Y-109728
X175450Y-112268
T4
X160500Y-88420
X160500Y-91420
X163500Y-88420
X163500Y-91420
X166500Y-88420
X166500Y-91420
X169500Y-88420
X169500Y-91420
X172500Y-88420
X172500Y-91420
X175500Y-88420
X175500Y-91420
T5
X87000Y-83250
X87000Y-110750
T6
X105452Y-85852
X105452Y-89662
X105452Y-104902
X105452Y-108712
X114572Y-118232
X118382Y-76332
X118382Y-118232
X122192Y-76332
X126002Y-118232
X129812Y-118232
X137432Y-76332
X137432Y-118232
X141242Y-76332
X141242Y-118232
X148862Y-118232
X152672Y-118232
X156482Y-76332
X160292Y-76332
X160292Y-118232
X164102Y-118232
X171722Y-76332
X171722Y-118232
X175532Y-76332
X175532Y-118232
X184652Y-85852
X184652Y-89662
X184652Y-104902
X184652Y-108712
M30
