%TF.GenerationSoftware,KiCad,Pcbnew,8.0.4*%
%TF.CreationDate,2025-02-22T19:43:46+03:00*%
%TF.ProjectId,Driver_Inductor,44726976-6572-45f4-996e-647563746f72,rev?*%
%TF.SameCoordinates,Original*%
%TF.FileFunction,Copper,L1,Top*%
%TF.FilePolarity,Positive*%
%FSLAX46Y46*%
G04 Gerber Fmt 4.6, Leading zero omitted, Abs format (unit mm)*
G04 Created by KiCad (PCBNEW 8.0.4) date 2025-02-22 19:43:46*
%MOMM*%
%LPD*%
G01*
G04 APERTURE LIST*
G04 Aperture macros list*
%AMRoundRect*
0 Rectangle with rounded corners*
0 $1 Rounding radius*
0 $2 $3 $4 $5 $6 $7 $8 $9 X,Y pos of 4 corners*
0 Add a 4 corners polygon primitive as box body*
4,1,4,$2,$3,$4,$5,$6,$7,$8,$9,$2,$3,0*
0 Add four circle primitives for the rounded corners*
1,1,$1+$1,$2,$3*
1,1,$1+$1,$4,$5*
1,1,$1+$1,$6,$7*
1,1,$1+$1,$8,$9*
0 Add four rect primitives between the rounded corners*
20,1,$1+$1,$2,$3,$4,$5,0*
20,1,$1+$1,$4,$5,$6,$7,0*
20,1,$1+$1,$6,$7,$8,$9,0*
20,1,$1+$1,$8,$9,$2,$3,0*%
G04 Aperture macros list end*
%TA.AperFunction,SMDPad,CuDef*%
%ADD10RoundRect,0.250000X0.250000X-0.250000X0.250000X0.250000X-0.250000X0.250000X-0.250000X-0.250000X0*%
%TD*%
%TA.AperFunction,ComponentPad*%
%ADD11O,2.500000X1.800000*%
%TD*%
%TA.AperFunction,SMDPad,CuDef*%
%ADD12RoundRect,0.250000X0.475000X-0.337500X0.475000X0.337500X-0.475000X0.337500X-0.475000X-0.337500X0*%
%TD*%
%TA.AperFunction,SMDPad,CuDef*%
%ADD13RoundRect,0.250000X-0.475000X0.337500X-0.475000X-0.337500X0.475000X-0.337500X0.475000X0.337500X0*%
%TD*%
%TA.AperFunction,SMDPad,CuDef*%
%ADD14RoundRect,0.150000X-0.587500X-0.150000X0.587500X-0.150000X0.587500X0.150000X-0.587500X0.150000X0*%
%TD*%
%TA.AperFunction,SMDPad,CuDef*%
%ADD15RoundRect,0.150000X0.150000X-0.875000X0.150000X0.875000X-0.150000X0.875000X-0.150000X-0.875000X0*%
%TD*%
%TA.AperFunction,SMDPad,CuDef*%
%ADD16RoundRect,0.250000X0.350000X0.450000X-0.350000X0.450000X-0.350000X-0.450000X0.350000X-0.450000X0*%
%TD*%
%TA.AperFunction,SMDPad,CuDef*%
%ADD17RoundRect,0.250000X0.625000X-0.400000X0.625000X0.400000X-0.625000X0.400000X-0.625000X-0.400000X0*%
%TD*%
%TA.AperFunction,SMDPad,CuDef*%
%ADD18RoundRect,0.250000X0.450000X-0.350000X0.450000X0.350000X-0.450000X0.350000X-0.450000X-0.350000X0*%
%TD*%
%TA.AperFunction,SMDPad,CuDef*%
%ADD19RoundRect,0.375000X-0.375000X0.625000X-0.375000X-0.625000X0.375000X-0.625000X0.375000X0.625000X0*%
%TD*%
%TA.AperFunction,SMDPad,CuDef*%
%ADD20RoundRect,0.500000X-1.400000X0.500000X-1.400000X-0.500000X1.400000X-0.500000X1.400000X0.500000X0*%
%TD*%
%TA.AperFunction,SMDPad,CuDef*%
%ADD21RoundRect,0.250000X-0.450000X0.350000X-0.450000X-0.350000X0.450000X-0.350000X0.450000X0.350000X0*%
%TD*%
%TA.AperFunction,SMDPad,CuDef*%
%ADD22RoundRect,0.150000X-0.825000X-0.150000X0.825000X-0.150000X0.825000X0.150000X-0.825000X0.150000X0*%
%TD*%
%TA.AperFunction,SMDPad,CuDef*%
%ADD23RoundRect,0.250000X-0.337500X-0.475000X0.337500X-0.475000X0.337500X0.475000X-0.337500X0.475000X0*%
%TD*%
%TA.AperFunction,SMDPad,CuDef*%
%ADD24RoundRect,0.250000X0.412500X1.100000X-0.412500X1.100000X-0.412500X-1.100000X0.412500X-1.100000X0*%
%TD*%
%TA.AperFunction,SMDPad,CuDef*%
%ADD25RoundRect,0.250000X1.100000X-0.412500X1.100000X0.412500X-1.100000X0.412500X-1.100000X-0.412500X0*%
%TD*%
%TA.AperFunction,SMDPad,CuDef*%
%ADD26RoundRect,0.150000X-0.875000X-0.150000X0.875000X-0.150000X0.875000X0.150000X-0.875000X0.150000X0*%
%TD*%
%TA.AperFunction,SMDPad,CuDef*%
%ADD27RoundRect,0.150000X-0.150000X0.825000X-0.150000X-0.825000X0.150000X-0.825000X0.150000X0.825000X0*%
%TD*%
%TA.AperFunction,ComponentPad*%
%ADD28C,2.400000*%
%TD*%
%TA.AperFunction,SMDPad,CuDef*%
%ADD29RoundRect,0.250000X-0.350000X-0.450000X0.350000X-0.450000X0.350000X0.450000X-0.350000X0.450000X0*%
%TD*%
%TA.AperFunction,SMDPad,CuDef*%
%ADD30RoundRect,0.250000X-0.650000X1.000000X-0.650000X-1.000000X0.650000X-1.000000X0.650000X1.000000X0*%
%TD*%
%TA.AperFunction,SMDPad,CuDef*%
%ADD31RoundRect,0.250000X-0.450000X0.325000X-0.450000X-0.325000X0.450000X-0.325000X0.450000X0.325000X0*%
%TD*%
%TA.AperFunction,SMDPad,CuDef*%
%ADD32RoundRect,0.250000X-1.100000X0.412500X-1.100000X-0.412500X1.100000X-0.412500X1.100000X0.412500X0*%
%TD*%
%TA.AperFunction,ComponentPad*%
%ADD33C,3.000000*%
%TD*%
%TA.AperFunction,SMDPad,CuDef*%
%ADD34RoundRect,0.250000X0.450000X-0.325000X0.450000X0.325000X-0.450000X0.325000X-0.450000X-0.325000X0*%
%TD*%
%TA.AperFunction,SMDPad,CuDef*%
%ADD35RoundRect,0.150000X0.150000X-0.512500X0.150000X0.512500X-0.150000X0.512500X-0.150000X-0.512500X0*%
%TD*%
%TA.AperFunction,ComponentPad*%
%ADD36C,10.000000*%
%TD*%
%TA.AperFunction,SMDPad,CuDef*%
%ADD37RoundRect,0.250000X-0.412500X-1.100000X0.412500X-1.100000X0.412500X1.100000X-0.412500X1.100000X0*%
%TD*%
%TA.AperFunction,SMDPad,CuDef*%
%ADD38RoundRect,0.250000X0.337500X0.475000X-0.337500X0.475000X-0.337500X-0.475000X0.337500X-0.475000X0*%
%TD*%
%TA.AperFunction,ComponentPad*%
%ADD39O,2.300000X1.600000*%
%TD*%
%TA.AperFunction,ComponentPad*%
%ADD40RoundRect,0.250001X0.499999X0.499999X-0.499999X0.499999X-0.499999X-0.499999X0.499999X-0.499999X0*%
%TD*%
%TA.AperFunction,ComponentPad*%
%ADD41C,1.500000*%
%TD*%
%TA.AperFunction,ViaPad*%
%ADD42C,0.800000*%
%TD*%
%TA.AperFunction,Conductor*%
%ADD43C,0.500000*%
%TD*%
%TA.AperFunction,Conductor*%
%ADD44C,0.300000*%
%TD*%
%ADD45C,0.350000*%
G04 APERTURE END LIST*
D10*
%TO.P,D18,1,K*%
%TO.N,Net-(D18-K)*%
X113030000Y-86340000D03*
%TO.P,D18,2,A*%
%TO.N,Net-(D18-A)*%
X113030000Y-83840000D03*
%TD*%
%TO.P,D16,1,K*%
%TO.N,Net-(D16-K)*%
X109855000Y-114915000D03*
%TO.P,D16,2,A*%
%TO.N,Net-(D16-A)*%
X109855000Y-112415000D03*
%TD*%
D11*
%TO.P,D12,1,Vin*%
%TO.N,+15V*%
X178865000Y-112395000D03*
%TO.P,D12,2,GND*%
%TO.N,GND*%
X178865000Y-109855000D03*
%TO.P,D12,3,+Vo*%
%TO.N,+5V*%
X178865000Y-107315000D03*
%TD*%
D12*
%TO.P,C13,1*%
%TO.N,E3*%
X134620000Y-120417500D03*
%TO.P,C13,2*%
%TO.N,G3*%
X134620000Y-118342500D03*
%TD*%
D13*
%TO.P,C12,1*%
%TO.N,G2*%
X122555000Y-118342500D03*
%TO.P,C12,2*%
%TO.N,E2*%
X122555000Y-120417500D03*
%TD*%
D14*
%TO.P,Q1,1,G*%
%TO.N,Net-(Q1-G)*%
X131862500Y-82250000D03*
%TO.P,Q1,2,S*%
%TO.N,GND*%
X131862500Y-84150000D03*
%TO.P,Q1,3,D*%
%TO.N,RST*%
X133737500Y-83200000D03*
%TD*%
D15*
%TO.P,D1,1,Vee2*%
%TO.N,-15V_L*%
X122555000Y-103710000D03*
%TO.P,D1,2,DESAT*%
%TO.N,Net-(D1-DESAT)*%
X123825000Y-103710000D03*
%TO.P,D1,3,GND2*%
%TO.N,E2*%
X125095000Y-103710000D03*
%TO.P,D1,4,OUTH*%
%TO.N,Net-(D1-OUTH)*%
X126365000Y-103710000D03*
%TO.P,D1,5,Vcc2*%
%TO.N,+15V_L*%
X127635000Y-103710000D03*
%TO.P,D1,6,OUTL*%
%TO.N,Net-(D1-OUTL)*%
X128905000Y-103710000D03*
%TO.P,D1,7,CLAMP*%
%TO.N,G2*%
X130175000Y-103710000D03*
%TO.P,D1,8,Vee2*%
%TO.N,-15V_L*%
X131445000Y-103710000D03*
%TO.P,D1,9,GND1*%
%TO.N,GND*%
X131445000Y-94410000D03*
%TO.P,D1,10,IN+*%
%TO.N,Net-(D1-IN+)*%
X130175000Y-94410000D03*
%TO.P,D1,11,IN-*%
%TO.N,GND*%
X128905000Y-94410000D03*
%TO.P,D1,12,RDY*%
%TO.N,RDY*%
X127635000Y-94410000D03*
%TO.P,D1,13,~{FLT}*%
%TO.N,FLT*%
X126365000Y-94410000D03*
%TO.P,D1,14,~{RST}*%
%TO.N,Net-(D1-~{RST})*%
X125095000Y-94410000D03*
%TO.P,D1,15,Vcc1*%
%TO.N,+5V*%
X123825000Y-94410000D03*
%TO.P,D1,16,TEST*%
%TO.N,GND*%
X122555000Y-94410000D03*
%TD*%
D16*
%TO.P,R24,1*%
%TO.N,Reset*%
X133800000Y-80400000D03*
%TO.P,R24,2*%
%TO.N,Net-(Q1-G)*%
X131800000Y-80400000D03*
%TD*%
D17*
%TO.P,R3,1*%
%TO.N,G2*%
X125095000Y-115215000D03*
%TO.P,R3,2*%
%TO.N,Net-(D1-OUTL)*%
X125095000Y-112115000D03*
%TD*%
D12*
%TO.P,C28,1*%
%TO.N,Current*%
X159000000Y-69537500D03*
%TO.P,C28,2*%
%TO.N,GND*%
X159000000Y-67462500D03*
%TD*%
D18*
%TO.P,R14,1*%
%TO.N,RDY*%
X137795000Y-84185000D03*
%TO.P,R14,2*%
%TO.N,+5V*%
X137795000Y-82185000D03*
%TD*%
D19*
%TO.P,U3,1,GND*%
%TO.N,-15V_H*%
X160415000Y-108864000D03*
%TO.P,U3,2,VO*%
%TO.N,+5VP*%
X158115000Y-108864000D03*
%TO.P,U3,3,VI*%
%TO.N,E3*%
X155815000Y-108864000D03*
D20*
%TO.P,U3,4*%
%TO.N,N/C*%
X158115000Y-115164000D03*
%TD*%
D21*
%TO.P,R1,1*%
%TO.N,RST*%
X128905000Y-89170000D03*
%TO.P,R1,2*%
%TO.N,Net-(D1-~{RST})*%
X128905000Y-91170000D03*
%TD*%
D22*
%TO.P,D13,1,RO*%
%TO.N,Net-(D1-IN+)*%
X157825000Y-95495000D03*
%TO.P,D13,2,~{RE}*%
%TO.N,GND*%
X157825000Y-96765000D03*
%TO.P,D13,3,DE*%
X157825000Y-98035000D03*
%TO.P,D13,4,DI*%
%TO.N,unconnected-(D13-DI-Pad4)*%
X157825000Y-99305000D03*
%TO.P,D13,5,GND*%
%TO.N,GND*%
X162775000Y-99305000D03*
%TO.P,D13,6,A*%
%TO.N,PWM2_P*%
X162775000Y-98035000D03*
%TO.P,D13,7,B*%
%TO.N,PWM2_N*%
X162775000Y-96765000D03*
%TO.P,D13,8,VCC*%
%TO.N,+5V*%
X162775000Y-95495000D03*
%TD*%
D23*
%TO.P,C1,1*%
%TO.N,GND*%
X122152500Y-92075000D03*
%TO.P,C1,2*%
%TO.N,+5V*%
X124227500Y-92075000D03*
%TD*%
D24*
%TO.P,C23,1*%
%TO.N,-15V_L*%
X131102500Y-107950000D03*
%TO.P,C23,2*%
%TO.N,E2*%
X127977500Y-107950000D03*
%TD*%
D18*
%TO.P,R8,1*%
%TO.N,Net-(D16-K)*%
X112395000Y-114665000D03*
%TO.P,R8,2*%
%TO.N,Net-(D2-DESAT)*%
X112395000Y-112665000D03*
%TD*%
D25*
%TO.P,C20,1*%
%TO.N,+15V*%
X170815000Y-113830500D03*
%TO.P,C20,2*%
%TO.N,GND*%
X170815000Y-110705500D03*
%TD*%
D16*
%TO.P,R23,1*%
%TO.N,Fault_N*%
X167500000Y-77500000D03*
%TO.P,R23,2*%
%TO.N,Fault_P*%
X165500000Y-77500000D03*
%TD*%
D26*
%TO.P,D17,1,IP+*%
%TO.N,OUT2_Sens*%
X146850000Y-64555000D03*
%TO.P,D17,2,IP+*%
X146850000Y-65825000D03*
%TO.P,D17,3,IP+*%
X146850000Y-67095000D03*
%TO.P,D17,4,IP+*%
X146850000Y-68365000D03*
%TO.P,D17,5,IP-*%
%TO.N,OUT2*%
X146850000Y-69635000D03*
%TO.P,D17,6,IP-*%
X146850000Y-70905000D03*
%TO.P,D17,7,IP-*%
X146850000Y-72175000D03*
%TO.P,D17,8,IP-*%
X146850000Y-73445000D03*
%TO.P,D17,9*%
%TO.N,N/C*%
X156150000Y-73445000D03*
%TO.P,D17,10,VCC*%
%TO.N,+5V*%
X156150000Y-72175000D03*
%TO.P,D17,11*%
%TO.N,N/C*%
X156150000Y-70905000D03*
%TO.P,D17,12,VOUT*%
%TO.N,Current*%
X156150000Y-69635000D03*
%TO.P,D17,13,FILT*%
%TO.N,unconnected-(D17-FILT-Pad13)*%
X156150000Y-68365000D03*
%TO.P,D17,14*%
%TO.N,N/C*%
X156150000Y-67095000D03*
%TO.P,D17,15,GND*%
%TO.N,GND*%
X156150000Y-65825000D03*
%TO.P,D17,16*%
%TO.N,N/C*%
X156150000Y-64555000D03*
%TD*%
D13*
%TO.P,C4,1*%
%TO.N,GND*%
X137795000Y-89132500D03*
%TO.P,C4,2*%
%TO.N,Net-(D2-~{RST})*%
X137795000Y-91207500D03*
%TD*%
D27*
%TO.P,U5,1,VDD1*%
%TO.N,+5VP*%
X185190000Y-71590000D03*
%TO.P,U5,2,VIA*%
%TO.N,Net-(U5-VIA)*%
X183920000Y-71590000D03*
%TO.P,U5,3,VIB*%
%TO.N,unconnected-(U5-VIB-Pad3)*%
X182650000Y-71590000D03*
%TO.P,U5,4,GND1*%
%TO.N,-15V_H*%
X181380000Y-71590000D03*
%TO.P,U5,5,GND2*%
%TO.N,GND*%
X181380000Y-76540000D03*
%TO.P,U5,6,VOB*%
%TO.N,unconnected-(U5-VOB-Pad6)*%
X182650000Y-76540000D03*
%TO.P,U5,7,VOA*%
%TO.N,Net-(D19-DI)*%
X183920000Y-76540000D03*
%TO.P,U5,8,VDD2*%
%TO.N,+5V*%
X185190000Y-76540000D03*
%TD*%
%TO.P,D14,1,RO*%
%TO.N,unconnected-(D14-RO-Pad1)*%
X168405000Y-70025000D03*
%TO.P,D14,2,RE*%
%TO.N,+5V*%
X167135000Y-70025000D03*
%TO.P,D14,3,DE*%
X165865000Y-70025000D03*
%TO.P,D14,4,DI*%
%TO.N,Net-(D14-DI)*%
X164595000Y-70025000D03*
%TO.P,D14,5,GND*%
%TO.N,GND*%
X164595000Y-74975000D03*
%TO.P,D14,6,A*%
%TO.N,Fault_P*%
X165865000Y-74975000D03*
%TO.P,D14,7,B*%
%TO.N,Fault_N*%
X167135000Y-74975000D03*
%TO.P,D14,8,VCC*%
%TO.N,+5V*%
X168405000Y-74975000D03*
%TD*%
D21*
%TO.P,R2,1*%
%TO.N,RST*%
X140335000Y-89170000D03*
%TO.P,R2,2*%
%TO.N,Net-(D2-~{RST})*%
X140335000Y-91170000D03*
%TD*%
D18*
%TO.P,R13,1*%
%TO.N,FLT*%
X140335000Y-84185000D03*
%TO.P,R13,2*%
%TO.N,+5V*%
X140335000Y-82185000D03*
%TD*%
D21*
%TO.P,R28,1*%
%TO.N,Net-(U5-VIA)*%
X172000000Y-71500000D03*
%TO.P,R28,2*%
%TO.N,NTC2*%
X172000000Y-73500000D03*
%TD*%
D28*
%TO.P,C10,1*%
%TO.N,DESAT_H*%
X87000000Y-83250000D03*
%TO.P,C10,2*%
%TO.N,-VDC*%
X87000000Y-110750000D03*
%TD*%
D29*
%TO.P,R26,1*%
%TO.N,-15V_H*%
X177500000Y-71500000D03*
%TO.P,R26,2*%
%TO.N,Net-(U4-+)*%
X179500000Y-71500000D03*
%TD*%
D17*
%TO.P,R6,1*%
%TO.N,G3*%
X146050000Y-115215000D03*
%TO.P,R6,2*%
%TO.N,Net-(D2-OUTL)*%
X146050000Y-112115000D03*
%TD*%
D30*
%TO.P,D5,1,K*%
%TO.N,DESAT_H*%
X107315000Y-95155000D03*
%TO.P,D5,2,A*%
%TO.N,Net-(D16-A)*%
X107315000Y-99155000D03*
%TD*%
D18*
%TO.P,R25,1*%
%TO.N,Net-(U4-+)*%
X181500000Y-69000000D03*
%TO.P,R25,2*%
%TO.N,+5VP*%
X181500000Y-67000000D03*
%TD*%
D17*
%TO.P,R19,1*%
%TO.N,G3*%
X140970000Y-115215000D03*
%TO.P,R19,2*%
%TO.N,Net-(D2-OUTL)*%
X140970000Y-112115000D03*
%TD*%
D25*
%TO.P,C18,1*%
%TO.N,+15V*%
X119380000Y-86652500D03*
%TO.P,C18,2*%
%TO.N,GND*%
X119380000Y-83527500D03*
%TD*%
D31*
%TO.P,D10,1,K*%
%TO.N,GND*%
X145415000Y-82160000D03*
%TO.P,D10,2,A*%
%TO.N,Net-(D10-A)*%
X145415000Y-84210000D03*
%TD*%
D32*
%TO.P,C22,1*%
%TO.N,+5V*%
X170815000Y-105625500D03*
%TO.P,C22,2*%
%TO.N,GND*%
X170815000Y-108750500D03*
%TD*%
D23*
%TO.P,C30,1*%
%TO.N,E3*%
X157077500Y-106426000D03*
%TO.P,C30,2*%
%TO.N,-15V_H*%
X159152500Y-106426000D03*
%TD*%
D21*
%TO.P,R30,2*%
%TO.N,PWM1_P*%
X177700000Y-98400000D03*
%TO.P,R30,1*%
%TO.N,PWM1_N*%
X177700000Y-96400000D03*
%TD*%
D33*
%TO.P,D20,1,G1*%
%TO.N,Net-(D20-E1)*%
X114572000Y-118232000D03*
%TO.P,D20,2,E1*%
X118382000Y-118232000D03*
%TO.P,D20,3,G2*%
%TO.N,G2*%
X126002000Y-118232000D03*
%TO.P,D20,4,E2*%
%TO.N,E2*%
X129812000Y-118232000D03*
%TO.P,D20,5,G3*%
%TO.N,G3*%
X137432000Y-118232000D03*
%TO.P,D20,6,E3*%
%TO.N,E3*%
X141242000Y-118232000D03*
%TO.P,D20,7,G4*%
%TO.N,Net-(D20-E4)*%
X148862000Y-118232000D03*
%TO.P,D20,8,E4*%
X152672000Y-118232000D03*
%TO.P,D20,9,G5*%
%TO.N,Net-(D20-E5)*%
X160292000Y-118232000D03*
%TO.P,D20,10,E5*%
X164102000Y-118232000D03*
%TO.P,D20,11,G6*%
%TO.N,Net-(D20-E6)*%
X171722000Y-118232000D03*
%TO.P,D20,12,E6*%
X175532000Y-118232000D03*
%TO.P,D20,13,DC-*%
%TO.N,unconnected-(D20-DC--Pad13)*%
X184652000Y-108712000D03*
%TO.P,D20,14,DC-*%
%TO.N,unconnected-(D20-DC--Pad14)*%
X184652000Y-104902000D03*
%TO.P,D20,15,DC+*%
%TO.N,unconnected-(D20-DC+-Pad15)*%
X184652000Y-89662000D03*
%TO.P,D20,16,DC+*%
%TO.N,unconnected-(D20-DC+-Pad16)*%
X184652000Y-85852000D03*
%TO.P,D20,17,NTC1*%
%TO.N,NTC1*%
X175532000Y-76332000D03*
%TO.P,D20,18,NTC2*%
%TO.N,NTC2*%
X171722000Y-76332000D03*
%TO.P,D20,19,OUT3*%
%TO.N,unconnected-(D20-OUT3-Pad19)*%
X160292000Y-76332000D03*
%TO.P,D20,20,OUT3*%
%TO.N,unconnected-(D20-OUT3-Pad20)*%
X156482000Y-76332000D03*
%TO.P,D20,21,OUT2*%
%TO.N,OUT2*%
X141242000Y-76332000D03*
%TO.P,D20,22,OUT2*%
X137432000Y-76332000D03*
%TO.P,D20,23,OUT1*%
%TO.N,OUT1*%
X122192000Y-76332000D03*
%TO.P,D20,24,OUT1*%
X118382000Y-76332000D03*
%TO.P,D20,25,DC+*%
%TO.N,DESAT_H*%
X105452000Y-85852000D03*
%TO.P,D20,26,DC+*%
X105452000Y-89662000D03*
%TO.P,D20,27,DC-*%
%TO.N,-VDC*%
X105452000Y-104902000D03*
%TO.P,D20,28,DC-*%
X105452000Y-108712000D03*
%TD*%
D34*
%TO.P,D9,1,K*%
%TO.N,FLT*%
X142875000Y-84210000D03*
%TO.P,D9,2,A*%
%TO.N,Net-(D9-A)*%
X142875000Y-82160000D03*
%TD*%
D23*
%TO.P,C2,1*%
%TO.N,GND*%
X133582500Y-92075000D03*
%TO.P,C2,2*%
%TO.N,+5V*%
X135657500Y-92075000D03*
%TD*%
D18*
%TO.P,R7,1*%
%TO.N,Net-(D18-K)*%
X115570000Y-86090000D03*
%TO.P,R7,2*%
%TO.N,Net-(D1-DESAT)*%
X115570000Y-84090000D03*
%TD*%
D12*
%TO.P,C32,1*%
%TO.N,NTC1*%
X175500000Y-73537500D03*
%TO.P,C32,2*%
%TO.N,-15V_H*%
X175500000Y-71462500D03*
%TD*%
D35*
%TO.P,U4,1*%
%TO.N,Net-(U5-VIA)*%
X172550000Y-69137500D03*
%TO.P,U4,2,V-*%
%TO.N,-15V_H*%
X173500000Y-69137500D03*
%TO.P,U4,3,+*%
%TO.N,Net-(U4-+)*%
X174450000Y-69137500D03*
%TO.P,U4,4,-*%
%TO.N,NTC1*%
X174450000Y-66862500D03*
%TO.P,U4,5,V+*%
%TO.N,+5VP*%
X172550000Y-66862500D03*
%TD*%
D36*
%TO.P,J5,1,Pin_1*%
%TO.N,OUT2_Sens*%
X139500000Y-68000000D03*
%TD*%
D17*
%TO.P,R16,1*%
%TO.N,G2*%
X130175000Y-115215000D03*
%TO.P,R16,2*%
%TO.N,Net-(D1-OUTL)*%
X130175000Y-112115000D03*
%TD*%
D37*
%TO.P,C24,1*%
%TO.N,E2*%
X122897500Y-107950000D03*
%TO.P,C24,2*%
%TO.N,+15V_L*%
X126022500Y-107950000D03*
%TD*%
D38*
%TO.P,C9,1*%
%TO.N,+5V*%
X161337500Y-101200000D03*
%TO.P,C9,2*%
%TO.N,GND*%
X159262500Y-101200000D03*
%TD*%
D36*
%TO.P,J2,1,Pin_1*%
%TO.N,DESAT_H*%
X98500000Y-78500000D03*
%TD*%
D17*
%TO.P,R22,1*%
%TO.N,G3*%
X138430000Y-115215000D03*
%TO.P,R22,2*%
%TO.N,Net-(D2-OUTH)*%
X138430000Y-112115000D03*
%TD*%
%TO.P,R17,1*%
%TO.N,G2*%
X120015000Y-115215000D03*
%TO.P,R17,2*%
%TO.N,Net-(D1-OUTH)*%
X120015000Y-112115000D03*
%TD*%
%TO.P,R15,1*%
%TO.N,G2*%
X127635000Y-115215000D03*
%TO.P,R15,2*%
%TO.N,Net-(D1-OUTL)*%
X127635000Y-112115000D03*
%TD*%
%TO.P,R20,1*%
%TO.N,G3*%
X133350000Y-115215000D03*
%TO.P,R20,2*%
%TO.N,Net-(D2-OUTH)*%
X133350000Y-112115000D03*
%TD*%
D35*
%TO.P,D6,1,B*%
%TO.N,RDY*%
X125796000Y-84449500D03*
%TO.P,D6,2,A*%
%TO.N,FLT*%
X126746000Y-84449500D03*
%TO.P,D6,3,GND*%
%TO.N,GND*%
X127696000Y-84449500D03*
%TO.P,D6,4,Y*%
%TO.N,Net-(D14-DI)*%
X127696000Y-82174500D03*
%TO.P,D6,5,Vcc*%
%TO.N,+5V*%
X125796000Y-82174500D03*
%TD*%
D30*
%TO.P,D7,1,K*%
%TO.N,OUT1*%
X113030000Y-76740000D03*
%TO.P,D7,2,A*%
%TO.N,Net-(D18-A)*%
X113030000Y-80740000D03*
%TD*%
D39*
%TO.P,D11,1,GND*%
%TO.N,GND*%
X151475005Y-90169995D03*
%TO.P,D11,2,Vin*%
%TO.N,+15V*%
X151475005Y-92709995D03*
%TO.P,D11,3,Ctrl*%
%TO.N,unconnected-(D11-Ctrl-Pad3)*%
X151475005Y-95249995D03*
%TO.P,D11,5,NC*%
%TO.N,unconnected-(D11-NC-Pad5)*%
X151475005Y-100329995D03*
%TO.P,D11,6,+VO*%
%TO.N,+15V_H*%
X151475005Y-102869995D03*
%TO.P,D11,7,0V*%
%TO.N,E3*%
X151475005Y-105409995D03*
%TO.P,D11,8,-Vo*%
%TO.N,-15V_H*%
X151475005Y-107949995D03*
%TD*%
D22*
%TO.P,D15,1,RO*%
%TO.N,Net-(D15-RO)*%
X170425000Y-95495000D03*
%TO.P,D15,2,~{RE}*%
%TO.N,GND*%
X170425000Y-96765000D03*
%TO.P,D15,3,DE*%
X170425000Y-98035000D03*
%TO.P,D15,4,DI*%
%TO.N,unconnected-(D15-DI-Pad4)*%
X170425000Y-99305000D03*
%TO.P,D15,5,GND*%
%TO.N,GND*%
X175375000Y-99305000D03*
%TO.P,D15,6,A*%
%TO.N,PWM1_P*%
X175375000Y-98035000D03*
%TO.P,D15,7,B*%
%TO.N,PWM1_N*%
X175375000Y-96765000D03*
%TO.P,D15,8,VCC*%
%TO.N,+5V*%
X175375000Y-95495000D03*
%TD*%
D25*
%TO.P,C17,1*%
%TO.N,+15V*%
X152400000Y-86652500D03*
%TO.P,C17,2*%
%TO.N,GND*%
X152400000Y-83527500D03*
%TD*%
D38*
%TO.P,C11,1*%
%TO.N,+5V*%
X173937500Y-101200000D03*
%TO.P,C11,2*%
%TO.N,GND*%
X171862500Y-101200000D03*
%TD*%
D16*
%TO.P,R32,1*%
%TO.N,RST*%
X133800000Y-86000000D03*
%TO.P,R32,2*%
%TO.N,+5V*%
X131800000Y-86000000D03*
%TD*%
D27*
%TO.P,D19,1,RO*%
%TO.N,unconnected-(D19-RO-Pad1)*%
X190905000Y-71525000D03*
%TO.P,D19,2,RE*%
%TO.N,+5V*%
X189635000Y-71525000D03*
%TO.P,D19,3,DE*%
X188365000Y-71525000D03*
%TO.P,D19,4,DI*%
%TO.N,Net-(D19-DI)*%
X187095000Y-71525000D03*
%TO.P,D19,5,GND*%
%TO.N,GND*%
X187095000Y-76475000D03*
%TO.P,D19,6,A*%
%TO.N,Temp_P*%
X188365000Y-76475000D03*
%TO.P,D19,7,B*%
%TO.N,Temp_N*%
X189635000Y-76475000D03*
%TO.P,D19,8,VCC*%
%TO.N,+5V*%
X190905000Y-76475000D03*
%TD*%
D17*
%TO.P,R4,1*%
%TO.N,G2*%
X117475000Y-115215000D03*
%TO.P,R4,2*%
%TO.N,Net-(D1-OUTH)*%
X117475000Y-112115000D03*
%TD*%
%TO.P,R18,1*%
%TO.N,G2*%
X122555000Y-115215000D03*
%TO.P,R18,2*%
%TO.N,Net-(D1-OUTH)*%
X122555000Y-112115000D03*
%TD*%
D16*
%TO.P,R29,1*%
%TO.N,Temp_N*%
X190000000Y-79145000D03*
%TO.P,R29,2*%
%TO.N,Temp_P*%
X188000000Y-79145000D03*
%TD*%
D17*
%TO.P,R5,1*%
%TO.N,G3*%
X143510000Y-115215000D03*
%TO.P,R5,2*%
%TO.N,Net-(D2-OUTL)*%
X143510000Y-112115000D03*
%TD*%
D13*
%TO.P,C3,1*%
%TO.N,GND*%
X126365000Y-89132500D03*
%TO.P,C3,2*%
%TO.N,Net-(D1-~{RST})*%
X126365000Y-91207500D03*
%TD*%
D24*
%TO.P,C25,1*%
%TO.N,-15V_H*%
X142532500Y-107950000D03*
%TO.P,C25,2*%
%TO.N,E3*%
X139407500Y-107950000D03*
%TD*%
D37*
%TO.P,C26,1*%
%TO.N,E3*%
X134327500Y-107950000D03*
%TO.P,C26,2*%
%TO.N,+15V_H*%
X137452500Y-107950000D03*
%TD*%
D40*
%TO.P,J1,1,Pin_1*%
%TO.N,Temp_N*%
X175500000Y-91420000D03*
D41*
%TO.P,J1,2,Pin_2*%
%TO.N,+15V*%
X172500000Y-91420000D03*
%TO.P,J1,3,Pin_3*%
%TO.N,PWM1_P*%
X169500000Y-91420000D03*
%TO.P,J1,4,Pin_4*%
%TO.N,Fault_P*%
X166500000Y-91420000D03*
%TO.P,J1,5,Pin_5*%
%TO.N,PWM2_P*%
X163500000Y-91420000D03*
%TO.P,J1,6,Pin_6*%
%TO.N,Reset*%
X160500000Y-91420000D03*
%TO.P,J1,7,Pin_7*%
%TO.N,Temp_P*%
X175500000Y-88420000D03*
%TO.P,J1,8,Pin_8*%
%TO.N,GND*%
X172500000Y-88420000D03*
%TO.P,J1,9,Pin_9*%
%TO.N,PWM1_N*%
X169500000Y-88420000D03*
%TO.P,J1,10,Pin_10*%
%TO.N,Fault_N*%
X166500000Y-88420000D03*
%TO.P,J1,11,Pin_11*%
%TO.N,PWM2_N*%
X163500000Y-88420000D03*
%TO.P,J1,12,Pin_12*%
%TO.N,Current*%
X160500000Y-88420000D03*
%TD*%
D17*
%TO.P,R21,1*%
%TO.N,G3*%
X135890000Y-115215000D03*
%TO.P,R21,2*%
%TO.N,Net-(D2-OUTH)*%
X135890000Y-112115000D03*
%TD*%
D18*
%TO.P,R27,1*%
%TO.N,Net-(U4-+)*%
X179000000Y-69000000D03*
%TO.P,R27,2*%
%TO.N,Net-(U5-VIA)*%
X179000000Y-67000000D03*
%TD*%
D39*
%TO.P,D8,1,GND*%
%TO.N,GND*%
X118455005Y-90169995D03*
%TO.P,D8,2,Vin*%
%TO.N,+15V*%
X118455005Y-92709995D03*
%TO.P,D8,3,Ctrl*%
%TO.N,unconnected-(D8-Ctrl-Pad3)*%
X118455005Y-95249995D03*
%TO.P,D8,5,NC*%
%TO.N,unconnected-(D8-NC-Pad5)*%
X118455005Y-100329995D03*
%TO.P,D8,6,+VO*%
%TO.N,+15V_L*%
X118455005Y-102869995D03*
%TO.P,D8,7,0V*%
%TO.N,E2*%
X118455005Y-105409995D03*
%TO.P,D8,8,-Vo*%
%TO.N,-15V_L*%
X118455005Y-107949995D03*
%TD*%
D36*
%TO.P,J4,1,Pin_1*%
%TO.N,OUT1*%
X120000000Y-68000000D03*
%TD*%
%TO.P,J3,1,Pin_1*%
%TO.N,-VDC*%
X98500000Y-116000000D03*
%TD*%
D12*
%TO.P,C33,1*%
%TO.N,Net-(U4-+)*%
X176500000Y-69037500D03*
%TO.P,C33,2*%
%TO.N,Net-(U5-VIA)*%
X176500000Y-66962500D03*
%TD*%
D21*
%TO.P,R31,1*%
%TO.N,PWM2_N*%
X165100000Y-96400000D03*
%TO.P,R31,2*%
%TO.N,PWM2_P*%
X165100000Y-98400000D03*
%TD*%
D15*
%TO.P,D2,1,Vee2*%
%TO.N,-15V_H*%
X133985000Y-103710000D03*
%TO.P,D2,2,DESAT*%
%TO.N,Net-(D2-DESAT)*%
X135255000Y-103710000D03*
%TO.P,D2,3,GND2*%
%TO.N,E3*%
X136525000Y-103710000D03*
%TO.P,D2,4,OUTH*%
%TO.N,Net-(D2-OUTH)*%
X137795000Y-103710000D03*
%TO.P,D2,5,Vcc2*%
%TO.N,+15V_H*%
X139065000Y-103710000D03*
%TO.P,D2,6,OUTL*%
%TO.N,Net-(D2-OUTL)*%
X140335000Y-103710000D03*
%TO.P,D2,7,CLAMP*%
%TO.N,G3*%
X141605000Y-103710000D03*
%TO.P,D2,8,Vee2*%
%TO.N,-15V_H*%
X142875000Y-103710000D03*
%TO.P,D2,9,GND1*%
%TO.N,GND*%
X142875000Y-94410000D03*
%TO.P,D2,10,IN+*%
%TO.N,Net-(D15-RO)*%
X141605000Y-94410000D03*
%TO.P,D2,11,IN-*%
%TO.N,GND*%
X140335000Y-94410000D03*
%TO.P,D2,12,RDY*%
%TO.N,RDY*%
X139065000Y-94410000D03*
%TO.P,D2,13,~{FLT}*%
%TO.N,FLT*%
X137795000Y-94410000D03*
%TO.P,D2,14,~{RST}*%
%TO.N,Net-(D2-~{RST})*%
X136525000Y-94410000D03*
%TO.P,D2,15,Vcc1*%
%TO.N,+5V*%
X135255000Y-94410000D03*
%TO.P,D2,16,TEST*%
%TO.N,GND*%
X133985000Y-94410000D03*
%TD*%
D42*
%TO.N,+5V*%
X161560000Y-94250000D03*
%TO.N,PWM2_P*%
X165100000Y-99695000D03*
%TO.N,PWM2_N*%
X165100000Y-95250000D03*
%TO.N,+5V*%
X182245000Y-95250000D03*
%TO.N,PWM1_P*%
X177700000Y-99595000D03*
%TO.N,PWM1_N*%
X177700000Y-95350000D03*
%TO.N,GND*%
X154686000Y-82804000D03*
X164595000Y-73595000D03*
X121666000Y-82550000D03*
X158200000Y-101200000D03*
X122152500Y-91037500D03*
X154686000Y-83820000D03*
X154675000Y-65825000D03*
X175375000Y-100175000D03*
X162775000Y-100175000D03*
X140970000Y-92710000D03*
X136652000Y-89154000D03*
X170900000Y-101200000D03*
X121666000Y-83566000D03*
X133582500Y-91037500D03*
X126365000Y-88011000D03*
X187095000Y-75095000D03*
X129540000Y-92710000D03*
X132080000Y-92710000D03*
X181380000Y-75120000D03*
X168402000Y-108458000D03*
X168402000Y-110998000D03*
X127762000Y-85598000D03*
X143510000Y-92710000D03*
X145415000Y-80985000D03*
%TO.N,E2*%
X121920000Y-107950000D03*
X128016000Y-106172000D03*
%TO.N,FLT*%
X126746000Y-85598000D03*
X127000000Y-92710000D03*
X138430000Y-92710000D03*
X140335000Y-85217000D03*
%TO.N,RDY*%
X139700000Y-92710000D03*
X128270000Y-92710000D03*
X125730000Y-85598000D03*
X137795000Y-85217000D03*
X146715000Y-82185000D03*
%TO.N,+5VP*%
X185190000Y-72810000D03*
X159004000Y-111506000D03*
X160020000Y-111506000D03*
X172550000Y-65550000D03*
X161036000Y-111506000D03*
%TO.N,Net-(D14-DI)*%
X164500000Y-68500000D03*
X127696000Y-81092000D03*
%TO.N,+15V*%
X121666000Y-86360000D03*
X121666000Y-87376000D03*
X168402000Y-114046000D03*
X168402000Y-113030000D03*
X154686000Y-87376000D03*
X154686000Y-86360000D03*
%TO.N,+5V*%
X125796000Y-81092000D03*
X190905000Y-75095000D03*
X130800000Y-86000000D03*
X175000000Y-101200000D03*
X168402000Y-105410000D03*
X162300000Y-101200000D03*
X154675000Y-72175000D03*
X138176000Y-80960000D03*
X142875000Y-85385000D03*
X168402000Y-106426000D03*
X168405000Y-73595000D03*
X124227500Y-91037500D03*
X135657500Y-91037500D03*
X185190000Y-75190000D03*
%TO.N,Net-(D2-DESAT)*%
X134780959Y-105316959D03*
X113538000Y-112776000D03*
%TO.N,Net-(D1-DESAT)*%
X123096959Y-105316959D03*
X115570000Y-82804000D03*
%TO.N,G2*%
X130048000Y-104902000D03*
%TO.N,Net-(D9-A)*%
X142875000Y-81153000D03*
%TO.N,Net-(D10-A)*%
X145415000Y-85090000D03*
%TO.N,+15V_L*%
X125984000Y-109728000D03*
%TO.N,Reset*%
X135255000Y-80899000D03*
%TO.N,G3*%
X141732000Y-105156000D03*
%TO.N,E3*%
X155448000Y-106934000D03*
X139446000Y-106172000D03*
X133350000Y-107950000D03*
X155448000Y-105918000D03*
%TO.N,NTC1*%
X174450000Y-65550000D03*
%TO.N,+15V_H*%
X137414000Y-109728000D03*
%TO.N,-15V_H*%
X133350000Y-105410000D03*
X173500000Y-70500000D03*
X143764000Y-107950000D03*
X181380000Y-72880000D03*
X160782000Y-105918000D03*
X160782000Y-106934000D03*
%TO.N,-15V_L*%
X121920000Y-105410000D03*
X131064000Y-109728000D03*
%TO.N,Net-(D1-IN+)*%
X130810000Y-92710000D03*
X156200000Y-95500000D03*
%TO.N,Net-(D15-RO)*%
X168900000Y-95500000D03*
X142240000Y-92710000D03*
%TD*%
D43*
%TO.N,Net-(D18-K)*%
X113030000Y-86340000D02*
X115320000Y-86340000D01*
X115320000Y-86340000D02*
X115570000Y-86090000D01*
%TO.N,Net-(D18-A)*%
X113030000Y-83840000D02*
X113030000Y-80740000D01*
%TO.N,Net-(D16-K)*%
X112145000Y-114915000D02*
X112395000Y-114665000D01*
X109855000Y-114915000D02*
X112145000Y-114915000D01*
%TO.N,Net-(D16-A)*%
X109855000Y-112415000D02*
X109855000Y-101695000D01*
%TO.N,Current*%
X160500000Y-82487500D02*
X160500000Y-88420000D01*
X163195000Y-79792500D02*
X160500000Y-82487500D01*
X159000000Y-69537500D02*
X160537500Y-69537500D01*
X160537500Y-69537500D02*
X163195000Y-72195000D01*
X163195000Y-72195000D02*
X163195000Y-79792500D01*
%TO.N,PWM2_P*%
X165100000Y-98400000D02*
X165100000Y-99695000D01*
%TO.N,PWM2_N*%
X165100000Y-96400000D02*
X165100000Y-95250000D01*
%TO.N,PWM1_N*%
X177700000Y-95350000D02*
X177700000Y-96400000D01*
%TO.N,PWM1_P*%
X177700000Y-99595000D02*
X177700000Y-98400000D01*
%TO.N,E3*%
X139056500Y-120417500D02*
X141242000Y-118232000D01*
X134620000Y-120417500D02*
X139056500Y-120417500D01*
%TO.N,E2*%
X127626500Y-120417500D02*
X129812000Y-118232000D01*
X122555000Y-120417500D02*
X127626500Y-120417500D01*
%TO.N,GND*%
X171862500Y-101200000D02*
X171862500Y-100137500D01*
X142875000Y-93345000D02*
X143510000Y-92710000D01*
X170900000Y-101200000D02*
X171862500Y-101200000D01*
X159800000Y-99600000D02*
X159800000Y-98600000D01*
X158200000Y-101200000D02*
X159262500Y-101200000D01*
X128905000Y-94410000D02*
X128905000Y-93345000D01*
X133985000Y-94410000D02*
X133985000Y-92477500D01*
X187095000Y-75095000D02*
X187095000Y-76475000D01*
X133582500Y-91037500D02*
X133582500Y-92075000D01*
X127696000Y-85532000D02*
X127762000Y-85598000D01*
X171862500Y-100137500D02*
X172300000Y-99700000D01*
X159235000Y-98035000D02*
X157825000Y-98035000D01*
X172300000Y-98500000D02*
X171835000Y-98035000D01*
X122555000Y-94410000D02*
X122555000Y-92477500D01*
X122152500Y-91037500D02*
X122152500Y-92075000D01*
X136673500Y-89132500D02*
X136652000Y-89154000D01*
X157825000Y-96765000D02*
X157825000Y-98035000D01*
X122555000Y-92477500D02*
X122152500Y-92075000D01*
X127995500Y-84150000D02*
X127696000Y-84449500D01*
X164595000Y-73595000D02*
X164595000Y-74975000D01*
X156150000Y-65825000D02*
X157362500Y-65825000D01*
X140335000Y-94410000D02*
X140335000Y-93345000D01*
X145415000Y-80985000D02*
X145415000Y-82160000D01*
X154675000Y-65825000D02*
X156150000Y-65825000D01*
X157362500Y-65825000D02*
X159000000Y-67462500D01*
X140335000Y-93345000D02*
X140970000Y-92710000D01*
X159262500Y-101200000D02*
X159262500Y-100137500D01*
X171835000Y-98035000D02*
X170425000Y-98035000D01*
X128905000Y-93345000D02*
X129540000Y-92710000D01*
X131445000Y-93345000D02*
X132080000Y-92710000D01*
X133985000Y-92477500D02*
X133582500Y-92075000D01*
X137795000Y-89132500D02*
X136673500Y-89132500D01*
X131862500Y-84150000D02*
X127995500Y-84150000D01*
X181380000Y-75120000D02*
X181380000Y-76540000D01*
X126365000Y-88011000D02*
X126365000Y-89132500D01*
X142875000Y-94410000D02*
X142875000Y-93345000D01*
X159262500Y-100137500D02*
X159800000Y-99600000D01*
X127696000Y-84449500D02*
X127696000Y-85532000D01*
X159800000Y-98600000D02*
X159235000Y-98035000D01*
X175375000Y-100175000D02*
X175375000Y-99305000D01*
X170425000Y-96765000D02*
X170425000Y-98035000D01*
X131445000Y-94410000D02*
X131445000Y-93345000D01*
X172300000Y-99700000D02*
X172300000Y-98500000D01*
X162775000Y-100175000D02*
X162775000Y-99305000D01*
%TO.N,E2*%
X127977500Y-107950000D02*
X127977500Y-106210500D01*
X125095000Y-104521000D02*
X125095000Y-103710000D01*
X122897500Y-107950000D02*
X122897500Y-106718500D01*
X127977500Y-106210500D02*
X128016000Y-106172000D01*
X122897500Y-107950000D02*
X121920000Y-107950000D01*
X122897500Y-106718500D02*
X125095000Y-104521000D01*
%TO.N,FLT*%
X126746000Y-84449500D02*
X126746000Y-85598000D01*
X140335000Y-85217000D02*
X140335000Y-84185000D01*
X126365000Y-94410000D02*
X126365000Y-93345000D01*
X126365000Y-93345000D02*
X127000000Y-92710000D01*
X142875000Y-84210000D02*
X140360000Y-84210000D01*
X137795000Y-93345000D02*
X138430000Y-92710000D01*
X137795000Y-94410000D02*
X137795000Y-93345000D01*
X140360000Y-84210000D02*
X140335000Y-84185000D01*
%TO.N,RDY*%
X125796000Y-84449500D02*
X125796000Y-85532000D01*
X125796000Y-85532000D02*
X125730000Y-85598000D01*
X139065000Y-93345000D02*
X139700000Y-92710000D01*
X127635000Y-94410000D02*
X127635000Y-93345000D01*
X139065000Y-94410000D02*
X139065000Y-93345000D01*
X127635000Y-93345000D02*
X128270000Y-92710000D01*
X137795000Y-85217000D02*
X137795000Y-84185000D01*
%TO.N,+5VP*%
X173400000Y-64700000D02*
X172550000Y-65550000D01*
X181500000Y-67000000D02*
X179200000Y-64700000D01*
X172550000Y-66862500D02*
X172550000Y-65550000D01*
X179200000Y-64700000D02*
X173400000Y-64700000D01*
X185190000Y-72810000D02*
X185190000Y-71590000D01*
%TO.N,Net-(D14-DI)*%
X164595000Y-70025000D02*
X164595000Y-68595000D01*
X127696000Y-82174500D02*
X127696000Y-81092000D01*
X164595000Y-68595000D02*
X164500000Y-68500000D01*
%TO.N,+5V*%
X138176000Y-80960000D02*
X137795000Y-81341000D01*
X173400000Y-99600000D02*
X173400000Y-96000000D01*
X160700000Y-95900000D02*
X161105000Y-95495000D01*
X140335000Y-82185000D02*
X137795000Y-82185000D01*
X123825000Y-92477500D02*
X124227500Y-92075000D01*
X162300000Y-101200000D02*
X161337500Y-101200000D01*
X167135000Y-70025000D02*
X165865000Y-70025000D01*
X189635000Y-73825000D02*
X190905000Y-75095000D01*
X161337500Y-101200000D02*
X161337500Y-100137500D01*
X173400000Y-96000000D02*
X173905000Y-95495000D01*
X135255000Y-92477500D02*
X135657500Y-92075000D01*
X123825000Y-94410000D02*
X123825000Y-92477500D01*
X135255000Y-94410000D02*
X135255000Y-92477500D01*
X161337500Y-100137500D02*
X160700000Y-99500000D01*
X188365000Y-71525000D02*
X189635000Y-71525000D01*
X137795000Y-81341000D02*
X137795000Y-82185000D01*
X167135000Y-72325000D02*
X168405000Y-73595000D01*
X173900000Y-101162500D02*
X173937500Y-101200000D01*
X135657500Y-91037500D02*
X135657500Y-92075000D01*
X160700000Y-99500000D02*
X160700000Y-95900000D01*
X175000000Y-101200000D02*
X173937500Y-101200000D01*
X189635000Y-71525000D02*
X189635000Y-73825000D01*
X131800000Y-86000000D02*
X130800000Y-86000000D01*
X125796000Y-81092000D02*
X125796000Y-82174500D01*
X161105000Y-95495000D02*
X162775000Y-95495000D01*
X173905000Y-95495000D02*
X175375000Y-95495000D01*
X167135000Y-70025000D02*
X167135000Y-72325000D01*
X185190000Y-75190000D02*
X185190000Y-76540000D01*
X190905000Y-75095000D02*
X190905000Y-76475000D01*
X168405000Y-73595000D02*
X168405000Y-74975000D01*
X173900000Y-100100000D02*
X173400000Y-99600000D01*
X173900000Y-101162500D02*
X173900000Y-100100000D01*
X124227500Y-91037500D02*
X124227500Y-92075000D01*
X154675000Y-72175000D02*
X156150000Y-72175000D01*
%TO.N,Current*%
X158902500Y-69635000D02*
X159000000Y-69537500D01*
X156150000Y-69635000D02*
X158902500Y-69635000D01*
%TO.N,RST*%
X138795000Y-87630000D02*
X134485000Y-87630000D01*
X133800000Y-86945000D02*
X133800000Y-86000000D01*
X138795000Y-87630000D02*
X140335000Y-89170000D01*
X133737500Y-85937500D02*
X133800000Y-86000000D01*
X131575000Y-89170000D02*
X133800000Y-86945000D01*
X133737500Y-83200000D02*
X133737500Y-85937500D01*
X128905000Y-89170000D02*
X131575000Y-89170000D01*
X134485000Y-87630000D02*
X133800000Y-86945000D01*
%TO.N,PWM2_P*%
X163500000Y-93169668D02*
X163500000Y-91420000D01*
X165825000Y-97775000D02*
X166655332Y-97775000D01*
X165100000Y-98400000D02*
X165200000Y-98400000D01*
X166255332Y-93325000D02*
X163655332Y-93325000D01*
X167575000Y-94644668D02*
X166255332Y-93325000D01*
X162775000Y-98035000D02*
X164735000Y-98035000D01*
X166655332Y-97775000D02*
X167575000Y-96855332D01*
X163655332Y-93325000D02*
X163500000Y-93169668D01*
X164735000Y-98035000D02*
X165100000Y-98400000D01*
X167575000Y-96855332D02*
X167575000Y-94644668D01*
X165200000Y-98400000D02*
X165825000Y-97775000D01*
%TO.N,PWM2_N*%
X165944668Y-94075000D02*
X163344668Y-94075000D01*
X162750000Y-92367057D02*
X162300000Y-91917057D01*
X166344668Y-97025000D02*
X166825000Y-96544668D01*
X162775000Y-96765000D02*
X164735000Y-96765000D01*
X166825000Y-96544668D02*
X166825000Y-94955332D01*
X165100000Y-96400000D02*
X165200000Y-96400000D01*
X162300000Y-90922943D02*
X162750000Y-90472943D01*
X165200000Y-96400000D02*
X165825000Y-97025000D01*
X162750000Y-93480332D02*
X162750000Y-92367057D01*
X162750000Y-90472943D02*
X162750000Y-89170000D01*
X164735000Y-96765000D02*
X165100000Y-96400000D01*
X162300000Y-91917057D02*
X162300000Y-90922943D01*
X166825000Y-94955332D02*
X165944668Y-94075000D01*
X163344668Y-94075000D02*
X162750000Y-93480332D01*
X162750000Y-89170000D02*
X163500000Y-88420000D01*
X165825000Y-97025000D02*
X166344668Y-97025000D01*
%TO.N,Net-(D2-DESAT)*%
X135255000Y-103710000D02*
X135255000Y-104842918D01*
X113538000Y-112776000D02*
X112506000Y-112776000D01*
X135255000Y-104842918D02*
X134780959Y-105316959D01*
X112506000Y-112776000D02*
X112395000Y-112665000D01*
%TO.N,Net-(D1-DESAT)*%
X115570000Y-82804000D02*
X115570000Y-84090000D01*
X123096959Y-105316959D02*
X123825000Y-104588918D01*
X123825000Y-104588918D02*
X123825000Y-103710000D01*
%TO.N,G2*%
X130048000Y-104902000D02*
X130175000Y-104775000D01*
X130175000Y-104775000D02*
X130175000Y-103710000D01*
D44*
%TO.N,Net-(U5-VIA)*%
X179950000Y-67950000D02*
X179000000Y-67000000D01*
X183920000Y-71590000D02*
X183920000Y-68920000D01*
D43*
X176537500Y-67000000D02*
X176500000Y-66962500D01*
D44*
X182950000Y-67950000D02*
X179950000Y-67950000D01*
D43*
X172550000Y-69137500D02*
X172550000Y-70950000D01*
X173025000Y-67975000D02*
X175487500Y-67975000D01*
X172550000Y-68450000D02*
X173025000Y-67975000D01*
X172550000Y-70950000D02*
X172000000Y-71500000D01*
X175487500Y-67975000D02*
X176500000Y-66962500D01*
X172550000Y-69137500D02*
X172550000Y-68450000D01*
D44*
X183920000Y-68920000D02*
X182950000Y-67950000D01*
D43*
X179000000Y-67000000D02*
X176537500Y-67000000D01*
%TO.N,Net-(U4-+)*%
X178962500Y-69037500D02*
X179000000Y-69000000D01*
X174450000Y-69137500D02*
X176400000Y-69137500D01*
X179500000Y-69500000D02*
X179000000Y-69000000D01*
X179500000Y-71500000D02*
X179500000Y-69500000D01*
X181500000Y-69000000D02*
X179000000Y-69000000D01*
X176500000Y-69037500D02*
X178962500Y-69037500D01*
X176400000Y-69137500D02*
X176500000Y-69037500D01*
%TO.N,Net-(D16-A)*%
X109855000Y-101695000D02*
X107315000Y-99155000D01*
%TO.N,Net-(D9-A)*%
X142875000Y-81153000D02*
X142875000Y-82160000D01*
%TO.N,Fault_P*%
X166125000Y-84844668D02*
X165750000Y-85219668D01*
X165865000Y-77135000D02*
X165500000Y-77500000D01*
X165300000Y-87922943D02*
X165300000Y-88917057D01*
X165500000Y-78550001D02*
X166125000Y-79175001D01*
X165500000Y-77500000D02*
X165500000Y-78550001D01*
X165750000Y-90670000D02*
X166500000Y-91420000D01*
X165300000Y-88917057D02*
X165750000Y-89367057D01*
X165750000Y-87472943D02*
X165300000Y-87922943D01*
X165750000Y-85219668D02*
X165750000Y-87472943D01*
X165865000Y-74975000D02*
X165865000Y-77135000D01*
X165750000Y-89367057D02*
X165750000Y-90670000D01*
X166125000Y-79175001D02*
X166125000Y-84844668D01*
%TO.N,Fault_N*%
X167135000Y-74975000D02*
X167135000Y-77135000D01*
X167500000Y-78550001D02*
X166875000Y-79175001D01*
X167500000Y-77500000D02*
X167500000Y-78550001D01*
X166875000Y-85155332D02*
X166500000Y-85530332D01*
X166500000Y-85530332D02*
X166500000Y-88420000D01*
X167135000Y-77135000D02*
X167500000Y-77500000D01*
X166875000Y-79175001D02*
X166875000Y-85155332D01*
%TO.N,Net-(D10-A)*%
X145415000Y-85090000D02*
X145415000Y-84210000D01*
%TO.N,Temp_P*%
X188365000Y-76475000D02*
X188365000Y-78780000D01*
X188365000Y-78780000D02*
X188000000Y-79145000D01*
X181344668Y-81125000D02*
X175500000Y-86969668D01*
X186959339Y-81125000D02*
X181344668Y-81125000D01*
X188000000Y-79145000D02*
X188000000Y-80084339D01*
X175500000Y-86969668D02*
X175500000Y-88420000D01*
X188000000Y-80084339D02*
X186959339Y-81125000D01*
%TO.N,Temp_N*%
X176250000Y-90670000D02*
X175500000Y-91420000D01*
X189635000Y-76475000D02*
X189635000Y-78780000D01*
X176250000Y-89367057D02*
X176250000Y-90670000D01*
X176700000Y-88917057D02*
X176250000Y-89367057D01*
X189635000Y-78780000D02*
X190000000Y-79145000D01*
X181655332Y-81875000D02*
X176250000Y-87280332D01*
X176700000Y-87922943D02*
X176700000Y-88917057D01*
X190000000Y-79145000D02*
X187270000Y-81875000D01*
X176250000Y-87472943D02*
X176700000Y-87922943D01*
X187270000Y-81875000D02*
X181655332Y-81875000D01*
X176250000Y-87280332D02*
X176250000Y-87472943D01*
%TO.N,+15V_L*%
X126022500Y-109689500D02*
X125984000Y-109728000D01*
X126022500Y-107950000D02*
X126022500Y-106387500D01*
X127635000Y-104775000D02*
X127635000Y-103710000D01*
X126022500Y-107950000D02*
X126022500Y-109689500D01*
X126022500Y-106387500D02*
X127635000Y-104775000D01*
%TO.N,Reset*%
X133800000Y-80400000D02*
X134756000Y-80400000D01*
X134756000Y-80400000D02*
X135255000Y-80899000D01*
%TO.N,G3*%
X141605000Y-103710000D02*
X141605000Y-105029000D01*
X141605000Y-105029000D02*
X141732000Y-105156000D01*
%TO.N,E3*%
X139407500Y-106210500D02*
X139446000Y-106172000D01*
X139407500Y-107950000D02*
X139407500Y-106210500D01*
X136525000Y-104775000D02*
X136525000Y-103710000D01*
X134327500Y-107950000D02*
X134327500Y-106972500D01*
X134327500Y-107950000D02*
X133350000Y-107950000D01*
X134327500Y-106972500D02*
X136525000Y-104775000D01*
%TO.N,Net-(D19-DI)*%
X186500000Y-74000000D02*
X187095000Y-73405000D01*
X183920000Y-76540000D02*
X183920000Y-74580000D01*
X183920000Y-74580000D02*
X184500000Y-74000000D01*
X184500000Y-74000000D02*
X186500000Y-74000000D01*
X187095000Y-73405000D02*
X187095000Y-71525000D01*
%TO.N,Net-(D20-E1)*%
X118382000Y-118232000D02*
X114572000Y-118232000D01*
%TO.N,Net-(D20-E4)*%
X152672000Y-118232000D02*
X148862000Y-118232000D01*
%TO.N,NTC1*%
X174450000Y-65550000D02*
X174450000Y-66862500D01*
X175500000Y-76300000D02*
X175532000Y-76332000D01*
X175500000Y-73537500D02*
X175500000Y-76300000D01*
X175895000Y-76695000D02*
X175532000Y-76332000D01*
%TO.N,NTC2*%
X172085000Y-76695000D02*
X171722000Y-76332000D01*
X172000000Y-73500000D02*
X172000000Y-76054000D01*
X172000000Y-76054000D02*
X171722000Y-76332000D01*
%TO.N,Net-(D20-E5)*%
X164102000Y-118232000D02*
X160292000Y-118232000D01*
%TO.N,Net-(D20-E6)*%
X175532000Y-118232000D02*
X171722000Y-118232000D01*
%TO.N,OUT1*%
X117974000Y-76740000D02*
X118382000Y-76332000D01*
X113030000Y-76740000D02*
X117974000Y-76740000D01*
%TO.N,DESAT_H*%
X107315000Y-91525000D02*
X105452000Y-89662000D01*
X107315000Y-95155000D02*
X107315000Y-91525000D01*
%TO.N,Net-(Q1-G)*%
X131800000Y-82187500D02*
X131862500Y-82250000D01*
X131800000Y-80400000D02*
X131800000Y-82187500D01*
%TO.N,+15V_H*%
X137452500Y-107950000D02*
X137452500Y-106387500D01*
X137452500Y-106387500D02*
X139065000Y-104775000D01*
X139065000Y-104775000D02*
X139065000Y-103710000D01*
X137452500Y-109689500D02*
X137414000Y-109728000D01*
X137452500Y-107950000D02*
X137452500Y-109689500D01*
%TO.N,-15V_H*%
X174462500Y-71462500D02*
X175500000Y-71462500D01*
X143764000Y-107950000D02*
X142532500Y-107950000D01*
X142875000Y-103710000D02*
X142875000Y-107607500D01*
X177500000Y-71500000D02*
X175537500Y-71500000D01*
X173500000Y-70500000D02*
X174462500Y-71462500D01*
X133985000Y-104775000D02*
X133350000Y-105410000D01*
X133985000Y-103710000D02*
X133985000Y-104775000D01*
X142875000Y-107607500D02*
X142532500Y-107950000D01*
X175537500Y-71500000D02*
X175500000Y-71462500D01*
X181380000Y-72880000D02*
X181380000Y-71590000D01*
X173500000Y-69137500D02*
X173500000Y-70500000D01*
%TO.N,-15V_L*%
X131102500Y-109689500D02*
X131064000Y-109728000D01*
X131445000Y-103710000D02*
X131445000Y-107607500D01*
X121920000Y-105291836D02*
X121920000Y-105410000D01*
X131102500Y-107950000D02*
X131102500Y-109689500D01*
X122555000Y-104656836D02*
X121920000Y-105291836D01*
X122555000Y-103710000D02*
X122555000Y-104656836D01*
X118455010Y-107950000D02*
X118455005Y-107949995D01*
X131445000Y-107607500D02*
X131102500Y-107950000D01*
%TO.N,Net-(D2-~{RST})*%
X140335000Y-91170000D02*
X137832500Y-91170000D01*
X137795000Y-92115001D02*
X137795000Y-91207500D01*
X136525000Y-93385001D02*
X137795000Y-92115001D01*
X136525000Y-94410000D02*
X136525000Y-93385001D01*
X137832500Y-91170000D02*
X137795000Y-91207500D01*
%TO.N,Net-(D1-~{RST})*%
X125095000Y-94410000D02*
X125095000Y-93385001D01*
X128905000Y-91170000D02*
X126402500Y-91170000D01*
X125095000Y-93385001D02*
X126365000Y-92115001D01*
X126402500Y-91170000D02*
X126365000Y-91207500D01*
X126365000Y-92115001D02*
X126365000Y-91207500D01*
%TO.N,Net-(D1-IN+)*%
X156205000Y-95495000D02*
X156200000Y-95500000D01*
X157825000Y-95495000D02*
X156205000Y-95495000D01*
X130175000Y-94410000D02*
X130175000Y-93345000D01*
X130175000Y-93345000D02*
X130810000Y-92710000D01*
%TO.N,Net-(D15-RO)*%
X141605000Y-94410000D02*
X141605000Y-93345000D01*
X168905000Y-95495000D02*
X168900000Y-95500000D01*
X170425000Y-95495000D02*
X168905000Y-95495000D01*
X141605000Y-93345000D02*
X142240000Y-92710000D01*
%TO.N,PWM1_N*%
X169444668Y-94275000D02*
X168750000Y-93580332D01*
X168750000Y-93580332D02*
X168750000Y-92367057D01*
X168300000Y-91917057D02*
X168300000Y-90922943D01*
X168750000Y-92367057D02*
X168300000Y-91917057D01*
X168750000Y-90472943D02*
X168750000Y-89170000D01*
X168300000Y-90922943D02*
X168750000Y-90472943D01*
X168750000Y-89170000D02*
X169500000Y-88420000D01*
%TO.N,PWM1_P*%
X169755332Y-93525000D02*
X169500000Y-93269668D01*
X169500000Y-93269668D02*
X169500000Y-91420000D01*
X178755332Y-93525000D02*
X169755332Y-93525000D01*
%TO.N,PWM1_N*%
X178444668Y-94275000D02*
X169444668Y-94275000D01*
X177335000Y-96765000D02*
X177700000Y-96400000D01*
%TO.N,PWM1_P*%
X177335000Y-98035000D02*
X177700000Y-98400000D01*
X175375000Y-98035000D02*
X177335000Y-98035000D01*
%TO.N,PWM1_N*%
X175375000Y-96765000D02*
X177335000Y-96765000D01*
%TO.N,PWM1_P*%
X179975000Y-94744668D02*
X178755332Y-93525000D01*
%TO.N,PWM1_N*%
X179225000Y-95055332D02*
X178444668Y-94275000D01*
X179225000Y-95814339D02*
X179225000Y-95055332D01*
X177700000Y-96400000D02*
X178639339Y-96400000D01*
X178639339Y-96400000D02*
X179225000Y-95814339D01*
%TO.N,PWM1_P*%
X179975000Y-96125000D02*
X179975000Y-94744668D01*
X177700000Y-98400000D02*
X179975000Y-96125000D01*
%TD*%
%TA.AperFunction,Conductor*%
%TO.N,+5VP*%
G36*
X158308039Y-108633685D02*
G01*
X158353794Y-108686489D01*
X158365000Y-108738000D01*
X158365000Y-110114000D01*
X158553106Y-110114000D01*
X158553118Y-110113999D01*
X158588547Y-110111211D01*
X158588553Y-110111210D01*
X158740185Y-110067156D01*
X158740188Y-110067155D01*
X158876108Y-109986773D01*
X158876112Y-109986770D01*
X158930573Y-109932309D01*
X158991896Y-109898824D01*
X159004000Y-109899689D01*
X159004000Y-110490000D01*
X160791907Y-110490000D01*
X160804061Y-110490597D01*
X160980941Y-110508018D01*
X161004769Y-110512757D01*
X161169001Y-110562576D01*
X161191453Y-110571877D01*
X161342798Y-110652772D01*
X161363010Y-110666277D01*
X161495666Y-110775145D01*
X161512854Y-110792333D01*
X161621722Y-110924989D01*
X161635227Y-110945201D01*
X161716121Y-111096543D01*
X161725424Y-111119001D01*
X161775240Y-111283224D01*
X161779982Y-111307065D01*
X161797403Y-111483938D01*
X161798000Y-111496092D01*
X161798000Y-112531907D01*
X161797403Y-112544061D01*
X161779982Y-112720934D01*
X161775240Y-112744775D01*
X161725424Y-112908998D01*
X161716121Y-112931456D01*
X161635227Y-113082798D01*
X161621722Y-113103010D01*
X161512854Y-113235666D01*
X161495666Y-113252854D01*
X161363010Y-113361722D01*
X161342798Y-113375227D01*
X161191456Y-113456121D01*
X161168998Y-113465424D01*
X161004775Y-113515240D01*
X160980934Y-113519982D01*
X160804061Y-113537403D01*
X160791907Y-113538000D01*
X154168093Y-113538000D01*
X154155939Y-113537403D01*
X153979065Y-113519982D01*
X153955224Y-113515240D01*
X153791001Y-113465424D01*
X153768543Y-113456121D01*
X153617201Y-113375227D01*
X153596989Y-113361722D01*
X153464333Y-113252854D01*
X153447145Y-113235666D01*
X153338277Y-113103010D01*
X153324772Y-113082798D01*
X153243878Y-112931456D01*
X153234575Y-112908998D01*
X153184757Y-112744769D01*
X153180018Y-112720941D01*
X153162597Y-112544061D01*
X153162000Y-112531907D01*
X153162000Y-111496092D01*
X153162597Y-111483938D01*
X153180018Y-111307056D01*
X153184757Y-111283232D01*
X153234577Y-111118994D01*
X153243875Y-111096549D01*
X153324775Y-110945195D01*
X153338272Y-110924995D01*
X153447149Y-110792328D01*
X153464328Y-110775149D01*
X153596995Y-110666272D01*
X153617195Y-110652775D01*
X153768549Y-110571875D01*
X153790994Y-110562577D01*
X153955232Y-110512757D01*
X153979056Y-110508018D01*
X154155939Y-110490597D01*
X154168093Y-110490000D01*
X156225997Y-110490000D01*
X156226000Y-110490000D01*
X157226000Y-110490000D01*
X157226000Y-109898596D01*
X157285164Y-109920063D01*
X157299425Y-109932309D01*
X157353883Y-109986767D01*
X157353891Y-109986773D01*
X157489811Y-110067155D01*
X157489814Y-110067156D01*
X157641446Y-110111210D01*
X157641452Y-110111211D01*
X157676881Y-110113999D01*
X157676894Y-110114000D01*
X157865000Y-110114000D01*
X157865000Y-108738000D01*
X157884685Y-108670961D01*
X157937489Y-108625206D01*
X157989000Y-108614000D01*
X158241000Y-108614000D01*
X158308039Y-108633685D01*
G37*
%TD.AperFunction*%
%TD*%
%TA.AperFunction,Conductor*%
%TO.N,Net-(D1-OUTL)*%
G36*
X129098039Y-103479685D02*
G01*
X129143794Y-103532489D01*
X129155000Y-103584000D01*
X129155000Y-104974146D01*
X129155001Y-104974147D01*
X129180145Y-104970165D01*
X129209934Y-104954987D01*
X129278603Y-104942089D01*
X129325382Y-104961073D01*
X129439755Y-105132632D01*
X129467779Y-105206521D01*
X129557515Y-105336528D01*
X129557516Y-105336529D01*
X129557517Y-105336530D01*
X129589871Y-105365193D01*
X129610814Y-105389221D01*
X130130676Y-106169014D01*
X130136911Y-106179439D01*
X130220409Y-106335981D01*
X130229679Y-106358406D01*
X130269998Y-106491571D01*
X130270585Y-106561438D01*
X130250590Y-106601810D01*
X130246202Y-106607671D01*
X130195908Y-106742517D01*
X130189501Y-106802116D01*
X130189501Y-106802123D01*
X130189500Y-106802135D01*
X130189500Y-109097870D01*
X130189501Y-109097876D01*
X130195908Y-109157483D01*
X130246202Y-109292328D01*
X130246203Y-109292330D01*
X130246204Y-109292331D01*
X130302000Y-109366864D01*
X130302000Y-109474000D01*
X130404333Y-109653083D01*
X130411941Y-109701485D01*
X130408722Y-109727999D01*
X130408722Y-109728000D01*
X130427762Y-109884818D01*
X130483780Y-110032523D01*
X130573517Y-110162530D01*
X130691760Y-110267283D01*
X130750459Y-110298091D01*
X130800494Y-110346365D01*
X131183578Y-111016762D01*
X131188492Y-111026296D01*
X131233515Y-111123791D01*
X131243750Y-111192907D01*
X131214994Y-111256584D01*
X131156376Y-111294607D01*
X131086507Y-111294902D01*
X131046628Y-111275044D01*
X131042093Y-111271649D01*
X131042086Y-111271645D01*
X130907379Y-111221403D01*
X130907372Y-111221401D01*
X130847844Y-111215000D01*
X130425000Y-111215000D01*
X130425000Y-112241000D01*
X130405315Y-112308039D01*
X130352511Y-112353794D01*
X130301000Y-112365000D01*
X129050000Y-112365000D01*
X129050000Y-112562844D01*
X129056401Y-112622372D01*
X129056403Y-112622379D01*
X129106645Y-112757086D01*
X129106649Y-112757093D01*
X129162492Y-112831689D01*
X129186910Y-112897153D01*
X129172059Y-112965426D01*
X129122654Y-113014832D01*
X129063226Y-113030000D01*
X128746774Y-113030000D01*
X128679735Y-113010315D01*
X128633980Y-112957511D01*
X128624036Y-112888353D01*
X128647508Y-112831689D01*
X128703350Y-112757093D01*
X128703354Y-112757086D01*
X128753596Y-112622379D01*
X128753598Y-112622372D01*
X128759999Y-112562844D01*
X128760000Y-112562827D01*
X128760000Y-112365000D01*
X126510000Y-112365000D01*
X126510000Y-112562844D01*
X126516401Y-112622372D01*
X126516403Y-112622379D01*
X126566645Y-112757086D01*
X126566649Y-112757093D01*
X126622492Y-112831689D01*
X126646910Y-112897153D01*
X126632059Y-112965426D01*
X126582654Y-113014832D01*
X126523226Y-113030000D01*
X126206774Y-113030000D01*
X126139735Y-113010315D01*
X126093980Y-112957511D01*
X126084036Y-112888353D01*
X126107508Y-112831689D01*
X126163350Y-112757093D01*
X126163354Y-112757086D01*
X126213596Y-112622379D01*
X126213598Y-112622372D01*
X126219999Y-112562844D01*
X126220000Y-112562827D01*
X126220000Y-112365000D01*
X124969000Y-112365000D01*
X124901961Y-112345315D01*
X124856206Y-112292511D01*
X124845000Y-112241000D01*
X124845000Y-111865000D01*
X125345000Y-111865000D01*
X126220000Y-111865000D01*
X126220000Y-111667172D01*
X126219999Y-111667155D01*
X126510000Y-111667155D01*
X126510000Y-111865000D01*
X127385000Y-111865000D01*
X127885000Y-111865000D01*
X128760000Y-111865000D01*
X128760000Y-111667172D01*
X128759999Y-111667155D01*
X129050000Y-111667155D01*
X129050000Y-111865000D01*
X129925000Y-111865000D01*
X129925000Y-111215000D01*
X129502155Y-111215000D01*
X129442627Y-111221401D01*
X129442620Y-111221403D01*
X129307913Y-111271645D01*
X129307906Y-111271649D01*
X129192812Y-111357809D01*
X129192809Y-111357812D01*
X129106649Y-111472906D01*
X129106645Y-111472913D01*
X129056403Y-111607620D01*
X129056401Y-111607627D01*
X129050000Y-111667155D01*
X128759999Y-111667155D01*
X128753598Y-111607627D01*
X128753596Y-111607620D01*
X128703354Y-111472913D01*
X128703350Y-111472906D01*
X128617190Y-111357812D01*
X128617187Y-111357809D01*
X128502093Y-111271649D01*
X128502086Y-111271645D01*
X128367379Y-111221403D01*
X128367372Y-111221401D01*
X128307844Y-111215000D01*
X127885000Y-111215000D01*
X127885000Y-111865000D01*
X127385000Y-111865000D01*
X127385000Y-111215000D01*
X126962155Y-111215000D01*
X126902627Y-111221401D01*
X126902620Y-111221403D01*
X126767913Y-111271645D01*
X126767906Y-111271649D01*
X126652812Y-111357809D01*
X126652809Y-111357812D01*
X126566649Y-111472906D01*
X126566645Y-111472913D01*
X126516403Y-111607620D01*
X126516401Y-111607627D01*
X126510000Y-111667155D01*
X126219999Y-111667155D01*
X126213598Y-111607627D01*
X126213596Y-111607620D01*
X126163354Y-111472913D01*
X126163350Y-111472906D01*
X126077190Y-111357812D01*
X126077187Y-111357809D01*
X125962093Y-111271649D01*
X125962086Y-111271645D01*
X125827379Y-111221403D01*
X125827372Y-111221401D01*
X125767844Y-111215000D01*
X125345000Y-111215000D01*
X125345000Y-111865000D01*
X124845000Y-111865000D01*
X124845000Y-111215000D01*
X124482679Y-111215000D01*
X124415640Y-111195315D01*
X124369885Y-111142511D01*
X124359941Y-111073353D01*
X124388966Y-111009797D01*
X124409388Y-110990978D01*
X124442907Y-110966417D01*
X124453704Y-110959339D01*
X125567366Y-110309702D01*
X125635187Y-110292928D01*
X125687462Y-110307015D01*
X125751635Y-110340696D01*
X125751637Y-110340696D01*
X125751638Y-110340697D01*
X125905014Y-110378500D01*
X125905015Y-110378500D01*
X126062985Y-110378500D01*
X126216365Y-110340696D01*
X126280534Y-110307017D01*
X126356240Y-110267283D01*
X126474483Y-110162530D01*
X126564220Y-110032523D01*
X126620237Y-109884818D01*
X126637550Y-109742228D01*
X126665170Y-109678054D01*
X126698166Y-109650069D01*
X126761767Y-109612969D01*
X126771423Y-109607892D01*
X126915628Y-109539992D01*
X126936086Y-109532478D01*
X127079175Y-109493793D01*
X127084672Y-109492306D01*
X127106122Y-109488491D01*
X127246795Y-109476078D01*
X127315304Y-109489794D01*
X127317124Y-109490768D01*
X127322671Y-109493797D01*
X127457517Y-109544091D01*
X127457516Y-109544091D01*
X127464444Y-109544835D01*
X127517127Y-109550500D01*
X128437872Y-109550499D01*
X128497483Y-109544091D01*
X128632331Y-109493796D01*
X128658775Y-109474000D01*
X128778000Y-109474000D01*
X128778000Y-109366864D01*
X128833796Y-109292331D01*
X128884091Y-109157483D01*
X128890500Y-109097873D01*
X128890499Y-106802128D01*
X128884091Y-106742517D01*
X128833796Y-106607669D01*
X128813372Y-106580386D01*
X128794473Y-106555140D01*
X128778000Y-106511575D01*
X128778000Y-106426000D01*
X128662589Y-106079768D01*
X128657134Y-106055518D01*
X128652237Y-106015182D01*
X128641549Y-105987000D01*
X128596221Y-105867477D01*
X128592736Y-105860837D01*
X128593202Y-105860591D01*
X128582149Y-105838445D01*
X128576894Y-105822681D01*
X128574123Y-105813100D01*
X128539299Y-105671602D01*
X128536110Y-105651950D01*
X128524401Y-105506695D01*
X128524000Y-105496732D01*
X128524000Y-105098583D01*
X128543685Y-105031544D01*
X128596489Y-104985789D01*
X128650453Y-104978029D01*
X128655000Y-104974146D01*
X128655000Y-103584000D01*
X128674685Y-103516961D01*
X128727489Y-103471206D01*
X128779000Y-103460000D01*
X129031000Y-103460000D01*
X129098039Y-103479685D01*
G37*
%TD.AperFunction*%
%TD*%
%TA.AperFunction,Conductor*%
%TO.N,+15V*%
G36*
X154340061Y-85468597D02*
G01*
X154516941Y-85486018D01*
X154540769Y-85490757D01*
X154705001Y-85540576D01*
X154727453Y-85549877D01*
X154878798Y-85630772D01*
X154899010Y-85644277D01*
X155031666Y-85753145D01*
X155048854Y-85770333D01*
X155157722Y-85902989D01*
X155171227Y-85923201D01*
X155252121Y-86074543D01*
X155261424Y-86097001D01*
X155311240Y-86261224D01*
X155315982Y-86285065D01*
X155333403Y-86461938D01*
X155334000Y-86474092D01*
X155334000Y-87356874D01*
X155332939Y-87373060D01*
X155314493Y-87513164D01*
X155306115Y-87544431D01*
X155255172Y-87667418D01*
X155238987Y-87695451D01*
X155157951Y-87801061D01*
X155135061Y-87823951D01*
X155029451Y-87904987D01*
X155001418Y-87921172D01*
X154878431Y-87972115D01*
X154847164Y-87980493D01*
X154717572Y-87997554D01*
X154699000Y-88000000D01*
X154064000Y-88000000D01*
X154064000Y-88635000D01*
X154064000Y-88635006D01*
X154064000Y-92835907D01*
X154063403Y-92848061D01*
X154045982Y-93024934D01*
X154041240Y-93048775D01*
X153991424Y-93212998D01*
X153982121Y-93235456D01*
X153901227Y-93386798D01*
X153887722Y-93407010D01*
X153778854Y-93539666D01*
X153761666Y-93556854D01*
X153629010Y-93665722D01*
X153608798Y-93679227D01*
X153457456Y-93760121D01*
X153434998Y-93769424D01*
X153270775Y-93819240D01*
X153246934Y-93823982D01*
X153070061Y-93841403D01*
X153057907Y-93842000D01*
X152429565Y-93842000D01*
X152362526Y-93822315D01*
X152316771Y-93769511D01*
X152306827Y-93700353D01*
X152335852Y-93636797D01*
X152360674Y-93614898D01*
X152494340Y-93525584D01*
X152494344Y-93525581D01*
X152640591Y-93379334D01*
X152640594Y-93379330D01*
X152755499Y-93207363D01*
X152755504Y-93207353D01*
X152834653Y-93016271D01*
X152834654Y-93016269D01*
X152845848Y-92959995D01*
X151908017Y-92959995D01*
X151940930Y-92902988D01*
X151975005Y-92775821D01*
X151975005Y-92644169D01*
X151940930Y-92517002D01*
X151908017Y-92459995D01*
X152845848Y-92459995D01*
X152834654Y-92403720D01*
X152834653Y-92403718D01*
X152755504Y-92212636D01*
X152755499Y-92212626D01*
X152640594Y-92040659D01*
X152640591Y-92040655D01*
X152494344Y-91894408D01*
X152494340Y-91894405D01*
X152322373Y-91779500D01*
X152322363Y-91779495D01*
X152131279Y-91700345D01*
X152131271Y-91700343D01*
X151928425Y-91659995D01*
X151725005Y-91659995D01*
X151725005Y-92276983D01*
X151667998Y-92244070D01*
X151540831Y-92209995D01*
X151409179Y-92209995D01*
X151282012Y-92244070D01*
X151225005Y-92276983D01*
X151225005Y-91659995D01*
X151021584Y-91659995D01*
X150818738Y-91700343D01*
X150818730Y-91700345D01*
X150627646Y-91779495D01*
X150627636Y-91779500D01*
X150455669Y-91894405D01*
X150455665Y-91894408D01*
X150309418Y-92040655D01*
X150309415Y-92040659D01*
X150227102Y-92163850D01*
X150173490Y-92208655D01*
X150104165Y-92217362D01*
X150041137Y-92187208D01*
X150004418Y-92127765D01*
X150000000Y-92094959D01*
X150000000Y-90785929D01*
X150019685Y-90718890D01*
X150072489Y-90673135D01*
X150141647Y-90663191D01*
X150205203Y-90692216D01*
X150227101Y-90717036D01*
X150273133Y-90785929D01*
X150309029Y-90839652D01*
X150455347Y-90985970D01*
X150455350Y-90985972D01*
X150627407Y-91100936D01*
X150818585Y-91180125D01*
X151021535Y-91220494D01*
X151021539Y-91220495D01*
X151021540Y-91220495D01*
X151928471Y-91220495D01*
X151928472Y-91220494D01*
X152131425Y-91180125D01*
X152322603Y-91100936D01*
X152494660Y-90985972D01*
X152640982Y-90839650D01*
X152755946Y-90667593D01*
X152835135Y-90476415D01*
X152875505Y-90273460D01*
X152875505Y-90066530D01*
X152835135Y-89863575D01*
X152755946Y-89672397D01*
X152640982Y-89500340D01*
X152640980Y-89500337D01*
X152494662Y-89354019D01*
X152408631Y-89296536D01*
X152322603Y-89239054D01*
X152131425Y-89159865D01*
X152131417Y-89159863D01*
X151928474Y-89119495D01*
X151928470Y-89119495D01*
X151021540Y-89119495D01*
X151021535Y-89119495D01*
X150818592Y-89159863D01*
X150818584Y-89159865D01*
X150627408Y-89239053D01*
X150455347Y-89354019D01*
X150309030Y-89500336D01*
X150309024Y-89500344D01*
X150227102Y-89622950D01*
X150173490Y-89667756D01*
X150104165Y-89676463D01*
X150041138Y-89646309D01*
X150004418Y-89586866D01*
X150000000Y-89554060D01*
X150000000Y-87112844D01*
X150800000Y-87112844D01*
X150806401Y-87172372D01*
X150806403Y-87172379D01*
X150856645Y-87307086D01*
X150856649Y-87307093D01*
X150942809Y-87422187D01*
X150942812Y-87422190D01*
X151057906Y-87508350D01*
X151057913Y-87508354D01*
X151192620Y-87558596D01*
X151192627Y-87558598D01*
X151252155Y-87564999D01*
X151252172Y-87565000D01*
X152150000Y-87565000D01*
X152650000Y-87565000D01*
X153547828Y-87565000D01*
X153547844Y-87564999D01*
X153607372Y-87558598D01*
X153607379Y-87558596D01*
X153742086Y-87508354D01*
X153742093Y-87508350D01*
X153857187Y-87422190D01*
X153857190Y-87422187D01*
X153943350Y-87307093D01*
X153943354Y-87307086D01*
X153993596Y-87172379D01*
X153993598Y-87172372D01*
X153999999Y-87112844D01*
X154000000Y-87112827D01*
X154000000Y-86902500D01*
X152650000Y-86902500D01*
X152650000Y-87565000D01*
X152150000Y-87565000D01*
X152150000Y-86902500D01*
X150800000Y-86902500D01*
X150800000Y-87112844D01*
X150000000Y-87112844D01*
X150000000Y-86474092D01*
X150000597Y-86461938D01*
X150006451Y-86402500D01*
X150018018Y-86285056D01*
X150022757Y-86261232D01*
X150043711Y-86192155D01*
X150800000Y-86192155D01*
X150800000Y-86402500D01*
X152150000Y-86402500D01*
X152650000Y-86402500D01*
X154000000Y-86402500D01*
X154000000Y-86192172D01*
X153999999Y-86192155D01*
X153993598Y-86132627D01*
X153993596Y-86132620D01*
X153943354Y-85997913D01*
X153943350Y-85997906D01*
X153857190Y-85882812D01*
X153857187Y-85882809D01*
X153742093Y-85796649D01*
X153742086Y-85796645D01*
X153607379Y-85746403D01*
X153607372Y-85746401D01*
X153547844Y-85740000D01*
X152650000Y-85740000D01*
X152650000Y-86402500D01*
X152150000Y-86402500D01*
X152150000Y-85740000D01*
X151252155Y-85740000D01*
X151192627Y-85746401D01*
X151192620Y-85746403D01*
X151057913Y-85796645D01*
X151057906Y-85796649D01*
X150942812Y-85882809D01*
X150942809Y-85882812D01*
X150856649Y-85997906D01*
X150856645Y-85997913D01*
X150806403Y-86132620D01*
X150806401Y-86132627D01*
X150800000Y-86192155D01*
X150043711Y-86192155D01*
X150072577Y-86096994D01*
X150081875Y-86074549D01*
X150162775Y-85923195D01*
X150176272Y-85902995D01*
X150285149Y-85770328D01*
X150302328Y-85753149D01*
X150434995Y-85644272D01*
X150455195Y-85630775D01*
X150606549Y-85549875D01*
X150628994Y-85540577D01*
X150793232Y-85490757D01*
X150817056Y-85486018D01*
X150993939Y-85468597D01*
X151006093Y-85468000D01*
X154327907Y-85468000D01*
X154340061Y-85468597D01*
G37*
%TD.AperFunction*%
%TD*%
%TA.AperFunction,Conductor*%
%TO.N,+15V*%
G36*
X121434061Y-85852597D02*
G01*
X121610941Y-85870018D01*
X121634769Y-85874757D01*
X121799001Y-85924576D01*
X121821453Y-85933877D01*
X121910883Y-85981678D01*
X121972798Y-86014772D01*
X121993010Y-86028277D01*
X122125666Y-86137145D01*
X122142854Y-86154333D01*
X122251722Y-86286989D01*
X122265227Y-86307201D01*
X122346121Y-86458543D01*
X122355424Y-86481001D01*
X122405240Y-86645224D01*
X122409982Y-86669065D01*
X122427403Y-86845938D01*
X122428000Y-86858092D01*
X122428000Y-87240874D01*
X122426939Y-87257060D01*
X122408493Y-87397164D01*
X122400115Y-87428431D01*
X122349172Y-87551418D01*
X122332987Y-87579451D01*
X122251951Y-87685061D01*
X122229061Y-87707951D01*
X122123451Y-87788987D01*
X122095418Y-87805172D01*
X121972431Y-87856115D01*
X121941164Y-87864493D01*
X121811572Y-87881554D01*
X121793000Y-87884000D01*
X121158000Y-87884000D01*
X121158000Y-88519000D01*
X121158000Y-88519006D01*
X121158000Y-92719907D01*
X121157403Y-92732061D01*
X121139982Y-92908934D01*
X121135240Y-92932775D01*
X121085424Y-93096998D01*
X121076121Y-93119456D01*
X120995227Y-93270798D01*
X120981722Y-93291010D01*
X120872854Y-93423666D01*
X120855666Y-93440854D01*
X120723010Y-93549722D01*
X120702798Y-93563227D01*
X120551456Y-93644121D01*
X120528998Y-93653424D01*
X120364775Y-93703240D01*
X120340934Y-93707982D01*
X120164061Y-93725403D01*
X120151907Y-93726000D01*
X119573288Y-93726000D01*
X119506249Y-93706315D01*
X119460494Y-93653511D01*
X119450550Y-93584353D01*
X119479575Y-93520797D01*
X119485607Y-93514319D01*
X119620591Y-93379334D01*
X119620594Y-93379330D01*
X119735499Y-93207363D01*
X119735504Y-93207353D01*
X119814653Y-93016271D01*
X119814654Y-93016269D01*
X119825848Y-92959995D01*
X118888017Y-92959995D01*
X118920930Y-92902988D01*
X118955005Y-92775821D01*
X118955005Y-92644169D01*
X118920930Y-92517002D01*
X118888017Y-92459995D01*
X119825848Y-92459995D01*
X119814654Y-92403720D01*
X119814653Y-92403718D01*
X119735504Y-92212636D01*
X119735499Y-92212626D01*
X119620594Y-92040659D01*
X119620591Y-92040655D01*
X119474344Y-91894408D01*
X119474340Y-91894405D01*
X119302373Y-91779500D01*
X119302363Y-91779495D01*
X119111279Y-91700345D01*
X119111271Y-91700343D01*
X118908425Y-91659995D01*
X118705005Y-91659995D01*
X118705005Y-92276983D01*
X118647998Y-92244070D01*
X118520831Y-92209995D01*
X118389179Y-92209995D01*
X118262012Y-92244070D01*
X118205005Y-92276983D01*
X118205005Y-91659995D01*
X118001584Y-91659995D01*
X117798738Y-91700343D01*
X117798730Y-91700345D01*
X117607646Y-91779495D01*
X117607636Y-91779500D01*
X117435669Y-91894405D01*
X117435665Y-91894408D01*
X117305681Y-92024393D01*
X117244358Y-92057878D01*
X117174666Y-92052894D01*
X117118733Y-92011022D01*
X117094316Y-91945558D01*
X117094000Y-91936712D01*
X117094000Y-90943985D01*
X117113685Y-90876946D01*
X117166489Y-90831191D01*
X117235647Y-90821247D01*
X117299203Y-90850272D01*
X117305681Y-90856304D01*
X117435347Y-90985970D01*
X117435350Y-90985972D01*
X117607407Y-91100936D01*
X117798585Y-91180125D01*
X118001535Y-91220494D01*
X118001539Y-91220495D01*
X118001540Y-91220495D01*
X118908471Y-91220495D01*
X118908472Y-91220494D01*
X119111425Y-91180125D01*
X119302603Y-91100936D01*
X119474660Y-90985972D01*
X119620982Y-90839650D01*
X119735946Y-90667593D01*
X119815135Y-90476415D01*
X119855505Y-90273460D01*
X119855505Y-90066530D01*
X119815135Y-89863575D01*
X119735946Y-89672397D01*
X119620982Y-89500340D01*
X119620980Y-89500337D01*
X119474662Y-89354019D01*
X119388631Y-89296536D01*
X119302603Y-89239054D01*
X119111425Y-89159865D01*
X119111417Y-89159863D01*
X118908474Y-89119495D01*
X118908470Y-89119495D01*
X118001540Y-89119495D01*
X118001535Y-89119495D01*
X117798592Y-89159863D01*
X117798584Y-89159865D01*
X117607408Y-89239053D01*
X117435347Y-89354019D01*
X117435346Y-89354020D01*
X117305681Y-89483686D01*
X117244358Y-89517171D01*
X117174666Y-89512187D01*
X117118733Y-89470315D01*
X117094316Y-89404851D01*
X117094000Y-89396005D01*
X117094000Y-87112844D01*
X117780000Y-87112844D01*
X117786401Y-87172372D01*
X117786403Y-87172379D01*
X117836645Y-87307086D01*
X117836649Y-87307093D01*
X117922809Y-87422187D01*
X117922812Y-87422190D01*
X118037906Y-87508350D01*
X118037913Y-87508354D01*
X118172620Y-87558596D01*
X118172627Y-87558598D01*
X118232155Y-87564999D01*
X118232172Y-87565000D01*
X119130000Y-87565000D01*
X119630000Y-87565000D01*
X120527828Y-87565000D01*
X120527844Y-87564999D01*
X120587372Y-87558598D01*
X120587379Y-87558596D01*
X120722086Y-87508354D01*
X120722093Y-87508350D01*
X120837187Y-87422190D01*
X120837190Y-87422187D01*
X120923350Y-87307093D01*
X120923354Y-87307086D01*
X120973596Y-87172379D01*
X120973598Y-87172372D01*
X120979999Y-87112844D01*
X120980000Y-87112827D01*
X120980000Y-86902500D01*
X119630000Y-86902500D01*
X119630000Y-87565000D01*
X119130000Y-87565000D01*
X119130000Y-86902500D01*
X117780000Y-86902500D01*
X117780000Y-87112844D01*
X117094000Y-87112844D01*
X117094000Y-86858092D01*
X117094597Y-86845938D01*
X117112018Y-86669056D01*
X117116757Y-86645232D01*
X117166577Y-86480994D01*
X117175875Y-86458549D01*
X117256775Y-86307195D01*
X117270272Y-86286995D01*
X117379149Y-86154328D01*
X117396328Y-86137149D01*
X117528995Y-86028272D01*
X117549190Y-86014778D01*
X117611118Y-85981676D01*
X117679517Y-85967436D01*
X117744761Y-85992436D01*
X117786132Y-86048741D01*
X117790494Y-86118474D01*
X117786899Y-86130521D01*
X117786401Y-86132627D01*
X117780000Y-86192155D01*
X117780000Y-86402500D01*
X120980000Y-86402500D01*
X120980000Y-86192172D01*
X120979999Y-86192155D01*
X120973598Y-86132627D01*
X120973596Y-86132620D01*
X120931343Y-86019333D01*
X120926359Y-85949642D01*
X120959844Y-85888319D01*
X121021167Y-85854834D01*
X121047525Y-85852000D01*
X121421907Y-85852000D01*
X121434061Y-85852597D01*
G37*
%TD.AperFunction*%
%TD*%
%TA.AperFunction,Conductor*%
%TO.N,+5V*%
G36*
X169333299Y-104667685D02*
G01*
X169379054Y-104720489D01*
X169388998Y-104789647D01*
X169362304Y-104848097D01*
X169363125Y-104848712D01*
X169360301Y-104852483D01*
X169359973Y-104853203D01*
X169358901Y-104854353D01*
X169271649Y-104970906D01*
X169271645Y-104970913D01*
X169221403Y-105105620D01*
X169221401Y-105105627D01*
X169215000Y-105165155D01*
X169215000Y-105375500D01*
X172415000Y-105375500D01*
X172415000Y-105165172D01*
X172414999Y-105165155D01*
X172408598Y-105105627D01*
X172408596Y-105105620D01*
X172358354Y-104970913D01*
X172358350Y-104970906D01*
X172266875Y-104848712D01*
X172269142Y-104847014D01*
X172242574Y-104798358D01*
X172247558Y-104728666D01*
X172289430Y-104672733D01*
X172354894Y-104648316D01*
X172363740Y-104648000D01*
X179206907Y-104648000D01*
X179219061Y-104648597D01*
X179395941Y-104666018D01*
X179419769Y-104670757D01*
X179584001Y-104720576D01*
X179606453Y-104729877D01*
X179734573Y-104798358D01*
X179757798Y-104810772D01*
X179778010Y-104824277D01*
X179910666Y-104933145D01*
X179927854Y-104950333D01*
X180036722Y-105082989D01*
X180050227Y-105103201D01*
X180131121Y-105254543D01*
X180140424Y-105277001D01*
X180190240Y-105441224D01*
X180194982Y-105465065D01*
X180212403Y-105641938D01*
X180213000Y-105654092D01*
X180213000Y-106387292D01*
X180193315Y-106454331D01*
X180140511Y-106500086D01*
X180071353Y-106510030D01*
X180007797Y-106481005D01*
X180001319Y-106474973D01*
X179964169Y-106437823D01*
X179817734Y-106331434D01*
X179656447Y-106249252D01*
X179656444Y-106249251D01*
X179484293Y-106193317D01*
X179305506Y-106165000D01*
X179115000Y-106165000D01*
X179115000Y-106766517D01*
X179096591Y-106755889D01*
X178943991Y-106715000D01*
X178786009Y-106715000D01*
X178633409Y-106755889D01*
X178615000Y-106766517D01*
X178615000Y-106165000D01*
X178424494Y-106165000D01*
X178245706Y-106193317D01*
X178073555Y-106249251D01*
X178073552Y-106249252D01*
X177912265Y-106331434D01*
X177765830Y-106437823D01*
X177637823Y-106565830D01*
X177531434Y-106712265D01*
X177449252Y-106873552D01*
X177449250Y-106873558D01*
X177393318Y-107045704D01*
X177393315Y-107045714D01*
X177390261Y-107065000D01*
X178316518Y-107065000D01*
X178305889Y-107083409D01*
X178265000Y-107236009D01*
X178265000Y-107393991D01*
X178305889Y-107546591D01*
X178316518Y-107565000D01*
X177390261Y-107565000D01*
X177393315Y-107584285D01*
X177393318Y-107584295D01*
X177449250Y-107756441D01*
X177449252Y-107756447D01*
X177531431Y-107917730D01*
X177595283Y-108005615D01*
X177618762Y-108071422D01*
X177602936Y-108139475D01*
X177552830Y-108188170D01*
X177494964Y-108202500D01*
X173986733Y-108202500D01*
X173970548Y-108201439D01*
X173958189Y-108199812D01*
X173874703Y-108188820D01*
X173843437Y-108180442D01*
X173751085Y-108142189D01*
X173723050Y-108126003D01*
X173643741Y-108065146D01*
X173620853Y-108042258D01*
X173559996Y-107962949D01*
X173543810Y-107934914D01*
X173505557Y-107842562D01*
X173497179Y-107811295D01*
X173482000Y-107696000D01*
X173482000Y-107188000D01*
X172974007Y-107188000D01*
X172493178Y-107188000D01*
X172485066Y-107187734D01*
X172474608Y-107187048D01*
X172474594Y-107187047D01*
X172474586Y-107187047D01*
X172457873Y-107186500D01*
X168884863Y-107186500D01*
X168872709Y-107185903D01*
X168711065Y-107169982D01*
X168687224Y-107165240D01*
X168523001Y-107115424D01*
X168500543Y-107106121D01*
X168349201Y-107025227D01*
X168328989Y-107011722D01*
X168196333Y-106902854D01*
X168179145Y-106885666D01*
X168070277Y-106753010D01*
X168056772Y-106732798D01*
X167975878Y-106581456D01*
X167966575Y-106558998D01*
X167916757Y-106394769D01*
X167912018Y-106370941D01*
X167894597Y-106194061D01*
X167894000Y-106181907D01*
X167894000Y-106085844D01*
X169215000Y-106085844D01*
X169221401Y-106145372D01*
X169221403Y-106145379D01*
X169271645Y-106280086D01*
X169271649Y-106280093D01*
X169357809Y-106395187D01*
X169357812Y-106395190D01*
X169472906Y-106481350D01*
X169472913Y-106481354D01*
X169607620Y-106531596D01*
X169607627Y-106531598D01*
X169667155Y-106537999D01*
X169667172Y-106538000D01*
X170565000Y-106538000D01*
X171065000Y-106538000D01*
X171962828Y-106538000D01*
X171962844Y-106537999D01*
X172022372Y-106531598D01*
X172022379Y-106531596D01*
X172157086Y-106481354D01*
X172157093Y-106481350D01*
X172272187Y-106395190D01*
X172272190Y-106395187D01*
X172358350Y-106280093D01*
X172358354Y-106280086D01*
X172408596Y-106145379D01*
X172408598Y-106145372D01*
X172414999Y-106085844D01*
X172415000Y-106085827D01*
X172415000Y-105875500D01*
X171065000Y-105875500D01*
X171065000Y-106538000D01*
X170565000Y-106538000D01*
X170565000Y-105875500D01*
X169215000Y-105875500D01*
X169215000Y-106085844D01*
X167894000Y-106085844D01*
X167894000Y-105654092D01*
X167894597Y-105641938D01*
X167912018Y-105465056D01*
X167916757Y-105441232D01*
X167966577Y-105276994D01*
X167975875Y-105254549D01*
X168056775Y-105103195D01*
X168070272Y-105082995D01*
X168179149Y-104950328D01*
X168196328Y-104933149D01*
X168328995Y-104824272D01*
X168349195Y-104810775D01*
X168500549Y-104729875D01*
X168522994Y-104720577D01*
X168687232Y-104670757D01*
X168711056Y-104666018D01*
X168887939Y-104648597D01*
X168900093Y-104648000D01*
X169266260Y-104648000D01*
X169333299Y-104667685D01*
G37*
%TD.AperFunction*%
%TD*%
%TA.AperFunction,Conductor*%
%TO.N,G2*%
G36*
X118970265Y-114319685D02*
G01*
X119016020Y-114372489D01*
X119025964Y-114441647D01*
X119002492Y-114498311D01*
X118946649Y-114572906D01*
X118946645Y-114572913D01*
X118896403Y-114707620D01*
X118896401Y-114707627D01*
X118890000Y-114767155D01*
X118890000Y-114965000D01*
X121140000Y-114965000D01*
X121140000Y-114767172D01*
X121139999Y-114767155D01*
X121133598Y-114707627D01*
X121133596Y-114707620D01*
X121083354Y-114572913D01*
X121083350Y-114572906D01*
X121027508Y-114498311D01*
X121003090Y-114432847D01*
X121017941Y-114364574D01*
X121067346Y-114315168D01*
X121126774Y-114300000D01*
X121443226Y-114300000D01*
X121510265Y-114319685D01*
X121556020Y-114372489D01*
X121565964Y-114441647D01*
X121542492Y-114498311D01*
X121486649Y-114572906D01*
X121486645Y-114572913D01*
X121436403Y-114707620D01*
X121436401Y-114707627D01*
X121430000Y-114767155D01*
X121430000Y-114965000D01*
X123680000Y-114965000D01*
X123680000Y-114767172D01*
X123679999Y-114767155D01*
X123673598Y-114707627D01*
X123673596Y-114707620D01*
X123623354Y-114572913D01*
X123623350Y-114572906D01*
X123567508Y-114498311D01*
X123543090Y-114432847D01*
X123557941Y-114364574D01*
X123607346Y-114315168D01*
X123666774Y-114300000D01*
X123983226Y-114300000D01*
X124050265Y-114319685D01*
X124096020Y-114372489D01*
X124105964Y-114441647D01*
X124082492Y-114498311D01*
X124026649Y-114572906D01*
X124026645Y-114572913D01*
X123976403Y-114707620D01*
X123976401Y-114707627D01*
X123970000Y-114767155D01*
X123970000Y-114965000D01*
X126220000Y-114965000D01*
X126220000Y-114767172D01*
X126219999Y-114767155D01*
X126213598Y-114707627D01*
X126213596Y-114707620D01*
X126163354Y-114572913D01*
X126163350Y-114572906D01*
X126107508Y-114498311D01*
X126083090Y-114432847D01*
X126097941Y-114364574D01*
X126147346Y-114315168D01*
X126206774Y-114300000D01*
X126523226Y-114300000D01*
X126590265Y-114319685D01*
X126636020Y-114372489D01*
X126645964Y-114441647D01*
X126622492Y-114498311D01*
X126566649Y-114572906D01*
X126566645Y-114572913D01*
X126516403Y-114707620D01*
X126516401Y-114707627D01*
X126510000Y-114767155D01*
X126510000Y-114965000D01*
X128760000Y-114965000D01*
X128760000Y-114767172D01*
X128759999Y-114767155D01*
X128753598Y-114707627D01*
X128753596Y-114707620D01*
X128703354Y-114572913D01*
X128703350Y-114572906D01*
X128647508Y-114498311D01*
X128623090Y-114432847D01*
X128637941Y-114364574D01*
X128687346Y-114315168D01*
X128746774Y-114300000D01*
X129063226Y-114300000D01*
X129130265Y-114319685D01*
X129176020Y-114372489D01*
X129185964Y-114441647D01*
X129162492Y-114498311D01*
X129106649Y-114572906D01*
X129106645Y-114572913D01*
X129056403Y-114707620D01*
X129056401Y-114707627D01*
X129050000Y-114767155D01*
X129050000Y-114965000D01*
X130301000Y-114965000D01*
X130368039Y-114984685D01*
X130413794Y-115037489D01*
X130425000Y-115089000D01*
X130425000Y-115341000D01*
X130405315Y-115408039D01*
X130352511Y-115453794D01*
X130301000Y-115465000D01*
X129050000Y-115465000D01*
X129050000Y-115662844D01*
X129056401Y-115722372D01*
X129056403Y-115722379D01*
X129106645Y-115857086D01*
X129106649Y-115857093D01*
X129192809Y-115972187D01*
X129192812Y-115972190D01*
X129307906Y-116058350D01*
X129307910Y-116058352D01*
X129311904Y-116059842D01*
X129315318Y-116062398D01*
X129315696Y-116062604D01*
X129315666Y-116062658D01*
X129367840Y-116101711D01*
X129392260Y-116167174D01*
X129377411Y-116235448D01*
X129328008Y-116284855D01*
X129294937Y-116297192D01*
X129246959Y-116307629D01*
X128978833Y-116407635D01*
X128727690Y-116544770D01*
X128727682Y-116544775D01*
X128498612Y-116716254D01*
X128498594Y-116716270D01*
X128296270Y-116918594D01*
X128296254Y-116918612D01*
X128124775Y-117147682D01*
X128124770Y-117147690D01*
X127987635Y-117398833D01*
X127956615Y-117482000D01*
X127893138Y-117652191D01*
X127890039Y-117660499D01*
X127848167Y-117716432D01*
X127782703Y-117740849D01*
X127714430Y-117725997D01*
X127665025Y-117676592D01*
X127658429Y-117662467D01*
X127583116Y-117470573D01*
X127451972Y-117243426D01*
X127404124Y-117183427D01*
X126679577Y-117907973D01*
X126666641Y-117876742D01*
X126584563Y-117753903D01*
X126480097Y-117649437D01*
X126357258Y-117567359D01*
X126326025Y-117554421D01*
X127051168Y-116829278D01*
X126879454Y-116712206D01*
X126879445Y-116712201D01*
X126643142Y-116598404D01*
X126643144Y-116598404D01*
X126392505Y-116521092D01*
X126392499Y-116521090D01*
X126133151Y-116482000D01*
X125870848Y-116482000D01*
X125611500Y-116521090D01*
X125611494Y-116521092D01*
X125360858Y-116598404D01*
X125360854Y-116598405D01*
X125124547Y-116712205D01*
X125124539Y-116712210D01*
X124952830Y-116829277D01*
X125677974Y-117554421D01*
X125646742Y-117567359D01*
X125523903Y-117649437D01*
X125419437Y-117753903D01*
X125337359Y-117876742D01*
X125324422Y-117907974D01*
X124599874Y-117183427D01*
X124552028Y-117243425D01*
X124420883Y-117470573D01*
X124325058Y-117714729D01*
X124266693Y-117970449D01*
X124266692Y-117970454D01*
X124247093Y-118231995D01*
X124247093Y-118232004D01*
X124266692Y-118493545D01*
X124266693Y-118493550D01*
X124325058Y-118749270D01*
X124420883Y-118993426D01*
X124420882Y-118993426D01*
X124552027Y-119220573D01*
X124599874Y-119280571D01*
X125324421Y-118556024D01*
X125337359Y-118587258D01*
X125419437Y-118710097D01*
X125523903Y-118814563D01*
X125646742Y-118896641D01*
X125677974Y-118909577D01*
X124952830Y-119634720D01*
X124992176Y-119661546D01*
X125036478Y-119715575D01*
X125044538Y-119784978D01*
X125013795Y-119847721D01*
X124954011Y-119883883D01*
X124922325Y-119888000D01*
X123573543Y-119888000D01*
X123506504Y-119868315D01*
X123474276Y-119838311D01*
X123473796Y-119837670D01*
X123473796Y-119837669D01*
X123387546Y-119722454D01*
X123335067Y-119683168D01*
X123272335Y-119636206D01*
X123272328Y-119636202D01*
X123137482Y-119585908D01*
X123137483Y-119585908D01*
X123077883Y-119579501D01*
X123077881Y-119579500D01*
X123077873Y-119579500D01*
X123077864Y-119579500D01*
X122032129Y-119579500D01*
X122032123Y-119579501D01*
X121972516Y-119585908D01*
X121837671Y-119636202D01*
X121837664Y-119636206D01*
X121722455Y-119722452D01*
X121635722Y-119838312D01*
X121579788Y-119880182D01*
X121536456Y-119888000D01*
X119854497Y-119888000D01*
X119787458Y-119868315D01*
X119741703Y-119815511D01*
X119731759Y-119746353D01*
X119760784Y-119682797D01*
X119766816Y-119676319D01*
X119897729Y-119545405D01*
X119897739Y-119545395D01*
X120069226Y-119316315D01*
X120206367Y-119065161D01*
X120306369Y-118797046D01*
X120317404Y-118746318D01*
X120321423Y-118727844D01*
X121580000Y-118727844D01*
X121586401Y-118787372D01*
X121586403Y-118787379D01*
X121636645Y-118922086D01*
X121636649Y-118922093D01*
X121722809Y-119037187D01*
X121722812Y-119037190D01*
X121837906Y-119123350D01*
X121837913Y-119123354D01*
X121972620Y-119173596D01*
X121972627Y-119173598D01*
X122032155Y-119179999D01*
X122032172Y-119180000D01*
X122305000Y-119180000D01*
X122805000Y-119180000D01*
X123077828Y-119180000D01*
X123077844Y-119179999D01*
X123137372Y-119173598D01*
X123137379Y-119173596D01*
X123272086Y-119123354D01*
X123272093Y-119123350D01*
X123387187Y-119037190D01*
X123387190Y-119037187D01*
X123473350Y-118922093D01*
X123473354Y-118922086D01*
X123523596Y-118787379D01*
X123523598Y-118787372D01*
X123529999Y-118727844D01*
X123530000Y-118727827D01*
X123530000Y-118592500D01*
X122805000Y-118592500D01*
X122805000Y-119180000D01*
X122305000Y-119180000D01*
X122305000Y-118592500D01*
X121580000Y-118592500D01*
X121580000Y-118727844D01*
X120321423Y-118727844D01*
X120367195Y-118517433D01*
X120367195Y-118517432D01*
X120367196Y-118517428D01*
X120387610Y-118232000D01*
X120367953Y-117957155D01*
X121580000Y-117957155D01*
X121580000Y-118092500D01*
X122305000Y-118092500D01*
X122805000Y-118092500D01*
X123530000Y-118092500D01*
X123530000Y-117957172D01*
X123529999Y-117957155D01*
X123523598Y-117897627D01*
X123523596Y-117897620D01*
X123473354Y-117762913D01*
X123473350Y-117762906D01*
X123387190Y-117647812D01*
X123387187Y-117647809D01*
X123272093Y-117561649D01*
X123272086Y-117561645D01*
X123137379Y-117511403D01*
X123137372Y-117511401D01*
X123077844Y-117505000D01*
X122805000Y-117505000D01*
X122805000Y-118092500D01*
X122305000Y-118092500D01*
X122305000Y-117505000D01*
X122032155Y-117505000D01*
X121972627Y-117511401D01*
X121972620Y-117511403D01*
X121837913Y-117561645D01*
X121837906Y-117561649D01*
X121722812Y-117647809D01*
X121722809Y-117647812D01*
X121636649Y-117762906D01*
X121636645Y-117762913D01*
X121586403Y-117897620D01*
X121586401Y-117897627D01*
X121580000Y-117957155D01*
X120367953Y-117957155D01*
X120367196Y-117946572D01*
X120358514Y-117906663D01*
X120306371Y-117666962D01*
X120306370Y-117666960D01*
X120306369Y-117666954D01*
X120206367Y-117398839D01*
X120157166Y-117308735D01*
X120069229Y-117147690D01*
X120069224Y-117147682D01*
X119897745Y-116918612D01*
X119897729Y-116918594D01*
X119695405Y-116716270D01*
X119695387Y-116716254D01*
X119466317Y-116544775D01*
X119466309Y-116544770D01*
X119215166Y-116407635D01*
X119215167Y-116407635D01*
X119074535Y-116355182D01*
X118947046Y-116307631D01*
X118947043Y-116307630D01*
X118947037Y-116307628D01*
X118667433Y-116246804D01*
X118472283Y-116232847D01*
X118406819Y-116208430D01*
X118364947Y-116152497D01*
X118359963Y-116082805D01*
X118393448Y-116021482D01*
X118406818Y-116009896D01*
X118457190Y-115972186D01*
X118543350Y-115857093D01*
X118543354Y-115857086D01*
X118593596Y-115722379D01*
X118593598Y-115722372D01*
X118599999Y-115662844D01*
X118890000Y-115662844D01*
X118896401Y-115722372D01*
X118896403Y-115722379D01*
X118946645Y-115857086D01*
X118946649Y-115857093D01*
X119032809Y-115972187D01*
X119032812Y-115972190D01*
X119147906Y-116058350D01*
X119147913Y-116058354D01*
X119282620Y-116108596D01*
X119282627Y-116108598D01*
X119342155Y-116114999D01*
X119342172Y-116115000D01*
X119765000Y-116115000D01*
X120265000Y-116115000D01*
X120687828Y-116115000D01*
X120687844Y-116114999D01*
X120747372Y-116108598D01*
X120747379Y-116108596D01*
X120882086Y-116058354D01*
X120882093Y-116058350D01*
X120997187Y-115972190D01*
X120997190Y-115972187D01*
X121083350Y-115857093D01*
X121083354Y-115857086D01*
X121133596Y-115722379D01*
X121133598Y-115722372D01*
X121139999Y-115662844D01*
X121430000Y-115662844D01*
X121436401Y-115722372D01*
X121436403Y-115722379D01*
X121486645Y-115857086D01*
X121486649Y-115857093D01*
X121572809Y-115972187D01*
X121572812Y-115972190D01*
X121687906Y-116058350D01*
X121687913Y-116058354D01*
X121822620Y-116108596D01*
X121822627Y-116108598D01*
X121882155Y-116114999D01*
X121882172Y-116115000D01*
X122305000Y-116115000D01*
X122805000Y-116115000D01*
X123227828Y-116115000D01*
X123227844Y-116114999D01*
X123287372Y-116108598D01*
X123287379Y-116108596D01*
X123422086Y-116058354D01*
X123422093Y-116058350D01*
X123537187Y-115972190D01*
X123537190Y-115972187D01*
X123623350Y-115857093D01*
X123623354Y-115857086D01*
X123673596Y-115722379D01*
X123673598Y-115722372D01*
X123679999Y-115662844D01*
X123970000Y-115662844D01*
X123976401Y-115722372D01*
X123976403Y-115722379D01*
X124026645Y-115857086D01*
X124026649Y-115857093D01*
X124112809Y-115972187D01*
X124112812Y-115972190D01*
X124227906Y-116058350D01*
X124227913Y-116058354D01*
X124362620Y-116108596D01*
X124362627Y-116108598D01*
X124422155Y-116114999D01*
X124422172Y-116115000D01*
X124845000Y-116115000D01*
X125345000Y-116115000D01*
X125767828Y-116115000D01*
X125767844Y-116114999D01*
X125827372Y-116108598D01*
X125827379Y-116108596D01*
X125962086Y-116058354D01*
X125962093Y-116058350D01*
X126077187Y-115972190D01*
X126077190Y-115972187D01*
X126163350Y-115857093D01*
X126163354Y-115857086D01*
X126213596Y-115722379D01*
X126213598Y-115722372D01*
X126219999Y-115662844D01*
X126510000Y-115662844D01*
X126516401Y-115722372D01*
X126516403Y-115722379D01*
X126566645Y-115857086D01*
X126566649Y-115857093D01*
X126652809Y-115972187D01*
X126652812Y-115972190D01*
X126767906Y-116058350D01*
X126767913Y-116058354D01*
X126902620Y-116108596D01*
X126902627Y-116108598D01*
X126962155Y-116114999D01*
X126962172Y-116115000D01*
X127385000Y-116115000D01*
X127885000Y-116115000D01*
X128307828Y-116115000D01*
X128307844Y-116114999D01*
X128367372Y-116108598D01*
X128367379Y-116108596D01*
X128502086Y-116058354D01*
X128502093Y-116058350D01*
X128617187Y-115972190D01*
X128617190Y-115972187D01*
X128703350Y-115857093D01*
X128703354Y-115857086D01*
X128753596Y-115722379D01*
X128753598Y-115722372D01*
X128759999Y-115662844D01*
X128760000Y-115662827D01*
X128760000Y-115465000D01*
X127885000Y-115465000D01*
X127885000Y-116115000D01*
X127385000Y-116115000D01*
X127385000Y-115465000D01*
X126510000Y-115465000D01*
X126510000Y-115662844D01*
X126219999Y-115662844D01*
X126220000Y-115662827D01*
X126220000Y-115465000D01*
X125345000Y-115465000D01*
X125345000Y-116115000D01*
X124845000Y-116115000D01*
X124845000Y-115465000D01*
X123970000Y-115465000D01*
X123970000Y-115662844D01*
X123679999Y-115662844D01*
X123680000Y-115662827D01*
X123680000Y-115465000D01*
X122805000Y-115465000D01*
X122805000Y-116115000D01*
X122305000Y-116115000D01*
X122305000Y-115465000D01*
X121430000Y-115465000D01*
X121430000Y-115662844D01*
X121139999Y-115662844D01*
X121140000Y-115662827D01*
X121140000Y-115465000D01*
X120265000Y-115465000D01*
X120265000Y-116115000D01*
X119765000Y-116115000D01*
X119765000Y-115465000D01*
X118890000Y-115465000D01*
X118890000Y-115662844D01*
X118599999Y-115662844D01*
X118600000Y-115662827D01*
X118600000Y-115465000D01*
X117725000Y-115465000D01*
X117725000Y-116115000D01*
X117753847Y-116143847D01*
X117787332Y-116205170D01*
X117782348Y-116274862D01*
X117740476Y-116330795D01*
X117709503Y-116347708D01*
X117633546Y-116376039D01*
X117548833Y-116407635D01*
X117297690Y-116544770D01*
X117297682Y-116544775D01*
X117068612Y-116716254D01*
X117068594Y-116716270D01*
X116866270Y-116918594D01*
X116866254Y-116918612D01*
X116694775Y-117147682D01*
X116694774Y-117147684D01*
X116585831Y-117347196D01*
X116536425Y-117396601D01*
X116468152Y-117411452D01*
X116402688Y-117387035D01*
X116368166Y-117347193D01*
X116347167Y-117308735D01*
X116332000Y-117249310D01*
X116332000Y-116099528D01*
X116351685Y-116032489D01*
X116404489Y-115986734D01*
X116473647Y-115976790D01*
X116530311Y-116000262D01*
X116607906Y-116058350D01*
X116607913Y-116058354D01*
X116742620Y-116108596D01*
X116742627Y-116108598D01*
X116802155Y-116114999D01*
X116802172Y-116115000D01*
X117225000Y-116115000D01*
X117225000Y-115089000D01*
X117244685Y-115021961D01*
X117297489Y-114976206D01*
X117349000Y-114965000D01*
X118600000Y-114965000D01*
X118600000Y-114767172D01*
X118599999Y-114767155D01*
X118593598Y-114707627D01*
X118593596Y-114707620D01*
X118543354Y-114572913D01*
X118543350Y-114572906D01*
X118487508Y-114498311D01*
X118463090Y-114432847D01*
X118477941Y-114364574D01*
X118527346Y-114315168D01*
X118586774Y-114300000D01*
X118903226Y-114300000D01*
X118970265Y-114319685D01*
G37*
%TD.AperFunction*%
%TA.AperFunction,Conductor*%
G36*
X127404125Y-119280572D02*
G01*
X127451971Y-119220573D01*
X127583113Y-118993432D01*
X127658428Y-118801532D01*
X127701244Y-118746318D01*
X127767114Y-118723017D01*
X127835125Y-118739027D01*
X127883683Y-118789265D01*
X127890034Y-118803489D01*
X127987633Y-119065161D01*
X127987635Y-119065166D01*
X128043236Y-119166991D01*
X128058088Y-119235264D01*
X128033671Y-119300728D01*
X128022085Y-119314099D01*
X127484505Y-119851681D01*
X127423182Y-119885166D01*
X127396824Y-119888000D01*
X127081674Y-119888000D01*
X127014635Y-119868315D01*
X126968880Y-119815511D01*
X126958936Y-119746353D01*
X126987961Y-119682797D01*
X127011823Y-119661546D01*
X127051168Y-119634720D01*
X126326025Y-118909578D01*
X126357258Y-118896641D01*
X126480097Y-118814563D01*
X126584563Y-118710097D01*
X126666641Y-118587258D01*
X126679578Y-118556025D01*
X127404125Y-119280572D01*
G37*
%TD.AperFunction*%
%TD*%
%TA.AperFunction,Conductor*%
%TO.N,-15V_H*%
G36*
X161566061Y-103378597D02*
G01*
X161742941Y-103396018D01*
X161766769Y-103400757D01*
X161931001Y-103450576D01*
X161953453Y-103459877D01*
X162104798Y-103540772D01*
X162125010Y-103554277D01*
X162257666Y-103663145D01*
X162274854Y-103680333D01*
X162383722Y-103812989D01*
X162397227Y-103833201D01*
X162478121Y-103984543D01*
X162487424Y-104007001D01*
X162537240Y-104171224D01*
X162541982Y-104195065D01*
X162559403Y-104371938D01*
X162560000Y-104384092D01*
X162560000Y-108975907D01*
X162559403Y-108988061D01*
X162541982Y-109164934D01*
X162537240Y-109188775D01*
X162487424Y-109352998D01*
X162478121Y-109375456D01*
X162397227Y-109526798D01*
X162383722Y-109547010D01*
X162274854Y-109679666D01*
X162257666Y-109696854D01*
X162125010Y-109805722D01*
X162104798Y-109819227D01*
X161953456Y-109900121D01*
X161930998Y-109909424D01*
X161766775Y-109959240D01*
X161742934Y-109963982D01*
X161566061Y-109981403D01*
X161553907Y-109982000D01*
X161441953Y-109982000D01*
X161374914Y-109962315D01*
X161329159Y-109909511D01*
X161319215Y-109840353D01*
X161335221Y-109794880D01*
X161368153Y-109739192D01*
X161368156Y-109739185D01*
X161412210Y-109587553D01*
X161412211Y-109587547D01*
X161414999Y-109552118D01*
X161415000Y-109552105D01*
X161415000Y-109114000D01*
X160289000Y-109114000D01*
X160221961Y-109094315D01*
X160176206Y-109041511D01*
X160165000Y-108990000D01*
X160165000Y-108614000D01*
X160665000Y-108614000D01*
X161415000Y-108614000D01*
X161415000Y-108175894D01*
X161414999Y-108175881D01*
X161412211Y-108140452D01*
X161412210Y-108140446D01*
X161368156Y-107988814D01*
X161368155Y-107988811D01*
X161287773Y-107852891D01*
X161287767Y-107852883D01*
X161176116Y-107741232D01*
X161176108Y-107741226D01*
X161040188Y-107660844D01*
X161040185Y-107660843D01*
X160888553Y-107616789D01*
X160888547Y-107616788D01*
X160853118Y-107614000D01*
X160665000Y-107614000D01*
X160665000Y-108614000D01*
X160165000Y-108614000D01*
X160165000Y-107614000D01*
X159976881Y-107614000D01*
X159941452Y-107616788D01*
X159941446Y-107616789D01*
X159789814Y-107660843D01*
X159789813Y-107660843D01*
X159689332Y-107720267D01*
X159621608Y-107737449D01*
X159555346Y-107715289D01*
X159512000Y-107661340D01*
X159512000Y-107447237D01*
X159518872Y-107433506D01*
X159578958Y-107397848D01*
X159596383Y-107394704D01*
X159597379Y-107394596D01*
X159732086Y-107344354D01*
X159732093Y-107344350D01*
X159847187Y-107258190D01*
X159847190Y-107258187D01*
X159933350Y-107143093D01*
X159933354Y-107143086D01*
X159983596Y-107008379D01*
X159983598Y-107008372D01*
X159989999Y-106948844D01*
X159990000Y-106948827D01*
X159990000Y-106676000D01*
X159026500Y-106676000D01*
X158959461Y-106656315D01*
X158913706Y-106603511D01*
X158902500Y-106552000D01*
X158902500Y-106176000D01*
X159402500Y-106176000D01*
X159990000Y-106176000D01*
X159990000Y-105903172D01*
X159989999Y-105903155D01*
X159983598Y-105843627D01*
X159983596Y-105843620D01*
X159933354Y-105708913D01*
X159933350Y-105708906D01*
X159847190Y-105593812D01*
X159847187Y-105593809D01*
X159732093Y-105507649D01*
X159732086Y-105507645D01*
X159597379Y-105457403D01*
X159597372Y-105457401D01*
X159537844Y-105451000D01*
X159402500Y-105451000D01*
X159402500Y-106176000D01*
X158902500Y-106176000D01*
X158902500Y-105451000D01*
X158767155Y-105451000D01*
X158707627Y-105457401D01*
X158707619Y-105457403D01*
X158663333Y-105473921D01*
X158593641Y-105478905D01*
X158532318Y-105445419D01*
X158498834Y-105384096D01*
X158496000Y-105357739D01*
X158496000Y-104384092D01*
X158496597Y-104371938D01*
X158514018Y-104195056D01*
X158518757Y-104171232D01*
X158568577Y-104006994D01*
X158577875Y-103984549D01*
X158658775Y-103833195D01*
X158672272Y-103812995D01*
X158781149Y-103680328D01*
X158798328Y-103663149D01*
X158930995Y-103554272D01*
X158951195Y-103540775D01*
X159102549Y-103459875D01*
X159124994Y-103450577D01*
X159289232Y-103400757D01*
X159313056Y-103396018D01*
X159489939Y-103378597D01*
X159502093Y-103378000D01*
X161553907Y-103378000D01*
X161566061Y-103378597D01*
G37*
%TD.AperFunction*%
%TD*%
%TA.AperFunction,Conductor*%
%TO.N,E3*%
G36*
X156994061Y-103378597D02*
G01*
X157170941Y-103396018D01*
X157194769Y-103400757D01*
X157359001Y-103450576D01*
X157381453Y-103459877D01*
X157532798Y-103540772D01*
X157553010Y-103554277D01*
X157685666Y-103663145D01*
X157702854Y-103680333D01*
X157811722Y-103812989D01*
X157825227Y-103833201D01*
X157906121Y-103984543D01*
X157915424Y-104007001D01*
X157965240Y-104171224D01*
X157969982Y-104195065D01*
X157987403Y-104371938D01*
X157988000Y-104384092D01*
X157988000Y-105510260D01*
X157968315Y-105577299D01*
X157915511Y-105623054D01*
X157846353Y-105632998D01*
X157782797Y-105603973D01*
X157776319Y-105597941D01*
X157772187Y-105593809D01*
X157657093Y-105507649D01*
X157657086Y-105507645D01*
X157522379Y-105457403D01*
X157522372Y-105457401D01*
X157462844Y-105451000D01*
X157327500Y-105451000D01*
X157327500Y-106552000D01*
X157307815Y-106619039D01*
X157255011Y-106664794D01*
X157203500Y-106676000D01*
X156240000Y-106676000D01*
X156240000Y-106948844D01*
X156246401Y-107008372D01*
X156246403Y-107008379D01*
X156296645Y-107143086D01*
X156296649Y-107143093D01*
X156382809Y-107258187D01*
X156382812Y-107258190D01*
X156497906Y-107344350D01*
X156497913Y-107344354D01*
X156632620Y-107394596D01*
X156632626Y-107394598D01*
X156675091Y-107399164D01*
X156718000Y-107416937D01*
X156718000Y-107692442D01*
X156704070Y-107715288D01*
X156641218Y-107745807D01*
X156571844Y-107737501D01*
X156557555Y-107730253D01*
X156440192Y-107660846D01*
X156440185Y-107660843D01*
X156288553Y-107616789D01*
X156288547Y-107616788D01*
X156253118Y-107614000D01*
X156065000Y-107614000D01*
X156065000Y-108990000D01*
X156045315Y-109057039D01*
X155992511Y-109102794D01*
X155941000Y-109114000D01*
X154815000Y-109114000D01*
X154815000Y-109552118D01*
X154817788Y-109587547D01*
X154817789Y-109587553D01*
X154861843Y-109739185D01*
X154861846Y-109739192D01*
X154894779Y-109794880D01*
X154911962Y-109862604D01*
X154889802Y-109928866D01*
X154835335Y-109972629D01*
X154788047Y-109982000D01*
X154676093Y-109982000D01*
X154663939Y-109981403D01*
X154487065Y-109963982D01*
X154463224Y-109959240D01*
X154299001Y-109909424D01*
X154276543Y-109900121D01*
X154125201Y-109819227D01*
X154104989Y-109805722D01*
X153972333Y-109696854D01*
X153955145Y-109679666D01*
X153846277Y-109547010D01*
X153832772Y-109526798D01*
X153751878Y-109375456D01*
X153742575Y-109352998D01*
X153692757Y-109188769D01*
X153688018Y-109164941D01*
X153670597Y-108988061D01*
X153670000Y-108975907D01*
X153670000Y-108175881D01*
X154815000Y-108175881D01*
X154815000Y-108614000D01*
X155565000Y-108614000D01*
X155565000Y-107614000D01*
X155376881Y-107614000D01*
X155341452Y-107616788D01*
X155341446Y-107616789D01*
X155189814Y-107660843D01*
X155189811Y-107660844D01*
X155053891Y-107741226D01*
X155053883Y-107741232D01*
X154942232Y-107852883D01*
X154942226Y-107852891D01*
X154861844Y-107988811D01*
X154861843Y-107988814D01*
X154817789Y-108140446D01*
X154817788Y-108140452D01*
X154815000Y-108175881D01*
X153670000Y-108175881D01*
X153670000Y-105903155D01*
X156240000Y-105903155D01*
X156240000Y-106176000D01*
X156827500Y-106176000D01*
X156827500Y-105451000D01*
X156692155Y-105451000D01*
X156632627Y-105457401D01*
X156632620Y-105457403D01*
X156497913Y-105507645D01*
X156497906Y-105507649D01*
X156382812Y-105593809D01*
X156382809Y-105593812D01*
X156296649Y-105708906D01*
X156296645Y-105708913D01*
X156246403Y-105843620D01*
X156246401Y-105843627D01*
X156240000Y-105903155D01*
X153670000Y-105903155D01*
X153670000Y-104384092D01*
X153670597Y-104371938D01*
X153688018Y-104195056D01*
X153692757Y-104171232D01*
X153742577Y-104006994D01*
X153751875Y-103984549D01*
X153832775Y-103833195D01*
X153846272Y-103812995D01*
X153955149Y-103680328D01*
X153972328Y-103663149D01*
X154104995Y-103554272D01*
X154125195Y-103540775D01*
X154276549Y-103459875D01*
X154298994Y-103450577D01*
X154463232Y-103400757D01*
X154487056Y-103396018D01*
X154663939Y-103378597D01*
X154676093Y-103378000D01*
X156981907Y-103378000D01*
X156994061Y-103378597D01*
G37*
%TD.AperFunction*%
%TD*%
%TA.AperFunction,Conductor*%
%TO.N,Net-(D2-OUTL)*%
G36*
X140528039Y-103479685D02*
G01*
X140573794Y-103532489D01*
X140585000Y-103584000D01*
X140585000Y-104974146D01*
X140585001Y-104974147D01*
X140610146Y-104970165D01*
X140639936Y-104954987D01*
X140708605Y-104942090D01*
X140755383Y-104961075D01*
X140883947Y-105153921D01*
X140883949Y-105153924D01*
X141560676Y-106169014D01*
X141566911Y-106179439D01*
X141650409Y-106335981D01*
X141659679Y-106358406D01*
X141699998Y-106491571D01*
X141700585Y-106561438D01*
X141680590Y-106601810D01*
X141676202Y-106607671D01*
X141625908Y-106742517D01*
X141619501Y-106802116D01*
X141619501Y-106802123D01*
X141619500Y-106802135D01*
X141619500Y-109097870D01*
X141619501Y-109097876D01*
X141625908Y-109157483D01*
X141676202Y-109292328D01*
X141676206Y-109292335D01*
X141732000Y-109366865D01*
X141732000Y-109474000D01*
X142415772Y-109701924D01*
X146273409Y-110987803D01*
X146330784Y-111027677D01*
X146357492Y-111092241D01*
X146345056Y-111160995D01*
X146321879Y-111193120D01*
X146300000Y-111214999D01*
X146300000Y-112241000D01*
X146280315Y-112308039D01*
X146227511Y-112353794D01*
X146176000Y-112365000D01*
X144925000Y-112365000D01*
X144925000Y-112562844D01*
X144931401Y-112622372D01*
X144931403Y-112622379D01*
X144981645Y-112757086D01*
X144981649Y-112757093D01*
X145037492Y-112831689D01*
X145061910Y-112897153D01*
X145047059Y-112965426D01*
X144997654Y-113014832D01*
X144938226Y-113030000D01*
X144621774Y-113030000D01*
X144554735Y-113010315D01*
X144508980Y-112957511D01*
X144499036Y-112888353D01*
X144522508Y-112831689D01*
X144578350Y-112757093D01*
X144578354Y-112757086D01*
X144628596Y-112622379D01*
X144628598Y-112622372D01*
X144634999Y-112562844D01*
X144635000Y-112562827D01*
X144635000Y-112365000D01*
X142385000Y-112365000D01*
X142385000Y-112562844D01*
X142391401Y-112622372D01*
X142391403Y-112622379D01*
X142441645Y-112757086D01*
X142441649Y-112757093D01*
X142497492Y-112831689D01*
X142521910Y-112897153D01*
X142507059Y-112965426D01*
X142457654Y-113014832D01*
X142398226Y-113030000D01*
X142081774Y-113030000D01*
X142014735Y-113010315D01*
X141968980Y-112957511D01*
X141959036Y-112888353D01*
X141982508Y-112831689D01*
X142038350Y-112757093D01*
X142038354Y-112757086D01*
X142088596Y-112622379D01*
X142088598Y-112622372D01*
X142094999Y-112562844D01*
X142095000Y-112562827D01*
X142095000Y-112365000D01*
X140844000Y-112365000D01*
X140776961Y-112345315D01*
X140731206Y-112292511D01*
X140720000Y-112241000D01*
X140720000Y-111865000D01*
X141220000Y-111865000D01*
X142095000Y-111865000D01*
X142095000Y-111667172D01*
X142094999Y-111667155D01*
X142385000Y-111667155D01*
X142385000Y-111865000D01*
X143260000Y-111865000D01*
X143760000Y-111865000D01*
X144635000Y-111865000D01*
X144635000Y-111667172D01*
X144634999Y-111667155D01*
X144925000Y-111667155D01*
X144925000Y-111865000D01*
X145800000Y-111865000D01*
X145800000Y-111215000D01*
X145377155Y-111215000D01*
X145317627Y-111221401D01*
X145317620Y-111221403D01*
X145182913Y-111271645D01*
X145182906Y-111271649D01*
X145067812Y-111357809D01*
X145067809Y-111357812D01*
X144981649Y-111472906D01*
X144981645Y-111472913D01*
X144931403Y-111607620D01*
X144931401Y-111607627D01*
X144925000Y-111667155D01*
X144634999Y-111667155D01*
X144628598Y-111607627D01*
X144628596Y-111607620D01*
X144578354Y-111472913D01*
X144578350Y-111472906D01*
X144492190Y-111357812D01*
X144492187Y-111357809D01*
X144377093Y-111271649D01*
X144377086Y-111271645D01*
X144242379Y-111221403D01*
X144242372Y-111221401D01*
X144182844Y-111215000D01*
X143760000Y-111215000D01*
X143760000Y-111865000D01*
X143260000Y-111865000D01*
X143260000Y-111215000D01*
X142837155Y-111215000D01*
X142777627Y-111221401D01*
X142777620Y-111221403D01*
X142642913Y-111271645D01*
X142642906Y-111271649D01*
X142527812Y-111357809D01*
X142527809Y-111357812D01*
X142441649Y-111472906D01*
X142441645Y-111472913D01*
X142391403Y-111607620D01*
X142391401Y-111607627D01*
X142385000Y-111667155D01*
X142094999Y-111667155D01*
X142088598Y-111607627D01*
X142088596Y-111607620D01*
X142038354Y-111472913D01*
X142038350Y-111472906D01*
X141952190Y-111357812D01*
X141952187Y-111357809D01*
X141837093Y-111271649D01*
X141837086Y-111271645D01*
X141702379Y-111221403D01*
X141702372Y-111221401D01*
X141642844Y-111215000D01*
X141220000Y-111215000D01*
X141220000Y-111865000D01*
X140720000Y-111865000D01*
X140720000Y-111215000D01*
X140297155Y-111215000D01*
X140237627Y-111221401D01*
X140237619Y-111221403D01*
X140138267Y-111258459D01*
X140068575Y-111263443D01*
X140007252Y-111229957D01*
X139973768Y-111168634D01*
X139972180Y-111124741D01*
X139986561Y-111024076D01*
X140197949Y-109544354D01*
X140208000Y-109474000D01*
X140208000Y-109403784D01*
X140230016Y-109337588D01*
X140232594Y-109334011D01*
X140263796Y-109292331D01*
X140314091Y-109157483D01*
X140320500Y-109097873D01*
X140320499Y-106802128D01*
X140314091Y-106742517D01*
X140263796Y-106607669D01*
X140243372Y-106580386D01*
X140224473Y-106555140D01*
X140208000Y-106511575D01*
X140208000Y-106426000D01*
X140092589Y-106079768D01*
X140087134Y-106055518D01*
X140082237Y-106015182D01*
X140082236Y-106015179D01*
X140026221Y-105867477D01*
X140022736Y-105860837D01*
X140023202Y-105860591D01*
X140012149Y-105838445D01*
X140006894Y-105822681D01*
X140004123Y-105813100D01*
X139969299Y-105671602D01*
X139966110Y-105651950D01*
X139954401Y-105506695D01*
X139954000Y-105496732D01*
X139954000Y-105098583D01*
X139973685Y-105031544D01*
X140026489Y-104985789D01*
X140080453Y-104978029D01*
X140085000Y-104974146D01*
X140085000Y-103584000D01*
X140104685Y-103516961D01*
X140157489Y-103471206D01*
X140209000Y-103460000D01*
X140461000Y-103460000D01*
X140528039Y-103479685D01*
G37*
%TD.AperFunction*%
%TD*%
%TA.AperFunction,Conductor*%
%TO.N,G3*%
G36*
X134845265Y-114319685D02*
G01*
X134891020Y-114372489D01*
X134900964Y-114441647D01*
X134877492Y-114498311D01*
X134821649Y-114572906D01*
X134821645Y-114572913D01*
X134771403Y-114707620D01*
X134771401Y-114707627D01*
X134765000Y-114767155D01*
X134765000Y-114965000D01*
X137015000Y-114965000D01*
X137015000Y-114767172D01*
X137014999Y-114767155D01*
X137008598Y-114707627D01*
X137008596Y-114707620D01*
X136958354Y-114572913D01*
X136958350Y-114572906D01*
X136902508Y-114498311D01*
X136878090Y-114432847D01*
X136892941Y-114364574D01*
X136942346Y-114315168D01*
X137001774Y-114300000D01*
X137318226Y-114300000D01*
X137385265Y-114319685D01*
X137431020Y-114372489D01*
X137440964Y-114441647D01*
X137417492Y-114498311D01*
X137361649Y-114572906D01*
X137361645Y-114572913D01*
X137311403Y-114707620D01*
X137311401Y-114707627D01*
X137305000Y-114767155D01*
X137305000Y-114965000D01*
X139555000Y-114965000D01*
X139555000Y-114767172D01*
X139554999Y-114767155D01*
X139548598Y-114707627D01*
X139548596Y-114707620D01*
X139498354Y-114572913D01*
X139498350Y-114572906D01*
X139442508Y-114498311D01*
X139418090Y-114432847D01*
X139432941Y-114364574D01*
X139482346Y-114315168D01*
X139541774Y-114300000D01*
X139858226Y-114300000D01*
X139925265Y-114319685D01*
X139971020Y-114372489D01*
X139980964Y-114441647D01*
X139957492Y-114498311D01*
X139901649Y-114572906D01*
X139901645Y-114572913D01*
X139851403Y-114707620D01*
X139851401Y-114707627D01*
X139845000Y-114767155D01*
X139845000Y-114965000D01*
X142095000Y-114965000D01*
X142095000Y-114767172D01*
X142094999Y-114767155D01*
X142088598Y-114707627D01*
X142088596Y-114707620D01*
X142038354Y-114572913D01*
X142038350Y-114572906D01*
X141982508Y-114498311D01*
X141958090Y-114432847D01*
X141972941Y-114364574D01*
X142022346Y-114315168D01*
X142081774Y-114300000D01*
X142398226Y-114300000D01*
X142465265Y-114319685D01*
X142511020Y-114372489D01*
X142520964Y-114441647D01*
X142497492Y-114498311D01*
X142441649Y-114572906D01*
X142441645Y-114572913D01*
X142391403Y-114707620D01*
X142391401Y-114707627D01*
X142385000Y-114767155D01*
X142385000Y-114965000D01*
X144635000Y-114965000D01*
X144635000Y-114767172D01*
X144634999Y-114767155D01*
X144628598Y-114707627D01*
X144628596Y-114707620D01*
X144578354Y-114572913D01*
X144578350Y-114572906D01*
X144522508Y-114498311D01*
X144498090Y-114432847D01*
X144512941Y-114364574D01*
X144562346Y-114315168D01*
X144621774Y-114300000D01*
X144938226Y-114300000D01*
X145005265Y-114319685D01*
X145051020Y-114372489D01*
X145060964Y-114441647D01*
X145037492Y-114498311D01*
X144981649Y-114572906D01*
X144981645Y-114572913D01*
X144931403Y-114707620D01*
X144931401Y-114707627D01*
X144925000Y-114767155D01*
X144925000Y-114965000D01*
X146176000Y-114965000D01*
X146243039Y-114984685D01*
X146288794Y-115037489D01*
X146300000Y-115089000D01*
X146300000Y-116115000D01*
X146722828Y-116115000D01*
X146722844Y-116114999D01*
X146782372Y-116108598D01*
X146782379Y-116108596D01*
X146917086Y-116058354D01*
X146917093Y-116058350D01*
X147032187Y-115972190D01*
X147032190Y-115972187D01*
X147096734Y-115885969D01*
X147152667Y-115844098D01*
X147222359Y-115839114D01*
X147283682Y-115872600D01*
X147317166Y-115933923D01*
X147320000Y-115960280D01*
X147320000Y-117368597D01*
X147303387Y-117430597D01*
X147280432Y-117470356D01*
X147184582Y-117714578D01*
X147184576Y-117714597D01*
X147126197Y-117970374D01*
X147126196Y-117970379D01*
X147106592Y-118231995D01*
X147106592Y-118232004D01*
X147126196Y-118493620D01*
X147126197Y-118493625D01*
X147184576Y-118749402D01*
X147184582Y-118749421D01*
X147280432Y-118993645D01*
X147280435Y-118993651D01*
X147284685Y-119001012D01*
X147301155Y-119068913D01*
X147295957Y-119099003D01*
X147247424Y-119258998D01*
X147238121Y-119281456D01*
X147157227Y-119432798D01*
X147143722Y-119453010D01*
X147034854Y-119585666D01*
X147017666Y-119602854D01*
X146885010Y-119711722D01*
X146864798Y-119725227D01*
X146713456Y-119806121D01*
X146690998Y-119815424D01*
X146526775Y-119865240D01*
X146502934Y-119869982D01*
X146326061Y-119887403D01*
X146313907Y-119888000D01*
X142714497Y-119888000D01*
X142647458Y-119868315D01*
X142601703Y-119815511D01*
X142591759Y-119746353D01*
X142620784Y-119682797D01*
X142626816Y-119676319D01*
X142757729Y-119545405D01*
X142757739Y-119545395D01*
X142929226Y-119316315D01*
X143066367Y-119065161D01*
X143166369Y-118797046D01*
X143210865Y-118592500D01*
X143227195Y-118517433D01*
X143227195Y-118517432D01*
X143227196Y-118517428D01*
X143247610Y-118232000D01*
X143227196Y-117946572D01*
X143212376Y-117878447D01*
X143166371Y-117666962D01*
X143166370Y-117666960D01*
X143166369Y-117666954D01*
X143066367Y-117398839D01*
X142929226Y-117147685D01*
X142929224Y-117147682D01*
X142757745Y-116918612D01*
X142757729Y-116918594D01*
X142555405Y-116716270D01*
X142555387Y-116716254D01*
X142326317Y-116544775D01*
X142326309Y-116544770D01*
X142075166Y-116407635D01*
X142075167Y-116407635D01*
X142016926Y-116385912D01*
X141807046Y-116307631D01*
X141807040Y-116307629D01*
X141802896Y-116306084D01*
X141803265Y-116305092D01*
X141748583Y-116269938D01*
X141719568Y-116206377D01*
X141729523Y-116137220D01*
X141775286Y-116084424D01*
X141798977Y-116072568D01*
X141837084Y-116058355D01*
X141837093Y-116058350D01*
X141952187Y-115972190D01*
X141952190Y-115972187D01*
X142038350Y-115857093D01*
X142038354Y-115857086D01*
X142088596Y-115722379D01*
X142088598Y-115722372D01*
X142094999Y-115662844D01*
X142385000Y-115662844D01*
X142391401Y-115722372D01*
X142391403Y-115722379D01*
X142441645Y-115857086D01*
X142441649Y-115857093D01*
X142527809Y-115972187D01*
X142527812Y-115972190D01*
X142642906Y-116058350D01*
X142642913Y-116058354D01*
X142777620Y-116108596D01*
X142777627Y-116108598D01*
X142837155Y-116114999D01*
X142837172Y-116115000D01*
X143260000Y-116115000D01*
X143760000Y-116115000D01*
X144182828Y-116115000D01*
X144182844Y-116114999D01*
X144242372Y-116108598D01*
X144242379Y-116108596D01*
X144377086Y-116058354D01*
X144377093Y-116058350D01*
X144492187Y-115972190D01*
X144492190Y-115972187D01*
X144578350Y-115857093D01*
X144578354Y-115857086D01*
X144628596Y-115722379D01*
X144628598Y-115722372D01*
X144634999Y-115662844D01*
X144925000Y-115662844D01*
X144931401Y-115722372D01*
X144931403Y-115722379D01*
X144981645Y-115857086D01*
X144981649Y-115857093D01*
X145067809Y-115972187D01*
X145067812Y-115972190D01*
X145182906Y-116058350D01*
X145182913Y-116058354D01*
X145317620Y-116108596D01*
X145317627Y-116108598D01*
X145377155Y-116114999D01*
X145377172Y-116115000D01*
X145800000Y-116115000D01*
X145800000Y-115465000D01*
X144925000Y-115465000D01*
X144925000Y-115662844D01*
X144634999Y-115662844D01*
X144635000Y-115662827D01*
X144635000Y-115465000D01*
X143760000Y-115465000D01*
X143760000Y-116115000D01*
X143260000Y-116115000D01*
X143260000Y-115465000D01*
X142385000Y-115465000D01*
X142385000Y-115662844D01*
X142094999Y-115662844D01*
X142095000Y-115662827D01*
X142095000Y-115465000D01*
X139845000Y-115465000D01*
X139845000Y-115662844D01*
X139851401Y-115722372D01*
X139851403Y-115722379D01*
X139901645Y-115857086D01*
X139901649Y-115857093D01*
X139987809Y-115972187D01*
X139987812Y-115972190D01*
X140102906Y-116058350D01*
X140102913Y-116058354D01*
X140237620Y-116108596D01*
X140237627Y-116108598D01*
X140297155Y-116114999D01*
X140297172Y-116115000D01*
X140506133Y-116115000D01*
X140573172Y-116134685D01*
X140618927Y-116187489D01*
X140628871Y-116256647D01*
X140599846Y-116320203D01*
X140549469Y-116355180D01*
X140445419Y-116393989D01*
X140408833Y-116407635D01*
X140157690Y-116544770D01*
X140157682Y-116544775D01*
X139928612Y-116716254D01*
X139928594Y-116716270D01*
X139726270Y-116918594D01*
X139726254Y-116918612D01*
X139554775Y-117147682D01*
X139554770Y-117147690D01*
X139417635Y-117398833D01*
X139320039Y-117660499D01*
X139278167Y-117716432D01*
X139212703Y-117740849D01*
X139144430Y-117725997D01*
X139095025Y-117676592D01*
X139088429Y-117662467D01*
X139013116Y-117470573D01*
X138881972Y-117243426D01*
X138834124Y-117183427D01*
X138109577Y-117907973D01*
X138096641Y-117876742D01*
X138014563Y-117753903D01*
X137910097Y-117649437D01*
X137787258Y-117567359D01*
X137756025Y-117554421D01*
X138481168Y-116829278D01*
X138309454Y-116712206D01*
X138309445Y-116712201D01*
X138073142Y-116598404D01*
X138073144Y-116598404D01*
X137822505Y-116521092D01*
X137822499Y-116521090D01*
X137563151Y-116482000D01*
X137300848Y-116482000D01*
X137041500Y-116521090D01*
X137041494Y-116521092D01*
X136790858Y-116598404D01*
X136790854Y-116598405D01*
X136554547Y-116712205D01*
X136554539Y-116712210D01*
X136382830Y-116829277D01*
X137107974Y-117554421D01*
X137076742Y-117567359D01*
X136953903Y-117649437D01*
X136849437Y-117753903D01*
X136767359Y-117876742D01*
X136754422Y-117907974D01*
X136029874Y-117183427D01*
X135982028Y-117243425D01*
X135850883Y-117470573D01*
X135755057Y-117714732D01*
X135753691Y-117719164D01*
X135752070Y-117718664D01*
X135721466Y-117773329D01*
X135659792Y-117806163D01*
X135590157Y-117800440D01*
X135535451Y-117759035D01*
X135452186Y-117647809D01*
X135337093Y-117561649D01*
X135337086Y-117561645D01*
X135202379Y-117511403D01*
X135202372Y-117511401D01*
X135142844Y-117505000D01*
X134870000Y-117505000D01*
X134870000Y-119180000D01*
X135142828Y-119180000D01*
X135142844Y-119179999D01*
X135202372Y-119173598D01*
X135202379Y-119173596D01*
X135337086Y-119123354D01*
X135337093Y-119123350D01*
X135452187Y-119037190D01*
X135452190Y-119037187D01*
X135538350Y-118922093D01*
X135538355Y-118922084D01*
X135563763Y-118853961D01*
X135605633Y-118798027D01*
X135671097Y-118773609D01*
X135739370Y-118788460D01*
X135788776Y-118837865D01*
X135795373Y-118851990D01*
X135850884Y-118993428D01*
X135982027Y-119220573D01*
X136029874Y-119280571D01*
X136754421Y-118556024D01*
X136767359Y-118587258D01*
X136849437Y-118710097D01*
X136953903Y-118814563D01*
X137076742Y-118896641D01*
X137107974Y-118909577D01*
X136382830Y-119634720D01*
X136422176Y-119661546D01*
X136466478Y-119715575D01*
X136474538Y-119784978D01*
X136443795Y-119847721D01*
X136384011Y-119883883D01*
X136352325Y-119888000D01*
X135638543Y-119888000D01*
X135571504Y-119868315D01*
X135539276Y-119838311D01*
X135538796Y-119837670D01*
X135538796Y-119837669D01*
X135452546Y-119722454D01*
X135429709Y-119705358D01*
X135337335Y-119636206D01*
X135337328Y-119636202D01*
X135202482Y-119585908D01*
X135202483Y-119585908D01*
X135142883Y-119579501D01*
X135142881Y-119579500D01*
X135142873Y-119579500D01*
X135142864Y-119579500D01*
X134097129Y-119579500D01*
X134097123Y-119579501D01*
X134037516Y-119585908D01*
X133902671Y-119636202D01*
X133902664Y-119636206D01*
X133787455Y-119722452D01*
X133700722Y-119838312D01*
X133644788Y-119880182D01*
X133601456Y-119888000D01*
X133086093Y-119888000D01*
X133073939Y-119887403D01*
X132897065Y-119869982D01*
X132873224Y-119865240D01*
X132709001Y-119815424D01*
X132686543Y-119806121D01*
X132535201Y-119725227D01*
X132514989Y-119711722D01*
X132382333Y-119602854D01*
X132365145Y-119585666D01*
X132256277Y-119453010D01*
X132242772Y-119432798D01*
X132180512Y-119316317D01*
X132161877Y-119281453D01*
X132152575Y-119258998D01*
X132102757Y-119094769D01*
X132098018Y-119070941D01*
X132080597Y-118894061D01*
X132080000Y-118881907D01*
X132080000Y-118727844D01*
X133645000Y-118727844D01*
X133651401Y-118787372D01*
X133651403Y-118787379D01*
X133701645Y-118922086D01*
X133701649Y-118922093D01*
X133787809Y-119037187D01*
X133787812Y-119037190D01*
X133902906Y-119123350D01*
X133902913Y-119123354D01*
X134037620Y-119173596D01*
X134037627Y-119173598D01*
X134097155Y-119179999D01*
X134097172Y-119180000D01*
X134370000Y-119180000D01*
X134370000Y-118592500D01*
X133645000Y-118592500D01*
X133645000Y-118727844D01*
X132080000Y-118727844D01*
X132080000Y-117957155D01*
X133645000Y-117957155D01*
X133645000Y-118092500D01*
X134370000Y-118092500D01*
X134370000Y-117505000D01*
X134097155Y-117505000D01*
X134037627Y-117511401D01*
X134037620Y-117511403D01*
X133902913Y-117561645D01*
X133902906Y-117561649D01*
X133787812Y-117647809D01*
X133787809Y-117647812D01*
X133701649Y-117762906D01*
X133701645Y-117762913D01*
X133651403Y-117897620D01*
X133651401Y-117897627D01*
X133645000Y-117957155D01*
X132080000Y-117957155D01*
X132080000Y-115960280D01*
X132099685Y-115893241D01*
X132152489Y-115847486D01*
X132221647Y-115837542D01*
X132285203Y-115866567D01*
X132303266Y-115885969D01*
X132367809Y-115972187D01*
X132367812Y-115972190D01*
X132482906Y-116058350D01*
X132482913Y-116058354D01*
X132617620Y-116108596D01*
X132617627Y-116108598D01*
X132677155Y-116114999D01*
X132677172Y-116115000D01*
X133100000Y-116115000D01*
X133600000Y-116115000D01*
X134022828Y-116115000D01*
X134022844Y-116114999D01*
X134082372Y-116108598D01*
X134082379Y-116108596D01*
X134217086Y-116058354D01*
X134217093Y-116058350D01*
X134332187Y-115972190D01*
X134332190Y-115972187D01*
X134418350Y-115857093D01*
X134418354Y-115857086D01*
X134468596Y-115722379D01*
X134468598Y-115722372D01*
X134474999Y-115662844D01*
X134765000Y-115662844D01*
X134771401Y-115722372D01*
X134771403Y-115722379D01*
X134821645Y-115857086D01*
X134821649Y-115857093D01*
X134907809Y-115972187D01*
X134907812Y-115972190D01*
X135022906Y-116058350D01*
X135022913Y-116058354D01*
X135157620Y-116108596D01*
X135157627Y-116108598D01*
X135217155Y-116114999D01*
X135217172Y-116115000D01*
X135640000Y-116115000D01*
X136140000Y-116115000D01*
X136562828Y-116115000D01*
X136562844Y-116114999D01*
X136622372Y-116108598D01*
X136622379Y-116108596D01*
X136757086Y-116058354D01*
X136757093Y-116058350D01*
X136872187Y-115972190D01*
X136872190Y-115972187D01*
X136958350Y-115857093D01*
X136958354Y-115857086D01*
X137008596Y-115722379D01*
X137008598Y-115722372D01*
X137014999Y-115662844D01*
X137305000Y-115662844D01*
X137311401Y-115722372D01*
X137311403Y-115722379D01*
X137361645Y-115857086D01*
X137361649Y-115857093D01*
X137447809Y-115972187D01*
X137447812Y-115972190D01*
X137562906Y-116058350D01*
X137562913Y-116058354D01*
X137697620Y-116108596D01*
X137697627Y-116108598D01*
X137757155Y-116114999D01*
X137757172Y-116115000D01*
X138180000Y-116115000D01*
X138680000Y-116115000D01*
X139102828Y-116115000D01*
X139102844Y-116114999D01*
X139162372Y-116108598D01*
X139162379Y-116108596D01*
X139297086Y-116058354D01*
X139297093Y-116058350D01*
X139412187Y-115972190D01*
X139412190Y-115972187D01*
X139498350Y-115857093D01*
X139498354Y-115857086D01*
X139548596Y-115722379D01*
X139548598Y-115722372D01*
X139554999Y-115662844D01*
X139555000Y-115662827D01*
X139555000Y-115465000D01*
X138680000Y-115465000D01*
X138680000Y-116115000D01*
X138180000Y-116115000D01*
X138180000Y-115465000D01*
X137305000Y-115465000D01*
X137305000Y-115662844D01*
X137014999Y-115662844D01*
X137015000Y-115662827D01*
X137015000Y-115465000D01*
X136140000Y-115465000D01*
X136140000Y-116115000D01*
X135640000Y-116115000D01*
X135640000Y-115465000D01*
X134765000Y-115465000D01*
X134765000Y-115662844D01*
X134474999Y-115662844D01*
X134475000Y-115662827D01*
X134475000Y-115465000D01*
X133600000Y-115465000D01*
X133600000Y-116115000D01*
X133100000Y-116115000D01*
X133100000Y-115089000D01*
X133119685Y-115021961D01*
X133172489Y-114976206D01*
X133224000Y-114965000D01*
X134475000Y-114965000D01*
X134475000Y-114767172D01*
X134474999Y-114767155D01*
X134468598Y-114707627D01*
X134468596Y-114707620D01*
X134418354Y-114572913D01*
X134418350Y-114572906D01*
X134362508Y-114498311D01*
X134338090Y-114432847D01*
X134352941Y-114364574D01*
X134402346Y-114315168D01*
X134461774Y-114300000D01*
X134778226Y-114300000D01*
X134845265Y-114319685D01*
G37*
%TD.AperFunction*%
%TA.AperFunction,Conductor*%
G36*
X138834125Y-119280572D02*
G01*
X138881971Y-119220573D01*
X139013113Y-118993432D01*
X139088428Y-118801532D01*
X139131244Y-118746318D01*
X139197114Y-118723017D01*
X139265125Y-118739027D01*
X139313683Y-118789265D01*
X139320034Y-118803489D01*
X139417633Y-119065161D01*
X139417635Y-119065166D01*
X139473236Y-119166991D01*
X139488088Y-119235264D01*
X139463671Y-119300728D01*
X139452085Y-119314099D01*
X138914505Y-119851681D01*
X138853182Y-119885166D01*
X138826824Y-119888000D01*
X138511674Y-119888000D01*
X138444635Y-119868315D01*
X138398880Y-119815511D01*
X138388936Y-119746353D01*
X138417961Y-119682797D01*
X138441823Y-119661546D01*
X138481168Y-119634720D01*
X137756025Y-118909578D01*
X137787258Y-118896641D01*
X137910097Y-118814563D01*
X138014563Y-118710097D01*
X138096641Y-118587258D01*
X138109578Y-118556025D01*
X138834125Y-119280572D01*
G37*
%TD.AperFunction*%
%TD*%
%TA.AperFunction,Conductor*%
%TO.N,GND*%
G36*
X121434061Y-82042597D02*
G01*
X121610941Y-82060018D01*
X121634769Y-82064757D01*
X121799001Y-82114576D01*
X121821453Y-82123877D01*
X121972798Y-82204772D01*
X121993010Y-82218277D01*
X122125666Y-82327145D01*
X122142854Y-82344333D01*
X122251722Y-82476989D01*
X122265227Y-82497201D01*
X122346121Y-82648543D01*
X122355424Y-82671001D01*
X122405240Y-82835224D01*
X122409982Y-82859065D01*
X122424614Y-83007627D01*
X122427403Y-83035938D01*
X122428000Y-83048092D01*
X122428000Y-83821907D01*
X122427403Y-83834061D01*
X122409982Y-84010934D01*
X122405240Y-84034775D01*
X122355424Y-84198998D01*
X122346121Y-84221456D01*
X122265227Y-84372798D01*
X122251722Y-84393010D01*
X122142854Y-84525666D01*
X122125666Y-84542854D01*
X121993010Y-84651722D01*
X121972798Y-84665227D01*
X121821456Y-84746121D01*
X121798998Y-84755424D01*
X121634775Y-84805240D01*
X121610934Y-84809982D01*
X121434061Y-84827403D01*
X121421907Y-84828000D01*
X118100093Y-84828000D01*
X118087939Y-84827403D01*
X117911065Y-84809982D01*
X117887224Y-84805240D01*
X117723001Y-84755424D01*
X117700543Y-84746121D01*
X117549201Y-84665227D01*
X117528989Y-84651722D01*
X117396333Y-84542854D01*
X117379145Y-84525666D01*
X117270277Y-84393010D01*
X117256772Y-84372798D01*
X117175878Y-84221456D01*
X117166575Y-84198998D01*
X117161445Y-84182086D01*
X117116757Y-84034769D01*
X117112018Y-84010941D01*
X117109743Y-83987844D01*
X117780000Y-83987844D01*
X117786401Y-84047372D01*
X117786403Y-84047379D01*
X117836645Y-84182086D01*
X117836649Y-84182093D01*
X117922809Y-84297187D01*
X117922812Y-84297190D01*
X118037906Y-84383350D01*
X118037913Y-84383354D01*
X118172620Y-84433596D01*
X118172627Y-84433598D01*
X118232155Y-84439999D01*
X118232172Y-84440000D01*
X119130000Y-84440000D01*
X119630000Y-84440000D01*
X120527828Y-84440000D01*
X120527844Y-84439999D01*
X120587372Y-84433598D01*
X120587379Y-84433596D01*
X120722086Y-84383354D01*
X120722093Y-84383350D01*
X120837187Y-84297190D01*
X120837190Y-84297187D01*
X120923350Y-84182093D01*
X120923354Y-84182086D01*
X120973596Y-84047379D01*
X120973598Y-84047372D01*
X120979999Y-83987844D01*
X120980000Y-83987827D01*
X120980000Y-83777500D01*
X119630000Y-83777500D01*
X119630000Y-84440000D01*
X119130000Y-84440000D01*
X119130000Y-83777500D01*
X117780000Y-83777500D01*
X117780000Y-83987844D01*
X117109743Y-83987844D01*
X117094597Y-83834061D01*
X117094000Y-83821907D01*
X117094000Y-83067155D01*
X117780000Y-83067155D01*
X117780000Y-83277500D01*
X119130000Y-83277500D01*
X119630000Y-83277500D01*
X120980000Y-83277500D01*
X120980000Y-83067172D01*
X120979999Y-83067155D01*
X120973598Y-83007627D01*
X120973596Y-83007620D01*
X120923354Y-82872913D01*
X120923350Y-82872906D01*
X120837190Y-82757812D01*
X120837187Y-82757809D01*
X120722093Y-82671649D01*
X120722086Y-82671645D01*
X120587379Y-82621403D01*
X120587372Y-82621401D01*
X120527844Y-82615000D01*
X119630000Y-82615000D01*
X119630000Y-83277500D01*
X119130000Y-83277500D01*
X119130000Y-82615000D01*
X118232155Y-82615000D01*
X118172627Y-82621401D01*
X118172620Y-82621403D01*
X118037913Y-82671645D01*
X118037906Y-82671649D01*
X117922812Y-82757809D01*
X117922809Y-82757812D01*
X117836649Y-82872906D01*
X117836645Y-82872913D01*
X117786403Y-83007620D01*
X117786401Y-83007627D01*
X117780000Y-83067155D01*
X117094000Y-83067155D01*
X117094000Y-83048092D01*
X117094597Y-83035938D01*
X117112018Y-82859056D01*
X117116757Y-82835232D01*
X117166577Y-82670994D01*
X117175875Y-82648549D01*
X117256775Y-82497195D01*
X117270272Y-82476995D01*
X117379149Y-82344328D01*
X117396328Y-82327149D01*
X117528995Y-82218272D01*
X117549195Y-82204775D01*
X117700549Y-82123875D01*
X117722994Y-82114577D01*
X117887232Y-82064757D01*
X117911056Y-82060018D01*
X118087939Y-82042597D01*
X118100093Y-82042000D01*
X121421907Y-82042000D01*
X121434061Y-82042597D01*
G37*
%TD.AperFunction*%
%TD*%
%TA.AperFunction,Conductor*%
%TO.N,Net-(D1-OUTH)*%
G36*
X126558039Y-103479685D02*
G01*
X126603794Y-103532489D01*
X126615000Y-103584000D01*
X126615000Y-105031310D01*
X126612399Y-105031310D01*
X126612656Y-105067478D01*
X126581115Y-105121070D01*
X125715186Y-105987000D01*
X125622002Y-106080183D01*
X125622000Y-106080186D01*
X125556108Y-106194314D01*
X125544302Y-106238374D01*
X125530497Y-106289895D01*
X125494131Y-106349556D01*
X125454056Y-106373983D01*
X125367669Y-106406203D01*
X125367664Y-106406206D01*
X125252455Y-106492452D01*
X125252452Y-106492455D01*
X125166206Y-106607664D01*
X125166202Y-106607671D01*
X125115908Y-106742517D01*
X125109542Y-106801735D01*
X125109501Y-106802123D01*
X125109500Y-106802135D01*
X125109500Y-109097870D01*
X125109501Y-109097876D01*
X125115908Y-109157483D01*
X125166202Y-109292328D01*
X125166206Y-109292335D01*
X125252452Y-109407544D01*
X125252453Y-109407544D01*
X125252454Y-109407546D01*
X125299961Y-109443110D01*
X125301229Y-109444059D01*
X125343099Y-109499993D01*
X125347648Y-109563612D01*
X125348667Y-109563736D01*
X125348031Y-109568967D01*
X125348083Y-109569684D01*
X125347792Y-109570935D01*
X125328722Y-109727999D01*
X125328722Y-109728000D01*
X125347762Y-109884818D01*
X125390401Y-109997245D01*
X125395768Y-110066908D01*
X125362621Y-110128414D01*
X125336939Y-110148325D01*
X124324940Y-110738658D01*
X124313648Y-110745645D01*
X124302821Y-110752743D01*
X124291895Y-110760321D01*
X124258365Y-110784889D01*
X124258364Y-110784890D01*
X124236253Y-110803083D01*
X124236225Y-110803108D01*
X124215930Y-110821811D01*
X124214865Y-110822796D01*
X124214859Y-110822804D01*
X124156560Y-110903650D01*
X124156554Y-110903659D01*
X124127529Y-110967217D01*
X124119258Y-110990662D01*
X124099834Y-111017596D01*
X123698000Y-111252000D01*
X123698000Y-111464963D01*
X123672138Y-111470008D01*
X123607215Y-111444185D01*
X123584382Y-111420854D01*
X123537186Y-111357808D01*
X123422093Y-111271649D01*
X123422086Y-111271645D01*
X123287379Y-111221403D01*
X123287372Y-111221401D01*
X123227844Y-111215000D01*
X122805000Y-111215000D01*
X122805000Y-112241000D01*
X122785315Y-112308039D01*
X122732511Y-112353794D01*
X122681000Y-112365000D01*
X121430000Y-112365000D01*
X121430000Y-112562844D01*
X121436401Y-112622372D01*
X121436403Y-112622379D01*
X121486645Y-112757086D01*
X121486649Y-112757093D01*
X121542492Y-112831689D01*
X121566910Y-112897153D01*
X121552059Y-112965426D01*
X121502654Y-113014832D01*
X121443226Y-113030000D01*
X121126774Y-113030000D01*
X121059735Y-113010315D01*
X121013980Y-112957511D01*
X121004036Y-112888353D01*
X121027508Y-112831689D01*
X121083350Y-112757093D01*
X121083354Y-112757086D01*
X121133596Y-112622379D01*
X121133598Y-112622372D01*
X121139999Y-112562844D01*
X121140000Y-112562827D01*
X121140000Y-112365000D01*
X118890000Y-112365000D01*
X118890000Y-112562844D01*
X118896401Y-112622372D01*
X118896403Y-112622379D01*
X118946645Y-112757086D01*
X118946649Y-112757093D01*
X119002492Y-112831689D01*
X119026910Y-112897153D01*
X119012059Y-112965426D01*
X118962654Y-113014832D01*
X118903226Y-113030000D01*
X118586774Y-113030000D01*
X118519735Y-113010315D01*
X118473980Y-112957511D01*
X118464036Y-112888353D01*
X118487508Y-112831689D01*
X118543350Y-112757093D01*
X118543354Y-112757086D01*
X118593596Y-112622379D01*
X118593598Y-112622372D01*
X118599999Y-112562844D01*
X118600000Y-112562827D01*
X118600000Y-112365000D01*
X117349000Y-112365000D01*
X117281961Y-112345315D01*
X117236206Y-112292511D01*
X117225000Y-112241000D01*
X117225000Y-111865000D01*
X117725000Y-111865000D01*
X118600000Y-111865000D01*
X118600000Y-111667172D01*
X118599999Y-111667155D01*
X118890000Y-111667155D01*
X118890000Y-111865000D01*
X119765000Y-111865000D01*
X120265000Y-111865000D01*
X121140000Y-111865000D01*
X121140000Y-111667172D01*
X121139999Y-111667155D01*
X121430000Y-111667155D01*
X121430000Y-111865000D01*
X122305000Y-111865000D01*
X122305000Y-111215000D01*
X121882155Y-111215000D01*
X121822627Y-111221401D01*
X121822620Y-111221403D01*
X121687913Y-111271645D01*
X121687906Y-111271649D01*
X121572812Y-111357809D01*
X121572809Y-111357812D01*
X121486649Y-111472906D01*
X121486645Y-111472913D01*
X121436403Y-111607620D01*
X121436401Y-111607627D01*
X121430000Y-111667155D01*
X121139999Y-111667155D01*
X121133598Y-111607627D01*
X121133596Y-111607620D01*
X121083354Y-111472913D01*
X121083350Y-111472906D01*
X120997190Y-111357812D01*
X120997187Y-111357809D01*
X120882093Y-111271649D01*
X120882086Y-111271645D01*
X120747379Y-111221403D01*
X120747372Y-111221401D01*
X120687844Y-111215000D01*
X120265000Y-111215000D01*
X120265000Y-111865000D01*
X119765000Y-111865000D01*
X119765000Y-111215000D01*
X119342155Y-111215000D01*
X119282627Y-111221401D01*
X119282620Y-111221403D01*
X119147913Y-111271645D01*
X119147906Y-111271649D01*
X119032812Y-111357809D01*
X119032809Y-111357812D01*
X118946649Y-111472906D01*
X118946645Y-111472913D01*
X118896403Y-111607620D01*
X118896401Y-111607627D01*
X118890000Y-111667155D01*
X118599999Y-111667155D01*
X118593598Y-111607627D01*
X118593596Y-111607620D01*
X118543354Y-111472913D01*
X118543350Y-111472906D01*
X118457190Y-111357812D01*
X118457187Y-111357809D01*
X118342093Y-111271649D01*
X118342086Y-111271645D01*
X118207379Y-111221403D01*
X118207372Y-111221401D01*
X118147844Y-111215000D01*
X117725000Y-111215000D01*
X117725000Y-111865000D01*
X117225000Y-111865000D01*
X117225000Y-111215000D01*
X116836946Y-111215000D01*
X116769907Y-111195315D01*
X116724152Y-111142511D01*
X116714208Y-111073353D01*
X116743233Y-111009797D01*
X116757796Y-110995547D01*
X116759947Y-110993763D01*
X116762525Y-110991626D01*
X116782555Y-110978080D01*
X116932584Y-110896722D01*
X116954842Y-110887331D01*
X117123626Y-110834816D01*
X117135307Y-110831798D01*
X122900606Y-109638978D01*
X122900611Y-109638977D01*
X122900613Y-109638976D01*
X123328253Y-109550499D01*
X123357872Y-109550499D01*
X123417483Y-109544091D01*
X123490062Y-109517020D01*
X123698000Y-109474000D01*
X123698000Y-109366864D01*
X123753796Y-109292331D01*
X123804091Y-109157483D01*
X123810500Y-109097873D01*
X123810499Y-106802128D01*
X123804091Y-106742517D01*
X123775281Y-106665275D01*
X123770298Y-106595586D01*
X123782133Y-106563440D01*
X123798530Y-106532802D01*
X123820167Y-106503644D01*
X124288763Y-106035048D01*
X124307640Y-106019572D01*
X125538700Y-105198867D01*
X125538702Y-105198865D01*
X125972089Y-104909940D01*
X125975413Y-104911521D01*
X125976951Y-104912638D01*
X126089854Y-104970165D01*
X126114998Y-104974147D01*
X126115000Y-104974146D01*
X126115000Y-103584000D01*
X126134685Y-103516961D01*
X126187489Y-103471206D01*
X126239000Y-103460000D01*
X126491000Y-103460000D01*
X126558039Y-103479685D01*
G37*
%TD.AperFunction*%
%TD*%
%TA.AperFunction,Conductor*%
%TO.N,GND*%
G36*
X154434061Y-82000597D02*
G01*
X154610941Y-82018018D01*
X154634769Y-82022757D01*
X154799001Y-82072576D01*
X154821453Y-82081877D01*
X154972798Y-82162772D01*
X154993010Y-82176277D01*
X155125666Y-82285145D01*
X155142854Y-82302333D01*
X155251722Y-82434989D01*
X155265227Y-82455201D01*
X155346121Y-82606543D01*
X155355424Y-82629001D01*
X155405240Y-82793224D01*
X155409982Y-82817065D01*
X155427403Y-82993938D01*
X155428000Y-83006092D01*
X155428000Y-83779907D01*
X155427403Y-83792061D01*
X155409982Y-83968934D01*
X155405240Y-83992775D01*
X155355424Y-84156998D01*
X155346121Y-84179456D01*
X155265227Y-84330798D01*
X155251722Y-84351010D01*
X155142854Y-84483666D01*
X155125666Y-84500854D01*
X154993010Y-84609722D01*
X154972798Y-84623227D01*
X154821456Y-84704121D01*
X154798998Y-84713424D01*
X154634775Y-84763240D01*
X154610934Y-84767982D01*
X154434061Y-84785403D01*
X154421907Y-84786000D01*
X151100093Y-84786000D01*
X151087939Y-84785403D01*
X150911065Y-84767982D01*
X150887224Y-84763240D01*
X150723001Y-84713424D01*
X150700543Y-84704121D01*
X150549201Y-84623227D01*
X150528989Y-84609722D01*
X150396333Y-84500854D01*
X150379145Y-84483666D01*
X150270277Y-84351010D01*
X150256772Y-84330798D01*
X150175878Y-84179456D01*
X150166575Y-84156998D01*
X150133321Y-84047372D01*
X150116757Y-83992769D01*
X150115777Y-83987844D01*
X150800000Y-83987844D01*
X150806401Y-84047372D01*
X150806403Y-84047379D01*
X150856645Y-84182086D01*
X150856649Y-84182093D01*
X150942809Y-84297187D01*
X150942812Y-84297190D01*
X151057906Y-84383350D01*
X151057913Y-84383354D01*
X151192620Y-84433596D01*
X151192627Y-84433598D01*
X151252155Y-84439999D01*
X151252172Y-84440000D01*
X152150000Y-84440000D01*
X152650000Y-84440000D01*
X153547828Y-84440000D01*
X153547844Y-84439999D01*
X153607372Y-84433598D01*
X153607379Y-84433596D01*
X153742086Y-84383354D01*
X153742093Y-84383350D01*
X153857187Y-84297190D01*
X153857190Y-84297187D01*
X153943350Y-84182093D01*
X153943354Y-84182086D01*
X153993596Y-84047379D01*
X153993598Y-84047372D01*
X153999999Y-83987844D01*
X154000000Y-83987827D01*
X154000000Y-83777500D01*
X152650000Y-83777500D01*
X152650000Y-84440000D01*
X152150000Y-84440000D01*
X152150000Y-83777500D01*
X150800000Y-83777500D01*
X150800000Y-83987844D01*
X150115777Y-83987844D01*
X150112018Y-83968941D01*
X150094597Y-83792061D01*
X150094000Y-83779907D01*
X150094000Y-83067155D01*
X150800000Y-83067155D01*
X150800000Y-83277500D01*
X152150000Y-83277500D01*
X152650000Y-83277500D01*
X154000000Y-83277500D01*
X154000000Y-83067172D01*
X153999999Y-83067155D01*
X153993598Y-83007627D01*
X153993596Y-83007620D01*
X153943354Y-82872913D01*
X153943350Y-82872906D01*
X153857190Y-82757812D01*
X153857187Y-82757809D01*
X153742093Y-82671649D01*
X153742086Y-82671645D01*
X153607379Y-82621403D01*
X153607372Y-82621401D01*
X153547844Y-82615000D01*
X152650000Y-82615000D01*
X152650000Y-83277500D01*
X152150000Y-83277500D01*
X152150000Y-82615000D01*
X151252155Y-82615000D01*
X151192627Y-82621401D01*
X151192620Y-82621403D01*
X151057913Y-82671645D01*
X151057906Y-82671649D01*
X150942812Y-82757809D01*
X150942809Y-82757812D01*
X150856649Y-82872906D01*
X150856645Y-82872913D01*
X150806403Y-83007620D01*
X150806401Y-83007627D01*
X150800000Y-83067155D01*
X150094000Y-83067155D01*
X150094000Y-83006092D01*
X150094597Y-82993938D01*
X150106517Y-82872913D01*
X150112018Y-82817056D01*
X150116757Y-82793232D01*
X150166577Y-82628994D01*
X150175875Y-82606549D01*
X150256775Y-82455195D01*
X150270272Y-82434995D01*
X150379149Y-82302328D01*
X150396328Y-82285149D01*
X150528995Y-82176272D01*
X150549195Y-82162775D01*
X150700549Y-82081875D01*
X150722994Y-82072577D01*
X150887232Y-82022757D01*
X150911056Y-82018018D01*
X151087939Y-82000597D01*
X151100093Y-82000000D01*
X154421907Y-82000000D01*
X154434061Y-82000597D01*
G37*
%TD.AperFunction*%
%TD*%
%TA.AperFunction,Conductor*%
%TO.N,+15V*%
G36*
X177817113Y-111271685D02*
G01*
X177862868Y-111324489D01*
X177872812Y-111393647D01*
X177843787Y-111457203D01*
X177822959Y-111476318D01*
X177765831Y-111517823D01*
X177765826Y-111517827D01*
X177637823Y-111645830D01*
X177531434Y-111792265D01*
X177449252Y-111953552D01*
X177449250Y-111953558D01*
X177393318Y-112125704D01*
X177393315Y-112125714D01*
X177390261Y-112145000D01*
X178316518Y-112145000D01*
X178305889Y-112163409D01*
X178265000Y-112316009D01*
X178265000Y-112473991D01*
X178305889Y-112626591D01*
X178316518Y-112645000D01*
X177390261Y-112645000D01*
X177393315Y-112664285D01*
X177393318Y-112664295D01*
X177449250Y-112836441D01*
X177449252Y-112836447D01*
X177531434Y-112997734D01*
X177637823Y-113144169D01*
X177765830Y-113272176D01*
X177912265Y-113378565D01*
X178073552Y-113460747D01*
X178073555Y-113460748D01*
X178245706Y-113516682D01*
X178424494Y-113545000D01*
X178615000Y-113545000D01*
X178615000Y-112943482D01*
X178633409Y-112954111D01*
X178786009Y-112995000D01*
X178943991Y-112995000D01*
X179096591Y-112954111D01*
X179115000Y-112943482D01*
X179115000Y-113545000D01*
X179305506Y-113545000D01*
X179484293Y-113516682D01*
X179656444Y-113460748D01*
X179656447Y-113460747D01*
X179817734Y-113378565D01*
X179964169Y-113272176D01*
X179964173Y-113272172D01*
X180001319Y-113235027D01*
X180062642Y-113201542D01*
X180132334Y-113206526D01*
X180188267Y-113248398D01*
X180212684Y-113313862D01*
X180213000Y-113322708D01*
X180213000Y-114055907D01*
X180212403Y-114068061D01*
X180194982Y-114244934D01*
X180190240Y-114268775D01*
X180140424Y-114432998D01*
X180131121Y-114455456D01*
X180050227Y-114606798D01*
X180036722Y-114627010D01*
X179927854Y-114759666D01*
X179910666Y-114776854D01*
X179778010Y-114885722D01*
X179757798Y-114899227D01*
X179606456Y-114980121D01*
X179583998Y-114989424D01*
X179419775Y-115039240D01*
X179395934Y-115043982D01*
X179219061Y-115061403D01*
X179206907Y-115062000D01*
X168900093Y-115062000D01*
X168887939Y-115061403D01*
X168711065Y-115043982D01*
X168687224Y-115039240D01*
X168523001Y-114989424D01*
X168500543Y-114980121D01*
X168349201Y-114899227D01*
X168328989Y-114885722D01*
X168196333Y-114776854D01*
X168179145Y-114759666D01*
X168070277Y-114627010D01*
X168056772Y-114606798D01*
X168053240Y-114600190D01*
X167975877Y-114455453D01*
X167966575Y-114432998D01*
X167923453Y-114290844D01*
X169215000Y-114290844D01*
X169221401Y-114350372D01*
X169221403Y-114350379D01*
X169271645Y-114485086D01*
X169271649Y-114485093D01*
X169357809Y-114600187D01*
X169357812Y-114600190D01*
X169472906Y-114686350D01*
X169472913Y-114686354D01*
X169607620Y-114736596D01*
X169607627Y-114736598D01*
X169667155Y-114742999D01*
X169667172Y-114743000D01*
X170565000Y-114743000D01*
X171065000Y-114743000D01*
X171962828Y-114743000D01*
X171962844Y-114742999D01*
X172022372Y-114736598D01*
X172022379Y-114736596D01*
X172157086Y-114686354D01*
X172157093Y-114686350D01*
X172272187Y-114600190D01*
X172272190Y-114600187D01*
X172358350Y-114485093D01*
X172358354Y-114485086D01*
X172408596Y-114350379D01*
X172408598Y-114350372D01*
X172414999Y-114290844D01*
X172415000Y-114290827D01*
X172415000Y-114080500D01*
X171065000Y-114080500D01*
X171065000Y-114743000D01*
X170565000Y-114743000D01*
X170565000Y-114080500D01*
X169215000Y-114080500D01*
X169215000Y-114290844D01*
X167923453Y-114290844D01*
X167916757Y-114268769D01*
X167912018Y-114244941D01*
X167894597Y-114068061D01*
X167894000Y-114055907D01*
X167894000Y-113370155D01*
X169215000Y-113370155D01*
X169215000Y-113580500D01*
X170565000Y-113580500D01*
X171065000Y-113580500D01*
X172415000Y-113580500D01*
X172415000Y-113370172D01*
X172414999Y-113370155D01*
X172408598Y-113310627D01*
X172408596Y-113310620D01*
X172358354Y-113175913D01*
X172358350Y-113175906D01*
X172272190Y-113060812D01*
X172272187Y-113060809D01*
X172157093Y-112974649D01*
X172157086Y-112974645D01*
X172022379Y-112924403D01*
X172022372Y-112924401D01*
X171962844Y-112918000D01*
X171065000Y-112918000D01*
X171065000Y-113580500D01*
X170565000Y-113580500D01*
X170565000Y-112918000D01*
X169667155Y-112918000D01*
X169607627Y-112924401D01*
X169607620Y-112924403D01*
X169472913Y-112974645D01*
X169472906Y-112974649D01*
X169357812Y-113060809D01*
X169357809Y-113060812D01*
X169271649Y-113175906D01*
X169271645Y-113175913D01*
X169221403Y-113310620D01*
X169221401Y-113310627D01*
X169215000Y-113370155D01*
X167894000Y-113370155D01*
X167894000Y-112912755D01*
X167895524Y-112893371D01*
X167909576Y-112804652D01*
X167921560Y-112767771D01*
X167957851Y-112696546D01*
X167980648Y-112665170D01*
X168037170Y-112608648D01*
X168068546Y-112585851D01*
X168139771Y-112549560D01*
X168176654Y-112537576D01*
X168265369Y-112523525D01*
X168284756Y-112522000D01*
X172846993Y-112522000D01*
X172847000Y-112522000D01*
X173482000Y-112522000D01*
X173482000Y-111887000D01*
X173501506Y-111738835D01*
X173509884Y-111707568D01*
X173560827Y-111584581D01*
X173577012Y-111556548D01*
X173658053Y-111450932D01*
X173680932Y-111428053D01*
X173786549Y-111347010D01*
X173814579Y-111330827D01*
X173937569Y-111279883D01*
X173968835Y-111271506D01*
X174108941Y-111253061D01*
X174125126Y-111252000D01*
X177750074Y-111252000D01*
X177817113Y-111271685D01*
G37*
%TD.AperFunction*%
%TD*%
%TA.AperFunction,Conductor*%
%TO.N,Net-(D2-OUTH)*%
G36*
X137988039Y-103479685D02*
G01*
X138033794Y-103532489D01*
X138045000Y-103584000D01*
X138045000Y-105031310D01*
X138042399Y-105031310D01*
X138042656Y-105067478D01*
X138011115Y-105121070D01*
X137145186Y-105987000D01*
X137052002Y-106080183D01*
X137052000Y-106080186D01*
X136986109Y-106194312D01*
X136960497Y-106289895D01*
X136924131Y-106349556D01*
X136884056Y-106373983D01*
X136797669Y-106406203D01*
X136797664Y-106406206D01*
X136682455Y-106492452D01*
X136682452Y-106492455D01*
X136596206Y-106607664D01*
X136596202Y-106607671D01*
X136545908Y-106742517D01*
X136539501Y-106802116D01*
X136539500Y-106802135D01*
X136539500Y-109097870D01*
X136539501Y-109097876D01*
X136545908Y-109157483D01*
X136596202Y-109292328D01*
X136596206Y-109292335D01*
X136682452Y-109407544D01*
X136682453Y-109407544D01*
X136682454Y-109407546D01*
X136711611Y-109429373D01*
X136731229Y-109444059D01*
X136773099Y-109499993D01*
X136777648Y-109563612D01*
X136778667Y-109563736D01*
X136778031Y-109568967D01*
X136778083Y-109569684D01*
X136777792Y-109570935D01*
X136758722Y-109727999D01*
X136758722Y-109728000D01*
X136777762Y-109884818D01*
X136788418Y-109912914D01*
X136833780Y-110032523D01*
X136923517Y-110162530D01*
X137041760Y-110267283D01*
X137041762Y-110267284D01*
X137181634Y-110340696D01*
X137335014Y-110378500D01*
X137335015Y-110378500D01*
X137492985Y-110378500D01*
X137646365Y-110340696D01*
X137786240Y-110267283D01*
X137904483Y-110162530D01*
X137994220Y-110032523D01*
X138050237Y-109884818D01*
X138069278Y-109728000D01*
X138057997Y-109635094D01*
X138069457Y-109566173D01*
X138116361Y-109514386D01*
X138183817Y-109496179D01*
X138199198Y-109501064D01*
X138855957Y-110267284D01*
X139455678Y-110966958D01*
X139462447Y-110975603D01*
X139555663Y-111106161D01*
X139566782Y-111125073D01*
X139609002Y-111214085D01*
X139619947Y-111283092D01*
X139591846Y-111347062D01*
X139533621Y-111385684D01*
X139463759Y-111386697D01*
X139420528Y-111361468D01*
X139419288Y-111363125D01*
X139297093Y-111271649D01*
X139297086Y-111271645D01*
X139162379Y-111221403D01*
X139162372Y-111221401D01*
X139102844Y-111215000D01*
X138680000Y-111215000D01*
X138680000Y-112241000D01*
X138660315Y-112308039D01*
X138607511Y-112353794D01*
X138556000Y-112365000D01*
X137305000Y-112365000D01*
X137305000Y-112562844D01*
X137311401Y-112622372D01*
X137311403Y-112622379D01*
X137361645Y-112757086D01*
X137361649Y-112757093D01*
X137417492Y-112831689D01*
X137441910Y-112897153D01*
X137427059Y-112965426D01*
X137377654Y-113014832D01*
X137318226Y-113030000D01*
X137001774Y-113030000D01*
X136934735Y-113010315D01*
X136888980Y-112957511D01*
X136879036Y-112888353D01*
X136902508Y-112831689D01*
X136958350Y-112757093D01*
X136958354Y-112757086D01*
X137008596Y-112622379D01*
X137008598Y-112622372D01*
X137014999Y-112562844D01*
X137015000Y-112562827D01*
X137015000Y-112365000D01*
X134765000Y-112365000D01*
X134765000Y-112562844D01*
X134771401Y-112622372D01*
X134771403Y-112622379D01*
X134821645Y-112757086D01*
X134821649Y-112757093D01*
X134877492Y-112831689D01*
X134901910Y-112897153D01*
X134887059Y-112965426D01*
X134837654Y-113014832D01*
X134778226Y-113030000D01*
X134461774Y-113030000D01*
X134394735Y-113010315D01*
X134348980Y-112957511D01*
X134339036Y-112888353D01*
X134362508Y-112831689D01*
X134418350Y-112757093D01*
X134418354Y-112757086D01*
X134468596Y-112622379D01*
X134468598Y-112622372D01*
X134474999Y-112562844D01*
X134475000Y-112562827D01*
X134475000Y-112365000D01*
X133224000Y-112365000D01*
X133156961Y-112345315D01*
X133111206Y-112292511D01*
X133100000Y-112241000D01*
X133100000Y-111865000D01*
X133600000Y-111865000D01*
X134475000Y-111865000D01*
X134475000Y-111667172D01*
X134474999Y-111667155D01*
X134765000Y-111667155D01*
X134765000Y-111865000D01*
X135640000Y-111865000D01*
X136140000Y-111865000D01*
X137015000Y-111865000D01*
X137015000Y-111667172D01*
X137014999Y-111667155D01*
X137305000Y-111667155D01*
X137305000Y-111865000D01*
X138180000Y-111865000D01*
X138180000Y-111215000D01*
X137757155Y-111215000D01*
X137697627Y-111221401D01*
X137697620Y-111221403D01*
X137562913Y-111271645D01*
X137562906Y-111271649D01*
X137447812Y-111357809D01*
X137447809Y-111357812D01*
X137361649Y-111472906D01*
X137361645Y-111472913D01*
X137311403Y-111607620D01*
X137311401Y-111607627D01*
X137305000Y-111667155D01*
X137014999Y-111667155D01*
X137008598Y-111607627D01*
X137008596Y-111607620D01*
X136958354Y-111472913D01*
X136958350Y-111472906D01*
X136872190Y-111357812D01*
X136872187Y-111357809D01*
X136757093Y-111271649D01*
X136757086Y-111271645D01*
X136622379Y-111221403D01*
X136622372Y-111221401D01*
X136562844Y-111215000D01*
X136140000Y-111215000D01*
X136140000Y-111865000D01*
X135640000Y-111865000D01*
X135640000Y-111215000D01*
X135217155Y-111215000D01*
X135157627Y-111221401D01*
X135157620Y-111221403D01*
X135022913Y-111271645D01*
X135022906Y-111271649D01*
X134907812Y-111357809D01*
X134907809Y-111357812D01*
X134821649Y-111472906D01*
X134821645Y-111472913D01*
X134771403Y-111607620D01*
X134771401Y-111607627D01*
X134765000Y-111667155D01*
X134474999Y-111667155D01*
X134468598Y-111607627D01*
X134468596Y-111607620D01*
X134418354Y-111472913D01*
X134418350Y-111472906D01*
X134332190Y-111357812D01*
X134332187Y-111357809D01*
X134217093Y-111271649D01*
X134217086Y-111271645D01*
X134082379Y-111221403D01*
X134082372Y-111221401D01*
X134022844Y-111215000D01*
X133600000Y-111215000D01*
X133600000Y-111865000D01*
X133100000Y-111865000D01*
X133100000Y-111215000D01*
X132677155Y-111215000D01*
X132617627Y-111221401D01*
X132617620Y-111221403D01*
X132482913Y-111271645D01*
X132482906Y-111271649D01*
X132367813Y-111357808D01*
X132364435Y-111361187D01*
X132303110Y-111394669D01*
X132233418Y-111389681D01*
X132177487Y-111347806D01*
X132153073Y-111282341D01*
X132165719Y-111218308D01*
X132224244Y-111100571D01*
X132236252Y-111081144D01*
X132333345Y-110952314D01*
X132348712Y-110935418D01*
X132467813Y-110826573D01*
X132486004Y-110812797D01*
X132627940Y-110724617D01*
X132637898Y-110719050D01*
X134575214Y-109750393D01*
X135128000Y-109474000D01*
X135128000Y-109366864D01*
X135183796Y-109292331D01*
X135234091Y-109157483D01*
X135240500Y-109097873D01*
X135240499Y-106818673D01*
X135260184Y-106751635D01*
X135276813Y-106730998D01*
X136480762Y-105527049D01*
X136499639Y-105511573D01*
X136968700Y-105198867D01*
X136968702Y-105198865D01*
X137402089Y-104909940D01*
X137405413Y-104911521D01*
X137406951Y-104912638D01*
X137519854Y-104970165D01*
X137544998Y-104974147D01*
X137545000Y-104974146D01*
X137545000Y-103584000D01*
X137564685Y-103516961D01*
X137617489Y-103471206D01*
X137669000Y-103460000D01*
X137921000Y-103460000D01*
X137988039Y-103479685D01*
G37*
%TD.AperFunction*%
%TD*%
%TA.AperFunction,Conductor*%
%TO.N,GND*%
G36*
X172474058Y-107443061D02*
G01*
X172484100Y-107444383D01*
X172581296Y-107457179D01*
X172612561Y-107465556D01*
X172704915Y-107503810D01*
X172732949Y-107519996D01*
X172812258Y-107580853D01*
X172835146Y-107603741D01*
X172896003Y-107683050D01*
X172912189Y-107711085D01*
X172950442Y-107803437D01*
X172958820Y-107834703D01*
X172974000Y-107950000D01*
X172974000Y-108458000D01*
X178367344Y-108458000D01*
X178386742Y-108459527D01*
X178407281Y-108462780D01*
X178470415Y-108492709D01*
X178507347Y-108552020D01*
X178506349Y-108621883D01*
X178467740Y-108680116D01*
X178407281Y-108707726D01*
X178245706Y-108733317D01*
X178073555Y-108789251D01*
X178073552Y-108789252D01*
X177912265Y-108871434D01*
X177765830Y-108977823D01*
X177637823Y-109105830D01*
X177531434Y-109252265D01*
X177449252Y-109413552D01*
X177449250Y-109413558D01*
X177393318Y-109585704D01*
X177393315Y-109585714D01*
X177390261Y-109605000D01*
X178316518Y-109605000D01*
X178305889Y-109623409D01*
X178265000Y-109776009D01*
X178265000Y-109933991D01*
X178305889Y-110086591D01*
X178316518Y-110105000D01*
X177390261Y-110105000D01*
X177393315Y-110124285D01*
X177393318Y-110124295D01*
X177449250Y-110296441D01*
X177449252Y-110296447D01*
X177531431Y-110457730D01*
X177598189Y-110549615D01*
X177621668Y-110615422D01*
X177605842Y-110683476D01*
X177555736Y-110732170D01*
X177497870Y-110746500D01*
X174125126Y-110746500D01*
X174092059Y-110747583D01*
X174075858Y-110748645D01*
X174042956Y-110751885D01*
X173902862Y-110770329D01*
X173902860Y-110770329D01*
X173902855Y-110770330D01*
X173877419Y-110775389D01*
X173838019Y-110783226D01*
X173838000Y-110783230D01*
X173806755Y-110791602D01*
X173806724Y-110791611D01*
X173744126Y-110812860D01*
X173744112Y-110812865D01*
X173621142Y-110863801D01*
X173561822Y-110893054D01*
X173533802Y-110909231D01*
X173533801Y-110909232D01*
X173478817Y-110945971D01*
X173478815Y-110945972D01*
X173411012Y-110998000D01*
X172974000Y-110998000D01*
X172974000Y-111633000D01*
X172974000Y-111633001D01*
X172954493Y-111781164D01*
X172946115Y-111812431D01*
X172895172Y-111935418D01*
X172879006Y-111963426D01*
X172875528Y-111967961D01*
X172819111Y-112009179D01*
X172777133Y-112016500D01*
X168284745Y-112016500D01*
X168245125Y-112018056D01*
X168225724Y-112019582D01*
X168186291Y-112024247D01*
X168097574Y-112038299D01*
X168054977Y-112048526D01*
X167985195Y-112045035D01*
X167928378Y-112004371D01*
X167903558Y-111947349D01*
X167895527Y-111896641D01*
X167894000Y-111877244D01*
X167894000Y-111165844D01*
X169215000Y-111165844D01*
X169221401Y-111225372D01*
X169221403Y-111225379D01*
X169271645Y-111360086D01*
X169271649Y-111360093D01*
X169357809Y-111475187D01*
X169357812Y-111475190D01*
X169472906Y-111561350D01*
X169472913Y-111561354D01*
X169607620Y-111611596D01*
X169607627Y-111611598D01*
X169667155Y-111617999D01*
X169667172Y-111618000D01*
X170565000Y-111618000D01*
X171065000Y-111618000D01*
X171962828Y-111618000D01*
X171962844Y-111617999D01*
X172022372Y-111611598D01*
X172022379Y-111611596D01*
X172157086Y-111561354D01*
X172157093Y-111561350D01*
X172272187Y-111475190D01*
X172272190Y-111475187D01*
X172358350Y-111360093D01*
X172358354Y-111360086D01*
X172408596Y-111225379D01*
X172408598Y-111225372D01*
X172414999Y-111165844D01*
X172415000Y-111165827D01*
X172415000Y-110955500D01*
X171065000Y-110955500D01*
X171065000Y-111618000D01*
X170565000Y-111618000D01*
X170565000Y-110955500D01*
X169215000Y-110955500D01*
X169215000Y-111165844D01*
X167894000Y-111165844D01*
X167894000Y-109210844D01*
X169215000Y-109210844D01*
X169221401Y-109270372D01*
X169221403Y-109270379D01*
X169271645Y-109405086D01*
X169271649Y-109405093D01*
X169357809Y-109520187D01*
X169357812Y-109520190D01*
X169472906Y-109606350D01*
X169472911Y-109606353D01*
X169487563Y-109611818D01*
X169543496Y-109653690D01*
X169567913Y-109719154D01*
X169553061Y-109787427D01*
X169503656Y-109836832D01*
X169487563Y-109844182D01*
X169472911Y-109849646D01*
X169472906Y-109849649D01*
X169357812Y-109935809D01*
X169357809Y-109935812D01*
X169271649Y-110050906D01*
X169271645Y-110050913D01*
X169221403Y-110185620D01*
X169221401Y-110185627D01*
X169215000Y-110245155D01*
X169215000Y-110455500D01*
X172415000Y-110455500D01*
X172415000Y-110245172D01*
X172414999Y-110245155D01*
X172408598Y-110185627D01*
X172408596Y-110185620D01*
X172358354Y-110050913D01*
X172358350Y-110050906D01*
X172272190Y-109935812D01*
X172272187Y-109935809D01*
X172157093Y-109849649D01*
X172157084Y-109849644D01*
X172142438Y-109844182D01*
X172086504Y-109802312D01*
X172062086Y-109736848D01*
X172076937Y-109668575D01*
X172126342Y-109619169D01*
X172142438Y-109611818D01*
X172157084Y-109606355D01*
X172157093Y-109606350D01*
X172272187Y-109520190D01*
X172272190Y-109520187D01*
X172358350Y-109405093D01*
X172358354Y-109405086D01*
X172408596Y-109270379D01*
X172408598Y-109270372D01*
X172414999Y-109210844D01*
X172415000Y-109210827D01*
X172415000Y-109000500D01*
X169215000Y-109000500D01*
X169215000Y-109210844D01*
X167894000Y-109210844D01*
X167894000Y-108290155D01*
X169215000Y-108290155D01*
X169215000Y-108500500D01*
X170565000Y-108500500D01*
X171065000Y-108500500D01*
X172415000Y-108500500D01*
X172415000Y-108290172D01*
X172414999Y-108290155D01*
X172408598Y-108230627D01*
X172408596Y-108230620D01*
X172358354Y-108095913D01*
X172358350Y-108095906D01*
X172272190Y-107980812D01*
X172272187Y-107980809D01*
X172157093Y-107894649D01*
X172157086Y-107894645D01*
X172022379Y-107844403D01*
X172022372Y-107844401D01*
X171962844Y-107838000D01*
X171065000Y-107838000D01*
X171065000Y-108500500D01*
X170565000Y-108500500D01*
X170565000Y-107838000D01*
X169667155Y-107838000D01*
X169607627Y-107844401D01*
X169607620Y-107844403D01*
X169472913Y-107894645D01*
X169472906Y-107894649D01*
X169357812Y-107980809D01*
X169357809Y-107980812D01*
X169271649Y-108095906D01*
X169271645Y-108095913D01*
X169221403Y-108230620D01*
X169221401Y-108230627D01*
X169215000Y-108290155D01*
X167894000Y-108290155D01*
X167894000Y-107708212D01*
X167896383Y-107684021D01*
X167908523Y-107622989D01*
X167927037Y-107578291D01*
X167954693Y-107536900D01*
X167988900Y-107502693D01*
X168030292Y-107475036D01*
X168074989Y-107456523D01*
X168136021Y-107444383D01*
X168160212Y-107442000D01*
X172457873Y-107442000D01*
X172474058Y-107443061D01*
G37*
%TD.AperFunction*%
%TD*%
%TA.AperFunction,Conductor*%
%TO.N,OUT2_Sens*%
G36*
X147506061Y-61500597D02*
G01*
X147682941Y-61518018D01*
X147706769Y-61522757D01*
X147871001Y-61572576D01*
X147893453Y-61581877D01*
X148044798Y-61662772D01*
X148065010Y-61676277D01*
X148197666Y-61785145D01*
X148214854Y-61802333D01*
X148323722Y-61934989D01*
X148337227Y-61955201D01*
X148418121Y-62106543D01*
X148427424Y-62129001D01*
X148477240Y-62293224D01*
X148481982Y-62317065D01*
X148499403Y-62493938D01*
X148500000Y-62506092D01*
X148500000Y-67993907D01*
X148499403Y-68006061D01*
X148481982Y-68182934D01*
X148477240Y-68206775D01*
X148427424Y-68370998D01*
X148418121Y-68393456D01*
X148337227Y-68544798D01*
X148323722Y-68565010D01*
X148270200Y-68630227D01*
X148212455Y-68669561D01*
X148142610Y-68671432D01*
X148082842Y-68635245D01*
X148080557Y-68632676D01*
X148065270Y-68615000D01*
X145634730Y-68615000D01*
X145634911Y-68616249D01*
X145686212Y-68721188D01*
X145692185Y-68729553D01*
X145690962Y-68730426D01*
X145719049Y-68781863D01*
X145714065Y-68851555D01*
X145672193Y-68907488D01*
X145661004Y-68914953D01*
X145573138Y-68966916D01*
X145573129Y-68966923D01*
X145571947Y-68968106D01*
X145570792Y-68968736D01*
X145566969Y-68971702D01*
X145566490Y-68971084D01*
X145513526Y-69000000D01*
X145000000Y-69000000D01*
X145000000Y-68114999D01*
X145634729Y-68114999D01*
X145634730Y-68115000D01*
X146600000Y-68115000D01*
X147100000Y-68115000D01*
X148065270Y-68115000D01*
X148065270Y-68114999D01*
X148065088Y-68113750D01*
X148013787Y-68008811D01*
X147931188Y-67926212D01*
X147826251Y-67874912D01*
X147826248Y-67874911D01*
X147758220Y-67865000D01*
X147100000Y-67865000D01*
X147100000Y-68115000D01*
X146600000Y-68115000D01*
X146600000Y-67865000D01*
X145941782Y-67865000D01*
X145873750Y-67874912D01*
X145768808Y-67926215D01*
X145686212Y-68008811D01*
X145634911Y-68113750D01*
X145634729Y-68114999D01*
X145000000Y-68114999D01*
X145000000Y-67345000D01*
X145634730Y-67345000D01*
X145634911Y-67346249D01*
X145686212Y-67451188D01*
X145768811Y-67533787D01*
X145873748Y-67585087D01*
X145873751Y-67585088D01*
X145941780Y-67594999D01*
X146599999Y-67594999D01*
X147100000Y-67594999D01*
X147758218Y-67594999D01*
X147826249Y-67585087D01*
X147931191Y-67533784D01*
X148013787Y-67451188D01*
X148065088Y-67346249D01*
X148065270Y-67345000D01*
X147100000Y-67345000D01*
X147100000Y-67594999D01*
X146599999Y-67594999D01*
X146600000Y-67594998D01*
X146600000Y-67345000D01*
X145634730Y-67345000D01*
X145000000Y-67345000D01*
X145000000Y-66844999D01*
X145634729Y-66844999D01*
X145634730Y-66845000D01*
X146600000Y-66845000D01*
X147100000Y-66845000D01*
X148065270Y-66845000D01*
X148065270Y-66844999D01*
X148065088Y-66843750D01*
X148013787Y-66738811D01*
X147931188Y-66656212D01*
X147826251Y-66604912D01*
X147826248Y-66604911D01*
X147758220Y-66595000D01*
X147100000Y-66595000D01*
X147100000Y-66845000D01*
X146600000Y-66845000D01*
X146600000Y-66595000D01*
X145941782Y-66595000D01*
X145873750Y-66604912D01*
X145768808Y-66656215D01*
X145686212Y-66738811D01*
X145634911Y-66843750D01*
X145634729Y-66844999D01*
X145000000Y-66844999D01*
X145000000Y-66075000D01*
X145634730Y-66075000D01*
X145634911Y-66076249D01*
X145686212Y-66181188D01*
X145768811Y-66263787D01*
X145873748Y-66315087D01*
X145873751Y-66315088D01*
X145941780Y-66324999D01*
X146599999Y-66324999D01*
X147100000Y-66324999D01*
X147758218Y-66324999D01*
X147826249Y-66315087D01*
X147931191Y-66263784D01*
X148013787Y-66181188D01*
X148065088Y-66076249D01*
X148065270Y-66075000D01*
X147100000Y-66075000D01*
X147100000Y-66324999D01*
X146599999Y-66324999D01*
X146600000Y-66324998D01*
X146600000Y-66075000D01*
X145634730Y-66075000D01*
X145000000Y-66075000D01*
X145000000Y-65574999D01*
X145634729Y-65574999D01*
X145634730Y-65575000D01*
X146600000Y-65575000D01*
X147100000Y-65575000D01*
X148065270Y-65575000D01*
X148065270Y-65574999D01*
X148065088Y-65573750D01*
X148013787Y-65468811D01*
X147931188Y-65386212D01*
X147826251Y-65334912D01*
X147826248Y-65334911D01*
X147758220Y-65325000D01*
X147100000Y-65325000D01*
X147100000Y-65575000D01*
X146600000Y-65575000D01*
X146600000Y-65325000D01*
X145941782Y-65325000D01*
X145873750Y-65334912D01*
X145768808Y-65386215D01*
X145686212Y-65468811D01*
X145634911Y-65573750D01*
X145634729Y-65574999D01*
X145000000Y-65574999D01*
X145000000Y-64805000D01*
X145634730Y-64805000D01*
X145634911Y-64806249D01*
X145686212Y-64911188D01*
X145768811Y-64993787D01*
X145873748Y-65045087D01*
X145873751Y-65045088D01*
X145941780Y-65054999D01*
X146599999Y-65054999D01*
X147100000Y-65054999D01*
X147758218Y-65054999D01*
X147826249Y-65045087D01*
X147931191Y-64993784D01*
X148013787Y-64911188D01*
X148065088Y-64806249D01*
X148065270Y-64805000D01*
X147100000Y-64805000D01*
X147100000Y-65054999D01*
X146599999Y-65054999D01*
X146600000Y-65054998D01*
X146600000Y-64805000D01*
X145634730Y-64805000D01*
X145000000Y-64805000D01*
X145000000Y-64304999D01*
X145634729Y-64304999D01*
X145634730Y-64305000D01*
X146600000Y-64305000D01*
X147100000Y-64305000D01*
X148065270Y-64305000D01*
X148065270Y-64304999D01*
X148065088Y-64303750D01*
X148013787Y-64198811D01*
X147931188Y-64116212D01*
X147826251Y-64064912D01*
X147826248Y-64064911D01*
X147758220Y-64055000D01*
X147100000Y-64055000D01*
X147100000Y-64305000D01*
X146600000Y-64305000D01*
X146600000Y-64055000D01*
X145941782Y-64055000D01*
X145873750Y-64064912D01*
X145768808Y-64116215D01*
X145686212Y-64198811D01*
X145634911Y-64303750D01*
X145634729Y-64304999D01*
X145000000Y-64304999D01*
X145000000Y-62500000D01*
X134000000Y-62500000D01*
X134000000Y-73000000D01*
X132506093Y-73000000D01*
X132493939Y-72999403D01*
X132317065Y-72981982D01*
X132293224Y-72977240D01*
X132129001Y-72927424D01*
X132106543Y-72918121D01*
X131955201Y-72837227D01*
X131934989Y-72823722D01*
X131802333Y-72714854D01*
X131785145Y-72697666D01*
X131676277Y-72565010D01*
X131662772Y-72544798D01*
X131581878Y-72393456D01*
X131572575Y-72370998D01*
X131522757Y-72206769D01*
X131518018Y-72182941D01*
X131500597Y-72006061D01*
X131500000Y-71993907D01*
X131500000Y-62506092D01*
X131500597Y-62493938D01*
X131518018Y-62317056D01*
X131522757Y-62293232D01*
X131572577Y-62128994D01*
X131581875Y-62106549D01*
X131662775Y-61955195D01*
X131676272Y-61934995D01*
X131785149Y-61802328D01*
X131802328Y-61785149D01*
X131934995Y-61676272D01*
X131955195Y-61662775D01*
X132106549Y-61581875D01*
X132128994Y-61572577D01*
X132293232Y-61522757D01*
X132317056Y-61518018D01*
X132493939Y-61500597D01*
X132506093Y-61500000D01*
X147493907Y-61500000D01*
X147506061Y-61500597D01*
G37*
%TD.AperFunction*%
%TD*%
%TA.AperFunction,Conductor*%
%TO.N,OUT1*%
G36*
X127506061Y-61500597D02*
G01*
X127682941Y-61518018D01*
X127706769Y-61522757D01*
X127871001Y-61572576D01*
X127893453Y-61581877D01*
X128044798Y-61662772D01*
X128065010Y-61676277D01*
X128197666Y-61785145D01*
X128214854Y-61802333D01*
X128323722Y-61934989D01*
X128337227Y-61955201D01*
X128418121Y-62106543D01*
X128427424Y-62129001D01*
X128477240Y-62293224D01*
X128481982Y-62317065D01*
X128499403Y-62493938D01*
X128500000Y-62506092D01*
X128500000Y-76993907D01*
X128499403Y-77006061D01*
X128481982Y-77182934D01*
X128477240Y-77206775D01*
X128427424Y-77370998D01*
X128418121Y-77393456D01*
X128337227Y-77544798D01*
X128323722Y-77565010D01*
X128214854Y-77697666D01*
X128197666Y-77714854D01*
X128065010Y-77823722D01*
X128044798Y-77837227D01*
X127893456Y-77918121D01*
X127870998Y-77927424D01*
X127706775Y-77977240D01*
X127682934Y-77981982D01*
X127506061Y-77999403D01*
X127493907Y-78000000D01*
X118506093Y-78000000D01*
X118493939Y-77999403D01*
X118317065Y-77981982D01*
X118293224Y-77977240D01*
X118129001Y-77927424D01*
X118106543Y-77918121D01*
X117955201Y-77837227D01*
X117934989Y-77823722D01*
X117802333Y-77714854D01*
X117785145Y-77697666D01*
X117676277Y-77565010D01*
X117662772Y-77544798D01*
X117581878Y-77393456D01*
X117572575Y-77370998D01*
X117522757Y-77206769D01*
X117518018Y-77182941D01*
X117500597Y-77006061D01*
X117500000Y-76993907D01*
X117500000Y-75000003D01*
X117500000Y-75000000D01*
X117500000Y-74000000D01*
X116500000Y-74000000D01*
X116499997Y-74000000D01*
X115506093Y-74000000D01*
X115493939Y-73999403D01*
X115317065Y-73981982D01*
X115293224Y-73977240D01*
X115129001Y-73927424D01*
X115106543Y-73918121D01*
X114955201Y-73837227D01*
X114934989Y-73823722D01*
X114802333Y-73714854D01*
X114785145Y-73697666D01*
X114676277Y-73565010D01*
X114662772Y-73544798D01*
X114581878Y-73393456D01*
X114572575Y-73370998D01*
X114522757Y-73206769D01*
X114518018Y-73182941D01*
X114500597Y-73006061D01*
X114500000Y-72993907D01*
X114500000Y-62506092D01*
X114500597Y-62493938D01*
X114518018Y-62317056D01*
X114522757Y-62293232D01*
X114572577Y-62128994D01*
X114581875Y-62106549D01*
X114662775Y-61955195D01*
X114676272Y-61934995D01*
X114785149Y-61802328D01*
X114802328Y-61785149D01*
X114934995Y-61676272D01*
X114955195Y-61662775D01*
X115106549Y-61581875D01*
X115128994Y-61572577D01*
X115293232Y-61522757D01*
X115317056Y-61518018D01*
X115493939Y-61500597D01*
X115506093Y-61500000D01*
X127493907Y-61500000D01*
X127506061Y-61500597D01*
G37*
%TD.AperFunction*%
%TD*%
%TA.AperFunction,Conductor*%
%TO.N,OUT2*%
G36*
X143000000Y-78000000D02*
G01*
X135500000Y-78000000D01*
X135500000Y-74500000D01*
X143000000Y-74500000D01*
X143000000Y-78000000D01*
G37*
%TD.AperFunction*%
%TD*%
%TA.AperFunction,Conductor*%
%TO.N,OUT2*%
G36*
X147100000Y-69509000D02*
G01*
X147100000Y-70134999D01*
X147758218Y-70134999D01*
X147826249Y-70125087D01*
X147931191Y-70073784D01*
X148013784Y-69991191D01*
X148061920Y-69892727D01*
X148109048Y-69841145D01*
X148176582Y-69823230D01*
X148243080Y-69844670D01*
X148269174Y-69868522D01*
X148323722Y-69934989D01*
X148337227Y-69955201D01*
X148418121Y-70106543D01*
X148427424Y-70129001D01*
X148477240Y-70293224D01*
X148481982Y-70317065D01*
X148499403Y-70493938D01*
X148500000Y-70506092D01*
X148500000Y-76993907D01*
X148499403Y-77006061D01*
X148481982Y-77182934D01*
X148477240Y-77206775D01*
X148427424Y-77370998D01*
X148418121Y-77393456D01*
X148337227Y-77544798D01*
X148323722Y-77565010D01*
X148214854Y-77697666D01*
X148197666Y-77714854D01*
X148065010Y-77823722D01*
X148044798Y-77837227D01*
X147893456Y-77918121D01*
X147870998Y-77927424D01*
X147706775Y-77977240D01*
X147682934Y-77981982D01*
X147506061Y-77999403D01*
X147493907Y-78000000D01*
X143000000Y-78000000D01*
X143000000Y-74500000D01*
X135500000Y-74500000D01*
X135500000Y-78000000D01*
X132506093Y-78000000D01*
X132493939Y-77999403D01*
X132317065Y-77981982D01*
X132293224Y-77977240D01*
X132129001Y-77927424D01*
X132106543Y-77918121D01*
X131955201Y-77837227D01*
X131934989Y-77823722D01*
X131802333Y-77714854D01*
X131785145Y-77697666D01*
X131676277Y-77565010D01*
X131662772Y-77544798D01*
X131581878Y-77393456D01*
X131572575Y-77370998D01*
X131522757Y-77206769D01*
X131518018Y-77182941D01*
X131500597Y-77006061D01*
X131500000Y-76993907D01*
X131500000Y-74506092D01*
X131500597Y-74493938D01*
X131518018Y-74317056D01*
X131522757Y-74293232D01*
X131572577Y-74128994D01*
X131581875Y-74106549D01*
X131662775Y-73955195D01*
X131676272Y-73934995D01*
X131785149Y-73802328D01*
X131802328Y-73785149D01*
X131912175Y-73695000D01*
X145634730Y-73695000D01*
X145634911Y-73696249D01*
X145686212Y-73801188D01*
X145768811Y-73883787D01*
X145873748Y-73935087D01*
X145873751Y-73935088D01*
X145941780Y-73944999D01*
X146599999Y-73944999D01*
X147100000Y-73944999D01*
X147758218Y-73944999D01*
X147826249Y-73935087D01*
X147931191Y-73883784D01*
X148013787Y-73801188D01*
X148065088Y-73696249D01*
X148065270Y-73695000D01*
X147100000Y-73695000D01*
X147100000Y-73944999D01*
X146599999Y-73944999D01*
X146600000Y-73944998D01*
X146600000Y-73695000D01*
X145634730Y-73695000D01*
X131912175Y-73695000D01*
X131934995Y-73676272D01*
X131955195Y-73662775D01*
X132106549Y-73581875D01*
X132128994Y-73572577D01*
X132293232Y-73522757D01*
X132317054Y-73518018D01*
X132451556Y-73504771D01*
X132469757Y-73504324D01*
X132481293Y-73504891D01*
X132506093Y-73505500D01*
X132506110Y-73505500D01*
X136325966Y-73505500D01*
X136325976Y-73505500D01*
X136391963Y-73501175D01*
X136392831Y-73501060D01*
X136393698Y-73501003D01*
X136393981Y-73500976D01*
X136393981Y-73500985D01*
X136409016Y-73500000D01*
X138454986Y-73500000D01*
X138470020Y-73500985D01*
X138470021Y-73500976D01*
X138470303Y-73501003D01*
X138471170Y-73501060D01*
X138472039Y-73501175D01*
X138538024Y-73505500D01*
X138538034Y-73505500D01*
X140135966Y-73505500D01*
X140135976Y-73505500D01*
X140201963Y-73501175D01*
X140202831Y-73501060D01*
X140203698Y-73501003D01*
X140203981Y-73500976D01*
X140203981Y-73500985D01*
X140219016Y-73500000D01*
X140307427Y-73500000D01*
X140500000Y-73500000D01*
X140829845Y-73368061D01*
X140856473Y-73360726D01*
X140956923Y-73344817D01*
X141012088Y-73332890D01*
X141038742Y-73325548D01*
X141092237Y-73307544D01*
X141373600Y-73194999D01*
X145634729Y-73194999D01*
X145634730Y-73195000D01*
X146600000Y-73195000D01*
X147100000Y-73195000D01*
X148065270Y-73195000D01*
X148065270Y-73194999D01*
X148065088Y-73193750D01*
X148013787Y-73088811D01*
X147931188Y-73006212D01*
X147826251Y-72954912D01*
X147826248Y-72954911D01*
X147758220Y-72945000D01*
X147100000Y-72945000D01*
X147100000Y-73195000D01*
X146600000Y-73195000D01*
X146600000Y-72945000D01*
X145941782Y-72945000D01*
X145873750Y-72954912D01*
X145768808Y-73006215D01*
X145686212Y-73088811D01*
X145634911Y-73193750D01*
X145634729Y-73194999D01*
X141373600Y-73194999D01*
X143151978Y-72483648D01*
X143159212Y-72480689D01*
X143162769Y-72479202D01*
X143170034Y-72476098D01*
X143252561Y-72425000D01*
X145634730Y-72425000D01*
X145634911Y-72426249D01*
X145686212Y-72531188D01*
X145768811Y-72613787D01*
X145873748Y-72665087D01*
X145873751Y-72665088D01*
X145941780Y-72674999D01*
X146599999Y-72674999D01*
X147100000Y-72674999D01*
X147758218Y-72674999D01*
X147826249Y-72665087D01*
X147931191Y-72613784D01*
X148013787Y-72531188D01*
X148065088Y-72426249D01*
X148065270Y-72425000D01*
X147100000Y-72425000D01*
X147100000Y-72674999D01*
X146599999Y-72674999D01*
X146600000Y-72674998D01*
X146600000Y-72425000D01*
X145634730Y-72425000D01*
X143252561Y-72425000D01*
X143292360Y-72400358D01*
X143292366Y-72400353D01*
X143345918Y-72355503D01*
X143345929Y-72355494D01*
X143441963Y-72248356D01*
X143595063Y-72018707D01*
X143657535Y-71924999D01*
X145634729Y-71924999D01*
X145634730Y-71925000D01*
X146600000Y-71925000D01*
X147100000Y-71925000D01*
X148065270Y-71925000D01*
X148065270Y-71924999D01*
X148065088Y-71923750D01*
X148013787Y-71818811D01*
X147931188Y-71736212D01*
X147826251Y-71684912D01*
X147826248Y-71684911D01*
X147758220Y-71675000D01*
X147100000Y-71675000D01*
X147100000Y-71925000D01*
X146600000Y-71925000D01*
X146600000Y-71675000D01*
X145941782Y-71675000D01*
X145873750Y-71684912D01*
X145768808Y-71736215D01*
X145686212Y-71818811D01*
X145634911Y-71923750D01*
X145634729Y-71924999D01*
X143657535Y-71924999D01*
X144004202Y-71404998D01*
X144170867Y-71155000D01*
X145634730Y-71155000D01*
X145634911Y-71156249D01*
X145686212Y-71261188D01*
X145768811Y-71343787D01*
X145873748Y-71395087D01*
X145873751Y-71395088D01*
X145941780Y-71404999D01*
X146599999Y-71404999D01*
X147100000Y-71404999D01*
X147758218Y-71404999D01*
X147826249Y-71395087D01*
X147931191Y-71343784D01*
X148013787Y-71261188D01*
X148065088Y-71156249D01*
X148065270Y-71155000D01*
X147100000Y-71155000D01*
X147100000Y-71404999D01*
X146599999Y-71404999D01*
X146600000Y-71404998D01*
X146600000Y-71155000D01*
X145634730Y-71155000D01*
X144170867Y-71155000D01*
X144504201Y-70654999D01*
X145634729Y-70654999D01*
X145634730Y-70655000D01*
X146600000Y-70655000D01*
X147100000Y-70655000D01*
X148065270Y-70655000D01*
X148065270Y-70654999D01*
X148065088Y-70653750D01*
X148013787Y-70548811D01*
X147931188Y-70466212D01*
X147826251Y-70414912D01*
X147826248Y-70414911D01*
X147758220Y-70405000D01*
X147100000Y-70405000D01*
X147100000Y-70655000D01*
X146600000Y-70655000D01*
X146600000Y-70405000D01*
X145941782Y-70405000D01*
X145873750Y-70414912D01*
X145768808Y-70466215D01*
X145686212Y-70548811D01*
X145634911Y-70653750D01*
X145634729Y-70654999D01*
X144504201Y-70654999D01*
X145017534Y-69885000D01*
X145634730Y-69885000D01*
X145634911Y-69886249D01*
X145686212Y-69991188D01*
X145768811Y-70073787D01*
X145873748Y-70125087D01*
X145873751Y-70125088D01*
X145941780Y-70134999D01*
X146599999Y-70134999D01*
X146600000Y-70134998D01*
X146600000Y-69885000D01*
X145634730Y-69885000D01*
X145017534Y-69885000D01*
X145216793Y-69586111D01*
X145270355Y-69541254D01*
X145283918Y-69536253D01*
X145328193Y-69522807D01*
X145352051Y-69518056D01*
X145473338Y-69506098D01*
X145485505Y-69505500D01*
X145513522Y-69505500D01*
X145513526Y-69505500D01*
X145558094Y-69500710D01*
X145571345Y-69500000D01*
X145605981Y-69500000D01*
X147098042Y-69500000D01*
X147100000Y-69509000D01*
G37*
%TD.AperFunction*%
%TD*%
%TA.AperFunction,Conductor*%
%TO.N,OUT2_Sens*%
G36*
X145000000Y-69000000D02*
G01*
X143021362Y-71967955D01*
X142967797Y-72012816D01*
X142964240Y-72014303D01*
X140904499Y-72838199D01*
X140877845Y-72845541D01*
X140513211Y-72903294D01*
X140513209Y-72903294D01*
X140431586Y-72925164D01*
X140168065Y-72995775D01*
X140135976Y-73000000D01*
X138538024Y-73000000D01*
X138505934Y-72995775D01*
X138160794Y-72903295D01*
X138160790Y-72903294D01*
X138160789Y-72903294D01*
X137798405Y-72845898D01*
X137432001Y-72826696D01*
X137431999Y-72826696D01*
X137065594Y-72845898D01*
X136703211Y-72903294D01*
X136703209Y-72903294D01*
X136621586Y-72925164D01*
X136358065Y-72995775D01*
X136325976Y-73000000D01*
X134000000Y-73000000D01*
X134000000Y-62500000D01*
X145000000Y-62500000D01*
X145000000Y-69000000D01*
G37*
%TD.AperFunction*%
%TD*%
%TA.AperFunction,Conductor*%
%TO.N,-VDC*%
G36*
X96145372Y-102509438D02*
G01*
X96548143Y-102676272D01*
X96560123Y-102681234D01*
X96669395Y-102716738D01*
X96989877Y-102820869D01*
X97429267Y-102926357D01*
X97875580Y-102997046D01*
X98326062Y-103032500D01*
X98326070Y-103032500D01*
X98777930Y-103032500D01*
X98777938Y-103032500D01*
X99228420Y-102997046D01*
X99674733Y-102926357D01*
X100114123Y-102820869D01*
X100543882Y-102681232D01*
X100958627Y-102509438D01*
X101006080Y-102500000D01*
X104993907Y-102500000D01*
X105006061Y-102500597D01*
X105182941Y-102518018D01*
X105206769Y-102522757D01*
X105371001Y-102572576D01*
X105393453Y-102581877D01*
X105544798Y-102662772D01*
X105565010Y-102676277D01*
X105697666Y-102785145D01*
X105714854Y-102802333D01*
X105823722Y-102934989D01*
X105837227Y-102955201D01*
X105918121Y-103106543D01*
X105927424Y-103129001D01*
X105977240Y-103293224D01*
X105981982Y-103317065D01*
X105999403Y-103493938D01*
X106000000Y-103506092D01*
X106000000Y-108993907D01*
X105999403Y-109006061D01*
X105981982Y-109182934D01*
X105977240Y-109206775D01*
X105927424Y-109370998D01*
X105918121Y-109393456D01*
X105837227Y-109544798D01*
X105823722Y-109565010D01*
X105714854Y-109697666D01*
X105697666Y-109714854D01*
X105565010Y-109823722D01*
X105544798Y-109837227D01*
X105393456Y-109918121D01*
X105370998Y-109927424D01*
X105206775Y-109977240D01*
X105182934Y-109981982D01*
X105006061Y-109999403D01*
X104993907Y-110000000D01*
X88500000Y-110000000D01*
X88500000Y-111000000D01*
X97493907Y-111000000D01*
X97506061Y-111000597D01*
X97682941Y-111018018D01*
X97706769Y-111022757D01*
X97871001Y-111072576D01*
X97893453Y-111081877D01*
X98044798Y-111162772D01*
X98065010Y-111176277D01*
X98197666Y-111285145D01*
X98214854Y-111302333D01*
X98323722Y-111434989D01*
X98337227Y-111455201D01*
X98418121Y-111606543D01*
X98427424Y-111629001D01*
X98477240Y-111793224D01*
X98481982Y-111817065D01*
X98499403Y-111993938D01*
X98500000Y-112006092D01*
X98500000Y-120493907D01*
X98499403Y-120506061D01*
X98481982Y-120682934D01*
X98477240Y-120706775D01*
X98427424Y-120870998D01*
X98418121Y-120893456D01*
X98337227Y-121044798D01*
X98323722Y-121065010D01*
X98214854Y-121197666D01*
X98197666Y-121214854D01*
X98065010Y-121323722D01*
X98044798Y-121337227D01*
X97893456Y-121418121D01*
X97870998Y-121427424D01*
X97706775Y-121477240D01*
X97682934Y-121481982D01*
X97506061Y-121499403D01*
X97493907Y-121500000D01*
X82731684Y-121500000D01*
X82720879Y-121499528D01*
X82709675Y-121498548D01*
X82688991Y-121496738D01*
X82667707Y-121492985D01*
X82637090Y-121484781D01*
X82624242Y-121480575D01*
X82588544Y-121466693D01*
X82583543Y-121464621D01*
X82547353Y-121448696D01*
X82544892Y-121447581D01*
X82230969Y-121301197D01*
X82228529Y-121300027D01*
X82193018Y-121282515D01*
X82188218Y-121280016D01*
X82153521Y-121260980D01*
X82151165Y-121259654D01*
X81851189Y-121086464D01*
X81848952Y-121085140D01*
X81815035Y-121064559D01*
X81810503Y-121061671D01*
X81777577Y-121039670D01*
X81775345Y-121038144D01*
X81491586Y-120839453D01*
X81489389Y-120837878D01*
X81457513Y-120814506D01*
X81453220Y-120811212D01*
X81422342Y-120786430D01*
X81420251Y-120784714D01*
X81298954Y-120682934D01*
X81154877Y-120562039D01*
X81152951Y-120560387D01*
X81123113Y-120534220D01*
X81119131Y-120530571D01*
X81090528Y-120503190D01*
X81088594Y-120501297D01*
X80843702Y-120256405D01*
X80841809Y-120254471D01*
X80814428Y-120225868D01*
X80810775Y-120221882D01*
X80784606Y-120192041D01*
X80782967Y-120190129D01*
X80560285Y-119924748D01*
X80558569Y-119922657D01*
X80533787Y-119891779D01*
X80530493Y-119887486D01*
X80507121Y-119855610D01*
X80505546Y-119853413D01*
X80306855Y-119569654D01*
X80305329Y-119567422D01*
X80283328Y-119534496D01*
X80280447Y-119529976D01*
X80259843Y-119496020D01*
X80258559Y-119493850D01*
X80085345Y-119193834D01*
X80084019Y-119191478D01*
X80064983Y-119156781D01*
X80062484Y-119151981D01*
X80044982Y-119116491D01*
X80043811Y-119114049D01*
X80034276Y-119093600D01*
X80029240Y-119081057D01*
X80012313Y-119031193D01*
X80006469Y-119004832D01*
X80000737Y-118952487D01*
X80000000Y-118938989D01*
X80000000Y-103506092D01*
X80000597Y-103493938D01*
X80018018Y-103317056D01*
X80022757Y-103293232D01*
X80072577Y-103128994D01*
X80081875Y-103106549D01*
X80162775Y-102955195D01*
X80176272Y-102934995D01*
X80285149Y-102802328D01*
X80302328Y-102785149D01*
X80434995Y-102676272D01*
X80455195Y-102662775D01*
X80606549Y-102581875D01*
X80628994Y-102572577D01*
X80793232Y-102522757D01*
X80817056Y-102518018D01*
X80993939Y-102500597D01*
X81006093Y-102500000D01*
X96097920Y-102500000D01*
X96145372Y-102509438D01*
G37*
%TD.AperFunction*%
%TD*%
%TA.AperFunction,Conductor*%
%TO.N,DESAT_H*%
G36*
X97506061Y-73000597D02*
G01*
X97682941Y-73018018D01*
X97706769Y-73022757D01*
X97871001Y-73072576D01*
X97893453Y-73081877D01*
X98044798Y-73162772D01*
X98065010Y-73176277D01*
X98197666Y-73285145D01*
X98214854Y-73302333D01*
X98323722Y-73434989D01*
X98337227Y-73455201D01*
X98418121Y-73606543D01*
X98427424Y-73629001D01*
X98477240Y-73793224D01*
X98481982Y-73817065D01*
X98499403Y-73993938D01*
X98500000Y-74006092D01*
X98500000Y-82493907D01*
X98499403Y-82506061D01*
X98481982Y-82682934D01*
X98477240Y-82706775D01*
X98427424Y-82870998D01*
X98418121Y-82893456D01*
X98337227Y-83044798D01*
X98323722Y-83065010D01*
X98214854Y-83197666D01*
X98197666Y-83214854D01*
X98065010Y-83323722D01*
X98044798Y-83337227D01*
X97893456Y-83418121D01*
X97870998Y-83427424D01*
X97706775Y-83477240D01*
X97682934Y-83481982D01*
X97506061Y-83499403D01*
X97493907Y-83500000D01*
X88500000Y-83500000D01*
X88500000Y-84500000D01*
X104993907Y-84500000D01*
X105006061Y-84500597D01*
X105182941Y-84518018D01*
X105206769Y-84522757D01*
X105371001Y-84572576D01*
X105393453Y-84581877D01*
X105544798Y-84662772D01*
X105565010Y-84676277D01*
X105697666Y-84785145D01*
X105714854Y-84802333D01*
X105823722Y-84934989D01*
X105837227Y-84955201D01*
X105918121Y-85106543D01*
X105927424Y-85129001D01*
X105977240Y-85293224D01*
X105981982Y-85317065D01*
X105999403Y-85493938D01*
X106000000Y-85506092D01*
X106000000Y-90993907D01*
X105999403Y-91006061D01*
X105981982Y-91182934D01*
X105977240Y-91206775D01*
X105927424Y-91370998D01*
X105918121Y-91393456D01*
X105837227Y-91544798D01*
X105823722Y-91565010D01*
X105714854Y-91697666D01*
X105697666Y-91714854D01*
X105565010Y-91823722D01*
X105544798Y-91837227D01*
X105393456Y-91918121D01*
X105370998Y-91927424D01*
X105206775Y-91977240D01*
X105182934Y-91981982D01*
X105006061Y-91999403D01*
X104993907Y-92000000D01*
X100851570Y-92000000D01*
X100804117Y-91990561D01*
X100771957Y-91977240D01*
X100741086Y-91964452D01*
X100543876Y-91882765D01*
X100238101Y-91783413D01*
X100114123Y-91743131D01*
X99674733Y-91637643D01*
X99674727Y-91637642D01*
X99228429Y-91566955D01*
X99228420Y-91566954D01*
X99228418Y-91566953D01*
X99228410Y-91566953D01*
X98777943Y-91531500D01*
X98777938Y-91531500D01*
X98326062Y-91531500D01*
X98326056Y-91531500D01*
X97875589Y-91566953D01*
X97875570Y-91566955D01*
X97429272Y-91637642D01*
X97429269Y-91637642D01*
X97429267Y-91637643D01*
X97271910Y-91675420D01*
X96989888Y-91743128D01*
X96989882Y-91743129D01*
X96989877Y-91743131D01*
X96989865Y-91743135D01*
X96560123Y-91882765D01*
X96299883Y-91990561D01*
X96252430Y-92000000D01*
X81006093Y-92000000D01*
X80993939Y-91999403D01*
X80817065Y-91981982D01*
X80793224Y-91977240D01*
X80629001Y-91927424D01*
X80606543Y-91918121D01*
X80455201Y-91837227D01*
X80434989Y-91823722D01*
X80302333Y-91714854D01*
X80285145Y-91697666D01*
X80176277Y-91565010D01*
X80162772Y-91544798D01*
X80081878Y-91393456D01*
X80072575Y-91370998D01*
X80022757Y-91206769D01*
X80018018Y-91182941D01*
X80000597Y-91006061D01*
X80000000Y-90993907D01*
X80000000Y-74006092D01*
X80000597Y-73993938D01*
X80018018Y-73817056D01*
X80022757Y-73793232D01*
X80072577Y-73628994D01*
X80081875Y-73606549D01*
X80162775Y-73455195D01*
X80176272Y-73434995D01*
X80285149Y-73302328D01*
X80302328Y-73285149D01*
X80434995Y-73176272D01*
X80455195Y-73162775D01*
X80606549Y-73081875D01*
X80628994Y-73072577D01*
X80793232Y-73022757D01*
X80817056Y-73018018D01*
X80993939Y-73000597D01*
X81006093Y-73000000D01*
X97493907Y-73000000D01*
X97506061Y-73000597D01*
G37*
%TD.AperFunction*%
%TD*%
D45*
X161560000Y-94250000D03*
X165100000Y-99695000D03*
X165100000Y-95250000D03*
X182245000Y-95250000D03*
X177700000Y-99595000D03*
X177700000Y-95350000D03*
X154686000Y-82804000D03*
X164595000Y-73595000D03*
X121666000Y-82550000D03*
X158200000Y-101200000D03*
X122152500Y-91037500D03*
X154686000Y-83820000D03*
X154675000Y-65825000D03*
X175375000Y-100175000D03*
X162775000Y-100175000D03*
X140970000Y-92710000D03*
X136652000Y-89154000D03*
X170900000Y-101200000D03*
X121666000Y-83566000D03*
X133582500Y-91037500D03*
X126365000Y-88011000D03*
X187095000Y-75095000D03*
X129540000Y-92710000D03*
X132080000Y-92710000D03*
X181380000Y-75120000D03*
X168402000Y-108458000D03*
X168402000Y-110998000D03*
X127762000Y-85598000D03*
X143510000Y-92710000D03*
X145415000Y-80985000D03*
X121920000Y-107950000D03*
X128016000Y-106172000D03*
X126746000Y-85598000D03*
X127000000Y-92710000D03*
X138430000Y-92710000D03*
X140335000Y-85217000D03*
X139700000Y-92710000D03*
X128270000Y-92710000D03*
X125730000Y-85598000D03*
X137795000Y-85217000D03*
X146715000Y-82185000D03*
X185190000Y-72810000D03*
X159004000Y-111506000D03*
X160020000Y-111506000D03*
X172550000Y-65550000D03*
X161036000Y-111506000D03*
X164500000Y-68500000D03*
X127696000Y-81092000D03*
X121666000Y-86360000D03*
X121666000Y-87376000D03*
X168402000Y-114046000D03*
X168402000Y-113030000D03*
X154686000Y-87376000D03*
X154686000Y-86360000D03*
X125796000Y-81092000D03*
X190905000Y-75095000D03*
X130800000Y-86000000D03*
X175000000Y-101200000D03*
X168402000Y-105410000D03*
X162300000Y-101200000D03*
X154675000Y-72175000D03*
X138176000Y-80960000D03*
X142875000Y-85385000D03*
X168402000Y-106426000D03*
X168405000Y-73595000D03*
X124227500Y-91037500D03*
X135657500Y-91037500D03*
X185190000Y-75190000D03*
X134780959Y-105316959D03*
X113538000Y-112776000D03*
X123096959Y-105316959D03*
X115570000Y-82804000D03*
X130048000Y-104902000D03*
X142875000Y-81153000D03*
X145415000Y-85090000D03*
X125984000Y-109728000D03*
X135255000Y-80899000D03*
X141732000Y-105156000D03*
X155448000Y-106934000D03*
X139446000Y-106172000D03*
X133350000Y-107950000D03*
X155448000Y-105918000D03*
X174450000Y-65550000D03*
X137414000Y-109728000D03*
X133350000Y-105410000D03*
X173500000Y-70500000D03*
X143764000Y-107950000D03*
X181380000Y-72880000D03*
X160782000Y-105918000D03*
X160782000Y-106934000D03*
X121920000Y-105410000D03*
X131064000Y-109728000D03*
X130810000Y-92710000D03*
X156200000Y-95500000D03*
X168900000Y-95500000D03*
X142240000Y-92710000D03*
X178865000Y-112395000D03*
X178865000Y-109855000D03*
X178865000Y-107315000D03*
X87000000Y-83250000D03*
X87000000Y-110750000D03*
X98552000Y-97282000D03*
X191552000Y-97282000D03*
X114572000Y-118232000D03*
X118382000Y-118232000D03*
X126002000Y-118232000D03*
X129812000Y-118232000D03*
X137432000Y-118232000D03*
X141242000Y-118232000D03*
X148862000Y-118232000D03*
X152672000Y-118232000D03*
X160292000Y-118232000D03*
X164102000Y-118232000D03*
X171722000Y-118232000D03*
X175532000Y-118232000D03*
X184652000Y-108712000D03*
X184652000Y-104902000D03*
X184652000Y-89662000D03*
X184652000Y-85852000D03*
X175532000Y-76332000D03*
X171722000Y-76332000D03*
X160292000Y-76332000D03*
X156482000Y-76332000D03*
X141242000Y-76332000D03*
X137432000Y-76332000D03*
X122192000Y-76332000D03*
X118382000Y-76332000D03*
X105452000Y-85852000D03*
X105452000Y-89662000D03*
X105452000Y-104902000D03*
X105452000Y-108712000D03*
X139500000Y-68000000D03*
X98500000Y-78500000D03*
X151475005Y-90169995D03*
X151475005Y-92709995D03*
X151475005Y-95249995D03*
X151475005Y-100329995D03*
X151475005Y-102869995D03*
X151475005Y-105409995D03*
X151475005Y-107949995D03*
X178500000Y-87480000D03*
X157500000Y-87480000D03*
X175500000Y-91420000D03*
X172500000Y-91420000D03*
X169500000Y-91420000D03*
X166500000Y-91420000D03*
X163500000Y-91420000D03*
X160500000Y-91420000D03*
X175500000Y-88420000D03*
X172500000Y-88420000D03*
X169500000Y-88420000D03*
X166500000Y-88420000D03*
X163500000Y-88420000D03*
X160500000Y-88420000D03*
X118455005Y-90169995D03*
X118455005Y-92709995D03*
X118455005Y-95249995D03*
X118455005Y-100329995D03*
X118455005Y-102869995D03*
X118455005Y-105409995D03*
X118455005Y-107949995D03*
X120000000Y-68000000D03*
X98500000Y-116000000D03*
M02*
