%TF.GenerationSoftware,KiCad,Pcbnew,8.0.4*%
%TF.CreationDate,2025-02-22T19:43:47+03:00*%
%TF.ProjectId,Driver_Inductor,44726976-6572-45f4-996e-647563746f72,rev?*%
%TF.SameCoordinates,Original*%
%TF.FileFunction,Paste,Top*%
%TF.FilePolarity,Positive*%
%FSLAX46Y46*%
G04 Gerber Fmt 4.6, Leading zero omitted, Abs format (unit mm)*
G04 Created by KiCad (PCBNEW 8.0.4) date 2025-02-22 19:43:47*
%MOMM*%
%LPD*%
G01*
G04 APERTURE LIST*
G04 Aperture macros list*
%AMRoundRect*
0 Rectangle with rounded corners*
0 $1 Rounding radius*
0 $2 $3 $4 $5 $6 $7 $8 $9 X,Y pos of 4 corners*
0 Add a 4 corners polygon primitive as box body*
4,1,4,$2,$3,$4,$5,$6,$7,$8,$9,$2,$3,0*
0 Add four circle primitives for the rounded corners*
1,1,$1+$1,$2,$3*
1,1,$1+$1,$4,$5*
1,1,$1+$1,$6,$7*
1,1,$1+$1,$8,$9*
0 Add four rect primitives between the rounded corners*
20,1,$1+$1,$2,$3,$4,$5,0*
20,1,$1+$1,$4,$5,$6,$7,0*
20,1,$1+$1,$6,$7,$8,$9,0*
20,1,$1+$1,$8,$9,$2,$3,0*%
G04 Aperture macros list end*
%ADD10RoundRect,0.250000X0.250000X-0.250000X0.250000X0.250000X-0.250000X0.250000X-0.250000X-0.250000X0*%
%ADD11RoundRect,0.250000X0.475000X-0.337500X0.475000X0.337500X-0.475000X0.337500X-0.475000X-0.337500X0*%
%ADD12RoundRect,0.250000X-0.475000X0.337500X-0.475000X-0.337500X0.475000X-0.337500X0.475000X0.337500X0*%
%ADD13RoundRect,0.150000X-0.587500X-0.150000X0.587500X-0.150000X0.587500X0.150000X-0.587500X0.150000X0*%
%ADD14RoundRect,0.150000X0.150000X-0.875000X0.150000X0.875000X-0.150000X0.875000X-0.150000X-0.875000X0*%
%ADD15RoundRect,0.250000X0.350000X0.450000X-0.350000X0.450000X-0.350000X-0.450000X0.350000X-0.450000X0*%
%ADD16RoundRect,0.250000X0.625000X-0.400000X0.625000X0.400000X-0.625000X0.400000X-0.625000X-0.400000X0*%
%ADD17RoundRect,0.250000X0.450000X-0.350000X0.450000X0.350000X-0.450000X0.350000X-0.450000X-0.350000X0*%
%ADD18RoundRect,0.375000X-0.375000X0.625000X-0.375000X-0.625000X0.375000X-0.625000X0.375000X0.625000X0*%
%ADD19RoundRect,0.500000X-1.400000X0.500000X-1.400000X-0.500000X1.400000X-0.500000X1.400000X0.500000X0*%
%ADD20RoundRect,0.250000X-0.450000X0.350000X-0.450000X-0.350000X0.450000X-0.350000X0.450000X0.350000X0*%
%ADD21RoundRect,0.150000X-0.825000X-0.150000X0.825000X-0.150000X0.825000X0.150000X-0.825000X0.150000X0*%
%ADD22RoundRect,0.250000X-0.337500X-0.475000X0.337500X-0.475000X0.337500X0.475000X-0.337500X0.475000X0*%
%ADD23RoundRect,0.250000X0.412500X1.100000X-0.412500X1.100000X-0.412500X-1.100000X0.412500X-1.100000X0*%
%ADD24RoundRect,0.250000X1.100000X-0.412500X1.100000X0.412500X-1.100000X0.412500X-1.100000X-0.412500X0*%
%ADD25RoundRect,0.150000X-0.875000X-0.150000X0.875000X-0.150000X0.875000X0.150000X-0.875000X0.150000X0*%
%ADD26RoundRect,0.150000X-0.150000X0.825000X-0.150000X-0.825000X0.150000X-0.825000X0.150000X0.825000X0*%
%ADD27RoundRect,0.250000X-0.350000X-0.450000X0.350000X-0.450000X0.350000X0.450000X-0.350000X0.450000X0*%
%ADD28RoundRect,0.250000X-0.650000X1.000000X-0.650000X-1.000000X0.650000X-1.000000X0.650000X1.000000X0*%
%ADD29RoundRect,0.250000X-0.450000X0.325000X-0.450000X-0.325000X0.450000X-0.325000X0.450000X0.325000X0*%
%ADD30RoundRect,0.250000X-1.100000X0.412500X-1.100000X-0.412500X1.100000X-0.412500X1.100000X0.412500X0*%
%ADD31RoundRect,0.250000X0.450000X-0.325000X0.450000X0.325000X-0.450000X0.325000X-0.450000X-0.325000X0*%
%ADD32RoundRect,0.150000X0.150000X-0.512500X0.150000X0.512500X-0.150000X0.512500X-0.150000X-0.512500X0*%
%ADD33RoundRect,0.250000X-0.412500X-1.100000X0.412500X-1.100000X0.412500X1.100000X-0.412500X1.100000X0*%
%ADD34RoundRect,0.250000X0.337500X0.475000X-0.337500X0.475000X-0.337500X-0.475000X0.337500X-0.475000X0*%
G04 APERTURE END LIST*
D10*
%TO.C,D18*%
X113030000Y-86340000D03*
X113030000Y-83840000D03*
%TD*%
%TO.C,D16*%
X109855000Y-114915000D03*
X109855000Y-112415000D03*
%TD*%
D11*
%TO.C,C13*%
X134620000Y-120417500D03*
X134620000Y-118342500D03*
%TD*%
D12*
%TO.C,C12*%
X122555000Y-118342500D03*
X122555000Y-120417500D03*
%TD*%
D13*
%TO.C,Q1*%
X131862500Y-82250000D03*
X131862500Y-84150000D03*
X133737500Y-83200000D03*
%TD*%
D14*
%TO.C,D1*%
X122555000Y-103710000D03*
X123825000Y-103710000D03*
X125095000Y-103710000D03*
X126365000Y-103710000D03*
X127635000Y-103710000D03*
X128905000Y-103710000D03*
X130175000Y-103710000D03*
X131445000Y-103710000D03*
X131445000Y-94410000D03*
X130175000Y-94410000D03*
X128905000Y-94410000D03*
X127635000Y-94410000D03*
X126365000Y-94410000D03*
X125095000Y-94410000D03*
X123825000Y-94410000D03*
X122555000Y-94410000D03*
%TD*%
D15*
%TO.C,R24*%
X133800000Y-80400000D03*
X131800000Y-80400000D03*
%TD*%
D16*
%TO.C,R3*%
X125095000Y-115215000D03*
X125095000Y-112115000D03*
%TD*%
D11*
%TO.C,C28*%
X159000000Y-69537500D03*
X159000000Y-67462500D03*
%TD*%
D17*
%TO.C,R14*%
X137795000Y-84185000D03*
X137795000Y-82185000D03*
%TD*%
D18*
%TO.C,U3*%
X160415000Y-108864000D03*
X158115000Y-108864000D03*
X155815000Y-108864000D03*
D19*
X158115000Y-115164000D03*
%TD*%
D20*
%TO.C,R1*%
X128905000Y-89170000D03*
X128905000Y-91170000D03*
%TD*%
D21*
%TO.C,D13*%
X157825000Y-95495000D03*
X157825000Y-96765000D03*
X157825000Y-98035000D03*
X157825000Y-99305000D03*
X162775000Y-99305000D03*
X162775000Y-98035000D03*
X162775000Y-96765000D03*
X162775000Y-95495000D03*
%TD*%
D22*
%TO.C,C1*%
X122152500Y-92075000D03*
X124227500Y-92075000D03*
%TD*%
D23*
%TO.C,C23*%
X131102500Y-107950000D03*
X127977500Y-107950000D03*
%TD*%
D17*
%TO.C,R8*%
X112395000Y-114665000D03*
X112395000Y-112665000D03*
%TD*%
D24*
%TO.C,C20*%
X170815000Y-113830500D03*
X170815000Y-110705500D03*
%TD*%
D15*
%TO.C,R23*%
X167500000Y-77500000D03*
X165500000Y-77500000D03*
%TD*%
D25*
%TO.C,D17*%
X146850000Y-64555000D03*
X146850000Y-65825000D03*
X146850000Y-67095000D03*
X146850000Y-68365000D03*
X146850000Y-69635000D03*
X146850000Y-70905000D03*
X146850000Y-72175000D03*
X146850000Y-73445000D03*
X156150000Y-73445000D03*
X156150000Y-72175000D03*
X156150000Y-70905000D03*
X156150000Y-69635000D03*
X156150000Y-68365000D03*
X156150000Y-67095000D03*
X156150000Y-65825000D03*
X156150000Y-64555000D03*
%TD*%
D12*
%TO.C,C4*%
X137795000Y-89132500D03*
X137795000Y-91207500D03*
%TD*%
D26*
%TO.C,U5*%
X185190000Y-71590000D03*
X183920000Y-71590000D03*
X182650000Y-71590000D03*
X181380000Y-71590000D03*
X181380000Y-76540000D03*
X182650000Y-76540000D03*
X183920000Y-76540000D03*
X185190000Y-76540000D03*
%TD*%
%TO.C,D14*%
X168405000Y-70025000D03*
X167135000Y-70025000D03*
X165865000Y-70025000D03*
X164595000Y-70025000D03*
X164595000Y-74975000D03*
X165865000Y-74975000D03*
X167135000Y-74975000D03*
X168405000Y-74975000D03*
%TD*%
D20*
%TO.C,R2*%
X140335000Y-89170000D03*
X140335000Y-91170000D03*
%TD*%
D17*
%TO.C,R13*%
X140335000Y-84185000D03*
X140335000Y-82185000D03*
%TD*%
D20*
%TO.C,R28*%
X172000000Y-71500000D03*
X172000000Y-73500000D03*
%TD*%
D27*
%TO.C,R26*%
X177500000Y-71500000D03*
X179500000Y-71500000D03*
%TD*%
D16*
%TO.C,R6*%
X146050000Y-115215000D03*
X146050000Y-112115000D03*
%TD*%
D28*
%TO.C,D5*%
X107315000Y-95155000D03*
X107315000Y-99155000D03*
%TD*%
D17*
%TO.C,R25*%
X181500000Y-69000000D03*
X181500000Y-67000000D03*
%TD*%
D16*
%TO.C,R19*%
X140970000Y-115215000D03*
X140970000Y-112115000D03*
%TD*%
D24*
%TO.C,C18*%
X119380000Y-86652500D03*
X119380000Y-83527500D03*
%TD*%
D29*
%TO.C,D10*%
X145415000Y-82160000D03*
X145415000Y-84210000D03*
%TD*%
D30*
%TO.C,C22*%
X170815000Y-105625500D03*
X170815000Y-108750500D03*
%TD*%
D22*
%TO.C,C30*%
X157077500Y-106426000D03*
X159152500Y-106426000D03*
%TD*%
D20*
%TO.C,R30*%
X177700000Y-98400000D03*
X177700000Y-96400000D03*
%TD*%
D31*
%TO.C,D9*%
X142875000Y-84210000D03*
X142875000Y-82160000D03*
%TD*%
D22*
%TO.C,C2*%
X133582500Y-92075000D03*
X135657500Y-92075000D03*
%TD*%
D17*
%TO.C,R7*%
X115570000Y-86090000D03*
X115570000Y-84090000D03*
%TD*%
D11*
%TO.C,C32*%
X175500000Y-73537500D03*
X175500000Y-71462500D03*
%TD*%
D32*
%TO.C,U4*%
X172550000Y-69137500D03*
X173500000Y-69137500D03*
X174450000Y-69137500D03*
X174450000Y-66862500D03*
X172550000Y-66862500D03*
%TD*%
D16*
%TO.C,R16*%
X130175000Y-115215000D03*
X130175000Y-112115000D03*
%TD*%
D33*
%TO.C,C24*%
X122897500Y-107950000D03*
X126022500Y-107950000D03*
%TD*%
D34*
%TO.C,C9*%
X161337500Y-101200000D03*
X159262500Y-101200000D03*
%TD*%
D16*
%TO.C,R22*%
X138430000Y-115215000D03*
X138430000Y-112115000D03*
%TD*%
%TO.C,R17*%
X120015000Y-115215000D03*
X120015000Y-112115000D03*
%TD*%
%TO.C,R15*%
X127635000Y-115215000D03*
X127635000Y-112115000D03*
%TD*%
%TO.C,R20*%
X133350000Y-115215000D03*
X133350000Y-112115000D03*
%TD*%
D32*
%TO.C,D6*%
X125796000Y-84449500D03*
X126746000Y-84449500D03*
X127696000Y-84449500D03*
X127696000Y-82174500D03*
X125796000Y-82174500D03*
%TD*%
D28*
%TO.C,D7*%
X113030000Y-76740000D03*
X113030000Y-80740000D03*
%TD*%
D21*
%TO.C,D15*%
X170425000Y-95495000D03*
X170425000Y-96765000D03*
X170425000Y-98035000D03*
X170425000Y-99305000D03*
X175375000Y-99305000D03*
X175375000Y-98035000D03*
X175375000Y-96765000D03*
X175375000Y-95495000D03*
%TD*%
D24*
%TO.C,C17*%
X152400000Y-86652500D03*
X152400000Y-83527500D03*
%TD*%
D34*
%TO.C,C11*%
X173937500Y-101200000D03*
X171862500Y-101200000D03*
%TD*%
D15*
%TO.C,R32*%
X133800000Y-86000000D03*
X131800000Y-86000000D03*
%TD*%
D26*
%TO.C,D19*%
X190905000Y-71525000D03*
X189635000Y-71525000D03*
X188365000Y-71525000D03*
X187095000Y-71525000D03*
X187095000Y-76475000D03*
X188365000Y-76475000D03*
X189635000Y-76475000D03*
X190905000Y-76475000D03*
%TD*%
D16*
%TO.C,R4*%
X117475000Y-115215000D03*
X117475000Y-112115000D03*
%TD*%
%TO.C,R18*%
X122555000Y-115215000D03*
X122555000Y-112115000D03*
%TD*%
D15*
%TO.C,R29*%
X190000000Y-79145000D03*
X188000000Y-79145000D03*
%TD*%
D16*
%TO.C,R5*%
X143510000Y-115215000D03*
X143510000Y-112115000D03*
%TD*%
D12*
%TO.C,C3*%
X126365000Y-89132500D03*
X126365000Y-91207500D03*
%TD*%
D23*
%TO.C,C25*%
X142532500Y-107950000D03*
X139407500Y-107950000D03*
%TD*%
D33*
%TO.C,C26*%
X134327500Y-107950000D03*
X137452500Y-107950000D03*
%TD*%
D16*
%TO.C,R21*%
X135890000Y-115215000D03*
X135890000Y-112115000D03*
%TD*%
D17*
%TO.C,R27*%
X179000000Y-69000000D03*
X179000000Y-67000000D03*
%TD*%
D11*
%TO.C,C33*%
X176500000Y-69037500D03*
X176500000Y-66962500D03*
%TD*%
D20*
%TO.C,R31*%
X165100000Y-96400000D03*
X165100000Y-98400000D03*
%TD*%
D14*
%TO.C,D2*%
X133985000Y-103710000D03*
X135255000Y-103710000D03*
X136525000Y-103710000D03*
X137795000Y-103710000D03*
X139065000Y-103710000D03*
X140335000Y-103710000D03*
X141605000Y-103710000D03*
X142875000Y-103710000D03*
X142875000Y-94410000D03*
X141605000Y-94410000D03*
X140335000Y-94410000D03*
X139065000Y-94410000D03*
X137795000Y-94410000D03*
X136525000Y-94410000D03*
X135255000Y-94410000D03*
X133985000Y-94410000D03*
%TD*%
M02*
