M48
; DRILL file {KiCad (6.0.1)} date Fri Apr 21 13:11:14 2023
; FORMAT={-:-/ absolute / metric / decimal}
; #@! TF.CreationDate,2023-04-21T13:11:14+03:00
; #@! TF.GenerationSoftware,Kicad,Pcbnew,(6.0.1)
; #@! TF.FileFunction,Plated,1,6,PTH
FMAT,2
METRIC
; #@! TA.AperFunction,Plated,PTH,ViaDrill
T1C0.400
; #@! TA.AperFunction,Plated,PTH,ComponentDrill
T2C0.762
; #@! TA.AperFunction,Plated,PTH,ComponentDrill
T3C0.800
; #@! TA.AperFunction,Plated,PTH,ComponentDrill
T4C1.000
; #@! TA.AperFunction,Plated,PTH,ComponentDrill
T5C1.500
; #@! TA.AperFunction,Plated,PTH,ComponentDrill
T6C5.500
%
G90
G05
T1
X111.633Y-121.793
X113.03Y-107.823
X118.11Y-107.823
X120.269Y-121.793
X120.548Y-88.595
X120.65Y-66.04
X120.65Y-71.12
X121.285Y-92.075
X121.413Y-104.746
X122.072Y-85.039
X122.682Y-104.775
X122.809Y-92.075
X123.952Y-104.775
X124.46Y-66.04
X124.46Y-71.12
X124.612Y-85.039
X125.222Y-92.075
X126.365Y-90.032
X126.492Y-104.775
X127.152Y-83.261
X127.152Y-85.039
X127.889Y-92.075
X128.27Y-66.04
X128.27Y-71.12
X128.27Y-76.2
X128.676Y-85.039
X129.159Y-92.075
X130.429Y-104.775
X130.454Y-85.039
X130.683Y-92.075
X131.216Y-88.595
X133.452Y-88.57
X133.985Y-92.075
X134.112Y-104.775
X134.976Y-85.014
X135.382Y-104.775
X135.509Y-92.075
X136.652Y-104.775
X137.516Y-85.014
X137.922Y-90.043
X137.922Y-92.075
X139.065Y-90.006
X139.192Y-104.775
X140.056Y-83.236
X140.056Y-85.014
X140.589Y-92.075
X141.834Y-85.014
X141.859Y-92.075
X143.358Y-85.014
X143.383Y-92.075
X143.637Y-104.775
X144.12Y-88.57
X146.177Y-85.217
X146.202Y-87.274
X146.304Y-106.172
X146.431Y-128.27
X146.914Y-100.33
X148.933Y-105.575
X150.241Y-77.851
X150.724Y-105.562
X151.994Y-100.635
X152.019Y-98.552
X152.781Y-77.851
X153.264Y-105.562
X154.534Y-105.562
X155.829Y-128.27
X157.074Y-108.001
X157.124Y-83.972
X161.29Y-71.12
X161.29Y-85.979
X161.29Y-88.519
X161.29Y-91.059
X161.29Y-93.599
X161.29Y-98.679
X161.29Y-101.219
X161.29Y-103.759
X161.29Y-106.299
X165.735Y-92.329
X165.735Y-97.409
X165.735Y-99.949
X165.735Y-102.489
X165.735Y-105.029
X165.775Y-89.789
X165.862Y-84.709
X166.37Y-63.5
X166.37Y-71.12
X169.545Y-88.9
X170.307Y-86.741
X171.45Y-63.5
X171.45Y-71.12
X171.856Y-105.47
X171.907Y-93.304
X173.857Y-88.27
X174.396Y-111.058
X174.447Y-98.638
X174.955Y-83.109
X175.362Y-86.36
X176.53Y-63.5
X176.53Y-71.12
X176.53Y-91.313
X177.546Y-80.416
X179.197Y-76.327
X179.197Y-78.613
X179.197Y-80.899
X179.68Y-99.898
X180.975Y-93.345
X181.61Y-63.5
X181.61Y-71.12
X185.522Y-94.945
X185.547Y-100.457
X186.69Y-63.5
X186.69Y-71.12
X191.77Y-63.5
X191.77Y-73.66
X191.77Y-77.47
X191.77Y-81.28
X191.77Y-85.09
X191.77Y-88.9
X191.77Y-111.76
X191.77Y-116.84
X191.77Y-121.92
X191.77Y-127.0
X196.85Y-63.5
X196.85Y-91.44
X196.85Y-106.68
X196.85Y-116.84
X196.85Y-121.92
X196.85Y-127.0
X201.93Y-63.5
X201.93Y-91.44
X201.93Y-96.52
X201.93Y-101.6
X201.93Y-121.92
X201.93Y-127.0
X203.2Y-69.85
X203.2Y-74.93
X207.01Y-66.04
X207.01Y-69.85
X207.01Y-74.93
X207.01Y-91.44
X207.01Y-96.52
X207.01Y-101.6
X207.01Y-116.84
X207.01Y-121.92
X207.01Y-127.0
T2
X92.71Y-68.199
X92.71Y-124.46
X93.472Y-70.739
X93.472Y-127.0
X93.726Y-65.405
X93.726Y-121.666
X96.52Y-64.135
X96.52Y-72.009
X96.52Y-120.396
X96.52Y-128.27
X99.314Y-65.405
X99.314Y-70.739
X99.314Y-121.666
X99.314Y-127.0
X100.33Y-68.199
X100.33Y-124.46
X120.777Y-127.179
X146.088Y-122.758
X199.39Y-79.97
X199.39Y-110.49
X200.152Y-82.51
X200.152Y-113.03
X200.406Y-77.176
X200.406Y-107.696
X203.2Y-75.906
X203.2Y-83.78
X203.2Y-106.426
X203.2Y-114.3
X205.994Y-77.176
X205.994Y-82.51
X205.994Y-107.696
X205.994Y-113.03
X207.01Y-79.97
X207.01Y-110.49
T3
X113.157Y-127.179
X115.697Y-127.179
X118.237Y-127.179
X125.857Y-127.179
X128.397Y-127.179
X130.937Y-127.179
X135.928Y-122.758
X138.469Y-122.758
X141.008Y-122.758
X148.629Y-122.758
X151.168Y-122.758
X153.708Y-122.758
T4
X162.218Y-127.254
X164.757Y-127.254
X167.297Y-127.254
X176.026Y-127.258
X178.566Y-127.258
X181.106Y-127.258
T5
X105.452Y-85.852
X105.452Y-89.662
X105.452Y-104.902
X105.452Y-108.712
X114.572Y-118.232
X118.382Y-76.332
X118.382Y-118.232
X122.192Y-76.332
X126.002Y-118.232
X129.812Y-118.232
X137.432Y-76.332
X137.432Y-118.232
X141.242Y-76.332
X141.242Y-118.232
X148.862Y-118.232
X152.672Y-118.232
X156.482Y-76.332
X160.292Y-76.332
X160.292Y-118.232
X164.102Y-118.232
X171.722Y-76.332
X171.722Y-118.232
X175.532Y-76.332
X175.532Y-118.232
X184.652Y-85.852
X184.652Y-89.662
X184.652Y-104.902
X184.652Y-108.712
T6
X96.52Y-68.199
X96.52Y-124.46
X203.2Y-79.97
X203.2Y-110.49
T0
M30
