%TF.GenerationSoftware,KiCad,Pcbnew,(6.0.1)*%
%TF.CreationDate,2023-04-21T13:11:10+03:00*%
%TF.ProjectId,Driver_Inductor,44726976-6572-45f4-996e-647563746f72,rev?*%
%TF.SameCoordinates,Original*%
%TF.FileFunction,Copper,L3,Inr*%
%TF.FilePolarity,Positive*%
%FSLAX46Y46*%
G04 Gerber Fmt 4.6, Leading zero omitted, Abs format (unit mm)*
G04 Created by KiCad (PCBNEW (6.0.1)) date 2023-04-21 13:11:10*
%MOMM*%
%LPD*%
G01*
G04 APERTURE LIST*
%TA.AperFunction,ComponentPad*%
%ADD10C,10.000000*%
%TD*%
%TA.AperFunction,ComponentPad*%
%ADD11C,1.524000*%
%TD*%
%TA.AperFunction,ComponentPad*%
%ADD12C,3.000000*%
%TD*%
%TA.AperFunction,ComponentPad*%
%ADD13R,1.500000X2.300000*%
%TD*%
%TA.AperFunction,ComponentPad*%
%ADD14O,1.500000X2.300000*%
%TD*%
%TA.AperFunction,ComponentPad*%
%ADD15C,1.500000*%
%TD*%
%TA.AperFunction,ViaPad*%
%ADD16C,0.800000*%
%TD*%
%TA.AperFunction,Conductor*%
%ADD17C,0.500000*%
%TD*%
%TA.AperFunction,Conductor*%
%ADD18C,1.000000*%
%TD*%
G04 APERTURE END LIST*
D10*
%TO.N,OUT2_Sens*%
%TO.C,J5*%
X203200000Y-79970000D03*
D11*
X200152000Y-82510000D03*
X200406000Y-77176000D03*
X205994000Y-77176000D03*
X205994000Y-82510000D03*
X207010000Y-79970000D03*
X199390000Y-79970000D03*
X203200000Y-83780000D03*
X203200000Y-75906000D03*
%TD*%
D10*
%TO.N,OUT1*%
%TO.C,J4*%
X203200000Y-110490000D03*
D11*
X200152000Y-113030000D03*
X200406000Y-107696000D03*
X205994000Y-107696000D03*
X205994000Y-113030000D03*
X207010000Y-110490000D03*
X199390000Y-110490000D03*
X203200000Y-114300000D03*
X203200000Y-106426000D03*
%TD*%
D10*
%TO.N,Net-(D20-Pad27)*%
%TO.C,J3*%
X96520000Y-124460000D03*
D11*
X93472000Y-127000000D03*
X93726000Y-121666000D03*
X99314000Y-121666000D03*
X99314000Y-127000000D03*
X100330000Y-124460000D03*
X92710000Y-124460000D03*
X96520000Y-128270000D03*
X96520000Y-120396000D03*
%TD*%
D10*
%TO.N,DESAT_H*%
%TO.C,J2*%
X96520000Y-68199000D03*
D11*
X93472000Y-70739000D03*
X93726000Y-65405000D03*
X99314000Y-65405000D03*
X99314000Y-70739000D03*
X100330000Y-68199000D03*
X92710000Y-68199000D03*
X96520000Y-72009000D03*
X96520000Y-64135000D03*
%TD*%
D12*
%TO.N,Net-(D20-Pad1)*%
%TO.C,D20*%
X114572000Y-118232000D03*
X118382000Y-118232000D03*
%TO.N,G2*%
X126002000Y-118232000D03*
%TO.N,E2*%
X129812000Y-118232000D03*
%TO.N,G3*%
X137432000Y-118232000D03*
%TO.N,E3*%
X141242000Y-118232000D03*
%TO.N,Net-(D20-Pad7)*%
X148862000Y-118232000D03*
X152672000Y-118232000D03*
%TO.N,Net-(D20-Pad10)*%
X160292000Y-118232000D03*
X164102000Y-118232000D03*
%TO.N,Net-(D20-Pad11)*%
X171722000Y-118232000D03*
X175532000Y-118232000D03*
%TO.N,unconnected-(D20-Pad13)*%
X184652000Y-108712000D03*
%TO.N,unconnected-(D20-Pad14)*%
X184652000Y-104902000D03*
%TO.N,unconnected-(D20-Pad15)*%
X184652000Y-89662000D03*
%TO.N,unconnected-(D20-Pad16)*%
X184652000Y-85852000D03*
%TO.N,NTC1*%
X175532000Y-76332000D03*
%TO.N,NTC2*%
X171722000Y-76332000D03*
%TO.N,unconnected-(D20-Pad19)*%
X160292000Y-76332000D03*
%TO.N,unconnected-(D20-Pad20)*%
X156482000Y-76332000D03*
%TO.N,OUT2*%
X141242000Y-76332000D03*
X137432000Y-76332000D03*
%TO.N,OUT1*%
X122192000Y-76332000D03*
X118382000Y-76332000D03*
%TO.N,DESAT_H*%
X105452000Y-85852000D03*
X105452000Y-89662000D03*
%TO.N,Net-(D20-Pad27)*%
X105452000Y-104902000D03*
X105452000Y-108712000D03*
%TD*%
D13*
%TO.N,+15V*%
%TO.C,U1*%
X162217500Y-127254000D03*
D14*
%TO.N,GND*%
X164757500Y-127254000D03*
%TO.N,+3V3*%
X167297500Y-127254000D03*
%TD*%
D15*
%TO.N,GND*%
%TO.C,D16*%
X135928500Y-122758000D03*
%TO.N,+15V*%
X138468500Y-122758000D03*
%TO.N,unconnected-(D16-Pad3)*%
X141008500Y-122758000D03*
D11*
%TO.N,N/C*%
X146088500Y-122758000D03*
D15*
%TO.N,+15V_H1*%
X148628500Y-122758000D03*
%TO.N,E3*%
X151168500Y-122758000D03*
%TO.N,-15V_H1*%
X153708500Y-122758000D03*
%TD*%
D13*
%TO.N,+15V*%
%TO.C,U2*%
X176026500Y-127258500D03*
D14*
%TO.N,GND*%
X178566500Y-127258500D03*
%TO.N,+5V*%
X181106500Y-127258500D03*
%TD*%
D15*
%TO.N,GND*%
%TO.C,D15*%
X130937000Y-127179000D03*
%TO.N,+15V*%
X128397000Y-127179000D03*
%TO.N,unconnected-(D15-Pad3)*%
X125857000Y-127179000D03*
D11*
%TO.N,N/C*%
X120777000Y-127179000D03*
D15*
%TO.N,+15V_L1*%
X118237000Y-127179000D03*
%TO.N,E2*%
X115697000Y-127179000D03*
%TO.N,-15V_L1*%
X113157000Y-127179000D03*
%TD*%
D16*
%TO.N,OUT2_Sens*%
X203200000Y-69850000D03*
%TO.N,OUT1*%
X191770000Y-73660000D03*
X191770000Y-77470000D03*
X196850000Y-91440000D03*
X191770000Y-88900000D03*
X191770000Y-85090000D03*
X191770000Y-81280000D03*
X186690000Y-71120000D03*
X181610000Y-71120000D03*
X176530000Y-71120000D03*
X171450000Y-71120000D03*
X166370000Y-71120000D03*
X161290000Y-71120000D03*
%TO.N,OUT2_Sens*%
X203200000Y-74930000D03*
X207010000Y-74930000D03*
X207010000Y-69850000D03*
X207010000Y-66040000D03*
X201930000Y-63500000D03*
X196850000Y-63500000D03*
X191770000Y-63500000D03*
X186690000Y-63500000D03*
X181610000Y-63500000D03*
X176530000Y-63500000D03*
X171450000Y-63500000D03*
X166370000Y-63500000D03*
%TO.N,OUT1*%
X191770000Y-111760000D03*
X191770000Y-116840000D03*
X191770000Y-127000000D03*
X191770000Y-121920000D03*
X196850000Y-127000000D03*
X201930000Y-127000000D03*
X207010000Y-127000000D03*
X207010000Y-121920000D03*
X201930000Y-121920000D03*
X128270000Y-76200000D03*
%TO.N,+5V*%
X152781000Y-77851000D03*
%TO.N,Current*%
X150241000Y-77851000D03*
%TO.N,GND*%
X179679600Y-99898200D03*
X133985000Y-92075000D03*
X171907200Y-93303600D03*
X139065000Y-90006300D03*
X126365000Y-90031700D03*
X171856400Y-105470200D03*
X121285000Y-92075000D03*
X143383000Y-92075000D03*
X161290000Y-98679000D03*
X161290000Y-85979000D03*
X128676400Y-85039200D03*
X130683000Y-92075000D03*
X157073600Y-108000800D03*
X161290000Y-103759000D03*
X146304000Y-106172000D03*
X141833600Y-85013800D03*
X161290000Y-106299000D03*
X161290000Y-88519000D03*
X161290000Y-101219000D03*
%TO.N,Net-(C3-Pad2)*%
X120548400Y-88595200D03*
%TO.N,Net-(C4-Pad2)*%
X133451600Y-88569800D03*
%TO.N,Net-(C5-Pad1)*%
X135382000Y-104775000D03*
X113030000Y-107823000D03*
%TO.N,Net-(C6-Pad1)*%
X118110000Y-107823000D03*
X122682000Y-104775000D03*
%TO.N,E2*%
X123952000Y-104775000D03*
%TO.N,FLT_L1*%
X151993600Y-100634800D03*
X127152400Y-83261200D03*
X125222000Y-92075000D03*
%TO.N,RDY_L1*%
X131216400Y-88595200D03*
X146913600Y-100330000D03*
%TO.N,FLT_H1*%
X140055600Y-83235800D03*
X137922000Y-90043000D03*
X152019000Y-98552000D03*
X137922000Y-92075000D03*
%TO.N,RDY_H1*%
X144119600Y-88569800D03*
%TO.N,Net-(C11-Pad1)*%
X154533600Y-105562400D03*
%TO.N,Net-(C12-Pad1)*%
X148932900Y-105575100D03*
%TO.N,Net-(C13-Pad1)*%
X153263600Y-105562400D03*
%TO.N,Net-(C14-Pad1)*%
X150723600Y-105562400D03*
%TO.N,+15V*%
X165735000Y-105029000D03*
X165735000Y-99949000D03*
X165735000Y-97409000D03*
X165735000Y-102489000D03*
%TO.N,+15V_L1*%
X120269000Y-121793000D03*
X126492000Y-104775000D03*
%TO.N,-15V_L1*%
X130429000Y-104775000D03*
X111633000Y-121793000D03*
X121412537Y-104745642D03*
%TO.N,+15V_H1*%
X146431000Y-128270000D03*
X139192000Y-104775000D03*
%TO.N,-15V_H1*%
X134112000Y-104775000D03*
X177546000Y-80416400D03*
X175361600Y-86360000D03*
X143637000Y-104775000D03*
X176530000Y-91313000D03*
X180975000Y-93345000D03*
X179197000Y-76327000D03*
X155829000Y-128270000D03*
%TO.N,Current*%
X165862000Y-84709000D03*
%TO.N,+3.3VA*%
X179197000Y-78613000D03*
X170307000Y-86741000D03*
X185521600Y-94945200D03*
X174955200Y-83108800D03*
%TO.N,Net-(C33-Pad1)*%
X173857500Y-88270500D03*
%TO.N,Net-(C33-Pad2)*%
X169545000Y-88900000D03*
%TO.N,PWM2_P*%
X161290000Y-91059000D03*
X129159000Y-92075000D03*
%TO.N,PWM2_N*%
X127889000Y-92075000D03*
X165775001Y-89789000D03*
%TO.N,PWM1_P*%
X161290000Y-93599000D03*
X141859000Y-92075000D03*
%TO.N,PWM1_N*%
X140589000Y-92075000D03*
X165735000Y-92329000D03*
%TO.N,Net-(D9-Pad2)*%
X124612400Y-85039200D03*
%TO.N,Net-(D10-Pad2)*%
X127152400Y-85039200D03*
%TO.N,Net-(D11-Pad2)*%
X137515600Y-85013800D03*
%TO.N,Net-(D12-Pad2)*%
X140055600Y-85013800D03*
%TO.N,+3V3*%
X146177000Y-85217000D03*
X143357600Y-85013800D03*
X122809000Y-92075000D03*
X174396400Y-111058200D03*
X174447200Y-98637600D03*
X135509000Y-92075000D03*
X185547000Y-100457000D03*
X130454400Y-85039200D03*
%TO.N,RST_H1*%
X146202400Y-87274400D03*
X122072400Y-85039200D03*
X134975600Y-85013800D03*
%TO.N,Net-(C37-Pad1)*%
X157124400Y-83972400D03*
%TO.N,E3*%
X136652000Y-104775000D03*
X179197000Y-80899000D03*
%TO.N,OUT1*%
X120650000Y-66040000D03*
X120650000Y-71120000D03*
X207010000Y-101600000D03*
X196850000Y-106680000D03*
X207010000Y-116840000D03*
X124460000Y-66040000D03*
X124460000Y-71120000D03*
X196850000Y-116840000D03*
X207010000Y-91440000D03*
X128270000Y-71120000D03*
X128270000Y-66040000D03*
X201930000Y-96520000D03*
X196850000Y-121920000D03*
X207010000Y-96520000D03*
X201930000Y-101600000D03*
X201930000Y-91440000D03*
%TD*%
D17*
%TO.N,RDY_L1*%
X127000000Y-91762609D02*
X130167409Y-88595200D01*
X130167409Y-88595200D02*
X131216400Y-88595200D01*
X146939000Y-100304600D02*
X146939000Y-96266000D01*
X144526000Y-93853000D02*
X127635000Y-93853000D01*
X146939000Y-96266000D02*
X144526000Y-93853000D01*
X146913600Y-100330000D02*
X146939000Y-100304600D01*
X127000000Y-93218000D02*
X127000000Y-91762609D01*
X127635000Y-93853000D02*
X127000000Y-93218000D01*
%TO.N,FLT_H1*%
X138771511Y-92924511D02*
X137922000Y-92075000D01*
X152019000Y-98552000D02*
X146391511Y-92924511D01*
X146391511Y-92924511D02*
X138771511Y-92924511D01*
%TO.N,PWM2_P*%
X160719519Y-90488519D02*
X161290000Y-91059000D01*
X134112000Y-90170000D02*
X135509000Y-88773000D01*
X129159000Y-92075000D02*
X131064000Y-90170000D01*
X144427160Y-90488519D02*
X160719519Y-90488519D01*
X143701520Y-90488520D02*
X144427160Y-90488519D01*
X131064000Y-90170000D02*
X134112000Y-90170000D01*
X141986000Y-88773000D02*
X143701520Y-90488520D01*
X135509000Y-88773000D02*
X141986000Y-88773000D01*
%TO.N,PWM2_N*%
X142359409Y-88011000D02*
X135211791Y-88011000D01*
X130519289Y-89444711D02*
X127889000Y-92075000D01*
X133778080Y-89444711D02*
X130519289Y-89444711D01*
X144137409Y-89789000D02*
X142359409Y-88011000D01*
X165775001Y-89789000D02*
X144137409Y-89789000D01*
X135211791Y-88011000D02*
X133778080Y-89444711D01*
%TO.N,RST_H1*%
X124307600Y-87274400D02*
X137566400Y-87274400D01*
X146202400Y-87274400D02*
X137566400Y-87274400D01*
X122072400Y-85039200D02*
X124307600Y-87274400D01*
X137566400Y-87274400D02*
X137236200Y-87274400D01*
X137236200Y-87274400D02*
X134975600Y-85013800D01*
D18*
%TO.N,E3*%
X175514000Y-95504000D02*
X179197000Y-91821000D01*
X141242000Y-118232000D02*
X144912000Y-118232000D01*
X144912000Y-118232000D02*
X156718000Y-106426000D01*
X179197000Y-91821000D02*
X179197000Y-80899000D01*
X156718000Y-98806000D02*
X160020000Y-95504000D01*
X160020000Y-95504000D02*
X175514000Y-95504000D01*
X156718000Y-106426000D02*
X156718000Y-98806000D01*
%TD*%
%TA.AperFunction,Conductor*%
%TO.N,OUT1*%
G36*
X164064955Y-62890001D02*
G01*
X164402041Y-62890001D01*
X164470162Y-62910003D01*
X164516655Y-62963659D01*
X164526759Y-63033933D01*
X164524325Y-63046375D01*
X164493017Y-63172414D01*
X164465585Y-63440151D01*
X164465760Y-63444602D01*
X164472763Y-63622820D01*
X164476152Y-63709083D01*
X164524505Y-63973843D01*
X164609682Y-64229148D01*
X164729981Y-64469905D01*
X164883003Y-64691309D01*
X164886025Y-64694578D01*
X165062679Y-64885682D01*
X165062684Y-64885687D01*
X165065695Y-64888944D01*
X165274411Y-65058866D01*
X165278229Y-65061165D01*
X165278231Y-65061166D01*
X165501170Y-65195386D01*
X165504987Y-65197684D01*
X165509082Y-65199418D01*
X165509084Y-65199419D01*
X165748721Y-65300892D01*
X165748728Y-65300894D01*
X165752822Y-65302628D01*
X165848710Y-65328052D01*
X166008675Y-65370467D01*
X166008680Y-65370468D01*
X166012972Y-65371606D01*
X166017381Y-65372128D01*
X166017387Y-65372129D01*
X166166289Y-65389752D01*
X166280245Y-65403240D01*
X166549310Y-65396899D01*
X166553708Y-65396167D01*
X166810406Y-65353441D01*
X166810410Y-65353440D01*
X166814796Y-65352710D01*
X166819037Y-65351369D01*
X166819040Y-65351368D01*
X167067162Y-65272897D01*
X167067164Y-65272896D01*
X167071408Y-65271554D01*
X167075419Y-65269628D01*
X167075424Y-65269626D01*
X167310006Y-65156981D01*
X167310007Y-65156980D01*
X167314025Y-65155051D01*
X167317731Y-65152575D01*
X167534098Y-65008004D01*
X167534102Y-65008001D01*
X167537806Y-65005526D01*
X167541123Y-65002555D01*
X167541127Y-65002552D01*
X167734970Y-64828931D01*
X167738286Y-64825961D01*
X167798274Y-64754597D01*
X167908601Y-64623348D01*
X167908606Y-64623342D01*
X167911465Y-64619940D01*
X168053887Y-64391572D01*
X168162712Y-64145416D01*
X168235767Y-63886382D01*
X168271595Y-63619638D01*
X168275355Y-63500000D01*
X168256347Y-63231533D01*
X168255411Y-63227184D01*
X168255408Y-63227165D01*
X168215654Y-63042521D01*
X168220870Y-62971716D01*
X168263538Y-62914972D01*
X168330111Y-62890303D01*
X168338831Y-62890001D01*
X169482041Y-62890001D01*
X169550162Y-62910003D01*
X169596655Y-62963659D01*
X169606759Y-63033933D01*
X169604325Y-63046375D01*
X169573017Y-63172414D01*
X169545585Y-63440151D01*
X169545760Y-63444602D01*
X169552763Y-63622820D01*
X169556152Y-63709083D01*
X169604505Y-63973843D01*
X169689682Y-64229148D01*
X169809981Y-64469905D01*
X169963003Y-64691309D01*
X169966025Y-64694578D01*
X170142679Y-64885682D01*
X170142684Y-64885687D01*
X170145695Y-64888944D01*
X170354411Y-65058866D01*
X170358229Y-65061165D01*
X170358231Y-65061166D01*
X170581170Y-65195386D01*
X170584987Y-65197684D01*
X170589082Y-65199418D01*
X170589084Y-65199419D01*
X170828721Y-65300892D01*
X170828728Y-65300894D01*
X170832822Y-65302628D01*
X170928710Y-65328052D01*
X171088675Y-65370467D01*
X171088680Y-65370468D01*
X171092972Y-65371606D01*
X171097381Y-65372128D01*
X171097387Y-65372129D01*
X171246289Y-65389752D01*
X171360245Y-65403240D01*
X171629310Y-65396899D01*
X171633708Y-65396167D01*
X171890406Y-65353441D01*
X171890410Y-65353440D01*
X171894796Y-65352710D01*
X171899037Y-65351369D01*
X171899040Y-65351368D01*
X172147162Y-65272897D01*
X172147164Y-65272896D01*
X172151408Y-65271554D01*
X172155419Y-65269628D01*
X172155424Y-65269626D01*
X172390006Y-65156981D01*
X172390007Y-65156980D01*
X172394025Y-65155051D01*
X172397731Y-65152575D01*
X172614098Y-65008004D01*
X172614102Y-65008001D01*
X172617806Y-65005526D01*
X172621123Y-65002555D01*
X172621127Y-65002552D01*
X172814970Y-64828931D01*
X172818286Y-64825961D01*
X172878274Y-64754597D01*
X172988601Y-64623348D01*
X172988606Y-64623342D01*
X172991465Y-64619940D01*
X173133887Y-64391572D01*
X173242712Y-64145416D01*
X173315767Y-63886382D01*
X173351595Y-63619638D01*
X173355355Y-63500000D01*
X173336347Y-63231533D01*
X173335411Y-63227184D01*
X173335408Y-63227165D01*
X173295654Y-63042521D01*
X173300870Y-62971716D01*
X173343538Y-62914972D01*
X173410111Y-62890303D01*
X173418831Y-62890001D01*
X174562041Y-62890001D01*
X174630162Y-62910003D01*
X174676655Y-62963659D01*
X174686759Y-63033933D01*
X174684325Y-63046375D01*
X174653017Y-63172414D01*
X174625585Y-63440151D01*
X174625760Y-63444602D01*
X174632763Y-63622820D01*
X174636152Y-63709083D01*
X174684505Y-63973843D01*
X174769682Y-64229148D01*
X174889981Y-64469905D01*
X175043003Y-64691309D01*
X175046025Y-64694578D01*
X175222679Y-64885682D01*
X175222684Y-64885687D01*
X175225695Y-64888944D01*
X175434411Y-65058866D01*
X175438229Y-65061165D01*
X175438231Y-65061166D01*
X175661170Y-65195386D01*
X175664987Y-65197684D01*
X175669082Y-65199418D01*
X175669084Y-65199419D01*
X175908721Y-65300892D01*
X175908728Y-65300894D01*
X175912822Y-65302628D01*
X176008710Y-65328052D01*
X176168675Y-65370467D01*
X176168680Y-65370468D01*
X176172972Y-65371606D01*
X176177381Y-65372128D01*
X176177387Y-65372129D01*
X176326289Y-65389752D01*
X176440245Y-65403240D01*
X176709310Y-65396899D01*
X176713708Y-65396167D01*
X176970406Y-65353441D01*
X176970410Y-65353440D01*
X176974796Y-65352710D01*
X176979037Y-65351369D01*
X176979040Y-65351368D01*
X177227162Y-65272897D01*
X177227164Y-65272896D01*
X177231408Y-65271554D01*
X177235419Y-65269628D01*
X177235424Y-65269626D01*
X177470006Y-65156981D01*
X177470007Y-65156980D01*
X177474025Y-65155051D01*
X177477731Y-65152575D01*
X177694098Y-65008004D01*
X177694102Y-65008001D01*
X177697806Y-65005526D01*
X177701123Y-65002555D01*
X177701127Y-65002552D01*
X177894970Y-64828931D01*
X177898286Y-64825961D01*
X177958274Y-64754597D01*
X178068601Y-64623348D01*
X178068606Y-64623342D01*
X178071465Y-64619940D01*
X178213887Y-64391572D01*
X178322712Y-64145416D01*
X178395767Y-63886382D01*
X178431595Y-63619638D01*
X178435355Y-63500000D01*
X178416347Y-63231533D01*
X178415411Y-63227184D01*
X178415408Y-63227165D01*
X178375654Y-63042521D01*
X178380870Y-62971716D01*
X178423538Y-62914972D01*
X178490111Y-62890303D01*
X178498831Y-62890001D01*
X179642041Y-62890001D01*
X179710162Y-62910003D01*
X179756655Y-62963659D01*
X179766759Y-63033933D01*
X179764325Y-63046375D01*
X179733017Y-63172414D01*
X179705585Y-63440151D01*
X179705760Y-63444602D01*
X179712763Y-63622820D01*
X179716152Y-63709083D01*
X179764505Y-63973843D01*
X179849682Y-64229148D01*
X179969981Y-64469905D01*
X180123003Y-64691309D01*
X180126025Y-64694578D01*
X180302679Y-64885682D01*
X180302684Y-64885687D01*
X180305695Y-64888944D01*
X180514411Y-65058866D01*
X180518229Y-65061165D01*
X180518231Y-65061166D01*
X180741170Y-65195386D01*
X180744987Y-65197684D01*
X180749082Y-65199418D01*
X180749084Y-65199419D01*
X180988721Y-65300892D01*
X180988728Y-65300894D01*
X180992822Y-65302628D01*
X181088710Y-65328052D01*
X181248675Y-65370467D01*
X181248680Y-65370468D01*
X181252972Y-65371606D01*
X181257381Y-65372128D01*
X181257387Y-65372129D01*
X181406289Y-65389752D01*
X181520245Y-65403240D01*
X181789310Y-65396899D01*
X181793708Y-65396167D01*
X182050406Y-65353441D01*
X182050410Y-65353440D01*
X182054796Y-65352710D01*
X182059037Y-65351369D01*
X182059040Y-65351368D01*
X182307162Y-65272897D01*
X182307164Y-65272896D01*
X182311408Y-65271554D01*
X182315419Y-65269628D01*
X182315424Y-65269626D01*
X182550006Y-65156981D01*
X182550007Y-65156980D01*
X182554025Y-65155051D01*
X182557731Y-65152575D01*
X182774098Y-65008004D01*
X182774102Y-65008001D01*
X182777806Y-65005526D01*
X182781123Y-65002555D01*
X182781127Y-65002552D01*
X182974970Y-64828931D01*
X182978286Y-64825961D01*
X183038274Y-64754597D01*
X183148601Y-64623348D01*
X183148606Y-64623342D01*
X183151465Y-64619940D01*
X183293887Y-64391572D01*
X183402712Y-64145416D01*
X183475767Y-63886382D01*
X183511595Y-63619638D01*
X183515355Y-63500000D01*
X183496347Y-63231533D01*
X183495411Y-63227184D01*
X183495408Y-63227165D01*
X183455654Y-63042521D01*
X183460870Y-62971716D01*
X183503538Y-62914972D01*
X183570111Y-62890303D01*
X183578831Y-62890001D01*
X184722041Y-62890001D01*
X184790162Y-62910003D01*
X184836655Y-62963659D01*
X184846759Y-63033933D01*
X184844325Y-63046375D01*
X184813017Y-63172414D01*
X184785585Y-63440151D01*
X184785760Y-63444602D01*
X184792763Y-63622820D01*
X184796152Y-63709083D01*
X184844505Y-63973843D01*
X184929682Y-64229148D01*
X185049981Y-64469905D01*
X185203003Y-64691309D01*
X185206025Y-64694578D01*
X185382679Y-64885682D01*
X185382684Y-64885687D01*
X185385695Y-64888944D01*
X185594411Y-65058866D01*
X185598229Y-65061165D01*
X185598231Y-65061166D01*
X185821170Y-65195386D01*
X185824987Y-65197684D01*
X185829082Y-65199418D01*
X185829084Y-65199419D01*
X186068721Y-65300892D01*
X186068728Y-65300894D01*
X186072822Y-65302628D01*
X186168710Y-65328052D01*
X186328675Y-65370467D01*
X186328680Y-65370468D01*
X186332972Y-65371606D01*
X186337381Y-65372128D01*
X186337387Y-65372129D01*
X186486289Y-65389752D01*
X186600245Y-65403240D01*
X186869310Y-65396899D01*
X186873708Y-65396167D01*
X187130406Y-65353441D01*
X187130410Y-65353440D01*
X187134796Y-65352710D01*
X187139037Y-65351369D01*
X187139040Y-65351368D01*
X187387162Y-65272897D01*
X187387164Y-65272896D01*
X187391408Y-65271554D01*
X187395419Y-65269628D01*
X187395424Y-65269626D01*
X187630006Y-65156981D01*
X187630007Y-65156980D01*
X187634025Y-65155051D01*
X187637731Y-65152575D01*
X187854098Y-65008004D01*
X187854102Y-65008001D01*
X187857806Y-65005526D01*
X187861123Y-65002555D01*
X187861127Y-65002552D01*
X188054970Y-64828931D01*
X188058286Y-64825961D01*
X188118274Y-64754597D01*
X188228601Y-64623348D01*
X188228606Y-64623342D01*
X188231465Y-64619940D01*
X188373887Y-64391572D01*
X188482712Y-64145416D01*
X188555767Y-63886382D01*
X188591595Y-63619638D01*
X188595355Y-63500000D01*
X188576347Y-63231533D01*
X188575411Y-63227184D01*
X188575408Y-63227165D01*
X188535654Y-63042521D01*
X188540870Y-62971716D01*
X188583538Y-62914972D01*
X188650111Y-62890303D01*
X188658831Y-62890001D01*
X189802041Y-62890001D01*
X189870162Y-62910003D01*
X189916655Y-62963659D01*
X189926759Y-63033933D01*
X189924325Y-63046375D01*
X189893017Y-63172414D01*
X189865585Y-63440151D01*
X189865760Y-63444602D01*
X189872763Y-63622820D01*
X189876152Y-63709083D01*
X189924505Y-63973843D01*
X190009682Y-64229148D01*
X190129981Y-64469905D01*
X190283003Y-64691309D01*
X190286025Y-64694578D01*
X190462679Y-64885682D01*
X190462684Y-64885687D01*
X190465695Y-64888944D01*
X190674411Y-65058866D01*
X190678229Y-65061165D01*
X190678231Y-65061166D01*
X190901170Y-65195386D01*
X190904987Y-65197684D01*
X190909082Y-65199418D01*
X190909084Y-65199419D01*
X191148721Y-65300892D01*
X191148728Y-65300894D01*
X191152822Y-65302628D01*
X191248710Y-65328052D01*
X191408675Y-65370467D01*
X191408680Y-65370468D01*
X191412972Y-65371606D01*
X191417381Y-65372128D01*
X191417387Y-65372129D01*
X191566289Y-65389752D01*
X191680245Y-65403240D01*
X191949310Y-65396899D01*
X191953708Y-65396167D01*
X192210406Y-65353441D01*
X192210410Y-65353440D01*
X192214796Y-65352710D01*
X192219037Y-65351369D01*
X192219040Y-65351368D01*
X192467162Y-65272897D01*
X192467164Y-65272896D01*
X192471408Y-65271554D01*
X192475419Y-65269628D01*
X192475424Y-65269626D01*
X192710006Y-65156981D01*
X192710007Y-65156980D01*
X192714025Y-65155051D01*
X192717731Y-65152575D01*
X192934098Y-65008004D01*
X192934102Y-65008001D01*
X192937806Y-65005526D01*
X192941123Y-65002555D01*
X192941127Y-65002552D01*
X193134970Y-64828931D01*
X193138286Y-64825961D01*
X193198274Y-64754597D01*
X193308601Y-64623348D01*
X193308606Y-64623342D01*
X193311465Y-64619940D01*
X193453887Y-64391572D01*
X193562712Y-64145416D01*
X193635767Y-63886382D01*
X193671595Y-63619638D01*
X193675355Y-63500000D01*
X193656347Y-63231533D01*
X193655411Y-63227184D01*
X193655408Y-63227165D01*
X193615654Y-63042521D01*
X193620870Y-62971716D01*
X193663538Y-62914972D01*
X193730111Y-62890303D01*
X193738831Y-62890001D01*
X194882041Y-62890001D01*
X194950162Y-62910003D01*
X194996655Y-62963659D01*
X195006759Y-63033933D01*
X195004325Y-63046375D01*
X194973017Y-63172414D01*
X194945585Y-63440151D01*
X194945760Y-63444602D01*
X194952763Y-63622820D01*
X194956152Y-63709083D01*
X195004505Y-63973843D01*
X195089682Y-64229148D01*
X195209981Y-64469905D01*
X195363003Y-64691309D01*
X195366025Y-64694578D01*
X195542679Y-64885682D01*
X195542684Y-64885687D01*
X195545695Y-64888944D01*
X195754411Y-65058866D01*
X195758229Y-65061165D01*
X195758231Y-65061166D01*
X195981170Y-65195386D01*
X195984987Y-65197684D01*
X195989082Y-65199418D01*
X195989084Y-65199419D01*
X196228721Y-65300892D01*
X196228728Y-65300894D01*
X196232822Y-65302628D01*
X196328710Y-65328052D01*
X196488675Y-65370467D01*
X196488680Y-65370468D01*
X196492972Y-65371606D01*
X196497381Y-65372128D01*
X196497387Y-65372129D01*
X196646289Y-65389752D01*
X196760245Y-65403240D01*
X197029310Y-65396899D01*
X197033708Y-65396167D01*
X197290406Y-65353441D01*
X197290410Y-65353440D01*
X197294796Y-65352710D01*
X197299037Y-65351369D01*
X197299040Y-65351368D01*
X197547162Y-65272897D01*
X197547164Y-65272896D01*
X197551408Y-65271554D01*
X197555419Y-65269628D01*
X197555424Y-65269626D01*
X197790006Y-65156981D01*
X197790007Y-65156980D01*
X197794025Y-65155051D01*
X197797731Y-65152575D01*
X198014098Y-65008004D01*
X198014102Y-65008001D01*
X198017806Y-65005526D01*
X198021123Y-65002555D01*
X198021127Y-65002552D01*
X198214970Y-64828931D01*
X198218286Y-64825961D01*
X198278274Y-64754597D01*
X198388601Y-64623348D01*
X198388606Y-64623342D01*
X198391465Y-64619940D01*
X198533887Y-64391572D01*
X198642712Y-64145416D01*
X198715767Y-63886382D01*
X198751595Y-63619638D01*
X198755355Y-63500000D01*
X198736347Y-63231533D01*
X198735411Y-63227184D01*
X198735408Y-63227165D01*
X198695654Y-63042521D01*
X198700870Y-62971716D01*
X198743538Y-62914972D01*
X198810111Y-62890303D01*
X198818831Y-62890001D01*
X199962041Y-62890001D01*
X200030162Y-62910003D01*
X200076655Y-62963659D01*
X200086759Y-63033933D01*
X200084325Y-63046375D01*
X200053017Y-63172414D01*
X200025585Y-63440151D01*
X200025760Y-63444602D01*
X200032763Y-63622820D01*
X200036152Y-63709083D01*
X200084505Y-63973843D01*
X200169682Y-64229148D01*
X200289981Y-64469905D01*
X200443003Y-64691309D01*
X200446025Y-64694578D01*
X200622679Y-64885682D01*
X200622684Y-64885687D01*
X200625695Y-64888944D01*
X200834411Y-65058866D01*
X200838229Y-65061165D01*
X200838231Y-65061166D01*
X201061170Y-65195386D01*
X201064987Y-65197684D01*
X201069082Y-65199418D01*
X201069084Y-65199419D01*
X201308721Y-65300892D01*
X201308728Y-65300894D01*
X201312822Y-65302628D01*
X201408710Y-65328052D01*
X201568675Y-65370467D01*
X201568680Y-65370468D01*
X201572972Y-65371606D01*
X201577381Y-65372128D01*
X201577387Y-65372129D01*
X201726289Y-65389752D01*
X201840245Y-65403240D01*
X202109310Y-65396899D01*
X202113708Y-65396167D01*
X202370406Y-65353441D01*
X202370410Y-65353440D01*
X202374796Y-65352710D01*
X202379037Y-65351369D01*
X202379040Y-65351368D01*
X202627162Y-65272897D01*
X202627164Y-65272896D01*
X202631408Y-65271554D01*
X202635419Y-65269628D01*
X202635424Y-65269626D01*
X202870006Y-65156981D01*
X202870007Y-65156980D01*
X202874025Y-65155051D01*
X202877731Y-65152575D01*
X203094098Y-65008004D01*
X203094102Y-65008001D01*
X203097806Y-65005526D01*
X203101123Y-65002555D01*
X203101127Y-65002552D01*
X203294970Y-64828931D01*
X203298286Y-64825961D01*
X203358274Y-64754597D01*
X203468601Y-64623348D01*
X203468606Y-64623342D01*
X203471465Y-64619940D01*
X203613887Y-64391572D01*
X203722712Y-64145416D01*
X203795767Y-63886382D01*
X203831595Y-63619638D01*
X203835355Y-63500000D01*
X203816347Y-63231533D01*
X203815411Y-63227184D01*
X203815408Y-63227165D01*
X203775654Y-63042521D01*
X203780870Y-62971716D01*
X203823538Y-62914972D01*
X203890111Y-62890303D01*
X203898831Y-62890001D01*
X204334605Y-62890001D01*
X204347994Y-62890714D01*
X204380094Y-62894145D01*
X204380100Y-62894145D01*
X204385226Y-62894693D01*
X204390378Y-62894396D01*
X204390382Y-62894396D01*
X204439400Y-62891569D01*
X204452821Y-62891511D01*
X204759985Y-62906563D01*
X204772259Y-62907769D01*
X204936577Y-62932081D01*
X205100901Y-62956393D01*
X205112984Y-62958790D01*
X205338883Y-63015225D01*
X205435295Y-63039311D01*
X205447100Y-63042882D01*
X205760005Y-63154533D01*
X205771402Y-63159241D01*
X205924696Y-63231533D01*
X206071876Y-63300942D01*
X206082748Y-63306735D01*
X206298618Y-63435720D01*
X206367944Y-63477143D01*
X206378209Y-63483980D01*
X206645369Y-63681448D01*
X206654916Y-63689256D01*
X206901492Y-63911900D01*
X206910228Y-63920601D01*
X206923698Y-63935399D01*
X206954760Y-63999238D01*
X206946377Y-64069738D01*
X206901209Y-64124514D01*
X206837442Y-64146023D01*
X206810169Y-64147524D01*
X206771196Y-64149669D01*
X206766833Y-64150537D01*
X206766832Y-64150537D01*
X206511596Y-64201307D01*
X206511594Y-64201308D01*
X206507228Y-64202176D01*
X206253292Y-64291352D01*
X206014455Y-64415418D01*
X206010840Y-64418001D01*
X206010834Y-64418005D01*
X205905170Y-64493514D01*
X205795481Y-64571899D01*
X205792254Y-64574977D01*
X205792252Y-64574979D01*
X205666880Y-64694578D01*
X205600740Y-64757672D01*
X205434118Y-64969032D01*
X205383573Y-65056052D01*
X205301173Y-65197913D01*
X205301170Y-65197919D01*
X205298939Y-65201760D01*
X205297269Y-65205883D01*
X205217374Y-65403135D01*
X205197900Y-65451213D01*
X205133017Y-65712414D01*
X205105585Y-65980151D01*
X205116152Y-66249083D01*
X205164505Y-66513843D01*
X205249682Y-66769148D01*
X205369981Y-67009905D01*
X205523003Y-67231309D01*
X205526025Y-67234578D01*
X205702679Y-67425682D01*
X205702684Y-67425687D01*
X205705695Y-67428944D01*
X205914411Y-67598866D01*
X206144987Y-67737684D01*
X206149082Y-67739418D01*
X206149084Y-67739419D01*
X206363655Y-67830278D01*
X206418584Y-67875259D01*
X206440475Y-67942797D01*
X206422377Y-68011448D01*
X206370037Y-68059417D01*
X206356272Y-68065188D01*
X206253292Y-68101352D01*
X206014455Y-68225418D01*
X206010840Y-68228001D01*
X206010834Y-68228005D01*
X205965793Y-68260192D01*
X205795481Y-68381899D01*
X205600740Y-68567672D01*
X205434118Y-68779032D01*
X205402785Y-68832976D01*
X205301173Y-69007913D01*
X205301170Y-69007919D01*
X205298939Y-69011760D01*
X205297269Y-69015883D01*
X205221099Y-69203938D01*
X205176986Y-69259567D01*
X205109801Y-69282517D01*
X205040874Y-69265499D01*
X204992089Y-69213919D01*
X204986103Y-69200247D01*
X204938088Y-69070097D01*
X204936547Y-69065919D01*
X204928353Y-69050732D01*
X204810857Y-68832976D01*
X204808744Y-68829060D01*
X204694174Y-68673944D01*
X204651492Y-68616157D01*
X204651489Y-68616154D01*
X204648843Y-68612571D01*
X204460034Y-68420772D01*
X204246083Y-68257490D01*
X204193434Y-68228005D01*
X204015147Y-68128159D01*
X204015144Y-68128158D01*
X204011261Y-68125983D01*
X204007122Y-68124382D01*
X204007114Y-68124378D01*
X203821566Y-68052596D01*
X203760251Y-68028875D01*
X203755926Y-68027872D01*
X203755921Y-68027871D01*
X203611864Y-67994481D01*
X203498063Y-67968103D01*
X203229928Y-67944880D01*
X203225493Y-67945124D01*
X203225489Y-67945124D01*
X203116324Y-67951132D01*
X202961196Y-67959669D01*
X202956833Y-67960537D01*
X202956832Y-67960537D01*
X202701596Y-68011307D01*
X202701594Y-68011308D01*
X202697228Y-68012176D01*
X202443292Y-68101352D01*
X202204455Y-68225418D01*
X202200840Y-68228001D01*
X202200834Y-68228005D01*
X202155793Y-68260192D01*
X201985481Y-68381899D01*
X201790740Y-68567672D01*
X201624118Y-68779032D01*
X201592785Y-68832976D01*
X201491173Y-69007913D01*
X201491170Y-69007919D01*
X201488939Y-69011760D01*
X201487269Y-69015883D01*
X201397209Y-69238231D01*
X201387900Y-69261213D01*
X201323017Y-69522414D01*
X201295585Y-69790151D01*
X201306152Y-70059083D01*
X201354505Y-70323843D01*
X201439682Y-70579148D01*
X201559981Y-70819905D01*
X201713003Y-71041309D01*
X201716025Y-71044578D01*
X201892679Y-71235682D01*
X201892684Y-71235687D01*
X201895695Y-71238944D01*
X202104411Y-71408866D01*
X202108229Y-71411165D01*
X202108231Y-71411166D01*
X202318850Y-71537969D01*
X202334987Y-71547684D01*
X202339082Y-71549418D01*
X202339084Y-71549419D01*
X202578721Y-71650892D01*
X202578728Y-71650894D01*
X202582822Y-71652628D01*
X202660711Y-71673280D01*
X202838675Y-71720467D01*
X202838680Y-71720468D01*
X202842972Y-71721606D01*
X202847381Y-71722128D01*
X202847387Y-71722129D01*
X202996289Y-71739752D01*
X203110245Y-71753240D01*
X203379310Y-71746899D01*
X203383708Y-71746167D01*
X203640406Y-71703441D01*
X203640410Y-71703440D01*
X203644796Y-71702710D01*
X203649037Y-71701369D01*
X203649040Y-71701368D01*
X203897162Y-71622897D01*
X203897164Y-71622896D01*
X203901408Y-71621554D01*
X203905419Y-71619628D01*
X203905424Y-71619626D01*
X204140006Y-71506981D01*
X204140007Y-71506980D01*
X204144025Y-71505051D01*
X204147731Y-71502575D01*
X204364098Y-71358004D01*
X204364102Y-71358001D01*
X204367806Y-71355526D01*
X204371123Y-71352555D01*
X204371127Y-71352552D01*
X204564970Y-71178931D01*
X204568286Y-71175961D01*
X204581180Y-71160622D01*
X204738601Y-70973348D01*
X204738606Y-70973342D01*
X204741465Y-70969940D01*
X204883887Y-70741572D01*
X204991552Y-70498040D01*
X205037390Y-70443825D01*
X205105263Y-70422997D01*
X205173621Y-70442171D01*
X205220762Y-70495259D01*
X205226316Y-70509112D01*
X205249682Y-70579148D01*
X205369981Y-70819905D01*
X205523003Y-71041309D01*
X205526025Y-71044578D01*
X205702679Y-71235682D01*
X205702684Y-71235687D01*
X205705695Y-71238944D01*
X205914411Y-71408866D01*
X205918229Y-71411165D01*
X205918231Y-71411166D01*
X206128850Y-71537969D01*
X206144987Y-71547684D01*
X206149082Y-71549418D01*
X206149084Y-71549419D01*
X206388721Y-71650892D01*
X206388728Y-71650894D01*
X206392822Y-71652628D01*
X206470711Y-71673280D01*
X206648675Y-71720467D01*
X206648680Y-71720468D01*
X206652972Y-71721606D01*
X206657381Y-71722128D01*
X206657387Y-71722129D01*
X206806289Y-71739752D01*
X206920245Y-71753240D01*
X207189310Y-71746899D01*
X207193708Y-71746167D01*
X207450406Y-71703441D01*
X207450410Y-71703440D01*
X207454796Y-71702710D01*
X207459037Y-71701369D01*
X207459040Y-71701368D01*
X207707162Y-71622897D01*
X207707164Y-71622896D01*
X207711408Y-71621554D01*
X207761459Y-71597520D01*
X207831524Y-71586063D01*
X207896661Y-71614305D01*
X207936189Y-71673280D01*
X207942000Y-71711103D01*
X207942000Y-73068847D01*
X207921998Y-73136968D01*
X207868342Y-73183461D01*
X207798068Y-73193565D01*
X207770538Y-73186360D01*
X207763045Y-73183461D01*
X207570251Y-73108875D01*
X207565926Y-73107872D01*
X207565921Y-73107871D01*
X207421864Y-73074481D01*
X207308063Y-73048103D01*
X207039928Y-73024880D01*
X207035493Y-73025124D01*
X207035489Y-73025124D01*
X206926324Y-73031132D01*
X206771196Y-73039669D01*
X206766833Y-73040537D01*
X206766832Y-73040537D01*
X206511596Y-73091307D01*
X206511594Y-73091308D01*
X206507228Y-73092176D01*
X206253292Y-73181352D01*
X206014455Y-73305418D01*
X206010840Y-73308001D01*
X206010834Y-73308005D01*
X205965793Y-73340192D01*
X205795481Y-73461899D01*
X205792254Y-73464977D01*
X205792252Y-73464979D01*
X205626637Y-73622968D01*
X205600740Y-73647672D01*
X205597984Y-73651168D01*
X205486871Y-73792114D01*
X205428990Y-73833227D01*
X205358070Y-73836521D01*
X205344311Y-73832320D01*
X205212651Y-73783748D01*
X205212633Y-73783742D01*
X205210315Y-73782887D01*
X205207931Y-73782215D01*
X205207926Y-73782213D01*
X205004943Y-73724966D01*
X204718683Y-73644232D01*
X204660013Y-73632562D01*
X204610683Y-73622749D01*
X204545473Y-73587563D01*
X204463165Y-73503953D01*
X204460034Y-73500772D01*
X204246083Y-73337490D01*
X204193434Y-73308005D01*
X204015147Y-73208159D01*
X204015144Y-73208158D01*
X204011261Y-73205983D01*
X204007122Y-73204382D01*
X204007114Y-73204378D01*
X203811136Y-73128561D01*
X203760251Y-73108875D01*
X203755926Y-73107872D01*
X203755921Y-73107871D01*
X203611864Y-73074481D01*
X203498063Y-73048103D01*
X203229928Y-73024880D01*
X203225493Y-73025124D01*
X203225489Y-73025124D01*
X203116324Y-73031132D01*
X202961196Y-73039669D01*
X202956833Y-73040537D01*
X202956832Y-73040537D01*
X202701596Y-73091307D01*
X202701594Y-73091308D01*
X202697228Y-73092176D01*
X202443292Y-73181352D01*
X202204455Y-73305418D01*
X202200840Y-73308001D01*
X202200834Y-73308005D01*
X202155793Y-73340192D01*
X201985481Y-73461899D01*
X201982254Y-73464977D01*
X201982252Y-73464979D01*
X201947568Y-73498066D01*
X201853751Y-73587563D01*
X201850610Y-73590559D01*
X201788221Y-73622967D01*
X201681317Y-73644232D01*
X201678941Y-73644902D01*
X201678929Y-73644905D01*
X201192074Y-73782213D01*
X201192069Y-73782215D01*
X201189685Y-73782887D01*
X200710447Y-73959687D01*
X200708212Y-73960717D01*
X200708208Y-73960719D01*
X200594394Y-74013188D01*
X200246558Y-74173543D01*
X200244419Y-74174741D01*
X200244409Y-74174746D01*
X200076003Y-74269058D01*
X199800877Y-74423136D01*
X199798824Y-74424508D01*
X199798822Y-74424509D01*
X199393943Y-74695041D01*
X199376154Y-74706927D01*
X199288785Y-74775803D01*
X199009960Y-74995611D01*
X198975005Y-75023167D01*
X198973191Y-75024844D01*
X198973185Y-75024849D01*
X198756047Y-75225570D01*
X198599906Y-75369906D01*
X198598243Y-75371705D01*
X198344990Y-75645672D01*
X198253167Y-75745005D01*
X198251635Y-75746948D01*
X198251631Y-75746953D01*
X198095047Y-75945580D01*
X197936927Y-76146154D01*
X197935550Y-76148215D01*
X197935547Y-76148219D01*
X197654609Y-76568672D01*
X197653136Y-76570877D01*
X197536004Y-76780032D01*
X197405670Y-77012760D01*
X197403543Y-77016558D01*
X197189687Y-77480447D01*
X197012887Y-77959685D01*
X197012215Y-77962069D01*
X197012213Y-77962074D01*
X196878863Y-78434898D01*
X196874232Y-78451317D01*
X196873751Y-78453737D01*
X196873748Y-78453748D01*
X196832383Y-78661706D01*
X196774578Y-78952313D01*
X196714538Y-79459583D01*
X196694484Y-79970000D01*
X196714538Y-80480417D01*
X196714827Y-80482862D01*
X196714828Y-80482870D01*
X196731708Y-80625483D01*
X196774578Y-80987687D01*
X196775061Y-80990114D01*
X196873344Y-81484218D01*
X196874232Y-81488683D01*
X196874902Y-81491059D01*
X196874905Y-81491071D01*
X196971050Y-81831972D01*
X197012887Y-81980315D01*
X197189687Y-82459553D01*
X197403543Y-82923442D01*
X197404741Y-82925581D01*
X197404746Y-82925591D01*
X197473831Y-83048951D01*
X197653136Y-83369123D01*
X197654508Y-83371176D01*
X197654509Y-83371178D01*
X197925251Y-83776371D01*
X197936927Y-83793846D01*
X198054378Y-83942832D01*
X198237846Y-84175560D01*
X198253167Y-84194995D01*
X198254844Y-84196809D01*
X198254849Y-84196815D01*
X198581120Y-84549772D01*
X198599906Y-84570094D01*
X198601705Y-84571757D01*
X198948032Y-84891899D01*
X198975005Y-84916833D01*
X198976948Y-84918365D01*
X198976953Y-84918369D01*
X199102045Y-85016983D01*
X199376154Y-85233073D01*
X199378215Y-85234450D01*
X199378219Y-85234453D01*
X199795158Y-85513043D01*
X199800877Y-85516864D01*
X199998345Y-85627451D01*
X200244409Y-85765254D01*
X200244419Y-85765259D01*
X200246558Y-85766457D01*
X200382094Y-85828940D01*
X200707599Y-85979000D01*
X200710447Y-85980313D01*
X201189685Y-86157113D01*
X201192069Y-86157785D01*
X201192074Y-86157787D01*
X201678929Y-86295095D01*
X201678941Y-86295098D01*
X201681317Y-86295768D01*
X201683737Y-86296249D01*
X201683748Y-86296252D01*
X202005646Y-86360281D01*
X202182313Y-86395422D01*
X202317529Y-86411426D01*
X202687130Y-86455172D01*
X202687138Y-86455173D01*
X202689583Y-86455462D01*
X203200000Y-86475516D01*
X203710417Y-86455462D01*
X203712862Y-86455173D01*
X203712870Y-86455172D01*
X204082471Y-86411426D01*
X204217687Y-86395422D01*
X204394354Y-86360281D01*
X204716252Y-86296252D01*
X204716263Y-86296249D01*
X204718683Y-86295768D01*
X204721059Y-86295098D01*
X204721071Y-86295095D01*
X205207926Y-86157787D01*
X205207931Y-86157785D01*
X205210315Y-86157113D01*
X205689553Y-85980313D01*
X205692402Y-85979000D01*
X206017906Y-85828940D01*
X206153442Y-85766457D01*
X206155581Y-85765259D01*
X206155591Y-85765254D01*
X206401655Y-85627451D01*
X206599123Y-85516864D01*
X206604842Y-85513043D01*
X207021781Y-85234453D01*
X207021785Y-85234450D01*
X207023846Y-85233073D01*
X207297955Y-85016983D01*
X207423047Y-84918369D01*
X207423052Y-84918365D01*
X207424995Y-84916833D01*
X207451969Y-84891899D01*
X207730471Y-84634453D01*
X207794071Y-84602901D01*
X207864633Y-84610742D01*
X207919755Y-84655487D01*
X207942000Y-84726978D01*
X207942000Y-126152605D01*
X207941287Y-126165993D01*
X207937308Y-126203226D01*
X207937605Y-126208378D01*
X207937605Y-126208381D01*
X207940430Y-126257366D01*
X207940487Y-126270799D01*
X207926271Y-126560191D01*
X207925451Y-126576877D01*
X207924240Y-126589177D01*
X207886919Y-126840772D01*
X207875657Y-126916691D01*
X207873248Y-126928806D01*
X207793028Y-127249060D01*
X207792796Y-127249988D01*
X207789207Y-127261820D01*
X207677663Y-127573564D01*
X207672931Y-127584988D01*
X207543606Y-127858425D01*
X207531370Y-127884295D01*
X207525541Y-127895200D01*
X207355324Y-128179190D01*
X207348454Y-128189471D01*
X207151224Y-128455404D01*
X207143380Y-128464962D01*
X206921031Y-128710287D01*
X206912287Y-128719031D01*
X206666962Y-128941380D01*
X206657404Y-128949224D01*
X206391471Y-129146454D01*
X206381190Y-129153324D01*
X206161554Y-129284969D01*
X206097200Y-129323541D01*
X206086299Y-129329368D01*
X206026859Y-129357481D01*
X205786988Y-129470931D01*
X205775564Y-129475663D01*
X205463820Y-129587207D01*
X205451989Y-129590796D01*
X205130806Y-129671248D01*
X205118699Y-129673655D01*
X204791177Y-129722240D01*
X204778882Y-129723450D01*
X204633281Y-129730603D01*
X204507078Y-129736803D01*
X204487514Y-129736242D01*
X204478774Y-129735308D01*
X204401027Y-129739791D01*
X204393774Y-129740000D01*
X188213000Y-129740000D01*
X188144879Y-129719998D01*
X188098386Y-129666342D01*
X188087000Y-129614000D01*
X188087000Y-103578399D01*
X188107002Y-103510278D01*
X188160658Y-103463785D01*
X188230932Y-103453681D01*
X188270889Y-103466484D01*
X188569196Y-103620782D01*
X188571375Y-103621709D01*
X188571381Y-103621712D01*
X189050703Y-103825666D01*
X189050711Y-103825669D01*
X189052866Y-103826586D01*
X189055099Y-103827344D01*
X189440093Y-103958032D01*
X189550605Y-103995546D01*
X189552890Y-103996135D01*
X189552894Y-103996136D01*
X190057321Y-104126120D01*
X190057330Y-104126122D01*
X190059612Y-104126710D01*
X190391977Y-104186213D01*
X190574684Y-104218923D01*
X190574689Y-104218924D01*
X190577020Y-104219341D01*
X190579375Y-104219582D01*
X190579380Y-104219583D01*
X190812063Y-104243423D01*
X191099918Y-104272916D01*
X191164126Y-104274990D01*
X191395636Y-104282468D01*
X191395664Y-104282468D01*
X191396641Y-104282500D01*
X191685660Y-104282500D01*
X191686846Y-104282455D01*
X191686871Y-104282455D01*
X192074896Y-104267887D01*
X192074898Y-104267887D01*
X192077265Y-104267798D01*
X192599573Y-104208751D01*
X193115983Y-104110707D01*
X193542081Y-103996136D01*
X193621309Y-103974833D01*
X193621314Y-103974831D01*
X193623588Y-103974220D01*
X193625799Y-103973444D01*
X193625804Y-103973442D01*
X193749411Y-103930034D01*
X194119531Y-103800057D01*
X194121674Y-103799118D01*
X194121688Y-103799113D01*
X194598857Y-103590146D01*
X194598861Y-103590144D01*
X194601019Y-103589199D01*
X195065342Y-103342834D01*
X195509887Y-103062347D01*
X195511768Y-103060952D01*
X195511782Y-103060943D01*
X195930255Y-102750723D01*
X195932149Y-102749319D01*
X196329752Y-102405512D01*
X196572575Y-102161414D01*
X196698799Y-102034527D01*
X196698803Y-102034523D01*
X196700457Y-102032860D01*
X196762145Y-101960761D01*
X197040651Y-101635248D01*
X197040652Y-101635247D01*
X197042179Y-101633462D01*
X197069733Y-101595884D01*
X197342291Y-101224161D01*
X197352992Y-101209567D01*
X197631147Y-100763560D01*
X197655864Y-100716382D01*
X197873984Y-100300039D01*
X197875077Y-100297953D01*
X198026065Y-99948204D01*
X198082478Y-99817529D01*
X198082481Y-99817521D01*
X198083411Y-99815367D01*
X198182236Y-99529172D01*
X198254204Y-99320753D01*
X198254207Y-99320743D01*
X198254975Y-99318519D01*
X198255575Y-99316241D01*
X198388203Y-98812483D01*
X198388206Y-98812471D01*
X198388802Y-98810206D01*
X198398572Y-98757238D01*
X198440678Y-98528940D01*
X198484141Y-98293290D01*
X198540453Y-97770680D01*
X198554625Y-97331920D01*
X198557346Y-97247679D01*
X198557346Y-97247673D01*
X198557422Y-97245319D01*
X198534952Y-96720165D01*
X198473171Y-96198174D01*
X198372425Y-95682284D01*
X198233281Y-95175400D01*
X198185893Y-95042684D01*
X198057324Y-94682616D01*
X198057322Y-94682612D01*
X198056524Y-94680376D01*
X197854192Y-94224861D01*
X197844117Y-94202179D01*
X197844114Y-94202174D01*
X197843148Y-94199998D01*
X197742195Y-94012114D01*
X197653236Y-93846554D01*
X197594355Y-93736971D01*
X197534607Y-93643365D01*
X197312826Y-93295909D01*
X197311545Y-93293902D01*
X196996310Y-92873285D01*
X196994762Y-92871513D01*
X196994755Y-92871505D01*
X196651971Y-92479256D01*
X196651970Y-92479255D01*
X196650425Y-92477487D01*
X196532674Y-92361571D01*
X196277530Y-92110403D01*
X196277521Y-92110395D01*
X196275838Y-92108738D01*
X196165289Y-92015151D01*
X195876461Y-91770641D01*
X195876460Y-91770640D01*
X195874656Y-91769113D01*
X195872751Y-91767731D01*
X195872744Y-91767726D01*
X195451050Y-91461909D01*
X195449139Y-91460523D01*
X195447136Y-91459288D01*
X195447128Y-91459283D01*
X195003701Y-91185952D01*
X195003691Y-91185946D01*
X195001682Y-91184708D01*
X194534804Y-90943218D01*
X194532625Y-90942291D01*
X194532619Y-90942288D01*
X194053297Y-90738334D01*
X194053289Y-90738331D01*
X194051134Y-90737414D01*
X193553395Y-90568454D01*
X193551110Y-90567865D01*
X193551106Y-90567864D01*
X193046679Y-90437880D01*
X193046670Y-90437878D01*
X193044388Y-90437290D01*
X192700736Y-90375766D01*
X192529316Y-90345077D01*
X192529311Y-90345076D01*
X192526980Y-90344659D01*
X192524625Y-90344418D01*
X192524620Y-90344417D01*
X192210415Y-90312224D01*
X192004082Y-90291084D01*
X191937827Y-90288944D01*
X191708364Y-90281532D01*
X191708336Y-90281532D01*
X191707359Y-90281500D01*
X191418340Y-90281500D01*
X191417154Y-90281545D01*
X191417129Y-90281545D01*
X191029104Y-90296113D01*
X191029102Y-90296113D01*
X191026735Y-90296202D01*
X190504427Y-90355249D01*
X189988017Y-90453293D01*
X189692512Y-90532750D01*
X189482691Y-90589167D01*
X189482686Y-90589169D01*
X189480412Y-90589780D01*
X189478201Y-90590556D01*
X189478196Y-90590558D01*
X189442821Y-90602981D01*
X188984469Y-90763943D01*
X188982326Y-90764882D01*
X188982312Y-90764887D01*
X188505143Y-90973854D01*
X188502981Y-90974801D01*
X188401513Y-91028639D01*
X188272056Y-91097327D01*
X188202506Y-91111586D01*
X188136288Y-91085980D01*
X188094425Y-91028639D01*
X188087000Y-90986024D01*
X188087000Y-72644000D01*
X156662060Y-72644000D01*
X156593939Y-72623998D01*
X156547446Y-72570342D01*
X156537342Y-72500068D01*
X156566836Y-72435488D01*
X156604092Y-72406127D01*
X156747762Y-72331683D01*
X156972186Y-72173268D01*
X156975333Y-72170329D01*
X157169804Y-71988706D01*
X157169809Y-71988701D01*
X157172948Y-71985769D01*
X157346309Y-71772680D01*
X157489039Y-71537969D01*
X157500830Y-71510825D01*
X157596765Y-71289961D01*
X157596766Y-71289959D01*
X157598481Y-71286010D01*
X157672595Y-71021494D01*
X157710000Y-70749351D01*
X157710000Y-70474649D01*
X157672595Y-70202506D01*
X157598481Y-69937990D01*
X157560261Y-69850000D01*
X157490755Y-69689981D01*
X157490753Y-69689978D01*
X157489039Y-69686031D01*
X157346309Y-69451320D01*
X157172948Y-69238231D01*
X157169809Y-69235299D01*
X157169804Y-69235294D01*
X156975333Y-69053671D01*
X156975332Y-69053670D01*
X156972186Y-69050732D01*
X156747762Y-68892317D01*
X156605873Y-68818796D01*
X156507683Y-68767917D01*
X156507678Y-68767915D01*
X156503859Y-68765936D01*
X156245018Y-68673944D01*
X156240810Y-68673070D01*
X156240808Y-68673069D01*
X155980270Y-68618928D01*
X155980264Y-68618927D01*
X155976062Y-68618054D01*
X155971774Y-68617761D01*
X155971769Y-68617760D01*
X155837665Y-68608587D01*
X155829819Y-68607803D01*
X155796338Y-68603396D01*
X155775526Y-68600656D01*
X155772175Y-68600574D01*
X155772174Y-68600574D01*
X155705365Y-68598941D01*
X155705360Y-68598941D01*
X155702000Y-68598859D01*
X155652581Y-68602922D01*
X155644626Y-68603576D01*
X155634302Y-68604000D01*
X143617184Y-68604000D01*
X143600738Y-68602922D01*
X143586848Y-68601093D01*
X143586841Y-68601092D01*
X143583526Y-68600656D01*
X143580175Y-68600574D01*
X143580174Y-68600574D01*
X143513365Y-68598941D01*
X143513360Y-68598941D01*
X143510000Y-68598859D01*
X143478363Y-68601460D01*
X143476643Y-68601590D01*
X143457163Y-68602922D01*
X143240230Y-68617760D01*
X143240224Y-68617761D01*
X143235938Y-68618054D01*
X143231734Y-68618928D01*
X143231731Y-68618928D01*
X142971192Y-68673069D01*
X142971190Y-68673070D01*
X142966982Y-68673944D01*
X142708141Y-68765936D01*
X142704322Y-68767915D01*
X142704317Y-68767917D01*
X142606127Y-68818796D01*
X142464238Y-68892317D01*
X142239814Y-69050732D01*
X142236668Y-69053670D01*
X142236667Y-69053671D01*
X142042196Y-69235294D01*
X142042191Y-69235299D01*
X142039052Y-69238231D01*
X141865691Y-69451320D01*
X141722961Y-69686031D01*
X141721247Y-69689978D01*
X141721245Y-69689981D01*
X141651739Y-69850000D01*
X141613519Y-69937990D01*
X141539405Y-70202506D01*
X141502000Y-70474649D01*
X141502000Y-70749351D01*
X141539405Y-71021494D01*
X141613519Y-71286010D01*
X141615234Y-71289959D01*
X141615235Y-71289961D01*
X141711171Y-71510825D01*
X141722961Y-71537969D01*
X141865691Y-71772680D01*
X142039052Y-71985769D01*
X142042191Y-71988701D01*
X142042196Y-71988706D01*
X142236667Y-72170329D01*
X142239814Y-72173268D01*
X142464238Y-72331683D01*
X142607908Y-72406127D01*
X142633610Y-72419445D01*
X142684891Y-72468544D01*
X142701487Y-72537574D01*
X142678127Y-72604618D01*
X142627833Y-72644000D01*
X142621000Y-72644000D01*
X142621000Y-72928474D01*
X142600998Y-72996595D01*
X142547342Y-73043088D01*
X142477068Y-73053192D01*
X142449846Y-73046105D01*
X142328289Y-72999444D01*
X142328287Y-72999443D01*
X142325199Y-72998258D01*
X141970794Y-72903295D01*
X141778248Y-72872799D01*
X141611652Y-72846412D01*
X141611644Y-72846411D01*
X141608404Y-72845898D01*
X141242000Y-72826696D01*
X140875596Y-72845898D01*
X140872356Y-72846411D01*
X140872348Y-72846412D01*
X140705752Y-72872799D01*
X140513206Y-72903295D01*
X140158801Y-72998258D01*
X140155713Y-72999443D01*
X140155711Y-72999444D01*
X140051557Y-73039425D01*
X139816264Y-73129745D01*
X139813324Y-73131243D01*
X139492287Y-73294820D01*
X139492280Y-73294824D01*
X139489348Y-73296318D01*
X139471352Y-73308005D01*
X139405624Y-73350689D01*
X139337599Y-73371015D01*
X139268376Y-73350689D01*
X139202648Y-73308005D01*
X139184652Y-73296318D01*
X139181720Y-73294824D01*
X139181713Y-73294820D01*
X138860676Y-73131243D01*
X138857736Y-73129745D01*
X138622443Y-73039425D01*
X138518289Y-72999444D01*
X138518287Y-72999443D01*
X138515199Y-72998258D01*
X138160794Y-72903295D01*
X137968248Y-72872799D01*
X137801652Y-72846412D01*
X137801644Y-72846411D01*
X137798404Y-72845898D01*
X137432000Y-72826696D01*
X137065596Y-72845898D01*
X137062356Y-72846411D01*
X137062348Y-72846412D01*
X136895752Y-72872799D01*
X136703206Y-72903295D01*
X136348801Y-72998258D01*
X136345713Y-72999443D01*
X136345711Y-72999444D01*
X136241557Y-73039425D01*
X136006264Y-73129745D01*
X136003324Y-73131243D01*
X135682289Y-73294819D01*
X135682282Y-73294823D01*
X135679348Y-73296318D01*
X135676582Y-73298114D01*
X135676579Y-73298116D01*
X135576021Y-73363419D01*
X135371634Y-73496149D01*
X135086494Y-73727051D01*
X134827051Y-73986494D01*
X134596149Y-74271634D01*
X134594347Y-74274409D01*
X134498579Y-74421880D01*
X134396318Y-74579348D01*
X134394823Y-74582282D01*
X134394819Y-74582289D01*
X134234072Y-74897772D01*
X134229745Y-74906264D01*
X134228561Y-74909349D01*
X134107176Y-75225570D01*
X134098258Y-75248801D01*
X134003295Y-75603206D01*
X133980836Y-75745005D01*
X133949021Y-75945880D01*
X133945898Y-75965596D01*
X133926696Y-76332000D01*
X133945898Y-76698404D01*
X133946411Y-76701644D01*
X133946412Y-76701652D01*
X133972164Y-76864243D01*
X134003295Y-77060794D01*
X134098258Y-77415199D01*
X134229745Y-77757736D01*
X134231243Y-77760676D01*
X134394673Y-78081423D01*
X134396318Y-78084652D01*
X134398114Y-78087418D01*
X134398116Y-78087421D01*
X134529976Y-78290469D01*
X134596149Y-78392366D01*
X134598235Y-78394942D01*
X134814256Y-78661706D01*
X134841582Y-78727233D01*
X134829142Y-78797132D01*
X134780888Y-78849209D01*
X134716336Y-78867000D01*
X125221000Y-78867000D01*
X125152879Y-78846998D01*
X125106386Y-78793342D01*
X125095000Y-78741000D01*
X125095000Y-72771000D01*
X116839000Y-72771000D01*
X116770879Y-72750998D01*
X116724386Y-72697342D01*
X116713000Y-72645000D01*
X116713000Y-63016000D01*
X116733002Y-62947879D01*
X116786658Y-62901386D01*
X116838999Y-62890000D01*
X164064955Y-62890001D01*
G37*
%TD.AperFunction*%
%TD*%
%TA.AperFunction,Conductor*%
%TO.N,GND*%
G36*
X182626000Y-129160000D02*
G01*
X182605998Y-129228121D01*
X182552342Y-129274614D01*
X182500000Y-129286000D01*
X156349013Y-129286000D01*
X156280892Y-129265998D01*
X156234399Y-129212342D01*
X156224295Y-129142068D01*
X156253789Y-129077488D01*
X156281851Y-129054318D01*
X156281730Y-129054151D01*
X156284422Y-129052195D01*
X156434871Y-128942888D01*
X156461683Y-128913111D01*
X156557114Y-128807124D01*
X156557115Y-128807123D01*
X156561533Y-128802216D01*
X156581516Y-128767605D01*
X156652875Y-128644007D01*
X156652876Y-128644006D01*
X156656179Y-128638284D01*
X156714674Y-128458256D01*
X156715757Y-128447958D01*
X156733770Y-128276565D01*
X156734460Y-128270000D01*
X156721192Y-128143757D01*
X156715364Y-128088307D01*
X156715364Y-128088305D01*
X156714674Y-128081744D01*
X156656179Y-127901716D01*
X156561533Y-127737784D01*
X156541135Y-127715130D01*
X156439286Y-127602015D01*
X156439284Y-127602014D01*
X156434871Y-127597112D01*
X156361134Y-127543539D01*
X156287072Y-127489730D01*
X156287071Y-127489729D01*
X156281730Y-127485849D01*
X156108803Y-127408856D01*
X156010788Y-127388022D01*
X155930103Y-127370872D01*
X155930099Y-127370872D01*
X155923646Y-127369500D01*
X155734354Y-127369500D01*
X155727901Y-127370872D01*
X155727897Y-127370872D01*
X155647212Y-127388022D01*
X155549197Y-127408856D01*
X155376270Y-127485849D01*
X155370929Y-127489729D01*
X155370928Y-127489730D01*
X155296866Y-127543539D01*
X155223129Y-127597112D01*
X155218716Y-127602014D01*
X155218714Y-127602015D01*
X155116865Y-127715130D01*
X155096467Y-127737784D01*
X155001821Y-127901716D01*
X154943326Y-128081744D01*
X154942636Y-128088305D01*
X154942636Y-128088307D01*
X154936808Y-128143757D01*
X154923540Y-128270000D01*
X154924230Y-128276565D01*
X154942244Y-128447958D01*
X154943326Y-128458256D01*
X155001821Y-128638284D01*
X155005124Y-128644006D01*
X155005125Y-128644007D01*
X155076484Y-128767605D01*
X155096467Y-128802216D01*
X155100885Y-128807123D01*
X155100886Y-128807124D01*
X155196318Y-128913111D01*
X155223129Y-128942888D01*
X155376270Y-129054151D01*
X155375766Y-129054845D01*
X155420978Y-129102260D01*
X155434417Y-129171973D01*
X155408032Y-129237885D01*
X155350201Y-129279069D01*
X155308987Y-129286000D01*
X146951013Y-129286000D01*
X146882892Y-129265998D01*
X146836399Y-129212342D01*
X146826295Y-129142068D01*
X146855789Y-129077488D01*
X146883851Y-129054318D01*
X146883730Y-129054151D01*
X146886422Y-129052195D01*
X147036871Y-128942888D01*
X147063683Y-128913111D01*
X147159114Y-128807124D01*
X147159115Y-128807123D01*
X147163533Y-128802216D01*
X147183516Y-128767605D01*
X147254875Y-128644007D01*
X147254876Y-128644006D01*
X147258179Y-128638284D01*
X147316674Y-128458256D01*
X147317757Y-128447958D01*
X147335770Y-128276565D01*
X147336460Y-128270000D01*
X147323192Y-128143757D01*
X147317364Y-128088307D01*
X147317364Y-128088305D01*
X147316674Y-128081744D01*
X147258179Y-127901716D01*
X147163533Y-127737784D01*
X147143135Y-127715130D01*
X147041286Y-127602015D01*
X147041284Y-127602014D01*
X147036871Y-127597112D01*
X146963134Y-127543539D01*
X146889072Y-127489730D01*
X146889071Y-127489729D01*
X146883730Y-127485849D01*
X146710803Y-127408856D01*
X146612788Y-127388022D01*
X146532103Y-127370872D01*
X146532099Y-127370872D01*
X146525646Y-127369500D01*
X146336354Y-127369500D01*
X146329901Y-127370872D01*
X146329897Y-127370872D01*
X146249212Y-127388022D01*
X146151197Y-127408856D01*
X145978270Y-127485849D01*
X145972929Y-127489729D01*
X145972928Y-127489730D01*
X145898866Y-127543539D01*
X145825129Y-127597112D01*
X145820716Y-127602014D01*
X145820714Y-127602015D01*
X145718865Y-127715130D01*
X145698467Y-127737784D01*
X145603821Y-127901716D01*
X145545326Y-128081744D01*
X145544636Y-128088305D01*
X145544636Y-128088307D01*
X145538808Y-128143757D01*
X145525540Y-128270000D01*
X145526230Y-128276565D01*
X145544244Y-128447958D01*
X145545326Y-128458256D01*
X145603821Y-128638284D01*
X145607124Y-128644006D01*
X145607125Y-128644007D01*
X145678484Y-128767605D01*
X145698467Y-128802216D01*
X145702885Y-128807123D01*
X145702886Y-128807124D01*
X145798318Y-128913111D01*
X145825129Y-128942888D01*
X145978270Y-129054151D01*
X145977766Y-129054845D01*
X146022978Y-129102260D01*
X146036417Y-129171973D01*
X146010032Y-129237885D01*
X145952201Y-129279069D01*
X145910987Y-129286000D01*
X122808000Y-129286000D01*
X122739879Y-129265998D01*
X122693386Y-129212342D01*
X122682000Y-129160000D01*
X122682000Y-127179000D01*
X124601723Y-127179000D01*
X124620793Y-127396977D01*
X124677425Y-127608330D01*
X124679747Y-127613310D01*
X124679748Y-127613312D01*
X124766015Y-127798310D01*
X124769898Y-127806638D01*
X124895402Y-127985877D01*
X125050123Y-128140598D01*
X125054631Y-128143755D01*
X125054634Y-128143757D01*
X125224852Y-128262945D01*
X125229361Y-128266102D01*
X125234343Y-128268425D01*
X125234348Y-128268428D01*
X125382826Y-128337664D01*
X125427670Y-128358575D01*
X125432978Y-128359997D01*
X125432980Y-128359998D01*
X125459381Y-128367072D01*
X125639023Y-128415207D01*
X125857000Y-128434277D01*
X126074977Y-128415207D01*
X126254619Y-128367072D01*
X126281020Y-128359998D01*
X126281022Y-128359997D01*
X126286330Y-128358575D01*
X126331174Y-128337664D01*
X126479652Y-128268428D01*
X126479657Y-128268425D01*
X126484639Y-128266102D01*
X126489148Y-128262945D01*
X126659366Y-128143757D01*
X126659369Y-128143755D01*
X126663877Y-128140598D01*
X126818598Y-127985877D01*
X126944102Y-127806638D01*
X126947986Y-127798310D01*
X127012805Y-127659305D01*
X127059723Y-127606020D01*
X127128000Y-127586559D01*
X127195960Y-127607101D01*
X127241195Y-127659305D01*
X127306015Y-127798310D01*
X127309898Y-127806638D01*
X127435402Y-127985877D01*
X127590123Y-128140598D01*
X127594631Y-128143755D01*
X127594634Y-128143757D01*
X127764852Y-128262945D01*
X127769361Y-128266102D01*
X127774343Y-128268425D01*
X127774348Y-128268428D01*
X127922826Y-128337664D01*
X127967670Y-128358575D01*
X127972978Y-128359997D01*
X127972980Y-128359998D01*
X127999381Y-128367072D01*
X128179023Y-128415207D01*
X128397000Y-128434277D01*
X128614977Y-128415207D01*
X128794619Y-128367072D01*
X128821020Y-128359998D01*
X128821022Y-128359997D01*
X128826330Y-128358575D01*
X128871174Y-128337664D01*
X129019652Y-128268428D01*
X129019657Y-128268425D01*
X129024639Y-128266102D01*
X129029148Y-128262945D01*
X129077397Y-128229161D01*
X130251393Y-128229161D01*
X130260687Y-128241175D01*
X130301088Y-128269464D01*
X130310584Y-128274947D01*
X130500113Y-128363326D01*
X130510405Y-128367072D01*
X130712401Y-128421196D01*
X130723196Y-128423099D01*
X130931525Y-128441326D01*
X130942475Y-128441326D01*
X131150804Y-128423099D01*
X131161599Y-128421196D01*
X131363595Y-128367072D01*
X131373887Y-128363326D01*
X131563416Y-128274947D01*
X131572912Y-128269464D01*
X131614148Y-128240590D01*
X131622523Y-128230112D01*
X131615457Y-128216668D01*
X130949811Y-127551021D01*
X130935868Y-127543408D01*
X130934034Y-127543539D01*
X130927420Y-127547790D01*
X130257820Y-128217391D01*
X130251393Y-128229161D01*
X129077397Y-128229161D01*
X129199366Y-128143757D01*
X129199369Y-128143755D01*
X129203877Y-128140598D01*
X129358598Y-127985877D01*
X129484102Y-127806638D01*
X129487986Y-127798310D01*
X129548668Y-127668177D01*
X129595586Y-127614892D01*
X129663863Y-127595431D01*
X129731823Y-127615973D01*
X129777058Y-127668177D01*
X129841054Y-127805417D01*
X129846534Y-127814907D01*
X129875411Y-127856149D01*
X129885887Y-127864523D01*
X129899334Y-127857455D01*
X130564979Y-127191811D01*
X130571356Y-127180132D01*
X131301408Y-127180132D01*
X131301539Y-127181966D01*
X131305790Y-127188580D01*
X131975391Y-127858180D01*
X131987161Y-127864607D01*
X131999176Y-127855311D01*
X132027466Y-127814907D01*
X132032946Y-127805417D01*
X132121326Y-127615887D01*
X132125072Y-127605595D01*
X132179196Y-127403599D01*
X132181099Y-127392804D01*
X132199326Y-127184475D01*
X132199326Y-127173525D01*
X132181099Y-126965196D01*
X132179196Y-126954401D01*
X132125072Y-126752405D01*
X132121326Y-126742113D01*
X132032946Y-126552583D01*
X132027466Y-126543093D01*
X131998589Y-126501851D01*
X131988113Y-126493477D01*
X131974666Y-126500545D01*
X131309021Y-127166189D01*
X131301408Y-127180132D01*
X130571356Y-127180132D01*
X130572592Y-127177868D01*
X130572461Y-127176034D01*
X130568210Y-127169420D01*
X129898609Y-126499820D01*
X129886839Y-126493393D01*
X129874824Y-126502689D01*
X129846534Y-126543093D01*
X129841054Y-126552583D01*
X129777058Y-126689823D01*
X129730140Y-126743108D01*
X129661863Y-126762569D01*
X129593903Y-126742027D01*
X129548668Y-126689823D01*
X129486425Y-126556343D01*
X129486423Y-126556340D01*
X129484102Y-126551362D01*
X129358598Y-126372123D01*
X129203877Y-126217402D01*
X129199369Y-126214245D01*
X129199366Y-126214243D01*
X129076037Y-126127887D01*
X130251477Y-126127887D01*
X130258545Y-126141334D01*
X130924189Y-126806979D01*
X130938132Y-126814592D01*
X130939966Y-126814461D01*
X130946580Y-126810210D01*
X131616180Y-126140609D01*
X131622607Y-126128839D01*
X131613313Y-126116825D01*
X131572912Y-126088536D01*
X131563416Y-126083053D01*
X131506737Y-126056623D01*
X160967000Y-126056623D01*
X160967001Y-128451376D01*
X160967370Y-128454770D01*
X160967370Y-128454776D01*
X160970416Y-128482812D01*
X160973649Y-128512580D01*
X161023974Y-128646824D01*
X161029354Y-128654003D01*
X161029356Y-128654006D01*
X161104486Y-128754250D01*
X161109954Y-128761546D01*
X161117135Y-128766928D01*
X161217494Y-128842144D01*
X161217497Y-128842146D01*
X161224676Y-128847526D01*
X161291058Y-128872411D01*
X161351525Y-128895079D01*
X161351527Y-128895079D01*
X161358920Y-128897851D01*
X161366770Y-128898704D01*
X161366771Y-128898704D01*
X161416717Y-128904130D01*
X161420123Y-128904500D01*
X162217383Y-128904500D01*
X163014876Y-128904499D01*
X163018270Y-128904130D01*
X163018276Y-128904130D01*
X163068222Y-128898705D01*
X163068226Y-128898704D01*
X163076080Y-128897851D01*
X163210324Y-128847526D01*
X163217503Y-128842146D01*
X163217506Y-128842144D01*
X163317865Y-128766928D01*
X163325046Y-128761546D01*
X163330514Y-128754250D01*
X163405644Y-128654006D01*
X163405646Y-128654003D01*
X163411026Y-128646824D01*
X163461351Y-128512580D01*
X163468000Y-128451377D01*
X163468000Y-128406690D01*
X163488002Y-128338569D01*
X163541658Y-128292076D01*
X163611932Y-128281972D01*
X163676512Y-128311466D01*
X163696323Y-128333164D01*
X163798075Y-128474767D01*
X163805383Y-128483233D01*
X163958582Y-128631692D01*
X163967279Y-128638735D01*
X164144344Y-128757719D01*
X164154142Y-128763105D01*
X164349490Y-128848857D01*
X164360082Y-128852422D01*
X164485884Y-128882624D01*
X164499970Y-128881919D01*
X164503500Y-128873040D01*
X164503500Y-128872411D01*
X165011500Y-128872411D01*
X165015605Y-128886393D01*
X165025228Y-128887886D01*
X165025473Y-128887834D01*
X165229383Y-128825102D01*
X165239729Y-128820881D01*
X165429314Y-128723029D01*
X165438745Y-128717043D01*
X165608001Y-128587168D01*
X165616224Y-128579607D01*
X165759812Y-128421806D01*
X165766567Y-128412906D01*
X165879934Y-128232185D01*
X165885006Y-128222229D01*
X165914220Y-128149557D01*
X165958187Y-128093812D01*
X166025312Y-128070687D01*
X166094283Y-128087524D01*
X166144854Y-128142308D01*
X166148312Y-128149557D01*
X166216792Y-128293129D01*
X166347052Y-128474405D01*
X166394083Y-128519981D01*
X166468058Y-128591668D01*
X166507354Y-128629749D01*
X166692632Y-128754250D01*
X166697778Y-128756509D01*
X166697780Y-128756510D01*
X166778970Y-128792150D01*
X166897029Y-128843974D01*
X166902477Y-128845282D01*
X166902483Y-128845284D01*
X167108628Y-128894775D01*
X167108629Y-128894775D01*
X167114085Y-128896085D01*
X167192133Y-128900585D01*
X167331331Y-128908611D01*
X167331334Y-128908611D01*
X167336938Y-128908934D01*
X167558544Y-128882117D01*
X167771900Y-128816481D01*
X167859188Y-128771428D01*
X167965274Y-128716672D01*
X167970259Y-128714099D01*
X167974701Y-128710690D01*
X167974705Y-128710688D01*
X168142910Y-128581620D01*
X168147354Y-128578210D01*
X168297586Y-128413107D01*
X168416207Y-128224010D01*
X168499466Y-128016895D01*
X168531004Y-127864607D01*
X168543796Y-127802834D01*
X168544733Y-127798310D01*
X168544999Y-127793697D01*
X168547895Y-127743474D01*
X168547895Y-127743470D01*
X168548000Y-127741651D01*
X168548000Y-126797370D01*
X168545232Y-126766349D01*
X168540175Y-126709690D01*
X168533211Y-126631661D01*
X168508982Y-126543093D01*
X168475788Y-126421760D01*
X168474308Y-126416349D01*
X168455366Y-126376635D01*
X168415809Y-126293703D01*
X168378208Y-126214871D01*
X168267729Y-126061123D01*
X174776000Y-126061123D01*
X174776001Y-128455876D01*
X174776370Y-128459270D01*
X174776370Y-128459276D01*
X174781307Y-128504722D01*
X174782649Y-128517080D01*
X174832974Y-128651324D01*
X174838354Y-128658503D01*
X174838356Y-128658506D01*
X174911807Y-128756510D01*
X174918954Y-128766046D01*
X174926135Y-128771428D01*
X175026494Y-128846644D01*
X175026497Y-128846646D01*
X175033676Y-128852026D01*
X175115743Y-128882791D01*
X175160525Y-128899579D01*
X175160527Y-128899579D01*
X175167920Y-128902351D01*
X175175770Y-128903204D01*
X175175771Y-128903204D01*
X175187701Y-128904500D01*
X175229123Y-128909000D01*
X176026383Y-128909000D01*
X176823876Y-128908999D01*
X176827270Y-128908630D01*
X176827276Y-128908630D01*
X176877222Y-128903205D01*
X176877226Y-128903204D01*
X176885080Y-128902351D01*
X177019324Y-128852026D01*
X177026503Y-128846646D01*
X177026506Y-128846644D01*
X177126865Y-128771428D01*
X177134046Y-128766046D01*
X177141193Y-128756510D01*
X177214644Y-128658506D01*
X177214646Y-128658503D01*
X177220026Y-128651324D01*
X177270351Y-128517080D01*
X177277000Y-128455877D01*
X177277000Y-128411190D01*
X177297002Y-128343069D01*
X177350658Y-128296576D01*
X177420932Y-128286472D01*
X177485512Y-128315966D01*
X177505323Y-128337664D01*
X177607075Y-128479267D01*
X177614383Y-128487733D01*
X177767582Y-128636192D01*
X177776279Y-128643235D01*
X177953344Y-128762219D01*
X177963142Y-128767605D01*
X178158490Y-128853357D01*
X178169082Y-128856922D01*
X178294884Y-128887124D01*
X178308970Y-128886419D01*
X178312500Y-128877540D01*
X178312500Y-128876911D01*
X178820500Y-128876911D01*
X178824605Y-128890893D01*
X178834228Y-128892386D01*
X178834473Y-128892334D01*
X179038383Y-128829602D01*
X179048729Y-128825381D01*
X179238314Y-128727529D01*
X179247745Y-128721543D01*
X179417001Y-128591668D01*
X179425224Y-128584107D01*
X179568812Y-128426306D01*
X179575567Y-128417406D01*
X179688934Y-128236685D01*
X179694006Y-128226729D01*
X179723220Y-128154057D01*
X179767187Y-128098312D01*
X179834312Y-128075187D01*
X179903283Y-128092024D01*
X179953854Y-128146808D01*
X180025792Y-128297629D01*
X180156052Y-128478905D01*
X180203083Y-128524481D01*
X180307683Y-128625846D01*
X180316354Y-128634249D01*
X180501632Y-128758750D01*
X180506778Y-128761009D01*
X180506780Y-128761010D01*
X180520262Y-128766928D01*
X180706029Y-128848474D01*
X180711477Y-128849782D01*
X180711483Y-128849784D01*
X180917628Y-128899275D01*
X180917629Y-128899275D01*
X180923085Y-128900585D01*
X180990987Y-128904500D01*
X181140331Y-128913111D01*
X181140334Y-128913111D01*
X181145938Y-128913434D01*
X181367544Y-128886617D01*
X181580900Y-128820981D01*
X181589619Y-128816481D01*
X181774274Y-128721172D01*
X181779259Y-128718599D01*
X181783701Y-128715190D01*
X181783705Y-128715188D01*
X181951910Y-128586120D01*
X181956354Y-128582710D01*
X182106586Y-128417607D01*
X182225207Y-128228510D01*
X182308466Y-128021395D01*
X182310536Y-128011402D01*
X182352796Y-127807334D01*
X182353733Y-127802810D01*
X182357000Y-127746151D01*
X182357000Y-126801870D01*
X182356599Y-126797370D01*
X182342710Y-126641756D01*
X182342211Y-126636161D01*
X182339498Y-126626242D01*
X182284788Y-126426260D01*
X182283308Y-126420849D01*
X182280008Y-126413929D01*
X182235258Y-126320110D01*
X182187208Y-126219371D01*
X182056948Y-126038095D01*
X181952424Y-125936804D01*
X181900674Y-125886654D01*
X181900671Y-125886652D01*
X181896646Y-125882751D01*
X181711368Y-125758250D01*
X181703466Y-125754781D01*
X181559578Y-125691619D01*
X181506971Y-125668526D01*
X181501523Y-125667218D01*
X181501517Y-125667216D01*
X181295372Y-125617725D01*
X181295371Y-125617725D01*
X181289915Y-125616415D01*
X181181238Y-125610149D01*
X181072669Y-125603889D01*
X181072666Y-125603889D01*
X181067062Y-125603566D01*
X180845456Y-125630383D01*
X180632100Y-125696019D01*
X180627110Y-125698595D01*
X180627109Y-125698595D01*
X180442459Y-125793901D01*
X180433741Y-125798401D01*
X180429299Y-125801810D01*
X180429295Y-125801812D01*
X180326345Y-125880808D01*
X180256646Y-125934290D01*
X180106414Y-126099393D01*
X179987793Y-126288490D01*
X179985699Y-126293699D01*
X179985697Y-126293703D01*
X179957966Y-126362685D01*
X179913999Y-126418429D01*
X179846874Y-126441554D01*
X179777903Y-126424717D01*
X179727333Y-126369932D01*
X179656106Y-126220601D01*
X179650418Y-126210984D01*
X179525925Y-126037733D01*
X179518617Y-126029267D01*
X179365418Y-125880808D01*
X179356721Y-125873765D01*
X179179656Y-125754781D01*
X179169858Y-125749395D01*
X178974510Y-125663643D01*
X178963918Y-125660078D01*
X178838116Y-125629876D01*
X178824030Y-125630581D01*
X178820500Y-125639460D01*
X178820500Y-128876911D01*
X178312500Y-128876911D01*
X178312500Y-125640089D01*
X178308395Y-125626107D01*
X178298772Y-125624614D01*
X178298527Y-125624666D01*
X178094617Y-125687398D01*
X178084271Y-125691619D01*
X177894686Y-125789471D01*
X177885255Y-125795457D01*
X177715999Y-125925332D01*
X177707776Y-125932893D01*
X177564188Y-126090694D01*
X177557433Y-126099594D01*
X177509736Y-126175629D01*
X177456593Y-126222707D01*
X177386434Y-126233579D01*
X177321534Y-126204795D01*
X177282499Y-126145493D01*
X177276999Y-126108673D01*
X177276999Y-126061124D01*
X177276630Y-126057724D01*
X177271205Y-126007778D01*
X177271204Y-126007774D01*
X177270351Y-125999920D01*
X177220026Y-125865676D01*
X177214646Y-125858497D01*
X177214644Y-125858494D01*
X177139428Y-125758135D01*
X177134046Y-125750954D01*
X177120861Y-125741072D01*
X177026506Y-125670356D01*
X177026503Y-125670354D01*
X177019324Y-125664974D01*
X176915645Y-125626107D01*
X176892475Y-125617421D01*
X176892473Y-125617421D01*
X176885080Y-125614649D01*
X176877230Y-125613796D01*
X176877229Y-125613796D01*
X176827274Y-125608369D01*
X176827273Y-125608369D01*
X176823877Y-125608000D01*
X176026617Y-125608000D01*
X175229124Y-125608001D01*
X175225730Y-125608370D01*
X175225724Y-125608370D01*
X175175778Y-125613795D01*
X175175774Y-125613796D01*
X175167920Y-125614649D01*
X175033676Y-125664974D01*
X175026497Y-125670354D01*
X175026494Y-125670356D01*
X174932139Y-125741072D01*
X174918954Y-125750954D01*
X174913572Y-125758135D01*
X174838356Y-125858494D01*
X174838354Y-125858497D01*
X174832974Y-125865676D01*
X174782649Y-125999920D01*
X174776000Y-126061123D01*
X168267729Y-126061123D01*
X168247948Y-126033595D01*
X168181035Y-125968752D01*
X168091674Y-125882154D01*
X168091671Y-125882152D01*
X168087646Y-125878251D01*
X167902368Y-125753750D01*
X167894466Y-125750281D01*
X167766470Y-125694095D01*
X167697971Y-125664026D01*
X167692523Y-125662718D01*
X167692517Y-125662716D01*
X167486372Y-125613225D01*
X167486371Y-125613225D01*
X167480915Y-125611915D01*
X167396697Y-125607059D01*
X167263669Y-125599389D01*
X167263666Y-125599389D01*
X167258062Y-125599066D01*
X167036456Y-125625883D01*
X166823100Y-125691519D01*
X166818110Y-125694095D01*
X166818109Y-125694095D01*
X166716667Y-125746454D01*
X166624741Y-125793901D01*
X166620299Y-125797310D01*
X166620295Y-125797312D01*
X166517345Y-125876308D01*
X166447646Y-125929790D01*
X166297414Y-126094893D01*
X166178793Y-126283990D01*
X166176699Y-126289199D01*
X166176697Y-126289203D01*
X166148966Y-126358185D01*
X166104999Y-126413929D01*
X166037874Y-126437054D01*
X165968903Y-126420217D01*
X165918333Y-126365432D01*
X165847106Y-126216101D01*
X165841418Y-126206484D01*
X165716925Y-126033233D01*
X165709617Y-126024767D01*
X165556418Y-125876308D01*
X165547721Y-125869265D01*
X165370656Y-125750281D01*
X165360858Y-125744895D01*
X165165510Y-125659143D01*
X165154918Y-125655578D01*
X165029116Y-125625376D01*
X165015030Y-125626081D01*
X165011500Y-125634960D01*
X165011500Y-128872411D01*
X164503500Y-128872411D01*
X164503500Y-125635589D01*
X164499395Y-125621607D01*
X164489772Y-125620114D01*
X164489527Y-125620166D01*
X164285617Y-125682898D01*
X164275271Y-125687119D01*
X164085686Y-125784971D01*
X164076255Y-125790957D01*
X163906999Y-125920832D01*
X163898776Y-125928393D01*
X163755188Y-126086194D01*
X163748433Y-126095094D01*
X163700736Y-126171129D01*
X163647593Y-126218207D01*
X163577434Y-126229079D01*
X163512534Y-126200295D01*
X163473499Y-126140993D01*
X163467999Y-126104173D01*
X163467999Y-126056624D01*
X163465993Y-126038154D01*
X163462205Y-126003278D01*
X163462204Y-126003274D01*
X163461351Y-125995420D01*
X163411026Y-125861176D01*
X163405646Y-125853997D01*
X163405644Y-125853994D01*
X163330428Y-125753635D01*
X163325046Y-125746454D01*
X163317865Y-125741072D01*
X163217506Y-125665856D01*
X163217503Y-125665854D01*
X163210324Y-125660474D01*
X163102662Y-125620114D01*
X163083475Y-125612921D01*
X163083473Y-125612921D01*
X163076080Y-125610149D01*
X163068230Y-125609296D01*
X163068229Y-125609296D01*
X163018274Y-125603869D01*
X163018273Y-125603869D01*
X163014877Y-125603500D01*
X162217617Y-125603500D01*
X161420124Y-125603501D01*
X161416730Y-125603870D01*
X161416724Y-125603870D01*
X161366778Y-125609295D01*
X161366774Y-125609296D01*
X161358920Y-125610149D01*
X161224676Y-125660474D01*
X161217497Y-125665854D01*
X161217494Y-125665856D01*
X161117135Y-125741072D01*
X161109954Y-125746454D01*
X161104572Y-125753635D01*
X161029356Y-125853994D01*
X161029354Y-125853997D01*
X161023974Y-125861176D01*
X160973649Y-125995420D01*
X160967000Y-126056623D01*
X131506737Y-126056623D01*
X131373887Y-125994674D01*
X131363595Y-125990928D01*
X131161599Y-125936804D01*
X131150804Y-125934901D01*
X130942475Y-125916674D01*
X130931525Y-125916674D01*
X130723196Y-125934901D01*
X130712401Y-125936804D01*
X130510405Y-125990928D01*
X130500113Y-125994674D01*
X130310583Y-126083054D01*
X130301093Y-126088534D01*
X130259851Y-126117411D01*
X130251477Y-126127887D01*
X129076037Y-126127887D01*
X129029148Y-126095055D01*
X129029145Y-126095053D01*
X129024639Y-126091898D01*
X129019657Y-126089575D01*
X129019652Y-126089572D01*
X128831312Y-126001748D01*
X128831311Y-126001747D01*
X128826330Y-125999425D01*
X128821022Y-125998003D01*
X128821020Y-125998002D01*
X128755255Y-125980380D01*
X128614977Y-125942793D01*
X128397000Y-125923723D01*
X128179023Y-125942793D01*
X128038745Y-125980380D01*
X127972980Y-125998002D01*
X127972978Y-125998003D01*
X127967670Y-125999425D01*
X127962690Y-126001747D01*
X127962688Y-126001748D01*
X127774343Y-126089575D01*
X127774340Y-126089577D01*
X127769362Y-126091898D01*
X127590123Y-126217402D01*
X127435402Y-126372123D01*
X127309898Y-126551362D01*
X127307577Y-126556340D01*
X127307575Y-126556343D01*
X127241195Y-126698695D01*
X127194277Y-126751980D01*
X127126000Y-126771441D01*
X127058040Y-126750899D01*
X127012805Y-126698695D01*
X126946425Y-126556343D01*
X126946423Y-126556340D01*
X126944102Y-126551362D01*
X126818598Y-126372123D01*
X126663877Y-126217402D01*
X126659369Y-126214245D01*
X126659366Y-126214243D01*
X126489148Y-126095055D01*
X126489145Y-126095053D01*
X126484639Y-126091898D01*
X126479657Y-126089575D01*
X126479652Y-126089572D01*
X126291312Y-126001748D01*
X126291311Y-126001747D01*
X126286330Y-125999425D01*
X126281022Y-125998003D01*
X126281020Y-125998002D01*
X126215255Y-125980380D01*
X126074977Y-125942793D01*
X125857000Y-125923723D01*
X125639023Y-125942793D01*
X125498745Y-125980380D01*
X125432980Y-125998002D01*
X125432978Y-125998003D01*
X125427670Y-125999425D01*
X125422690Y-126001747D01*
X125422688Y-126001748D01*
X125234343Y-126089575D01*
X125234340Y-126089577D01*
X125229362Y-126091898D01*
X125050123Y-126217402D01*
X124895402Y-126372123D01*
X124769898Y-126551362D01*
X124767577Y-126556340D01*
X124767575Y-126556343D01*
X124680989Y-126742027D01*
X124677425Y-126749670D01*
X124620793Y-126961023D01*
X124601723Y-127179000D01*
X122682000Y-127179000D01*
X122682000Y-123808161D01*
X135242893Y-123808161D01*
X135252187Y-123820175D01*
X135292588Y-123848464D01*
X135302084Y-123853947D01*
X135491613Y-123942326D01*
X135501905Y-123946072D01*
X135703901Y-124000196D01*
X135714696Y-124002099D01*
X135923025Y-124020326D01*
X135933975Y-124020326D01*
X136142304Y-124002099D01*
X136153099Y-124000196D01*
X136355095Y-123946072D01*
X136365387Y-123942326D01*
X136554916Y-123853947D01*
X136564412Y-123848464D01*
X136605648Y-123819590D01*
X136614023Y-123809112D01*
X136606957Y-123795668D01*
X135941311Y-123130021D01*
X135927368Y-123122408D01*
X135925534Y-123122539D01*
X135918920Y-123126790D01*
X135249320Y-123796391D01*
X135242893Y-123808161D01*
X122682000Y-123808161D01*
X122682000Y-122763475D01*
X134666174Y-122763475D01*
X134684401Y-122971804D01*
X134686304Y-122982599D01*
X134740428Y-123184595D01*
X134744174Y-123194887D01*
X134832554Y-123384417D01*
X134838034Y-123393907D01*
X134866911Y-123435149D01*
X134877387Y-123443523D01*
X134890834Y-123436455D01*
X135556479Y-122770811D01*
X135562856Y-122759132D01*
X136292908Y-122759132D01*
X136293039Y-122760966D01*
X136297290Y-122767580D01*
X136966891Y-123437180D01*
X136978661Y-123443607D01*
X136990676Y-123434311D01*
X137018966Y-123393907D01*
X137024446Y-123384417D01*
X137088442Y-123247177D01*
X137135360Y-123193892D01*
X137203637Y-123174431D01*
X137271597Y-123194973D01*
X137316832Y-123247177D01*
X137381398Y-123385638D01*
X137506902Y-123564877D01*
X137661623Y-123719598D01*
X137666131Y-123722755D01*
X137666134Y-123722757D01*
X137836352Y-123841945D01*
X137840861Y-123845102D01*
X137845843Y-123847425D01*
X137845848Y-123847428D01*
X138034188Y-123935252D01*
X138039170Y-123937575D01*
X138044478Y-123938997D01*
X138044480Y-123938998D01*
X138110245Y-123956620D01*
X138250523Y-123994207D01*
X138468500Y-124013277D01*
X138686477Y-123994207D01*
X138826755Y-123956620D01*
X138892520Y-123938998D01*
X138892522Y-123938997D01*
X138897830Y-123937575D01*
X138902812Y-123935252D01*
X139091152Y-123847428D01*
X139091157Y-123847425D01*
X139096139Y-123845102D01*
X139100648Y-123841945D01*
X139270866Y-123722757D01*
X139270869Y-123722755D01*
X139275377Y-123719598D01*
X139430098Y-123564877D01*
X139555602Y-123385638D01*
X139624305Y-123238305D01*
X139671223Y-123185020D01*
X139739500Y-123165559D01*
X139807460Y-123186101D01*
X139852695Y-123238305D01*
X139921398Y-123385638D01*
X140046902Y-123564877D01*
X140201623Y-123719598D01*
X140206131Y-123722755D01*
X140206134Y-123722757D01*
X140376352Y-123841945D01*
X140380861Y-123845102D01*
X140385843Y-123847425D01*
X140385848Y-123847428D01*
X140574188Y-123935252D01*
X140579170Y-123937575D01*
X140584478Y-123938997D01*
X140584480Y-123938998D01*
X140650245Y-123956620D01*
X140790523Y-123994207D01*
X141008500Y-124013277D01*
X141226477Y-123994207D01*
X141366755Y-123956620D01*
X141432520Y-123938998D01*
X141432522Y-123938997D01*
X141437830Y-123937575D01*
X141442812Y-123935252D01*
X141631152Y-123847428D01*
X141631157Y-123847425D01*
X141636139Y-123845102D01*
X141640648Y-123841945D01*
X141810866Y-123722757D01*
X141810869Y-123722755D01*
X141815377Y-123719598D01*
X141970098Y-123564877D01*
X142095602Y-123385638D01*
X142188075Y-123187330D01*
X142190105Y-123179756D01*
X142242723Y-122983381D01*
X142244707Y-122975977D01*
X142263777Y-122758000D01*
X144821177Y-122758000D01*
X144840430Y-122978068D01*
X144841854Y-122983381D01*
X144894473Y-123179756D01*
X144897606Y-123191450D01*
X144899928Y-123196431D01*
X144899929Y-123196432D01*
X144985835Y-123380657D01*
X144990966Y-123391661D01*
X145117674Y-123572620D01*
X145273880Y-123728826D01*
X145278388Y-123731983D01*
X145278391Y-123731985D01*
X145443261Y-123847428D01*
X145454838Y-123855534D01*
X145459820Y-123857857D01*
X145459825Y-123857860D01*
X145648998Y-123946072D01*
X145655050Y-123948894D01*
X145660358Y-123950316D01*
X145660360Y-123950317D01*
X145725752Y-123967839D01*
X145868432Y-124006070D01*
X146088500Y-124025323D01*
X146308568Y-124006070D01*
X146451248Y-123967839D01*
X146516640Y-123950317D01*
X146516642Y-123950316D01*
X146521950Y-123948894D01*
X146528002Y-123946072D01*
X146717175Y-123857860D01*
X146717180Y-123857857D01*
X146722162Y-123855534D01*
X146733739Y-123847428D01*
X146898609Y-123731985D01*
X146898612Y-123731983D01*
X146903120Y-123728826D01*
X147059326Y-123572620D01*
X147186034Y-123391661D01*
X147191166Y-123380657D01*
X147250925Y-123252502D01*
X147297842Y-123199217D01*
X147366120Y-123179756D01*
X147434080Y-123200298D01*
X147479315Y-123252502D01*
X147541398Y-123385638D01*
X147666902Y-123564877D01*
X147821623Y-123719598D01*
X147826131Y-123722755D01*
X147826134Y-123722757D01*
X147996352Y-123841945D01*
X148000861Y-123845102D01*
X148005843Y-123847425D01*
X148005848Y-123847428D01*
X148194188Y-123935252D01*
X148199170Y-123937575D01*
X148204478Y-123938997D01*
X148204480Y-123938998D01*
X148270245Y-123956620D01*
X148410523Y-123994207D01*
X148628500Y-124013277D01*
X148846477Y-123994207D01*
X148986755Y-123956620D01*
X149052520Y-123938998D01*
X149052522Y-123938997D01*
X149057830Y-123937575D01*
X149062812Y-123935252D01*
X149251152Y-123847428D01*
X149251157Y-123847425D01*
X149256139Y-123845102D01*
X149260648Y-123841945D01*
X149430866Y-123722757D01*
X149430869Y-123722755D01*
X149435377Y-123719598D01*
X149590098Y-123564877D01*
X149715602Y-123385638D01*
X149784305Y-123238305D01*
X149831223Y-123185020D01*
X149899500Y-123165559D01*
X149967460Y-123186101D01*
X150012695Y-123238305D01*
X150081398Y-123385638D01*
X150206902Y-123564877D01*
X150361623Y-123719598D01*
X150366131Y-123722755D01*
X150366134Y-123722757D01*
X150536352Y-123841945D01*
X150540861Y-123845102D01*
X150545843Y-123847425D01*
X150545848Y-123847428D01*
X150734188Y-123935252D01*
X150739170Y-123937575D01*
X150744478Y-123938997D01*
X150744480Y-123938998D01*
X150810245Y-123956620D01*
X150950523Y-123994207D01*
X151168500Y-124013277D01*
X151386477Y-123994207D01*
X151526755Y-123956620D01*
X151592520Y-123938998D01*
X151592522Y-123938997D01*
X151597830Y-123937575D01*
X151602812Y-123935252D01*
X151791152Y-123847428D01*
X151791157Y-123847425D01*
X151796139Y-123845102D01*
X151800648Y-123841945D01*
X151970866Y-123722757D01*
X151970869Y-123722755D01*
X151975377Y-123719598D01*
X152130098Y-123564877D01*
X152255602Y-123385638D01*
X152324305Y-123238305D01*
X152371223Y-123185020D01*
X152439500Y-123165559D01*
X152507460Y-123186101D01*
X152552695Y-123238305D01*
X152621398Y-123385638D01*
X152746902Y-123564877D01*
X152901623Y-123719598D01*
X152906131Y-123722755D01*
X152906134Y-123722757D01*
X153076352Y-123841945D01*
X153080861Y-123845102D01*
X153085843Y-123847425D01*
X153085848Y-123847428D01*
X153274188Y-123935252D01*
X153279170Y-123937575D01*
X153284478Y-123938997D01*
X153284480Y-123938998D01*
X153350245Y-123956620D01*
X153490523Y-123994207D01*
X153708500Y-124013277D01*
X153926477Y-123994207D01*
X154066755Y-123956620D01*
X154132520Y-123938998D01*
X154132522Y-123938997D01*
X154137830Y-123937575D01*
X154142812Y-123935252D01*
X154331152Y-123847428D01*
X154331157Y-123847425D01*
X154336139Y-123845102D01*
X154340648Y-123841945D01*
X154510866Y-123722757D01*
X154510869Y-123722755D01*
X154515377Y-123719598D01*
X154670098Y-123564877D01*
X154795602Y-123385638D01*
X154888075Y-123187330D01*
X154890105Y-123179756D01*
X154942723Y-122983381D01*
X154944707Y-122975977D01*
X154963777Y-122758000D01*
X154944707Y-122540023D01*
X154891531Y-122341569D01*
X154889498Y-122333980D01*
X154889497Y-122333978D01*
X154888075Y-122328670D01*
X154795602Y-122130362D01*
X154670098Y-121951123D01*
X154515377Y-121796402D01*
X154510869Y-121793245D01*
X154510866Y-121793243D01*
X154340648Y-121674055D01*
X154340645Y-121674053D01*
X154336139Y-121670898D01*
X154331157Y-121668575D01*
X154331152Y-121668572D01*
X154142812Y-121580748D01*
X154142811Y-121580747D01*
X154137830Y-121578425D01*
X154132522Y-121577003D01*
X154132520Y-121577002D01*
X154066755Y-121559380D01*
X153926477Y-121521793D01*
X153708500Y-121502723D01*
X153490523Y-121521793D01*
X153350245Y-121559380D01*
X153284480Y-121577002D01*
X153284478Y-121577003D01*
X153279170Y-121578425D01*
X153274190Y-121580747D01*
X153274188Y-121580748D01*
X153085843Y-121668575D01*
X153085840Y-121668577D01*
X153080862Y-121670898D01*
X152901623Y-121796402D01*
X152746902Y-121951123D01*
X152621398Y-122130362D01*
X152619077Y-122135340D01*
X152619075Y-122135343D01*
X152552695Y-122277695D01*
X152505777Y-122330980D01*
X152437500Y-122350441D01*
X152369540Y-122329899D01*
X152324305Y-122277695D01*
X152257925Y-122135343D01*
X152257923Y-122135340D01*
X152255602Y-122130362D01*
X152130098Y-121951123D01*
X151975377Y-121796402D01*
X151970869Y-121793245D01*
X151970866Y-121793243D01*
X151800648Y-121674055D01*
X151800645Y-121674053D01*
X151796139Y-121670898D01*
X151791157Y-121668575D01*
X151791152Y-121668572D01*
X151602812Y-121580748D01*
X151602811Y-121580747D01*
X151597830Y-121578425D01*
X151592522Y-121577003D01*
X151592520Y-121577002D01*
X151526755Y-121559380D01*
X151386477Y-121521793D01*
X151168500Y-121502723D01*
X150950523Y-121521793D01*
X150810245Y-121559380D01*
X150744480Y-121577002D01*
X150744478Y-121577003D01*
X150739170Y-121578425D01*
X150734190Y-121580747D01*
X150734188Y-121580748D01*
X150545843Y-121668575D01*
X150545840Y-121668577D01*
X150540862Y-121670898D01*
X150361623Y-121796402D01*
X150206902Y-121951123D01*
X150081398Y-122130362D01*
X150079077Y-122135340D01*
X150079075Y-122135343D01*
X150012695Y-122277695D01*
X149965777Y-122330980D01*
X149897500Y-122350441D01*
X149829540Y-122329899D01*
X149784305Y-122277695D01*
X149717925Y-122135343D01*
X149717923Y-122135340D01*
X149715602Y-122130362D01*
X149590098Y-121951123D01*
X149435377Y-121796402D01*
X149430869Y-121793245D01*
X149430866Y-121793243D01*
X149260648Y-121674055D01*
X149260645Y-121674053D01*
X149256139Y-121670898D01*
X149251157Y-121668575D01*
X149251152Y-121668572D01*
X149062812Y-121580748D01*
X149062811Y-121580747D01*
X149057830Y-121578425D01*
X149052522Y-121577003D01*
X149052520Y-121577002D01*
X148986755Y-121559380D01*
X148846477Y-121521793D01*
X148628500Y-121502723D01*
X148410523Y-121521793D01*
X148270245Y-121559380D01*
X148204480Y-121577002D01*
X148204478Y-121577003D01*
X148199170Y-121578425D01*
X148194190Y-121580747D01*
X148194188Y-121580748D01*
X148005843Y-121668575D01*
X148005840Y-121668577D01*
X148000862Y-121670898D01*
X147821623Y-121796402D01*
X147666902Y-121951123D01*
X147541398Y-122130362D01*
X147539077Y-122135340D01*
X147539075Y-122135343D01*
X147479315Y-122263498D01*
X147432397Y-122316783D01*
X147364120Y-122336244D01*
X147296160Y-122315702D01*
X147250925Y-122263498D01*
X147188357Y-122129320D01*
X147188355Y-122129317D01*
X147186034Y-122124339D01*
X147059326Y-121943380D01*
X146903120Y-121787174D01*
X146898612Y-121784017D01*
X146898609Y-121784015D01*
X146726671Y-121663623D01*
X146726668Y-121663621D01*
X146722162Y-121660466D01*
X146717180Y-121658143D01*
X146717175Y-121658140D01*
X146526932Y-121569429D01*
X146526931Y-121569429D01*
X146521950Y-121567106D01*
X146516642Y-121565684D01*
X146516640Y-121565683D01*
X146451248Y-121548161D01*
X146308568Y-121509930D01*
X146088500Y-121490677D01*
X145868432Y-121509930D01*
X145725752Y-121548161D01*
X145660360Y-121565683D01*
X145660358Y-121565684D01*
X145655050Y-121567106D01*
X145650069Y-121569428D01*
X145650068Y-121569429D01*
X145459820Y-121658143D01*
X145459817Y-121658145D01*
X145454839Y-121660466D01*
X145273880Y-121787174D01*
X145117674Y-121943380D01*
X144990966Y-122124339D01*
X144988645Y-122129317D01*
X144988643Y-122129320D01*
X144926075Y-122263498D01*
X144897606Y-122324550D01*
X144896184Y-122329858D01*
X144896183Y-122329860D01*
X144893046Y-122341569D01*
X144840430Y-122537932D01*
X144821177Y-122758000D01*
X142263777Y-122758000D01*
X142244707Y-122540023D01*
X142191531Y-122341569D01*
X142189498Y-122333980D01*
X142189497Y-122333978D01*
X142188075Y-122328670D01*
X142095602Y-122130362D01*
X141970098Y-121951123D01*
X141815377Y-121796402D01*
X141810869Y-121793245D01*
X141810866Y-121793243D01*
X141640648Y-121674055D01*
X141640645Y-121674053D01*
X141636139Y-121670898D01*
X141631157Y-121668575D01*
X141631152Y-121668572D01*
X141442812Y-121580748D01*
X141442811Y-121580747D01*
X141437830Y-121578425D01*
X141432522Y-121577003D01*
X141432520Y-121577002D01*
X141366755Y-121559380D01*
X141226477Y-121521793D01*
X141008500Y-121502723D01*
X140790523Y-121521793D01*
X140650245Y-121559380D01*
X140584480Y-121577002D01*
X140584478Y-121577003D01*
X140579170Y-121578425D01*
X140574190Y-121580747D01*
X140574188Y-121580748D01*
X140385843Y-121668575D01*
X140385840Y-121668577D01*
X140380862Y-121670898D01*
X140201623Y-121796402D01*
X140046902Y-121951123D01*
X139921398Y-122130362D01*
X139919077Y-122135340D01*
X139919075Y-122135343D01*
X139852695Y-122277695D01*
X139805777Y-122330980D01*
X139737500Y-122350441D01*
X139669540Y-122329899D01*
X139624305Y-122277695D01*
X139557925Y-122135343D01*
X139557923Y-122135340D01*
X139555602Y-122130362D01*
X139430098Y-121951123D01*
X139275377Y-121796402D01*
X139270869Y-121793245D01*
X139270866Y-121793243D01*
X139100648Y-121674055D01*
X139100645Y-121674053D01*
X139096139Y-121670898D01*
X139091157Y-121668575D01*
X139091152Y-121668572D01*
X138902812Y-121580748D01*
X138902811Y-121580747D01*
X138897830Y-121578425D01*
X138892522Y-121577003D01*
X138892520Y-121577002D01*
X138826755Y-121559380D01*
X138686477Y-121521793D01*
X138468500Y-121502723D01*
X138250523Y-121521793D01*
X138110245Y-121559380D01*
X138044480Y-121577002D01*
X138044478Y-121577003D01*
X138039170Y-121578425D01*
X138034190Y-121580747D01*
X138034188Y-121580748D01*
X137845843Y-121668575D01*
X137845840Y-121668577D01*
X137840862Y-121670898D01*
X137661623Y-121796402D01*
X137506902Y-121951123D01*
X137381398Y-122130362D01*
X137379077Y-122135340D01*
X137379075Y-122135343D01*
X137316832Y-122268823D01*
X137269914Y-122322108D01*
X137201637Y-122341569D01*
X137133677Y-122321027D01*
X137088442Y-122268823D01*
X137024446Y-122131583D01*
X137018966Y-122122093D01*
X136990089Y-122080851D01*
X136979613Y-122072477D01*
X136966166Y-122079545D01*
X136300521Y-122745189D01*
X136292908Y-122759132D01*
X135562856Y-122759132D01*
X135564092Y-122756868D01*
X135563961Y-122755034D01*
X135559710Y-122748420D01*
X134890109Y-122078820D01*
X134878339Y-122072393D01*
X134866324Y-122081689D01*
X134838034Y-122122093D01*
X134832554Y-122131583D01*
X134744174Y-122321113D01*
X134740428Y-122331405D01*
X134686304Y-122533401D01*
X134684401Y-122544196D01*
X134666174Y-122752525D01*
X134666174Y-122763475D01*
X122682000Y-122763475D01*
X122682000Y-121706887D01*
X135242977Y-121706887D01*
X135250045Y-121720334D01*
X135915689Y-122385979D01*
X135929632Y-122393592D01*
X135931466Y-122393461D01*
X135938080Y-122389210D01*
X136607680Y-121719609D01*
X136614107Y-121707839D01*
X136604813Y-121695825D01*
X136564412Y-121667536D01*
X136554916Y-121662053D01*
X136365387Y-121573674D01*
X136355095Y-121569928D01*
X136153099Y-121515804D01*
X136142304Y-121513901D01*
X135933975Y-121495674D01*
X135923025Y-121495674D01*
X135714696Y-121513901D01*
X135703901Y-121515804D01*
X135501905Y-121569928D01*
X135491613Y-121573674D01*
X135302083Y-121662054D01*
X135292593Y-121667534D01*
X135251351Y-121696411D01*
X135242977Y-121706887D01*
X122682000Y-121706887D01*
X122682000Y-120903000D01*
X122702002Y-120834879D01*
X122755658Y-120788386D01*
X122808000Y-120777000D01*
X182626000Y-120777000D01*
X182626000Y-129160000D01*
G37*
%TD.AperFunction*%
%TD*%
%TA.AperFunction,Conductor*%
%TO.N,GND*%
G36*
X164806000Y-97556002D02*
G01*
X164852493Y-97609658D01*
X164857709Y-97623057D01*
X164907821Y-97777284D01*
X165002467Y-97941216D01*
X165006885Y-97946123D01*
X165006886Y-97946124D01*
X165028038Y-97969615D01*
X165129129Y-98081888D01*
X165282270Y-98193151D01*
X165455197Y-98270144D01*
X165553212Y-98290978D01*
X165633897Y-98308128D01*
X165633901Y-98308128D01*
X165640354Y-98309500D01*
X165829646Y-98309500D01*
X165836099Y-98308128D01*
X165836103Y-98308128D01*
X165916788Y-98290978D01*
X166014803Y-98270144D01*
X166187730Y-98193151D01*
X166340871Y-98081888D01*
X166441963Y-97969615D01*
X166463114Y-97946124D01*
X166463115Y-97946123D01*
X166467533Y-97941216D01*
X166562179Y-97777284D01*
X166612289Y-97623063D01*
X166652361Y-97564458D01*
X166717758Y-97536821D01*
X166732121Y-97536000D01*
X174114688Y-97536000D01*
X174182809Y-97556002D01*
X174229302Y-97609658D01*
X174239406Y-97679932D01*
X174209912Y-97744512D01*
X174165937Y-97777106D01*
X173994470Y-97853449D01*
X173989129Y-97857329D01*
X173989128Y-97857330D01*
X173896815Y-97924399D01*
X173841329Y-97964712D01*
X173836916Y-97969614D01*
X173836914Y-97969615D01*
X173735823Y-98081888D01*
X173714667Y-98105384D01*
X173620021Y-98269316D01*
X173561526Y-98449344D01*
X173541740Y-98637600D01*
X173542430Y-98644165D01*
X173544592Y-98664731D01*
X173561526Y-98825856D01*
X173620021Y-99005884D01*
X173714667Y-99169816D01*
X173719085Y-99174723D01*
X173719086Y-99174724D01*
X173810377Y-99276112D01*
X173841329Y-99310488D01*
X173994470Y-99421751D01*
X174167397Y-99498744D01*
X174265412Y-99519578D01*
X174346097Y-99536728D01*
X174346101Y-99536728D01*
X174352554Y-99538100D01*
X174541846Y-99538100D01*
X174548299Y-99536728D01*
X174548303Y-99536728D01*
X174628988Y-99519578D01*
X174727003Y-99498744D01*
X174899930Y-99421751D01*
X175053071Y-99310488D01*
X175084024Y-99276112D01*
X175175314Y-99174724D01*
X175175315Y-99174723D01*
X175179733Y-99169816D01*
X175274379Y-99005884D01*
X175332874Y-98825856D01*
X175349809Y-98664731D01*
X175351970Y-98644165D01*
X175352660Y-98637600D01*
X175332874Y-98449344D01*
X175274379Y-98269316D01*
X175179733Y-98105384D01*
X175158577Y-98081888D01*
X175057486Y-97969615D01*
X175057484Y-97969614D01*
X175053071Y-97964712D01*
X174997585Y-97924399D01*
X174905272Y-97857330D01*
X174905271Y-97857329D01*
X174899930Y-97853449D01*
X174728463Y-97777106D01*
X174674367Y-97731126D01*
X174653718Y-97663199D01*
X174673071Y-97594891D01*
X174726282Y-97547890D01*
X174779712Y-97536000D01*
X182500000Y-97536000D01*
X182568121Y-97556002D01*
X182614614Y-97609658D01*
X182626000Y-97662000D01*
X182626000Y-101347000D01*
X182605998Y-101415121D01*
X182552342Y-101461614D01*
X182500000Y-101473000D01*
X181229000Y-101473000D01*
X181229000Y-112141000D01*
X182500000Y-112141000D01*
X182568121Y-112161002D01*
X182614614Y-112214658D01*
X182626000Y-112267000D01*
X182626000Y-120777000D01*
X155956000Y-120777000D01*
X155956000Y-118169002D01*
X158287380Y-118169002D01*
X158298502Y-118452084D01*
X158349400Y-118730775D01*
X158439058Y-118999514D01*
X158441050Y-119003501D01*
X158441051Y-119003503D01*
X158530676Y-119182870D01*
X158565687Y-119252939D01*
X158726761Y-119485993D01*
X158919065Y-119694027D01*
X158922519Y-119696839D01*
X159135307Y-119870075D01*
X159135311Y-119870078D01*
X159138764Y-119872889D01*
X159381472Y-120019012D01*
X159385567Y-120020746D01*
X159385569Y-120020747D01*
X159638247Y-120127742D01*
X159638254Y-120127744D01*
X159642348Y-120129478D01*
X159742492Y-120156031D01*
X159911889Y-120200946D01*
X159911893Y-120200947D01*
X159916186Y-120202085D01*
X159920595Y-120202607D01*
X159920601Y-120202608D01*
X160077954Y-120221232D01*
X160197523Y-120235384D01*
X160480745Y-120228709D01*
X160485143Y-120227977D01*
X160755810Y-120182926D01*
X160755814Y-120182925D01*
X160760200Y-120182195D01*
X160764441Y-120180854D01*
X160764444Y-120180853D01*
X161026068Y-120098112D01*
X161026070Y-120098111D01*
X161030314Y-120096769D01*
X161034325Y-120094843D01*
X161034330Y-120094841D01*
X161281678Y-119976066D01*
X161281679Y-119976065D01*
X161285697Y-119974136D01*
X161433781Y-119875190D01*
X161517545Y-119819221D01*
X161517549Y-119819218D01*
X161521253Y-119816743D01*
X161732281Y-119627730D01*
X161914573Y-119410868D01*
X162064489Y-119170485D01*
X162082967Y-119128689D01*
X162128803Y-119074474D01*
X162196676Y-119053646D01*
X162265034Y-119072820D01*
X162310919Y-119123318D01*
X162340676Y-119182870D01*
X162375687Y-119252939D01*
X162536761Y-119485993D01*
X162729065Y-119694027D01*
X162732519Y-119696839D01*
X162945307Y-119870075D01*
X162945311Y-119870078D01*
X162948764Y-119872889D01*
X163191472Y-120019012D01*
X163195567Y-120020746D01*
X163195569Y-120020747D01*
X163448247Y-120127742D01*
X163448254Y-120127744D01*
X163452348Y-120129478D01*
X163552492Y-120156031D01*
X163721889Y-120200946D01*
X163721893Y-120200947D01*
X163726186Y-120202085D01*
X163730595Y-120202607D01*
X163730601Y-120202608D01*
X163887954Y-120221232D01*
X164007523Y-120235384D01*
X164290745Y-120228709D01*
X164295143Y-120227977D01*
X164565810Y-120182926D01*
X164565814Y-120182925D01*
X164570200Y-120182195D01*
X164574441Y-120180854D01*
X164574444Y-120180853D01*
X164836068Y-120098112D01*
X164836070Y-120098111D01*
X164840314Y-120096769D01*
X164844325Y-120094843D01*
X164844330Y-120094841D01*
X165091678Y-119976066D01*
X165091679Y-119976065D01*
X165095697Y-119974136D01*
X165243781Y-119875190D01*
X165327545Y-119819221D01*
X165327549Y-119819218D01*
X165331253Y-119816743D01*
X165542281Y-119627730D01*
X165724573Y-119410868D01*
X165874489Y-119170485D01*
X165894669Y-119124840D01*
X165926143Y-119053646D01*
X165989040Y-118911376D01*
X166065939Y-118638712D01*
X166066845Y-118631966D01*
X166103225Y-118361115D01*
X166103226Y-118361107D01*
X166103652Y-118357933D01*
X166107610Y-118232000D01*
X166103149Y-118169002D01*
X169717380Y-118169002D01*
X169728502Y-118452084D01*
X169779400Y-118730775D01*
X169869058Y-118999514D01*
X169871050Y-119003501D01*
X169871051Y-119003503D01*
X169960676Y-119182870D01*
X169995687Y-119252939D01*
X170156761Y-119485993D01*
X170349065Y-119694027D01*
X170352519Y-119696839D01*
X170565307Y-119870075D01*
X170565311Y-119870078D01*
X170568764Y-119872889D01*
X170811472Y-120019012D01*
X170815567Y-120020746D01*
X170815569Y-120020747D01*
X171068247Y-120127742D01*
X171068254Y-120127744D01*
X171072348Y-120129478D01*
X171172492Y-120156031D01*
X171341889Y-120200946D01*
X171341893Y-120200947D01*
X171346186Y-120202085D01*
X171350595Y-120202607D01*
X171350601Y-120202608D01*
X171507954Y-120221232D01*
X171627523Y-120235384D01*
X171910745Y-120228709D01*
X171915143Y-120227977D01*
X172185810Y-120182926D01*
X172185814Y-120182925D01*
X172190200Y-120182195D01*
X172194441Y-120180854D01*
X172194444Y-120180853D01*
X172456068Y-120098112D01*
X172456070Y-120098111D01*
X172460314Y-120096769D01*
X172464325Y-120094843D01*
X172464330Y-120094841D01*
X172711678Y-119976066D01*
X172711679Y-119976065D01*
X172715697Y-119974136D01*
X172863781Y-119875190D01*
X172947545Y-119819221D01*
X172947549Y-119819218D01*
X172951253Y-119816743D01*
X173162281Y-119627730D01*
X173344573Y-119410868D01*
X173494489Y-119170485D01*
X173512967Y-119128689D01*
X173558803Y-119074474D01*
X173626676Y-119053646D01*
X173695034Y-119072820D01*
X173740919Y-119123318D01*
X173770676Y-119182870D01*
X173805687Y-119252939D01*
X173966761Y-119485993D01*
X174159065Y-119694027D01*
X174162519Y-119696839D01*
X174375307Y-119870075D01*
X174375311Y-119870078D01*
X174378764Y-119872889D01*
X174621472Y-120019012D01*
X174625567Y-120020746D01*
X174625569Y-120020747D01*
X174878247Y-120127742D01*
X174878254Y-120127744D01*
X174882348Y-120129478D01*
X174982492Y-120156031D01*
X175151889Y-120200946D01*
X175151893Y-120200947D01*
X175156186Y-120202085D01*
X175160595Y-120202607D01*
X175160601Y-120202608D01*
X175317954Y-120221232D01*
X175437523Y-120235384D01*
X175720745Y-120228709D01*
X175725143Y-120227977D01*
X175995810Y-120182926D01*
X175995814Y-120182925D01*
X176000200Y-120182195D01*
X176004441Y-120180854D01*
X176004444Y-120180853D01*
X176266068Y-120098112D01*
X176266070Y-120098111D01*
X176270314Y-120096769D01*
X176274325Y-120094843D01*
X176274330Y-120094841D01*
X176521678Y-119976066D01*
X176521679Y-119976065D01*
X176525697Y-119974136D01*
X176673781Y-119875190D01*
X176757545Y-119819221D01*
X176757549Y-119819218D01*
X176761253Y-119816743D01*
X176972281Y-119627730D01*
X177154573Y-119410868D01*
X177304489Y-119170485D01*
X177324669Y-119124840D01*
X177356143Y-119053646D01*
X177419040Y-118911376D01*
X177495939Y-118638712D01*
X177496845Y-118631966D01*
X177533225Y-118361115D01*
X177533226Y-118361107D01*
X177533652Y-118357933D01*
X177537610Y-118232000D01*
X177517601Y-117949407D01*
X177504204Y-117887177D01*
X177458911Y-117676800D01*
X177458911Y-117676798D01*
X177457975Y-117672453D01*
X177359920Y-117406663D01*
X177326159Y-117344092D01*
X177227506Y-117161256D01*
X177225393Y-117157340D01*
X177057078Y-116929460D01*
X177010554Y-116882199D01*
X176861465Y-116730751D01*
X176858334Y-116727570D01*
X176854794Y-116724869D01*
X176854788Y-116724863D01*
X176636667Y-116558398D01*
X176636663Y-116558395D01*
X176633126Y-116555696D01*
X176569179Y-116519884D01*
X176389837Y-116419448D01*
X176389832Y-116419445D01*
X176385947Y-116417270D01*
X176381789Y-116415662D01*
X176381784Y-116415659D01*
X176125885Y-116316659D01*
X176125879Y-116316657D01*
X176121730Y-116315052D01*
X176117398Y-116314048D01*
X176117395Y-116314047D01*
X176042141Y-116296604D01*
X175845747Y-116251082D01*
X175563503Y-116226637D01*
X175559068Y-116226881D01*
X175559064Y-116226881D01*
X175285073Y-116241960D01*
X175285066Y-116241961D01*
X175280630Y-116242205D01*
X175142743Y-116269632D01*
X175007146Y-116296604D01*
X175007141Y-116296605D01*
X175002774Y-116297474D01*
X174998571Y-116298950D01*
X174739684Y-116389864D01*
X174739681Y-116389865D01*
X174735476Y-116391342D01*
X174731523Y-116393395D01*
X174731517Y-116393398D01*
X174589135Y-116467360D01*
X174484072Y-116521936D01*
X174480457Y-116524519D01*
X174480451Y-116524523D01*
X174433048Y-116558398D01*
X174253576Y-116686651D01*
X174250349Y-116689729D01*
X174250347Y-116689731D01*
X174210682Y-116727570D01*
X174048588Y-116882199D01*
X173873199Y-117104680D01*
X173734138Y-117344092D01*
X173682627Y-117392951D01*
X173612879Y-117406205D01*
X173547037Y-117379646D01*
X173514296Y-117340639D01*
X173417506Y-117161256D01*
X173415393Y-117157340D01*
X173247078Y-116929460D01*
X173200554Y-116882199D01*
X173051465Y-116730751D01*
X173048334Y-116727570D01*
X173044794Y-116724869D01*
X173044788Y-116724863D01*
X172826667Y-116558398D01*
X172826663Y-116558395D01*
X172823126Y-116555696D01*
X172759179Y-116519884D01*
X172579837Y-116419448D01*
X172579832Y-116419445D01*
X172575947Y-116417270D01*
X172571789Y-116415662D01*
X172571784Y-116415659D01*
X172315885Y-116316659D01*
X172315879Y-116316657D01*
X172311730Y-116315052D01*
X172307398Y-116314048D01*
X172307395Y-116314047D01*
X172232141Y-116296604D01*
X172035747Y-116251082D01*
X171753503Y-116226637D01*
X171749068Y-116226881D01*
X171749064Y-116226881D01*
X171475073Y-116241960D01*
X171475066Y-116241961D01*
X171470630Y-116242205D01*
X171332743Y-116269632D01*
X171197146Y-116296604D01*
X171197141Y-116296605D01*
X171192774Y-116297474D01*
X171188571Y-116298950D01*
X170929684Y-116389864D01*
X170929681Y-116389865D01*
X170925476Y-116391342D01*
X170921523Y-116393395D01*
X170921517Y-116393398D01*
X170779135Y-116467360D01*
X170674072Y-116521936D01*
X170670457Y-116524519D01*
X170670451Y-116524523D01*
X170623048Y-116558398D01*
X170443576Y-116686651D01*
X170440349Y-116689729D01*
X170440347Y-116689731D01*
X170400682Y-116727570D01*
X170238588Y-116882199D01*
X170063199Y-117104680D01*
X170032612Y-117157340D01*
X169923141Y-117345807D01*
X169923138Y-117345813D01*
X169920907Y-117349654D01*
X169814552Y-117612232D01*
X169813481Y-117616545D01*
X169813479Y-117616550D01*
X169799593Y-117672453D01*
X169746255Y-117887177D01*
X169745801Y-117891605D01*
X169745801Y-117891607D01*
X169739879Y-117949407D01*
X169717380Y-118169002D01*
X166103149Y-118169002D01*
X166087601Y-117949407D01*
X166074204Y-117887177D01*
X166028911Y-117676800D01*
X166028911Y-117676798D01*
X166027975Y-117672453D01*
X165929920Y-117406663D01*
X165896159Y-117344092D01*
X165797506Y-117161256D01*
X165795393Y-117157340D01*
X165627078Y-116929460D01*
X165580554Y-116882199D01*
X165431465Y-116730751D01*
X165428334Y-116727570D01*
X165424794Y-116724869D01*
X165424788Y-116724863D01*
X165206667Y-116558398D01*
X165206663Y-116558395D01*
X165203126Y-116555696D01*
X165139179Y-116519884D01*
X164959837Y-116419448D01*
X164959832Y-116419445D01*
X164955947Y-116417270D01*
X164951789Y-116415662D01*
X164951784Y-116415659D01*
X164695885Y-116316659D01*
X164695879Y-116316657D01*
X164691730Y-116315052D01*
X164687398Y-116314048D01*
X164687395Y-116314047D01*
X164612141Y-116296604D01*
X164415747Y-116251082D01*
X164133503Y-116226637D01*
X164129068Y-116226881D01*
X164129064Y-116226881D01*
X163855073Y-116241960D01*
X163855066Y-116241961D01*
X163850630Y-116242205D01*
X163712743Y-116269632D01*
X163577146Y-116296604D01*
X163577141Y-116296605D01*
X163572774Y-116297474D01*
X163568571Y-116298950D01*
X163309684Y-116389864D01*
X163309681Y-116389865D01*
X163305476Y-116391342D01*
X163301523Y-116393395D01*
X163301517Y-116393398D01*
X163159135Y-116467360D01*
X163054072Y-116521936D01*
X163050457Y-116524519D01*
X163050451Y-116524523D01*
X163003048Y-116558398D01*
X162823576Y-116686651D01*
X162820349Y-116689729D01*
X162820347Y-116689731D01*
X162780682Y-116727570D01*
X162618588Y-116882199D01*
X162443199Y-117104680D01*
X162304138Y-117344092D01*
X162252627Y-117392951D01*
X162182879Y-117406205D01*
X162117037Y-117379646D01*
X162084296Y-117340639D01*
X161987506Y-117161256D01*
X161985393Y-117157340D01*
X161817078Y-116929460D01*
X161770554Y-116882199D01*
X161621465Y-116730751D01*
X161618334Y-116727570D01*
X161614794Y-116724869D01*
X161614788Y-116724863D01*
X161396667Y-116558398D01*
X161396663Y-116558395D01*
X161393126Y-116555696D01*
X161329179Y-116519884D01*
X161149837Y-116419448D01*
X161149832Y-116419445D01*
X161145947Y-116417270D01*
X161141789Y-116415662D01*
X161141784Y-116415659D01*
X160885885Y-116316659D01*
X160885879Y-116316657D01*
X160881730Y-116315052D01*
X160877398Y-116314048D01*
X160877395Y-116314047D01*
X160802141Y-116296604D01*
X160605747Y-116251082D01*
X160323503Y-116226637D01*
X160319068Y-116226881D01*
X160319064Y-116226881D01*
X160045073Y-116241960D01*
X160045066Y-116241961D01*
X160040630Y-116242205D01*
X159902743Y-116269632D01*
X159767146Y-116296604D01*
X159767141Y-116296605D01*
X159762774Y-116297474D01*
X159758571Y-116298950D01*
X159499684Y-116389864D01*
X159499681Y-116389865D01*
X159495476Y-116391342D01*
X159491523Y-116393395D01*
X159491517Y-116393398D01*
X159349135Y-116467360D01*
X159244072Y-116521936D01*
X159240457Y-116524519D01*
X159240451Y-116524523D01*
X159193048Y-116558398D01*
X159013576Y-116686651D01*
X159010349Y-116689729D01*
X159010347Y-116689731D01*
X158970682Y-116727570D01*
X158808588Y-116882199D01*
X158633199Y-117104680D01*
X158602612Y-117157340D01*
X158493141Y-117345807D01*
X158493138Y-117345813D01*
X158490907Y-117349654D01*
X158384552Y-117612232D01*
X158383481Y-117616545D01*
X158383479Y-117616550D01*
X158369593Y-117672453D01*
X158316255Y-117887177D01*
X158315801Y-117891605D01*
X158315801Y-117891607D01*
X158309879Y-117949407D01*
X158287380Y-118169002D01*
X155956000Y-118169002D01*
X155956000Y-111058200D01*
X173490940Y-111058200D01*
X173510726Y-111246456D01*
X173569221Y-111426484D01*
X173663867Y-111590416D01*
X173790529Y-111731088D01*
X173943670Y-111842351D01*
X174116597Y-111919344D01*
X174214612Y-111940178D01*
X174295297Y-111957328D01*
X174295301Y-111957328D01*
X174301754Y-111958700D01*
X174491046Y-111958700D01*
X174497499Y-111957328D01*
X174497503Y-111957328D01*
X174578188Y-111940178D01*
X174676203Y-111919344D01*
X174849130Y-111842351D01*
X175002271Y-111731088D01*
X175128933Y-111590416D01*
X175223579Y-111426484D01*
X175282074Y-111246456D01*
X175301860Y-111058200D01*
X175282074Y-110869944D01*
X175223579Y-110689916D01*
X175128933Y-110525984D01*
X175002271Y-110385312D01*
X174849130Y-110274049D01*
X174676203Y-110197056D01*
X174578188Y-110176222D01*
X174497503Y-110159072D01*
X174497499Y-110159072D01*
X174491046Y-110157700D01*
X174301754Y-110157700D01*
X174295301Y-110159072D01*
X174295297Y-110159072D01*
X174214612Y-110176222D01*
X174116597Y-110197056D01*
X173943670Y-110274049D01*
X173790529Y-110385312D01*
X173663867Y-110525984D01*
X173569221Y-110689916D01*
X173510726Y-110869944D01*
X173490940Y-111058200D01*
X155956000Y-111058200D01*
X155956000Y-108655111D01*
X155976002Y-108586990D01*
X155992905Y-108566016D01*
X157414032Y-107144889D01*
X157416554Y-107142436D01*
X157474639Y-107087508D01*
X157474640Y-107087507D01*
X157479280Y-107083119D01*
X157513878Y-107033708D01*
X157519448Y-107026343D01*
X157553539Y-106984544D01*
X157553542Y-106984540D01*
X157557573Y-106979597D01*
X157570910Y-106954087D01*
X157579353Y-106940200D01*
X157592202Y-106921849D01*
X157595863Y-106916621D01*
X157619822Y-106861256D01*
X157623795Y-106852928D01*
X157648784Y-106805127D01*
X157648785Y-106805124D01*
X157651741Y-106799470D01*
X157659675Y-106771799D01*
X157665155Y-106756495D01*
X157676586Y-106730081D01*
X157688922Y-106671033D01*
X157691140Y-106662070D01*
X157706007Y-106610220D01*
X157707766Y-106604087D01*
X157709974Y-106575388D01*
X157712265Y-106559295D01*
X157718151Y-106531120D01*
X157718500Y-106524461D01*
X157718500Y-106469436D01*
X157718871Y-106459769D01*
X157722871Y-106407790D01*
X157722871Y-106407786D01*
X157723360Y-106401430D01*
X157719494Y-106370827D01*
X157718500Y-106355035D01*
X157718500Y-105029000D01*
X164829540Y-105029000D01*
X164849326Y-105217256D01*
X164907821Y-105397284D01*
X165002467Y-105561216D01*
X165129129Y-105701888D01*
X165282270Y-105813151D01*
X165455197Y-105890144D01*
X165553212Y-105910978D01*
X165633897Y-105928128D01*
X165633901Y-105928128D01*
X165640354Y-105929500D01*
X165829646Y-105929500D01*
X165836099Y-105928128D01*
X165836103Y-105928128D01*
X165916788Y-105910978D01*
X166014803Y-105890144D01*
X166187730Y-105813151D01*
X166340871Y-105701888D01*
X166467533Y-105561216D01*
X166562179Y-105397284D01*
X166620674Y-105217256D01*
X166640460Y-105029000D01*
X166620674Y-104840744D01*
X166562179Y-104660716D01*
X166467533Y-104496784D01*
X166340871Y-104356112D01*
X166187730Y-104244849D01*
X166014803Y-104167856D01*
X165916788Y-104147022D01*
X165836103Y-104129872D01*
X165836099Y-104129872D01*
X165829646Y-104128500D01*
X165640354Y-104128500D01*
X165633901Y-104129872D01*
X165633897Y-104129872D01*
X165553212Y-104147022D01*
X165455197Y-104167856D01*
X165282270Y-104244849D01*
X165129129Y-104356112D01*
X165002467Y-104496784D01*
X164907821Y-104660716D01*
X164849326Y-104840744D01*
X164829540Y-105029000D01*
X157718500Y-105029000D01*
X157718500Y-102489000D01*
X164829540Y-102489000D01*
X164849326Y-102677256D01*
X164907821Y-102857284D01*
X165002467Y-103021216D01*
X165129129Y-103161888D01*
X165282270Y-103273151D01*
X165455197Y-103350144D01*
X165553212Y-103370978D01*
X165633897Y-103388128D01*
X165633901Y-103388128D01*
X165640354Y-103389500D01*
X165829646Y-103389500D01*
X165836099Y-103388128D01*
X165836103Y-103388128D01*
X165916788Y-103370978D01*
X166014803Y-103350144D01*
X166187730Y-103273151D01*
X166340871Y-103161888D01*
X166467533Y-103021216D01*
X166562179Y-102857284D01*
X166620674Y-102677256D01*
X166640460Y-102489000D01*
X166620674Y-102300744D01*
X166562179Y-102120716D01*
X166467533Y-101956784D01*
X166340871Y-101816112D01*
X166187730Y-101704849D01*
X166014803Y-101627856D01*
X165916788Y-101607022D01*
X165836103Y-101589872D01*
X165836099Y-101589872D01*
X165829646Y-101588500D01*
X165640354Y-101588500D01*
X165633901Y-101589872D01*
X165633897Y-101589872D01*
X165553212Y-101607022D01*
X165455197Y-101627856D01*
X165282270Y-101704849D01*
X165129129Y-101816112D01*
X165002467Y-101956784D01*
X164907821Y-102120716D01*
X164849326Y-102300744D01*
X164829540Y-102489000D01*
X157718500Y-102489000D01*
X157718500Y-99949000D01*
X164829540Y-99949000D01*
X164849326Y-100137256D01*
X164907821Y-100317284D01*
X165002467Y-100481216D01*
X165129129Y-100621888D01*
X165282270Y-100733151D01*
X165455197Y-100810144D01*
X165553212Y-100830978D01*
X165633897Y-100848128D01*
X165633901Y-100848128D01*
X165640354Y-100849500D01*
X165829646Y-100849500D01*
X165836099Y-100848128D01*
X165836103Y-100848128D01*
X165916788Y-100830978D01*
X166014803Y-100810144D01*
X166187730Y-100733151D01*
X166340871Y-100621888D01*
X166467533Y-100481216D01*
X166562179Y-100317284D01*
X166620674Y-100137256D01*
X166640460Y-99949000D01*
X166620674Y-99760744D01*
X166562179Y-99580716D01*
X166467533Y-99416784D01*
X166375316Y-99314367D01*
X166345286Y-99281015D01*
X166345284Y-99281014D01*
X166340871Y-99276112D01*
X166264219Y-99220421D01*
X166193072Y-99168730D01*
X166193071Y-99168729D01*
X166187730Y-99164849D01*
X166014803Y-99087856D01*
X165916788Y-99067022D01*
X165836103Y-99049872D01*
X165836099Y-99049872D01*
X165829646Y-99048500D01*
X165640354Y-99048500D01*
X165633901Y-99049872D01*
X165633897Y-99049872D01*
X165553212Y-99067022D01*
X165455197Y-99087856D01*
X165282270Y-99164849D01*
X165276929Y-99168729D01*
X165276928Y-99168730D01*
X165205781Y-99220421D01*
X165129129Y-99276112D01*
X165124716Y-99281014D01*
X165124714Y-99281015D01*
X165094684Y-99314367D01*
X165002467Y-99416784D01*
X164907821Y-99580716D01*
X164849326Y-99760744D01*
X164829540Y-99949000D01*
X157718500Y-99949000D01*
X157718500Y-99272611D01*
X157738502Y-99204490D01*
X157755405Y-99183516D01*
X159366016Y-97572905D01*
X159428327Y-97538880D01*
X159455110Y-97536000D01*
X164737879Y-97536000D01*
X164806000Y-97556002D01*
G37*
%TD.AperFunction*%
%TD*%
M02*
