%TF.GenerationSoftware,KiCad,Pcbnew,(6.0.1)*%
%TF.CreationDate,2023-04-21T13:11:10+03:00*%
%TF.ProjectId,Driver_Inductor,44726976-6572-45f4-996e-647563746f72,rev?*%
%TF.SameCoordinates,Original*%
%TF.FileFunction,Copper,L2,Inr*%
%TF.FilePolarity,Positive*%
%FSLAX46Y46*%
G04 Gerber Fmt 4.6, Leading zero omitted, Abs format (unit mm)*
G04 Created by KiCad (PCBNEW (6.0.1)) date 2023-04-21 13:11:10*
%MOMM*%
%LPD*%
G01*
G04 APERTURE LIST*
%TA.AperFunction,ComponentPad*%
%ADD10C,10.000000*%
%TD*%
%TA.AperFunction,ComponentPad*%
%ADD11C,1.524000*%
%TD*%
%TA.AperFunction,ComponentPad*%
%ADD12C,3.000000*%
%TD*%
%TA.AperFunction,ComponentPad*%
%ADD13R,1.500000X2.300000*%
%TD*%
%TA.AperFunction,ComponentPad*%
%ADD14O,1.500000X2.300000*%
%TD*%
%TA.AperFunction,ComponentPad*%
%ADD15C,1.500000*%
%TD*%
%TA.AperFunction,ViaPad*%
%ADD16C,0.800000*%
%TD*%
%TA.AperFunction,Conductor*%
%ADD17C,0.500000*%
%TD*%
G04 APERTURE END LIST*
D10*
%TO.N,OUT2_Sens*%
%TO.C,J5*%
X203200000Y-79970000D03*
D11*
X200152000Y-82510000D03*
X200406000Y-77176000D03*
X205994000Y-77176000D03*
X205994000Y-82510000D03*
X207010000Y-79970000D03*
X199390000Y-79970000D03*
X203200000Y-83780000D03*
X203200000Y-75906000D03*
%TD*%
D10*
%TO.N,OUT1*%
%TO.C,J4*%
X203200000Y-110490000D03*
D11*
X200152000Y-113030000D03*
X200406000Y-107696000D03*
X205994000Y-107696000D03*
X205994000Y-113030000D03*
X207010000Y-110490000D03*
X199390000Y-110490000D03*
X203200000Y-114300000D03*
X203200000Y-106426000D03*
%TD*%
D10*
%TO.N,Net-(D20-Pad27)*%
%TO.C,J3*%
X96520000Y-124460000D03*
D11*
X93472000Y-127000000D03*
X93726000Y-121666000D03*
X99314000Y-121666000D03*
X99314000Y-127000000D03*
X100330000Y-124460000D03*
X92710000Y-124460000D03*
X96520000Y-128270000D03*
X96520000Y-120396000D03*
%TD*%
D10*
%TO.N,DESAT_H*%
%TO.C,J2*%
X96520000Y-68199000D03*
D11*
X93472000Y-70739000D03*
X93726000Y-65405000D03*
X99314000Y-65405000D03*
X99314000Y-70739000D03*
X100330000Y-68199000D03*
X92710000Y-68199000D03*
X96520000Y-72009000D03*
X96520000Y-64135000D03*
%TD*%
D12*
%TO.N,Net-(D20-Pad1)*%
%TO.C,D20*%
X114572000Y-118232000D03*
X118382000Y-118232000D03*
%TO.N,G2*%
X126002000Y-118232000D03*
%TO.N,E2*%
X129812000Y-118232000D03*
%TO.N,G3*%
X137432000Y-118232000D03*
%TO.N,E3*%
X141242000Y-118232000D03*
%TO.N,Net-(D20-Pad7)*%
X148862000Y-118232000D03*
X152672000Y-118232000D03*
%TO.N,Net-(D20-Pad10)*%
X160292000Y-118232000D03*
X164102000Y-118232000D03*
%TO.N,Net-(D20-Pad11)*%
X171722000Y-118232000D03*
X175532000Y-118232000D03*
%TO.N,unconnected-(D20-Pad13)*%
X184652000Y-108712000D03*
%TO.N,unconnected-(D20-Pad14)*%
X184652000Y-104902000D03*
%TO.N,unconnected-(D20-Pad15)*%
X184652000Y-89662000D03*
%TO.N,unconnected-(D20-Pad16)*%
X184652000Y-85852000D03*
%TO.N,NTC1*%
X175532000Y-76332000D03*
%TO.N,NTC2*%
X171722000Y-76332000D03*
%TO.N,unconnected-(D20-Pad19)*%
X160292000Y-76332000D03*
%TO.N,unconnected-(D20-Pad20)*%
X156482000Y-76332000D03*
%TO.N,OUT2*%
X141242000Y-76332000D03*
X137432000Y-76332000D03*
%TO.N,OUT1*%
X122192000Y-76332000D03*
X118382000Y-76332000D03*
%TO.N,DESAT_H*%
X105452000Y-85852000D03*
X105452000Y-89662000D03*
%TO.N,Net-(D20-Pad27)*%
X105452000Y-104902000D03*
X105452000Y-108712000D03*
%TD*%
D13*
%TO.N,+15V*%
%TO.C,U1*%
X162217500Y-127254000D03*
D14*
%TO.N,GND*%
X164757500Y-127254000D03*
%TO.N,+3V3*%
X167297500Y-127254000D03*
%TD*%
D15*
%TO.N,GND*%
%TO.C,D16*%
X135928500Y-122758000D03*
%TO.N,+15V*%
X138468500Y-122758000D03*
%TO.N,unconnected-(D16-Pad3)*%
X141008500Y-122758000D03*
D11*
%TO.N,N/C*%
X146088500Y-122758000D03*
D15*
%TO.N,+15V_H1*%
X148628500Y-122758000D03*
%TO.N,E3*%
X151168500Y-122758000D03*
%TO.N,-15V_H1*%
X153708500Y-122758000D03*
%TD*%
D13*
%TO.N,+15V*%
%TO.C,U2*%
X176026500Y-127258500D03*
D14*
%TO.N,GND*%
X178566500Y-127258500D03*
%TO.N,+5V*%
X181106500Y-127258500D03*
%TD*%
D15*
%TO.N,GND*%
%TO.C,D15*%
X130937000Y-127179000D03*
%TO.N,+15V*%
X128397000Y-127179000D03*
%TO.N,unconnected-(D15-Pad3)*%
X125857000Y-127179000D03*
D11*
%TO.N,N/C*%
X120777000Y-127179000D03*
D15*
%TO.N,+15V_L1*%
X118237000Y-127179000D03*
%TO.N,E2*%
X115697000Y-127179000D03*
%TO.N,-15V_L1*%
X113157000Y-127179000D03*
%TD*%
D16*
%TO.N,OUT2_Sens*%
X203200000Y-69850000D03*
%TO.N,OUT1*%
X191770000Y-73660000D03*
X191770000Y-77470000D03*
X196850000Y-91440000D03*
X191770000Y-88900000D03*
X191770000Y-85090000D03*
X191770000Y-81280000D03*
X186690000Y-71120000D03*
X181610000Y-71120000D03*
X176530000Y-71120000D03*
X171450000Y-71120000D03*
X166370000Y-71120000D03*
X161290000Y-71120000D03*
%TO.N,OUT2_Sens*%
X203200000Y-74930000D03*
X207010000Y-74930000D03*
X207010000Y-69850000D03*
X207010000Y-66040000D03*
X201930000Y-63500000D03*
X196850000Y-63500000D03*
X191770000Y-63500000D03*
X186690000Y-63500000D03*
X181610000Y-63500000D03*
X176530000Y-63500000D03*
X171450000Y-63500000D03*
X166370000Y-63500000D03*
%TO.N,OUT1*%
X191770000Y-111760000D03*
X191770000Y-116840000D03*
X191770000Y-127000000D03*
X191770000Y-121920000D03*
X196850000Y-127000000D03*
X201930000Y-127000000D03*
X207010000Y-127000000D03*
X207010000Y-121920000D03*
X201930000Y-121920000D03*
X128270000Y-76200000D03*
%TO.N,+5V*%
X152781000Y-77851000D03*
%TO.N,Current*%
X150241000Y-77851000D03*
%TO.N,GND*%
X179679600Y-99898200D03*
X133985000Y-92075000D03*
X171907200Y-93303600D03*
X139065000Y-90006300D03*
X126365000Y-90031700D03*
X171856400Y-105470200D03*
X121285000Y-92075000D03*
X143383000Y-92075000D03*
X161290000Y-98679000D03*
X161290000Y-85979000D03*
X128676400Y-85039200D03*
X130683000Y-92075000D03*
X157073600Y-108000800D03*
X161290000Y-103759000D03*
X146304000Y-106172000D03*
X141833600Y-85013800D03*
X161290000Y-106299000D03*
X161290000Y-88519000D03*
X161290000Y-101219000D03*
%TO.N,Net-(C3-Pad2)*%
X120548400Y-88595200D03*
%TO.N,Net-(C4-Pad2)*%
X133451600Y-88569800D03*
%TO.N,Net-(C5-Pad1)*%
X135382000Y-104775000D03*
X113030000Y-107823000D03*
%TO.N,Net-(C6-Pad1)*%
X118110000Y-107823000D03*
X122682000Y-104775000D03*
%TO.N,E2*%
X123952000Y-104775000D03*
%TO.N,FLT_L1*%
X151993600Y-100634800D03*
X127152400Y-83261200D03*
X125222000Y-92075000D03*
%TO.N,RDY_L1*%
X131216400Y-88595200D03*
X146913600Y-100330000D03*
%TO.N,FLT_H1*%
X140055600Y-83235800D03*
X137922000Y-90043000D03*
X152019000Y-98552000D03*
X137922000Y-92075000D03*
%TO.N,RDY_H1*%
X144119600Y-88569800D03*
%TO.N,Net-(C11-Pad1)*%
X154533600Y-105562400D03*
%TO.N,Net-(C12-Pad1)*%
X148932900Y-105575100D03*
%TO.N,Net-(C13-Pad1)*%
X153263600Y-105562400D03*
%TO.N,Net-(C14-Pad1)*%
X150723600Y-105562400D03*
%TO.N,+15V*%
X165735000Y-105029000D03*
X165735000Y-99949000D03*
X165735000Y-97409000D03*
X165735000Y-102489000D03*
%TO.N,+15V_L1*%
X120269000Y-121793000D03*
X126492000Y-104775000D03*
%TO.N,-15V_L1*%
X130429000Y-104775000D03*
X111633000Y-121793000D03*
X121412537Y-104745642D03*
%TO.N,+15V_H1*%
X146431000Y-128270000D03*
X139192000Y-104775000D03*
%TO.N,-15V_H1*%
X134112000Y-104775000D03*
X177546000Y-80416400D03*
X175361600Y-86360000D03*
X143637000Y-104775000D03*
X176530000Y-91313000D03*
X180975000Y-93345000D03*
X179197000Y-76327000D03*
X155829000Y-128270000D03*
%TO.N,Current*%
X165862000Y-84709000D03*
%TO.N,+3.3VA*%
X179197000Y-78613000D03*
X170307000Y-86741000D03*
X185521600Y-94945200D03*
X174955200Y-83108800D03*
%TO.N,Net-(C33-Pad1)*%
X173857500Y-88270500D03*
%TO.N,Net-(C33-Pad2)*%
X169545000Y-88900000D03*
%TO.N,PWM2_P*%
X161290000Y-91059000D03*
X129159000Y-92075000D03*
%TO.N,PWM2_N*%
X127889000Y-92075000D03*
X165775001Y-89789000D03*
%TO.N,PWM1_P*%
X161290000Y-93599000D03*
X141859000Y-92075000D03*
%TO.N,PWM1_N*%
X140589000Y-92075000D03*
X165735000Y-92329000D03*
%TO.N,Net-(D9-Pad2)*%
X124612400Y-85039200D03*
%TO.N,Net-(D10-Pad2)*%
X127152400Y-85039200D03*
%TO.N,Net-(D11-Pad2)*%
X137515600Y-85013800D03*
%TO.N,Net-(D12-Pad2)*%
X140055600Y-85013800D03*
%TO.N,+3V3*%
X146177000Y-85217000D03*
X143357600Y-85013800D03*
X122809000Y-92075000D03*
X174396400Y-111058200D03*
X174447200Y-98637600D03*
X135509000Y-92075000D03*
X185547000Y-100457000D03*
X130454400Y-85039200D03*
%TO.N,RST_H1*%
X146202400Y-87274400D03*
X122072400Y-85039200D03*
X134975600Y-85013800D03*
%TO.N,Net-(C37-Pad1)*%
X157124400Y-83972400D03*
%TO.N,E3*%
X136652000Y-104775000D03*
X179197000Y-80899000D03*
%TO.N,OUT1*%
X120650000Y-66040000D03*
X120650000Y-71120000D03*
X207010000Y-101600000D03*
X196850000Y-106680000D03*
X207010000Y-116840000D03*
X124460000Y-66040000D03*
X124460000Y-71120000D03*
X196850000Y-116840000D03*
X207010000Y-91440000D03*
X128270000Y-71120000D03*
X128270000Y-66040000D03*
X201930000Y-96520000D03*
X196850000Y-121920000D03*
X207010000Y-96520000D03*
X201930000Y-101600000D03*
X201930000Y-91440000D03*
%TD*%
D17*
%TO.N,Current*%
X163703000Y-82550000D02*
X165862000Y-84709000D01*
X154847304Y-82550000D02*
X163703000Y-82550000D01*
X150241000Y-77851000D02*
X150241000Y-77943696D01*
X150241000Y-77943696D02*
X154847304Y-82550000D01*
%TO.N,+5V*%
X181106500Y-119003500D02*
X181106500Y-127258500D01*
X165416480Y-81850480D02*
X168402000Y-84836000D01*
X156780480Y-81850480D02*
X165416480Y-81850480D01*
X168402000Y-106299000D02*
X181106500Y-119003500D01*
X152781000Y-77851000D02*
X156780480Y-81850480D01*
X168402000Y-84836000D02*
X168402000Y-106299000D01*
%TO.N,Net-(C5-Pad1)*%
X132715000Y-109347000D02*
X114554000Y-109347000D01*
X135382000Y-104775000D02*
X135382000Y-106680000D01*
X114554000Y-109347000D02*
X113030000Y-107823000D01*
X135382000Y-106680000D02*
X132715000Y-109347000D01*
%TO.N,Net-(C6-Pad1)*%
X122682000Y-104775000D02*
X122682000Y-107315000D01*
X122682000Y-107315000D02*
X121603520Y-108393480D01*
X121603520Y-108393480D02*
X118680480Y-108393480D01*
X118680480Y-108393480D02*
X118110000Y-107823000D01*
%TO.N,FLT_L1*%
X140403609Y-93091000D02*
X144449800Y-93091000D01*
X126111000Y-91186000D02*
X138498609Y-91186000D01*
X138498609Y-91186000D02*
X140403609Y-93091000D01*
X144449800Y-93091000D02*
X151993600Y-100634800D01*
X125222000Y-92075000D02*
X125222000Y-85630991D01*
X127152400Y-83700591D02*
X127152400Y-83261200D01*
X125222000Y-85630991D02*
X127152400Y-83700591D01*
X125222000Y-92075000D02*
X126111000Y-91186000D01*
%TO.N,FLT_H1*%
X137922000Y-85946009D02*
X137922000Y-90043000D01*
X140055600Y-83235800D02*
X140055600Y-83812409D01*
X140055600Y-83812409D02*
X137922000Y-85946009D01*
%TO.N,PWM1_P*%
X141859000Y-92075000D02*
X143129000Y-90805000D01*
X143129000Y-90805000D02*
X148971000Y-90805000D01*
X151765000Y-93599000D02*
X161290000Y-93599000D01*
X148971000Y-90805000D02*
X151765000Y-93599000D01*
%TO.N,PWM1_N*%
X151638000Y-92329000D02*
X149352000Y-90043000D01*
X149352000Y-90043000D02*
X142621000Y-90043000D01*
X142621000Y-90043000D02*
X140589000Y-92075000D01*
X165735000Y-92329000D02*
X151638000Y-92329000D01*
%TD*%
%TA.AperFunction,Conductor*%
%TO.N,OUT1*%
G36*
X125095000Y-78867000D02*
G01*
X116839000Y-78867000D01*
X116770879Y-78846998D01*
X116724386Y-78793342D01*
X116713000Y-78741000D01*
X116713000Y-77921654D01*
X117157618Y-77921654D01*
X117164673Y-77931627D01*
X117195679Y-77957551D01*
X117202598Y-77962579D01*
X117427272Y-78103515D01*
X117434807Y-78107556D01*
X117676520Y-78216694D01*
X117684551Y-78219680D01*
X117938832Y-78295002D01*
X117947184Y-78296869D01*
X118209340Y-78336984D01*
X118217874Y-78337700D01*
X118483045Y-78341867D01*
X118491596Y-78341418D01*
X118754883Y-78309557D01*
X118763284Y-78307955D01*
X119019824Y-78240653D01*
X119027926Y-78237926D01*
X119272949Y-78136434D01*
X119280617Y-78132628D01*
X119509598Y-77998822D01*
X119516679Y-77994009D01*
X119596655Y-77931301D01*
X119603545Y-77921654D01*
X120967618Y-77921654D01*
X120974673Y-77931627D01*
X121005679Y-77957551D01*
X121012598Y-77962579D01*
X121237272Y-78103515D01*
X121244807Y-78107556D01*
X121486520Y-78216694D01*
X121494551Y-78219680D01*
X121748832Y-78295002D01*
X121757184Y-78296869D01*
X122019340Y-78336984D01*
X122027874Y-78337700D01*
X122293045Y-78341867D01*
X122301596Y-78341418D01*
X122564883Y-78309557D01*
X122573284Y-78307955D01*
X122829824Y-78240653D01*
X122837926Y-78237926D01*
X123082949Y-78136434D01*
X123090617Y-78132628D01*
X123319598Y-77998822D01*
X123326679Y-77994009D01*
X123406655Y-77931301D01*
X123415125Y-77919442D01*
X123408608Y-77907818D01*
X122204812Y-76704022D01*
X122190868Y-76696408D01*
X122189035Y-76696539D01*
X122182420Y-76700790D01*
X120974910Y-77908300D01*
X120967618Y-77921654D01*
X119603545Y-77921654D01*
X119605125Y-77919442D01*
X119598608Y-77907818D01*
X118394812Y-76704022D01*
X118380868Y-76696408D01*
X118379035Y-76696539D01*
X118372420Y-76700790D01*
X117164910Y-77908300D01*
X117157618Y-77921654D01*
X116713000Y-77921654D01*
X116713000Y-77673965D01*
X116733002Y-77605844D01*
X116780863Y-77562179D01*
X116805342Y-77549448D01*
X118009978Y-76344812D01*
X118016356Y-76333132D01*
X118746408Y-76333132D01*
X118746539Y-76334965D01*
X118750790Y-76341580D01*
X119957730Y-77548520D01*
X119969939Y-77555187D01*
X119981439Y-77546497D01*
X120078831Y-77413913D01*
X120083418Y-77406685D01*
X120176788Y-77234720D01*
X120226871Y-77184398D01*
X120296209Y-77169142D01*
X120362788Y-77193794D01*
X120400084Y-77238228D01*
X120457664Y-77352713D01*
X120462020Y-77360079D01*
X120591347Y-77548250D01*
X120601601Y-77556594D01*
X120615342Y-77549448D01*
X121819978Y-76344812D01*
X121826356Y-76333132D01*
X122556408Y-76333132D01*
X122556539Y-76334965D01*
X122560790Y-76341580D01*
X123767730Y-77548520D01*
X123779939Y-77555187D01*
X123791439Y-77546497D01*
X123888831Y-77413913D01*
X123893418Y-77406685D01*
X124019962Y-77173621D01*
X124023530Y-77165827D01*
X124117271Y-76917750D01*
X124119748Y-76909544D01*
X124178954Y-76651038D01*
X124180294Y-76642577D01*
X124204031Y-76376616D01*
X124204277Y-76371677D01*
X124204666Y-76334485D01*
X124204523Y-76329519D01*
X124186362Y-76063123D01*
X124185201Y-76054649D01*
X124131419Y-75794944D01*
X124129120Y-75786709D01*
X124040588Y-75536705D01*
X124037191Y-75528854D01*
X123915550Y-75293178D01*
X123911122Y-75285866D01*
X123792031Y-75116417D01*
X123781509Y-75108037D01*
X123768121Y-75115089D01*
X122564022Y-76319188D01*
X122556408Y-76333132D01*
X121826356Y-76333132D01*
X121827592Y-76330868D01*
X121827461Y-76329035D01*
X121823210Y-76322420D01*
X120615814Y-75115024D01*
X120603804Y-75108466D01*
X120592064Y-75117434D01*
X120483935Y-75267911D01*
X120479421Y-75275191D01*
X120398178Y-75428631D01*
X120348625Y-75479474D01*
X120279451Y-75495455D01*
X120212617Y-75471501D01*
X120174858Y-75427460D01*
X120105553Y-75293183D01*
X120101122Y-75285866D01*
X119982031Y-75116417D01*
X119971509Y-75108037D01*
X119958121Y-75115089D01*
X118754022Y-76319188D01*
X118746408Y-76333132D01*
X118016356Y-76333132D01*
X118017592Y-76330868D01*
X118017461Y-76329035D01*
X118013210Y-76322420D01*
X116805813Y-75115023D01*
X116778614Y-75100171D01*
X116728412Y-75049969D01*
X116713000Y-74989584D01*
X116713000Y-74744500D01*
X117158584Y-74744500D01*
X117164980Y-74755770D01*
X118369188Y-75959978D01*
X118383132Y-75967592D01*
X118384965Y-75967461D01*
X118391580Y-75963210D01*
X119598604Y-74756186D01*
X119604985Y-74744500D01*
X120968584Y-74744500D01*
X120974980Y-74755770D01*
X122179188Y-75959978D01*
X122193132Y-75967592D01*
X122194965Y-75967461D01*
X122201580Y-75963210D01*
X123408604Y-74756186D01*
X123415795Y-74743017D01*
X123408473Y-74732780D01*
X123361233Y-74694115D01*
X123354261Y-74689160D01*
X123128122Y-74550582D01*
X123120552Y-74546624D01*
X122877704Y-74440022D01*
X122869644Y-74437120D01*
X122614592Y-74364467D01*
X122606214Y-74362685D01*
X122343656Y-74325318D01*
X122335111Y-74324691D01*
X122069908Y-74323302D01*
X122061374Y-74323839D01*
X121798433Y-74358456D01*
X121790035Y-74360149D01*
X121534238Y-74430127D01*
X121526143Y-74432946D01*
X121282199Y-74536997D01*
X121274577Y-74540881D01*
X121047013Y-74677075D01*
X121039981Y-74681962D01*
X120977053Y-74732377D01*
X120968584Y-74744500D01*
X119604985Y-74744500D01*
X119605795Y-74743017D01*
X119598473Y-74732780D01*
X119551233Y-74694115D01*
X119544261Y-74689160D01*
X119318122Y-74550582D01*
X119310552Y-74546624D01*
X119067704Y-74440022D01*
X119059644Y-74437120D01*
X118804592Y-74364467D01*
X118796214Y-74362685D01*
X118533656Y-74325318D01*
X118525111Y-74324691D01*
X118259908Y-74323302D01*
X118251374Y-74323839D01*
X117988433Y-74358456D01*
X117980035Y-74360149D01*
X117724238Y-74430127D01*
X117716143Y-74432946D01*
X117472199Y-74536997D01*
X117464577Y-74540881D01*
X117237013Y-74677075D01*
X117229981Y-74681962D01*
X117167053Y-74732377D01*
X117158584Y-74744500D01*
X116713000Y-74744500D01*
X116713000Y-72771000D01*
X125095000Y-72771000D01*
X125095000Y-78867000D01*
G37*
%TD.AperFunction*%
%TD*%
%TA.AperFunction,Conductor*%
%TO.N,OUT1*%
G36*
X164064955Y-62890001D02*
G01*
X164402041Y-62890001D01*
X164470162Y-62910003D01*
X164516655Y-62963659D01*
X164526759Y-63033933D01*
X164524325Y-63046375D01*
X164493017Y-63172414D01*
X164465585Y-63440151D01*
X164465760Y-63444602D01*
X164472763Y-63622820D01*
X164476152Y-63709083D01*
X164524505Y-63973843D01*
X164609682Y-64229148D01*
X164729981Y-64469905D01*
X164883003Y-64691309D01*
X164886025Y-64694578D01*
X165062679Y-64885682D01*
X165062684Y-64885687D01*
X165065695Y-64888944D01*
X165274411Y-65058866D01*
X165278229Y-65061165D01*
X165278231Y-65061166D01*
X165501170Y-65195386D01*
X165504987Y-65197684D01*
X165509082Y-65199418D01*
X165509084Y-65199419D01*
X165748721Y-65300892D01*
X165748728Y-65300894D01*
X165752822Y-65302628D01*
X165848710Y-65328052D01*
X166008675Y-65370467D01*
X166008680Y-65370468D01*
X166012972Y-65371606D01*
X166017381Y-65372128D01*
X166017387Y-65372129D01*
X166166289Y-65389752D01*
X166280245Y-65403240D01*
X166549310Y-65396899D01*
X166553708Y-65396167D01*
X166810406Y-65353441D01*
X166810410Y-65353440D01*
X166814796Y-65352710D01*
X166819037Y-65351369D01*
X166819040Y-65351368D01*
X167067162Y-65272897D01*
X167067164Y-65272896D01*
X167071408Y-65271554D01*
X167075419Y-65269628D01*
X167075424Y-65269626D01*
X167310006Y-65156981D01*
X167310007Y-65156980D01*
X167314025Y-65155051D01*
X167317731Y-65152575D01*
X167534098Y-65008004D01*
X167534102Y-65008001D01*
X167537806Y-65005526D01*
X167541123Y-65002555D01*
X167541127Y-65002552D01*
X167734970Y-64828931D01*
X167738286Y-64825961D01*
X167798274Y-64754597D01*
X167908601Y-64623348D01*
X167908606Y-64623342D01*
X167911465Y-64619940D01*
X168053887Y-64391572D01*
X168162712Y-64145416D01*
X168235767Y-63886382D01*
X168271595Y-63619638D01*
X168275355Y-63500000D01*
X168256347Y-63231533D01*
X168255411Y-63227184D01*
X168255408Y-63227165D01*
X168215654Y-63042521D01*
X168220870Y-62971716D01*
X168263538Y-62914972D01*
X168330111Y-62890303D01*
X168338831Y-62890001D01*
X169482041Y-62890001D01*
X169550162Y-62910003D01*
X169596655Y-62963659D01*
X169606759Y-63033933D01*
X169604325Y-63046375D01*
X169573017Y-63172414D01*
X169545585Y-63440151D01*
X169545760Y-63444602D01*
X169552763Y-63622820D01*
X169556152Y-63709083D01*
X169604505Y-63973843D01*
X169689682Y-64229148D01*
X169809981Y-64469905D01*
X169963003Y-64691309D01*
X169966025Y-64694578D01*
X170142679Y-64885682D01*
X170142684Y-64885687D01*
X170145695Y-64888944D01*
X170354411Y-65058866D01*
X170358229Y-65061165D01*
X170358231Y-65061166D01*
X170581170Y-65195386D01*
X170584987Y-65197684D01*
X170589082Y-65199418D01*
X170589084Y-65199419D01*
X170828721Y-65300892D01*
X170828728Y-65300894D01*
X170832822Y-65302628D01*
X170928710Y-65328052D01*
X171088675Y-65370467D01*
X171088680Y-65370468D01*
X171092972Y-65371606D01*
X171097381Y-65372128D01*
X171097387Y-65372129D01*
X171246289Y-65389752D01*
X171360245Y-65403240D01*
X171629310Y-65396899D01*
X171633708Y-65396167D01*
X171890406Y-65353441D01*
X171890410Y-65353440D01*
X171894796Y-65352710D01*
X171899037Y-65351369D01*
X171899040Y-65351368D01*
X172147162Y-65272897D01*
X172147164Y-65272896D01*
X172151408Y-65271554D01*
X172155419Y-65269628D01*
X172155424Y-65269626D01*
X172390006Y-65156981D01*
X172390007Y-65156980D01*
X172394025Y-65155051D01*
X172397731Y-65152575D01*
X172614098Y-65008004D01*
X172614102Y-65008001D01*
X172617806Y-65005526D01*
X172621123Y-65002555D01*
X172621127Y-65002552D01*
X172814970Y-64828931D01*
X172818286Y-64825961D01*
X172878274Y-64754597D01*
X172988601Y-64623348D01*
X172988606Y-64623342D01*
X172991465Y-64619940D01*
X173133887Y-64391572D01*
X173242712Y-64145416D01*
X173315767Y-63886382D01*
X173351595Y-63619638D01*
X173355355Y-63500000D01*
X173336347Y-63231533D01*
X173335411Y-63227184D01*
X173335408Y-63227165D01*
X173295654Y-63042521D01*
X173300870Y-62971716D01*
X173343538Y-62914972D01*
X173410111Y-62890303D01*
X173418831Y-62890001D01*
X174562041Y-62890001D01*
X174630162Y-62910003D01*
X174676655Y-62963659D01*
X174686759Y-63033933D01*
X174684325Y-63046375D01*
X174653017Y-63172414D01*
X174625585Y-63440151D01*
X174625760Y-63444602D01*
X174632763Y-63622820D01*
X174636152Y-63709083D01*
X174684505Y-63973843D01*
X174769682Y-64229148D01*
X174889981Y-64469905D01*
X175043003Y-64691309D01*
X175046025Y-64694578D01*
X175222679Y-64885682D01*
X175222684Y-64885687D01*
X175225695Y-64888944D01*
X175434411Y-65058866D01*
X175438229Y-65061165D01*
X175438231Y-65061166D01*
X175661170Y-65195386D01*
X175664987Y-65197684D01*
X175669082Y-65199418D01*
X175669084Y-65199419D01*
X175908721Y-65300892D01*
X175908728Y-65300894D01*
X175912822Y-65302628D01*
X176008710Y-65328052D01*
X176168675Y-65370467D01*
X176168680Y-65370468D01*
X176172972Y-65371606D01*
X176177381Y-65372128D01*
X176177387Y-65372129D01*
X176326289Y-65389752D01*
X176440245Y-65403240D01*
X176709310Y-65396899D01*
X176713708Y-65396167D01*
X176970406Y-65353441D01*
X176970410Y-65353440D01*
X176974796Y-65352710D01*
X176979037Y-65351369D01*
X176979040Y-65351368D01*
X177227162Y-65272897D01*
X177227164Y-65272896D01*
X177231408Y-65271554D01*
X177235419Y-65269628D01*
X177235424Y-65269626D01*
X177470006Y-65156981D01*
X177470007Y-65156980D01*
X177474025Y-65155051D01*
X177477731Y-65152575D01*
X177694098Y-65008004D01*
X177694102Y-65008001D01*
X177697806Y-65005526D01*
X177701123Y-65002555D01*
X177701127Y-65002552D01*
X177894970Y-64828931D01*
X177898286Y-64825961D01*
X177958274Y-64754597D01*
X178068601Y-64623348D01*
X178068606Y-64623342D01*
X178071465Y-64619940D01*
X178213887Y-64391572D01*
X178322712Y-64145416D01*
X178395767Y-63886382D01*
X178431595Y-63619638D01*
X178435355Y-63500000D01*
X178416347Y-63231533D01*
X178415411Y-63227184D01*
X178415408Y-63227165D01*
X178375654Y-63042521D01*
X178380870Y-62971716D01*
X178423538Y-62914972D01*
X178490111Y-62890303D01*
X178498831Y-62890001D01*
X179642041Y-62890001D01*
X179710162Y-62910003D01*
X179756655Y-62963659D01*
X179766759Y-63033933D01*
X179764325Y-63046375D01*
X179733017Y-63172414D01*
X179705585Y-63440151D01*
X179705760Y-63444602D01*
X179712763Y-63622820D01*
X179716152Y-63709083D01*
X179764505Y-63973843D01*
X179849682Y-64229148D01*
X179969981Y-64469905D01*
X180123003Y-64691309D01*
X180126025Y-64694578D01*
X180302679Y-64885682D01*
X180302684Y-64885687D01*
X180305695Y-64888944D01*
X180514411Y-65058866D01*
X180518229Y-65061165D01*
X180518231Y-65061166D01*
X180741170Y-65195386D01*
X180744987Y-65197684D01*
X180749082Y-65199418D01*
X180749084Y-65199419D01*
X180988721Y-65300892D01*
X180988728Y-65300894D01*
X180992822Y-65302628D01*
X181088710Y-65328052D01*
X181248675Y-65370467D01*
X181248680Y-65370468D01*
X181252972Y-65371606D01*
X181257381Y-65372128D01*
X181257387Y-65372129D01*
X181406289Y-65389752D01*
X181520245Y-65403240D01*
X181789310Y-65396899D01*
X181793708Y-65396167D01*
X182050406Y-65353441D01*
X182050410Y-65353440D01*
X182054796Y-65352710D01*
X182059037Y-65351369D01*
X182059040Y-65351368D01*
X182307162Y-65272897D01*
X182307164Y-65272896D01*
X182311408Y-65271554D01*
X182315419Y-65269628D01*
X182315424Y-65269626D01*
X182550006Y-65156981D01*
X182550007Y-65156980D01*
X182554025Y-65155051D01*
X182557731Y-65152575D01*
X182774098Y-65008004D01*
X182774102Y-65008001D01*
X182777806Y-65005526D01*
X182781123Y-65002555D01*
X182781127Y-65002552D01*
X182974970Y-64828931D01*
X182978286Y-64825961D01*
X183038274Y-64754597D01*
X183148601Y-64623348D01*
X183148606Y-64623342D01*
X183151465Y-64619940D01*
X183293887Y-64391572D01*
X183402712Y-64145416D01*
X183475767Y-63886382D01*
X183511595Y-63619638D01*
X183515355Y-63500000D01*
X183496347Y-63231533D01*
X183495411Y-63227184D01*
X183495408Y-63227165D01*
X183455654Y-63042521D01*
X183460870Y-62971716D01*
X183503538Y-62914972D01*
X183570111Y-62890303D01*
X183578831Y-62890001D01*
X184722041Y-62890001D01*
X184790162Y-62910003D01*
X184836655Y-62963659D01*
X184846759Y-63033933D01*
X184844325Y-63046375D01*
X184813017Y-63172414D01*
X184785585Y-63440151D01*
X184785760Y-63444602D01*
X184792763Y-63622820D01*
X184796152Y-63709083D01*
X184844505Y-63973843D01*
X184929682Y-64229148D01*
X185049981Y-64469905D01*
X185203003Y-64691309D01*
X185206025Y-64694578D01*
X185382679Y-64885682D01*
X185382684Y-64885687D01*
X185385695Y-64888944D01*
X185594411Y-65058866D01*
X185598229Y-65061165D01*
X185598231Y-65061166D01*
X185821170Y-65195386D01*
X185824987Y-65197684D01*
X185829082Y-65199418D01*
X185829084Y-65199419D01*
X186068721Y-65300892D01*
X186068728Y-65300894D01*
X186072822Y-65302628D01*
X186168710Y-65328052D01*
X186328675Y-65370467D01*
X186328680Y-65370468D01*
X186332972Y-65371606D01*
X186337381Y-65372128D01*
X186337387Y-65372129D01*
X186486289Y-65389752D01*
X186600245Y-65403240D01*
X186869310Y-65396899D01*
X186873708Y-65396167D01*
X187130406Y-65353441D01*
X187130410Y-65353440D01*
X187134796Y-65352710D01*
X187139037Y-65351369D01*
X187139040Y-65351368D01*
X187387162Y-65272897D01*
X187387164Y-65272896D01*
X187391408Y-65271554D01*
X187395419Y-65269628D01*
X187395424Y-65269626D01*
X187630006Y-65156981D01*
X187630007Y-65156980D01*
X187634025Y-65155051D01*
X187637731Y-65152575D01*
X187854098Y-65008004D01*
X187854102Y-65008001D01*
X187857806Y-65005526D01*
X187861123Y-65002555D01*
X187861127Y-65002552D01*
X188054970Y-64828931D01*
X188058286Y-64825961D01*
X188118274Y-64754597D01*
X188228601Y-64623348D01*
X188228606Y-64623342D01*
X188231465Y-64619940D01*
X188373887Y-64391572D01*
X188482712Y-64145416D01*
X188555767Y-63886382D01*
X188591595Y-63619638D01*
X188595355Y-63500000D01*
X188576347Y-63231533D01*
X188575411Y-63227184D01*
X188575408Y-63227165D01*
X188535654Y-63042521D01*
X188540870Y-62971716D01*
X188583538Y-62914972D01*
X188650111Y-62890303D01*
X188658831Y-62890001D01*
X189802041Y-62890001D01*
X189870162Y-62910003D01*
X189916655Y-62963659D01*
X189926759Y-63033933D01*
X189924325Y-63046375D01*
X189893017Y-63172414D01*
X189865585Y-63440151D01*
X189865760Y-63444602D01*
X189872763Y-63622820D01*
X189876152Y-63709083D01*
X189924505Y-63973843D01*
X190009682Y-64229148D01*
X190129981Y-64469905D01*
X190283003Y-64691309D01*
X190286025Y-64694578D01*
X190462679Y-64885682D01*
X190462684Y-64885687D01*
X190465695Y-64888944D01*
X190674411Y-65058866D01*
X190678229Y-65061165D01*
X190678231Y-65061166D01*
X190901170Y-65195386D01*
X190904987Y-65197684D01*
X190909082Y-65199418D01*
X190909084Y-65199419D01*
X191148721Y-65300892D01*
X191148728Y-65300894D01*
X191152822Y-65302628D01*
X191248710Y-65328052D01*
X191408675Y-65370467D01*
X191408680Y-65370468D01*
X191412972Y-65371606D01*
X191417381Y-65372128D01*
X191417387Y-65372129D01*
X191566289Y-65389752D01*
X191680245Y-65403240D01*
X191949310Y-65396899D01*
X191953708Y-65396167D01*
X192210406Y-65353441D01*
X192210410Y-65353440D01*
X192214796Y-65352710D01*
X192219037Y-65351369D01*
X192219040Y-65351368D01*
X192467162Y-65272897D01*
X192467164Y-65272896D01*
X192471408Y-65271554D01*
X192475419Y-65269628D01*
X192475424Y-65269626D01*
X192710006Y-65156981D01*
X192710007Y-65156980D01*
X192714025Y-65155051D01*
X192717731Y-65152575D01*
X192934098Y-65008004D01*
X192934102Y-65008001D01*
X192937806Y-65005526D01*
X192941123Y-65002555D01*
X192941127Y-65002552D01*
X193134970Y-64828931D01*
X193138286Y-64825961D01*
X193198274Y-64754597D01*
X193308601Y-64623348D01*
X193308606Y-64623342D01*
X193311465Y-64619940D01*
X193453887Y-64391572D01*
X193562712Y-64145416D01*
X193635767Y-63886382D01*
X193671595Y-63619638D01*
X193675355Y-63500000D01*
X193656347Y-63231533D01*
X193655411Y-63227184D01*
X193655408Y-63227165D01*
X193615654Y-63042521D01*
X193620870Y-62971716D01*
X193663538Y-62914972D01*
X193730111Y-62890303D01*
X193738831Y-62890001D01*
X194882041Y-62890001D01*
X194950162Y-62910003D01*
X194996655Y-62963659D01*
X195006759Y-63033933D01*
X195004325Y-63046375D01*
X194973017Y-63172414D01*
X194945585Y-63440151D01*
X194945760Y-63444602D01*
X194952763Y-63622820D01*
X194956152Y-63709083D01*
X195004505Y-63973843D01*
X195089682Y-64229148D01*
X195209981Y-64469905D01*
X195363003Y-64691309D01*
X195366025Y-64694578D01*
X195542679Y-64885682D01*
X195542684Y-64885687D01*
X195545695Y-64888944D01*
X195754411Y-65058866D01*
X195758229Y-65061165D01*
X195758231Y-65061166D01*
X195981170Y-65195386D01*
X195984987Y-65197684D01*
X195989082Y-65199418D01*
X195989084Y-65199419D01*
X196228721Y-65300892D01*
X196228728Y-65300894D01*
X196232822Y-65302628D01*
X196328710Y-65328052D01*
X196488675Y-65370467D01*
X196488680Y-65370468D01*
X196492972Y-65371606D01*
X196497381Y-65372128D01*
X196497387Y-65372129D01*
X196646289Y-65389752D01*
X196760245Y-65403240D01*
X197029310Y-65396899D01*
X197033708Y-65396167D01*
X197290406Y-65353441D01*
X197290410Y-65353440D01*
X197294796Y-65352710D01*
X197299037Y-65351369D01*
X197299040Y-65351368D01*
X197547162Y-65272897D01*
X197547164Y-65272896D01*
X197551408Y-65271554D01*
X197555419Y-65269628D01*
X197555424Y-65269626D01*
X197790006Y-65156981D01*
X197790007Y-65156980D01*
X197794025Y-65155051D01*
X197797731Y-65152575D01*
X198014098Y-65008004D01*
X198014102Y-65008001D01*
X198017806Y-65005526D01*
X198021123Y-65002555D01*
X198021127Y-65002552D01*
X198214970Y-64828931D01*
X198218286Y-64825961D01*
X198278274Y-64754597D01*
X198388601Y-64623348D01*
X198388606Y-64623342D01*
X198391465Y-64619940D01*
X198533887Y-64391572D01*
X198642712Y-64145416D01*
X198715767Y-63886382D01*
X198751595Y-63619638D01*
X198755355Y-63500000D01*
X198736347Y-63231533D01*
X198735411Y-63227184D01*
X198735408Y-63227165D01*
X198695654Y-63042521D01*
X198700870Y-62971716D01*
X198743538Y-62914972D01*
X198810111Y-62890303D01*
X198818831Y-62890001D01*
X199962041Y-62890001D01*
X200030162Y-62910003D01*
X200076655Y-62963659D01*
X200086759Y-63033933D01*
X200084325Y-63046375D01*
X200053017Y-63172414D01*
X200025585Y-63440151D01*
X200025760Y-63444602D01*
X200032763Y-63622820D01*
X200036152Y-63709083D01*
X200084505Y-63973843D01*
X200169682Y-64229148D01*
X200289981Y-64469905D01*
X200443003Y-64691309D01*
X200446025Y-64694578D01*
X200622679Y-64885682D01*
X200622684Y-64885687D01*
X200625695Y-64888944D01*
X200834411Y-65058866D01*
X200838229Y-65061165D01*
X200838231Y-65061166D01*
X201061170Y-65195386D01*
X201064987Y-65197684D01*
X201069082Y-65199418D01*
X201069084Y-65199419D01*
X201308721Y-65300892D01*
X201308728Y-65300894D01*
X201312822Y-65302628D01*
X201408710Y-65328052D01*
X201568675Y-65370467D01*
X201568680Y-65370468D01*
X201572972Y-65371606D01*
X201577381Y-65372128D01*
X201577387Y-65372129D01*
X201726289Y-65389752D01*
X201840245Y-65403240D01*
X202109310Y-65396899D01*
X202113708Y-65396167D01*
X202370406Y-65353441D01*
X202370410Y-65353440D01*
X202374796Y-65352710D01*
X202379037Y-65351369D01*
X202379040Y-65351368D01*
X202627162Y-65272897D01*
X202627164Y-65272896D01*
X202631408Y-65271554D01*
X202635419Y-65269628D01*
X202635424Y-65269626D01*
X202870006Y-65156981D01*
X202870007Y-65156980D01*
X202874025Y-65155051D01*
X202877731Y-65152575D01*
X203094098Y-65008004D01*
X203094102Y-65008001D01*
X203097806Y-65005526D01*
X203101123Y-65002555D01*
X203101127Y-65002552D01*
X203294970Y-64828931D01*
X203298286Y-64825961D01*
X203358274Y-64754597D01*
X203468601Y-64623348D01*
X203468606Y-64623342D01*
X203471465Y-64619940D01*
X203613887Y-64391572D01*
X203722712Y-64145416D01*
X203795767Y-63886382D01*
X203831595Y-63619638D01*
X203835355Y-63500000D01*
X203816347Y-63231533D01*
X203815411Y-63227184D01*
X203815408Y-63227165D01*
X203775654Y-63042521D01*
X203780870Y-62971716D01*
X203823538Y-62914972D01*
X203890111Y-62890303D01*
X203898831Y-62890001D01*
X204334605Y-62890001D01*
X204347994Y-62890714D01*
X204380094Y-62894145D01*
X204380100Y-62894145D01*
X204385226Y-62894693D01*
X204390378Y-62894396D01*
X204390382Y-62894396D01*
X204439400Y-62891569D01*
X204452821Y-62891511D01*
X204759985Y-62906563D01*
X204772259Y-62907769D01*
X204936577Y-62932081D01*
X205100901Y-62956393D01*
X205112984Y-62958790D01*
X205338883Y-63015225D01*
X205435295Y-63039311D01*
X205447100Y-63042882D01*
X205760005Y-63154533D01*
X205771402Y-63159241D01*
X205924696Y-63231533D01*
X206071876Y-63300942D01*
X206082748Y-63306735D01*
X206298618Y-63435720D01*
X206367944Y-63477143D01*
X206378209Y-63483980D01*
X206645369Y-63681448D01*
X206654916Y-63689256D01*
X206901492Y-63911900D01*
X206910228Y-63920601D01*
X206923698Y-63935399D01*
X206954760Y-63999238D01*
X206946377Y-64069738D01*
X206901209Y-64124514D01*
X206837442Y-64146023D01*
X206810169Y-64147524D01*
X206771196Y-64149669D01*
X206766833Y-64150537D01*
X206766832Y-64150537D01*
X206511596Y-64201307D01*
X206511594Y-64201308D01*
X206507228Y-64202176D01*
X206253292Y-64291352D01*
X206014455Y-64415418D01*
X206010840Y-64418001D01*
X206010834Y-64418005D01*
X205905170Y-64493514D01*
X205795481Y-64571899D01*
X205792254Y-64574977D01*
X205792252Y-64574979D01*
X205666880Y-64694578D01*
X205600740Y-64757672D01*
X205434118Y-64969032D01*
X205383573Y-65056052D01*
X205301173Y-65197913D01*
X205301170Y-65197919D01*
X205298939Y-65201760D01*
X205297269Y-65205883D01*
X205217374Y-65403135D01*
X205197900Y-65451213D01*
X205133017Y-65712414D01*
X205105585Y-65980151D01*
X205116152Y-66249083D01*
X205164505Y-66513843D01*
X205249682Y-66769148D01*
X205369981Y-67009905D01*
X205523003Y-67231309D01*
X205526025Y-67234578D01*
X205702679Y-67425682D01*
X205702684Y-67425687D01*
X205705695Y-67428944D01*
X205914411Y-67598866D01*
X206144987Y-67737684D01*
X206149082Y-67739418D01*
X206149084Y-67739419D01*
X206363655Y-67830278D01*
X206418584Y-67875259D01*
X206440475Y-67942797D01*
X206422377Y-68011448D01*
X206370037Y-68059417D01*
X206356272Y-68065188D01*
X206253292Y-68101352D01*
X206014455Y-68225418D01*
X206010840Y-68228001D01*
X206010834Y-68228005D01*
X205965793Y-68260192D01*
X205795481Y-68381899D01*
X205600740Y-68567672D01*
X205434118Y-68779032D01*
X205402785Y-68832976D01*
X205301173Y-69007913D01*
X205301170Y-69007919D01*
X205298939Y-69011760D01*
X205297269Y-69015883D01*
X205221099Y-69203938D01*
X205176986Y-69259567D01*
X205109801Y-69282517D01*
X205040874Y-69265499D01*
X204992089Y-69213919D01*
X204986103Y-69200247D01*
X204938088Y-69070097D01*
X204936547Y-69065919D01*
X204928353Y-69050732D01*
X204810857Y-68832976D01*
X204808744Y-68829060D01*
X204694174Y-68673944D01*
X204651492Y-68616157D01*
X204651489Y-68616154D01*
X204648843Y-68612571D01*
X204460034Y-68420772D01*
X204246083Y-68257490D01*
X204193434Y-68228005D01*
X204015147Y-68128159D01*
X204015144Y-68128158D01*
X204011261Y-68125983D01*
X204007122Y-68124382D01*
X204007114Y-68124378D01*
X203821566Y-68052596D01*
X203760251Y-68028875D01*
X203755926Y-68027872D01*
X203755921Y-68027871D01*
X203611864Y-67994481D01*
X203498063Y-67968103D01*
X203229928Y-67944880D01*
X203225493Y-67945124D01*
X203225489Y-67945124D01*
X203116324Y-67951132D01*
X202961196Y-67959669D01*
X202956833Y-67960537D01*
X202956832Y-67960537D01*
X202701596Y-68011307D01*
X202701594Y-68011308D01*
X202697228Y-68012176D01*
X202443292Y-68101352D01*
X202204455Y-68225418D01*
X202200840Y-68228001D01*
X202200834Y-68228005D01*
X202155793Y-68260192D01*
X201985481Y-68381899D01*
X201790740Y-68567672D01*
X201624118Y-68779032D01*
X201592785Y-68832976D01*
X201491173Y-69007913D01*
X201491170Y-69007919D01*
X201488939Y-69011760D01*
X201487269Y-69015883D01*
X201397209Y-69238231D01*
X201387900Y-69261213D01*
X201323017Y-69522414D01*
X201295585Y-69790151D01*
X201306152Y-70059083D01*
X201354505Y-70323843D01*
X201439682Y-70579148D01*
X201559981Y-70819905D01*
X201713003Y-71041309D01*
X201716025Y-71044578D01*
X201892679Y-71235682D01*
X201892684Y-71235687D01*
X201895695Y-71238944D01*
X202104411Y-71408866D01*
X202108229Y-71411165D01*
X202108231Y-71411166D01*
X202318850Y-71537969D01*
X202334987Y-71547684D01*
X202339082Y-71549418D01*
X202339084Y-71549419D01*
X202578721Y-71650892D01*
X202578728Y-71650894D01*
X202582822Y-71652628D01*
X202660711Y-71673280D01*
X202838675Y-71720467D01*
X202838680Y-71720468D01*
X202842972Y-71721606D01*
X202847381Y-71722128D01*
X202847387Y-71722129D01*
X202996289Y-71739752D01*
X203110245Y-71753240D01*
X203379310Y-71746899D01*
X203383708Y-71746167D01*
X203640406Y-71703441D01*
X203640410Y-71703440D01*
X203644796Y-71702710D01*
X203649037Y-71701369D01*
X203649040Y-71701368D01*
X203897162Y-71622897D01*
X203897164Y-71622896D01*
X203901408Y-71621554D01*
X203905419Y-71619628D01*
X203905424Y-71619626D01*
X204140006Y-71506981D01*
X204140007Y-71506980D01*
X204144025Y-71505051D01*
X204147731Y-71502575D01*
X204364098Y-71358004D01*
X204364102Y-71358001D01*
X204367806Y-71355526D01*
X204371123Y-71352555D01*
X204371127Y-71352552D01*
X204564970Y-71178931D01*
X204568286Y-71175961D01*
X204581180Y-71160622D01*
X204738601Y-70973348D01*
X204738606Y-70973342D01*
X204741465Y-70969940D01*
X204883887Y-70741572D01*
X204991552Y-70498040D01*
X205037390Y-70443825D01*
X205105263Y-70422997D01*
X205173621Y-70442171D01*
X205220762Y-70495259D01*
X205226316Y-70509112D01*
X205249682Y-70579148D01*
X205369981Y-70819905D01*
X205523003Y-71041309D01*
X205526025Y-71044578D01*
X205702679Y-71235682D01*
X205702684Y-71235687D01*
X205705695Y-71238944D01*
X205914411Y-71408866D01*
X205918229Y-71411165D01*
X205918231Y-71411166D01*
X206128850Y-71537969D01*
X206144987Y-71547684D01*
X206149082Y-71549418D01*
X206149084Y-71549419D01*
X206388721Y-71650892D01*
X206388728Y-71650894D01*
X206392822Y-71652628D01*
X206470711Y-71673280D01*
X206648675Y-71720467D01*
X206648680Y-71720468D01*
X206652972Y-71721606D01*
X206657381Y-71722128D01*
X206657387Y-71722129D01*
X206806289Y-71739752D01*
X206920245Y-71753240D01*
X207189310Y-71746899D01*
X207193708Y-71746167D01*
X207450406Y-71703441D01*
X207450410Y-71703440D01*
X207454796Y-71702710D01*
X207459037Y-71701369D01*
X207459040Y-71701368D01*
X207707162Y-71622897D01*
X207707164Y-71622896D01*
X207711408Y-71621554D01*
X207761459Y-71597520D01*
X207831524Y-71586063D01*
X207896661Y-71614305D01*
X207936189Y-71673280D01*
X207942000Y-71711103D01*
X207942000Y-73068847D01*
X207921998Y-73136968D01*
X207868342Y-73183461D01*
X207798068Y-73193565D01*
X207770538Y-73186360D01*
X207763045Y-73183461D01*
X207570251Y-73108875D01*
X207565926Y-73107872D01*
X207565921Y-73107871D01*
X207421864Y-73074481D01*
X207308063Y-73048103D01*
X207039928Y-73024880D01*
X207035493Y-73025124D01*
X207035489Y-73025124D01*
X206926324Y-73031132D01*
X206771196Y-73039669D01*
X206766833Y-73040537D01*
X206766832Y-73040537D01*
X206511596Y-73091307D01*
X206511594Y-73091308D01*
X206507228Y-73092176D01*
X206253292Y-73181352D01*
X206014455Y-73305418D01*
X206010840Y-73308001D01*
X206010834Y-73308005D01*
X205965793Y-73340192D01*
X205795481Y-73461899D01*
X205792254Y-73464977D01*
X205792252Y-73464979D01*
X205626637Y-73622968D01*
X205600740Y-73647672D01*
X205597984Y-73651168D01*
X205486871Y-73792114D01*
X205428990Y-73833227D01*
X205358070Y-73836521D01*
X205344311Y-73832320D01*
X205212651Y-73783748D01*
X205212633Y-73783742D01*
X205210315Y-73782887D01*
X205207931Y-73782215D01*
X205207926Y-73782213D01*
X205004943Y-73724966D01*
X204718683Y-73644232D01*
X204660013Y-73632562D01*
X204610683Y-73622749D01*
X204545473Y-73587563D01*
X204463165Y-73503953D01*
X204460034Y-73500772D01*
X204246083Y-73337490D01*
X204193434Y-73308005D01*
X204015147Y-73208159D01*
X204015144Y-73208158D01*
X204011261Y-73205983D01*
X204007122Y-73204382D01*
X204007114Y-73204378D01*
X203811136Y-73128561D01*
X203760251Y-73108875D01*
X203755926Y-73107872D01*
X203755921Y-73107871D01*
X203611864Y-73074481D01*
X203498063Y-73048103D01*
X203229928Y-73024880D01*
X203225493Y-73025124D01*
X203225489Y-73025124D01*
X203116324Y-73031132D01*
X202961196Y-73039669D01*
X202956833Y-73040537D01*
X202956832Y-73040537D01*
X202701596Y-73091307D01*
X202701594Y-73091308D01*
X202697228Y-73092176D01*
X202443292Y-73181352D01*
X202204455Y-73305418D01*
X202200840Y-73308001D01*
X202200834Y-73308005D01*
X202155793Y-73340192D01*
X201985481Y-73461899D01*
X201982254Y-73464977D01*
X201982252Y-73464979D01*
X201947568Y-73498066D01*
X201853751Y-73587563D01*
X201850610Y-73590559D01*
X201788221Y-73622967D01*
X201681317Y-73644232D01*
X201678941Y-73644902D01*
X201678929Y-73644905D01*
X201192074Y-73782213D01*
X201192069Y-73782215D01*
X201189685Y-73782887D01*
X200710447Y-73959687D01*
X200708212Y-73960717D01*
X200708208Y-73960719D01*
X200594394Y-74013188D01*
X200246558Y-74173543D01*
X200244419Y-74174741D01*
X200244409Y-74174746D01*
X200076003Y-74269058D01*
X199800877Y-74423136D01*
X199798824Y-74424508D01*
X199798822Y-74424509D01*
X199393943Y-74695041D01*
X199376154Y-74706927D01*
X199288785Y-74775803D01*
X199009960Y-74995611D01*
X198975005Y-75023167D01*
X198973191Y-75024844D01*
X198973185Y-75024849D01*
X198756047Y-75225570D01*
X198599906Y-75369906D01*
X198598243Y-75371705D01*
X198344990Y-75645672D01*
X198253167Y-75745005D01*
X198251635Y-75746948D01*
X198251631Y-75746953D01*
X198095047Y-75945580D01*
X197936927Y-76146154D01*
X197935550Y-76148215D01*
X197935547Y-76148219D01*
X197654609Y-76568672D01*
X197653136Y-76570877D01*
X197536004Y-76780032D01*
X197405670Y-77012760D01*
X197403543Y-77016558D01*
X197189687Y-77480447D01*
X197012887Y-77959685D01*
X197012215Y-77962069D01*
X197012213Y-77962074D01*
X196878863Y-78434898D01*
X196874232Y-78451317D01*
X196873751Y-78453737D01*
X196873748Y-78453748D01*
X196832383Y-78661706D01*
X196774578Y-78952313D01*
X196714538Y-79459583D01*
X196694484Y-79970000D01*
X196714538Y-80480417D01*
X196714827Y-80482862D01*
X196714828Y-80482870D01*
X196750942Y-80787990D01*
X196774578Y-80987687D01*
X196775061Y-80990114D01*
X196873344Y-81484218D01*
X196874232Y-81488683D01*
X196874902Y-81491059D01*
X196874905Y-81491071D01*
X196971050Y-81831972D01*
X197012887Y-81980315D01*
X197189687Y-82459553D01*
X197403543Y-82923442D01*
X197404741Y-82925581D01*
X197404746Y-82925591D01*
X197473831Y-83048951D01*
X197653136Y-83369123D01*
X197654508Y-83371176D01*
X197654509Y-83371178D01*
X197925251Y-83776371D01*
X197936927Y-83793846D01*
X198009704Y-83886163D01*
X198237846Y-84175560D01*
X198253167Y-84194995D01*
X198254844Y-84196809D01*
X198254849Y-84196815D01*
X198577887Y-84546274D01*
X198599906Y-84570094D01*
X198601705Y-84571757D01*
X198948032Y-84891899D01*
X198975005Y-84916833D01*
X198976948Y-84918365D01*
X198976953Y-84918369D01*
X199007316Y-84942305D01*
X199376154Y-85233073D01*
X199378215Y-85234450D01*
X199378219Y-85234453D01*
X199795158Y-85513043D01*
X199800877Y-85516864D01*
X199998345Y-85627451D01*
X200244409Y-85765254D01*
X200244419Y-85765259D01*
X200246558Y-85766457D01*
X200414775Y-85844006D01*
X200707599Y-85979000D01*
X200710447Y-85980313D01*
X201189685Y-86157113D01*
X201192069Y-86157785D01*
X201192074Y-86157787D01*
X201678929Y-86295095D01*
X201678941Y-86295098D01*
X201681317Y-86295768D01*
X201683737Y-86296249D01*
X201683748Y-86296252D01*
X202004234Y-86360000D01*
X202182313Y-86395422D01*
X202317529Y-86411426D01*
X202687130Y-86455172D01*
X202687138Y-86455173D01*
X202689583Y-86455462D01*
X203200000Y-86475516D01*
X203710417Y-86455462D01*
X203712862Y-86455173D01*
X203712870Y-86455172D01*
X204082471Y-86411426D01*
X204217687Y-86395422D01*
X204395766Y-86360000D01*
X204716252Y-86296252D01*
X204716263Y-86296249D01*
X204718683Y-86295768D01*
X204721059Y-86295098D01*
X204721071Y-86295095D01*
X205207926Y-86157787D01*
X205207931Y-86157785D01*
X205210315Y-86157113D01*
X205689553Y-85980313D01*
X205692402Y-85979000D01*
X205985225Y-85844006D01*
X206153442Y-85766457D01*
X206155581Y-85765259D01*
X206155591Y-85765254D01*
X206401655Y-85627451D01*
X206599123Y-85516864D01*
X206604842Y-85513043D01*
X207021781Y-85234453D01*
X207021785Y-85234450D01*
X207023846Y-85233073D01*
X207392684Y-84942305D01*
X207423047Y-84918369D01*
X207423052Y-84918365D01*
X207424995Y-84916833D01*
X207451969Y-84891899D01*
X207730471Y-84634453D01*
X207794071Y-84602901D01*
X207864633Y-84610742D01*
X207919755Y-84655487D01*
X207942000Y-84726978D01*
X207942000Y-126152605D01*
X207941287Y-126165993D01*
X207937308Y-126203226D01*
X207937605Y-126208378D01*
X207937605Y-126208381D01*
X207940430Y-126257366D01*
X207940487Y-126270799D01*
X207926271Y-126560191D01*
X207925451Y-126576877D01*
X207924240Y-126589177D01*
X207886919Y-126840772D01*
X207875657Y-126916691D01*
X207873248Y-126928806D01*
X207793028Y-127249060D01*
X207792796Y-127249988D01*
X207789207Y-127261820D01*
X207677663Y-127573564D01*
X207672931Y-127584988D01*
X207543606Y-127858425D01*
X207531370Y-127884295D01*
X207525541Y-127895200D01*
X207355324Y-128179190D01*
X207348454Y-128189471D01*
X207151224Y-128455404D01*
X207143380Y-128464962D01*
X206921031Y-128710287D01*
X206912287Y-128719031D01*
X206666962Y-128941380D01*
X206657404Y-128949224D01*
X206391471Y-129146454D01*
X206381190Y-129153324D01*
X206161554Y-129284969D01*
X206097200Y-129323541D01*
X206086299Y-129329368D01*
X206026859Y-129357481D01*
X205786988Y-129470931D01*
X205775564Y-129475663D01*
X205463820Y-129587207D01*
X205451989Y-129590796D01*
X205130806Y-129671248D01*
X205118699Y-129673655D01*
X204791177Y-129722240D01*
X204778882Y-129723450D01*
X204633281Y-129730603D01*
X204507078Y-129736803D01*
X204487514Y-129736242D01*
X204478774Y-129735308D01*
X204401027Y-129739791D01*
X204393774Y-129740000D01*
X188213000Y-129740000D01*
X188144879Y-129719998D01*
X188098386Y-129666342D01*
X188087000Y-129614000D01*
X188087000Y-103578399D01*
X188107002Y-103510278D01*
X188160658Y-103463785D01*
X188230932Y-103453681D01*
X188270889Y-103466484D01*
X188569196Y-103620782D01*
X188571375Y-103621709D01*
X188571381Y-103621712D01*
X189050703Y-103825666D01*
X189050711Y-103825669D01*
X189052866Y-103826586D01*
X189055099Y-103827344D01*
X189440093Y-103958032D01*
X189550605Y-103995546D01*
X189552890Y-103996135D01*
X189552894Y-103996136D01*
X190057321Y-104126120D01*
X190057330Y-104126122D01*
X190059612Y-104126710D01*
X190391977Y-104186213D01*
X190574684Y-104218923D01*
X190574689Y-104218924D01*
X190577020Y-104219341D01*
X190579375Y-104219582D01*
X190579380Y-104219583D01*
X190812063Y-104243423D01*
X191099918Y-104272916D01*
X191164126Y-104274990D01*
X191395636Y-104282468D01*
X191395664Y-104282468D01*
X191396641Y-104282500D01*
X191685660Y-104282500D01*
X191686846Y-104282455D01*
X191686871Y-104282455D01*
X192074896Y-104267887D01*
X192074898Y-104267887D01*
X192077265Y-104267798D01*
X192599573Y-104208751D01*
X193115983Y-104110707D01*
X193542081Y-103996136D01*
X193621309Y-103974833D01*
X193621314Y-103974831D01*
X193623588Y-103974220D01*
X193625799Y-103973444D01*
X193625804Y-103973442D01*
X193749411Y-103930034D01*
X194119531Y-103800057D01*
X194121674Y-103799118D01*
X194121688Y-103799113D01*
X194598857Y-103590146D01*
X194598861Y-103590144D01*
X194601019Y-103589199D01*
X195065342Y-103342834D01*
X195509887Y-103062347D01*
X195511768Y-103060952D01*
X195511782Y-103060943D01*
X195930255Y-102750723D01*
X195932149Y-102749319D01*
X196329752Y-102405512D01*
X196572575Y-102161414D01*
X196698799Y-102034527D01*
X196698803Y-102034523D01*
X196700457Y-102032860D01*
X196762145Y-101960761D01*
X197040651Y-101635248D01*
X197040652Y-101635247D01*
X197042179Y-101633462D01*
X197069733Y-101595884D01*
X197342291Y-101224161D01*
X197352992Y-101209567D01*
X197631147Y-100763560D01*
X197655864Y-100716382D01*
X197873984Y-100300039D01*
X197875077Y-100297953D01*
X198026065Y-99948204D01*
X198082478Y-99817529D01*
X198082481Y-99817521D01*
X198083411Y-99815367D01*
X198224026Y-99408148D01*
X198254204Y-99320753D01*
X198254207Y-99320743D01*
X198254975Y-99318519D01*
X198255575Y-99316241D01*
X198388203Y-98812483D01*
X198388206Y-98812471D01*
X198388802Y-98810206D01*
X198398572Y-98757238D01*
X198448929Y-98484207D01*
X198484141Y-98293290D01*
X198540453Y-97770680D01*
X198545428Y-97616660D01*
X198557346Y-97247679D01*
X198557346Y-97247673D01*
X198557422Y-97245319D01*
X198534952Y-96720165D01*
X198473171Y-96198174D01*
X198372425Y-95682284D01*
X198233281Y-95175400D01*
X198197487Y-95075154D01*
X198057324Y-94682616D01*
X198057322Y-94682612D01*
X198056524Y-94680376D01*
X197859394Y-94236572D01*
X197844117Y-94202179D01*
X197844114Y-94202174D01*
X197843148Y-94199998D01*
X197775527Y-94074148D01*
X197595475Y-93739056D01*
X197594355Y-93736971D01*
X197311545Y-93293902D01*
X197304987Y-93285151D01*
X196997730Y-92875180D01*
X196996310Y-92873285D01*
X196994762Y-92871513D01*
X196994755Y-92871505D01*
X196651971Y-92479256D01*
X196651970Y-92479255D01*
X196650425Y-92477487D01*
X196453959Y-92284083D01*
X196277530Y-92110403D01*
X196277521Y-92110395D01*
X196275838Y-92108738D01*
X196165289Y-92015151D01*
X195876461Y-91770641D01*
X195876460Y-91770640D01*
X195874656Y-91769113D01*
X195872751Y-91767731D01*
X195872744Y-91767726D01*
X195451050Y-91461909D01*
X195449139Y-91460523D01*
X195447136Y-91459288D01*
X195447128Y-91459283D01*
X195003701Y-91185952D01*
X195003691Y-91185946D01*
X195001682Y-91184708D01*
X194534804Y-90943218D01*
X194532625Y-90942291D01*
X194532619Y-90942288D01*
X194053297Y-90738334D01*
X194053289Y-90738331D01*
X194051134Y-90737414D01*
X193614413Y-90589167D01*
X193555634Y-90569214D01*
X193555633Y-90569214D01*
X193553395Y-90568454D01*
X193551110Y-90567865D01*
X193551106Y-90567864D01*
X193046679Y-90437880D01*
X193046670Y-90437878D01*
X193044388Y-90437290D01*
X192700736Y-90375766D01*
X192529316Y-90345077D01*
X192529311Y-90345076D01*
X192526980Y-90344659D01*
X192524625Y-90344418D01*
X192524620Y-90344417D01*
X192210415Y-90312224D01*
X192004082Y-90291084D01*
X191939874Y-90289010D01*
X191708364Y-90281532D01*
X191708336Y-90281532D01*
X191707359Y-90281500D01*
X191418340Y-90281500D01*
X191417154Y-90281545D01*
X191417129Y-90281545D01*
X191029104Y-90296113D01*
X191029102Y-90296113D01*
X191026735Y-90296202D01*
X190504427Y-90355249D01*
X189988017Y-90453293D01*
X189692512Y-90532750D01*
X189482691Y-90589167D01*
X189482686Y-90589169D01*
X189480412Y-90589780D01*
X189478201Y-90590556D01*
X189478196Y-90590558D01*
X189431664Y-90606899D01*
X188984469Y-90763943D01*
X188982326Y-90764882D01*
X188982312Y-90764887D01*
X188505143Y-90973854D01*
X188502981Y-90974801D01*
X188401513Y-91028639D01*
X188272056Y-91097327D01*
X188202506Y-91111586D01*
X188136288Y-91085980D01*
X188094425Y-91028639D01*
X188087000Y-90986024D01*
X188087000Y-72644000D01*
X156662060Y-72644000D01*
X156593939Y-72623998D01*
X156547446Y-72570342D01*
X156537342Y-72500068D01*
X156566836Y-72435488D01*
X156604092Y-72406127D01*
X156747762Y-72331683D01*
X156972186Y-72173268D01*
X156975333Y-72170329D01*
X157169804Y-71988706D01*
X157169809Y-71988701D01*
X157172948Y-71985769D01*
X157346309Y-71772680D01*
X157489039Y-71537969D01*
X157500830Y-71510825D01*
X157596765Y-71289961D01*
X157596766Y-71289959D01*
X157598481Y-71286010D01*
X157672595Y-71021494D01*
X157710000Y-70749351D01*
X157710000Y-70474649D01*
X157672595Y-70202506D01*
X157598481Y-69937990D01*
X157560261Y-69850000D01*
X157490755Y-69689981D01*
X157490753Y-69689978D01*
X157489039Y-69686031D01*
X157346309Y-69451320D01*
X157172948Y-69238231D01*
X157169809Y-69235299D01*
X157169804Y-69235294D01*
X156975333Y-69053671D01*
X156975332Y-69053670D01*
X156972186Y-69050732D01*
X156747762Y-68892317D01*
X156605873Y-68818796D01*
X156507683Y-68767917D01*
X156507678Y-68767915D01*
X156503859Y-68765936D01*
X156245018Y-68673944D01*
X156240810Y-68673070D01*
X156240808Y-68673069D01*
X155980270Y-68618928D01*
X155980264Y-68618927D01*
X155976062Y-68618054D01*
X155971774Y-68617761D01*
X155971769Y-68617760D01*
X155837665Y-68608587D01*
X155829819Y-68607803D01*
X155796338Y-68603396D01*
X155775526Y-68600656D01*
X155772175Y-68600574D01*
X155772174Y-68600574D01*
X155705365Y-68598941D01*
X155705360Y-68598941D01*
X155702000Y-68598859D01*
X155652581Y-68602922D01*
X155644626Y-68603576D01*
X155634302Y-68604000D01*
X143617184Y-68604000D01*
X143600738Y-68602922D01*
X143586848Y-68601093D01*
X143586841Y-68601092D01*
X143583526Y-68600656D01*
X143580175Y-68600574D01*
X143580174Y-68600574D01*
X143513365Y-68598941D01*
X143513360Y-68598941D01*
X143510000Y-68598859D01*
X143478363Y-68601460D01*
X143476643Y-68601590D01*
X143457163Y-68602922D01*
X143240230Y-68617760D01*
X143240224Y-68617761D01*
X143235938Y-68618054D01*
X143231734Y-68618928D01*
X143231731Y-68618928D01*
X142971192Y-68673069D01*
X142971190Y-68673070D01*
X142966982Y-68673944D01*
X142708141Y-68765936D01*
X142704322Y-68767915D01*
X142704317Y-68767917D01*
X142606127Y-68818796D01*
X142464238Y-68892317D01*
X142239814Y-69050732D01*
X142236668Y-69053670D01*
X142236667Y-69053671D01*
X142042196Y-69235294D01*
X142042191Y-69235299D01*
X142039052Y-69238231D01*
X141865691Y-69451320D01*
X141722961Y-69686031D01*
X141721247Y-69689978D01*
X141721245Y-69689981D01*
X141651739Y-69850000D01*
X141613519Y-69937990D01*
X141539405Y-70202506D01*
X141502000Y-70474649D01*
X141502000Y-70749351D01*
X141539405Y-71021494D01*
X141613519Y-71286010D01*
X141615234Y-71289959D01*
X141615235Y-71289961D01*
X141711171Y-71510825D01*
X141722961Y-71537969D01*
X141865691Y-71772680D01*
X142039052Y-71985769D01*
X142042191Y-71988701D01*
X142042196Y-71988706D01*
X142236667Y-72170329D01*
X142239814Y-72173268D01*
X142464238Y-72331683D01*
X142607908Y-72406127D01*
X142633610Y-72419445D01*
X142684891Y-72468544D01*
X142701487Y-72537574D01*
X142678127Y-72604618D01*
X142627833Y-72644000D01*
X142621000Y-72644000D01*
X142621000Y-72928474D01*
X142600998Y-72996595D01*
X142547342Y-73043088D01*
X142477068Y-73053192D01*
X142449846Y-73046105D01*
X142328289Y-72999444D01*
X142328287Y-72999443D01*
X142325199Y-72998258D01*
X141970794Y-72903295D01*
X141778248Y-72872799D01*
X141611652Y-72846412D01*
X141611644Y-72846411D01*
X141608404Y-72845898D01*
X141242000Y-72826696D01*
X140875596Y-72845898D01*
X140872356Y-72846411D01*
X140872348Y-72846412D01*
X140705752Y-72872799D01*
X140513206Y-72903295D01*
X140158801Y-72998258D01*
X140155713Y-72999443D01*
X140155711Y-72999444D01*
X140051557Y-73039425D01*
X139816264Y-73129745D01*
X139813324Y-73131243D01*
X139492287Y-73294820D01*
X139492280Y-73294824D01*
X139489348Y-73296318D01*
X139471352Y-73308005D01*
X139405624Y-73350689D01*
X139337599Y-73371015D01*
X139268376Y-73350689D01*
X139202648Y-73308005D01*
X139184652Y-73296318D01*
X139181720Y-73294824D01*
X139181713Y-73294820D01*
X138860676Y-73131243D01*
X138857736Y-73129745D01*
X138622443Y-73039425D01*
X138518289Y-72999444D01*
X138518287Y-72999443D01*
X138515199Y-72998258D01*
X138160794Y-72903295D01*
X137968248Y-72872799D01*
X137801652Y-72846412D01*
X137801644Y-72846411D01*
X137798404Y-72845898D01*
X137432000Y-72826696D01*
X137065596Y-72845898D01*
X137062356Y-72846411D01*
X137062348Y-72846412D01*
X136895752Y-72872799D01*
X136703206Y-72903295D01*
X136348801Y-72998258D01*
X136345713Y-72999443D01*
X136345711Y-72999444D01*
X136241557Y-73039425D01*
X136006264Y-73129745D01*
X136003324Y-73131243D01*
X135682289Y-73294819D01*
X135682282Y-73294823D01*
X135679348Y-73296318D01*
X135676582Y-73298114D01*
X135676579Y-73298116D01*
X135576021Y-73363419D01*
X135371634Y-73496149D01*
X135086494Y-73727051D01*
X134827051Y-73986494D01*
X134596149Y-74271634D01*
X134594347Y-74274409D01*
X134498579Y-74421880D01*
X134396318Y-74579348D01*
X134394823Y-74582282D01*
X134394819Y-74582289D01*
X134234072Y-74897772D01*
X134229745Y-74906264D01*
X134228561Y-74909349D01*
X134107176Y-75225570D01*
X134098258Y-75248801D01*
X134003295Y-75603206D01*
X133980836Y-75745005D01*
X133949021Y-75945880D01*
X133945898Y-75965596D01*
X133926696Y-76332000D01*
X133945898Y-76698404D01*
X133946411Y-76701644D01*
X133946412Y-76701652D01*
X133972164Y-76864243D01*
X134003295Y-77060794D01*
X134098258Y-77415199D01*
X134229745Y-77757736D01*
X134231243Y-77760676D01*
X134394673Y-78081423D01*
X134396318Y-78084652D01*
X134398114Y-78087418D01*
X134398116Y-78087421D01*
X134529976Y-78290469D01*
X134596149Y-78392366D01*
X134598235Y-78394942D01*
X134814256Y-78661706D01*
X134841582Y-78727233D01*
X134829142Y-78797132D01*
X134780888Y-78849209D01*
X134716336Y-78867000D01*
X125095000Y-78867000D01*
X125095000Y-72771000D01*
X116713000Y-72771000D01*
X116713000Y-63016000D01*
X116733002Y-62947879D01*
X116786658Y-62901386D01*
X116838999Y-62890000D01*
X164064955Y-62890001D01*
G37*
%TD.AperFunction*%
%TD*%
%TA.AperFunction,Conductor*%
%TO.N,+15V*%
G36*
X182568121Y-96921002D02*
G01*
X182614614Y-96974658D01*
X182626000Y-97027000D01*
X182626000Y-101347000D01*
X182605998Y-101415121D01*
X182552342Y-101461614D01*
X182500000Y-101473000D01*
X181229000Y-101473000D01*
X181229000Y-112141000D01*
X182500000Y-112141000D01*
X182568121Y-112161002D01*
X182614614Y-112214658D01*
X182626000Y-112267000D01*
X182626000Y-120777000D01*
X181857000Y-120777000D01*
X181857000Y-119069954D01*
X181858433Y-119051004D01*
X181860548Y-119037104D01*
X181860548Y-119037100D01*
X181861648Y-119029870D01*
X181859504Y-119003503D01*
X181857415Y-118977825D01*
X181857000Y-118967611D01*
X181857000Y-118959678D01*
X181853746Y-118931764D01*
X181853313Y-118927389D01*
X181848054Y-118862736D01*
X181847461Y-118855441D01*
X181845206Y-118848479D01*
X181844048Y-118842684D01*
X181842691Y-118836942D01*
X181841843Y-118829672D01*
X181817194Y-118761764D01*
X181815777Y-118757636D01*
X181795783Y-118695917D01*
X181795782Y-118695915D01*
X181793527Y-118688954D01*
X181789732Y-118682700D01*
X181787269Y-118677321D01*
X181784627Y-118672045D01*
X181782131Y-118665169D01*
X181742546Y-118604791D01*
X181740205Y-118601081D01*
X181705652Y-118544139D01*
X181705647Y-118544132D01*
X181702739Y-118539340D01*
X181695415Y-118531048D01*
X181695440Y-118531026D01*
X181692694Y-118527931D01*
X181690191Y-118524937D01*
X181686177Y-118518815D01*
X181630547Y-118466116D01*
X181628106Y-118463739D01*
X175036211Y-111871844D01*
X175002185Y-111809532D01*
X175007250Y-111738717D01*
X175031670Y-111698439D01*
X175124510Y-111595329D01*
X175124513Y-111595325D01*
X175128933Y-111590416D01*
X175223579Y-111426484D01*
X175282074Y-111246456D01*
X175301860Y-111058200D01*
X175282074Y-110869944D01*
X175223579Y-110689916D01*
X175128933Y-110525984D01*
X175059854Y-110449264D01*
X175006686Y-110390215D01*
X175006684Y-110390214D01*
X175002271Y-110385312D01*
X174849130Y-110274049D01*
X174676203Y-110197056D01*
X174578188Y-110176222D01*
X174497503Y-110159072D01*
X174497499Y-110159072D01*
X174491046Y-110157700D01*
X174301754Y-110157700D01*
X174295301Y-110159072D01*
X174295297Y-110159072D01*
X174214612Y-110176222D01*
X174116597Y-110197056D01*
X173943670Y-110274049D01*
X173790529Y-110385312D01*
X173786116Y-110390214D01*
X173786114Y-110390215D01*
X173765259Y-110413377D01*
X173704813Y-110450616D01*
X173633829Y-110449264D01*
X173582528Y-110418161D01*
X169189405Y-106025038D01*
X169155379Y-105962726D01*
X169152500Y-105935943D01*
X169152500Y-105470200D01*
X170950940Y-105470200D01*
X170951630Y-105476765D01*
X170967327Y-105626112D01*
X170970726Y-105658456D01*
X171029221Y-105838484D01*
X171123867Y-106002416D01*
X171128285Y-106007323D01*
X171128286Y-106007324D01*
X171227316Y-106117307D01*
X171250529Y-106143088D01*
X171403670Y-106254351D01*
X171576597Y-106331344D01*
X171674612Y-106352178D01*
X171755297Y-106369328D01*
X171755301Y-106369328D01*
X171761754Y-106370700D01*
X171951046Y-106370700D01*
X171957499Y-106369328D01*
X171957503Y-106369328D01*
X172038188Y-106352178D01*
X172136203Y-106331344D01*
X172309130Y-106254351D01*
X172462271Y-106143088D01*
X172485485Y-106117307D01*
X172584514Y-106007324D01*
X172584515Y-106007323D01*
X172588933Y-106002416D01*
X172683579Y-105838484D01*
X172742074Y-105658456D01*
X172745474Y-105626112D01*
X172761170Y-105476765D01*
X172761860Y-105470200D01*
X172742074Y-105281944D01*
X172683579Y-105101916D01*
X172588933Y-104937984D01*
X172584514Y-104933076D01*
X172466686Y-104802215D01*
X172466684Y-104802214D01*
X172462271Y-104797312D01*
X172309130Y-104686049D01*
X172136203Y-104609056D01*
X172038188Y-104588222D01*
X171957503Y-104571072D01*
X171957499Y-104571072D01*
X171951046Y-104569700D01*
X171761754Y-104569700D01*
X171755301Y-104571072D01*
X171755297Y-104571072D01*
X171674612Y-104588222D01*
X171576597Y-104609056D01*
X171403670Y-104686049D01*
X171250529Y-104797312D01*
X171246116Y-104802214D01*
X171246114Y-104802215D01*
X171128286Y-104933076D01*
X171123867Y-104937984D01*
X171029221Y-105101916D01*
X170970726Y-105281944D01*
X170950940Y-105470200D01*
X169152500Y-105470200D01*
X169152500Y-99898200D01*
X178774140Y-99898200D01*
X178793926Y-100086456D01*
X178852421Y-100266484D01*
X178855724Y-100272206D01*
X178855725Y-100272207D01*
X178906727Y-100360545D01*
X178947067Y-100430416D01*
X178951485Y-100435323D01*
X178951486Y-100435324D01*
X179047748Y-100542233D01*
X179073729Y-100571088D01*
X179226870Y-100682351D01*
X179399797Y-100759344D01*
X179497812Y-100780178D01*
X179578497Y-100797328D01*
X179578501Y-100797328D01*
X179584954Y-100798700D01*
X179774246Y-100798700D01*
X179780699Y-100797328D01*
X179780703Y-100797328D01*
X179861388Y-100780178D01*
X179959403Y-100759344D01*
X180132330Y-100682351D01*
X180285471Y-100571088D01*
X180311453Y-100542233D01*
X180407714Y-100435324D01*
X180407715Y-100435323D01*
X180412133Y-100430416D01*
X180452473Y-100360545D01*
X180503475Y-100272207D01*
X180503476Y-100272206D01*
X180506779Y-100266484D01*
X180565274Y-100086456D01*
X180585060Y-99898200D01*
X180565274Y-99709944D01*
X180506779Y-99529916D01*
X180487230Y-99496055D01*
X180415436Y-99371705D01*
X180412133Y-99365984D01*
X180362164Y-99310488D01*
X180289886Y-99230215D01*
X180289884Y-99230214D01*
X180285471Y-99225312D01*
X180132330Y-99114049D01*
X179959403Y-99037056D01*
X179839674Y-99011607D01*
X179780703Y-98999072D01*
X179780699Y-98999072D01*
X179774246Y-98997700D01*
X179584954Y-98997700D01*
X179578501Y-98999072D01*
X179578497Y-98999072D01*
X179519526Y-99011607D01*
X179399797Y-99037056D01*
X179226870Y-99114049D01*
X179073729Y-99225312D01*
X179069316Y-99230214D01*
X179069314Y-99230215D01*
X178997036Y-99310488D01*
X178947067Y-99365984D01*
X178943764Y-99371705D01*
X178871971Y-99496055D01*
X178852421Y-99529916D01*
X178793926Y-99709944D01*
X178774140Y-99898200D01*
X169152500Y-99898200D01*
X169152500Y-98637600D01*
X173541740Y-98637600D01*
X173561526Y-98825856D01*
X173620021Y-99005884D01*
X173623324Y-99011606D01*
X173623325Y-99011607D01*
X173643923Y-99047284D01*
X173714667Y-99169816D01*
X173719085Y-99174723D01*
X173719086Y-99174724D01*
X173769051Y-99230215D01*
X173841329Y-99310488D01*
X173994470Y-99421751D01*
X174167397Y-99498744D01*
X174265412Y-99519578D01*
X174346097Y-99536728D01*
X174346101Y-99536728D01*
X174352554Y-99538100D01*
X174541846Y-99538100D01*
X174548299Y-99536728D01*
X174548303Y-99536728D01*
X174628988Y-99519578D01*
X174727003Y-99498744D01*
X174899930Y-99421751D01*
X175053071Y-99310488D01*
X175125350Y-99230215D01*
X175175314Y-99174724D01*
X175175315Y-99174723D01*
X175179733Y-99169816D01*
X175250477Y-99047284D01*
X175271075Y-99011607D01*
X175271076Y-99011606D01*
X175274379Y-99005884D01*
X175332874Y-98825856D01*
X175352660Y-98637600D01*
X175337225Y-98490744D01*
X175333564Y-98455907D01*
X175333564Y-98455905D01*
X175332874Y-98449344D01*
X175274379Y-98269316D01*
X175179733Y-98105384D01*
X175053071Y-97964712D01*
X174962254Y-97898730D01*
X174905272Y-97857330D01*
X174905271Y-97857329D01*
X174899930Y-97853449D01*
X174727003Y-97776456D01*
X174628988Y-97755622D01*
X174548303Y-97738472D01*
X174548299Y-97738472D01*
X174541846Y-97737100D01*
X174352554Y-97737100D01*
X174346101Y-97738472D01*
X174346097Y-97738472D01*
X174265412Y-97755622D01*
X174167397Y-97776456D01*
X173994470Y-97853449D01*
X173989129Y-97857329D01*
X173989128Y-97857330D01*
X173932146Y-97898730D01*
X173841329Y-97964712D01*
X173714667Y-98105384D01*
X173620021Y-98269316D01*
X173561526Y-98449344D01*
X173560836Y-98455905D01*
X173560836Y-98455907D01*
X173557175Y-98490744D01*
X173541740Y-98637600D01*
X169152500Y-98637600D01*
X169152500Y-97027000D01*
X169172502Y-96958879D01*
X169226158Y-96912386D01*
X169278500Y-96901000D01*
X182500000Y-96901000D01*
X182568121Y-96921002D01*
G37*
%TD.AperFunction*%
%TA.AperFunction,Conductor*%
G36*
X167593621Y-96921002D02*
G01*
X167640114Y-96974658D01*
X167651500Y-97027000D01*
X167651500Y-106232546D01*
X167650067Y-106251496D01*
X167646852Y-106272630D01*
X167647445Y-106279922D01*
X167647445Y-106279925D01*
X167651085Y-106324675D01*
X167651500Y-106334889D01*
X167651500Y-106342822D01*
X167651925Y-106346466D01*
X167654754Y-106370736D01*
X167655187Y-106375111D01*
X167661039Y-106447059D01*
X167663294Y-106454021D01*
X167664452Y-106459816D01*
X167665809Y-106465558D01*
X167666657Y-106472828D01*
X167691306Y-106540736D01*
X167692723Y-106544864D01*
X167714973Y-106613546D01*
X167718768Y-106619800D01*
X167721231Y-106625179D01*
X167723873Y-106630455D01*
X167726369Y-106637331D01*
X167746007Y-106667284D01*
X167765948Y-106697699D01*
X167768295Y-106701419D01*
X167802848Y-106758361D01*
X167802853Y-106758368D01*
X167805761Y-106763160D01*
X167809473Y-106767362D01*
X167809474Y-106767364D01*
X167813085Y-106771452D01*
X167813060Y-106771474D01*
X167815806Y-106774569D01*
X167818309Y-106777563D01*
X167822323Y-106783685D01*
X167827636Y-106788718D01*
X167877952Y-106836383D01*
X167880394Y-106838761D01*
X180319095Y-119277462D01*
X180353121Y-119339774D01*
X180356000Y-119366557D01*
X180356000Y-120777000D01*
X155956000Y-120777000D01*
X155956000Y-118169002D01*
X158287380Y-118169002D01*
X158298502Y-118452084D01*
X158299302Y-118456464D01*
X158336301Y-118659049D01*
X158349400Y-118730775D01*
X158439058Y-118999514D01*
X158441050Y-119003501D01*
X158441051Y-119003503D01*
X158522449Y-119166405D01*
X158565687Y-119252939D01*
X158726761Y-119485993D01*
X158919065Y-119694027D01*
X158922519Y-119696839D01*
X159135307Y-119870075D01*
X159135311Y-119870078D01*
X159138764Y-119872889D01*
X159381472Y-120019012D01*
X159385567Y-120020746D01*
X159385569Y-120020747D01*
X159638247Y-120127742D01*
X159638254Y-120127744D01*
X159642348Y-120129478D01*
X159742492Y-120156031D01*
X159911889Y-120200946D01*
X159911893Y-120200947D01*
X159916186Y-120202085D01*
X159920595Y-120202607D01*
X159920601Y-120202608D01*
X160077954Y-120221232D01*
X160197523Y-120235384D01*
X160480745Y-120228709D01*
X160485143Y-120227977D01*
X160755810Y-120182926D01*
X160755814Y-120182925D01*
X160760200Y-120182195D01*
X160764441Y-120180854D01*
X160764444Y-120180853D01*
X161026068Y-120098112D01*
X161026070Y-120098111D01*
X161030314Y-120096769D01*
X161034325Y-120094843D01*
X161034330Y-120094841D01*
X161281678Y-119976066D01*
X161281679Y-119976065D01*
X161285697Y-119974136D01*
X161433781Y-119875190D01*
X161517545Y-119819221D01*
X161517549Y-119819218D01*
X161521253Y-119816743D01*
X161732281Y-119627730D01*
X161914573Y-119410868D01*
X162064489Y-119170485D01*
X162082967Y-119128689D01*
X162128803Y-119074474D01*
X162196676Y-119053646D01*
X162265034Y-119072820D01*
X162310919Y-119123318D01*
X162332449Y-119166405D01*
X162375687Y-119252939D01*
X162536761Y-119485993D01*
X162729065Y-119694027D01*
X162732519Y-119696839D01*
X162945307Y-119870075D01*
X162945311Y-119870078D01*
X162948764Y-119872889D01*
X163191472Y-120019012D01*
X163195567Y-120020746D01*
X163195569Y-120020747D01*
X163448247Y-120127742D01*
X163448254Y-120127744D01*
X163452348Y-120129478D01*
X163552492Y-120156031D01*
X163721889Y-120200946D01*
X163721893Y-120200947D01*
X163726186Y-120202085D01*
X163730595Y-120202607D01*
X163730601Y-120202608D01*
X163887954Y-120221232D01*
X164007523Y-120235384D01*
X164290745Y-120228709D01*
X164295143Y-120227977D01*
X164565810Y-120182926D01*
X164565814Y-120182925D01*
X164570200Y-120182195D01*
X164574441Y-120180854D01*
X164574444Y-120180853D01*
X164836068Y-120098112D01*
X164836070Y-120098111D01*
X164840314Y-120096769D01*
X164844325Y-120094843D01*
X164844330Y-120094841D01*
X165091678Y-119976066D01*
X165091679Y-119976065D01*
X165095697Y-119974136D01*
X165243781Y-119875190D01*
X165327545Y-119819221D01*
X165327549Y-119819218D01*
X165331253Y-119816743D01*
X165542281Y-119627730D01*
X165724573Y-119410868D01*
X165874489Y-119170485D01*
X165989040Y-118911376D01*
X166065939Y-118638712D01*
X166103652Y-118357933D01*
X166107610Y-118232000D01*
X166103149Y-118169002D01*
X169717380Y-118169002D01*
X169728502Y-118452084D01*
X169729302Y-118456464D01*
X169766301Y-118659049D01*
X169779400Y-118730775D01*
X169869058Y-118999514D01*
X169871050Y-119003501D01*
X169871051Y-119003503D01*
X169952449Y-119166405D01*
X169995687Y-119252939D01*
X170156761Y-119485993D01*
X170349065Y-119694027D01*
X170352519Y-119696839D01*
X170565307Y-119870075D01*
X170565311Y-119870078D01*
X170568764Y-119872889D01*
X170811472Y-120019012D01*
X170815567Y-120020746D01*
X170815569Y-120020747D01*
X171068247Y-120127742D01*
X171068254Y-120127744D01*
X171072348Y-120129478D01*
X171172492Y-120156031D01*
X171341889Y-120200946D01*
X171341893Y-120200947D01*
X171346186Y-120202085D01*
X171350595Y-120202607D01*
X171350601Y-120202608D01*
X171507954Y-120221232D01*
X171627523Y-120235384D01*
X171910745Y-120228709D01*
X171915143Y-120227977D01*
X172185810Y-120182926D01*
X172185814Y-120182925D01*
X172190200Y-120182195D01*
X172194441Y-120180854D01*
X172194444Y-120180853D01*
X172456068Y-120098112D01*
X172456070Y-120098111D01*
X172460314Y-120096769D01*
X172464325Y-120094843D01*
X172464330Y-120094841D01*
X172711678Y-119976066D01*
X172711679Y-119976065D01*
X172715697Y-119974136D01*
X172863781Y-119875190D01*
X172947545Y-119819221D01*
X172947549Y-119819218D01*
X172951253Y-119816743D01*
X173162281Y-119627730D01*
X173344573Y-119410868D01*
X173494489Y-119170485D01*
X173512967Y-119128689D01*
X173558803Y-119074474D01*
X173626676Y-119053646D01*
X173695034Y-119072820D01*
X173740919Y-119123318D01*
X173762449Y-119166405D01*
X173805687Y-119252939D01*
X173966761Y-119485993D01*
X174159065Y-119694027D01*
X174162519Y-119696839D01*
X174375307Y-119870075D01*
X174375311Y-119870078D01*
X174378764Y-119872889D01*
X174621472Y-120019012D01*
X174625567Y-120020746D01*
X174625569Y-120020747D01*
X174878247Y-120127742D01*
X174878254Y-120127744D01*
X174882348Y-120129478D01*
X174982492Y-120156031D01*
X175151889Y-120200946D01*
X175151893Y-120200947D01*
X175156186Y-120202085D01*
X175160595Y-120202607D01*
X175160601Y-120202608D01*
X175317954Y-120221232D01*
X175437523Y-120235384D01*
X175720745Y-120228709D01*
X175725143Y-120227977D01*
X175995810Y-120182926D01*
X175995814Y-120182925D01*
X176000200Y-120182195D01*
X176004441Y-120180854D01*
X176004444Y-120180853D01*
X176266068Y-120098112D01*
X176266070Y-120098111D01*
X176270314Y-120096769D01*
X176274325Y-120094843D01*
X176274330Y-120094841D01*
X176521678Y-119976066D01*
X176521679Y-119976065D01*
X176525697Y-119974136D01*
X176673781Y-119875190D01*
X176757545Y-119819221D01*
X176757549Y-119819218D01*
X176761253Y-119816743D01*
X176972281Y-119627730D01*
X177154573Y-119410868D01*
X177304489Y-119170485D01*
X177419040Y-118911376D01*
X177495939Y-118638712D01*
X177533652Y-118357933D01*
X177537610Y-118232000D01*
X177517601Y-117949407D01*
X177504204Y-117887177D01*
X177458911Y-117676800D01*
X177458911Y-117676798D01*
X177457975Y-117672453D01*
X177359920Y-117406663D01*
X177326159Y-117344092D01*
X177227506Y-117161256D01*
X177225393Y-117157340D01*
X177057078Y-116929460D01*
X177010554Y-116882199D01*
X176861465Y-116730751D01*
X176858334Y-116727570D01*
X176854794Y-116724869D01*
X176854788Y-116724863D01*
X176636667Y-116558398D01*
X176636663Y-116558395D01*
X176633126Y-116555696D01*
X176569179Y-116519884D01*
X176389837Y-116419448D01*
X176389832Y-116419445D01*
X176385947Y-116417270D01*
X176381789Y-116415662D01*
X176381784Y-116415659D01*
X176125885Y-116316659D01*
X176125879Y-116316657D01*
X176121730Y-116315052D01*
X176117398Y-116314048D01*
X176117395Y-116314047D01*
X176042141Y-116296604D01*
X175845747Y-116251082D01*
X175563503Y-116226637D01*
X175559068Y-116226881D01*
X175559064Y-116226881D01*
X175285073Y-116241960D01*
X175285066Y-116241961D01*
X175280630Y-116242205D01*
X175142743Y-116269632D01*
X175007146Y-116296604D01*
X175007141Y-116296605D01*
X175002774Y-116297474D01*
X174998571Y-116298950D01*
X174739684Y-116389864D01*
X174739681Y-116389865D01*
X174735476Y-116391342D01*
X174731523Y-116393395D01*
X174731517Y-116393398D01*
X174589135Y-116467360D01*
X174484072Y-116521936D01*
X174480457Y-116524519D01*
X174480451Y-116524523D01*
X174433048Y-116558398D01*
X174253576Y-116686651D01*
X174250349Y-116689729D01*
X174250347Y-116689731D01*
X174210682Y-116727570D01*
X174048588Y-116882199D01*
X173873199Y-117104680D01*
X173734138Y-117344092D01*
X173682627Y-117392951D01*
X173612879Y-117406205D01*
X173547037Y-117379646D01*
X173514296Y-117340639D01*
X173417506Y-117161256D01*
X173415393Y-117157340D01*
X173247078Y-116929460D01*
X173200554Y-116882199D01*
X173051465Y-116730751D01*
X173048334Y-116727570D01*
X173044794Y-116724869D01*
X173044788Y-116724863D01*
X172826667Y-116558398D01*
X172826663Y-116558395D01*
X172823126Y-116555696D01*
X172759179Y-116519884D01*
X172579837Y-116419448D01*
X172579832Y-116419445D01*
X172575947Y-116417270D01*
X172571789Y-116415662D01*
X172571784Y-116415659D01*
X172315885Y-116316659D01*
X172315879Y-116316657D01*
X172311730Y-116315052D01*
X172307398Y-116314048D01*
X172307395Y-116314047D01*
X172232141Y-116296604D01*
X172035747Y-116251082D01*
X171753503Y-116226637D01*
X171749068Y-116226881D01*
X171749064Y-116226881D01*
X171475073Y-116241960D01*
X171475066Y-116241961D01*
X171470630Y-116242205D01*
X171332743Y-116269632D01*
X171197146Y-116296604D01*
X171197141Y-116296605D01*
X171192774Y-116297474D01*
X171188571Y-116298950D01*
X170929684Y-116389864D01*
X170929681Y-116389865D01*
X170925476Y-116391342D01*
X170921523Y-116393395D01*
X170921517Y-116393398D01*
X170779135Y-116467360D01*
X170674072Y-116521936D01*
X170670457Y-116524519D01*
X170670451Y-116524523D01*
X170623048Y-116558398D01*
X170443576Y-116686651D01*
X170440349Y-116689729D01*
X170440347Y-116689731D01*
X170400682Y-116727570D01*
X170238588Y-116882199D01*
X170063199Y-117104680D01*
X170032612Y-117157340D01*
X169923141Y-117345807D01*
X169923138Y-117345813D01*
X169920907Y-117349654D01*
X169814552Y-117612232D01*
X169813481Y-117616545D01*
X169813479Y-117616550D01*
X169799593Y-117672453D01*
X169746255Y-117887177D01*
X169745801Y-117891605D01*
X169745801Y-117891607D01*
X169739879Y-117949407D01*
X169717380Y-118169002D01*
X166103149Y-118169002D01*
X166087601Y-117949407D01*
X166074204Y-117887177D01*
X166028911Y-117676800D01*
X166028911Y-117676798D01*
X166027975Y-117672453D01*
X165929920Y-117406663D01*
X165896159Y-117344092D01*
X165797506Y-117161256D01*
X165795393Y-117157340D01*
X165627078Y-116929460D01*
X165580554Y-116882199D01*
X165431465Y-116730751D01*
X165428334Y-116727570D01*
X165424794Y-116724869D01*
X165424788Y-116724863D01*
X165206667Y-116558398D01*
X165206663Y-116558395D01*
X165203126Y-116555696D01*
X165139179Y-116519884D01*
X164959837Y-116419448D01*
X164959832Y-116419445D01*
X164955947Y-116417270D01*
X164951789Y-116415662D01*
X164951784Y-116415659D01*
X164695885Y-116316659D01*
X164695879Y-116316657D01*
X164691730Y-116315052D01*
X164687398Y-116314048D01*
X164687395Y-116314047D01*
X164612141Y-116296604D01*
X164415747Y-116251082D01*
X164133503Y-116226637D01*
X164129068Y-116226881D01*
X164129064Y-116226881D01*
X163855073Y-116241960D01*
X163855066Y-116241961D01*
X163850630Y-116242205D01*
X163712743Y-116269632D01*
X163577146Y-116296604D01*
X163577141Y-116296605D01*
X163572774Y-116297474D01*
X163568571Y-116298950D01*
X163309684Y-116389864D01*
X163309681Y-116389865D01*
X163305476Y-116391342D01*
X163301523Y-116393395D01*
X163301517Y-116393398D01*
X163159135Y-116467360D01*
X163054072Y-116521936D01*
X163050457Y-116524519D01*
X163050451Y-116524523D01*
X163003048Y-116558398D01*
X162823576Y-116686651D01*
X162820349Y-116689729D01*
X162820347Y-116689731D01*
X162780682Y-116727570D01*
X162618588Y-116882199D01*
X162443199Y-117104680D01*
X162304138Y-117344092D01*
X162252627Y-117392951D01*
X162182879Y-117406205D01*
X162117037Y-117379646D01*
X162084296Y-117340639D01*
X161987506Y-117161256D01*
X161985393Y-117157340D01*
X161817078Y-116929460D01*
X161770554Y-116882199D01*
X161621465Y-116730751D01*
X161618334Y-116727570D01*
X161614794Y-116724869D01*
X161614788Y-116724863D01*
X161396667Y-116558398D01*
X161396663Y-116558395D01*
X161393126Y-116555696D01*
X161329179Y-116519884D01*
X161149837Y-116419448D01*
X161149832Y-116419445D01*
X161145947Y-116417270D01*
X161141789Y-116415662D01*
X161141784Y-116415659D01*
X160885885Y-116316659D01*
X160885879Y-116316657D01*
X160881730Y-116315052D01*
X160877398Y-116314048D01*
X160877395Y-116314047D01*
X160802141Y-116296604D01*
X160605747Y-116251082D01*
X160323503Y-116226637D01*
X160319068Y-116226881D01*
X160319064Y-116226881D01*
X160045073Y-116241960D01*
X160045066Y-116241961D01*
X160040630Y-116242205D01*
X159902743Y-116269632D01*
X159767146Y-116296604D01*
X159767141Y-116296605D01*
X159762774Y-116297474D01*
X159758571Y-116298950D01*
X159499684Y-116389864D01*
X159499681Y-116389865D01*
X159495476Y-116391342D01*
X159491523Y-116393395D01*
X159491517Y-116393398D01*
X159349135Y-116467360D01*
X159244072Y-116521936D01*
X159240457Y-116524519D01*
X159240451Y-116524523D01*
X159193048Y-116558398D01*
X159013576Y-116686651D01*
X159010349Y-116689729D01*
X159010347Y-116689731D01*
X158970682Y-116727570D01*
X158808588Y-116882199D01*
X158633199Y-117104680D01*
X158602612Y-117157340D01*
X158493141Y-117345807D01*
X158493138Y-117345813D01*
X158490907Y-117349654D01*
X158384552Y-117612232D01*
X158383481Y-117616545D01*
X158383479Y-117616550D01*
X158369593Y-117672453D01*
X158316255Y-117887177D01*
X158315801Y-117891605D01*
X158315801Y-117891607D01*
X158309879Y-117949407D01*
X158287380Y-118169002D01*
X155956000Y-118169002D01*
X155956000Y-108270793D01*
X155976002Y-108202672D01*
X156029658Y-108156179D01*
X156099932Y-108146075D01*
X156164512Y-108175569D01*
X156201833Y-108231857D01*
X156246421Y-108369084D01*
X156341067Y-108533016D01*
X156467729Y-108673688D01*
X156620870Y-108784951D01*
X156793797Y-108861944D01*
X156891812Y-108882778D01*
X156972497Y-108899928D01*
X156972501Y-108899928D01*
X156978954Y-108901300D01*
X157168246Y-108901300D01*
X157174699Y-108899928D01*
X157174703Y-108899928D01*
X157255388Y-108882778D01*
X157353403Y-108861944D01*
X157526330Y-108784951D01*
X157679471Y-108673688D01*
X157806133Y-108533016D01*
X157900779Y-108369084D01*
X157959274Y-108189056D01*
X157962730Y-108156179D01*
X157978370Y-108007365D01*
X157979060Y-108000800D01*
X157963840Y-107855986D01*
X157959964Y-107819107D01*
X157959964Y-107819105D01*
X157959274Y-107812544D01*
X157900779Y-107632516D01*
X157806133Y-107468584D01*
X157679471Y-107327912D01*
X157526330Y-107216649D01*
X157353403Y-107139656D01*
X157255388Y-107118822D01*
X157174703Y-107101672D01*
X157174699Y-107101672D01*
X157168246Y-107100300D01*
X156978954Y-107100300D01*
X156972501Y-107101672D01*
X156972497Y-107101672D01*
X156891812Y-107118822D01*
X156793797Y-107139656D01*
X156620870Y-107216649D01*
X156467729Y-107327912D01*
X156341067Y-107468584D01*
X156246421Y-107632516D01*
X156244379Y-107638801D01*
X156201833Y-107769743D01*
X156161759Y-107828349D01*
X156096363Y-107855986D01*
X156026406Y-107843879D01*
X155974100Y-107795873D01*
X155956000Y-107730807D01*
X155956000Y-106299000D01*
X160384540Y-106299000D01*
X160385230Y-106305565D01*
X160403533Y-106479707D01*
X160404326Y-106487256D01*
X160462821Y-106667284D01*
X160466124Y-106673006D01*
X160466125Y-106673007D01*
X160482529Y-106701419D01*
X160557467Y-106831216D01*
X160561885Y-106836123D01*
X160561886Y-106836124D01*
X160564261Y-106838761D01*
X160684129Y-106971888D01*
X160837270Y-107083151D01*
X161010197Y-107160144D01*
X161108212Y-107180978D01*
X161188897Y-107198128D01*
X161188901Y-107198128D01*
X161195354Y-107199500D01*
X161384646Y-107199500D01*
X161391099Y-107198128D01*
X161391103Y-107198128D01*
X161471788Y-107180978D01*
X161569803Y-107160144D01*
X161742730Y-107083151D01*
X161895871Y-106971888D01*
X162015740Y-106838761D01*
X162018114Y-106836124D01*
X162018115Y-106836123D01*
X162022533Y-106831216D01*
X162097471Y-106701419D01*
X162113875Y-106673007D01*
X162113876Y-106673006D01*
X162117179Y-106667284D01*
X162175674Y-106487256D01*
X162176468Y-106479707D01*
X162194770Y-106305565D01*
X162195460Y-106299000D01*
X162179481Y-106146967D01*
X162176364Y-106117307D01*
X162176364Y-106117305D01*
X162175674Y-106110744D01*
X162117179Y-105930716D01*
X162022533Y-105766784D01*
X161924994Y-105658456D01*
X161900286Y-105631015D01*
X161900284Y-105631014D01*
X161895871Y-105626112D01*
X161742730Y-105514849D01*
X161569803Y-105437856D01*
X161471788Y-105417022D01*
X161391103Y-105399872D01*
X161391099Y-105399872D01*
X161384646Y-105398500D01*
X161195354Y-105398500D01*
X161188901Y-105399872D01*
X161188897Y-105399872D01*
X161108212Y-105417022D01*
X161010197Y-105437856D01*
X160837270Y-105514849D01*
X160684129Y-105626112D01*
X160679716Y-105631014D01*
X160679714Y-105631015D01*
X160655006Y-105658456D01*
X160557467Y-105766784D01*
X160462821Y-105930716D01*
X160404326Y-106110744D01*
X160403636Y-106117305D01*
X160403636Y-106117307D01*
X160400519Y-106146967D01*
X160384540Y-106299000D01*
X155956000Y-106299000D01*
X155956000Y-103759000D01*
X160384540Y-103759000D01*
X160404326Y-103947256D01*
X160462821Y-104127284D01*
X160557467Y-104291216D01*
X160684129Y-104431888D01*
X160837270Y-104543151D01*
X161010197Y-104620144D01*
X161108212Y-104640978D01*
X161188897Y-104658128D01*
X161188901Y-104658128D01*
X161195354Y-104659500D01*
X161384646Y-104659500D01*
X161391099Y-104658128D01*
X161391103Y-104658128D01*
X161471788Y-104640978D01*
X161569803Y-104620144D01*
X161742730Y-104543151D01*
X161895871Y-104431888D01*
X162022533Y-104291216D01*
X162117179Y-104127284D01*
X162175674Y-103947256D01*
X162195460Y-103759000D01*
X162175674Y-103570744D01*
X162117179Y-103390716D01*
X162022533Y-103226784D01*
X161895871Y-103086112D01*
X161742730Y-102974849D01*
X161569803Y-102897856D01*
X161471788Y-102877022D01*
X161391103Y-102859872D01*
X161391099Y-102859872D01*
X161384646Y-102858500D01*
X161195354Y-102858500D01*
X161188901Y-102859872D01*
X161188897Y-102859872D01*
X161108212Y-102877022D01*
X161010197Y-102897856D01*
X160837270Y-102974849D01*
X160684129Y-103086112D01*
X160557467Y-103226784D01*
X160462821Y-103390716D01*
X160404326Y-103570744D01*
X160384540Y-103759000D01*
X155956000Y-103759000D01*
X155956000Y-101219000D01*
X160384540Y-101219000D01*
X160404326Y-101407256D01*
X160462821Y-101587284D01*
X160557467Y-101751216D01*
X160684129Y-101891888D01*
X160837270Y-102003151D01*
X161010197Y-102080144D01*
X161108212Y-102100978D01*
X161188897Y-102118128D01*
X161188901Y-102118128D01*
X161195354Y-102119500D01*
X161384646Y-102119500D01*
X161391099Y-102118128D01*
X161391103Y-102118128D01*
X161471788Y-102100978D01*
X161569803Y-102080144D01*
X161742730Y-102003151D01*
X161895871Y-101891888D01*
X162022533Y-101751216D01*
X162117179Y-101587284D01*
X162175674Y-101407256D01*
X162195460Y-101219000D01*
X162175674Y-101030744D01*
X162117179Y-100850716D01*
X162086356Y-100797328D01*
X162025836Y-100692505D01*
X162022533Y-100686784D01*
X162015047Y-100678470D01*
X161900286Y-100551015D01*
X161900284Y-100551014D01*
X161895871Y-100546112D01*
X161742730Y-100434849D01*
X161569803Y-100357856D01*
X161471788Y-100337022D01*
X161391103Y-100319872D01*
X161391099Y-100319872D01*
X161384646Y-100318500D01*
X161195354Y-100318500D01*
X161188901Y-100319872D01*
X161188897Y-100319872D01*
X161108212Y-100337022D01*
X161010197Y-100357856D01*
X160837270Y-100434849D01*
X160684129Y-100546112D01*
X160679716Y-100551014D01*
X160679714Y-100551015D01*
X160564953Y-100678470D01*
X160557467Y-100686784D01*
X160554164Y-100692505D01*
X160493645Y-100797328D01*
X160462821Y-100850716D01*
X160404326Y-101030744D01*
X160384540Y-101219000D01*
X155956000Y-101219000D01*
X155956000Y-98679000D01*
X160384540Y-98679000D01*
X160385230Y-98685565D01*
X160400635Y-98832134D01*
X160404326Y-98867256D01*
X160462821Y-99047284D01*
X160557467Y-99211216D01*
X160684129Y-99351888D01*
X160689468Y-99355767D01*
X160783985Y-99424437D01*
X160837270Y-99463151D01*
X161010197Y-99540144D01*
X161108212Y-99560978D01*
X161188897Y-99578128D01*
X161188901Y-99578128D01*
X161195354Y-99579500D01*
X161384646Y-99579500D01*
X161391099Y-99578128D01*
X161391103Y-99578128D01*
X161471788Y-99560978D01*
X161569803Y-99540144D01*
X161742730Y-99463151D01*
X161796016Y-99424437D01*
X161890532Y-99355767D01*
X161895871Y-99351888D01*
X162022533Y-99211216D01*
X162117179Y-99047284D01*
X162175674Y-98867256D01*
X162179366Y-98832134D01*
X162194770Y-98685565D01*
X162195460Y-98679000D01*
X162175674Y-98490744D01*
X162117179Y-98310716D01*
X162096906Y-98275601D01*
X162025836Y-98152505D01*
X162022533Y-98146784D01*
X162018114Y-98141876D01*
X161900286Y-98011015D01*
X161900284Y-98011014D01*
X161895871Y-98006112D01*
X161742730Y-97894849D01*
X161569803Y-97817856D01*
X161471788Y-97797022D01*
X161391103Y-97779872D01*
X161391099Y-97779872D01*
X161384646Y-97778500D01*
X161195354Y-97778500D01*
X161188901Y-97779872D01*
X161188897Y-97779872D01*
X161108212Y-97797022D01*
X161010197Y-97817856D01*
X160837270Y-97894849D01*
X160684129Y-98006112D01*
X160679716Y-98011014D01*
X160679714Y-98011015D01*
X160561886Y-98141876D01*
X160557467Y-98146784D01*
X160554164Y-98152505D01*
X160483095Y-98275601D01*
X160462821Y-98310716D01*
X160404326Y-98490744D01*
X160384540Y-98679000D01*
X155956000Y-98679000D01*
X155956000Y-97027000D01*
X155976002Y-96958879D01*
X156029658Y-96912386D01*
X156082000Y-96901000D01*
X167525500Y-96901000D01*
X167593621Y-96921002D01*
G37*
%TD.AperFunction*%
%TD*%
%TA.AperFunction,Conductor*%
%TO.N,+15V*%
G36*
X180356000Y-125795916D02*
G01*
X180335998Y-125864037D01*
X180306704Y-125895878D01*
X180261097Y-125930873D01*
X180261086Y-125930883D01*
X180256646Y-125934290D01*
X180106414Y-126099393D01*
X179987793Y-126288490D01*
X179985699Y-126293700D01*
X179985695Y-126293707D01*
X179954165Y-126372140D01*
X179910199Y-126427885D01*
X179843074Y-126451010D01*
X179774102Y-126434173D01*
X179723532Y-126379388D01*
X179718209Y-126368228D01*
X179647208Y-126219371D01*
X179516948Y-126038095D01*
X179412424Y-125936804D01*
X179360674Y-125886654D01*
X179360671Y-125886652D01*
X179356646Y-125882751D01*
X179171368Y-125758250D01*
X179155969Y-125751490D01*
X179025219Y-125694095D01*
X178966971Y-125668526D01*
X178961523Y-125667218D01*
X178961517Y-125667216D01*
X178755372Y-125617725D01*
X178755371Y-125617725D01*
X178749915Y-125616415D01*
X178665697Y-125611559D01*
X178532669Y-125603889D01*
X178532666Y-125603889D01*
X178527062Y-125603566D01*
X178305456Y-125630383D01*
X178092100Y-125696019D01*
X178087110Y-125698595D01*
X178087109Y-125698595D01*
X177902459Y-125793901D01*
X177893741Y-125798401D01*
X177889299Y-125801810D01*
X177889295Y-125801812D01*
X177785906Y-125881145D01*
X177716646Y-125934290D01*
X177566414Y-126099393D01*
X177540559Y-126140609D01*
X177517236Y-126177789D01*
X177464093Y-126224867D01*
X177393933Y-126235739D01*
X177329034Y-126206955D01*
X177289999Y-126147652D01*
X177284499Y-126110833D01*
X177284499Y-126063831D01*
X177284129Y-126057010D01*
X177278605Y-126006148D01*
X177274979Y-125990896D01*
X177229824Y-125870446D01*
X177221286Y-125854851D01*
X177144785Y-125752776D01*
X177132224Y-125740215D01*
X177030149Y-125663714D01*
X177014554Y-125655176D01*
X176894106Y-125610022D01*
X176878851Y-125606395D01*
X176827986Y-125600869D01*
X176821172Y-125600500D01*
X176298615Y-125600500D01*
X176283376Y-125604975D01*
X176282171Y-125606365D01*
X176280500Y-125614048D01*
X176280500Y-128898384D01*
X176284975Y-128913623D01*
X176286365Y-128914828D01*
X176294048Y-128916499D01*
X176821169Y-128916499D01*
X176827990Y-128916129D01*
X176878852Y-128910605D01*
X176894104Y-128906979D01*
X177014554Y-128861824D01*
X177030149Y-128853286D01*
X177132224Y-128776785D01*
X177144785Y-128764224D01*
X177221286Y-128662149D01*
X177229824Y-128646554D01*
X177274978Y-128526106D01*
X177278605Y-128510851D01*
X177284131Y-128459986D01*
X177284500Y-128453172D01*
X177284500Y-128408773D01*
X177304502Y-128340652D01*
X177358158Y-128294159D01*
X177428432Y-128284055D01*
X177493012Y-128313549D01*
X177512822Y-128335247D01*
X177612770Y-128474339D01*
X177612776Y-128474346D01*
X177616052Y-128478905D01*
X177682965Y-128543748D01*
X177767683Y-128625846D01*
X177776354Y-128634249D01*
X177961632Y-128758750D01*
X177966778Y-128761009D01*
X177966780Y-128761010D01*
X178002717Y-128776785D01*
X178166029Y-128848474D01*
X178171477Y-128849782D01*
X178171483Y-128849784D01*
X178377628Y-128899275D01*
X178377629Y-128899275D01*
X178383085Y-128900585D01*
X178467303Y-128905441D01*
X178600331Y-128913111D01*
X178600334Y-128913111D01*
X178605938Y-128913434D01*
X178827544Y-128886617D01*
X179040900Y-128820981D01*
X179049619Y-128816481D01*
X179234274Y-128721172D01*
X179239259Y-128718599D01*
X179243701Y-128715190D01*
X179243705Y-128715188D01*
X179411910Y-128586120D01*
X179416354Y-128582710D01*
X179566586Y-128417607D01*
X179685207Y-128228510D01*
X179687301Y-128223300D01*
X179687305Y-128223293D01*
X179718835Y-128144860D01*
X179762801Y-128089115D01*
X179829926Y-128065990D01*
X179898898Y-128082827D01*
X179949468Y-128137612D01*
X180025792Y-128297629D01*
X180156052Y-128478905D01*
X180222965Y-128543748D01*
X180307683Y-128625846D01*
X180316354Y-128634249D01*
X180501632Y-128758750D01*
X180506778Y-128761009D01*
X180506780Y-128761010D01*
X180542717Y-128776785D01*
X180706029Y-128848474D01*
X180711477Y-128849782D01*
X180711483Y-128849784D01*
X180917628Y-128899275D01*
X180917629Y-128899275D01*
X180923085Y-128900585D01*
X181007303Y-128905441D01*
X181140331Y-128913111D01*
X181140334Y-128913111D01*
X181145938Y-128913434D01*
X181367544Y-128886617D01*
X181580900Y-128820981D01*
X181589619Y-128816481D01*
X181774274Y-128721172D01*
X181779259Y-128718599D01*
X181783701Y-128715190D01*
X181783705Y-128715188D01*
X181951910Y-128586120D01*
X181956354Y-128582710D01*
X182106586Y-128417607D01*
X182225207Y-128228510D01*
X182308466Y-128021395D01*
X182310536Y-128011402D01*
X182352796Y-127807334D01*
X182353733Y-127802810D01*
X182357000Y-127746151D01*
X182357000Y-126801870D01*
X182356599Y-126797370D01*
X182342710Y-126641756D01*
X182342211Y-126636161D01*
X182339498Y-126626242D01*
X182284788Y-126426260D01*
X182283308Y-126420849D01*
X182278748Y-126411287D01*
X182220176Y-126288490D01*
X182187208Y-126219371D01*
X182056948Y-126038095D01*
X181896646Y-125882751D01*
X181898202Y-125881145D01*
X181863350Y-125830685D01*
X181857000Y-125791189D01*
X181857000Y-120777000D01*
X182626000Y-120777000D01*
X182626000Y-129160000D01*
X182605998Y-129228121D01*
X182552342Y-129274614D01*
X182500000Y-129286000D01*
X156349013Y-129286000D01*
X156280892Y-129265998D01*
X156234399Y-129212342D01*
X156224295Y-129142068D01*
X156253789Y-129077488D01*
X156281851Y-129054318D01*
X156281730Y-129054151D01*
X156284422Y-129052195D01*
X156434871Y-128942888D01*
X156460137Y-128914828D01*
X156557114Y-128807124D01*
X156557115Y-128807123D01*
X156561533Y-128802216D01*
X156656179Y-128638284D01*
X156714674Y-128458256D01*
X156715682Y-128448672D01*
X156715682Y-128448669D01*
X160959501Y-128448669D01*
X160959871Y-128455490D01*
X160965395Y-128506352D01*
X160969021Y-128521604D01*
X161014176Y-128642054D01*
X161022714Y-128657649D01*
X161099215Y-128759724D01*
X161111776Y-128772285D01*
X161213851Y-128848786D01*
X161229446Y-128857324D01*
X161349894Y-128902478D01*
X161365149Y-128906105D01*
X161416014Y-128911631D01*
X161422828Y-128912000D01*
X161945385Y-128912000D01*
X161960624Y-128907525D01*
X161961829Y-128906135D01*
X161963500Y-128898452D01*
X161963500Y-128893884D01*
X162471500Y-128893884D01*
X162475975Y-128909123D01*
X162477365Y-128910328D01*
X162485048Y-128911999D01*
X163012169Y-128911999D01*
X163018990Y-128911629D01*
X163069852Y-128906105D01*
X163085104Y-128902479D01*
X163205554Y-128857324D01*
X163221149Y-128848786D01*
X163323224Y-128772285D01*
X163335785Y-128759724D01*
X163412286Y-128657649D01*
X163420824Y-128642054D01*
X163465978Y-128521606D01*
X163469605Y-128506351D01*
X163475131Y-128455486D01*
X163475500Y-128448672D01*
X163475500Y-128404273D01*
X163495502Y-128336152D01*
X163549158Y-128289659D01*
X163619432Y-128279555D01*
X163684012Y-128309049D01*
X163703822Y-128330747D01*
X163803770Y-128469839D01*
X163803776Y-128469846D01*
X163807052Y-128474405D01*
X163860401Y-128526104D01*
X163922333Y-128586120D01*
X163967354Y-128629749D01*
X164152632Y-128754250D01*
X164157778Y-128756509D01*
X164157780Y-128756510D01*
X164175353Y-128764224D01*
X164357029Y-128843974D01*
X164362477Y-128845282D01*
X164362483Y-128845284D01*
X164568628Y-128894775D01*
X164568629Y-128894775D01*
X164574085Y-128896085D01*
X164652133Y-128900585D01*
X164791331Y-128908611D01*
X164791334Y-128908611D01*
X164796938Y-128908934D01*
X165018544Y-128882117D01*
X165231900Y-128816481D01*
X165349819Y-128755618D01*
X165425274Y-128716672D01*
X165430259Y-128714099D01*
X165434701Y-128710690D01*
X165434705Y-128710688D01*
X165602910Y-128581620D01*
X165607354Y-128578210D01*
X165757586Y-128413107D01*
X165876207Y-128224010D01*
X165878301Y-128218800D01*
X165878305Y-128218793D01*
X165909835Y-128140360D01*
X165953801Y-128084615D01*
X166020926Y-128061490D01*
X166089898Y-128078327D01*
X166140468Y-128133112D01*
X166216792Y-128293129D01*
X166347052Y-128474405D01*
X166400401Y-128526104D01*
X166462333Y-128586120D01*
X166507354Y-128629749D01*
X166692632Y-128754250D01*
X166697778Y-128756509D01*
X166697780Y-128756510D01*
X166715353Y-128764224D01*
X166897029Y-128843974D01*
X166902477Y-128845282D01*
X166902483Y-128845284D01*
X167108628Y-128894775D01*
X167108629Y-128894775D01*
X167114085Y-128896085D01*
X167192133Y-128900585D01*
X167331331Y-128908611D01*
X167331334Y-128908611D01*
X167336938Y-128908934D01*
X167558544Y-128882117D01*
X167771900Y-128816481D01*
X167889819Y-128755618D01*
X167965274Y-128716672D01*
X167970259Y-128714099D01*
X167974701Y-128710690D01*
X167974705Y-128710688D01*
X168142910Y-128581620D01*
X168147354Y-128578210D01*
X168261132Y-128453169D01*
X174768501Y-128453169D01*
X174768871Y-128459990D01*
X174774395Y-128510852D01*
X174778021Y-128526104D01*
X174823176Y-128646554D01*
X174831714Y-128662149D01*
X174908215Y-128764224D01*
X174920776Y-128776785D01*
X175022851Y-128853286D01*
X175038446Y-128861824D01*
X175158894Y-128906978D01*
X175174149Y-128910605D01*
X175225014Y-128916131D01*
X175231828Y-128916500D01*
X175754385Y-128916500D01*
X175769624Y-128912025D01*
X175770829Y-128910635D01*
X175772500Y-128902952D01*
X175772500Y-127530615D01*
X175768025Y-127515376D01*
X175766635Y-127514171D01*
X175758952Y-127512500D01*
X174786616Y-127512500D01*
X174771377Y-127516975D01*
X174770172Y-127518365D01*
X174768501Y-127526048D01*
X174768501Y-128453169D01*
X168261132Y-128453169D01*
X168297586Y-128413107D01*
X168416207Y-128224010D01*
X168499466Y-128016895D01*
X168531004Y-127864607D01*
X168543796Y-127802834D01*
X168544733Y-127798310D01*
X168544999Y-127793697D01*
X168547895Y-127743474D01*
X168547895Y-127743470D01*
X168548000Y-127741651D01*
X168548000Y-126986385D01*
X174768500Y-126986385D01*
X174772975Y-127001624D01*
X174774365Y-127002829D01*
X174782048Y-127004500D01*
X175754385Y-127004500D01*
X175769624Y-127000025D01*
X175770829Y-126998635D01*
X175772500Y-126990952D01*
X175772500Y-125618616D01*
X175768025Y-125603377D01*
X175766635Y-125602172D01*
X175758952Y-125600501D01*
X175231831Y-125600501D01*
X175225010Y-125600871D01*
X175174148Y-125606395D01*
X175158896Y-125610021D01*
X175038446Y-125655176D01*
X175022851Y-125663714D01*
X174920776Y-125740215D01*
X174908215Y-125752776D01*
X174831714Y-125854851D01*
X174823176Y-125870446D01*
X174778022Y-125990894D01*
X174774395Y-126006149D01*
X174768869Y-126057014D01*
X174768500Y-126063828D01*
X174768500Y-126986385D01*
X168548000Y-126986385D01*
X168548000Y-126797370D01*
X168545232Y-126766349D01*
X168533710Y-126637256D01*
X168533211Y-126631661D01*
X168508982Y-126543093D01*
X168475788Y-126421760D01*
X168474308Y-126416349D01*
X168455366Y-126376635D01*
X168411053Y-126283732D01*
X168378208Y-126214871D01*
X168247948Y-126033595D01*
X168181035Y-125968752D01*
X168091674Y-125882154D01*
X168091671Y-125882152D01*
X168087646Y-125878251D01*
X167902368Y-125753750D01*
X167871535Y-125740215D01*
X167756843Y-125689869D01*
X167697971Y-125664026D01*
X167692523Y-125662718D01*
X167692517Y-125662716D01*
X167486372Y-125613225D01*
X167486371Y-125613225D01*
X167480915Y-125611915D01*
X167396697Y-125607059D01*
X167263669Y-125599389D01*
X167263666Y-125599389D01*
X167258062Y-125599066D01*
X167036456Y-125625883D01*
X166823100Y-125691519D01*
X166818110Y-125694095D01*
X166818109Y-125694095D01*
X166809391Y-125698595D01*
X166624741Y-125793901D01*
X166620299Y-125797310D01*
X166620295Y-125797312D01*
X166514813Y-125878251D01*
X166447646Y-125929790D01*
X166297414Y-126094893D01*
X166178793Y-126283990D01*
X166176699Y-126289200D01*
X166176695Y-126289207D01*
X166145165Y-126367640D01*
X166101199Y-126423385D01*
X166034074Y-126446510D01*
X165965102Y-126429673D01*
X165914532Y-126374888D01*
X165871053Y-126283732D01*
X165838208Y-126214871D01*
X165707948Y-126033595D01*
X165641035Y-125968752D01*
X165551674Y-125882154D01*
X165551671Y-125882152D01*
X165547646Y-125878251D01*
X165362368Y-125753750D01*
X165331535Y-125740215D01*
X165216843Y-125689869D01*
X165157971Y-125664026D01*
X165152523Y-125662718D01*
X165152517Y-125662716D01*
X164946372Y-125613225D01*
X164946371Y-125613225D01*
X164940915Y-125611915D01*
X164856697Y-125607059D01*
X164723669Y-125599389D01*
X164723666Y-125599389D01*
X164718062Y-125599066D01*
X164496456Y-125625883D01*
X164283100Y-125691519D01*
X164278110Y-125694095D01*
X164278109Y-125694095D01*
X164269391Y-125698595D01*
X164084741Y-125793901D01*
X164080299Y-125797310D01*
X164080295Y-125797312D01*
X163974813Y-125878251D01*
X163907646Y-125929790D01*
X163757414Y-126094893D01*
X163727141Y-126143152D01*
X163708236Y-126173289D01*
X163655093Y-126220367D01*
X163584933Y-126231239D01*
X163520034Y-126202455D01*
X163480999Y-126143152D01*
X163475499Y-126106333D01*
X163475499Y-126059331D01*
X163475129Y-126052510D01*
X163469605Y-126001648D01*
X163465979Y-125986396D01*
X163420824Y-125865946D01*
X163412286Y-125850351D01*
X163335785Y-125748276D01*
X163323224Y-125735715D01*
X163221149Y-125659214D01*
X163205554Y-125650676D01*
X163085106Y-125605522D01*
X163069851Y-125601895D01*
X163018986Y-125596369D01*
X163012172Y-125596000D01*
X162489615Y-125596000D01*
X162474376Y-125600475D01*
X162473171Y-125601865D01*
X162471500Y-125609548D01*
X162471500Y-128893884D01*
X161963500Y-128893884D01*
X161963500Y-127526115D01*
X161959025Y-127510876D01*
X161957635Y-127509671D01*
X161949952Y-127508000D01*
X160977616Y-127508000D01*
X160962377Y-127512475D01*
X160961172Y-127513865D01*
X160959501Y-127521548D01*
X160959501Y-128448669D01*
X156715682Y-128448669D01*
X156733770Y-128276565D01*
X156734460Y-128270000D01*
X156714674Y-128081744D01*
X156656179Y-127901716D01*
X156561533Y-127737784D01*
X156541135Y-127715130D01*
X156439286Y-127602015D01*
X156439284Y-127602014D01*
X156434871Y-127597112D01*
X156361134Y-127543539D01*
X156287072Y-127489730D01*
X156287071Y-127489729D01*
X156281730Y-127485849D01*
X156108803Y-127408856D01*
X156010788Y-127388022D01*
X155930103Y-127370872D01*
X155930099Y-127370872D01*
X155923646Y-127369500D01*
X155734354Y-127369500D01*
X155727901Y-127370872D01*
X155727897Y-127370872D01*
X155647212Y-127388022D01*
X155549197Y-127408856D01*
X155376270Y-127485849D01*
X155370929Y-127489729D01*
X155370928Y-127489730D01*
X155296866Y-127543539D01*
X155223129Y-127597112D01*
X155218716Y-127602014D01*
X155218714Y-127602015D01*
X155116865Y-127715130D01*
X155096467Y-127737784D01*
X155001821Y-127901716D01*
X154943326Y-128081744D01*
X154923540Y-128270000D01*
X154924230Y-128276565D01*
X154942319Y-128448672D01*
X154943326Y-128458256D01*
X155001821Y-128638284D01*
X155096467Y-128802216D01*
X155100885Y-128807123D01*
X155100886Y-128807124D01*
X155197864Y-128914828D01*
X155223129Y-128942888D01*
X155376270Y-129054151D01*
X155375766Y-129054845D01*
X155420978Y-129102260D01*
X155434417Y-129171973D01*
X155408032Y-129237885D01*
X155350201Y-129279069D01*
X155308987Y-129286000D01*
X146951013Y-129286000D01*
X146882892Y-129265998D01*
X146836399Y-129212342D01*
X146826295Y-129142068D01*
X146855789Y-129077488D01*
X146883851Y-129054318D01*
X146883730Y-129054151D01*
X146886422Y-129052195D01*
X147036871Y-128942888D01*
X147062137Y-128914828D01*
X147159114Y-128807124D01*
X147159115Y-128807123D01*
X147163533Y-128802216D01*
X147258179Y-128638284D01*
X147316674Y-128458256D01*
X147317682Y-128448672D01*
X147335770Y-128276565D01*
X147336460Y-128270000D01*
X147316674Y-128081744D01*
X147258179Y-127901716D01*
X147163533Y-127737784D01*
X147143135Y-127715130D01*
X147041286Y-127602015D01*
X147041284Y-127602014D01*
X147036871Y-127597112D01*
X146963134Y-127543539D01*
X146889072Y-127489730D01*
X146889071Y-127489729D01*
X146883730Y-127485849D01*
X146710803Y-127408856D01*
X146612788Y-127388022D01*
X146532103Y-127370872D01*
X146532099Y-127370872D01*
X146525646Y-127369500D01*
X146336354Y-127369500D01*
X146329901Y-127370872D01*
X146329897Y-127370872D01*
X146249212Y-127388022D01*
X146151197Y-127408856D01*
X145978270Y-127485849D01*
X145972929Y-127489729D01*
X145972928Y-127489730D01*
X145898866Y-127543539D01*
X145825129Y-127597112D01*
X145820716Y-127602014D01*
X145820714Y-127602015D01*
X145718865Y-127715130D01*
X145698467Y-127737784D01*
X145603821Y-127901716D01*
X145545326Y-128081744D01*
X145525540Y-128270000D01*
X145526230Y-128276565D01*
X145544319Y-128448672D01*
X145545326Y-128458256D01*
X145603821Y-128638284D01*
X145698467Y-128802216D01*
X145702885Y-128807123D01*
X145702886Y-128807124D01*
X145799864Y-128914828D01*
X145825129Y-128942888D01*
X145978270Y-129054151D01*
X145977766Y-129054845D01*
X146022978Y-129102260D01*
X146036417Y-129171973D01*
X146010032Y-129237885D01*
X145952201Y-129279069D01*
X145910987Y-129286000D01*
X122808000Y-129286000D01*
X122739879Y-129265998D01*
X122693386Y-129212342D01*
X122682000Y-129160000D01*
X122682000Y-127179000D01*
X124601723Y-127179000D01*
X124620793Y-127396977D01*
X124677425Y-127608330D01*
X124679747Y-127613310D01*
X124679748Y-127613312D01*
X124766015Y-127798310D01*
X124769898Y-127806638D01*
X124895402Y-127985877D01*
X125050123Y-128140598D01*
X125054631Y-128143755D01*
X125054634Y-128143757D01*
X125224852Y-128262945D01*
X125229361Y-128266102D01*
X125234343Y-128268425D01*
X125234348Y-128268428D01*
X125389234Y-128340652D01*
X125427670Y-128358575D01*
X125432978Y-128359997D01*
X125432980Y-128359998D01*
X125459381Y-128367072D01*
X125639023Y-128415207D01*
X125857000Y-128434277D01*
X126074977Y-128415207D01*
X126254619Y-128367072D01*
X126281020Y-128359998D01*
X126281022Y-128359997D01*
X126286330Y-128358575D01*
X126324766Y-128340652D01*
X126479652Y-128268428D01*
X126479657Y-128268425D01*
X126484639Y-128266102D01*
X126489148Y-128262945D01*
X126537397Y-128229161D01*
X127711393Y-128229161D01*
X127720687Y-128241175D01*
X127761088Y-128269464D01*
X127770584Y-128274947D01*
X127960113Y-128363326D01*
X127970405Y-128367072D01*
X128172401Y-128421196D01*
X128183196Y-128423099D01*
X128391525Y-128441326D01*
X128402475Y-128441326D01*
X128610804Y-128423099D01*
X128621599Y-128421196D01*
X128823595Y-128367072D01*
X128833887Y-128363326D01*
X129023416Y-128274947D01*
X129032912Y-128269464D01*
X129074148Y-128240590D01*
X129082523Y-128230112D01*
X129075457Y-128216668D01*
X128409811Y-127551021D01*
X128395868Y-127543408D01*
X128394034Y-127543539D01*
X128387420Y-127547790D01*
X127717820Y-128217391D01*
X127711393Y-128229161D01*
X126537397Y-128229161D01*
X126659366Y-128143757D01*
X126659369Y-128143755D01*
X126663877Y-128140598D01*
X126818598Y-127985877D01*
X126944102Y-127806638D01*
X126947986Y-127798310D01*
X127008668Y-127668177D01*
X127055586Y-127614892D01*
X127123863Y-127595431D01*
X127191823Y-127615973D01*
X127237058Y-127668177D01*
X127301054Y-127805417D01*
X127306534Y-127814907D01*
X127335411Y-127856149D01*
X127345887Y-127864523D01*
X127359334Y-127857455D01*
X128024979Y-127191811D01*
X128031356Y-127180132D01*
X128761408Y-127180132D01*
X128761539Y-127181966D01*
X128765790Y-127188580D01*
X129435391Y-127858180D01*
X129447161Y-127864607D01*
X129459176Y-127855311D01*
X129487466Y-127814907D01*
X129492946Y-127805417D01*
X129556942Y-127668177D01*
X129603860Y-127614892D01*
X129672137Y-127595431D01*
X129740097Y-127615973D01*
X129785332Y-127668177D01*
X129846015Y-127798310D01*
X129849898Y-127806638D01*
X129975402Y-127985877D01*
X130130123Y-128140598D01*
X130134631Y-128143755D01*
X130134634Y-128143757D01*
X130304852Y-128262945D01*
X130309361Y-128266102D01*
X130314343Y-128268425D01*
X130314348Y-128268428D01*
X130469234Y-128340652D01*
X130507670Y-128358575D01*
X130512978Y-128359997D01*
X130512980Y-128359998D01*
X130539381Y-128367072D01*
X130719023Y-128415207D01*
X130937000Y-128434277D01*
X131154977Y-128415207D01*
X131334619Y-128367072D01*
X131361020Y-128359998D01*
X131361022Y-128359997D01*
X131366330Y-128358575D01*
X131404766Y-128340652D01*
X131559652Y-128268428D01*
X131559657Y-128268425D01*
X131564639Y-128266102D01*
X131569148Y-128262945D01*
X131739366Y-128143757D01*
X131739369Y-128143755D01*
X131743877Y-128140598D01*
X131898598Y-127985877D01*
X132024102Y-127806638D01*
X132027986Y-127798310D01*
X132114252Y-127613312D01*
X132114253Y-127613310D01*
X132116575Y-127608330D01*
X132173207Y-127396977D01*
X132192277Y-127179000D01*
X132175032Y-126981885D01*
X160959500Y-126981885D01*
X160963975Y-126997124D01*
X160965365Y-126998329D01*
X160973048Y-127000000D01*
X161945385Y-127000000D01*
X161960624Y-126995525D01*
X161961829Y-126994135D01*
X161963500Y-126986452D01*
X161963500Y-125614116D01*
X161959025Y-125598877D01*
X161957635Y-125597672D01*
X161949952Y-125596001D01*
X161422831Y-125596001D01*
X161416010Y-125596371D01*
X161365148Y-125601895D01*
X161349896Y-125605521D01*
X161229446Y-125650676D01*
X161213851Y-125659214D01*
X161111776Y-125735715D01*
X161099215Y-125748276D01*
X161022714Y-125850351D01*
X161014176Y-125865946D01*
X160969022Y-125986394D01*
X160965395Y-126001649D01*
X160959869Y-126052514D01*
X160959500Y-126059328D01*
X160959500Y-126981885D01*
X132175032Y-126981885D01*
X132173207Y-126961023D01*
X132116575Y-126749670D01*
X132113011Y-126742027D01*
X132026425Y-126556343D01*
X132026423Y-126556340D01*
X132024102Y-126551362D01*
X131898598Y-126372123D01*
X131743877Y-126217402D01*
X131739369Y-126214245D01*
X131739366Y-126214243D01*
X131569148Y-126095055D01*
X131569145Y-126095053D01*
X131564639Y-126091898D01*
X131559657Y-126089575D01*
X131559652Y-126089572D01*
X131371312Y-126001748D01*
X131371311Y-126001747D01*
X131366330Y-125999425D01*
X131361022Y-125998003D01*
X131361020Y-125998002D01*
X131295255Y-125980380D01*
X131154977Y-125942793D01*
X130937000Y-125923723D01*
X130719023Y-125942793D01*
X130578745Y-125980380D01*
X130512980Y-125998002D01*
X130512978Y-125998003D01*
X130507670Y-125999425D01*
X130502690Y-126001747D01*
X130502688Y-126001748D01*
X130314343Y-126089575D01*
X130314340Y-126089577D01*
X130309362Y-126091898D01*
X130130123Y-126217402D01*
X129975402Y-126372123D01*
X129849898Y-126551362D01*
X129847577Y-126556340D01*
X129847575Y-126556343D01*
X129785332Y-126689823D01*
X129738414Y-126743108D01*
X129670137Y-126762569D01*
X129602177Y-126742027D01*
X129556942Y-126689823D01*
X129492946Y-126552583D01*
X129487466Y-126543093D01*
X129458589Y-126501851D01*
X129448113Y-126493477D01*
X129434666Y-126500545D01*
X128769021Y-127166189D01*
X128761408Y-127180132D01*
X128031356Y-127180132D01*
X128032592Y-127177868D01*
X128032461Y-127176034D01*
X128028210Y-127169420D01*
X127358609Y-126499820D01*
X127346839Y-126493393D01*
X127334824Y-126502689D01*
X127306534Y-126543093D01*
X127301054Y-126552583D01*
X127237058Y-126689823D01*
X127190140Y-126743108D01*
X127121863Y-126762569D01*
X127053903Y-126742027D01*
X127008668Y-126689823D01*
X126946425Y-126556343D01*
X126946423Y-126556340D01*
X126944102Y-126551362D01*
X126818598Y-126372123D01*
X126663877Y-126217402D01*
X126659369Y-126214245D01*
X126659366Y-126214243D01*
X126536037Y-126127887D01*
X127711477Y-126127887D01*
X127718545Y-126141334D01*
X128384189Y-126806979D01*
X128398132Y-126814592D01*
X128399966Y-126814461D01*
X128406580Y-126810210D01*
X129076180Y-126140609D01*
X129082607Y-126128839D01*
X129073313Y-126116825D01*
X129032912Y-126088536D01*
X129023416Y-126083053D01*
X128833887Y-125994674D01*
X128823595Y-125990928D01*
X128621599Y-125936804D01*
X128610804Y-125934901D01*
X128402475Y-125916674D01*
X128391525Y-125916674D01*
X128183196Y-125934901D01*
X128172401Y-125936804D01*
X127970405Y-125990928D01*
X127960113Y-125994674D01*
X127770583Y-126083054D01*
X127761093Y-126088534D01*
X127719851Y-126117411D01*
X127711477Y-126127887D01*
X126536037Y-126127887D01*
X126489148Y-126095055D01*
X126489145Y-126095053D01*
X126484639Y-126091898D01*
X126479657Y-126089575D01*
X126479652Y-126089572D01*
X126291312Y-126001748D01*
X126291311Y-126001747D01*
X126286330Y-125999425D01*
X126281022Y-125998003D01*
X126281020Y-125998002D01*
X126215255Y-125980380D01*
X126074977Y-125942793D01*
X125857000Y-125923723D01*
X125639023Y-125942793D01*
X125498745Y-125980380D01*
X125432980Y-125998002D01*
X125432978Y-125998003D01*
X125427670Y-125999425D01*
X125422690Y-126001747D01*
X125422688Y-126001748D01*
X125234343Y-126089575D01*
X125234340Y-126089577D01*
X125229362Y-126091898D01*
X125050123Y-126217402D01*
X124895402Y-126372123D01*
X124769898Y-126551362D01*
X124767577Y-126556340D01*
X124767575Y-126556343D01*
X124680989Y-126742027D01*
X124677425Y-126749670D01*
X124620793Y-126961023D01*
X124601723Y-127179000D01*
X122682000Y-127179000D01*
X122682000Y-122758000D01*
X134673223Y-122758000D01*
X134692293Y-122975977D01*
X134693717Y-122981290D01*
X134746896Y-123179756D01*
X134748925Y-123187330D01*
X134841398Y-123385638D01*
X134966902Y-123564877D01*
X135121623Y-123719598D01*
X135126131Y-123722755D01*
X135126134Y-123722757D01*
X135296352Y-123841945D01*
X135300861Y-123845102D01*
X135305843Y-123847425D01*
X135305848Y-123847428D01*
X135494188Y-123935252D01*
X135499170Y-123937575D01*
X135504478Y-123938997D01*
X135504480Y-123938998D01*
X135570245Y-123956620D01*
X135710523Y-123994207D01*
X135928500Y-124013277D01*
X136146477Y-123994207D01*
X136286755Y-123956620D01*
X136352520Y-123938998D01*
X136352522Y-123938997D01*
X136357830Y-123937575D01*
X136362812Y-123935252D01*
X136551152Y-123847428D01*
X136551157Y-123847425D01*
X136556139Y-123845102D01*
X136560648Y-123841945D01*
X136608897Y-123808161D01*
X137782893Y-123808161D01*
X137792187Y-123820175D01*
X137832588Y-123848464D01*
X137842084Y-123853947D01*
X138031613Y-123942326D01*
X138041905Y-123946072D01*
X138243901Y-124000196D01*
X138254696Y-124002099D01*
X138463025Y-124020326D01*
X138473975Y-124020326D01*
X138682304Y-124002099D01*
X138693099Y-124000196D01*
X138895095Y-123946072D01*
X138905387Y-123942326D01*
X139094916Y-123853947D01*
X139104412Y-123848464D01*
X139145648Y-123819590D01*
X139154023Y-123809112D01*
X139146957Y-123795668D01*
X138481311Y-123130021D01*
X138467368Y-123122408D01*
X138465534Y-123122539D01*
X138458920Y-123126790D01*
X137789320Y-123796391D01*
X137782893Y-123808161D01*
X136608897Y-123808161D01*
X136730866Y-123722757D01*
X136730869Y-123722755D01*
X136735377Y-123719598D01*
X136890098Y-123564877D01*
X137015602Y-123385638D01*
X137080168Y-123247177D01*
X137127086Y-123193892D01*
X137195363Y-123174431D01*
X137263323Y-123194973D01*
X137308558Y-123247177D01*
X137372554Y-123384417D01*
X137378034Y-123393907D01*
X137406911Y-123435149D01*
X137417387Y-123443523D01*
X137430834Y-123436455D01*
X138096479Y-122770811D01*
X138102856Y-122759132D01*
X138832908Y-122759132D01*
X138833039Y-122760966D01*
X138837290Y-122767580D01*
X139506891Y-123437180D01*
X139518661Y-123443607D01*
X139530676Y-123434311D01*
X139558966Y-123393907D01*
X139564446Y-123384417D01*
X139628442Y-123247177D01*
X139675360Y-123193892D01*
X139743637Y-123174431D01*
X139811597Y-123194973D01*
X139856832Y-123247177D01*
X139921398Y-123385638D01*
X140046902Y-123564877D01*
X140201623Y-123719598D01*
X140206131Y-123722755D01*
X140206134Y-123722757D01*
X140376352Y-123841945D01*
X140380861Y-123845102D01*
X140385843Y-123847425D01*
X140385848Y-123847428D01*
X140574188Y-123935252D01*
X140579170Y-123937575D01*
X140584478Y-123938997D01*
X140584480Y-123938998D01*
X140650245Y-123956620D01*
X140790523Y-123994207D01*
X141008500Y-124013277D01*
X141226477Y-123994207D01*
X141366755Y-123956620D01*
X141432520Y-123938998D01*
X141432522Y-123938997D01*
X141437830Y-123937575D01*
X141442812Y-123935252D01*
X141631152Y-123847428D01*
X141631157Y-123847425D01*
X141636139Y-123845102D01*
X141640648Y-123841945D01*
X141810866Y-123722757D01*
X141810869Y-123722755D01*
X141815377Y-123719598D01*
X141970098Y-123564877D01*
X142095602Y-123385638D01*
X142188075Y-123187330D01*
X142190105Y-123179756D01*
X142243283Y-122981290D01*
X142244707Y-122975977D01*
X142263777Y-122758000D01*
X144821177Y-122758000D01*
X144840430Y-122978068D01*
X144841854Y-122983381D01*
X144894473Y-123179756D01*
X144897606Y-123191450D01*
X144899928Y-123196431D01*
X144899929Y-123196432D01*
X144985835Y-123380657D01*
X144990966Y-123391661D01*
X145117674Y-123572620D01*
X145273880Y-123728826D01*
X145278388Y-123731983D01*
X145278391Y-123731985D01*
X145443261Y-123847428D01*
X145454838Y-123855534D01*
X145459820Y-123857857D01*
X145459825Y-123857860D01*
X145648998Y-123946072D01*
X145655050Y-123948894D01*
X145660358Y-123950316D01*
X145660360Y-123950317D01*
X145725752Y-123967839D01*
X145868432Y-124006070D01*
X146088500Y-124025323D01*
X146308568Y-124006070D01*
X146451248Y-123967839D01*
X146516640Y-123950317D01*
X146516642Y-123950316D01*
X146521950Y-123948894D01*
X146528002Y-123946072D01*
X146717175Y-123857860D01*
X146717180Y-123857857D01*
X146722162Y-123855534D01*
X146733739Y-123847428D01*
X146898609Y-123731985D01*
X146898612Y-123731983D01*
X146903120Y-123728826D01*
X147059326Y-123572620D01*
X147186034Y-123391661D01*
X147191166Y-123380657D01*
X147250925Y-123252502D01*
X147297842Y-123199217D01*
X147366120Y-123179756D01*
X147434080Y-123200298D01*
X147479315Y-123252502D01*
X147541398Y-123385638D01*
X147666902Y-123564877D01*
X147821623Y-123719598D01*
X147826131Y-123722755D01*
X147826134Y-123722757D01*
X147996352Y-123841945D01*
X148000861Y-123845102D01*
X148005843Y-123847425D01*
X148005848Y-123847428D01*
X148194188Y-123935252D01*
X148199170Y-123937575D01*
X148204478Y-123938997D01*
X148204480Y-123938998D01*
X148270245Y-123956620D01*
X148410523Y-123994207D01*
X148628500Y-124013277D01*
X148846477Y-123994207D01*
X148986755Y-123956620D01*
X149052520Y-123938998D01*
X149052522Y-123938997D01*
X149057830Y-123937575D01*
X149062812Y-123935252D01*
X149251152Y-123847428D01*
X149251157Y-123847425D01*
X149256139Y-123845102D01*
X149260648Y-123841945D01*
X149430866Y-123722757D01*
X149430869Y-123722755D01*
X149435377Y-123719598D01*
X149590098Y-123564877D01*
X149715602Y-123385638D01*
X149784305Y-123238305D01*
X149831223Y-123185020D01*
X149899500Y-123165559D01*
X149967460Y-123186101D01*
X150012695Y-123238305D01*
X150081398Y-123385638D01*
X150206902Y-123564877D01*
X150361623Y-123719598D01*
X150366131Y-123722755D01*
X150366134Y-123722757D01*
X150536352Y-123841945D01*
X150540861Y-123845102D01*
X150545843Y-123847425D01*
X150545848Y-123847428D01*
X150734188Y-123935252D01*
X150739170Y-123937575D01*
X150744478Y-123938997D01*
X150744480Y-123938998D01*
X150810245Y-123956620D01*
X150950523Y-123994207D01*
X151168500Y-124013277D01*
X151386477Y-123994207D01*
X151526755Y-123956620D01*
X151592520Y-123938998D01*
X151592522Y-123938997D01*
X151597830Y-123937575D01*
X151602812Y-123935252D01*
X151791152Y-123847428D01*
X151791157Y-123847425D01*
X151796139Y-123845102D01*
X151800648Y-123841945D01*
X151970866Y-123722757D01*
X151970869Y-123722755D01*
X151975377Y-123719598D01*
X152130098Y-123564877D01*
X152255602Y-123385638D01*
X152324305Y-123238305D01*
X152371223Y-123185020D01*
X152439500Y-123165559D01*
X152507460Y-123186101D01*
X152552695Y-123238305D01*
X152621398Y-123385638D01*
X152746902Y-123564877D01*
X152901623Y-123719598D01*
X152906131Y-123722755D01*
X152906134Y-123722757D01*
X153076352Y-123841945D01*
X153080861Y-123845102D01*
X153085843Y-123847425D01*
X153085848Y-123847428D01*
X153274188Y-123935252D01*
X153279170Y-123937575D01*
X153284478Y-123938997D01*
X153284480Y-123938998D01*
X153350245Y-123956620D01*
X153490523Y-123994207D01*
X153708500Y-124013277D01*
X153926477Y-123994207D01*
X154066755Y-123956620D01*
X154132520Y-123938998D01*
X154132522Y-123938997D01*
X154137830Y-123937575D01*
X154142812Y-123935252D01*
X154331152Y-123847428D01*
X154331157Y-123847425D01*
X154336139Y-123845102D01*
X154340648Y-123841945D01*
X154510866Y-123722757D01*
X154510869Y-123722755D01*
X154515377Y-123719598D01*
X154670098Y-123564877D01*
X154795602Y-123385638D01*
X154888075Y-123187330D01*
X154890105Y-123179756D01*
X154943283Y-122981290D01*
X154944707Y-122975977D01*
X154963777Y-122758000D01*
X154944707Y-122540023D01*
X154891531Y-122341569D01*
X154889498Y-122333980D01*
X154889497Y-122333978D01*
X154888075Y-122328670D01*
X154795602Y-122130362D01*
X154670098Y-121951123D01*
X154515377Y-121796402D01*
X154510869Y-121793245D01*
X154510866Y-121793243D01*
X154340648Y-121674055D01*
X154340645Y-121674053D01*
X154336139Y-121670898D01*
X154331157Y-121668575D01*
X154331152Y-121668572D01*
X154142812Y-121580748D01*
X154142811Y-121580747D01*
X154137830Y-121578425D01*
X154132522Y-121577003D01*
X154132520Y-121577002D01*
X154066755Y-121559380D01*
X153926477Y-121521793D01*
X153708500Y-121502723D01*
X153490523Y-121521793D01*
X153350245Y-121559380D01*
X153284480Y-121577002D01*
X153284478Y-121577003D01*
X153279170Y-121578425D01*
X153274190Y-121580747D01*
X153274188Y-121580748D01*
X153085843Y-121668575D01*
X153085840Y-121668577D01*
X153080862Y-121670898D01*
X152901623Y-121796402D01*
X152746902Y-121951123D01*
X152621398Y-122130362D01*
X152619077Y-122135340D01*
X152619075Y-122135343D01*
X152552695Y-122277695D01*
X152505777Y-122330980D01*
X152437500Y-122350441D01*
X152369540Y-122329899D01*
X152324305Y-122277695D01*
X152257925Y-122135343D01*
X152257923Y-122135340D01*
X152255602Y-122130362D01*
X152130098Y-121951123D01*
X151975377Y-121796402D01*
X151970869Y-121793245D01*
X151970866Y-121793243D01*
X151800648Y-121674055D01*
X151800645Y-121674053D01*
X151796139Y-121670898D01*
X151791157Y-121668575D01*
X151791152Y-121668572D01*
X151602812Y-121580748D01*
X151602811Y-121580747D01*
X151597830Y-121578425D01*
X151592522Y-121577003D01*
X151592520Y-121577002D01*
X151526755Y-121559380D01*
X151386477Y-121521793D01*
X151168500Y-121502723D01*
X150950523Y-121521793D01*
X150810245Y-121559380D01*
X150744480Y-121577002D01*
X150744478Y-121577003D01*
X150739170Y-121578425D01*
X150734190Y-121580747D01*
X150734188Y-121580748D01*
X150545843Y-121668575D01*
X150545840Y-121668577D01*
X150540862Y-121670898D01*
X150361623Y-121796402D01*
X150206902Y-121951123D01*
X150081398Y-122130362D01*
X150079077Y-122135340D01*
X150079075Y-122135343D01*
X150012695Y-122277695D01*
X149965777Y-122330980D01*
X149897500Y-122350441D01*
X149829540Y-122329899D01*
X149784305Y-122277695D01*
X149717925Y-122135343D01*
X149717923Y-122135340D01*
X149715602Y-122130362D01*
X149590098Y-121951123D01*
X149435377Y-121796402D01*
X149430869Y-121793245D01*
X149430866Y-121793243D01*
X149260648Y-121674055D01*
X149260645Y-121674053D01*
X149256139Y-121670898D01*
X149251157Y-121668575D01*
X149251152Y-121668572D01*
X149062812Y-121580748D01*
X149062811Y-121580747D01*
X149057830Y-121578425D01*
X149052522Y-121577003D01*
X149052520Y-121577002D01*
X148986755Y-121559380D01*
X148846477Y-121521793D01*
X148628500Y-121502723D01*
X148410523Y-121521793D01*
X148270245Y-121559380D01*
X148204480Y-121577002D01*
X148204478Y-121577003D01*
X148199170Y-121578425D01*
X148194190Y-121580747D01*
X148194188Y-121580748D01*
X148005843Y-121668575D01*
X148005840Y-121668577D01*
X148000862Y-121670898D01*
X147821623Y-121796402D01*
X147666902Y-121951123D01*
X147541398Y-122130362D01*
X147539077Y-122135340D01*
X147539075Y-122135343D01*
X147479315Y-122263498D01*
X147432397Y-122316783D01*
X147364120Y-122336244D01*
X147296160Y-122315702D01*
X147250925Y-122263498D01*
X147188357Y-122129320D01*
X147188355Y-122129317D01*
X147186034Y-122124339D01*
X147059326Y-121943380D01*
X146903120Y-121787174D01*
X146898612Y-121784017D01*
X146898609Y-121784015D01*
X146726671Y-121663623D01*
X146726668Y-121663621D01*
X146722162Y-121660466D01*
X146717180Y-121658143D01*
X146717175Y-121658140D01*
X146526932Y-121569429D01*
X146526931Y-121569429D01*
X146521950Y-121567106D01*
X146516642Y-121565684D01*
X146516640Y-121565683D01*
X146451248Y-121548161D01*
X146308568Y-121509930D01*
X146088500Y-121490677D01*
X145868432Y-121509930D01*
X145725752Y-121548161D01*
X145660360Y-121565683D01*
X145660358Y-121565684D01*
X145655050Y-121567106D01*
X145650069Y-121569428D01*
X145650068Y-121569429D01*
X145459820Y-121658143D01*
X145459817Y-121658145D01*
X145454839Y-121660466D01*
X145273880Y-121787174D01*
X145117674Y-121943380D01*
X144990966Y-122124339D01*
X144988645Y-122129317D01*
X144988643Y-122129320D01*
X144926075Y-122263498D01*
X144897606Y-122324550D01*
X144896184Y-122329858D01*
X144896183Y-122329860D01*
X144893046Y-122341569D01*
X144840430Y-122537932D01*
X144821177Y-122758000D01*
X142263777Y-122758000D01*
X142244707Y-122540023D01*
X142191531Y-122341569D01*
X142189498Y-122333980D01*
X142189497Y-122333978D01*
X142188075Y-122328670D01*
X142095602Y-122130362D01*
X141970098Y-121951123D01*
X141815377Y-121796402D01*
X141810869Y-121793245D01*
X141810866Y-121793243D01*
X141640648Y-121674055D01*
X141640645Y-121674053D01*
X141636139Y-121670898D01*
X141631157Y-121668575D01*
X141631152Y-121668572D01*
X141442812Y-121580748D01*
X141442811Y-121580747D01*
X141437830Y-121578425D01*
X141432522Y-121577003D01*
X141432520Y-121577002D01*
X141366755Y-121559380D01*
X141226477Y-121521793D01*
X141008500Y-121502723D01*
X140790523Y-121521793D01*
X140650245Y-121559380D01*
X140584480Y-121577002D01*
X140584478Y-121577003D01*
X140579170Y-121578425D01*
X140574190Y-121580747D01*
X140574188Y-121580748D01*
X140385843Y-121668575D01*
X140385840Y-121668577D01*
X140380862Y-121670898D01*
X140201623Y-121796402D01*
X140046902Y-121951123D01*
X139921398Y-122130362D01*
X139919077Y-122135340D01*
X139919075Y-122135343D01*
X139856832Y-122268823D01*
X139809914Y-122322108D01*
X139741637Y-122341569D01*
X139673677Y-122321027D01*
X139628442Y-122268823D01*
X139564446Y-122131583D01*
X139558966Y-122122093D01*
X139530089Y-122080851D01*
X139519613Y-122072477D01*
X139506166Y-122079545D01*
X138840521Y-122745189D01*
X138832908Y-122759132D01*
X138102856Y-122759132D01*
X138104092Y-122756868D01*
X138103961Y-122755034D01*
X138099710Y-122748420D01*
X137430109Y-122078820D01*
X137418339Y-122072393D01*
X137406324Y-122081689D01*
X137378034Y-122122093D01*
X137372554Y-122131583D01*
X137308558Y-122268823D01*
X137261640Y-122322108D01*
X137193363Y-122341569D01*
X137125403Y-122321027D01*
X137080168Y-122268823D01*
X137017925Y-122135343D01*
X137017923Y-122135340D01*
X137015602Y-122130362D01*
X136890098Y-121951123D01*
X136735377Y-121796402D01*
X136730869Y-121793245D01*
X136730866Y-121793243D01*
X136607537Y-121706887D01*
X137782977Y-121706887D01*
X137790045Y-121720334D01*
X138455689Y-122385979D01*
X138469632Y-122393592D01*
X138471466Y-122393461D01*
X138478080Y-122389210D01*
X139147680Y-121719609D01*
X139154107Y-121707839D01*
X139144813Y-121695825D01*
X139104412Y-121667536D01*
X139094916Y-121662053D01*
X138905387Y-121573674D01*
X138895095Y-121569928D01*
X138693099Y-121515804D01*
X138682304Y-121513901D01*
X138473975Y-121495674D01*
X138463025Y-121495674D01*
X138254696Y-121513901D01*
X138243901Y-121515804D01*
X138041905Y-121569928D01*
X138031613Y-121573674D01*
X137842083Y-121662054D01*
X137832593Y-121667534D01*
X137791351Y-121696411D01*
X137782977Y-121706887D01*
X136607537Y-121706887D01*
X136560648Y-121674055D01*
X136560645Y-121674053D01*
X136556139Y-121670898D01*
X136551157Y-121668575D01*
X136551152Y-121668572D01*
X136362812Y-121580748D01*
X136362811Y-121580747D01*
X136357830Y-121578425D01*
X136352522Y-121577003D01*
X136352520Y-121577002D01*
X136286755Y-121559380D01*
X136146477Y-121521793D01*
X135928500Y-121502723D01*
X135710523Y-121521793D01*
X135570245Y-121559380D01*
X135504480Y-121577002D01*
X135504478Y-121577003D01*
X135499170Y-121578425D01*
X135494190Y-121580747D01*
X135494188Y-121580748D01*
X135305843Y-121668575D01*
X135305840Y-121668577D01*
X135300862Y-121670898D01*
X135121623Y-121796402D01*
X134966902Y-121951123D01*
X134841398Y-122130362D01*
X134748925Y-122328670D01*
X134747503Y-122333978D01*
X134747502Y-122333980D01*
X134745469Y-122341569D01*
X134692293Y-122540023D01*
X134673223Y-122758000D01*
X122682000Y-122758000D01*
X122682000Y-120903000D01*
X122702002Y-120834879D01*
X122755658Y-120788386D01*
X122808000Y-120777000D01*
X180356000Y-120777000D01*
X180356000Y-125795916D01*
G37*
%TD.AperFunction*%
%TD*%
M02*
