M48
; DRILL file {KiCad 8.0.4} date 2024-10-31T19:52:37+0300
; FORMAT={-:-/ absolute / inch / decimal}
; #@! TF.CreationDate,2024-10-31T19:52:37+03:00
; #@! TF.GenerationSoftware,Kicad,Pcbnew,8.0.4
; #@! TF.FileFunction,Plated,1,6,PTH
FMAT,2
INCH
; #@! TA.AperFunction,Plated,PTH,ViaDrill
T1C0.0157
; #@! TA.AperFunction,Plated,PTH,ComponentDrill
T2C0.0354
; #@! TA.AperFunction,Plated,PTH,ComponentDrill
T3C0.0394
; #@! TA.AperFunction,Plated,PTH,ComponentDrill
T4C0.0402
; #@! TA.AperFunction,Plated,PTH,ComponentDrill
T5C0.0472
; #@! TA.AperFunction,Plated,PTH,ComponentDrill
T6C0.0591
%
G90
G05
T1
X4.47Y-4.44
X4.55Y-3.26
X4.79Y-3.25
X4.79Y-3.29
X4.79Y-3.4
X4.79Y-3.44
X4.8Y-4.15
X4.8Y-4.25
X4.8092Y-3.5842
X4.8463Y-4.1463
X4.8908Y-3.5842
X4.95Y-3.37
X4.9526Y-3.1926
X4.96Y-4.32
X4.975Y-3.465
X4.99Y-3.37
X5.0Y-3.65
X5.0274Y-3.1926
X5.03Y-3.37
X5.04Y-4.18
X5.05Y-3.65
X5.1Y-3.65
X5.12Y-4.13
X5.1496Y-3.3858
X5.15Y-3.65
X5.16Y-4.32
X5.2Y-3.65
X5.25Y-4.15
X5.25Y-4.25
X5.2592Y-3.5842
X5.3063Y-4.1463
X5.325Y-3.185
X5.3408Y-3.5842
X5.38Y-3.51
X5.41Y-4.32
X5.425Y-3.355
X5.44Y-3.1874
X5.45Y-3.65
X5.49Y-4.18
X5.5Y-3.65
X5.525Y-3.355
X5.55Y-3.65
X5.58Y-4.14
X5.6Y-3.65
X5.625Y-3.195
X5.625Y-3.3616
X5.65Y-3.65
X5.66Y-4.25
X5.725Y-3.1884
X5.725Y-3.35
X5.7762Y-3.2356
X6.0896Y-2.5915
X6.0896Y-2.8415
X6.09Y-3.26
X6.09Y-3.3
X6.09Y-3.4
X6.09Y-3.44
X6.12Y-4.17
X6.12Y-4.21
X6.26Y-4.39
X6.3Y-4.39
X6.33Y-4.17
X6.33Y-4.21
X6.34Y-4.39
X6.4764Y-2.6969
X6.4801Y-2.8974
X6.63Y-4.15
X6.63Y-4.19
X6.63Y-4.27
X6.63Y-4.37
X6.63Y-4.45
X6.63Y-4.49
X6.6301Y-2.8974
X6.7933Y-2.5807
X6.8307Y-2.7756
X6.8681Y-2.5807
X7.1409Y-2.8693
X7.1409Y-2.9575
X7.2909Y-2.8665
X7.2909Y-2.9602
X7.3659Y-2.9565
X7.5159Y-2.9565
T2
X3.878Y-3.0906
X3.878Y-4.5669
X4.7244Y-2.6772
X5.4921Y-2.6772
T3
X4.6636Y-3.55
X4.6636Y-3.65
X4.6636Y-3.75
X4.6636Y-3.95
X4.6636Y-4.05
X4.6636Y-4.15
X4.6636Y-4.25
X5.9636Y-3.55
X5.9636Y-3.65
X5.9636Y-3.75
X5.9636Y-3.95
X5.9636Y-4.05
X5.9636Y-4.15
X5.9636Y-4.25
X6.9075Y-4.22
X6.9075Y-4.32
X6.9075Y-4.42
T4
X6.3189Y-3.4811
X6.3189Y-3.5992
X6.437Y-3.4811
X6.437Y-3.5992
X6.5551Y-3.4811
X6.5551Y-3.5992
X6.6732Y-3.4811
X6.6732Y-3.5992
X6.7913Y-3.4811
X6.7913Y-3.5992
X6.9094Y-3.4811
X6.9094Y-3.5992
T5
X3.4252Y-3.2776
X3.4252Y-4.3602
T6
X4.1517Y-3.38
X4.1517Y-3.53
X4.1517Y-4.13
X4.1517Y-4.28
X4.5107Y-4.6548
X4.6607Y-3.0052
X4.6607Y-4.6548
X4.8107Y-3.0052
X4.9607Y-4.6548
X5.1107Y-4.6548
X5.4107Y-3.0052
X5.4107Y-4.6548
X5.5607Y-3.0052
X5.5607Y-4.6548
X5.8607Y-4.6548
X6.0107Y-4.6548
X6.1607Y-3.0052
X6.3107Y-3.0052
X6.3107Y-4.6548
X6.4607Y-4.6548
X6.7607Y-3.0052
X6.7607Y-4.6548
X6.9107Y-3.0052
X6.9107Y-4.6548
X7.2698Y-3.38
X7.2698Y-3.53
X7.2698Y-4.13
X7.2698Y-4.28
M30
