%TF.GenerationSoftware,KiCad,Pcbnew,(6.0.1)*%
%TF.CreationDate,2023-04-21T13:11:10+03:00*%
%TF.ProjectId,Driver_Inductor,44726976-6572-45f4-996e-647563746f72,rev?*%
%TF.SameCoordinates,Original*%
%TF.FileFunction,Paste,Top*%
%TF.FilePolarity,Positive*%
%FSLAX46Y46*%
G04 Gerber Fmt 4.6, Leading zero omitted, Abs format (unit mm)*
G04 Created by KiCad (PCBNEW (6.0.1)) date 2023-04-21 13:11:10*
%MOMM*%
%LPD*%
G01*
G04 APERTURE LIST*
G04 Aperture macros list*
%AMRoundRect*
0 Rectangle with rounded corners*
0 $1 Rounding radius*
0 $2 $3 $4 $5 $6 $7 $8 $9 X,Y pos of 4 corners*
0 Add a 4 corners polygon primitive as box body*
4,1,4,$2,$3,$4,$5,$6,$7,$8,$9,$2,$3,0*
0 Add four circle primitives for the rounded corners*
1,1,$1+$1,$2,$3*
1,1,$1+$1,$4,$5*
1,1,$1+$1,$6,$7*
1,1,$1+$1,$8,$9*
0 Add four rect primitives between the rounded corners*
20,1,$1+$1,$2,$3,$4,$5,0*
20,1,$1+$1,$4,$5,$6,$7,0*
20,1,$1+$1,$6,$7,$8,$9,0*
20,1,$1+$1,$8,$9,$2,$3,0*%
G04 Aperture macros list end*
%ADD10RoundRect,0.150000X-0.150000X0.875000X-0.150000X-0.875000X0.150000X-0.875000X0.150000X0.875000X0*%
%ADD11RoundRect,0.249999X1.425001X-0.450001X1.425001X0.450001X-1.425001X0.450001X-1.425001X-0.450001X0*%
%ADD12R,2.000000X1.500000*%
%ADD13R,2.000000X3.800000*%
%ADD14RoundRect,0.250000X0.450000X-0.350000X0.450000X0.350000X-0.450000X0.350000X-0.450000X-0.350000X0*%
%ADD15RoundRect,0.250000X-0.450000X0.350000X-0.450000X-0.350000X0.450000X-0.350000X0.450000X0.350000X0*%
%ADD16RoundRect,0.250000X0.475000X-0.337500X0.475000X0.337500X-0.475000X0.337500X-0.475000X-0.337500X0*%
%ADD17RoundRect,0.150000X-0.150000X0.825000X-0.150000X-0.825000X0.150000X-0.825000X0.150000X0.825000X0*%
%ADD18RoundRect,0.150000X0.825000X0.150000X-0.825000X0.150000X-0.825000X-0.150000X0.825000X-0.150000X0*%
%ADD19RoundRect,0.250000X0.350000X0.450000X-0.350000X0.450000X-0.350000X-0.450000X0.350000X-0.450000X0*%
%ADD20R,3.300000X2.500000*%
%ADD21RoundRect,0.250000X0.450000X-0.325000X0.450000X0.325000X-0.450000X0.325000X-0.450000X-0.325000X0*%
%ADD22RoundRect,0.250000X-0.337500X-0.475000X0.337500X-0.475000X0.337500X0.475000X-0.337500X0.475000X0*%
%ADD23RoundRect,0.150000X0.512500X0.150000X-0.512500X0.150000X-0.512500X-0.150000X0.512500X-0.150000X0*%
%ADD24R,2.997200X1.000000*%
G04 APERTURE END LIST*
D10*
%TO.C,D1*%
X130302000Y-93775000D03*
X129032000Y-93775000D03*
X127762000Y-93775000D03*
X126492000Y-93775000D03*
X125222000Y-93775000D03*
X123952000Y-93775000D03*
X122682000Y-93775000D03*
X121412000Y-93775000D03*
X121412000Y-103075000D03*
X122682000Y-103075000D03*
X123952000Y-103075000D03*
X125222000Y-103075000D03*
X126492000Y-103075000D03*
X127762000Y-103075000D03*
X129032000Y-103075000D03*
X130302000Y-103075000D03*
%TD*%
D11*
%TO.C,R3*%
X129540000Y-114810000D03*
X129540000Y-108710000D03*
%TD*%
D12*
%TO.C,U3*%
X181127000Y-76313000D03*
X181127000Y-78613000D03*
X181127000Y-80913000D03*
D13*
X187427000Y-78613000D03*
%TD*%
D14*
%TO.C,R22*%
X146913600Y-103920800D03*
X146913600Y-101920800D03*
%TD*%
D15*
%TO.C,R30*%
X157126914Y-85243200D03*
X157126914Y-87243200D03*
%TD*%
%TO.C,R1*%
X122072400Y-86579200D03*
X122072400Y-88579200D03*
%TD*%
D16*
%TO.C,C10*%
X142595600Y-88591300D03*
X142595600Y-86516300D03*
%TD*%
D15*
%TO.C,R8*%
X113020000Y-104537000D03*
X113020000Y-106537000D03*
%TD*%
D14*
%TO.C,R23*%
X169316400Y-109645200D03*
X169316400Y-107645200D03*
%TD*%
%TO.C,R19*%
X154533600Y-103920800D03*
X154533600Y-101920800D03*
%TD*%
D17*
%TO.C,U5*%
X184632600Y-95010200D03*
X183362600Y-95010200D03*
X182092600Y-95010200D03*
X180822600Y-95010200D03*
X180822600Y-99960200D03*
X182092600Y-99960200D03*
X183362600Y-99960200D03*
X184632600Y-99960200D03*
%TD*%
D18*
%TO.C,D14*%
X176871400Y-110550200D03*
X176871400Y-109280200D03*
X176871400Y-108010200D03*
X176871400Y-106740200D03*
X171921400Y-106740200D03*
X171921400Y-108010200D03*
X171921400Y-109280200D03*
X171921400Y-110550200D03*
%TD*%
D15*
%TO.C,R2*%
X134975600Y-86553800D03*
X134975600Y-88553800D03*
%TD*%
D16*
%TO.C,C15*%
X157073600Y-111578300D03*
X157073600Y-109503300D03*
%TD*%
D19*
%TO.C,R13*%
X125612400Y-83261200D03*
X123612400Y-83261200D03*
%TD*%
%TO.C,R15*%
X138515600Y-83235800D03*
X136515600Y-83235800D03*
%TD*%
D14*
%TO.C,R28*%
X171450000Y-82280000D03*
X171450000Y-80280000D03*
%TD*%
%TO.C,R26*%
X176530000Y-89900000D03*
X176530000Y-87900000D03*
%TD*%
D11*
%TO.C,R6*%
X135890000Y-114810000D03*
X135890000Y-108710000D03*
%TD*%
D20*
%TO.C,D5*%
X113030000Y-89945000D03*
X113030000Y-96745000D03*
%TD*%
D14*
%TO.C,R25*%
X176530000Y-85124800D03*
X176530000Y-83124800D03*
%TD*%
D21*
%TO.C,D10*%
X127152400Y-88604200D03*
X127152400Y-86554200D03*
%TD*%
D15*
%TO.C,R9*%
X113020000Y-100473000D03*
X113020000Y-102473000D03*
%TD*%
D21*
%TO.C,D9*%
X124612400Y-88604200D03*
X124612400Y-86554200D03*
%TD*%
D15*
%TO.C,R7*%
X118110000Y-104537000D03*
X118110000Y-106537000D03*
%TD*%
D14*
%TO.C,R20*%
X151993600Y-103920800D03*
X151993600Y-101920800D03*
%TD*%
D22*
%TO.C,C32*%
X173968500Y-80416400D03*
X176043500Y-80416400D03*
%TD*%
D23*
%TO.C,U4*%
X173857500Y-87310000D03*
X173857500Y-86360000D03*
X173857500Y-85410000D03*
X171582500Y-85410000D03*
X171582500Y-87310000D03*
%TD*%
D15*
%TO.C,R10*%
X118110000Y-100473000D03*
X118110000Y-102473000D03*
%TD*%
D17*
%TO.C,D13*%
X154533600Y-108065800D03*
X153263600Y-108065800D03*
X151993600Y-108065800D03*
X150723600Y-108065800D03*
X149453600Y-108065800D03*
X148183600Y-108065800D03*
X146913600Y-108065800D03*
X146913600Y-113015800D03*
X148183600Y-113015800D03*
X149453600Y-113015800D03*
X150723600Y-113015800D03*
X151993600Y-113015800D03*
X153263600Y-113015800D03*
X154533600Y-113015800D03*
%TD*%
D14*
%TO.C,R21*%
X149453600Y-103920800D03*
X149453600Y-101920800D03*
%TD*%
D20*
%TO.C,D7*%
X113030000Y-76610000D03*
X113030000Y-83410000D03*
%TD*%
D18*
%TO.C,D19*%
X176922200Y-98256600D03*
X176922200Y-96986600D03*
X176922200Y-95716600D03*
X176922200Y-94446600D03*
X171972200Y-94446600D03*
X171972200Y-95716600D03*
X171972200Y-96986600D03*
X171972200Y-98256600D03*
%TD*%
D16*
%TO.C,C8*%
X129692400Y-88616700D03*
X129692400Y-86541700D03*
%TD*%
D11*
%TO.C,R4*%
X124460000Y-114810000D03*
X124460000Y-108710000D03*
%TD*%
D14*
%TO.C,R29*%
X169367200Y-97351600D03*
X169367200Y-95351600D03*
%TD*%
D11*
%TO.C,R5*%
X140970000Y-114810000D03*
X140970000Y-108710000D03*
%TD*%
D21*
%TO.C,D11*%
X137515600Y-88578800D03*
X137515600Y-86528800D03*
%TD*%
D24*
%TO.C,J1*%
X161275000Y-108839000D03*
X165775001Y-107569000D03*
X161275000Y-106299000D03*
X165775001Y-105029000D03*
X161275000Y-103759000D03*
X165775001Y-102489000D03*
X161275000Y-101219000D03*
X165775001Y-99949000D03*
X161275000Y-98679000D03*
X165775001Y-97409000D03*
X161275000Y-96139000D03*
X165775001Y-94869000D03*
X161275000Y-93599000D03*
X165775001Y-92329000D03*
X161275000Y-91059000D03*
X165775001Y-89789000D03*
X161275000Y-88519000D03*
X165775001Y-87249000D03*
X161275000Y-85979000D03*
X165775001Y-84709000D03*
%TD*%
D19*
%TO.C,R27*%
X173372400Y-89535000D03*
X171372400Y-89535000D03*
%TD*%
D21*
%TO.C,D12*%
X140055600Y-88578800D03*
X140055600Y-86528800D03*
%TD*%
D10*
%TO.C,D2*%
X143002000Y-93775000D03*
X141732000Y-93775000D03*
X140462000Y-93775000D03*
X139192000Y-93775000D03*
X137922000Y-93775000D03*
X136652000Y-93775000D03*
X135382000Y-93775000D03*
X134112000Y-93775000D03*
X134112000Y-103075000D03*
X135382000Y-103075000D03*
X136652000Y-103075000D03*
X137922000Y-103075000D03*
X139192000Y-103075000D03*
X140462000Y-103075000D03*
X141732000Y-103075000D03*
X143002000Y-103075000D03*
%TD*%
M02*
