%TF.GenerationSoftware,KiCad,Pcbnew,(6.0.1)*%
%TF.CreationDate,2023-04-21T13:11:10+03:00*%
%TF.ProjectId,Driver_Inductor,44726976-6572-45f4-996e-647563746f72,rev?*%
%TF.SameCoordinates,Original*%
%TF.FileFunction,Copper,L5,Inr*%
%TF.FilePolarity,Positive*%
%FSLAX46Y46*%
G04 Gerber Fmt 4.6, Leading zero omitted, Abs format (unit mm)*
G04 Created by KiCad (PCBNEW (6.0.1)) date 2023-04-21 13:11:10*
%MOMM*%
%LPD*%
G01*
G04 APERTURE LIST*
%TA.AperFunction,ComponentPad*%
%ADD10C,10.000000*%
%TD*%
%TA.AperFunction,ComponentPad*%
%ADD11C,1.524000*%
%TD*%
%TA.AperFunction,ComponentPad*%
%ADD12C,3.000000*%
%TD*%
%TA.AperFunction,ComponentPad*%
%ADD13R,1.500000X2.300000*%
%TD*%
%TA.AperFunction,ComponentPad*%
%ADD14O,1.500000X2.300000*%
%TD*%
%TA.AperFunction,ComponentPad*%
%ADD15C,1.500000*%
%TD*%
%TA.AperFunction,ViaPad*%
%ADD16C,0.800000*%
%TD*%
G04 APERTURE END LIST*
D10*
%TO.N,OUT2_Sens*%
%TO.C,J5*%
X203200000Y-79970000D03*
D11*
X200152000Y-82510000D03*
X200406000Y-77176000D03*
X205994000Y-77176000D03*
X205994000Y-82510000D03*
X207010000Y-79970000D03*
X199390000Y-79970000D03*
X203200000Y-83780000D03*
X203200000Y-75906000D03*
%TD*%
D10*
%TO.N,OUT1*%
%TO.C,J4*%
X203200000Y-110490000D03*
D11*
X200152000Y-113030000D03*
X200406000Y-107696000D03*
X205994000Y-107696000D03*
X205994000Y-113030000D03*
X207010000Y-110490000D03*
X199390000Y-110490000D03*
X203200000Y-114300000D03*
X203200000Y-106426000D03*
%TD*%
D10*
%TO.N,Net-(D20-Pad27)*%
%TO.C,J3*%
X96520000Y-124460000D03*
D11*
X93472000Y-127000000D03*
X93726000Y-121666000D03*
X99314000Y-121666000D03*
X99314000Y-127000000D03*
X100330000Y-124460000D03*
X92710000Y-124460000D03*
X96520000Y-128270000D03*
X96520000Y-120396000D03*
%TD*%
D10*
%TO.N,DESAT_H*%
%TO.C,J2*%
X96520000Y-68199000D03*
D11*
X93472000Y-70739000D03*
X93726000Y-65405000D03*
X99314000Y-65405000D03*
X99314000Y-70739000D03*
X100330000Y-68199000D03*
X92710000Y-68199000D03*
X96520000Y-72009000D03*
X96520000Y-64135000D03*
%TD*%
D12*
%TO.N,Net-(D20-Pad1)*%
%TO.C,D20*%
X114572000Y-118232000D03*
X118382000Y-118232000D03*
%TO.N,G2*%
X126002000Y-118232000D03*
%TO.N,E2*%
X129812000Y-118232000D03*
%TO.N,G3*%
X137432000Y-118232000D03*
%TO.N,E3*%
X141242000Y-118232000D03*
%TO.N,Net-(D20-Pad7)*%
X148862000Y-118232000D03*
X152672000Y-118232000D03*
%TO.N,Net-(D20-Pad10)*%
X160292000Y-118232000D03*
X164102000Y-118232000D03*
%TO.N,Net-(D20-Pad11)*%
X171722000Y-118232000D03*
X175532000Y-118232000D03*
%TO.N,unconnected-(D20-Pad13)*%
X184652000Y-108712000D03*
%TO.N,unconnected-(D20-Pad14)*%
X184652000Y-104902000D03*
%TO.N,unconnected-(D20-Pad15)*%
X184652000Y-89662000D03*
%TO.N,unconnected-(D20-Pad16)*%
X184652000Y-85852000D03*
%TO.N,NTC1*%
X175532000Y-76332000D03*
%TO.N,NTC2*%
X171722000Y-76332000D03*
%TO.N,unconnected-(D20-Pad19)*%
X160292000Y-76332000D03*
%TO.N,unconnected-(D20-Pad20)*%
X156482000Y-76332000D03*
%TO.N,OUT2*%
X141242000Y-76332000D03*
X137432000Y-76332000D03*
%TO.N,OUT1*%
X122192000Y-76332000D03*
X118382000Y-76332000D03*
%TO.N,DESAT_H*%
X105452000Y-85852000D03*
X105452000Y-89662000D03*
%TO.N,Net-(D20-Pad27)*%
X105452000Y-104902000D03*
X105452000Y-108712000D03*
%TD*%
D13*
%TO.N,+15V*%
%TO.C,U1*%
X162217500Y-127254000D03*
D14*
%TO.N,GND*%
X164757500Y-127254000D03*
%TO.N,+3V3*%
X167297500Y-127254000D03*
%TD*%
D15*
%TO.N,GND*%
%TO.C,D16*%
X135928500Y-122758000D03*
%TO.N,+15V*%
X138468500Y-122758000D03*
%TO.N,unconnected-(D16-Pad3)*%
X141008500Y-122758000D03*
D11*
%TO.N,N/C*%
X146088500Y-122758000D03*
D15*
%TO.N,+15V_H1*%
X148628500Y-122758000D03*
%TO.N,E3*%
X151168500Y-122758000D03*
%TO.N,-15V_H1*%
X153708500Y-122758000D03*
%TD*%
D13*
%TO.N,+15V*%
%TO.C,U2*%
X176026500Y-127258500D03*
D14*
%TO.N,GND*%
X178566500Y-127258500D03*
%TO.N,+5V*%
X181106500Y-127258500D03*
%TD*%
D15*
%TO.N,GND*%
%TO.C,D15*%
X130937000Y-127179000D03*
%TO.N,+15V*%
X128397000Y-127179000D03*
%TO.N,unconnected-(D15-Pad3)*%
X125857000Y-127179000D03*
D11*
%TO.N,N/C*%
X120777000Y-127179000D03*
D15*
%TO.N,+15V_L1*%
X118237000Y-127179000D03*
%TO.N,E2*%
X115697000Y-127179000D03*
%TO.N,-15V_L1*%
X113157000Y-127179000D03*
%TD*%
D16*
%TO.N,OUT2_Sens*%
X203200000Y-69850000D03*
%TO.N,OUT1*%
X191770000Y-73660000D03*
X191770000Y-77470000D03*
X196850000Y-91440000D03*
X191770000Y-88900000D03*
X191770000Y-85090000D03*
X191770000Y-81280000D03*
X186690000Y-71120000D03*
X181610000Y-71120000D03*
X176530000Y-71120000D03*
X171450000Y-71120000D03*
X166370000Y-71120000D03*
X161290000Y-71120000D03*
%TO.N,OUT2_Sens*%
X203200000Y-74930000D03*
X207010000Y-74930000D03*
X207010000Y-69850000D03*
X207010000Y-66040000D03*
X201930000Y-63500000D03*
X196850000Y-63500000D03*
X191770000Y-63500000D03*
X186690000Y-63500000D03*
X181610000Y-63500000D03*
X176530000Y-63500000D03*
X171450000Y-63500000D03*
X166370000Y-63500000D03*
%TO.N,OUT1*%
X191770000Y-111760000D03*
X191770000Y-116840000D03*
X191770000Y-127000000D03*
X191770000Y-121920000D03*
X196850000Y-127000000D03*
X201930000Y-127000000D03*
X207010000Y-127000000D03*
X207010000Y-121920000D03*
X201930000Y-121920000D03*
X128270000Y-76200000D03*
%TO.N,+5V*%
X152781000Y-77851000D03*
%TO.N,Current*%
X150241000Y-77851000D03*
%TO.N,GND*%
X179679600Y-99898200D03*
X133985000Y-92075000D03*
X171907200Y-93303600D03*
X139065000Y-90006300D03*
X126365000Y-90031700D03*
X171856400Y-105470200D03*
X121285000Y-92075000D03*
X143383000Y-92075000D03*
X161290000Y-98679000D03*
X161290000Y-85979000D03*
X128676400Y-85039200D03*
X130683000Y-92075000D03*
X157073600Y-108000800D03*
X161290000Y-103759000D03*
X146304000Y-106172000D03*
X141833600Y-85013800D03*
X161290000Y-106299000D03*
X161290000Y-88519000D03*
X161290000Y-101219000D03*
%TO.N,Net-(C3-Pad2)*%
X120548400Y-88595200D03*
%TO.N,Net-(C4-Pad2)*%
X133451600Y-88569800D03*
%TO.N,Net-(C5-Pad1)*%
X135382000Y-104775000D03*
X113030000Y-107823000D03*
%TO.N,Net-(C6-Pad1)*%
X118110000Y-107823000D03*
X122682000Y-104775000D03*
%TO.N,E2*%
X123952000Y-104775000D03*
%TO.N,FLT_L1*%
X151993600Y-100634800D03*
X127152400Y-83261200D03*
X125222000Y-92075000D03*
%TO.N,RDY_L1*%
X131216400Y-88595200D03*
X146913600Y-100330000D03*
%TO.N,FLT_H1*%
X140055600Y-83235800D03*
X137922000Y-90043000D03*
X152019000Y-98552000D03*
X137922000Y-92075000D03*
%TO.N,RDY_H1*%
X144119600Y-88569800D03*
%TO.N,Net-(C11-Pad1)*%
X154533600Y-105562400D03*
%TO.N,Net-(C12-Pad1)*%
X148932900Y-105575100D03*
%TO.N,Net-(C13-Pad1)*%
X153263600Y-105562400D03*
%TO.N,Net-(C14-Pad1)*%
X150723600Y-105562400D03*
%TO.N,+15V*%
X165735000Y-105029000D03*
X165735000Y-99949000D03*
X165735000Y-97409000D03*
X165735000Y-102489000D03*
%TO.N,+15V_L1*%
X120269000Y-121793000D03*
X126492000Y-104775000D03*
%TO.N,-15V_L1*%
X130429000Y-104775000D03*
X111633000Y-121793000D03*
X121412537Y-104745642D03*
%TO.N,+15V_H1*%
X146431000Y-128270000D03*
X139192000Y-104775000D03*
%TO.N,-15V_H1*%
X134112000Y-104775000D03*
X177546000Y-80416400D03*
X175361600Y-86360000D03*
X143637000Y-104775000D03*
X176530000Y-91313000D03*
X180975000Y-93345000D03*
X179197000Y-76327000D03*
X155829000Y-128270000D03*
%TO.N,Current*%
X165862000Y-84709000D03*
%TO.N,+3.3VA*%
X179197000Y-78613000D03*
X170307000Y-86741000D03*
X185521600Y-94945200D03*
X174955200Y-83108800D03*
%TO.N,Net-(C33-Pad1)*%
X173857500Y-88270500D03*
%TO.N,Net-(C33-Pad2)*%
X169545000Y-88900000D03*
%TO.N,PWM2_P*%
X161290000Y-91059000D03*
X129159000Y-92075000D03*
%TO.N,PWM2_N*%
X127889000Y-92075000D03*
X165775001Y-89789000D03*
%TO.N,PWM1_P*%
X161290000Y-93599000D03*
X141859000Y-92075000D03*
%TO.N,PWM1_N*%
X140589000Y-92075000D03*
X165735000Y-92329000D03*
%TO.N,Net-(D9-Pad2)*%
X124612400Y-85039200D03*
%TO.N,Net-(D10-Pad2)*%
X127152400Y-85039200D03*
%TO.N,Net-(D11-Pad2)*%
X137515600Y-85013800D03*
%TO.N,Net-(D12-Pad2)*%
X140055600Y-85013800D03*
%TO.N,+3V3*%
X146177000Y-85217000D03*
X143357600Y-85013800D03*
X122809000Y-92075000D03*
X174396400Y-111058200D03*
X174447200Y-98637600D03*
X135509000Y-92075000D03*
X185547000Y-100457000D03*
X130454400Y-85039200D03*
%TO.N,RST_H1*%
X146202400Y-87274400D03*
X122072400Y-85039200D03*
X134975600Y-85013800D03*
%TO.N,Net-(C37-Pad1)*%
X157124400Y-83972400D03*
%TO.N,E3*%
X136652000Y-104775000D03*
X179197000Y-80899000D03*
%TO.N,OUT1*%
X120650000Y-66040000D03*
X120650000Y-71120000D03*
X207010000Y-101600000D03*
X196850000Y-106680000D03*
X207010000Y-116840000D03*
X124460000Y-66040000D03*
X124460000Y-71120000D03*
X196850000Y-116840000D03*
X207010000Y-91440000D03*
X128270000Y-71120000D03*
X128270000Y-66040000D03*
X201930000Y-96520000D03*
X196850000Y-121920000D03*
X207010000Y-96520000D03*
X201930000Y-101600000D03*
X201930000Y-91440000D03*
%TD*%
%TA.AperFunction,Conductor*%
%TO.N,-15V_H1*%
G36*
X169806770Y-75458002D02*
G01*
X169853263Y-75511658D01*
X169863367Y-75581932D01*
X169855434Y-75611299D01*
X169814552Y-75712232D01*
X169746255Y-75987177D01*
X169745801Y-75991605D01*
X169745801Y-75991607D01*
X169739879Y-76049407D01*
X169717380Y-76269002D01*
X169728502Y-76552084D01*
X169779400Y-76830775D01*
X169869058Y-77099514D01*
X169871050Y-77103501D01*
X169871051Y-77103503D01*
X169952449Y-77266405D01*
X169995687Y-77352939D01*
X170156761Y-77585993D01*
X170349065Y-77794027D01*
X170352519Y-77796839D01*
X170565307Y-77970075D01*
X170565311Y-77970078D01*
X170568764Y-77972889D01*
X170811472Y-78119012D01*
X170815567Y-78120746D01*
X170815569Y-78120747D01*
X171068247Y-78227742D01*
X171068254Y-78227744D01*
X171072348Y-78229478D01*
X171153522Y-78251001D01*
X171341889Y-78300946D01*
X171341893Y-78300947D01*
X171346186Y-78302085D01*
X171350595Y-78302607D01*
X171350601Y-78302608D01*
X171507954Y-78321232D01*
X171627523Y-78335384D01*
X171910745Y-78328709D01*
X171915143Y-78327977D01*
X172185810Y-78282926D01*
X172185814Y-78282925D01*
X172190200Y-78282195D01*
X172194441Y-78280854D01*
X172194444Y-78280853D01*
X172456068Y-78198112D01*
X172456070Y-78198111D01*
X172460314Y-78196769D01*
X172464325Y-78194843D01*
X172464330Y-78194841D01*
X172711678Y-78076066D01*
X172711679Y-78076065D01*
X172715697Y-78074136D01*
X172863781Y-77975190D01*
X172947545Y-77919221D01*
X172947549Y-77919218D01*
X172951253Y-77916743D01*
X173162281Y-77727730D01*
X173344573Y-77510868D01*
X173494489Y-77270485D01*
X173512967Y-77228689D01*
X173558803Y-77174474D01*
X173626676Y-77153646D01*
X173695034Y-77172820D01*
X173740919Y-77223318D01*
X173762449Y-77266405D01*
X173805687Y-77352939D01*
X173966761Y-77585993D01*
X174159065Y-77794027D01*
X174162519Y-77796839D01*
X174375307Y-77970075D01*
X174375311Y-77970078D01*
X174378764Y-77972889D01*
X174621472Y-78119012D01*
X174625567Y-78120746D01*
X174625569Y-78120747D01*
X174878247Y-78227742D01*
X174878254Y-78227744D01*
X174882348Y-78229478D01*
X174963522Y-78251001D01*
X175151889Y-78300946D01*
X175151893Y-78300947D01*
X175156186Y-78302085D01*
X175160595Y-78302607D01*
X175160601Y-78302608D01*
X175317954Y-78321232D01*
X175437523Y-78335384D01*
X175720745Y-78328709D01*
X175725143Y-78327977D01*
X175995810Y-78282926D01*
X175995814Y-78282925D01*
X176000200Y-78282195D01*
X176004441Y-78280854D01*
X176004444Y-78280853D01*
X176266068Y-78198112D01*
X176266070Y-78198111D01*
X176270314Y-78196769D01*
X176274325Y-78194843D01*
X176274330Y-78194841D01*
X176521678Y-78076066D01*
X176521679Y-78076065D01*
X176525697Y-78074136D01*
X176673781Y-77975190D01*
X176757545Y-77919221D01*
X176757549Y-77919218D01*
X176761253Y-77916743D01*
X176972281Y-77727730D01*
X177154573Y-77510868D01*
X177304489Y-77270485D01*
X177419040Y-77011376D01*
X177495939Y-76738712D01*
X177533652Y-76457933D01*
X177537610Y-76332000D01*
X177517601Y-76049407D01*
X177504204Y-75987177D01*
X177458911Y-75776800D01*
X177458911Y-75776798D01*
X177457975Y-75772453D01*
X177456437Y-75768283D01*
X177456434Y-75768274D01*
X177397162Y-75607610D01*
X177392350Y-75536777D01*
X177426597Y-75474587D01*
X177489031Y-75440785D01*
X177515374Y-75438000D01*
X180849000Y-75438000D01*
X180917121Y-75458002D01*
X180963614Y-75511658D01*
X180975000Y-75564000D01*
X180975000Y-125503035D01*
X180954998Y-125571156D01*
X180901342Y-125617649D01*
X180864140Y-125628122D01*
X180851025Y-125629709D01*
X180851024Y-125629709D01*
X180845456Y-125630383D01*
X180632100Y-125696019D01*
X180627110Y-125698595D01*
X180627109Y-125698595D01*
X180442459Y-125793901D01*
X180433741Y-125798401D01*
X180429299Y-125801810D01*
X180429295Y-125801812D01*
X180324591Y-125882154D01*
X180256646Y-125934290D01*
X180106414Y-126099393D01*
X179987793Y-126288490D01*
X179985699Y-126293700D01*
X179985695Y-126293707D01*
X179954165Y-126372140D01*
X179910199Y-126427885D01*
X179843074Y-126451010D01*
X179774102Y-126434173D01*
X179723532Y-126379388D01*
X179720075Y-126372140D01*
X179647208Y-126219371D01*
X179516948Y-126038095D01*
X179406311Y-125930880D01*
X179360674Y-125886654D01*
X179360671Y-125886652D01*
X179356646Y-125882751D01*
X179171368Y-125758250D01*
X179155969Y-125751490D01*
X179025219Y-125694095D01*
X178966971Y-125668526D01*
X178961523Y-125667218D01*
X178961517Y-125667216D01*
X178755372Y-125617725D01*
X178755371Y-125617725D01*
X178749915Y-125616415D01*
X178641238Y-125610149D01*
X178532669Y-125603889D01*
X178532666Y-125603889D01*
X178527062Y-125603566D01*
X178305456Y-125630383D01*
X178092100Y-125696019D01*
X178087110Y-125698595D01*
X178087109Y-125698595D01*
X177902459Y-125793901D01*
X177893741Y-125798401D01*
X177889299Y-125801810D01*
X177889295Y-125801812D01*
X177784591Y-125882154D01*
X177716646Y-125934290D01*
X177566414Y-126099393D01*
X177551738Y-126122789D01*
X177509736Y-126189745D01*
X177456593Y-126236823D01*
X177386433Y-126247695D01*
X177321534Y-126218911D01*
X177282499Y-126159608D01*
X177276999Y-126122789D01*
X177276999Y-126061124D01*
X177276630Y-126057724D01*
X177271205Y-126007778D01*
X177271204Y-126007774D01*
X177270351Y-125999920D01*
X177220026Y-125865676D01*
X177214646Y-125858497D01*
X177214644Y-125858494D01*
X177139428Y-125758135D01*
X177134046Y-125750954D01*
X177120861Y-125741072D01*
X177026506Y-125670356D01*
X177026503Y-125670354D01*
X177019324Y-125664974D01*
X176913249Y-125625209D01*
X176892475Y-125617421D01*
X176892473Y-125617421D01*
X176885080Y-125614649D01*
X176877230Y-125613796D01*
X176877229Y-125613796D01*
X176827274Y-125608369D01*
X176827273Y-125608369D01*
X176823877Y-125608000D01*
X176026617Y-125608000D01*
X175229124Y-125608001D01*
X175225730Y-125608370D01*
X175225724Y-125608370D01*
X175175778Y-125613795D01*
X175175774Y-125613796D01*
X175167920Y-125614649D01*
X175033676Y-125664974D01*
X175026497Y-125670354D01*
X175026494Y-125670356D01*
X174932139Y-125741072D01*
X174918954Y-125750954D01*
X174913572Y-125758135D01*
X174838356Y-125858494D01*
X174838354Y-125858497D01*
X174832974Y-125865676D01*
X174782649Y-125999920D01*
X174776000Y-126061123D01*
X174776001Y-128455876D01*
X174776370Y-128459270D01*
X174776370Y-128459276D01*
X174781307Y-128504722D01*
X174782649Y-128517080D01*
X174832974Y-128651324D01*
X174838354Y-128658503D01*
X174838356Y-128658506D01*
X174911807Y-128756510D01*
X174918954Y-128766046D01*
X174926135Y-128771428D01*
X175026494Y-128846644D01*
X175026497Y-128846646D01*
X175033676Y-128852026D01*
X175109544Y-128880467D01*
X175160525Y-128899579D01*
X175160527Y-128899579D01*
X175167920Y-128902351D01*
X175175770Y-128903204D01*
X175175771Y-128903204D01*
X175187701Y-128904500D01*
X175229123Y-128909000D01*
X176026383Y-128909000D01*
X176823876Y-128908999D01*
X176827270Y-128908630D01*
X176827276Y-128908630D01*
X176877222Y-128903205D01*
X176877226Y-128903204D01*
X176885080Y-128902351D01*
X177019324Y-128852026D01*
X177026503Y-128846646D01*
X177026506Y-128846644D01*
X177126865Y-128771428D01*
X177134046Y-128766046D01*
X177141193Y-128756510D01*
X177214644Y-128658506D01*
X177214646Y-128658503D01*
X177220026Y-128651324D01*
X177270351Y-128517080D01*
X177277000Y-128455877D01*
X177277000Y-128398335D01*
X177297002Y-128330214D01*
X177350658Y-128283721D01*
X177420932Y-128273617D01*
X177485512Y-128303111D01*
X177505322Y-128324808D01*
X177616052Y-128478905D01*
X177663083Y-128524481D01*
X177767683Y-128625846D01*
X177776354Y-128634249D01*
X177961632Y-128758750D01*
X177966778Y-128761009D01*
X177966780Y-128761010D01*
X177980262Y-128766928D01*
X178166029Y-128848474D01*
X178171477Y-128849782D01*
X178171483Y-128849784D01*
X178377628Y-128899275D01*
X178377629Y-128899275D01*
X178383085Y-128900585D01*
X178450987Y-128904500D01*
X178600331Y-128913111D01*
X178600334Y-128913111D01*
X178605938Y-128913434D01*
X178827544Y-128886617D01*
X179040900Y-128820981D01*
X179049619Y-128816481D01*
X179234274Y-128721172D01*
X179239259Y-128718599D01*
X179243701Y-128715190D01*
X179243705Y-128715188D01*
X179411910Y-128586120D01*
X179416354Y-128582710D01*
X179566586Y-128417607D01*
X179685207Y-128228510D01*
X179687301Y-128223300D01*
X179687305Y-128223293D01*
X179718835Y-128144860D01*
X179762801Y-128089115D01*
X179829926Y-128065990D01*
X179898898Y-128082827D01*
X179949468Y-128137612D01*
X180025792Y-128297629D01*
X180156052Y-128478905D01*
X180203083Y-128524481D01*
X180307683Y-128625846D01*
X180316354Y-128634249D01*
X180501632Y-128758750D01*
X180506778Y-128761009D01*
X180506780Y-128761010D01*
X180520262Y-128766928D01*
X180706029Y-128848474D01*
X180878415Y-128889861D01*
X180939983Y-128925212D01*
X180972666Y-128988239D01*
X180975000Y-129012379D01*
X180975000Y-129160000D01*
X180954998Y-129228121D01*
X180901342Y-129274614D01*
X180849000Y-129286000D01*
X156845000Y-129286000D01*
X156845000Y-126056623D01*
X160967000Y-126056623D01*
X160967001Y-128451376D01*
X160967370Y-128454770D01*
X160967370Y-128454776D01*
X160970416Y-128482812D01*
X160973649Y-128512580D01*
X161023974Y-128646824D01*
X161029354Y-128654003D01*
X161029356Y-128654006D01*
X161104486Y-128754250D01*
X161109954Y-128761546D01*
X161117135Y-128766928D01*
X161217494Y-128842144D01*
X161217497Y-128842146D01*
X161224676Y-128847526D01*
X161312547Y-128880467D01*
X161351525Y-128895079D01*
X161351527Y-128895079D01*
X161358920Y-128897851D01*
X161366770Y-128898704D01*
X161366771Y-128898704D01*
X161416717Y-128904130D01*
X161420123Y-128904500D01*
X162217383Y-128904500D01*
X163014876Y-128904499D01*
X163018270Y-128904130D01*
X163018276Y-128904130D01*
X163068222Y-128898705D01*
X163068226Y-128898704D01*
X163076080Y-128897851D01*
X163210324Y-128847526D01*
X163217503Y-128842146D01*
X163217506Y-128842144D01*
X163317865Y-128766928D01*
X163325046Y-128761546D01*
X163330514Y-128754250D01*
X163405644Y-128654006D01*
X163405646Y-128654003D01*
X163411026Y-128646824D01*
X163461351Y-128512580D01*
X163468000Y-128451377D01*
X163468000Y-128393835D01*
X163488002Y-128325714D01*
X163541658Y-128279221D01*
X163611932Y-128269117D01*
X163676512Y-128298611D01*
X163696322Y-128320308D01*
X163807052Y-128474405D01*
X163854083Y-128519981D01*
X163922333Y-128586120D01*
X163967354Y-128629749D01*
X164152632Y-128754250D01*
X164157778Y-128756509D01*
X164157780Y-128756510D01*
X164238970Y-128792150D01*
X164357029Y-128843974D01*
X164362477Y-128845282D01*
X164362483Y-128845284D01*
X164568628Y-128894775D01*
X164568629Y-128894775D01*
X164574085Y-128896085D01*
X164652133Y-128900585D01*
X164791331Y-128908611D01*
X164791334Y-128908611D01*
X164796938Y-128908934D01*
X165018544Y-128882117D01*
X165231900Y-128816481D01*
X165319188Y-128771428D01*
X165425274Y-128716672D01*
X165430259Y-128714099D01*
X165434701Y-128710690D01*
X165434705Y-128710688D01*
X165602910Y-128581620D01*
X165607354Y-128578210D01*
X165757586Y-128413107D01*
X165876207Y-128224010D01*
X165878301Y-128218800D01*
X165878305Y-128218793D01*
X165909835Y-128140360D01*
X165953801Y-128084615D01*
X166020926Y-128061490D01*
X166089898Y-128078327D01*
X166140468Y-128133112D01*
X166216792Y-128293129D01*
X166347052Y-128474405D01*
X166394083Y-128519981D01*
X166462333Y-128586120D01*
X166507354Y-128629749D01*
X166692632Y-128754250D01*
X166697778Y-128756509D01*
X166697780Y-128756510D01*
X166778970Y-128792150D01*
X166897029Y-128843974D01*
X166902477Y-128845282D01*
X166902483Y-128845284D01*
X167108628Y-128894775D01*
X167108629Y-128894775D01*
X167114085Y-128896085D01*
X167192133Y-128900585D01*
X167331331Y-128908611D01*
X167331334Y-128908611D01*
X167336938Y-128908934D01*
X167558544Y-128882117D01*
X167771900Y-128816481D01*
X167859188Y-128771428D01*
X167965274Y-128716672D01*
X167970259Y-128714099D01*
X167974701Y-128710690D01*
X167974705Y-128710688D01*
X168142910Y-128581620D01*
X168147354Y-128578210D01*
X168297586Y-128413107D01*
X168416207Y-128224010D01*
X168499466Y-128016895D01*
X168544733Y-127798310D01*
X168548000Y-127741651D01*
X168548000Y-126797370D01*
X168545232Y-126766349D01*
X168533710Y-126637256D01*
X168533211Y-126631661D01*
X168474308Y-126416349D01*
X168453222Y-126372140D01*
X168411053Y-126283732D01*
X168378208Y-126214871D01*
X168247948Y-126033595D01*
X168137311Y-125926380D01*
X168091674Y-125882154D01*
X168091671Y-125882152D01*
X168087646Y-125878251D01*
X167902368Y-125753750D01*
X167885748Y-125746454D01*
X167756843Y-125689869D01*
X167697971Y-125664026D01*
X167692523Y-125662718D01*
X167692517Y-125662716D01*
X167486372Y-125613225D01*
X167486371Y-125613225D01*
X167480915Y-125611915D01*
X167396697Y-125607059D01*
X167263669Y-125599389D01*
X167263666Y-125599389D01*
X167258062Y-125599066D01*
X167036456Y-125625883D01*
X166823100Y-125691519D01*
X166818110Y-125694095D01*
X166818109Y-125694095D01*
X166716667Y-125746454D01*
X166624741Y-125793901D01*
X166620299Y-125797310D01*
X166620295Y-125797312D01*
X166514813Y-125878251D01*
X166447646Y-125929790D01*
X166297414Y-126094893D01*
X166178793Y-126283990D01*
X166176699Y-126289200D01*
X166176695Y-126289207D01*
X166145165Y-126367640D01*
X166101199Y-126423385D01*
X166034074Y-126446510D01*
X165965102Y-126429673D01*
X165914532Y-126374888D01*
X165871053Y-126283732D01*
X165838208Y-126214871D01*
X165707948Y-126033595D01*
X165597311Y-125926380D01*
X165551674Y-125882154D01*
X165551671Y-125882152D01*
X165547646Y-125878251D01*
X165362368Y-125753750D01*
X165345748Y-125746454D01*
X165216843Y-125689869D01*
X165157971Y-125664026D01*
X165152523Y-125662718D01*
X165152517Y-125662716D01*
X164946372Y-125613225D01*
X164946371Y-125613225D01*
X164940915Y-125611915D01*
X164856697Y-125607059D01*
X164723669Y-125599389D01*
X164723666Y-125599389D01*
X164718062Y-125599066D01*
X164496456Y-125625883D01*
X164283100Y-125691519D01*
X164278110Y-125694095D01*
X164278109Y-125694095D01*
X164176667Y-125746454D01*
X164084741Y-125793901D01*
X164080299Y-125797310D01*
X164080295Y-125797312D01*
X163974813Y-125878251D01*
X163907646Y-125929790D01*
X163757414Y-126094893D01*
X163754432Y-126099647D01*
X163700736Y-126185245D01*
X163647593Y-126232323D01*
X163577433Y-126243195D01*
X163512534Y-126214411D01*
X163473499Y-126155108D01*
X163467999Y-126118289D01*
X163467999Y-126056624D01*
X163465993Y-126038154D01*
X163462205Y-126003278D01*
X163462204Y-126003274D01*
X163461351Y-125995420D01*
X163411026Y-125861176D01*
X163405646Y-125853997D01*
X163405644Y-125853994D01*
X163330428Y-125753635D01*
X163325046Y-125746454D01*
X163317865Y-125741072D01*
X163217506Y-125665856D01*
X163217503Y-125665854D01*
X163210324Y-125660474D01*
X163116253Y-125625209D01*
X163083475Y-125612921D01*
X163083473Y-125612921D01*
X163076080Y-125610149D01*
X163068230Y-125609296D01*
X163068229Y-125609296D01*
X163018274Y-125603869D01*
X163018273Y-125603869D01*
X163014877Y-125603500D01*
X162217617Y-125603500D01*
X161420124Y-125603501D01*
X161416730Y-125603870D01*
X161416724Y-125603870D01*
X161366778Y-125609295D01*
X161366774Y-125609296D01*
X161358920Y-125610149D01*
X161224676Y-125660474D01*
X161217497Y-125665854D01*
X161217494Y-125665856D01*
X161117135Y-125741072D01*
X161109954Y-125746454D01*
X161104572Y-125753635D01*
X161029356Y-125853994D01*
X161029354Y-125853997D01*
X161023974Y-125861176D01*
X160973649Y-125995420D01*
X160967000Y-126056623D01*
X156845000Y-126056623D01*
X156845000Y-118169002D01*
X158287380Y-118169002D01*
X158298502Y-118452084D01*
X158349400Y-118730775D01*
X158439058Y-118999514D01*
X158441050Y-119003501D01*
X158441051Y-119003503D01*
X158522449Y-119166405D01*
X158565687Y-119252939D01*
X158726761Y-119485993D01*
X158919065Y-119694027D01*
X158922519Y-119696839D01*
X159135307Y-119870075D01*
X159135311Y-119870078D01*
X159138764Y-119872889D01*
X159381472Y-120019012D01*
X159385567Y-120020746D01*
X159385569Y-120020747D01*
X159638247Y-120127742D01*
X159638254Y-120127744D01*
X159642348Y-120129478D01*
X159742492Y-120156031D01*
X159911889Y-120200946D01*
X159911893Y-120200947D01*
X159916186Y-120202085D01*
X159920595Y-120202607D01*
X159920601Y-120202608D01*
X160077954Y-120221232D01*
X160197523Y-120235384D01*
X160480745Y-120228709D01*
X160485143Y-120227977D01*
X160755810Y-120182926D01*
X160755814Y-120182925D01*
X160760200Y-120182195D01*
X160764441Y-120180854D01*
X160764444Y-120180853D01*
X161026068Y-120098112D01*
X161026070Y-120098111D01*
X161030314Y-120096769D01*
X161034325Y-120094843D01*
X161034330Y-120094841D01*
X161281678Y-119976066D01*
X161281679Y-119976065D01*
X161285697Y-119974136D01*
X161433781Y-119875190D01*
X161517545Y-119819221D01*
X161517549Y-119819218D01*
X161521253Y-119816743D01*
X161732281Y-119627730D01*
X161914573Y-119410868D01*
X162064489Y-119170485D01*
X162082967Y-119128689D01*
X162128803Y-119074474D01*
X162196676Y-119053646D01*
X162265034Y-119072820D01*
X162310919Y-119123318D01*
X162332449Y-119166405D01*
X162375687Y-119252939D01*
X162536761Y-119485993D01*
X162729065Y-119694027D01*
X162732519Y-119696839D01*
X162945307Y-119870075D01*
X162945311Y-119870078D01*
X162948764Y-119872889D01*
X163191472Y-120019012D01*
X163195567Y-120020746D01*
X163195569Y-120020747D01*
X163448247Y-120127742D01*
X163448254Y-120127744D01*
X163452348Y-120129478D01*
X163552492Y-120156031D01*
X163721889Y-120200946D01*
X163721893Y-120200947D01*
X163726186Y-120202085D01*
X163730595Y-120202607D01*
X163730601Y-120202608D01*
X163887954Y-120221232D01*
X164007523Y-120235384D01*
X164290745Y-120228709D01*
X164295143Y-120227977D01*
X164565810Y-120182926D01*
X164565814Y-120182925D01*
X164570200Y-120182195D01*
X164574441Y-120180854D01*
X164574444Y-120180853D01*
X164836068Y-120098112D01*
X164836070Y-120098111D01*
X164840314Y-120096769D01*
X164844325Y-120094843D01*
X164844330Y-120094841D01*
X165091678Y-119976066D01*
X165091679Y-119976065D01*
X165095697Y-119974136D01*
X165243781Y-119875190D01*
X165327545Y-119819221D01*
X165327549Y-119819218D01*
X165331253Y-119816743D01*
X165542281Y-119627730D01*
X165724573Y-119410868D01*
X165874489Y-119170485D01*
X165989040Y-118911376D01*
X166065939Y-118638712D01*
X166103652Y-118357933D01*
X166107610Y-118232000D01*
X166103149Y-118169002D01*
X169717380Y-118169002D01*
X169728502Y-118452084D01*
X169779400Y-118730775D01*
X169869058Y-118999514D01*
X169871050Y-119003501D01*
X169871051Y-119003503D01*
X169952449Y-119166405D01*
X169995687Y-119252939D01*
X170156761Y-119485993D01*
X170349065Y-119694027D01*
X170352519Y-119696839D01*
X170565307Y-119870075D01*
X170565311Y-119870078D01*
X170568764Y-119872889D01*
X170811472Y-120019012D01*
X170815567Y-120020746D01*
X170815569Y-120020747D01*
X171068247Y-120127742D01*
X171068254Y-120127744D01*
X171072348Y-120129478D01*
X171172492Y-120156031D01*
X171341889Y-120200946D01*
X171341893Y-120200947D01*
X171346186Y-120202085D01*
X171350595Y-120202607D01*
X171350601Y-120202608D01*
X171507954Y-120221232D01*
X171627523Y-120235384D01*
X171910745Y-120228709D01*
X171915143Y-120227977D01*
X172185810Y-120182926D01*
X172185814Y-120182925D01*
X172190200Y-120182195D01*
X172194441Y-120180854D01*
X172194444Y-120180853D01*
X172456068Y-120098112D01*
X172456070Y-120098111D01*
X172460314Y-120096769D01*
X172464325Y-120094843D01*
X172464330Y-120094841D01*
X172711678Y-119976066D01*
X172711679Y-119976065D01*
X172715697Y-119974136D01*
X172863781Y-119875190D01*
X172947545Y-119819221D01*
X172947549Y-119819218D01*
X172951253Y-119816743D01*
X173162281Y-119627730D01*
X173344573Y-119410868D01*
X173494489Y-119170485D01*
X173512967Y-119128689D01*
X173558803Y-119074474D01*
X173626676Y-119053646D01*
X173695034Y-119072820D01*
X173740919Y-119123318D01*
X173762449Y-119166405D01*
X173805687Y-119252939D01*
X173966761Y-119485993D01*
X174159065Y-119694027D01*
X174162519Y-119696839D01*
X174375307Y-119870075D01*
X174375311Y-119870078D01*
X174378764Y-119872889D01*
X174621472Y-120019012D01*
X174625567Y-120020746D01*
X174625569Y-120020747D01*
X174878247Y-120127742D01*
X174878254Y-120127744D01*
X174882348Y-120129478D01*
X174982492Y-120156031D01*
X175151889Y-120200946D01*
X175151893Y-120200947D01*
X175156186Y-120202085D01*
X175160595Y-120202607D01*
X175160601Y-120202608D01*
X175317954Y-120221232D01*
X175437523Y-120235384D01*
X175720745Y-120228709D01*
X175725143Y-120227977D01*
X175995810Y-120182926D01*
X175995814Y-120182925D01*
X176000200Y-120182195D01*
X176004441Y-120180854D01*
X176004444Y-120180853D01*
X176266068Y-120098112D01*
X176266070Y-120098111D01*
X176270314Y-120096769D01*
X176274325Y-120094843D01*
X176274330Y-120094841D01*
X176521678Y-119976066D01*
X176521679Y-119976065D01*
X176525697Y-119974136D01*
X176673781Y-119875190D01*
X176757545Y-119819221D01*
X176757549Y-119819218D01*
X176761253Y-119816743D01*
X176972281Y-119627730D01*
X177154573Y-119410868D01*
X177304489Y-119170485D01*
X177419040Y-118911376D01*
X177495939Y-118638712D01*
X177533652Y-118357933D01*
X177537610Y-118232000D01*
X177517601Y-117949407D01*
X177504204Y-117887177D01*
X177458911Y-117676800D01*
X177458911Y-117676798D01*
X177457975Y-117672453D01*
X177359920Y-117406663D01*
X177326159Y-117344092D01*
X177227506Y-117161256D01*
X177225393Y-117157340D01*
X177057078Y-116929460D01*
X177010554Y-116882199D01*
X176861465Y-116730751D01*
X176858334Y-116727570D01*
X176854794Y-116724869D01*
X176854788Y-116724863D01*
X176636667Y-116558398D01*
X176636663Y-116558395D01*
X176633126Y-116555696D01*
X176569179Y-116519884D01*
X176389837Y-116419448D01*
X176389832Y-116419445D01*
X176385947Y-116417270D01*
X176381789Y-116415662D01*
X176381784Y-116415659D01*
X176125885Y-116316659D01*
X176125879Y-116316657D01*
X176121730Y-116315052D01*
X176117398Y-116314048D01*
X176117395Y-116314047D01*
X176042141Y-116296604D01*
X175845747Y-116251082D01*
X175563503Y-116226637D01*
X175559068Y-116226881D01*
X175559064Y-116226881D01*
X175285073Y-116241960D01*
X175285066Y-116241961D01*
X175280630Y-116242205D01*
X175142743Y-116269632D01*
X175007146Y-116296604D01*
X175007141Y-116296605D01*
X175002774Y-116297474D01*
X174998571Y-116298950D01*
X174739684Y-116389864D01*
X174739681Y-116389865D01*
X174735476Y-116391342D01*
X174731523Y-116393395D01*
X174731517Y-116393398D01*
X174589135Y-116467360D01*
X174484072Y-116521936D01*
X174480457Y-116524519D01*
X174480451Y-116524523D01*
X174433048Y-116558398D01*
X174253576Y-116686651D01*
X174250349Y-116689729D01*
X174250347Y-116689731D01*
X174210682Y-116727570D01*
X174048588Y-116882199D01*
X173873199Y-117104680D01*
X173734138Y-117344092D01*
X173682627Y-117392951D01*
X173612879Y-117406205D01*
X173547037Y-117379646D01*
X173514296Y-117340639D01*
X173417506Y-117161256D01*
X173415393Y-117157340D01*
X173247078Y-116929460D01*
X173200554Y-116882199D01*
X173051465Y-116730751D01*
X173048334Y-116727570D01*
X173044794Y-116724869D01*
X173044788Y-116724863D01*
X172826667Y-116558398D01*
X172826663Y-116558395D01*
X172823126Y-116555696D01*
X172759179Y-116519884D01*
X172579837Y-116419448D01*
X172579832Y-116419445D01*
X172575947Y-116417270D01*
X172571789Y-116415662D01*
X172571784Y-116415659D01*
X172315885Y-116316659D01*
X172315879Y-116316657D01*
X172311730Y-116315052D01*
X172307398Y-116314048D01*
X172307395Y-116314047D01*
X172232141Y-116296604D01*
X172035747Y-116251082D01*
X171753503Y-116226637D01*
X171749068Y-116226881D01*
X171749064Y-116226881D01*
X171475073Y-116241960D01*
X171475066Y-116241961D01*
X171470630Y-116242205D01*
X171332743Y-116269632D01*
X171197146Y-116296604D01*
X171197141Y-116296605D01*
X171192774Y-116297474D01*
X171188571Y-116298950D01*
X170929684Y-116389864D01*
X170929681Y-116389865D01*
X170925476Y-116391342D01*
X170921523Y-116393395D01*
X170921517Y-116393398D01*
X170779135Y-116467360D01*
X170674072Y-116521936D01*
X170670457Y-116524519D01*
X170670451Y-116524523D01*
X170623048Y-116558398D01*
X170443576Y-116686651D01*
X170440349Y-116689729D01*
X170440347Y-116689731D01*
X170400682Y-116727570D01*
X170238588Y-116882199D01*
X170063199Y-117104680D01*
X170032612Y-117157340D01*
X169923141Y-117345807D01*
X169923138Y-117345813D01*
X169920907Y-117349654D01*
X169814552Y-117612232D01*
X169813481Y-117616545D01*
X169813479Y-117616550D01*
X169799593Y-117672453D01*
X169746255Y-117887177D01*
X169745801Y-117891605D01*
X169745801Y-117891607D01*
X169739879Y-117949407D01*
X169717380Y-118169002D01*
X166103149Y-118169002D01*
X166087601Y-117949407D01*
X166074204Y-117887177D01*
X166028911Y-117676800D01*
X166028911Y-117676798D01*
X166027975Y-117672453D01*
X165929920Y-117406663D01*
X165896159Y-117344092D01*
X165797506Y-117161256D01*
X165795393Y-117157340D01*
X165627078Y-116929460D01*
X165580554Y-116882199D01*
X165431465Y-116730751D01*
X165428334Y-116727570D01*
X165424794Y-116724869D01*
X165424788Y-116724863D01*
X165206667Y-116558398D01*
X165206663Y-116558395D01*
X165203126Y-116555696D01*
X165139179Y-116519884D01*
X164959837Y-116419448D01*
X164959832Y-116419445D01*
X164955947Y-116417270D01*
X164951789Y-116415662D01*
X164951784Y-116415659D01*
X164695885Y-116316659D01*
X164695879Y-116316657D01*
X164691730Y-116315052D01*
X164687398Y-116314048D01*
X164687395Y-116314047D01*
X164612141Y-116296604D01*
X164415747Y-116251082D01*
X164133503Y-116226637D01*
X164129068Y-116226881D01*
X164129064Y-116226881D01*
X163855073Y-116241960D01*
X163855066Y-116241961D01*
X163850630Y-116242205D01*
X163712743Y-116269632D01*
X163577146Y-116296604D01*
X163577141Y-116296605D01*
X163572774Y-116297474D01*
X163568571Y-116298950D01*
X163309684Y-116389864D01*
X163309681Y-116389865D01*
X163305476Y-116391342D01*
X163301523Y-116393395D01*
X163301517Y-116393398D01*
X163159135Y-116467360D01*
X163054072Y-116521936D01*
X163050457Y-116524519D01*
X163050451Y-116524523D01*
X163003048Y-116558398D01*
X162823576Y-116686651D01*
X162820349Y-116689729D01*
X162820347Y-116689731D01*
X162780682Y-116727570D01*
X162618588Y-116882199D01*
X162443199Y-117104680D01*
X162304138Y-117344092D01*
X162252627Y-117392951D01*
X162182879Y-117406205D01*
X162117037Y-117379646D01*
X162084296Y-117340639D01*
X161987506Y-117161256D01*
X161985393Y-117157340D01*
X161817078Y-116929460D01*
X161770554Y-116882199D01*
X161621465Y-116730751D01*
X161618334Y-116727570D01*
X161614794Y-116724869D01*
X161614788Y-116724863D01*
X161396667Y-116558398D01*
X161396663Y-116558395D01*
X161393126Y-116555696D01*
X161329179Y-116519884D01*
X161149837Y-116419448D01*
X161149832Y-116419445D01*
X161145947Y-116417270D01*
X161141789Y-116415662D01*
X161141784Y-116415659D01*
X160885885Y-116316659D01*
X160885879Y-116316657D01*
X160881730Y-116315052D01*
X160877398Y-116314048D01*
X160877395Y-116314047D01*
X160802141Y-116296604D01*
X160605747Y-116251082D01*
X160323503Y-116226637D01*
X160319068Y-116226881D01*
X160319064Y-116226881D01*
X160045073Y-116241960D01*
X160045066Y-116241961D01*
X160040630Y-116242205D01*
X159902743Y-116269632D01*
X159767146Y-116296604D01*
X159767141Y-116296605D01*
X159762774Y-116297474D01*
X159758571Y-116298950D01*
X159499684Y-116389864D01*
X159499681Y-116389865D01*
X159495476Y-116391342D01*
X159491523Y-116393395D01*
X159491517Y-116393398D01*
X159349135Y-116467360D01*
X159244072Y-116521936D01*
X159240457Y-116524519D01*
X159240451Y-116524523D01*
X159193048Y-116558398D01*
X159013576Y-116686651D01*
X159010349Y-116689729D01*
X159010347Y-116689731D01*
X158970682Y-116727570D01*
X158808588Y-116882199D01*
X158633199Y-117104680D01*
X158602612Y-117157340D01*
X158493141Y-117345807D01*
X158493138Y-117345813D01*
X158490907Y-117349654D01*
X158384552Y-117612232D01*
X158383481Y-117616545D01*
X158383479Y-117616550D01*
X158369593Y-117672453D01*
X158316255Y-117887177D01*
X158315801Y-117891605D01*
X158315801Y-117891607D01*
X158309879Y-117949407D01*
X158287380Y-118169002D01*
X156845000Y-118169002D01*
X156845000Y-111058200D01*
X173490940Y-111058200D01*
X173510726Y-111246456D01*
X173569221Y-111426484D01*
X173663867Y-111590416D01*
X173790529Y-111731088D01*
X173943670Y-111842351D01*
X174116597Y-111919344D01*
X174214612Y-111940178D01*
X174295297Y-111957328D01*
X174295301Y-111957328D01*
X174301754Y-111958700D01*
X174491046Y-111958700D01*
X174497499Y-111957328D01*
X174497503Y-111957328D01*
X174578188Y-111940178D01*
X174676203Y-111919344D01*
X174849130Y-111842351D01*
X175002271Y-111731088D01*
X175128933Y-111590416D01*
X175223579Y-111426484D01*
X175282074Y-111246456D01*
X175301860Y-111058200D01*
X175282074Y-110869944D01*
X175223579Y-110689916D01*
X175128933Y-110525984D01*
X175002271Y-110385312D01*
X174849130Y-110274049D01*
X174676203Y-110197056D01*
X174578188Y-110176222D01*
X174497503Y-110159072D01*
X174497499Y-110159072D01*
X174491046Y-110157700D01*
X174301754Y-110157700D01*
X174295301Y-110159072D01*
X174295297Y-110159072D01*
X174214612Y-110176222D01*
X174116597Y-110197056D01*
X173943670Y-110274049D01*
X173790529Y-110385312D01*
X173663867Y-110525984D01*
X173569221Y-110689916D01*
X173510726Y-110869944D01*
X173490940Y-111058200D01*
X156845000Y-111058200D01*
X156845000Y-109026464D01*
X156865002Y-108958343D01*
X156918658Y-108911850D01*
X156978954Y-108902006D01*
X156978954Y-108901300D01*
X157168246Y-108901300D01*
X157174699Y-108899928D01*
X157174703Y-108899928D01*
X157255388Y-108882778D01*
X157353403Y-108861944D01*
X157526330Y-108784951D01*
X157679471Y-108673688D01*
X157806133Y-108533016D01*
X157900779Y-108369084D01*
X157959274Y-108189056D01*
X157979060Y-108000800D01*
X157959274Y-107812544D01*
X157900779Y-107632516D01*
X157806133Y-107468584D01*
X157679471Y-107327912D01*
X157526330Y-107216649D01*
X157353403Y-107139656D01*
X157255388Y-107118822D01*
X157174703Y-107101672D01*
X157174699Y-107101672D01*
X157168246Y-107100300D01*
X156978954Y-107100300D01*
X156978954Y-107099492D01*
X156914332Y-107087674D01*
X156862486Y-107039172D01*
X156845000Y-106975136D01*
X156845000Y-106299000D01*
X160384540Y-106299000D01*
X160404326Y-106487256D01*
X160462821Y-106667284D01*
X160557467Y-106831216D01*
X160684129Y-106971888D01*
X160837270Y-107083151D01*
X161010197Y-107160144D01*
X161108212Y-107180978D01*
X161188897Y-107198128D01*
X161188901Y-107198128D01*
X161195354Y-107199500D01*
X161384646Y-107199500D01*
X161391099Y-107198128D01*
X161391103Y-107198128D01*
X161471788Y-107180978D01*
X161569803Y-107160144D01*
X161742730Y-107083151D01*
X161895871Y-106971888D01*
X162022533Y-106831216D01*
X162117179Y-106667284D01*
X162175674Y-106487256D01*
X162195460Y-106299000D01*
X162179481Y-106146967D01*
X162176364Y-106117307D01*
X162176364Y-106117305D01*
X162175674Y-106110744D01*
X162117179Y-105930716D01*
X162094548Y-105891517D01*
X162025836Y-105772505D01*
X162022533Y-105766784D01*
X161924994Y-105658456D01*
X161900286Y-105631015D01*
X161900284Y-105631014D01*
X161895871Y-105626112D01*
X161742730Y-105514849D01*
X161569803Y-105437856D01*
X161471788Y-105417022D01*
X161391103Y-105399872D01*
X161391099Y-105399872D01*
X161384646Y-105398500D01*
X161195354Y-105398500D01*
X161188901Y-105399872D01*
X161188897Y-105399872D01*
X161108212Y-105417022D01*
X161010197Y-105437856D01*
X160837270Y-105514849D01*
X160684129Y-105626112D01*
X160679716Y-105631014D01*
X160679714Y-105631015D01*
X160655006Y-105658456D01*
X160557467Y-105766784D01*
X160554164Y-105772505D01*
X160485453Y-105891517D01*
X160462821Y-105930716D01*
X160404326Y-106110744D01*
X160403636Y-106117305D01*
X160403636Y-106117307D01*
X160400519Y-106146967D01*
X160384540Y-106299000D01*
X156845000Y-106299000D01*
X156845000Y-105029000D01*
X164829540Y-105029000D01*
X164849326Y-105217256D01*
X164907821Y-105397284D01*
X164911124Y-105403006D01*
X164911125Y-105403007D01*
X164931245Y-105437856D01*
X165002467Y-105561216D01*
X165006885Y-105566123D01*
X165006886Y-105566124D01*
X165090023Y-105658456D01*
X165129129Y-105701888D01*
X165282270Y-105813151D01*
X165455197Y-105890144D01*
X165553212Y-105910978D01*
X165633897Y-105928128D01*
X165633901Y-105928128D01*
X165640354Y-105929500D01*
X165829646Y-105929500D01*
X165836099Y-105928128D01*
X165836103Y-105928128D01*
X165916788Y-105910978D01*
X166014803Y-105890144D01*
X166187730Y-105813151D01*
X166340871Y-105701888D01*
X166379978Y-105658456D01*
X166463114Y-105566124D01*
X166463115Y-105566123D01*
X166467533Y-105561216D01*
X166520081Y-105470200D01*
X170950940Y-105470200D01*
X170951630Y-105476765D01*
X170967327Y-105626112D01*
X170970726Y-105658456D01*
X171029221Y-105838484D01*
X171032524Y-105844206D01*
X171032525Y-105844207D01*
X171079167Y-105924993D01*
X171123867Y-106002416D01*
X171128285Y-106007323D01*
X171128286Y-106007324D01*
X171227316Y-106117307D01*
X171250529Y-106143088D01*
X171403670Y-106254351D01*
X171576597Y-106331344D01*
X171674612Y-106352178D01*
X171755297Y-106369328D01*
X171755301Y-106369328D01*
X171761754Y-106370700D01*
X171951046Y-106370700D01*
X171957499Y-106369328D01*
X171957503Y-106369328D01*
X172038188Y-106352178D01*
X172136203Y-106331344D01*
X172309130Y-106254351D01*
X172462271Y-106143088D01*
X172485485Y-106117307D01*
X172584514Y-106007324D01*
X172584515Y-106007323D01*
X172588933Y-106002416D01*
X172633633Y-105924993D01*
X172680275Y-105844207D01*
X172680276Y-105844206D01*
X172683579Y-105838484D01*
X172742074Y-105658456D01*
X172745474Y-105626112D01*
X172761170Y-105476765D01*
X172761860Y-105470200D01*
X172742074Y-105281944D01*
X172683579Y-105101916D01*
X172588933Y-104937984D01*
X172584514Y-104933076D01*
X172466686Y-104802215D01*
X172466684Y-104802214D01*
X172462271Y-104797312D01*
X172309130Y-104686049D01*
X172136203Y-104609056D01*
X172038188Y-104588222D01*
X171957503Y-104571072D01*
X171957499Y-104571072D01*
X171951046Y-104569700D01*
X171761754Y-104569700D01*
X171755301Y-104571072D01*
X171755297Y-104571072D01*
X171674612Y-104588222D01*
X171576597Y-104609056D01*
X171403670Y-104686049D01*
X171250529Y-104797312D01*
X171246116Y-104802214D01*
X171246114Y-104802215D01*
X171128286Y-104933076D01*
X171123867Y-104937984D01*
X171029221Y-105101916D01*
X170970726Y-105281944D01*
X170950940Y-105470200D01*
X166520081Y-105470200D01*
X166538755Y-105437856D01*
X166558875Y-105403007D01*
X166558876Y-105403006D01*
X166562179Y-105397284D01*
X166620674Y-105217256D01*
X166640460Y-105029000D01*
X166620674Y-104840744D01*
X166562179Y-104660716D01*
X166539548Y-104621517D01*
X166470836Y-104502505D01*
X166467533Y-104496784D01*
X166340871Y-104356112D01*
X166187730Y-104244849D01*
X166014803Y-104167856D01*
X165916788Y-104147022D01*
X165836103Y-104129872D01*
X165836099Y-104129872D01*
X165829646Y-104128500D01*
X165640354Y-104128500D01*
X165633901Y-104129872D01*
X165633897Y-104129872D01*
X165553212Y-104147022D01*
X165455197Y-104167856D01*
X165282270Y-104244849D01*
X165129129Y-104356112D01*
X165002467Y-104496784D01*
X164999164Y-104502505D01*
X164930453Y-104621517D01*
X164907821Y-104660716D01*
X164849326Y-104840744D01*
X164829540Y-105029000D01*
X156845000Y-105029000D01*
X156845000Y-103759000D01*
X160384540Y-103759000D01*
X160404326Y-103947256D01*
X160462821Y-104127284D01*
X160466124Y-104133006D01*
X160466125Y-104133007D01*
X160486245Y-104167856D01*
X160557467Y-104291216D01*
X160684129Y-104431888D01*
X160837270Y-104543151D01*
X161010197Y-104620144D01*
X161108212Y-104640978D01*
X161188897Y-104658128D01*
X161188901Y-104658128D01*
X161195354Y-104659500D01*
X161384646Y-104659500D01*
X161391099Y-104658128D01*
X161391103Y-104658128D01*
X161471788Y-104640978D01*
X161569803Y-104620144D01*
X161742730Y-104543151D01*
X161895871Y-104431888D01*
X162022533Y-104291216D01*
X162093755Y-104167856D01*
X162113875Y-104133007D01*
X162113876Y-104133006D01*
X162117179Y-104127284D01*
X162175674Y-103947256D01*
X162195460Y-103759000D01*
X162175674Y-103570744D01*
X162117179Y-103390716D01*
X162094548Y-103351517D01*
X162025836Y-103232505D01*
X162022533Y-103226784D01*
X161895871Y-103086112D01*
X161742730Y-102974849D01*
X161569803Y-102897856D01*
X161471788Y-102877022D01*
X161391103Y-102859872D01*
X161391099Y-102859872D01*
X161384646Y-102858500D01*
X161195354Y-102858500D01*
X161188901Y-102859872D01*
X161188897Y-102859872D01*
X161108212Y-102877022D01*
X161010197Y-102897856D01*
X160837270Y-102974849D01*
X160684129Y-103086112D01*
X160557467Y-103226784D01*
X160554164Y-103232505D01*
X160485453Y-103351517D01*
X160462821Y-103390716D01*
X160404326Y-103570744D01*
X160384540Y-103759000D01*
X156845000Y-103759000D01*
X156845000Y-102489000D01*
X164829540Y-102489000D01*
X164849326Y-102677256D01*
X164907821Y-102857284D01*
X164911124Y-102863006D01*
X164911125Y-102863007D01*
X164931245Y-102897856D01*
X165002467Y-103021216D01*
X165129129Y-103161888D01*
X165282270Y-103273151D01*
X165455197Y-103350144D01*
X165553212Y-103370978D01*
X165633897Y-103388128D01*
X165633901Y-103388128D01*
X165640354Y-103389500D01*
X165829646Y-103389500D01*
X165836099Y-103388128D01*
X165836103Y-103388128D01*
X165916788Y-103370978D01*
X166014803Y-103350144D01*
X166187730Y-103273151D01*
X166340871Y-103161888D01*
X166467533Y-103021216D01*
X166538755Y-102897856D01*
X166558875Y-102863007D01*
X166558876Y-102863006D01*
X166562179Y-102857284D01*
X166620674Y-102677256D01*
X166640460Y-102489000D01*
X166620674Y-102300744D01*
X166562179Y-102120716D01*
X166539548Y-102081517D01*
X166470836Y-101962505D01*
X166467533Y-101956784D01*
X166340871Y-101816112D01*
X166187730Y-101704849D01*
X166014803Y-101627856D01*
X165916788Y-101607022D01*
X165836103Y-101589872D01*
X165836099Y-101589872D01*
X165829646Y-101588500D01*
X165640354Y-101588500D01*
X165633901Y-101589872D01*
X165633897Y-101589872D01*
X165553212Y-101607022D01*
X165455197Y-101627856D01*
X165282270Y-101704849D01*
X165129129Y-101816112D01*
X165002467Y-101956784D01*
X164999164Y-101962505D01*
X164930453Y-102081517D01*
X164907821Y-102120716D01*
X164849326Y-102300744D01*
X164829540Y-102489000D01*
X156845000Y-102489000D01*
X156845000Y-101219000D01*
X160384540Y-101219000D01*
X160404326Y-101407256D01*
X160462821Y-101587284D01*
X160466124Y-101593006D01*
X160466125Y-101593007D01*
X160486245Y-101627856D01*
X160557467Y-101751216D01*
X160684129Y-101891888D01*
X160837270Y-102003151D01*
X161010197Y-102080144D01*
X161108212Y-102100978D01*
X161188897Y-102118128D01*
X161188901Y-102118128D01*
X161195354Y-102119500D01*
X161384646Y-102119500D01*
X161391099Y-102118128D01*
X161391103Y-102118128D01*
X161471788Y-102100978D01*
X161569803Y-102080144D01*
X161742730Y-102003151D01*
X161895871Y-101891888D01*
X162022533Y-101751216D01*
X162093755Y-101627856D01*
X162113875Y-101593007D01*
X162113876Y-101593006D01*
X162117179Y-101587284D01*
X162175674Y-101407256D01*
X162195460Y-101219000D01*
X162175674Y-101030744D01*
X162117179Y-100850716D01*
X162094548Y-100811517D01*
X162025836Y-100692505D01*
X162022533Y-100686784D01*
X161959686Y-100616985D01*
X161900286Y-100551015D01*
X161900284Y-100551014D01*
X161895871Y-100546112D01*
X161742730Y-100434849D01*
X161569803Y-100357856D01*
X161471788Y-100337022D01*
X161391103Y-100319872D01*
X161391099Y-100319872D01*
X161384646Y-100318500D01*
X161195354Y-100318500D01*
X161188901Y-100319872D01*
X161188897Y-100319872D01*
X161108212Y-100337022D01*
X161010197Y-100357856D01*
X160837270Y-100434849D01*
X160684129Y-100546112D01*
X160679716Y-100551014D01*
X160679714Y-100551015D01*
X160620314Y-100616985D01*
X160557467Y-100686784D01*
X160554164Y-100692505D01*
X160485453Y-100811517D01*
X160462821Y-100850716D01*
X160404326Y-101030744D01*
X160384540Y-101219000D01*
X156845000Y-101219000D01*
X156845000Y-99949000D01*
X164829540Y-99949000D01*
X164830230Y-99955565D01*
X164844647Y-100092734D01*
X164849326Y-100137256D01*
X164907821Y-100317284D01*
X164911124Y-100323006D01*
X164911125Y-100323007D01*
X164931245Y-100357856D01*
X165002467Y-100481216D01*
X165006885Y-100486123D01*
X165006886Y-100486124D01*
X165078974Y-100566185D01*
X165129129Y-100621888D01*
X165134468Y-100625767D01*
X165212350Y-100682351D01*
X165282270Y-100733151D01*
X165455197Y-100810144D01*
X165553212Y-100830978D01*
X165633897Y-100848128D01*
X165633901Y-100848128D01*
X165640354Y-100849500D01*
X165829646Y-100849500D01*
X165836099Y-100848128D01*
X165836103Y-100848128D01*
X165916788Y-100830978D01*
X166014803Y-100810144D01*
X166187730Y-100733151D01*
X166257651Y-100682351D01*
X166335532Y-100625767D01*
X166340871Y-100621888D01*
X166391027Y-100566185D01*
X166463114Y-100486124D01*
X166463115Y-100486123D01*
X166467533Y-100481216D01*
X166538755Y-100357856D01*
X166558875Y-100323007D01*
X166558876Y-100323006D01*
X166562179Y-100317284D01*
X166620674Y-100137256D01*
X166625354Y-100092734D01*
X166639770Y-99955565D01*
X166640460Y-99949000D01*
X166635121Y-99898200D01*
X178774140Y-99898200D01*
X178793926Y-100086456D01*
X178852421Y-100266484D01*
X178855724Y-100272206D01*
X178855725Y-100272207D01*
X178906727Y-100360545D01*
X178947067Y-100430416D01*
X178951485Y-100435323D01*
X178951486Y-100435324D01*
X179047748Y-100542233D01*
X179073729Y-100571088D01*
X179226870Y-100682351D01*
X179399797Y-100759344D01*
X179497812Y-100780178D01*
X179578497Y-100797328D01*
X179578501Y-100797328D01*
X179584954Y-100798700D01*
X179774246Y-100798700D01*
X179780699Y-100797328D01*
X179780703Y-100797328D01*
X179861388Y-100780178D01*
X179959403Y-100759344D01*
X180132330Y-100682351D01*
X180285471Y-100571088D01*
X180311453Y-100542233D01*
X180407714Y-100435324D01*
X180407715Y-100435323D01*
X180412133Y-100430416D01*
X180452473Y-100360545D01*
X180503475Y-100272207D01*
X180503476Y-100272206D01*
X180506779Y-100266484D01*
X180565274Y-100086456D01*
X180585060Y-99898200D01*
X180570613Y-99760744D01*
X180565964Y-99716507D01*
X180565964Y-99716505D01*
X180565274Y-99709944D01*
X180506779Y-99529916D01*
X180487230Y-99496055D01*
X180415436Y-99371705D01*
X180412133Y-99365984D01*
X180362164Y-99310488D01*
X180289886Y-99230215D01*
X180289884Y-99230214D01*
X180285471Y-99225312D01*
X180207592Y-99168730D01*
X180137672Y-99117930D01*
X180137671Y-99117929D01*
X180132330Y-99114049D01*
X179959403Y-99037056D01*
X179839674Y-99011607D01*
X179780703Y-98999072D01*
X179780699Y-98999072D01*
X179774246Y-98997700D01*
X179584954Y-98997700D01*
X179578501Y-98999072D01*
X179578497Y-98999072D01*
X179519526Y-99011607D01*
X179399797Y-99037056D01*
X179226870Y-99114049D01*
X179221529Y-99117929D01*
X179221528Y-99117930D01*
X179151608Y-99168730D01*
X179073729Y-99225312D01*
X179069316Y-99230214D01*
X179069314Y-99230215D01*
X178997036Y-99310488D01*
X178947067Y-99365984D01*
X178943764Y-99371705D01*
X178871971Y-99496055D01*
X178852421Y-99529916D01*
X178793926Y-99709944D01*
X178793236Y-99716505D01*
X178793236Y-99716507D01*
X178788587Y-99760744D01*
X178774140Y-99898200D01*
X166635121Y-99898200D01*
X166620674Y-99760744D01*
X166562179Y-99580716D01*
X166539548Y-99541517D01*
X166470836Y-99422505D01*
X166467533Y-99416784D01*
X166426944Y-99371705D01*
X166345286Y-99281015D01*
X166345284Y-99281014D01*
X166340871Y-99276112D01*
X166187730Y-99164849D01*
X166014803Y-99087856D01*
X165916788Y-99067022D01*
X165836103Y-99049872D01*
X165836099Y-99049872D01*
X165829646Y-99048500D01*
X165640354Y-99048500D01*
X165633901Y-99049872D01*
X165633897Y-99049872D01*
X165553212Y-99067022D01*
X165455197Y-99087856D01*
X165282270Y-99164849D01*
X165129129Y-99276112D01*
X165124716Y-99281014D01*
X165124714Y-99281015D01*
X165043056Y-99371705D01*
X165002467Y-99416784D01*
X164999164Y-99422505D01*
X164930453Y-99541517D01*
X164907821Y-99580716D01*
X164849326Y-99760744D01*
X164829540Y-99949000D01*
X156845000Y-99949000D01*
X156845000Y-98679000D01*
X160384540Y-98679000D01*
X160385230Y-98685565D01*
X160400635Y-98832134D01*
X160404326Y-98867256D01*
X160462821Y-99047284D01*
X160466124Y-99053006D01*
X160466125Y-99053007D01*
X160486245Y-99087856D01*
X160557467Y-99211216D01*
X160684129Y-99351888D01*
X160689468Y-99355767D01*
X160783985Y-99424437D01*
X160837270Y-99463151D01*
X161010197Y-99540144D01*
X161108212Y-99560978D01*
X161188897Y-99578128D01*
X161188901Y-99578128D01*
X161195354Y-99579500D01*
X161384646Y-99579500D01*
X161391099Y-99578128D01*
X161391103Y-99578128D01*
X161471788Y-99560978D01*
X161569803Y-99540144D01*
X161742730Y-99463151D01*
X161796016Y-99424437D01*
X161890532Y-99355767D01*
X161895871Y-99351888D01*
X162022533Y-99211216D01*
X162093755Y-99087856D01*
X162113875Y-99053007D01*
X162113876Y-99053006D01*
X162117179Y-99047284D01*
X162175674Y-98867256D01*
X162179366Y-98832134D01*
X162194770Y-98685565D01*
X162195460Y-98679000D01*
X162191109Y-98637600D01*
X173541740Y-98637600D01*
X173561526Y-98825856D01*
X173620021Y-99005884D01*
X173623324Y-99011606D01*
X173623325Y-99011607D01*
X173643923Y-99047284D01*
X173714667Y-99169816D01*
X173719085Y-99174723D01*
X173719086Y-99174724D01*
X173810377Y-99276112D01*
X173841329Y-99310488D01*
X173994470Y-99421751D01*
X174167397Y-99498744D01*
X174265412Y-99519578D01*
X174346097Y-99536728D01*
X174346101Y-99536728D01*
X174352554Y-99538100D01*
X174541846Y-99538100D01*
X174548299Y-99536728D01*
X174548303Y-99536728D01*
X174628988Y-99519578D01*
X174727003Y-99498744D01*
X174899930Y-99421751D01*
X175053071Y-99310488D01*
X175084024Y-99276112D01*
X175175314Y-99174724D01*
X175175315Y-99174723D01*
X175179733Y-99169816D01*
X175250477Y-99047284D01*
X175271075Y-99011607D01*
X175271076Y-99011606D01*
X175274379Y-99005884D01*
X175332874Y-98825856D01*
X175352660Y-98637600D01*
X175337225Y-98490744D01*
X175333564Y-98455907D01*
X175333564Y-98455905D01*
X175332874Y-98449344D01*
X175274379Y-98269316D01*
X175179733Y-98105384D01*
X175158577Y-98081888D01*
X175057486Y-97969615D01*
X175057484Y-97969614D01*
X175053071Y-97964712D01*
X174962254Y-97898730D01*
X174905272Y-97857330D01*
X174905271Y-97857329D01*
X174899930Y-97853449D01*
X174727003Y-97776456D01*
X174628988Y-97755622D01*
X174548303Y-97738472D01*
X174548299Y-97738472D01*
X174541846Y-97737100D01*
X174352554Y-97737100D01*
X174346101Y-97738472D01*
X174346097Y-97738472D01*
X174265412Y-97755622D01*
X174167397Y-97776456D01*
X173994470Y-97853449D01*
X173989129Y-97857329D01*
X173989128Y-97857330D01*
X173932146Y-97898730D01*
X173841329Y-97964712D01*
X173836916Y-97969614D01*
X173836914Y-97969615D01*
X173735823Y-98081888D01*
X173714667Y-98105384D01*
X173620021Y-98269316D01*
X173561526Y-98449344D01*
X173560836Y-98455905D01*
X173560836Y-98455907D01*
X173557175Y-98490744D01*
X173541740Y-98637600D01*
X162191109Y-98637600D01*
X162175674Y-98490744D01*
X162117179Y-98310716D01*
X162096906Y-98275601D01*
X162025836Y-98152505D01*
X162022533Y-98146784D01*
X162018114Y-98141876D01*
X161900286Y-98011015D01*
X161900284Y-98011014D01*
X161895871Y-98006112D01*
X161742730Y-97894849D01*
X161569803Y-97817856D01*
X161471788Y-97797022D01*
X161391103Y-97779872D01*
X161391099Y-97779872D01*
X161384646Y-97778500D01*
X161195354Y-97778500D01*
X161188901Y-97779872D01*
X161188897Y-97779872D01*
X161108212Y-97797022D01*
X161010197Y-97817856D01*
X160837270Y-97894849D01*
X160684129Y-98006112D01*
X160679716Y-98011014D01*
X160679714Y-98011015D01*
X160561886Y-98141876D01*
X160557467Y-98146784D01*
X160554164Y-98152505D01*
X160483095Y-98275601D01*
X160462821Y-98310716D01*
X160404326Y-98490744D01*
X160384540Y-98679000D01*
X156845000Y-98679000D01*
X156845000Y-97409000D01*
X164829540Y-97409000D01*
X164849326Y-97597256D01*
X164907821Y-97777284D01*
X164911124Y-97783006D01*
X164911125Y-97783007D01*
X164931245Y-97817856D01*
X165002467Y-97941216D01*
X165006885Y-97946123D01*
X165006886Y-97946124D01*
X165028038Y-97969615D01*
X165129129Y-98081888D01*
X165282270Y-98193151D01*
X165455197Y-98270144D01*
X165553212Y-98290978D01*
X165633897Y-98308128D01*
X165633901Y-98308128D01*
X165640354Y-98309500D01*
X165829646Y-98309500D01*
X165836099Y-98308128D01*
X165836103Y-98308128D01*
X165916788Y-98290978D01*
X166014803Y-98270144D01*
X166187730Y-98193151D01*
X166340871Y-98081888D01*
X166441963Y-97969615D01*
X166463114Y-97946124D01*
X166463115Y-97946123D01*
X166467533Y-97941216D01*
X166538755Y-97817856D01*
X166558875Y-97783007D01*
X166558876Y-97783006D01*
X166562179Y-97777284D01*
X166620674Y-97597256D01*
X166640460Y-97409000D01*
X166620674Y-97220744D01*
X166562179Y-97040716D01*
X166467533Y-96876784D01*
X166340871Y-96736112D01*
X166187730Y-96624849D01*
X166014803Y-96547856D01*
X165916788Y-96527022D01*
X165836103Y-96509872D01*
X165836099Y-96509872D01*
X165829646Y-96508500D01*
X165640354Y-96508500D01*
X165633901Y-96509872D01*
X165633897Y-96509872D01*
X165553212Y-96527022D01*
X165455197Y-96547856D01*
X165282270Y-96624849D01*
X165129129Y-96736112D01*
X165002467Y-96876784D01*
X164907821Y-97040716D01*
X164849326Y-97220744D01*
X164829540Y-97409000D01*
X156845000Y-97409000D01*
X156845000Y-93599000D01*
X160384540Y-93599000D01*
X160404326Y-93787256D01*
X160462821Y-93967284D01*
X160466124Y-93973006D01*
X160466125Y-93973007D01*
X160533923Y-94090437D01*
X160557467Y-94131216D01*
X160561885Y-94136123D01*
X160561886Y-94136124D01*
X160585235Y-94162055D01*
X160684129Y-94271888D01*
X160837270Y-94383151D01*
X161010197Y-94460144D01*
X161108212Y-94480978D01*
X161188897Y-94498128D01*
X161188901Y-94498128D01*
X161195354Y-94499500D01*
X161384646Y-94499500D01*
X161391099Y-94498128D01*
X161391103Y-94498128D01*
X161471788Y-94480978D01*
X161569803Y-94460144D01*
X161742730Y-94383151D01*
X161895871Y-94271888D01*
X161994766Y-94162055D01*
X162018114Y-94136124D01*
X162018115Y-94136123D01*
X162022533Y-94131216D01*
X162046077Y-94090437D01*
X162113875Y-93973007D01*
X162113876Y-93973006D01*
X162117179Y-93967284D01*
X162175674Y-93787256D01*
X162195460Y-93599000D01*
X162175674Y-93410744D01*
X162140861Y-93303600D01*
X171001740Y-93303600D01*
X171021526Y-93491856D01*
X171080021Y-93671884D01*
X171083324Y-93677606D01*
X171083325Y-93677607D01*
X171164432Y-93818088D01*
X171174667Y-93835816D01*
X171179085Y-93840723D01*
X171179086Y-93840724D01*
X171293042Y-93967284D01*
X171301329Y-93976488D01*
X171454470Y-94087751D01*
X171627397Y-94164744D01*
X171725412Y-94185578D01*
X171806097Y-94202728D01*
X171806101Y-94202728D01*
X171812554Y-94204100D01*
X172001846Y-94204100D01*
X172008299Y-94202728D01*
X172008303Y-94202728D01*
X172088988Y-94185578D01*
X172187003Y-94164744D01*
X172359930Y-94087751D01*
X172513071Y-93976488D01*
X172521359Y-93967284D01*
X172635314Y-93840724D01*
X172635315Y-93840723D01*
X172639733Y-93835816D01*
X172649968Y-93818088D01*
X172731075Y-93677607D01*
X172731076Y-93677606D01*
X172734379Y-93671884D01*
X172792874Y-93491856D01*
X172812660Y-93303600D01*
X172792874Y-93115344D01*
X172734379Y-92935316D01*
X172691598Y-92861216D01*
X172643036Y-92777105D01*
X172639733Y-92771384D01*
X172635314Y-92766476D01*
X172517486Y-92635615D01*
X172517484Y-92635614D01*
X172513071Y-92630712D01*
X172359930Y-92519449D01*
X172187003Y-92442456D01*
X172088988Y-92421622D01*
X172008303Y-92404472D01*
X172008299Y-92404472D01*
X172001846Y-92403100D01*
X171812554Y-92403100D01*
X171806101Y-92404472D01*
X171806097Y-92404472D01*
X171725412Y-92421622D01*
X171627397Y-92442456D01*
X171454470Y-92519449D01*
X171301329Y-92630712D01*
X171296916Y-92635614D01*
X171296914Y-92635615D01*
X171179086Y-92766476D01*
X171174667Y-92771384D01*
X171171364Y-92777105D01*
X171122803Y-92861216D01*
X171080021Y-92935316D01*
X171021526Y-93115344D01*
X171001740Y-93303600D01*
X162140861Y-93303600D01*
X162117179Y-93230716D01*
X162109838Y-93218000D01*
X162025836Y-93072505D01*
X162022533Y-93066784D01*
X161959686Y-92996985D01*
X161900286Y-92931015D01*
X161900284Y-92931014D01*
X161895871Y-92926112D01*
X161742730Y-92814849D01*
X161569803Y-92737856D01*
X161471788Y-92717022D01*
X161391103Y-92699872D01*
X161391099Y-92699872D01*
X161384646Y-92698500D01*
X161195354Y-92698500D01*
X161188901Y-92699872D01*
X161188897Y-92699872D01*
X161108212Y-92717022D01*
X161010197Y-92737856D01*
X160837270Y-92814849D01*
X160684129Y-92926112D01*
X160679716Y-92931014D01*
X160679714Y-92931015D01*
X160620314Y-92996985D01*
X160557467Y-93066784D01*
X160554164Y-93072505D01*
X160470163Y-93218000D01*
X160462821Y-93230716D01*
X160404326Y-93410744D01*
X160384540Y-93599000D01*
X156845000Y-93599000D01*
X156845000Y-92329000D01*
X164829540Y-92329000D01*
X164849326Y-92517256D01*
X164907821Y-92697284D01*
X164911124Y-92703006D01*
X164911125Y-92703007D01*
X164953906Y-92777105D01*
X165002467Y-92861216D01*
X165129129Y-93001888D01*
X165282270Y-93113151D01*
X165455197Y-93190144D01*
X165553212Y-93210978D01*
X165633897Y-93228128D01*
X165633901Y-93228128D01*
X165640354Y-93229500D01*
X165829646Y-93229500D01*
X165836099Y-93228128D01*
X165836103Y-93228128D01*
X165916788Y-93210978D01*
X166014803Y-93190144D01*
X166187730Y-93113151D01*
X166340871Y-93001888D01*
X166467533Y-92861216D01*
X166516094Y-92777105D01*
X166558875Y-92703007D01*
X166558876Y-92703006D01*
X166562179Y-92697284D01*
X166620674Y-92517256D01*
X166640460Y-92329000D01*
X166620674Y-92140744D01*
X166562179Y-91960716D01*
X166539548Y-91921517D01*
X166470836Y-91802505D01*
X166467533Y-91796784D01*
X166340871Y-91656112D01*
X166187730Y-91544849D01*
X166014803Y-91467856D01*
X165916788Y-91447022D01*
X165836103Y-91429872D01*
X165836099Y-91429872D01*
X165829646Y-91428500D01*
X165640354Y-91428500D01*
X165633901Y-91429872D01*
X165633897Y-91429872D01*
X165553212Y-91447022D01*
X165455197Y-91467856D01*
X165282270Y-91544849D01*
X165129129Y-91656112D01*
X165002467Y-91796784D01*
X164999164Y-91802505D01*
X164930453Y-91921517D01*
X164907821Y-91960716D01*
X164849326Y-92140744D01*
X164829540Y-92329000D01*
X156845000Y-92329000D01*
X156845000Y-91059000D01*
X160384540Y-91059000D01*
X160404326Y-91247256D01*
X160462821Y-91427284D01*
X160466124Y-91433006D01*
X160466125Y-91433007D01*
X160486245Y-91467856D01*
X160557467Y-91591216D01*
X160684129Y-91731888D01*
X160837270Y-91843151D01*
X161010197Y-91920144D01*
X161108212Y-91940978D01*
X161188897Y-91958128D01*
X161188901Y-91958128D01*
X161195354Y-91959500D01*
X161384646Y-91959500D01*
X161391099Y-91958128D01*
X161391103Y-91958128D01*
X161471788Y-91940978D01*
X161569803Y-91920144D01*
X161742730Y-91843151D01*
X161895871Y-91731888D01*
X162022533Y-91591216D01*
X162093755Y-91467856D01*
X162113875Y-91433007D01*
X162113876Y-91433006D01*
X162117179Y-91427284D01*
X162175674Y-91247256D01*
X162195460Y-91059000D01*
X162175674Y-90870744D01*
X162117179Y-90690716D01*
X162094548Y-90651517D01*
X162025836Y-90532505D01*
X162022533Y-90526784D01*
X161895871Y-90386112D01*
X161742730Y-90274849D01*
X161569803Y-90197856D01*
X161471788Y-90177022D01*
X161391103Y-90159872D01*
X161391099Y-90159872D01*
X161384646Y-90158500D01*
X161195354Y-90158500D01*
X161188901Y-90159872D01*
X161188897Y-90159872D01*
X161108212Y-90177022D01*
X161010197Y-90197856D01*
X160837270Y-90274849D01*
X160684129Y-90386112D01*
X160557467Y-90526784D01*
X160554164Y-90532505D01*
X160485453Y-90651517D01*
X160462821Y-90690716D01*
X160404326Y-90870744D01*
X160384540Y-91059000D01*
X156845000Y-91059000D01*
X156845000Y-89789000D01*
X164869541Y-89789000D01*
X164889327Y-89977256D01*
X164947822Y-90157284D01*
X164951125Y-90163006D01*
X164951126Y-90163007D01*
X164971246Y-90197856D01*
X165042468Y-90321216D01*
X165169130Y-90461888D01*
X165322271Y-90573151D01*
X165495198Y-90650144D01*
X165593213Y-90670978D01*
X165673898Y-90688128D01*
X165673902Y-90688128D01*
X165680355Y-90689500D01*
X165869647Y-90689500D01*
X165876100Y-90688128D01*
X165876104Y-90688128D01*
X165956789Y-90670978D01*
X166054804Y-90650144D01*
X166227731Y-90573151D01*
X166380872Y-90461888D01*
X166507534Y-90321216D01*
X166578756Y-90197856D01*
X166598876Y-90163007D01*
X166598877Y-90163006D01*
X166602180Y-90157284D01*
X166660675Y-89977256D01*
X166680461Y-89789000D01*
X166660675Y-89600744D01*
X166602180Y-89420716D01*
X166579549Y-89381517D01*
X166510837Y-89262505D01*
X166507534Y-89256784D01*
X166429058Y-89169628D01*
X166385287Y-89121015D01*
X166385285Y-89121014D01*
X166380872Y-89116112D01*
X166227731Y-89004849D01*
X166054804Y-88927856D01*
X165954637Y-88906565D01*
X165923752Y-88900000D01*
X168639540Y-88900000D01*
X168659326Y-89088256D01*
X168717821Y-89268284D01*
X168812467Y-89432216D01*
X168939129Y-89572888D01*
X169092270Y-89684151D01*
X169265197Y-89761144D01*
X169363212Y-89781978D01*
X169443897Y-89799128D01*
X169443901Y-89799128D01*
X169450354Y-89800500D01*
X169639646Y-89800500D01*
X169646099Y-89799128D01*
X169646103Y-89799128D01*
X169726788Y-89781978D01*
X169824803Y-89761144D01*
X169997730Y-89684151D01*
X170150871Y-89572888D01*
X170277533Y-89432216D01*
X170372179Y-89268284D01*
X170430674Y-89088256D01*
X170450460Y-88900000D01*
X170430674Y-88711744D01*
X170372179Y-88531716D01*
X170364838Y-88519000D01*
X170280836Y-88373505D01*
X170277533Y-88367784D01*
X170273114Y-88362876D01*
X170189938Y-88270500D01*
X172952040Y-88270500D01*
X172952730Y-88277065D01*
X172959062Y-88337307D01*
X172971826Y-88458756D01*
X173030321Y-88638784D01*
X173033624Y-88644506D01*
X173033625Y-88644507D01*
X173114732Y-88784988D01*
X173124967Y-88802716D01*
X173129385Y-88807623D01*
X173129386Y-88807624D01*
X173236408Y-88926483D01*
X173251629Y-88943388D01*
X173404770Y-89054651D01*
X173577697Y-89131644D01*
X173675712Y-89152478D01*
X173756397Y-89169628D01*
X173756401Y-89169628D01*
X173762854Y-89171000D01*
X173952146Y-89171000D01*
X173958599Y-89169628D01*
X173958603Y-89169628D01*
X174039288Y-89152478D01*
X174137303Y-89131644D01*
X174310230Y-89054651D01*
X174463371Y-88943388D01*
X174478593Y-88926483D01*
X174585614Y-88807624D01*
X174585615Y-88807623D01*
X174590033Y-88802716D01*
X174600268Y-88784988D01*
X174681375Y-88644507D01*
X174681376Y-88644506D01*
X174684679Y-88638784D01*
X174743174Y-88458756D01*
X174755939Y-88337307D01*
X174762270Y-88277065D01*
X174762960Y-88270500D01*
X174743174Y-88082244D01*
X174684679Y-87902216D01*
X174652288Y-87846112D01*
X174593336Y-87744005D01*
X174590033Y-87738284D01*
X174584522Y-87732163D01*
X174467786Y-87602515D01*
X174467784Y-87602514D01*
X174463371Y-87597612D01*
X174310230Y-87486349D01*
X174137303Y-87409356D01*
X174039288Y-87388522D01*
X173958603Y-87371372D01*
X173958599Y-87371372D01*
X173952146Y-87370000D01*
X173762854Y-87370000D01*
X173756401Y-87371372D01*
X173756397Y-87371372D01*
X173675712Y-87388522D01*
X173577697Y-87409356D01*
X173404770Y-87486349D01*
X173251629Y-87597612D01*
X173247216Y-87602514D01*
X173247214Y-87602515D01*
X173130478Y-87732163D01*
X173124967Y-87738284D01*
X173121664Y-87744005D01*
X173062713Y-87846112D01*
X173030321Y-87902216D01*
X172971826Y-88082244D01*
X172952040Y-88270500D01*
X170189938Y-88270500D01*
X170155286Y-88232015D01*
X170155284Y-88232014D01*
X170150871Y-88227112D01*
X170045721Y-88150716D01*
X170003072Y-88119730D01*
X170003071Y-88119729D01*
X169997730Y-88115849D01*
X169824803Y-88038856D01*
X169726788Y-88018022D01*
X169646103Y-88000872D01*
X169646099Y-88000872D01*
X169639646Y-87999500D01*
X169450354Y-87999500D01*
X169443901Y-88000872D01*
X169443897Y-88000872D01*
X169363212Y-88018022D01*
X169265197Y-88038856D01*
X169092270Y-88115849D01*
X169086929Y-88119729D01*
X169086928Y-88119730D01*
X169044279Y-88150716D01*
X168939129Y-88227112D01*
X168934716Y-88232014D01*
X168934714Y-88232015D01*
X168816886Y-88362876D01*
X168812467Y-88367784D01*
X168809164Y-88373505D01*
X168725163Y-88519000D01*
X168717821Y-88531716D01*
X168659326Y-88711744D01*
X168639540Y-88900000D01*
X165923752Y-88900000D01*
X165876104Y-88889872D01*
X165876100Y-88889872D01*
X165869647Y-88888500D01*
X165680355Y-88888500D01*
X165673902Y-88889872D01*
X165673898Y-88889872D01*
X165595365Y-88906565D01*
X165495198Y-88927856D01*
X165322271Y-89004849D01*
X165169130Y-89116112D01*
X165164717Y-89121014D01*
X165164715Y-89121015D01*
X165120944Y-89169628D01*
X165042468Y-89256784D01*
X165039165Y-89262505D01*
X164970454Y-89381517D01*
X164947822Y-89420716D01*
X164889327Y-89600744D01*
X164869541Y-89789000D01*
X156845000Y-89789000D01*
X156845000Y-88519000D01*
X160384540Y-88519000D01*
X160404326Y-88707256D01*
X160462821Y-88887284D01*
X160466124Y-88893006D01*
X160466125Y-88893007D01*
X160497452Y-88947267D01*
X160557467Y-89051216D01*
X160561885Y-89056123D01*
X160561886Y-89056124D01*
X160627464Y-89128955D01*
X160684129Y-89191888D01*
X160689468Y-89195767D01*
X160797157Y-89274007D01*
X160837270Y-89303151D01*
X161010197Y-89380144D01*
X161108212Y-89400978D01*
X161188897Y-89418128D01*
X161188901Y-89418128D01*
X161195354Y-89419500D01*
X161384646Y-89419500D01*
X161391099Y-89418128D01*
X161391103Y-89418128D01*
X161471788Y-89400978D01*
X161569803Y-89380144D01*
X161742730Y-89303151D01*
X161782844Y-89274007D01*
X161890532Y-89195767D01*
X161895871Y-89191888D01*
X161952537Y-89128955D01*
X162018114Y-89056124D01*
X162018115Y-89056123D01*
X162022533Y-89051216D01*
X162082548Y-88947267D01*
X162113875Y-88893007D01*
X162113876Y-88893006D01*
X162117179Y-88887284D01*
X162175674Y-88707256D01*
X162195460Y-88519000D01*
X162189128Y-88458756D01*
X162176364Y-88337307D01*
X162176364Y-88337305D01*
X162175674Y-88330744D01*
X162117179Y-88150716D01*
X162022533Y-87986784D01*
X162018114Y-87981876D01*
X161900286Y-87851015D01*
X161900284Y-87851014D01*
X161895871Y-87846112D01*
X161742730Y-87734849D01*
X161569803Y-87657856D01*
X161471788Y-87637022D01*
X161391103Y-87619872D01*
X161391099Y-87619872D01*
X161384646Y-87618500D01*
X161195354Y-87618500D01*
X161188901Y-87619872D01*
X161188897Y-87619872D01*
X161108212Y-87637022D01*
X161010197Y-87657856D01*
X160837270Y-87734849D01*
X160684129Y-87846112D01*
X160679716Y-87851014D01*
X160679714Y-87851015D01*
X160561886Y-87981876D01*
X160557467Y-87986784D01*
X160462821Y-88150716D01*
X160404326Y-88330744D01*
X160403636Y-88337305D01*
X160403636Y-88337307D01*
X160390872Y-88458756D01*
X160384540Y-88519000D01*
X156845000Y-88519000D01*
X156845000Y-85979000D01*
X160384540Y-85979000D01*
X160404326Y-86167256D01*
X160462821Y-86347284D01*
X160557467Y-86511216D01*
X160684129Y-86651888D01*
X160689468Y-86655767D01*
X160815818Y-86747565D01*
X160837270Y-86763151D01*
X161010197Y-86840144D01*
X161108212Y-86860978D01*
X161188897Y-86878128D01*
X161188901Y-86878128D01*
X161195354Y-86879500D01*
X161384646Y-86879500D01*
X161391099Y-86878128D01*
X161391103Y-86878128D01*
X161471788Y-86860978D01*
X161569803Y-86840144D01*
X161742730Y-86763151D01*
X161764183Y-86747565D01*
X161773219Y-86741000D01*
X169401540Y-86741000D01*
X169402230Y-86747565D01*
X169416097Y-86879500D01*
X169421326Y-86929256D01*
X169479821Y-87109284D01*
X169574467Y-87273216D01*
X169701129Y-87413888D01*
X169854270Y-87525151D01*
X170027197Y-87602144D01*
X170125212Y-87622978D01*
X170205897Y-87640128D01*
X170205901Y-87640128D01*
X170212354Y-87641500D01*
X170401646Y-87641500D01*
X170408099Y-87640128D01*
X170408103Y-87640128D01*
X170488788Y-87622978D01*
X170586803Y-87602144D01*
X170759730Y-87525151D01*
X170912871Y-87413888D01*
X171039533Y-87273216D01*
X171134179Y-87109284D01*
X171192674Y-86929256D01*
X171197904Y-86879500D01*
X171211770Y-86747565D01*
X171212460Y-86741000D01*
X171192674Y-86552744D01*
X171134179Y-86372716D01*
X171039533Y-86208784D01*
X170912871Y-86068112D01*
X170907532Y-86064233D01*
X170765072Y-85960730D01*
X170765071Y-85960729D01*
X170759730Y-85956849D01*
X170586803Y-85879856D01*
X170488788Y-85859022D01*
X170408103Y-85841872D01*
X170408099Y-85841872D01*
X170401646Y-85840500D01*
X170212354Y-85840500D01*
X170205901Y-85841872D01*
X170205897Y-85841872D01*
X170125212Y-85859022D01*
X170027197Y-85879856D01*
X169854270Y-85956849D01*
X169848929Y-85960729D01*
X169848928Y-85960730D01*
X169706468Y-86064233D01*
X169701129Y-86068112D01*
X169574467Y-86208784D01*
X169479821Y-86372716D01*
X169421326Y-86552744D01*
X169401540Y-86741000D01*
X161773219Y-86741000D01*
X161890532Y-86655767D01*
X161895871Y-86651888D01*
X162022533Y-86511216D01*
X162117179Y-86347284D01*
X162175674Y-86167256D01*
X162195460Y-85979000D01*
X162192850Y-85954163D01*
X162176364Y-85797307D01*
X162176364Y-85797305D01*
X162175674Y-85790744D01*
X162117179Y-85610716D01*
X162094548Y-85571517D01*
X162025836Y-85452505D01*
X162022533Y-85446784D01*
X161895871Y-85306112D01*
X161742730Y-85194849D01*
X161569803Y-85117856D01*
X161471788Y-85097022D01*
X161391103Y-85079872D01*
X161391099Y-85079872D01*
X161384646Y-85078500D01*
X161195354Y-85078500D01*
X161188901Y-85079872D01*
X161188897Y-85079872D01*
X161108212Y-85097022D01*
X161010197Y-85117856D01*
X160837270Y-85194849D01*
X160684129Y-85306112D01*
X160557467Y-85446784D01*
X160554164Y-85452505D01*
X160485453Y-85571517D01*
X160462821Y-85610716D01*
X160404326Y-85790744D01*
X160403636Y-85797305D01*
X160403636Y-85797307D01*
X160387150Y-85954163D01*
X160384540Y-85979000D01*
X156845000Y-85979000D01*
X156845000Y-84989227D01*
X156865002Y-84921106D01*
X156918658Y-84874613D01*
X156988932Y-84864509D01*
X156997195Y-84865980D01*
X157023294Y-84871527D01*
X157029754Y-84872900D01*
X157219046Y-84872900D01*
X157225499Y-84871528D01*
X157225503Y-84871528D01*
X157306188Y-84854378D01*
X157404203Y-84833544D01*
X157577130Y-84756551D01*
X157642579Y-84709000D01*
X164956540Y-84709000D01*
X164976326Y-84897256D01*
X165034821Y-85077284D01*
X165038124Y-85083006D01*
X165038125Y-85083007D01*
X165058245Y-85117856D01*
X165129467Y-85241216D01*
X165256129Y-85381888D01*
X165409270Y-85493151D01*
X165582197Y-85570144D01*
X165680212Y-85590978D01*
X165760897Y-85608128D01*
X165760901Y-85608128D01*
X165767354Y-85609500D01*
X165956646Y-85609500D01*
X165963099Y-85608128D01*
X165963103Y-85608128D01*
X166043788Y-85590978D01*
X166141803Y-85570144D01*
X166314730Y-85493151D01*
X166467871Y-85381888D01*
X166594533Y-85241216D01*
X166665755Y-85117856D01*
X166685875Y-85083007D01*
X166685876Y-85083006D01*
X166689179Y-85077284D01*
X166747674Y-84897256D01*
X166767460Y-84709000D01*
X166766101Y-84696074D01*
X166748364Y-84527307D01*
X166748364Y-84527305D01*
X166747674Y-84520744D01*
X166689179Y-84340716D01*
X166594533Y-84176784D01*
X166467871Y-84036112D01*
X166314730Y-83924849D01*
X166141803Y-83847856D01*
X166043788Y-83827022D01*
X165963103Y-83809872D01*
X165963099Y-83809872D01*
X165956646Y-83808500D01*
X165767354Y-83808500D01*
X165760901Y-83809872D01*
X165760897Y-83809872D01*
X165680212Y-83827022D01*
X165582197Y-83847856D01*
X165409270Y-83924849D01*
X165256129Y-84036112D01*
X165129467Y-84176784D01*
X165034821Y-84340716D01*
X164976326Y-84520744D01*
X164975636Y-84527305D01*
X164975636Y-84527307D01*
X164957899Y-84696074D01*
X164956540Y-84709000D01*
X157642579Y-84709000D01*
X157730271Y-84645288D01*
X157856933Y-84504616D01*
X157951579Y-84340684D01*
X158010074Y-84160656D01*
X158022649Y-84041015D01*
X158029170Y-83978965D01*
X158029860Y-83972400D01*
X158010074Y-83784144D01*
X157951579Y-83604116D01*
X157856933Y-83440184D01*
X157730271Y-83299512D01*
X157577130Y-83188249D01*
X157404203Y-83111256D01*
X157392649Y-83108800D01*
X174049740Y-83108800D01*
X174069526Y-83297056D01*
X174128021Y-83477084D01*
X174222667Y-83641016D01*
X174349329Y-83781688D01*
X174502470Y-83892951D01*
X174675397Y-83969944D01*
X174773412Y-83990778D01*
X174854097Y-84007928D01*
X174854101Y-84007928D01*
X174860554Y-84009300D01*
X175049846Y-84009300D01*
X175056299Y-84007928D01*
X175056303Y-84007928D01*
X175136988Y-83990778D01*
X175235003Y-83969944D01*
X175407930Y-83892951D01*
X175561071Y-83781688D01*
X175687733Y-83641016D01*
X175782379Y-83477084D01*
X175840874Y-83297056D01*
X175860660Y-83108800D01*
X175840874Y-82920544D01*
X175782379Y-82740516D01*
X175687733Y-82576584D01*
X175561071Y-82435912D01*
X175407930Y-82324649D01*
X175235003Y-82247656D01*
X175136988Y-82226822D01*
X175056303Y-82209672D01*
X175056299Y-82209672D01*
X175049846Y-82208300D01*
X174860554Y-82208300D01*
X174854101Y-82209672D01*
X174854097Y-82209672D01*
X174773412Y-82226822D01*
X174675397Y-82247656D01*
X174502470Y-82324649D01*
X174349329Y-82435912D01*
X174222667Y-82576584D01*
X174128021Y-82740516D01*
X174069526Y-82920544D01*
X174049740Y-83108800D01*
X157392649Y-83108800D01*
X157306188Y-83090422D01*
X157225503Y-83073272D01*
X157225499Y-83073272D01*
X157219046Y-83071900D01*
X157029754Y-83071900D01*
X157023295Y-83073273D01*
X157023294Y-83073273D01*
X156997195Y-83078820D01*
X156926405Y-83073417D01*
X156869773Y-83030600D01*
X156845280Y-82963962D01*
X156845000Y-82955573D01*
X156845000Y-80899000D01*
X178291540Y-80899000D01*
X178311326Y-81087256D01*
X178369821Y-81267284D01*
X178464467Y-81431216D01*
X178591129Y-81571888D01*
X178744270Y-81683151D01*
X178917197Y-81760144D01*
X179015212Y-81780978D01*
X179095897Y-81798128D01*
X179095901Y-81798128D01*
X179102354Y-81799500D01*
X179291646Y-81799500D01*
X179298099Y-81798128D01*
X179298103Y-81798128D01*
X179378788Y-81780978D01*
X179476803Y-81760144D01*
X179649730Y-81683151D01*
X179802871Y-81571888D01*
X179929533Y-81431216D01*
X180024179Y-81267284D01*
X180082674Y-81087256D01*
X180102460Y-80899000D01*
X180082674Y-80710744D01*
X180024179Y-80530716D01*
X179929533Y-80366784D01*
X179802871Y-80226112D01*
X179649730Y-80114849D01*
X179476803Y-80037856D01*
X179378788Y-80017022D01*
X179298103Y-79999872D01*
X179298099Y-79999872D01*
X179291646Y-79998500D01*
X179102354Y-79998500D01*
X179095901Y-79999872D01*
X179095897Y-79999872D01*
X179015212Y-80017022D01*
X178917197Y-80037856D01*
X178744270Y-80114849D01*
X178591129Y-80226112D01*
X178464467Y-80366784D01*
X178369821Y-80530716D01*
X178311326Y-80710744D01*
X178291540Y-80899000D01*
X156845000Y-80899000D01*
X156845000Y-78613000D01*
X178291540Y-78613000D01*
X178311326Y-78801256D01*
X178369821Y-78981284D01*
X178464467Y-79145216D01*
X178591129Y-79285888D01*
X178744270Y-79397151D01*
X178917197Y-79474144D01*
X179015212Y-79494978D01*
X179095897Y-79512128D01*
X179095901Y-79512128D01*
X179102354Y-79513500D01*
X179291646Y-79513500D01*
X179298099Y-79512128D01*
X179298103Y-79512128D01*
X179378788Y-79494978D01*
X179476803Y-79474144D01*
X179649730Y-79397151D01*
X179802871Y-79285888D01*
X179929533Y-79145216D01*
X180024179Y-78981284D01*
X180082674Y-78801256D01*
X180102460Y-78613000D01*
X180082674Y-78424744D01*
X180024179Y-78244716D01*
X180015382Y-78229478D01*
X179932836Y-78086505D01*
X179929533Y-78080784D01*
X179921318Y-78071660D01*
X179807286Y-77945015D01*
X179807284Y-77945014D01*
X179802871Y-77940112D01*
X179649730Y-77828849D01*
X179476803Y-77751856D01*
X179377271Y-77730700D01*
X179298103Y-77713872D01*
X179298099Y-77713872D01*
X179291646Y-77712500D01*
X179102354Y-77712500D01*
X179095901Y-77713872D01*
X179095897Y-77713872D01*
X179016729Y-77730700D01*
X178917197Y-77751856D01*
X178744270Y-77828849D01*
X178591129Y-77940112D01*
X178586716Y-77945014D01*
X178586714Y-77945015D01*
X178472682Y-78071660D01*
X178464467Y-78080784D01*
X178461164Y-78086505D01*
X178378619Y-78229478D01*
X178369821Y-78244716D01*
X178311326Y-78424744D01*
X178291540Y-78613000D01*
X156845000Y-78613000D01*
X156845000Y-78406458D01*
X156865002Y-78338337D01*
X156918658Y-78291844D01*
X156941585Y-78283940D01*
X156945810Y-78282926D01*
X156950200Y-78282195D01*
X156954441Y-78280854D01*
X156954444Y-78280853D01*
X157216068Y-78198112D01*
X157216070Y-78198111D01*
X157220314Y-78196769D01*
X157224325Y-78194843D01*
X157224330Y-78194841D01*
X157471678Y-78076066D01*
X157471679Y-78076065D01*
X157475697Y-78074136D01*
X157623781Y-77975190D01*
X157707545Y-77919221D01*
X157707549Y-77919218D01*
X157711253Y-77916743D01*
X157922281Y-77727730D01*
X158104573Y-77510868D01*
X158254489Y-77270485D01*
X158272967Y-77228689D01*
X158318803Y-77174474D01*
X158386676Y-77153646D01*
X158455034Y-77172820D01*
X158500919Y-77223318D01*
X158522449Y-77266405D01*
X158565687Y-77352939D01*
X158726761Y-77585993D01*
X158919065Y-77794027D01*
X158922519Y-77796839D01*
X159135307Y-77970075D01*
X159135311Y-77970078D01*
X159138764Y-77972889D01*
X159381472Y-78119012D01*
X159385567Y-78120746D01*
X159385569Y-78120747D01*
X159638247Y-78227742D01*
X159638254Y-78227744D01*
X159642348Y-78229478D01*
X159723522Y-78251001D01*
X159911889Y-78300946D01*
X159911893Y-78300947D01*
X159916186Y-78302085D01*
X159920595Y-78302607D01*
X159920601Y-78302608D01*
X160077954Y-78321232D01*
X160197523Y-78335384D01*
X160480745Y-78328709D01*
X160485143Y-78327977D01*
X160755810Y-78282926D01*
X160755814Y-78282925D01*
X160760200Y-78282195D01*
X160764441Y-78280854D01*
X160764444Y-78280853D01*
X161026068Y-78198112D01*
X161026070Y-78198111D01*
X161030314Y-78196769D01*
X161034325Y-78194843D01*
X161034330Y-78194841D01*
X161281678Y-78076066D01*
X161281679Y-78076065D01*
X161285697Y-78074136D01*
X161433781Y-77975190D01*
X161517545Y-77919221D01*
X161517549Y-77919218D01*
X161521253Y-77916743D01*
X161732281Y-77727730D01*
X161914573Y-77510868D01*
X162064489Y-77270485D01*
X162179040Y-77011376D01*
X162255939Y-76738712D01*
X162293652Y-76457933D01*
X162297610Y-76332000D01*
X162277601Y-76049407D01*
X162264204Y-75987177D01*
X162218911Y-75776800D01*
X162218911Y-75776798D01*
X162217975Y-75772453D01*
X162216437Y-75768283D01*
X162216434Y-75768274D01*
X162157162Y-75607610D01*
X162152350Y-75536777D01*
X162186597Y-75474587D01*
X162249031Y-75440785D01*
X162275374Y-75438000D01*
X169738649Y-75438000D01*
X169806770Y-75458002D01*
G37*
%TD.AperFunction*%
%TD*%
%TA.AperFunction,Conductor*%
%TO.N,-15V_L1*%
G36*
X132657121Y-102255002D02*
G01*
X132703614Y-102308658D01*
X132715000Y-102361000D01*
X132715000Y-120397000D01*
X132694998Y-120465121D01*
X132641342Y-120511614D01*
X132589000Y-120523000D01*
X121920000Y-120523000D01*
X121920000Y-126232364D01*
X121899998Y-126300485D01*
X121846342Y-126346978D01*
X121776068Y-126357082D01*
X121711488Y-126327588D01*
X121704905Y-126321459D01*
X121591620Y-126208174D01*
X121587112Y-126205017D01*
X121587109Y-126205015D01*
X121415171Y-126084623D01*
X121415168Y-126084621D01*
X121410662Y-126081466D01*
X121405680Y-126079143D01*
X121405675Y-126079140D01*
X121215432Y-125990429D01*
X121215431Y-125990429D01*
X121210450Y-125988106D01*
X121205142Y-125986684D01*
X121205140Y-125986683D01*
X121139748Y-125969161D01*
X120997068Y-125930930D01*
X120777000Y-125911677D01*
X120556932Y-125930930D01*
X120414252Y-125969161D01*
X120348860Y-125986683D01*
X120348858Y-125986684D01*
X120343550Y-125988106D01*
X120338569Y-125990428D01*
X120338568Y-125990429D01*
X120148320Y-126079143D01*
X120148317Y-126079145D01*
X120143339Y-126081466D01*
X119962380Y-126208174D01*
X119806174Y-126364380D01*
X119679466Y-126545339D01*
X119677145Y-126550317D01*
X119677143Y-126550320D01*
X119614575Y-126684498D01*
X119567658Y-126737783D01*
X119499380Y-126757244D01*
X119431420Y-126736702D01*
X119386185Y-126684498D01*
X119326425Y-126556343D01*
X119326423Y-126556340D01*
X119324102Y-126551362D01*
X119198598Y-126372123D01*
X119043877Y-126217402D01*
X119039369Y-126214245D01*
X119039366Y-126214243D01*
X118869148Y-126095055D01*
X118869145Y-126095053D01*
X118864639Y-126091898D01*
X118859657Y-126089575D01*
X118859652Y-126089572D01*
X118671312Y-126001748D01*
X118671311Y-126001747D01*
X118666330Y-125999425D01*
X118661022Y-125998003D01*
X118661020Y-125998002D01*
X118595255Y-125980380D01*
X118454977Y-125942793D01*
X118237000Y-125923723D01*
X118019023Y-125942793D01*
X117878745Y-125980380D01*
X117812980Y-125998002D01*
X117812978Y-125998003D01*
X117807670Y-125999425D01*
X117802690Y-126001747D01*
X117802688Y-126001748D01*
X117614343Y-126089575D01*
X117614340Y-126089577D01*
X117609362Y-126091898D01*
X117430123Y-126217402D01*
X117275402Y-126372123D01*
X117149898Y-126551362D01*
X117147577Y-126556340D01*
X117147575Y-126556343D01*
X117081195Y-126698695D01*
X117034277Y-126751980D01*
X116966000Y-126771441D01*
X116898040Y-126750899D01*
X116852805Y-126698695D01*
X116786425Y-126556343D01*
X116786423Y-126556340D01*
X116784102Y-126551362D01*
X116658598Y-126372123D01*
X116503877Y-126217402D01*
X116499369Y-126214245D01*
X116499366Y-126214243D01*
X116329148Y-126095055D01*
X116329145Y-126095053D01*
X116324639Y-126091898D01*
X116319657Y-126089575D01*
X116319652Y-126089572D01*
X116131312Y-126001748D01*
X116131311Y-126001747D01*
X116126330Y-125999425D01*
X116121022Y-125998003D01*
X116121020Y-125998002D01*
X116055255Y-125980380D01*
X115914977Y-125942793D01*
X115697000Y-125923723D01*
X115479023Y-125942793D01*
X115338745Y-125980380D01*
X115272980Y-125998002D01*
X115272978Y-125998003D01*
X115267670Y-125999425D01*
X115262690Y-126001747D01*
X115262688Y-126001748D01*
X115074343Y-126089575D01*
X115074340Y-126089577D01*
X115069362Y-126091898D01*
X114890123Y-126217402D01*
X114735402Y-126372123D01*
X114609898Y-126551362D01*
X114607577Y-126556340D01*
X114607575Y-126556343D01*
X114545332Y-126689823D01*
X114498414Y-126743108D01*
X114430137Y-126762569D01*
X114362177Y-126742027D01*
X114316942Y-126689823D01*
X114252946Y-126552583D01*
X114247466Y-126543093D01*
X114218589Y-126501851D01*
X114208113Y-126493477D01*
X114194666Y-126500545D01*
X113529021Y-127166189D01*
X113521408Y-127180132D01*
X113521539Y-127181966D01*
X113525790Y-127188580D01*
X114195391Y-127858180D01*
X114207161Y-127864607D01*
X114219176Y-127855311D01*
X114247466Y-127814907D01*
X114252946Y-127805417D01*
X114316942Y-127668177D01*
X114363860Y-127614892D01*
X114432137Y-127595431D01*
X114500097Y-127615973D01*
X114545332Y-127668177D01*
X114609898Y-127806638D01*
X114735402Y-127985877D01*
X114890123Y-128140598D01*
X114894631Y-128143755D01*
X114894634Y-128143757D01*
X115064852Y-128262945D01*
X115069361Y-128266102D01*
X115074343Y-128268425D01*
X115074348Y-128268428D01*
X115262688Y-128356252D01*
X115267670Y-128358575D01*
X115272978Y-128359997D01*
X115272980Y-128359998D01*
X115338745Y-128377620D01*
X115479023Y-128415207D01*
X115697000Y-128434277D01*
X115914977Y-128415207D01*
X116055255Y-128377620D01*
X116121020Y-128359998D01*
X116121022Y-128359997D01*
X116126330Y-128358575D01*
X116131312Y-128356252D01*
X116319652Y-128268428D01*
X116319657Y-128268425D01*
X116324639Y-128266102D01*
X116329148Y-128262945D01*
X116499366Y-128143757D01*
X116499369Y-128143755D01*
X116503877Y-128140598D01*
X116658598Y-127985877D01*
X116784102Y-127806638D01*
X116852805Y-127659305D01*
X116899723Y-127606020D01*
X116968000Y-127586559D01*
X117035960Y-127607101D01*
X117081195Y-127659305D01*
X117149898Y-127806638D01*
X117275402Y-127985877D01*
X117430123Y-128140598D01*
X117434631Y-128143755D01*
X117434634Y-128143757D01*
X117604852Y-128262945D01*
X117609361Y-128266102D01*
X117614343Y-128268425D01*
X117614348Y-128268428D01*
X117802688Y-128356252D01*
X117807670Y-128358575D01*
X117812978Y-128359997D01*
X117812980Y-128359998D01*
X117878745Y-128377620D01*
X118019023Y-128415207D01*
X118237000Y-128434277D01*
X118454977Y-128415207D01*
X118595255Y-128377620D01*
X118661020Y-128359998D01*
X118661022Y-128359997D01*
X118666330Y-128358575D01*
X118671312Y-128356252D01*
X118859652Y-128268428D01*
X118859657Y-128268425D01*
X118864639Y-128266102D01*
X118869148Y-128262945D01*
X119039366Y-128143757D01*
X119039369Y-128143755D01*
X119043877Y-128140598D01*
X119198598Y-127985877D01*
X119324102Y-127806638D01*
X119386185Y-127673502D01*
X119433103Y-127620217D01*
X119501380Y-127600756D01*
X119569340Y-127621298D01*
X119614575Y-127673502D01*
X119674335Y-127801657D01*
X119679466Y-127812661D01*
X119806174Y-127993620D01*
X119962380Y-128149826D01*
X119966888Y-128152983D01*
X119966891Y-128152985D01*
X120131761Y-128268428D01*
X120143338Y-128276534D01*
X120148320Y-128278857D01*
X120148325Y-128278860D01*
X120337498Y-128367072D01*
X120343550Y-128369894D01*
X120348858Y-128371316D01*
X120348860Y-128371317D01*
X120414252Y-128388839D01*
X120556932Y-128427070D01*
X120777000Y-128446323D01*
X120997068Y-128427070D01*
X121139748Y-128388839D01*
X121205140Y-128371317D01*
X121205142Y-128371316D01*
X121210450Y-128369894D01*
X121216502Y-128367072D01*
X121405675Y-128278860D01*
X121405680Y-128278857D01*
X121410662Y-128276534D01*
X121422239Y-128268428D01*
X121587109Y-128152985D01*
X121587112Y-128152983D01*
X121591620Y-128149826D01*
X121704905Y-128036541D01*
X121767217Y-128002515D01*
X121838032Y-128007580D01*
X121894868Y-128050127D01*
X121919679Y-128116647D01*
X121920000Y-128125636D01*
X121920000Y-129160000D01*
X121899998Y-129228121D01*
X121846342Y-129274614D01*
X121794000Y-129286000D01*
X110743000Y-129286000D01*
X110674879Y-129265998D01*
X110628386Y-129212342D01*
X110617000Y-129160000D01*
X110617000Y-128229161D01*
X112471393Y-128229161D01*
X112480687Y-128241175D01*
X112521088Y-128269464D01*
X112530584Y-128274947D01*
X112720113Y-128363326D01*
X112730405Y-128367072D01*
X112932401Y-128421196D01*
X112943196Y-128423099D01*
X113151525Y-128441326D01*
X113162475Y-128441326D01*
X113370804Y-128423099D01*
X113381599Y-128421196D01*
X113583595Y-128367072D01*
X113593887Y-128363326D01*
X113783416Y-128274947D01*
X113792912Y-128269464D01*
X113834148Y-128240590D01*
X113842523Y-128230112D01*
X113835457Y-128216668D01*
X113169811Y-127551021D01*
X113155868Y-127543408D01*
X113154034Y-127543539D01*
X113147420Y-127547790D01*
X112477820Y-128217391D01*
X112471393Y-128229161D01*
X110617000Y-128229161D01*
X110617000Y-127184475D01*
X111894674Y-127184475D01*
X111912901Y-127392804D01*
X111914804Y-127403599D01*
X111968928Y-127605595D01*
X111972674Y-127615887D01*
X112061054Y-127805417D01*
X112066534Y-127814907D01*
X112095411Y-127856149D01*
X112105887Y-127864523D01*
X112119334Y-127857455D01*
X112784979Y-127191811D01*
X112792592Y-127177868D01*
X112792461Y-127176034D01*
X112788210Y-127169420D01*
X112118609Y-126499820D01*
X112106839Y-126493393D01*
X112094824Y-126502689D01*
X112066534Y-126543093D01*
X112061054Y-126552583D01*
X111972674Y-126742113D01*
X111968928Y-126752405D01*
X111914804Y-126954401D01*
X111912901Y-126965196D01*
X111894674Y-127173525D01*
X111894674Y-127184475D01*
X110617000Y-127184475D01*
X110617000Y-126127887D01*
X112471477Y-126127887D01*
X112478545Y-126141334D01*
X113144189Y-126806979D01*
X113158132Y-126814592D01*
X113159966Y-126814461D01*
X113166580Y-126810210D01*
X113836180Y-126140609D01*
X113842607Y-126128839D01*
X113833313Y-126116825D01*
X113792912Y-126088536D01*
X113783416Y-126083053D01*
X113593887Y-125994674D01*
X113583595Y-125990928D01*
X113381599Y-125936804D01*
X113370804Y-125934901D01*
X113162475Y-125916674D01*
X113151525Y-125916674D01*
X112943196Y-125934901D01*
X112932401Y-125936804D01*
X112730405Y-125990928D01*
X112720113Y-125994674D01*
X112530583Y-126083054D01*
X112521093Y-126088534D01*
X112479851Y-126117411D01*
X112471477Y-126127887D01*
X110617000Y-126127887D01*
X110617000Y-121793000D01*
X119363540Y-121793000D01*
X119383326Y-121981256D01*
X119441821Y-122161284D01*
X119536467Y-122325216D01*
X119663129Y-122465888D01*
X119816270Y-122577151D01*
X119989197Y-122654144D01*
X120087212Y-122674978D01*
X120167897Y-122692128D01*
X120167901Y-122692128D01*
X120174354Y-122693500D01*
X120363646Y-122693500D01*
X120370099Y-122692128D01*
X120370103Y-122692128D01*
X120450788Y-122674978D01*
X120548803Y-122654144D01*
X120721730Y-122577151D01*
X120874871Y-122465888D01*
X121001533Y-122325216D01*
X121096179Y-122161284D01*
X121154674Y-121981256D01*
X121174460Y-121793000D01*
X121154674Y-121604744D01*
X121096179Y-121424716D01*
X121001533Y-121260784D01*
X120874871Y-121120112D01*
X120721730Y-121008849D01*
X120548803Y-120931856D01*
X120450788Y-120911022D01*
X120370103Y-120893872D01*
X120370099Y-120893872D01*
X120363646Y-120892500D01*
X120174354Y-120892500D01*
X120167901Y-120893872D01*
X120167897Y-120893872D01*
X120087212Y-120911022D01*
X119989197Y-120931856D01*
X119816270Y-121008849D01*
X119663129Y-121120112D01*
X119536467Y-121260784D01*
X119441821Y-121424716D01*
X119383326Y-121604744D01*
X119363540Y-121793000D01*
X110617000Y-121793000D01*
X110617000Y-118169002D01*
X112567380Y-118169002D01*
X112578502Y-118452084D01*
X112629400Y-118730775D01*
X112719058Y-118999514D01*
X112721050Y-119003501D01*
X112721051Y-119003503D01*
X112802449Y-119166405D01*
X112845687Y-119252939D01*
X113006761Y-119485993D01*
X113199065Y-119694027D01*
X113202519Y-119696839D01*
X113415307Y-119870075D01*
X113415311Y-119870078D01*
X113418764Y-119872889D01*
X113661472Y-120019012D01*
X113665567Y-120020746D01*
X113665569Y-120020747D01*
X113918247Y-120127742D01*
X113918254Y-120127744D01*
X113922348Y-120129478D01*
X114022492Y-120156031D01*
X114191889Y-120200946D01*
X114191893Y-120200947D01*
X114196186Y-120202085D01*
X114200595Y-120202607D01*
X114200601Y-120202608D01*
X114357954Y-120221232D01*
X114477523Y-120235384D01*
X114760745Y-120228709D01*
X114765143Y-120227977D01*
X115035810Y-120182926D01*
X115035814Y-120182925D01*
X115040200Y-120182195D01*
X115044441Y-120180854D01*
X115044444Y-120180853D01*
X115306068Y-120098112D01*
X115306070Y-120098111D01*
X115310314Y-120096769D01*
X115314325Y-120094843D01*
X115314330Y-120094841D01*
X115561678Y-119976066D01*
X115561679Y-119976065D01*
X115565697Y-119974136D01*
X115713781Y-119875190D01*
X115797545Y-119819221D01*
X115797549Y-119819218D01*
X115801253Y-119816743D01*
X116012281Y-119627730D01*
X116194573Y-119410868D01*
X116344489Y-119170485D01*
X116362967Y-119128689D01*
X116408803Y-119074474D01*
X116476676Y-119053646D01*
X116545034Y-119072820D01*
X116590919Y-119123318D01*
X116612449Y-119166405D01*
X116655687Y-119252939D01*
X116816761Y-119485993D01*
X117009065Y-119694027D01*
X117012519Y-119696839D01*
X117225307Y-119870075D01*
X117225311Y-119870078D01*
X117228764Y-119872889D01*
X117471472Y-120019012D01*
X117475567Y-120020746D01*
X117475569Y-120020747D01*
X117728247Y-120127742D01*
X117728254Y-120127744D01*
X117732348Y-120129478D01*
X117832492Y-120156031D01*
X118001889Y-120200946D01*
X118001893Y-120200947D01*
X118006186Y-120202085D01*
X118010595Y-120202607D01*
X118010601Y-120202608D01*
X118167954Y-120221232D01*
X118287523Y-120235384D01*
X118570745Y-120228709D01*
X118575143Y-120227977D01*
X118845810Y-120182926D01*
X118845814Y-120182925D01*
X118850200Y-120182195D01*
X118854441Y-120180854D01*
X118854444Y-120180853D01*
X119116068Y-120098112D01*
X119116070Y-120098111D01*
X119120314Y-120096769D01*
X119124325Y-120094843D01*
X119124330Y-120094841D01*
X119371678Y-119976066D01*
X119371679Y-119976065D01*
X119375697Y-119974136D01*
X119523781Y-119875190D01*
X119607545Y-119819221D01*
X119607549Y-119819218D01*
X119611253Y-119816743D01*
X119822281Y-119627730D01*
X120004573Y-119410868D01*
X120154489Y-119170485D01*
X120269040Y-118911376D01*
X120345939Y-118638712D01*
X120383652Y-118357933D01*
X120387610Y-118232000D01*
X120383149Y-118169002D01*
X123997380Y-118169002D01*
X124008502Y-118452084D01*
X124059400Y-118730775D01*
X124149058Y-118999514D01*
X124151050Y-119003501D01*
X124151051Y-119003503D01*
X124232449Y-119166405D01*
X124275687Y-119252939D01*
X124436761Y-119485993D01*
X124629065Y-119694027D01*
X124632519Y-119696839D01*
X124845307Y-119870075D01*
X124845311Y-119870078D01*
X124848764Y-119872889D01*
X125091472Y-120019012D01*
X125095567Y-120020746D01*
X125095569Y-120020747D01*
X125348247Y-120127742D01*
X125348254Y-120127744D01*
X125352348Y-120129478D01*
X125452492Y-120156031D01*
X125621889Y-120200946D01*
X125621893Y-120200947D01*
X125626186Y-120202085D01*
X125630595Y-120202607D01*
X125630601Y-120202608D01*
X125787954Y-120221232D01*
X125907523Y-120235384D01*
X126190745Y-120228709D01*
X126195143Y-120227977D01*
X126465810Y-120182926D01*
X126465814Y-120182925D01*
X126470200Y-120182195D01*
X126474441Y-120180854D01*
X126474444Y-120180853D01*
X126736068Y-120098112D01*
X126736070Y-120098111D01*
X126740314Y-120096769D01*
X126744325Y-120094843D01*
X126744330Y-120094841D01*
X126991678Y-119976066D01*
X126991679Y-119976065D01*
X126995697Y-119974136D01*
X127143781Y-119875190D01*
X127227545Y-119819221D01*
X127227549Y-119819218D01*
X127231253Y-119816743D01*
X127442281Y-119627730D01*
X127624573Y-119410868D01*
X127774489Y-119170485D01*
X127792967Y-119128689D01*
X127838803Y-119074474D01*
X127906676Y-119053646D01*
X127975034Y-119072820D01*
X128020919Y-119123318D01*
X128042449Y-119166405D01*
X128085687Y-119252939D01*
X128246761Y-119485993D01*
X128439065Y-119694027D01*
X128442519Y-119696839D01*
X128655307Y-119870075D01*
X128655311Y-119870078D01*
X128658764Y-119872889D01*
X128901472Y-120019012D01*
X128905567Y-120020746D01*
X128905569Y-120020747D01*
X129158247Y-120127742D01*
X129158254Y-120127744D01*
X129162348Y-120129478D01*
X129262492Y-120156031D01*
X129431889Y-120200946D01*
X129431893Y-120200947D01*
X129436186Y-120202085D01*
X129440595Y-120202607D01*
X129440601Y-120202608D01*
X129597954Y-120221232D01*
X129717523Y-120235384D01*
X130000745Y-120228709D01*
X130005143Y-120227977D01*
X130275810Y-120182926D01*
X130275814Y-120182925D01*
X130280200Y-120182195D01*
X130284441Y-120180854D01*
X130284444Y-120180853D01*
X130546068Y-120098112D01*
X130546070Y-120098111D01*
X130550314Y-120096769D01*
X130554325Y-120094843D01*
X130554330Y-120094841D01*
X130801678Y-119976066D01*
X130801679Y-119976065D01*
X130805697Y-119974136D01*
X130953781Y-119875190D01*
X131037545Y-119819221D01*
X131037549Y-119819218D01*
X131041253Y-119816743D01*
X131252281Y-119627730D01*
X131434573Y-119410868D01*
X131584489Y-119170485D01*
X131699040Y-118911376D01*
X131775939Y-118638712D01*
X131813652Y-118357933D01*
X131817610Y-118232000D01*
X131797601Y-117949407D01*
X131784204Y-117887177D01*
X131738911Y-117676800D01*
X131738911Y-117676798D01*
X131737975Y-117672453D01*
X131639920Y-117406663D01*
X131606159Y-117344092D01*
X131507506Y-117161256D01*
X131505393Y-117157340D01*
X131337078Y-116929460D01*
X131290554Y-116882199D01*
X131141465Y-116730751D01*
X131138334Y-116727570D01*
X131134794Y-116724869D01*
X131134788Y-116724863D01*
X130916667Y-116558398D01*
X130916663Y-116558395D01*
X130913126Y-116555696D01*
X130849179Y-116519884D01*
X130669837Y-116419448D01*
X130669832Y-116419445D01*
X130665947Y-116417270D01*
X130661789Y-116415662D01*
X130661784Y-116415659D01*
X130405885Y-116316659D01*
X130405879Y-116316657D01*
X130401730Y-116315052D01*
X130397398Y-116314048D01*
X130397395Y-116314047D01*
X130322141Y-116296604D01*
X130125747Y-116251082D01*
X129843503Y-116226637D01*
X129839068Y-116226881D01*
X129839064Y-116226881D01*
X129565073Y-116241960D01*
X129565066Y-116241961D01*
X129560630Y-116242205D01*
X129422743Y-116269632D01*
X129287146Y-116296604D01*
X129287141Y-116296605D01*
X129282774Y-116297474D01*
X129278571Y-116298950D01*
X129019684Y-116389864D01*
X129019681Y-116389865D01*
X129015476Y-116391342D01*
X129011523Y-116393395D01*
X129011517Y-116393398D01*
X128869135Y-116467360D01*
X128764072Y-116521936D01*
X128760457Y-116524519D01*
X128760451Y-116524523D01*
X128713048Y-116558398D01*
X128533576Y-116686651D01*
X128530349Y-116689729D01*
X128530347Y-116689731D01*
X128490682Y-116727570D01*
X128328588Y-116882199D01*
X128153199Y-117104680D01*
X128014138Y-117344092D01*
X127962627Y-117392951D01*
X127892879Y-117406205D01*
X127827037Y-117379646D01*
X127794296Y-117340639D01*
X127697506Y-117161256D01*
X127695393Y-117157340D01*
X127527078Y-116929460D01*
X127480554Y-116882199D01*
X127331465Y-116730751D01*
X127328334Y-116727570D01*
X127324794Y-116724869D01*
X127324788Y-116724863D01*
X127106667Y-116558398D01*
X127106663Y-116558395D01*
X127103126Y-116555696D01*
X127039179Y-116519884D01*
X126859837Y-116419448D01*
X126859832Y-116419445D01*
X126855947Y-116417270D01*
X126851789Y-116415662D01*
X126851784Y-116415659D01*
X126595885Y-116316659D01*
X126595879Y-116316657D01*
X126591730Y-116315052D01*
X126587398Y-116314048D01*
X126587395Y-116314047D01*
X126512141Y-116296604D01*
X126315747Y-116251082D01*
X126033503Y-116226637D01*
X126029068Y-116226881D01*
X126029064Y-116226881D01*
X125755073Y-116241960D01*
X125755066Y-116241961D01*
X125750630Y-116242205D01*
X125612743Y-116269632D01*
X125477146Y-116296604D01*
X125477141Y-116296605D01*
X125472774Y-116297474D01*
X125468571Y-116298950D01*
X125209684Y-116389864D01*
X125209681Y-116389865D01*
X125205476Y-116391342D01*
X125201523Y-116393395D01*
X125201517Y-116393398D01*
X125059135Y-116467360D01*
X124954072Y-116521936D01*
X124950457Y-116524519D01*
X124950451Y-116524523D01*
X124903048Y-116558398D01*
X124723576Y-116686651D01*
X124720349Y-116689729D01*
X124720347Y-116689731D01*
X124680682Y-116727570D01*
X124518588Y-116882199D01*
X124343199Y-117104680D01*
X124312612Y-117157340D01*
X124203141Y-117345807D01*
X124203138Y-117345813D01*
X124200907Y-117349654D01*
X124094552Y-117612232D01*
X124093481Y-117616545D01*
X124093479Y-117616550D01*
X124079593Y-117672453D01*
X124026255Y-117887177D01*
X124025801Y-117891605D01*
X124025801Y-117891607D01*
X124019879Y-117949407D01*
X123997380Y-118169002D01*
X120383149Y-118169002D01*
X120367601Y-117949407D01*
X120354204Y-117887177D01*
X120308911Y-117676800D01*
X120308911Y-117676798D01*
X120307975Y-117672453D01*
X120209920Y-117406663D01*
X120176159Y-117344092D01*
X120077506Y-117161256D01*
X120075393Y-117157340D01*
X119907078Y-116929460D01*
X119860554Y-116882199D01*
X119711465Y-116730751D01*
X119708334Y-116727570D01*
X119704794Y-116724869D01*
X119704788Y-116724863D01*
X119486667Y-116558398D01*
X119486663Y-116558395D01*
X119483126Y-116555696D01*
X119419179Y-116519884D01*
X119239837Y-116419448D01*
X119239832Y-116419445D01*
X119235947Y-116417270D01*
X119231789Y-116415662D01*
X119231784Y-116415659D01*
X118975885Y-116316659D01*
X118975879Y-116316657D01*
X118971730Y-116315052D01*
X118967398Y-116314048D01*
X118967395Y-116314047D01*
X118892141Y-116296604D01*
X118695747Y-116251082D01*
X118413503Y-116226637D01*
X118409068Y-116226881D01*
X118409064Y-116226881D01*
X118135073Y-116241960D01*
X118135066Y-116241961D01*
X118130630Y-116242205D01*
X117992743Y-116269632D01*
X117857146Y-116296604D01*
X117857141Y-116296605D01*
X117852774Y-116297474D01*
X117848571Y-116298950D01*
X117589684Y-116389864D01*
X117589681Y-116389865D01*
X117585476Y-116391342D01*
X117581523Y-116393395D01*
X117581517Y-116393398D01*
X117439135Y-116467360D01*
X117334072Y-116521936D01*
X117330457Y-116524519D01*
X117330451Y-116524523D01*
X117283048Y-116558398D01*
X117103576Y-116686651D01*
X117100349Y-116689729D01*
X117100347Y-116689731D01*
X117060682Y-116727570D01*
X116898588Y-116882199D01*
X116723199Y-117104680D01*
X116584138Y-117344092D01*
X116532627Y-117392951D01*
X116462879Y-117406205D01*
X116397037Y-117379646D01*
X116364296Y-117340639D01*
X116267506Y-117161256D01*
X116265393Y-117157340D01*
X116097078Y-116929460D01*
X116050554Y-116882199D01*
X115901465Y-116730751D01*
X115898334Y-116727570D01*
X115894794Y-116724869D01*
X115894788Y-116724863D01*
X115676667Y-116558398D01*
X115676663Y-116558395D01*
X115673126Y-116555696D01*
X115609179Y-116519884D01*
X115429837Y-116419448D01*
X115429832Y-116419445D01*
X115425947Y-116417270D01*
X115421789Y-116415662D01*
X115421784Y-116415659D01*
X115165885Y-116316659D01*
X115165879Y-116316657D01*
X115161730Y-116315052D01*
X115157398Y-116314048D01*
X115157395Y-116314047D01*
X115082141Y-116296604D01*
X114885747Y-116251082D01*
X114603503Y-116226637D01*
X114599068Y-116226881D01*
X114599064Y-116226881D01*
X114325073Y-116241960D01*
X114325066Y-116241961D01*
X114320630Y-116242205D01*
X114182743Y-116269632D01*
X114047146Y-116296604D01*
X114047141Y-116296605D01*
X114042774Y-116297474D01*
X114038571Y-116298950D01*
X113779684Y-116389864D01*
X113779681Y-116389865D01*
X113775476Y-116391342D01*
X113771523Y-116393395D01*
X113771517Y-116393398D01*
X113629135Y-116467360D01*
X113524072Y-116521936D01*
X113520457Y-116524519D01*
X113520451Y-116524523D01*
X113473048Y-116558398D01*
X113293576Y-116686651D01*
X113290349Y-116689729D01*
X113290347Y-116689731D01*
X113250682Y-116727570D01*
X113088588Y-116882199D01*
X112913199Y-117104680D01*
X112882612Y-117157340D01*
X112773141Y-117345807D01*
X112773138Y-117345813D01*
X112770907Y-117349654D01*
X112664552Y-117612232D01*
X112663481Y-117616545D01*
X112663479Y-117616550D01*
X112649593Y-117672453D01*
X112596255Y-117887177D01*
X112595801Y-117891605D01*
X112595801Y-117891607D01*
X112589879Y-117949407D01*
X112567380Y-118169002D01*
X110617000Y-118169002D01*
X110617000Y-107823000D01*
X112124540Y-107823000D01*
X112144326Y-108011256D01*
X112202821Y-108191284D01*
X112297467Y-108355216D01*
X112424129Y-108495888D01*
X112577270Y-108607151D01*
X112750197Y-108684144D01*
X112848212Y-108704978D01*
X112928897Y-108722128D01*
X112928901Y-108722128D01*
X112935354Y-108723500D01*
X113124646Y-108723500D01*
X113131099Y-108722128D01*
X113131103Y-108722128D01*
X113211788Y-108704978D01*
X113309803Y-108684144D01*
X113482730Y-108607151D01*
X113635871Y-108495888D01*
X113762533Y-108355216D01*
X113857179Y-108191284D01*
X113915674Y-108011256D01*
X113935460Y-107823000D01*
X117204540Y-107823000D01*
X117224326Y-108011256D01*
X117282821Y-108191284D01*
X117377467Y-108355216D01*
X117504129Y-108495888D01*
X117657270Y-108607151D01*
X117830197Y-108684144D01*
X117928212Y-108704978D01*
X118008897Y-108722128D01*
X118008901Y-108722128D01*
X118015354Y-108723500D01*
X118204646Y-108723500D01*
X118211099Y-108722128D01*
X118211103Y-108722128D01*
X118291788Y-108704978D01*
X118389803Y-108684144D01*
X118562730Y-108607151D01*
X118715871Y-108495888D01*
X118842533Y-108355216D01*
X118937179Y-108191284D01*
X118995674Y-108011256D01*
X119015460Y-107823000D01*
X118995674Y-107634744D01*
X118937179Y-107454716D01*
X118842533Y-107290784D01*
X118715871Y-107150112D01*
X118562730Y-107038849D01*
X118389803Y-106961856D01*
X118291788Y-106941022D01*
X118211103Y-106923872D01*
X118211099Y-106923872D01*
X118204646Y-106922500D01*
X118015354Y-106922500D01*
X118008901Y-106923872D01*
X118008897Y-106923872D01*
X117928212Y-106941022D01*
X117830197Y-106961856D01*
X117657270Y-107038849D01*
X117504129Y-107150112D01*
X117377467Y-107290784D01*
X117282821Y-107454716D01*
X117224326Y-107634744D01*
X117204540Y-107823000D01*
X113935460Y-107823000D01*
X113915674Y-107634744D01*
X113857179Y-107454716D01*
X113762533Y-107290784D01*
X113635871Y-107150112D01*
X113482730Y-107038849D01*
X113309803Y-106961856D01*
X113211788Y-106941022D01*
X113131103Y-106923872D01*
X113131099Y-106923872D01*
X113124646Y-106922500D01*
X112935354Y-106922500D01*
X112928901Y-106923872D01*
X112928897Y-106923872D01*
X112848212Y-106941022D01*
X112750197Y-106961856D01*
X112577270Y-107038849D01*
X112424129Y-107150112D01*
X112297467Y-107290784D01*
X112202821Y-107454716D01*
X112144326Y-107634744D01*
X112124540Y-107823000D01*
X110617000Y-107823000D01*
X110617000Y-104775000D01*
X121776540Y-104775000D01*
X121796326Y-104963256D01*
X121854821Y-105143284D01*
X121949467Y-105307216D01*
X122076129Y-105447888D01*
X122229270Y-105559151D01*
X122402197Y-105636144D01*
X122500212Y-105656978D01*
X122580897Y-105674128D01*
X122580901Y-105674128D01*
X122587354Y-105675500D01*
X122776646Y-105675500D01*
X122783099Y-105674128D01*
X122783103Y-105674128D01*
X122863788Y-105656978D01*
X122961803Y-105636144D01*
X123134730Y-105559151D01*
X123242939Y-105480533D01*
X123309807Y-105456674D01*
X123378959Y-105472755D01*
X123391061Y-105480533D01*
X123499270Y-105559151D01*
X123672197Y-105636144D01*
X123770212Y-105656978D01*
X123850897Y-105674128D01*
X123850901Y-105674128D01*
X123857354Y-105675500D01*
X124046646Y-105675500D01*
X124053099Y-105674128D01*
X124053103Y-105674128D01*
X124133788Y-105656978D01*
X124231803Y-105636144D01*
X124404730Y-105559151D01*
X124557871Y-105447888D01*
X124684533Y-105307216D01*
X124779179Y-105143284D01*
X124837674Y-104963256D01*
X124857460Y-104775000D01*
X125586540Y-104775000D01*
X125606326Y-104963256D01*
X125664821Y-105143284D01*
X125759467Y-105307216D01*
X125886129Y-105447888D01*
X126039270Y-105559151D01*
X126212197Y-105636144D01*
X126310212Y-105656978D01*
X126390897Y-105674128D01*
X126390901Y-105674128D01*
X126397354Y-105675500D01*
X126586646Y-105675500D01*
X126593099Y-105674128D01*
X126593103Y-105674128D01*
X126673788Y-105656978D01*
X126771803Y-105636144D01*
X126944730Y-105559151D01*
X127097871Y-105447888D01*
X127224533Y-105307216D01*
X127319179Y-105143284D01*
X127377674Y-104963256D01*
X127397460Y-104775000D01*
X127377674Y-104586744D01*
X127319179Y-104406716D01*
X127224533Y-104242784D01*
X127097871Y-104102112D01*
X126944730Y-103990849D01*
X126771803Y-103913856D01*
X126673788Y-103893022D01*
X126593103Y-103875872D01*
X126593099Y-103875872D01*
X126586646Y-103874500D01*
X126397354Y-103874500D01*
X126390901Y-103875872D01*
X126390897Y-103875872D01*
X126310212Y-103893022D01*
X126212197Y-103913856D01*
X126039270Y-103990849D01*
X125886129Y-104102112D01*
X125759467Y-104242784D01*
X125664821Y-104406716D01*
X125606326Y-104586744D01*
X125586540Y-104775000D01*
X124857460Y-104775000D01*
X124837674Y-104586744D01*
X124779179Y-104406716D01*
X124684533Y-104242784D01*
X124557871Y-104102112D01*
X124404730Y-103990849D01*
X124231803Y-103913856D01*
X124133788Y-103893022D01*
X124053103Y-103875872D01*
X124053099Y-103875872D01*
X124046646Y-103874500D01*
X123857354Y-103874500D01*
X123850901Y-103875872D01*
X123850897Y-103875872D01*
X123770212Y-103893022D01*
X123672197Y-103913856D01*
X123499270Y-103990849D01*
X123493929Y-103994729D01*
X123493928Y-103994730D01*
X123391061Y-104069467D01*
X123324193Y-104093326D01*
X123255041Y-104077245D01*
X123242939Y-104069467D01*
X123140072Y-103994730D01*
X123140071Y-103994729D01*
X123134730Y-103990849D01*
X122961803Y-103913856D01*
X122863788Y-103893022D01*
X122783103Y-103875872D01*
X122783099Y-103875872D01*
X122776646Y-103874500D01*
X122587354Y-103874500D01*
X122580901Y-103875872D01*
X122580897Y-103875872D01*
X122500212Y-103893022D01*
X122402197Y-103913856D01*
X122229270Y-103990849D01*
X122076129Y-104102112D01*
X121949467Y-104242784D01*
X121854821Y-104406716D01*
X121796326Y-104586744D01*
X121776540Y-104775000D01*
X110617000Y-104775000D01*
X110617000Y-102361000D01*
X110637002Y-102292879D01*
X110690658Y-102246386D01*
X110743000Y-102235000D01*
X132589000Y-102235000D01*
X132657121Y-102255002D01*
G37*
%TD.AperFunction*%
%TD*%
%TA.AperFunction,Conductor*%
%TO.N,-15V_H1*%
G36*
X144087121Y-102255002D02*
G01*
X144133614Y-102308658D01*
X144145000Y-102361000D01*
X144145000Y-115189000D01*
X156845000Y-115189000D01*
X156845000Y-129286000D01*
X146951013Y-129286000D01*
X146882892Y-129265998D01*
X146836399Y-129212342D01*
X146826295Y-129142068D01*
X146855789Y-129077488D01*
X146883851Y-129054318D01*
X146883730Y-129054151D01*
X146886422Y-129052195D01*
X147036871Y-128942888D01*
X147163533Y-128802216D01*
X147258179Y-128638284D01*
X147316674Y-128458256D01*
X147336460Y-128270000D01*
X147316674Y-128081744D01*
X147258179Y-127901716D01*
X147163533Y-127737784D01*
X147036871Y-127597112D01*
X146883730Y-127485849D01*
X146710803Y-127408856D01*
X146612788Y-127388022D01*
X146532103Y-127370872D01*
X146532099Y-127370872D01*
X146525646Y-127369500D01*
X146336354Y-127369500D01*
X146329901Y-127370872D01*
X146329897Y-127370872D01*
X146249212Y-127388022D01*
X146151197Y-127408856D01*
X145978270Y-127485849D01*
X145825129Y-127597112D01*
X145698467Y-127737784D01*
X145603821Y-127901716D01*
X145545326Y-128081744D01*
X145525540Y-128270000D01*
X145545326Y-128458256D01*
X145603821Y-128638284D01*
X145698467Y-128802216D01*
X145825129Y-128942888D01*
X145978270Y-129054151D01*
X145977766Y-129054845D01*
X146022978Y-129102260D01*
X146036417Y-129171973D01*
X146010032Y-129237885D01*
X145952201Y-129279069D01*
X145910987Y-129286000D01*
X144271000Y-129286000D01*
X144202879Y-129265998D01*
X144156386Y-129212342D01*
X144145000Y-129160000D01*
X144145000Y-122758000D01*
X144821177Y-122758000D01*
X144840430Y-122978068D01*
X144841854Y-122983381D01*
X144894473Y-123179756D01*
X144897606Y-123191450D01*
X144899928Y-123196431D01*
X144899929Y-123196432D01*
X144985835Y-123380657D01*
X144990966Y-123391661D01*
X145117674Y-123572620D01*
X145273880Y-123728826D01*
X145278388Y-123731983D01*
X145278391Y-123731985D01*
X145443261Y-123847428D01*
X145454838Y-123855534D01*
X145459820Y-123857857D01*
X145459825Y-123857860D01*
X145648998Y-123946072D01*
X145655050Y-123948894D01*
X145660358Y-123950316D01*
X145660360Y-123950317D01*
X145725752Y-123967839D01*
X145868432Y-124006070D01*
X146088500Y-124025323D01*
X146308568Y-124006070D01*
X146451248Y-123967839D01*
X146516640Y-123950317D01*
X146516642Y-123950316D01*
X146521950Y-123948894D01*
X146528002Y-123946072D01*
X146717175Y-123857860D01*
X146717180Y-123857857D01*
X146722162Y-123855534D01*
X146733739Y-123847428D01*
X146898609Y-123731985D01*
X146898612Y-123731983D01*
X146903120Y-123728826D01*
X147059326Y-123572620D01*
X147186034Y-123391661D01*
X147191166Y-123380657D01*
X147250925Y-123252502D01*
X147297842Y-123199217D01*
X147366120Y-123179756D01*
X147434080Y-123200298D01*
X147479315Y-123252502D01*
X147541398Y-123385638D01*
X147666902Y-123564877D01*
X147821623Y-123719598D01*
X147826131Y-123722755D01*
X147826134Y-123722757D01*
X147996352Y-123841945D01*
X148000861Y-123845102D01*
X148005843Y-123847425D01*
X148005848Y-123847428D01*
X148194188Y-123935252D01*
X148199170Y-123937575D01*
X148204478Y-123938997D01*
X148204480Y-123938998D01*
X148270245Y-123956620D01*
X148410523Y-123994207D01*
X148628500Y-124013277D01*
X148846477Y-123994207D01*
X148986755Y-123956620D01*
X149052520Y-123938998D01*
X149052522Y-123938997D01*
X149057830Y-123937575D01*
X149062812Y-123935252D01*
X149251152Y-123847428D01*
X149251157Y-123847425D01*
X149256139Y-123845102D01*
X149260648Y-123841945D01*
X149430866Y-123722757D01*
X149430869Y-123722755D01*
X149435377Y-123719598D01*
X149590098Y-123564877D01*
X149715602Y-123385638D01*
X149784305Y-123238305D01*
X149831223Y-123185020D01*
X149899500Y-123165559D01*
X149967460Y-123186101D01*
X150012695Y-123238305D01*
X150081398Y-123385638D01*
X150206902Y-123564877D01*
X150361623Y-123719598D01*
X150366131Y-123722755D01*
X150366134Y-123722757D01*
X150536352Y-123841945D01*
X150540861Y-123845102D01*
X150545843Y-123847425D01*
X150545848Y-123847428D01*
X150734188Y-123935252D01*
X150739170Y-123937575D01*
X150744478Y-123938997D01*
X150744480Y-123938998D01*
X150810245Y-123956620D01*
X150950523Y-123994207D01*
X151168500Y-124013277D01*
X151386477Y-123994207D01*
X151526755Y-123956620D01*
X151592520Y-123938998D01*
X151592522Y-123938997D01*
X151597830Y-123937575D01*
X151602812Y-123935252D01*
X151791152Y-123847428D01*
X151791157Y-123847425D01*
X151796139Y-123845102D01*
X151800648Y-123841945D01*
X151848897Y-123808161D01*
X153022893Y-123808161D01*
X153032187Y-123820175D01*
X153072588Y-123848464D01*
X153082084Y-123853947D01*
X153271613Y-123942326D01*
X153281905Y-123946072D01*
X153483901Y-124000196D01*
X153494696Y-124002099D01*
X153703025Y-124020326D01*
X153713975Y-124020326D01*
X153922304Y-124002099D01*
X153933099Y-124000196D01*
X154135095Y-123946072D01*
X154145387Y-123942326D01*
X154334916Y-123853947D01*
X154344412Y-123848464D01*
X154385648Y-123819590D01*
X154394023Y-123809112D01*
X154386957Y-123795668D01*
X153721311Y-123130021D01*
X153707368Y-123122408D01*
X153705534Y-123122539D01*
X153698920Y-123126790D01*
X153029320Y-123796391D01*
X153022893Y-123808161D01*
X151848897Y-123808161D01*
X151970866Y-123722757D01*
X151970869Y-123722755D01*
X151975377Y-123719598D01*
X152130098Y-123564877D01*
X152255602Y-123385638D01*
X152320168Y-123247177D01*
X152367086Y-123193892D01*
X152435363Y-123174431D01*
X152503323Y-123194973D01*
X152548558Y-123247177D01*
X152612554Y-123384417D01*
X152618034Y-123393907D01*
X152646911Y-123435149D01*
X152657387Y-123443523D01*
X152670834Y-123436455D01*
X153336479Y-122770811D01*
X153342856Y-122759132D01*
X154072908Y-122759132D01*
X154073039Y-122760966D01*
X154077290Y-122767580D01*
X154746891Y-123437180D01*
X154758661Y-123443607D01*
X154770676Y-123434311D01*
X154798966Y-123393907D01*
X154804446Y-123384417D01*
X154892826Y-123194887D01*
X154896572Y-123184595D01*
X154950696Y-122982599D01*
X154952599Y-122971804D01*
X154970826Y-122763475D01*
X154970826Y-122752525D01*
X154952599Y-122544196D01*
X154950696Y-122533401D01*
X154896572Y-122331405D01*
X154892826Y-122321113D01*
X154804446Y-122131583D01*
X154798966Y-122122093D01*
X154770089Y-122080851D01*
X154759613Y-122072477D01*
X154746166Y-122079545D01*
X154080521Y-122745189D01*
X154072908Y-122759132D01*
X153342856Y-122759132D01*
X153344092Y-122756868D01*
X153343961Y-122755034D01*
X153339710Y-122748420D01*
X152670109Y-122078820D01*
X152658339Y-122072393D01*
X152646324Y-122081689D01*
X152618034Y-122122093D01*
X152612554Y-122131583D01*
X152548558Y-122268823D01*
X152501640Y-122322108D01*
X152433363Y-122341569D01*
X152365403Y-122321027D01*
X152320168Y-122268823D01*
X152257925Y-122135343D01*
X152257923Y-122135340D01*
X152255602Y-122130362D01*
X152130098Y-121951123D01*
X151975377Y-121796402D01*
X151970869Y-121793245D01*
X151970866Y-121793243D01*
X151847537Y-121706887D01*
X153022977Y-121706887D01*
X153030045Y-121720334D01*
X153695689Y-122385979D01*
X153709632Y-122393592D01*
X153711466Y-122393461D01*
X153718080Y-122389210D01*
X154387680Y-121719609D01*
X154394107Y-121707839D01*
X154384813Y-121695825D01*
X154344412Y-121667536D01*
X154334916Y-121662053D01*
X154145387Y-121573674D01*
X154135095Y-121569928D01*
X153933099Y-121515804D01*
X153922304Y-121513901D01*
X153713975Y-121495674D01*
X153703025Y-121495674D01*
X153494696Y-121513901D01*
X153483901Y-121515804D01*
X153281905Y-121569928D01*
X153271613Y-121573674D01*
X153082083Y-121662054D01*
X153072593Y-121667534D01*
X153031351Y-121696411D01*
X153022977Y-121706887D01*
X151847537Y-121706887D01*
X151800648Y-121674055D01*
X151800645Y-121674053D01*
X151796139Y-121670898D01*
X151791157Y-121668575D01*
X151791152Y-121668572D01*
X151602812Y-121580748D01*
X151602811Y-121580747D01*
X151597830Y-121578425D01*
X151592522Y-121577003D01*
X151592520Y-121577002D01*
X151526755Y-121559380D01*
X151386477Y-121521793D01*
X151168500Y-121502723D01*
X150950523Y-121521793D01*
X150810245Y-121559380D01*
X150744480Y-121577002D01*
X150744478Y-121577003D01*
X150739170Y-121578425D01*
X150734190Y-121580747D01*
X150734188Y-121580748D01*
X150545843Y-121668575D01*
X150545840Y-121668577D01*
X150540862Y-121670898D01*
X150361623Y-121796402D01*
X150206902Y-121951123D01*
X150081398Y-122130362D01*
X150079077Y-122135340D01*
X150079075Y-122135343D01*
X150012695Y-122277695D01*
X149965777Y-122330980D01*
X149897500Y-122350441D01*
X149829540Y-122329899D01*
X149784305Y-122277695D01*
X149717925Y-122135343D01*
X149717923Y-122135340D01*
X149715602Y-122130362D01*
X149590098Y-121951123D01*
X149435377Y-121796402D01*
X149430869Y-121793245D01*
X149430866Y-121793243D01*
X149260648Y-121674055D01*
X149260645Y-121674053D01*
X149256139Y-121670898D01*
X149251157Y-121668575D01*
X149251152Y-121668572D01*
X149062812Y-121580748D01*
X149062811Y-121580747D01*
X149057830Y-121578425D01*
X149052522Y-121577003D01*
X149052520Y-121577002D01*
X148986755Y-121559380D01*
X148846477Y-121521793D01*
X148628500Y-121502723D01*
X148410523Y-121521793D01*
X148270245Y-121559380D01*
X148204480Y-121577002D01*
X148204478Y-121577003D01*
X148199170Y-121578425D01*
X148194190Y-121580747D01*
X148194188Y-121580748D01*
X148005843Y-121668575D01*
X148005840Y-121668577D01*
X148000862Y-121670898D01*
X147821623Y-121796402D01*
X147666902Y-121951123D01*
X147541398Y-122130362D01*
X147539077Y-122135340D01*
X147539075Y-122135343D01*
X147479315Y-122263498D01*
X147432397Y-122316783D01*
X147364120Y-122336244D01*
X147296160Y-122315702D01*
X147250925Y-122263498D01*
X147188357Y-122129320D01*
X147188355Y-122129317D01*
X147186034Y-122124339D01*
X147059326Y-121943380D01*
X146903120Y-121787174D01*
X146898612Y-121784017D01*
X146898609Y-121784015D01*
X146726671Y-121663623D01*
X146726668Y-121663621D01*
X146722162Y-121660466D01*
X146717180Y-121658143D01*
X146717175Y-121658140D01*
X146526932Y-121569429D01*
X146526931Y-121569429D01*
X146521950Y-121567106D01*
X146516642Y-121565684D01*
X146516640Y-121565683D01*
X146451248Y-121548161D01*
X146308568Y-121509930D01*
X146088500Y-121490677D01*
X145868432Y-121509930D01*
X145725752Y-121548161D01*
X145660360Y-121565683D01*
X145660358Y-121565684D01*
X145655050Y-121567106D01*
X145650069Y-121569428D01*
X145650068Y-121569429D01*
X145459820Y-121658143D01*
X145459817Y-121658145D01*
X145454839Y-121660466D01*
X145273880Y-121787174D01*
X145117674Y-121943380D01*
X144990966Y-122124339D01*
X144988645Y-122129317D01*
X144988643Y-122129320D01*
X144926075Y-122263498D01*
X144897606Y-122324550D01*
X144896184Y-122329858D01*
X144896183Y-122329860D01*
X144893046Y-122341569D01*
X144840430Y-122537932D01*
X144821177Y-122758000D01*
X144145000Y-122758000D01*
X144145000Y-120523000D01*
X133349000Y-120523000D01*
X133280879Y-120502998D01*
X133234386Y-120449342D01*
X133223000Y-120397000D01*
X133223000Y-118169002D01*
X135427380Y-118169002D01*
X135438502Y-118452084D01*
X135489400Y-118730775D01*
X135579058Y-118999514D01*
X135581050Y-119003501D01*
X135581051Y-119003503D01*
X135662449Y-119166405D01*
X135705687Y-119252939D01*
X135866761Y-119485993D01*
X136059065Y-119694027D01*
X136062519Y-119696839D01*
X136275307Y-119870075D01*
X136275311Y-119870078D01*
X136278764Y-119872889D01*
X136521472Y-120019012D01*
X136525567Y-120020746D01*
X136525569Y-120020747D01*
X136778247Y-120127742D01*
X136778254Y-120127744D01*
X136782348Y-120129478D01*
X136882492Y-120156031D01*
X137051889Y-120200946D01*
X137051893Y-120200947D01*
X137056186Y-120202085D01*
X137060595Y-120202607D01*
X137060601Y-120202608D01*
X137217954Y-120221232D01*
X137337523Y-120235384D01*
X137620745Y-120228709D01*
X137625143Y-120227977D01*
X137895810Y-120182926D01*
X137895814Y-120182925D01*
X137900200Y-120182195D01*
X137904441Y-120180854D01*
X137904444Y-120180853D01*
X138166068Y-120098112D01*
X138166070Y-120098111D01*
X138170314Y-120096769D01*
X138174325Y-120094843D01*
X138174330Y-120094841D01*
X138421678Y-119976066D01*
X138421679Y-119976065D01*
X138425697Y-119974136D01*
X138573781Y-119875190D01*
X138657545Y-119819221D01*
X138657549Y-119819218D01*
X138661253Y-119816743D01*
X138872281Y-119627730D01*
X139054573Y-119410868D01*
X139204489Y-119170485D01*
X139222967Y-119128689D01*
X139268803Y-119074474D01*
X139336676Y-119053646D01*
X139405034Y-119072820D01*
X139450919Y-119123318D01*
X139472449Y-119166405D01*
X139515687Y-119252939D01*
X139676761Y-119485993D01*
X139869065Y-119694027D01*
X139872519Y-119696839D01*
X140085307Y-119870075D01*
X140085311Y-119870078D01*
X140088764Y-119872889D01*
X140331472Y-120019012D01*
X140335567Y-120020746D01*
X140335569Y-120020747D01*
X140588247Y-120127742D01*
X140588254Y-120127744D01*
X140592348Y-120129478D01*
X140692492Y-120156031D01*
X140861889Y-120200946D01*
X140861893Y-120200947D01*
X140866186Y-120202085D01*
X140870595Y-120202607D01*
X140870601Y-120202608D01*
X141027954Y-120221232D01*
X141147523Y-120235384D01*
X141430745Y-120228709D01*
X141435143Y-120227977D01*
X141705810Y-120182926D01*
X141705814Y-120182925D01*
X141710200Y-120182195D01*
X141714441Y-120180854D01*
X141714444Y-120180853D01*
X141976068Y-120098112D01*
X141976070Y-120098111D01*
X141980314Y-120096769D01*
X141984325Y-120094843D01*
X141984330Y-120094841D01*
X142231678Y-119976066D01*
X142231679Y-119976065D01*
X142235697Y-119974136D01*
X142383781Y-119875190D01*
X142467545Y-119819221D01*
X142467549Y-119819218D01*
X142471253Y-119816743D01*
X142682281Y-119627730D01*
X142864573Y-119410868D01*
X143014489Y-119170485D01*
X143129040Y-118911376D01*
X143205939Y-118638712D01*
X143243652Y-118357933D01*
X143247610Y-118232000D01*
X143243149Y-118169002D01*
X146857380Y-118169002D01*
X146868502Y-118452084D01*
X146919400Y-118730775D01*
X147009058Y-118999514D01*
X147011050Y-119003501D01*
X147011051Y-119003503D01*
X147092449Y-119166405D01*
X147135687Y-119252939D01*
X147296761Y-119485993D01*
X147489065Y-119694027D01*
X147492519Y-119696839D01*
X147705307Y-119870075D01*
X147705311Y-119870078D01*
X147708764Y-119872889D01*
X147951472Y-120019012D01*
X147955567Y-120020746D01*
X147955569Y-120020747D01*
X148208247Y-120127742D01*
X148208254Y-120127744D01*
X148212348Y-120129478D01*
X148312492Y-120156031D01*
X148481889Y-120200946D01*
X148481893Y-120200947D01*
X148486186Y-120202085D01*
X148490595Y-120202607D01*
X148490601Y-120202608D01*
X148647954Y-120221232D01*
X148767523Y-120235384D01*
X149050745Y-120228709D01*
X149055143Y-120227977D01*
X149325810Y-120182926D01*
X149325814Y-120182925D01*
X149330200Y-120182195D01*
X149334441Y-120180854D01*
X149334444Y-120180853D01*
X149596068Y-120098112D01*
X149596070Y-120098111D01*
X149600314Y-120096769D01*
X149604325Y-120094843D01*
X149604330Y-120094841D01*
X149851678Y-119976066D01*
X149851679Y-119976065D01*
X149855697Y-119974136D01*
X150003781Y-119875190D01*
X150087545Y-119819221D01*
X150087549Y-119819218D01*
X150091253Y-119816743D01*
X150302281Y-119627730D01*
X150484573Y-119410868D01*
X150634489Y-119170485D01*
X150652967Y-119128689D01*
X150698803Y-119074474D01*
X150766676Y-119053646D01*
X150835034Y-119072820D01*
X150880919Y-119123318D01*
X150902449Y-119166405D01*
X150945687Y-119252939D01*
X151106761Y-119485993D01*
X151299065Y-119694027D01*
X151302519Y-119696839D01*
X151515307Y-119870075D01*
X151515311Y-119870078D01*
X151518764Y-119872889D01*
X151761472Y-120019012D01*
X151765567Y-120020746D01*
X151765569Y-120020747D01*
X152018247Y-120127742D01*
X152018254Y-120127744D01*
X152022348Y-120129478D01*
X152122492Y-120156031D01*
X152291889Y-120200946D01*
X152291893Y-120200947D01*
X152296186Y-120202085D01*
X152300595Y-120202607D01*
X152300601Y-120202608D01*
X152457954Y-120221232D01*
X152577523Y-120235384D01*
X152860745Y-120228709D01*
X152865143Y-120227977D01*
X153135810Y-120182926D01*
X153135814Y-120182925D01*
X153140200Y-120182195D01*
X153144441Y-120180854D01*
X153144444Y-120180853D01*
X153406068Y-120098112D01*
X153406070Y-120098111D01*
X153410314Y-120096769D01*
X153414325Y-120094843D01*
X153414330Y-120094841D01*
X153661678Y-119976066D01*
X153661679Y-119976065D01*
X153665697Y-119974136D01*
X153813781Y-119875190D01*
X153897545Y-119819221D01*
X153897549Y-119819218D01*
X153901253Y-119816743D01*
X154112281Y-119627730D01*
X154294573Y-119410868D01*
X154444489Y-119170485D01*
X154559040Y-118911376D01*
X154635939Y-118638712D01*
X154673652Y-118357933D01*
X154677610Y-118232000D01*
X154657601Y-117949407D01*
X154644204Y-117887177D01*
X154598911Y-117676800D01*
X154598911Y-117676798D01*
X154597975Y-117672453D01*
X154499920Y-117406663D01*
X154466159Y-117344092D01*
X154367506Y-117161256D01*
X154365393Y-117157340D01*
X154197078Y-116929460D01*
X154150554Y-116882199D01*
X154001465Y-116730751D01*
X153998334Y-116727570D01*
X153994794Y-116724869D01*
X153994788Y-116724863D01*
X153776667Y-116558398D01*
X153776663Y-116558395D01*
X153773126Y-116555696D01*
X153709179Y-116519884D01*
X153529837Y-116419448D01*
X153529832Y-116419445D01*
X153525947Y-116417270D01*
X153521789Y-116415662D01*
X153521784Y-116415659D01*
X153265885Y-116316659D01*
X153265879Y-116316657D01*
X153261730Y-116315052D01*
X153257398Y-116314048D01*
X153257395Y-116314047D01*
X153182141Y-116296604D01*
X152985747Y-116251082D01*
X152703503Y-116226637D01*
X152699068Y-116226881D01*
X152699064Y-116226881D01*
X152425073Y-116241960D01*
X152425066Y-116241961D01*
X152420630Y-116242205D01*
X152282743Y-116269632D01*
X152147146Y-116296604D01*
X152147141Y-116296605D01*
X152142774Y-116297474D01*
X152138571Y-116298950D01*
X151879684Y-116389864D01*
X151879681Y-116389865D01*
X151875476Y-116391342D01*
X151871523Y-116393395D01*
X151871517Y-116393398D01*
X151729135Y-116467360D01*
X151624072Y-116521936D01*
X151620457Y-116524519D01*
X151620451Y-116524523D01*
X151573048Y-116558398D01*
X151393576Y-116686651D01*
X151390349Y-116689729D01*
X151390347Y-116689731D01*
X151350682Y-116727570D01*
X151188588Y-116882199D01*
X151013199Y-117104680D01*
X150874138Y-117344092D01*
X150822627Y-117392951D01*
X150752879Y-117406205D01*
X150687037Y-117379646D01*
X150654296Y-117340639D01*
X150557506Y-117161256D01*
X150555393Y-117157340D01*
X150387078Y-116929460D01*
X150340554Y-116882199D01*
X150191465Y-116730751D01*
X150188334Y-116727570D01*
X150184794Y-116724869D01*
X150184788Y-116724863D01*
X149966667Y-116558398D01*
X149966663Y-116558395D01*
X149963126Y-116555696D01*
X149899179Y-116519884D01*
X149719837Y-116419448D01*
X149719832Y-116419445D01*
X149715947Y-116417270D01*
X149711789Y-116415662D01*
X149711784Y-116415659D01*
X149455885Y-116316659D01*
X149455879Y-116316657D01*
X149451730Y-116315052D01*
X149447398Y-116314048D01*
X149447395Y-116314047D01*
X149372141Y-116296604D01*
X149175747Y-116251082D01*
X148893503Y-116226637D01*
X148889068Y-116226881D01*
X148889064Y-116226881D01*
X148615073Y-116241960D01*
X148615066Y-116241961D01*
X148610630Y-116242205D01*
X148472743Y-116269632D01*
X148337146Y-116296604D01*
X148337141Y-116296605D01*
X148332774Y-116297474D01*
X148328571Y-116298950D01*
X148069684Y-116389864D01*
X148069681Y-116389865D01*
X148065476Y-116391342D01*
X148061523Y-116393395D01*
X148061517Y-116393398D01*
X147919135Y-116467360D01*
X147814072Y-116521936D01*
X147810457Y-116524519D01*
X147810451Y-116524523D01*
X147763048Y-116558398D01*
X147583576Y-116686651D01*
X147580349Y-116689729D01*
X147580347Y-116689731D01*
X147540682Y-116727570D01*
X147378588Y-116882199D01*
X147203199Y-117104680D01*
X147172612Y-117157340D01*
X147063141Y-117345807D01*
X147063138Y-117345813D01*
X147060907Y-117349654D01*
X146954552Y-117612232D01*
X146953481Y-117616545D01*
X146953479Y-117616550D01*
X146939593Y-117672453D01*
X146886255Y-117887177D01*
X146885801Y-117891605D01*
X146885801Y-117891607D01*
X146879879Y-117949407D01*
X146857380Y-118169002D01*
X143243149Y-118169002D01*
X143227601Y-117949407D01*
X143214204Y-117887177D01*
X143168911Y-117676800D01*
X143168911Y-117676798D01*
X143167975Y-117672453D01*
X143069920Y-117406663D01*
X143036159Y-117344092D01*
X142937506Y-117161256D01*
X142935393Y-117157340D01*
X142767078Y-116929460D01*
X142720554Y-116882199D01*
X142571465Y-116730751D01*
X142568334Y-116727570D01*
X142564794Y-116724869D01*
X142564788Y-116724863D01*
X142346667Y-116558398D01*
X142346663Y-116558395D01*
X142343126Y-116555696D01*
X142279179Y-116519884D01*
X142099837Y-116419448D01*
X142099832Y-116419445D01*
X142095947Y-116417270D01*
X142091789Y-116415662D01*
X142091784Y-116415659D01*
X141835885Y-116316659D01*
X141835879Y-116316657D01*
X141831730Y-116315052D01*
X141827398Y-116314048D01*
X141827395Y-116314047D01*
X141752141Y-116296604D01*
X141555747Y-116251082D01*
X141273503Y-116226637D01*
X141269068Y-116226881D01*
X141269064Y-116226881D01*
X140995073Y-116241960D01*
X140995066Y-116241961D01*
X140990630Y-116242205D01*
X140852743Y-116269632D01*
X140717146Y-116296604D01*
X140717141Y-116296605D01*
X140712774Y-116297474D01*
X140708571Y-116298950D01*
X140449684Y-116389864D01*
X140449681Y-116389865D01*
X140445476Y-116391342D01*
X140441523Y-116393395D01*
X140441517Y-116393398D01*
X140299135Y-116467360D01*
X140194072Y-116521936D01*
X140190457Y-116524519D01*
X140190451Y-116524523D01*
X140143048Y-116558398D01*
X139963576Y-116686651D01*
X139960349Y-116689729D01*
X139960347Y-116689731D01*
X139920682Y-116727570D01*
X139758588Y-116882199D01*
X139583199Y-117104680D01*
X139444138Y-117344092D01*
X139392627Y-117392951D01*
X139322879Y-117406205D01*
X139257037Y-117379646D01*
X139224296Y-117340639D01*
X139127506Y-117161256D01*
X139125393Y-117157340D01*
X138957078Y-116929460D01*
X138910554Y-116882199D01*
X138761465Y-116730751D01*
X138758334Y-116727570D01*
X138754794Y-116724869D01*
X138754788Y-116724863D01*
X138536667Y-116558398D01*
X138536663Y-116558395D01*
X138533126Y-116555696D01*
X138469179Y-116519884D01*
X138289837Y-116419448D01*
X138289832Y-116419445D01*
X138285947Y-116417270D01*
X138281789Y-116415662D01*
X138281784Y-116415659D01*
X138025885Y-116316659D01*
X138025879Y-116316657D01*
X138021730Y-116315052D01*
X138017398Y-116314048D01*
X138017395Y-116314047D01*
X137942141Y-116296604D01*
X137745747Y-116251082D01*
X137463503Y-116226637D01*
X137459068Y-116226881D01*
X137459064Y-116226881D01*
X137185073Y-116241960D01*
X137185066Y-116241961D01*
X137180630Y-116242205D01*
X137042743Y-116269632D01*
X136907146Y-116296604D01*
X136907141Y-116296605D01*
X136902774Y-116297474D01*
X136898571Y-116298950D01*
X136639684Y-116389864D01*
X136639681Y-116389865D01*
X136635476Y-116391342D01*
X136631523Y-116393395D01*
X136631517Y-116393398D01*
X136489135Y-116467360D01*
X136384072Y-116521936D01*
X136380457Y-116524519D01*
X136380451Y-116524523D01*
X136333048Y-116558398D01*
X136153576Y-116686651D01*
X136150349Y-116689729D01*
X136150347Y-116689731D01*
X136110682Y-116727570D01*
X135948588Y-116882199D01*
X135773199Y-117104680D01*
X135742612Y-117157340D01*
X135633141Y-117345807D01*
X135633138Y-117345813D01*
X135630907Y-117349654D01*
X135524552Y-117612232D01*
X135523481Y-117616545D01*
X135523479Y-117616550D01*
X135509593Y-117672453D01*
X135456255Y-117887177D01*
X135455801Y-117891605D01*
X135455801Y-117891607D01*
X135449879Y-117949407D01*
X135427380Y-118169002D01*
X133223000Y-118169002D01*
X133223000Y-104775000D01*
X134476540Y-104775000D01*
X134477230Y-104781565D01*
X134491976Y-104921863D01*
X134496326Y-104963256D01*
X134554821Y-105143284D01*
X134649467Y-105307216D01*
X134653885Y-105312123D01*
X134653886Y-105312124D01*
X134721165Y-105386844D01*
X134776129Y-105447888D01*
X134929270Y-105559151D01*
X135102197Y-105636144D01*
X135200212Y-105656978D01*
X135280897Y-105674128D01*
X135280901Y-105674128D01*
X135287354Y-105675500D01*
X135476646Y-105675500D01*
X135483099Y-105674128D01*
X135483103Y-105674128D01*
X135563788Y-105656978D01*
X135661803Y-105636144D01*
X135834730Y-105559151D01*
X135942939Y-105480533D01*
X136009807Y-105456674D01*
X136078959Y-105472755D01*
X136091061Y-105480533D01*
X136199270Y-105559151D01*
X136372197Y-105636144D01*
X136470212Y-105656978D01*
X136550897Y-105674128D01*
X136550901Y-105674128D01*
X136557354Y-105675500D01*
X136746646Y-105675500D01*
X136753099Y-105674128D01*
X136753103Y-105674128D01*
X136833788Y-105656978D01*
X136931803Y-105636144D01*
X137104730Y-105559151D01*
X137257871Y-105447888D01*
X137312836Y-105386844D01*
X137380114Y-105312124D01*
X137380115Y-105312123D01*
X137384533Y-105307216D01*
X137479179Y-105143284D01*
X137537674Y-104963256D01*
X137542025Y-104921863D01*
X137556770Y-104781565D01*
X137557460Y-104775000D01*
X138286540Y-104775000D01*
X138287230Y-104781565D01*
X138301976Y-104921863D01*
X138306326Y-104963256D01*
X138364821Y-105143284D01*
X138459467Y-105307216D01*
X138463885Y-105312123D01*
X138463886Y-105312124D01*
X138531165Y-105386844D01*
X138586129Y-105447888D01*
X138739270Y-105559151D01*
X138912197Y-105636144D01*
X139010212Y-105656978D01*
X139090897Y-105674128D01*
X139090901Y-105674128D01*
X139097354Y-105675500D01*
X139286646Y-105675500D01*
X139293099Y-105674128D01*
X139293103Y-105674128D01*
X139373788Y-105656978D01*
X139471803Y-105636144D01*
X139644730Y-105559151D01*
X139797871Y-105447888D01*
X139852836Y-105386844D01*
X139920114Y-105312124D01*
X139920115Y-105312123D01*
X139924533Y-105307216D01*
X140019179Y-105143284D01*
X140077674Y-104963256D01*
X140082025Y-104921863D01*
X140096770Y-104781565D01*
X140097460Y-104775000D01*
X140077674Y-104586744D01*
X140019179Y-104406716D01*
X139924533Y-104242784D01*
X139797871Y-104102112D01*
X139644730Y-103990849D01*
X139471803Y-103913856D01*
X139373788Y-103893022D01*
X139293103Y-103875872D01*
X139293099Y-103875872D01*
X139286646Y-103874500D01*
X139097354Y-103874500D01*
X139090901Y-103875872D01*
X139090897Y-103875872D01*
X139010212Y-103893022D01*
X138912197Y-103913856D01*
X138739270Y-103990849D01*
X138586129Y-104102112D01*
X138459467Y-104242784D01*
X138364821Y-104406716D01*
X138306326Y-104586744D01*
X138286540Y-104775000D01*
X137557460Y-104775000D01*
X137537674Y-104586744D01*
X137479179Y-104406716D01*
X137384533Y-104242784D01*
X137257871Y-104102112D01*
X137104730Y-103990849D01*
X136931803Y-103913856D01*
X136833788Y-103893022D01*
X136753103Y-103875872D01*
X136753099Y-103875872D01*
X136746646Y-103874500D01*
X136557354Y-103874500D01*
X136550901Y-103875872D01*
X136550897Y-103875872D01*
X136470212Y-103893022D01*
X136372197Y-103913856D01*
X136199270Y-103990849D01*
X136193929Y-103994729D01*
X136193928Y-103994730D01*
X136091061Y-104069467D01*
X136024193Y-104093326D01*
X135955041Y-104077245D01*
X135942939Y-104069467D01*
X135840072Y-103994730D01*
X135840071Y-103994729D01*
X135834730Y-103990849D01*
X135661803Y-103913856D01*
X135563788Y-103893022D01*
X135483103Y-103875872D01*
X135483099Y-103875872D01*
X135476646Y-103874500D01*
X135287354Y-103874500D01*
X135280901Y-103875872D01*
X135280897Y-103875872D01*
X135200212Y-103893022D01*
X135102197Y-103913856D01*
X134929270Y-103990849D01*
X134776129Y-104102112D01*
X134649467Y-104242784D01*
X134554821Y-104406716D01*
X134496326Y-104586744D01*
X134476540Y-104775000D01*
X133223000Y-104775000D01*
X133223000Y-102361000D01*
X133243002Y-102292879D01*
X133296658Y-102246386D01*
X133349000Y-102235000D01*
X144019000Y-102235000D01*
X144087121Y-102255002D01*
G37*
%TD.AperFunction*%
%TD*%
%TA.AperFunction,Conductor*%
%TO.N,OUT2*%
G36*
X142563121Y-61918002D02*
G01*
X142609614Y-61971658D01*
X142621000Y-62024000D01*
X142621000Y-70081961D01*
X142602129Y-70148288D01*
X142596617Y-70157190D01*
X142528598Y-70332767D01*
X142494000Y-70517854D01*
X142494000Y-70706146D01*
X142528598Y-70891233D01*
X142596617Y-71066810D01*
X142602129Y-71075712D01*
X142621000Y-71142039D01*
X142621000Y-74599853D01*
X142600998Y-74667974D01*
X142547342Y-74714467D01*
X142477068Y-74724571D01*
X142415192Y-74697356D01*
X142411226Y-74694110D01*
X142404261Y-74689160D01*
X142178122Y-74550582D01*
X142170552Y-74546624D01*
X141927704Y-74440022D01*
X141919644Y-74437120D01*
X141664592Y-74364467D01*
X141656214Y-74362685D01*
X141393656Y-74325318D01*
X141385111Y-74324691D01*
X141119908Y-74323302D01*
X141111374Y-74323839D01*
X140848433Y-74358456D01*
X140840035Y-74360149D01*
X140584238Y-74430127D01*
X140576143Y-74432946D01*
X140332199Y-74536997D01*
X140324577Y-74540881D01*
X140097013Y-74677075D01*
X140089981Y-74681962D01*
X140027053Y-74732377D01*
X140018584Y-74744500D01*
X140024980Y-74755770D01*
X141512115Y-76242905D01*
X141546141Y-76305217D01*
X141541076Y-76376032D01*
X141512115Y-76421095D01*
X140024910Y-77908300D01*
X140017618Y-77921654D01*
X140024673Y-77931627D01*
X140055679Y-77957551D01*
X140062598Y-77962579D01*
X140287272Y-78103515D01*
X140294807Y-78107556D01*
X140536520Y-78216694D01*
X140544551Y-78219680D01*
X140798832Y-78295002D01*
X140807184Y-78296869D01*
X141069340Y-78336984D01*
X141077874Y-78337700D01*
X141343045Y-78341867D01*
X141351596Y-78341418D01*
X141614883Y-78309557D01*
X141623284Y-78307955D01*
X141879824Y-78240653D01*
X141887926Y-78237926D01*
X142132949Y-78136434D01*
X142140617Y-78132628D01*
X142369598Y-77998822D01*
X142376679Y-77994009D01*
X142417254Y-77962195D01*
X142483203Y-77935902D01*
X142552897Y-77949439D01*
X142604210Y-77998506D01*
X142621000Y-78061349D01*
X142621000Y-78741000D01*
X142600998Y-78809121D01*
X142547342Y-78855614D01*
X142495000Y-78867000D01*
X133349000Y-78867000D01*
X133280879Y-78846998D01*
X133234386Y-78793342D01*
X133223000Y-78741000D01*
X133223000Y-77921654D01*
X136207618Y-77921654D01*
X136214673Y-77931627D01*
X136245679Y-77957551D01*
X136252598Y-77962579D01*
X136477272Y-78103515D01*
X136484807Y-78107556D01*
X136726520Y-78216694D01*
X136734551Y-78219680D01*
X136988832Y-78295002D01*
X136997184Y-78296869D01*
X137259340Y-78336984D01*
X137267874Y-78337700D01*
X137533045Y-78341867D01*
X137541596Y-78341418D01*
X137804883Y-78309557D01*
X137813284Y-78307955D01*
X138069824Y-78240653D01*
X138077926Y-78237926D01*
X138322949Y-78136434D01*
X138330617Y-78132628D01*
X138559598Y-77998822D01*
X138566679Y-77994009D01*
X138646655Y-77931301D01*
X138655125Y-77919442D01*
X138648608Y-77907818D01*
X137444812Y-76704022D01*
X137430868Y-76696408D01*
X137429035Y-76696539D01*
X137422420Y-76700790D01*
X136214910Y-77908300D01*
X136207618Y-77921654D01*
X133223000Y-77921654D01*
X133223000Y-76315204D01*
X135419665Y-76315204D01*
X135434932Y-76579969D01*
X135436005Y-76588470D01*
X135487065Y-76848722D01*
X135489276Y-76856974D01*
X135575184Y-77107894D01*
X135578499Y-77115779D01*
X135697664Y-77352713D01*
X135702020Y-77360079D01*
X135831347Y-77548250D01*
X135841601Y-77556594D01*
X135855342Y-77549448D01*
X137059978Y-76344812D01*
X137066356Y-76333132D01*
X137796408Y-76333132D01*
X137796539Y-76334965D01*
X137800790Y-76341580D01*
X139007730Y-77548520D01*
X139019939Y-77555187D01*
X139031439Y-77546497D01*
X139128831Y-77413913D01*
X139133418Y-77406685D01*
X139226788Y-77234720D01*
X139276871Y-77184398D01*
X139346209Y-77169142D01*
X139412788Y-77193794D01*
X139450084Y-77238228D01*
X139507664Y-77352713D01*
X139512020Y-77360079D01*
X139641347Y-77548250D01*
X139651601Y-77556594D01*
X139665342Y-77549448D01*
X140869978Y-76344812D01*
X140877592Y-76330868D01*
X140877461Y-76329035D01*
X140873210Y-76322420D01*
X139665814Y-75115024D01*
X139653804Y-75108466D01*
X139642064Y-75117434D01*
X139533935Y-75267911D01*
X139529421Y-75275191D01*
X139448178Y-75428631D01*
X139398625Y-75479474D01*
X139329451Y-75495455D01*
X139262617Y-75471501D01*
X139224858Y-75427460D01*
X139155553Y-75293183D01*
X139151122Y-75285866D01*
X139032031Y-75116417D01*
X139021509Y-75108037D01*
X139008121Y-75115089D01*
X137804022Y-76319188D01*
X137796408Y-76333132D01*
X137066356Y-76333132D01*
X137067592Y-76330868D01*
X137067461Y-76329035D01*
X137063210Y-76322420D01*
X135855814Y-75115024D01*
X135843804Y-75108466D01*
X135832064Y-75117434D01*
X135723935Y-75267911D01*
X135719418Y-75275196D01*
X135595325Y-75509567D01*
X135591839Y-75517395D01*
X135500700Y-75766446D01*
X135498311Y-75774670D01*
X135441812Y-76033795D01*
X135440563Y-76042250D01*
X135419754Y-76306653D01*
X135419665Y-76315204D01*
X133223000Y-76315204D01*
X133223000Y-74744500D01*
X136208584Y-74744500D01*
X136214980Y-74755770D01*
X137419188Y-75959978D01*
X137433132Y-75967592D01*
X137434965Y-75967461D01*
X137441580Y-75963210D01*
X138648604Y-74756186D01*
X138655795Y-74743017D01*
X138648473Y-74732780D01*
X138601233Y-74694115D01*
X138594261Y-74689160D01*
X138368122Y-74550582D01*
X138360552Y-74546624D01*
X138117704Y-74440022D01*
X138109644Y-74437120D01*
X137854592Y-74364467D01*
X137846214Y-74362685D01*
X137583656Y-74325318D01*
X137575111Y-74324691D01*
X137309908Y-74323302D01*
X137301374Y-74323839D01*
X137038433Y-74358456D01*
X137030035Y-74360149D01*
X136774238Y-74430127D01*
X136766143Y-74432946D01*
X136522199Y-74536997D01*
X136514577Y-74540881D01*
X136287013Y-74677075D01*
X136279981Y-74681962D01*
X136217053Y-74732377D01*
X136208584Y-74744500D01*
X133223000Y-74744500D01*
X133223000Y-62024000D01*
X133243002Y-61955879D01*
X133296658Y-61909386D01*
X133348998Y-61898000D01*
X142495001Y-61898000D01*
X142563121Y-61918002D01*
G37*
%TD.AperFunction*%
%TD*%
%TA.AperFunction,Conductor*%
%TO.N,OUT2_Sens*%
G36*
X204392057Y-61899501D02*
G01*
X204393497Y-61899725D01*
X204406859Y-61901806D01*
X204406862Y-61901806D01*
X204415731Y-61903187D01*
X204436183Y-61900513D01*
X204457994Y-61899569D01*
X204681323Y-61909295D01*
X204808774Y-61914845D01*
X204819688Y-61915798D01*
X205124931Y-61955880D01*
X205198107Y-61965489D01*
X205208906Y-61967389D01*
X205581541Y-62049784D01*
X205592122Y-62052610D01*
X205817943Y-62123619D01*
X205956215Y-62167098D01*
X205966521Y-62170839D01*
X206319267Y-62316540D01*
X206329209Y-62321163D01*
X206667942Y-62496971D01*
X206677445Y-62502440D01*
X206999628Y-62707041D01*
X207008619Y-62713316D01*
X207311792Y-62945149D01*
X207320203Y-62952182D01*
X207602061Y-63209481D01*
X207609830Y-63217218D01*
X207868266Y-63498062D01*
X207875332Y-63506445D01*
X208108376Y-63808693D01*
X208114686Y-63817660D01*
X208320560Y-64139007D01*
X208326068Y-64148487D01*
X208503235Y-64486530D01*
X208507897Y-64496453D01*
X208655005Y-64848615D01*
X208658787Y-64858907D01*
X208774720Y-65222518D01*
X208777593Y-65233099D01*
X208861479Y-65605421D01*
X208863421Y-65616212D01*
X208914619Y-65994406D01*
X208915616Y-66005324D01*
X208931940Y-66348609D01*
X208930657Y-66373487D01*
X208928793Y-66385780D01*
X208929993Y-66394679D01*
X208932870Y-66416017D01*
X208934000Y-66432854D01*
X208934000Y-92838000D01*
X208913998Y-92906121D01*
X208860342Y-92952614D01*
X208808000Y-92964000D01*
X195781748Y-92964000D01*
X195713627Y-92943998D01*
X195693748Y-92928177D01*
X195577636Y-92814868D01*
X195577634Y-92814866D01*
X195575820Y-92813096D01*
X195573883Y-92811487D01*
X195573872Y-92811478D01*
X195206408Y-92506405D01*
X195204457Y-92504785D01*
X195107298Y-92436500D01*
X194811627Y-92228699D01*
X194809564Y-92227249D01*
X194732397Y-92181794D01*
X194395870Y-91983564D01*
X194395861Y-91983559D01*
X194393686Y-91982278D01*
X194391413Y-91981174D01*
X194391405Y-91981170D01*
X193961782Y-91772556D01*
X193961770Y-91772551D01*
X193959501Y-91771449D01*
X193648344Y-91650134D01*
X193512171Y-91597042D01*
X193512161Y-91597038D01*
X193509805Y-91596120D01*
X193047498Y-91457421D01*
X193045047Y-91456895D01*
X193045037Y-91456893D01*
X192966238Y-91440000D01*
X195936496Y-91440000D01*
X195937186Y-91446565D01*
X195953002Y-91597042D01*
X195956458Y-91629928D01*
X196015473Y-91811556D01*
X196110960Y-91976944D01*
X196115378Y-91981851D01*
X196115379Y-91981852D01*
X196124396Y-91991866D01*
X196238747Y-92118866D01*
X196393248Y-92231118D01*
X196399276Y-92233802D01*
X196399278Y-92233803D01*
X196561681Y-92306109D01*
X196567712Y-92308794D01*
X196661112Y-92328647D01*
X196748056Y-92347128D01*
X196748061Y-92347128D01*
X196754513Y-92348500D01*
X196945487Y-92348500D01*
X196951939Y-92347128D01*
X196951944Y-92347128D01*
X197038888Y-92328647D01*
X197132288Y-92308794D01*
X197138319Y-92306109D01*
X197300722Y-92233803D01*
X197300724Y-92233802D01*
X197306752Y-92231118D01*
X197461253Y-92118866D01*
X197575604Y-91991866D01*
X197584621Y-91981852D01*
X197584622Y-91981851D01*
X197589040Y-91976944D01*
X197684527Y-91811556D01*
X197743542Y-91629928D01*
X197746999Y-91597042D01*
X197762814Y-91446565D01*
X197763504Y-91440000D01*
X201016496Y-91440000D01*
X201017186Y-91446565D01*
X201033002Y-91597042D01*
X201036458Y-91629928D01*
X201095473Y-91811556D01*
X201190960Y-91976944D01*
X201195378Y-91981851D01*
X201195379Y-91981852D01*
X201204396Y-91991866D01*
X201318747Y-92118866D01*
X201473248Y-92231118D01*
X201479276Y-92233802D01*
X201479278Y-92233803D01*
X201641681Y-92306109D01*
X201647712Y-92308794D01*
X201741112Y-92328647D01*
X201828056Y-92347128D01*
X201828061Y-92347128D01*
X201834513Y-92348500D01*
X202025487Y-92348500D01*
X202031939Y-92347128D01*
X202031944Y-92347128D01*
X202118888Y-92328647D01*
X202212288Y-92308794D01*
X202218319Y-92306109D01*
X202380722Y-92233803D01*
X202380724Y-92233802D01*
X202386752Y-92231118D01*
X202541253Y-92118866D01*
X202655604Y-91991866D01*
X202664621Y-91981852D01*
X202664622Y-91981851D01*
X202669040Y-91976944D01*
X202764527Y-91811556D01*
X202823542Y-91629928D01*
X202826999Y-91597042D01*
X202842814Y-91446565D01*
X202843504Y-91440000D01*
X206096496Y-91440000D01*
X206097186Y-91446565D01*
X206113002Y-91597042D01*
X206116458Y-91629928D01*
X206175473Y-91811556D01*
X206270960Y-91976944D01*
X206275378Y-91981851D01*
X206275379Y-91981852D01*
X206284396Y-91991866D01*
X206398747Y-92118866D01*
X206553248Y-92231118D01*
X206559276Y-92233802D01*
X206559278Y-92233803D01*
X206721681Y-92306109D01*
X206727712Y-92308794D01*
X206821112Y-92328647D01*
X206908056Y-92347128D01*
X206908061Y-92347128D01*
X206914513Y-92348500D01*
X207105487Y-92348500D01*
X207111939Y-92347128D01*
X207111944Y-92347128D01*
X207198888Y-92328647D01*
X207292288Y-92308794D01*
X207298319Y-92306109D01*
X207460722Y-92233803D01*
X207460724Y-92233802D01*
X207466752Y-92231118D01*
X207621253Y-92118866D01*
X207735604Y-91991866D01*
X207744621Y-91981852D01*
X207744622Y-91981851D01*
X207749040Y-91976944D01*
X207844527Y-91811556D01*
X207903542Y-91629928D01*
X207906999Y-91597042D01*
X207922814Y-91446565D01*
X207923504Y-91440000D01*
X207922511Y-91430556D01*
X207904232Y-91256635D01*
X207904232Y-91256633D01*
X207903542Y-91250072D01*
X207844527Y-91068444D01*
X207839075Y-91059000D01*
X207752341Y-90908774D01*
X207749040Y-90903056D01*
X207621253Y-90761134D01*
X207519828Y-90687444D01*
X207472094Y-90652763D01*
X207472093Y-90652762D01*
X207466752Y-90648882D01*
X207460724Y-90646198D01*
X207460722Y-90646197D01*
X207298319Y-90573891D01*
X207298318Y-90573891D01*
X207292288Y-90571206D01*
X207198887Y-90551353D01*
X207111944Y-90532872D01*
X207111939Y-90532872D01*
X207105487Y-90531500D01*
X206914513Y-90531500D01*
X206908061Y-90532872D01*
X206908056Y-90532872D01*
X206821113Y-90551353D01*
X206727712Y-90571206D01*
X206721682Y-90573891D01*
X206721681Y-90573891D01*
X206559278Y-90646197D01*
X206559276Y-90646198D01*
X206553248Y-90648882D01*
X206547907Y-90652762D01*
X206547906Y-90652763D01*
X206500172Y-90687444D01*
X206398747Y-90761134D01*
X206270960Y-90903056D01*
X206267659Y-90908774D01*
X206180926Y-91059000D01*
X206175473Y-91068444D01*
X206116458Y-91250072D01*
X206115768Y-91256633D01*
X206115768Y-91256635D01*
X206097489Y-91430556D01*
X206096496Y-91440000D01*
X202843504Y-91440000D01*
X202842511Y-91430556D01*
X202824232Y-91256635D01*
X202824232Y-91256633D01*
X202823542Y-91250072D01*
X202764527Y-91068444D01*
X202759075Y-91059000D01*
X202672341Y-90908774D01*
X202669040Y-90903056D01*
X202541253Y-90761134D01*
X202439828Y-90687444D01*
X202392094Y-90652763D01*
X202392093Y-90652762D01*
X202386752Y-90648882D01*
X202380724Y-90646198D01*
X202380722Y-90646197D01*
X202218319Y-90573891D01*
X202218318Y-90573891D01*
X202212288Y-90571206D01*
X202118887Y-90551353D01*
X202031944Y-90532872D01*
X202031939Y-90532872D01*
X202025487Y-90531500D01*
X201834513Y-90531500D01*
X201828061Y-90532872D01*
X201828056Y-90532872D01*
X201741113Y-90551353D01*
X201647712Y-90571206D01*
X201641682Y-90573891D01*
X201641681Y-90573891D01*
X201479278Y-90646197D01*
X201479276Y-90646198D01*
X201473248Y-90648882D01*
X201467907Y-90652762D01*
X201467906Y-90652763D01*
X201420172Y-90687444D01*
X201318747Y-90761134D01*
X201190960Y-90903056D01*
X201187659Y-90908774D01*
X201100926Y-91059000D01*
X201095473Y-91068444D01*
X201036458Y-91250072D01*
X201035768Y-91256633D01*
X201035768Y-91256635D01*
X201017489Y-91430556D01*
X201016496Y-91440000D01*
X197763504Y-91440000D01*
X197762511Y-91430556D01*
X197744232Y-91256635D01*
X197744232Y-91256633D01*
X197743542Y-91250072D01*
X197684527Y-91068444D01*
X197679075Y-91059000D01*
X197592341Y-90908774D01*
X197589040Y-90903056D01*
X197461253Y-90761134D01*
X197359828Y-90687444D01*
X197312094Y-90652763D01*
X197312093Y-90652762D01*
X197306752Y-90648882D01*
X197300724Y-90646198D01*
X197300722Y-90646197D01*
X197138319Y-90573891D01*
X197138318Y-90573891D01*
X197132288Y-90571206D01*
X197038887Y-90551353D01*
X196951944Y-90532872D01*
X196951939Y-90532872D01*
X196945487Y-90531500D01*
X196754513Y-90531500D01*
X196748061Y-90532872D01*
X196748056Y-90532872D01*
X196661113Y-90551353D01*
X196567712Y-90571206D01*
X196561682Y-90573891D01*
X196561681Y-90573891D01*
X196399278Y-90646197D01*
X196399276Y-90646198D01*
X196393248Y-90648882D01*
X196387907Y-90652762D01*
X196387906Y-90652763D01*
X196340172Y-90687444D01*
X196238747Y-90761134D01*
X196110960Y-90903056D01*
X196107659Y-90908774D01*
X196020926Y-91059000D01*
X196015473Y-91068444D01*
X195956458Y-91250072D01*
X195955768Y-91256633D01*
X195955768Y-91256635D01*
X195937489Y-91430556D01*
X195936496Y-91440000D01*
X192966238Y-91440000D01*
X192578016Y-91356773D01*
X192578007Y-91356771D01*
X192575556Y-91356246D01*
X192375675Y-91329931D01*
X192099527Y-91293575D01*
X192099522Y-91293575D01*
X192097019Y-91293245D01*
X192094505Y-91293118D01*
X192094498Y-91293117D01*
X191708828Y-91273580D01*
X191708811Y-91273580D01*
X191707240Y-91273500D01*
X191427410Y-91273500D01*
X191215209Y-91282023D01*
X191072258Y-91287764D01*
X191072253Y-91287764D01*
X191069723Y-91287866D01*
X190893309Y-91309215D01*
X190593072Y-91345547D01*
X190593065Y-91345548D01*
X190590554Y-91345852D01*
X190588092Y-91346353D01*
X190588079Y-91346355D01*
X190311073Y-91402713D01*
X190117578Y-91442080D01*
X189906765Y-91502928D01*
X189656274Y-91575228D01*
X189656267Y-91575230D01*
X189653843Y-91575930D01*
X189202337Y-91746540D01*
X188765967Y-91952811D01*
X188763798Y-91954058D01*
X188763785Y-91954065D01*
X188367754Y-92181794D01*
X188347546Y-92193414D01*
X188298334Y-92227237D01*
X188284367Y-92236836D01*
X188216898Y-92258936D01*
X188148191Y-92241051D01*
X188100061Y-92188859D01*
X188087000Y-92132996D01*
X188087000Y-88900000D01*
X190856496Y-88900000D01*
X190857186Y-88906565D01*
X190873483Y-89061618D01*
X190876458Y-89089928D01*
X190935473Y-89271556D01*
X191030960Y-89436944D01*
X191158747Y-89578866D01*
X191313248Y-89691118D01*
X191319276Y-89693802D01*
X191319278Y-89693803D01*
X191481681Y-89766109D01*
X191487712Y-89768794D01*
X191581112Y-89788647D01*
X191668056Y-89807128D01*
X191668061Y-89807128D01*
X191674513Y-89808500D01*
X191865487Y-89808500D01*
X191871939Y-89807128D01*
X191871944Y-89807128D01*
X191958887Y-89788647D01*
X192052288Y-89768794D01*
X192058319Y-89766109D01*
X192220722Y-89693803D01*
X192220724Y-89693802D01*
X192226752Y-89691118D01*
X192381253Y-89578866D01*
X192509040Y-89436944D01*
X192604527Y-89271556D01*
X192663542Y-89089928D01*
X192666518Y-89061618D01*
X192682814Y-88906565D01*
X192683504Y-88900000D01*
X192682511Y-88890556D01*
X192664232Y-88716635D01*
X192664232Y-88716633D01*
X192663542Y-88710072D01*
X192604527Y-88528444D01*
X192599075Y-88519000D01*
X192512341Y-88368774D01*
X192509040Y-88363056D01*
X192381253Y-88221134D01*
X192226752Y-88108882D01*
X192220724Y-88106198D01*
X192220722Y-88106197D01*
X192058319Y-88033891D01*
X192058318Y-88033891D01*
X192052288Y-88031206D01*
X191958887Y-88011353D01*
X191871944Y-87992872D01*
X191871939Y-87992872D01*
X191865487Y-87991500D01*
X191674513Y-87991500D01*
X191668061Y-87992872D01*
X191668056Y-87992872D01*
X191581112Y-88011353D01*
X191487712Y-88031206D01*
X191481682Y-88033891D01*
X191481681Y-88033891D01*
X191319278Y-88106197D01*
X191319276Y-88106198D01*
X191313248Y-88108882D01*
X191158747Y-88221134D01*
X191030960Y-88363056D01*
X191027659Y-88368774D01*
X190940926Y-88519000D01*
X190935473Y-88528444D01*
X190876458Y-88710072D01*
X190875768Y-88716633D01*
X190875768Y-88716635D01*
X190857489Y-88890556D01*
X190856496Y-88900000D01*
X188087000Y-88900000D01*
X188087000Y-85090000D01*
X190856496Y-85090000D01*
X190876458Y-85279928D01*
X190935473Y-85461556D01*
X191030960Y-85626944D01*
X191158747Y-85768866D01*
X191186558Y-85789072D01*
X191300982Y-85872206D01*
X191313248Y-85881118D01*
X191319276Y-85883802D01*
X191319278Y-85883803D01*
X191467695Y-85949882D01*
X191487712Y-85958794D01*
X191581112Y-85978647D01*
X191668056Y-85997128D01*
X191668061Y-85997128D01*
X191674513Y-85998500D01*
X191865487Y-85998500D01*
X191871939Y-85997128D01*
X191871944Y-85997128D01*
X191958887Y-85978647D01*
X192052288Y-85958794D01*
X192072305Y-85949882D01*
X192220722Y-85883803D01*
X192220724Y-85883802D01*
X192226752Y-85881118D01*
X192239019Y-85872206D01*
X192353442Y-85789072D01*
X192381253Y-85768866D01*
X192509040Y-85626944D01*
X192604527Y-85461556D01*
X192663542Y-85279928D01*
X192683504Y-85090000D01*
X192682511Y-85080556D01*
X192664232Y-84906635D01*
X192664232Y-84906633D01*
X192663542Y-84900072D01*
X192604527Y-84718444D01*
X192599075Y-84709000D01*
X192512341Y-84558774D01*
X192509040Y-84553056D01*
X192381253Y-84411134D01*
X192226752Y-84298882D01*
X192220724Y-84296198D01*
X192220722Y-84296197D01*
X192058319Y-84223891D01*
X192058318Y-84223891D01*
X192052288Y-84221206D01*
X191958888Y-84201353D01*
X191871944Y-84182872D01*
X191871939Y-84182872D01*
X191865487Y-84181500D01*
X191674513Y-84181500D01*
X191668061Y-84182872D01*
X191668056Y-84182872D01*
X191581112Y-84201353D01*
X191487712Y-84221206D01*
X191481682Y-84223891D01*
X191481681Y-84223891D01*
X191319278Y-84296197D01*
X191319276Y-84296198D01*
X191313248Y-84298882D01*
X191158747Y-84411134D01*
X191030960Y-84553056D01*
X191027659Y-84558774D01*
X190940926Y-84709000D01*
X190935473Y-84718444D01*
X190876458Y-84900072D01*
X190875768Y-84906633D01*
X190875768Y-84906635D01*
X190857489Y-85080556D01*
X190856496Y-85090000D01*
X188087000Y-85090000D01*
X188087000Y-82296000D01*
X184022000Y-82296000D01*
X183953879Y-82275998D01*
X183907386Y-82222342D01*
X183896000Y-82170000D01*
X183896000Y-81280000D01*
X190856496Y-81280000D01*
X190876458Y-81469928D01*
X190935473Y-81651556D01*
X191030960Y-81816944D01*
X191158747Y-81958866D01*
X191313248Y-82071118D01*
X191319276Y-82073802D01*
X191319278Y-82073803D01*
X191481681Y-82146109D01*
X191487712Y-82148794D01*
X191581112Y-82168647D01*
X191668056Y-82187128D01*
X191668061Y-82187128D01*
X191674513Y-82188500D01*
X191865487Y-82188500D01*
X191871939Y-82187128D01*
X191871944Y-82187128D01*
X191958887Y-82168647D01*
X192052288Y-82148794D01*
X192058319Y-82146109D01*
X192220722Y-82073803D01*
X192220724Y-82073802D01*
X192226752Y-82071118D01*
X192381253Y-81958866D01*
X192509040Y-81816944D01*
X192604527Y-81651556D01*
X192663542Y-81469928D01*
X192683504Y-81280000D01*
X192663542Y-81090072D01*
X192604527Y-80908444D01*
X192599075Y-80899000D01*
X192512341Y-80748774D01*
X192509040Y-80743056D01*
X192381253Y-80601134D01*
X192226752Y-80488882D01*
X192220724Y-80486198D01*
X192220722Y-80486197D01*
X192058319Y-80413891D01*
X192058318Y-80413891D01*
X192052288Y-80411206D01*
X191958888Y-80391353D01*
X191871944Y-80372872D01*
X191871939Y-80372872D01*
X191865487Y-80371500D01*
X191674513Y-80371500D01*
X191668061Y-80372872D01*
X191668056Y-80372872D01*
X191581112Y-80391353D01*
X191487712Y-80411206D01*
X191481682Y-80413891D01*
X191481681Y-80413891D01*
X191319278Y-80486197D01*
X191319276Y-80486198D01*
X191313248Y-80488882D01*
X191158747Y-80601134D01*
X191030960Y-80743056D01*
X191027659Y-80748774D01*
X190940926Y-80899000D01*
X190935473Y-80908444D01*
X190876458Y-81090072D01*
X190856496Y-81280000D01*
X183896000Y-81280000D01*
X183896000Y-77470000D01*
X190856496Y-77470000D01*
X190876458Y-77659928D01*
X190935473Y-77841556D01*
X190938776Y-77847278D01*
X190938777Y-77847279D01*
X190972686Y-77906010D01*
X191030960Y-78006944D01*
X191158747Y-78148866D01*
X191313248Y-78261118D01*
X191319276Y-78263802D01*
X191319278Y-78263803D01*
X191481681Y-78336109D01*
X191487712Y-78338794D01*
X191581112Y-78358647D01*
X191668056Y-78377128D01*
X191668061Y-78377128D01*
X191674513Y-78378500D01*
X191865487Y-78378500D01*
X191871939Y-78377128D01*
X191871944Y-78377128D01*
X191958888Y-78358647D01*
X192052288Y-78338794D01*
X192058319Y-78336109D01*
X192220722Y-78263803D01*
X192220724Y-78263802D01*
X192226752Y-78261118D01*
X192381253Y-78148866D01*
X192509040Y-78006944D01*
X192567314Y-77906010D01*
X192601223Y-77847279D01*
X192601224Y-77847278D01*
X192604527Y-77841556D01*
X192663542Y-77659928D01*
X192683504Y-77470000D01*
X192663542Y-77280072D01*
X192604527Y-77098444D01*
X192509040Y-76933056D01*
X192381253Y-76791134D01*
X192226752Y-76678882D01*
X192220724Y-76676198D01*
X192220722Y-76676197D01*
X192058319Y-76603891D01*
X192058318Y-76603891D01*
X192052288Y-76601206D01*
X191958887Y-76581353D01*
X191871944Y-76562872D01*
X191871939Y-76562872D01*
X191865487Y-76561500D01*
X191674513Y-76561500D01*
X191668061Y-76562872D01*
X191668056Y-76562872D01*
X191581113Y-76581353D01*
X191487712Y-76601206D01*
X191481682Y-76603891D01*
X191481681Y-76603891D01*
X191319278Y-76676197D01*
X191319276Y-76676198D01*
X191313248Y-76678882D01*
X191158747Y-76791134D01*
X191030960Y-76933056D01*
X190935473Y-77098444D01*
X190876458Y-77280072D01*
X190856496Y-77470000D01*
X183896000Y-77470000D01*
X183896000Y-73660000D01*
X190856496Y-73660000D01*
X190876458Y-73849928D01*
X190935473Y-74031556D01*
X191030960Y-74196944D01*
X191158747Y-74338866D01*
X191313248Y-74451118D01*
X191319276Y-74453802D01*
X191319278Y-74453803D01*
X191481681Y-74526109D01*
X191487712Y-74528794D01*
X191577603Y-74547901D01*
X191668056Y-74567128D01*
X191668061Y-74567128D01*
X191674513Y-74568500D01*
X191865487Y-74568500D01*
X191871939Y-74567128D01*
X191871944Y-74567128D01*
X191962397Y-74547901D01*
X192052288Y-74528794D01*
X192058319Y-74526109D01*
X192220722Y-74453803D01*
X192220724Y-74453802D01*
X192226752Y-74451118D01*
X192381253Y-74338866D01*
X192509040Y-74196944D01*
X192604527Y-74031556D01*
X192663542Y-73849928D01*
X192683504Y-73660000D01*
X192663542Y-73470072D01*
X192604527Y-73288444D01*
X192509040Y-73123056D01*
X192381253Y-72981134D01*
X192226752Y-72868882D01*
X192220724Y-72866198D01*
X192220722Y-72866197D01*
X192058319Y-72793891D01*
X192058318Y-72793891D01*
X192052288Y-72791206D01*
X191958887Y-72771353D01*
X191871944Y-72752872D01*
X191871939Y-72752872D01*
X191865487Y-72751500D01*
X191674513Y-72751500D01*
X191668061Y-72752872D01*
X191668056Y-72752872D01*
X191581113Y-72771353D01*
X191487712Y-72791206D01*
X191481682Y-72793891D01*
X191481681Y-72793891D01*
X191319278Y-72866197D01*
X191319276Y-72866198D01*
X191313248Y-72868882D01*
X191158747Y-72981134D01*
X191030960Y-73123056D01*
X190935473Y-73288444D01*
X190876458Y-73470072D01*
X190856496Y-73660000D01*
X183896000Y-73660000D01*
X183896000Y-72517000D01*
X154177000Y-72517000D01*
X154108879Y-72496998D01*
X154062386Y-72443342D01*
X154051000Y-72391000D01*
X154051000Y-71754000D01*
X154071002Y-71685879D01*
X154124658Y-71639386D01*
X154177000Y-71628000D01*
X155648793Y-71628000D01*
X155669697Y-71629746D01*
X155689461Y-71633071D01*
X155695819Y-71633149D01*
X155697142Y-71633165D01*
X155697146Y-71633165D01*
X155702000Y-71633224D01*
X155706815Y-71632534D01*
X155706820Y-71632534D01*
X155716116Y-71631203D01*
X155722353Y-71630467D01*
X155883695Y-71615517D01*
X155883696Y-71615517D01*
X155889489Y-71614980D01*
X156070594Y-71563451D01*
X156239147Y-71479522D01*
X156389407Y-71366050D01*
X156516259Y-71226900D01*
X156582449Y-71120000D01*
X160376496Y-71120000D01*
X160377186Y-71126565D01*
X160387732Y-71226900D01*
X160396458Y-71309928D01*
X160455473Y-71491556D01*
X160550960Y-71656944D01*
X160555378Y-71661851D01*
X160555379Y-71661852D01*
X160674325Y-71793955D01*
X160678747Y-71798866D01*
X160833248Y-71911118D01*
X160839276Y-71913802D01*
X160839278Y-71913803D01*
X161001681Y-71986109D01*
X161007712Y-71988794D01*
X161101112Y-72008647D01*
X161188056Y-72027128D01*
X161188061Y-72027128D01*
X161194513Y-72028500D01*
X161385487Y-72028500D01*
X161391939Y-72027128D01*
X161391944Y-72027128D01*
X161478888Y-72008647D01*
X161572288Y-71988794D01*
X161578319Y-71986109D01*
X161740722Y-71913803D01*
X161740724Y-71913802D01*
X161746752Y-71911118D01*
X161901253Y-71798866D01*
X161905675Y-71793955D01*
X162024621Y-71661852D01*
X162024622Y-71661851D01*
X162029040Y-71656944D01*
X162124527Y-71491556D01*
X162183542Y-71309928D01*
X162192269Y-71226900D01*
X162202814Y-71126565D01*
X162203504Y-71120000D01*
X165456496Y-71120000D01*
X165457186Y-71126565D01*
X165467732Y-71226900D01*
X165476458Y-71309928D01*
X165535473Y-71491556D01*
X165630960Y-71656944D01*
X165635378Y-71661851D01*
X165635379Y-71661852D01*
X165754325Y-71793955D01*
X165758747Y-71798866D01*
X165913248Y-71911118D01*
X165919276Y-71913802D01*
X165919278Y-71913803D01*
X166081681Y-71986109D01*
X166087712Y-71988794D01*
X166181112Y-72008647D01*
X166268056Y-72027128D01*
X166268061Y-72027128D01*
X166274513Y-72028500D01*
X166465487Y-72028500D01*
X166471939Y-72027128D01*
X166471944Y-72027128D01*
X166558888Y-72008647D01*
X166652288Y-71988794D01*
X166658319Y-71986109D01*
X166820722Y-71913803D01*
X166820724Y-71913802D01*
X166826752Y-71911118D01*
X166981253Y-71798866D01*
X166985675Y-71793955D01*
X167104621Y-71661852D01*
X167104622Y-71661851D01*
X167109040Y-71656944D01*
X167204527Y-71491556D01*
X167263542Y-71309928D01*
X167272269Y-71226900D01*
X167282814Y-71126565D01*
X167283504Y-71120000D01*
X170536496Y-71120000D01*
X170537186Y-71126565D01*
X170547732Y-71226900D01*
X170556458Y-71309928D01*
X170615473Y-71491556D01*
X170710960Y-71656944D01*
X170715378Y-71661851D01*
X170715379Y-71661852D01*
X170834325Y-71793955D01*
X170838747Y-71798866D01*
X170993248Y-71911118D01*
X170999276Y-71913802D01*
X170999278Y-71913803D01*
X171161681Y-71986109D01*
X171167712Y-71988794D01*
X171261112Y-72008647D01*
X171348056Y-72027128D01*
X171348061Y-72027128D01*
X171354513Y-72028500D01*
X171545487Y-72028500D01*
X171551939Y-72027128D01*
X171551944Y-72027128D01*
X171638888Y-72008647D01*
X171732288Y-71988794D01*
X171738319Y-71986109D01*
X171900722Y-71913803D01*
X171900724Y-71913802D01*
X171906752Y-71911118D01*
X172061253Y-71798866D01*
X172065675Y-71793955D01*
X172184621Y-71661852D01*
X172184622Y-71661851D01*
X172189040Y-71656944D01*
X172284527Y-71491556D01*
X172343542Y-71309928D01*
X172352269Y-71226900D01*
X172362814Y-71126565D01*
X172363504Y-71120000D01*
X175616496Y-71120000D01*
X175617186Y-71126565D01*
X175627732Y-71226900D01*
X175636458Y-71309928D01*
X175695473Y-71491556D01*
X175790960Y-71656944D01*
X175795378Y-71661851D01*
X175795379Y-71661852D01*
X175914325Y-71793955D01*
X175918747Y-71798866D01*
X176073248Y-71911118D01*
X176079276Y-71913802D01*
X176079278Y-71913803D01*
X176241681Y-71986109D01*
X176247712Y-71988794D01*
X176341112Y-72008647D01*
X176428056Y-72027128D01*
X176428061Y-72027128D01*
X176434513Y-72028500D01*
X176625487Y-72028500D01*
X176631939Y-72027128D01*
X176631944Y-72027128D01*
X176718888Y-72008647D01*
X176812288Y-71988794D01*
X176818319Y-71986109D01*
X176980722Y-71913803D01*
X176980724Y-71913802D01*
X176986752Y-71911118D01*
X177141253Y-71798866D01*
X177145675Y-71793955D01*
X177264621Y-71661852D01*
X177264622Y-71661851D01*
X177269040Y-71656944D01*
X177364527Y-71491556D01*
X177423542Y-71309928D01*
X177432269Y-71226900D01*
X177442814Y-71126565D01*
X177443504Y-71120000D01*
X180696496Y-71120000D01*
X180697186Y-71126565D01*
X180707732Y-71226900D01*
X180716458Y-71309928D01*
X180775473Y-71491556D01*
X180870960Y-71656944D01*
X180875378Y-71661851D01*
X180875379Y-71661852D01*
X180994325Y-71793955D01*
X180998747Y-71798866D01*
X181153248Y-71911118D01*
X181159276Y-71913802D01*
X181159278Y-71913803D01*
X181321681Y-71986109D01*
X181327712Y-71988794D01*
X181421112Y-72008647D01*
X181508056Y-72027128D01*
X181508061Y-72027128D01*
X181514513Y-72028500D01*
X181705487Y-72028500D01*
X181711939Y-72027128D01*
X181711944Y-72027128D01*
X181798888Y-72008647D01*
X181892288Y-71988794D01*
X181898319Y-71986109D01*
X182060722Y-71913803D01*
X182060724Y-71913802D01*
X182066752Y-71911118D01*
X182221253Y-71798866D01*
X182225675Y-71793955D01*
X182344621Y-71661852D01*
X182344622Y-71661851D01*
X182349040Y-71656944D01*
X182444527Y-71491556D01*
X182503542Y-71309928D01*
X182512269Y-71226900D01*
X182522814Y-71126565D01*
X182523504Y-71120000D01*
X185776496Y-71120000D01*
X185777186Y-71126565D01*
X185787732Y-71226900D01*
X185796458Y-71309928D01*
X185855473Y-71491556D01*
X185950960Y-71656944D01*
X185955378Y-71661851D01*
X185955379Y-71661852D01*
X186074325Y-71793955D01*
X186078747Y-71798866D01*
X186233248Y-71911118D01*
X186239276Y-71913802D01*
X186239278Y-71913803D01*
X186401681Y-71986109D01*
X186407712Y-71988794D01*
X186501112Y-72008647D01*
X186588056Y-72027128D01*
X186588061Y-72027128D01*
X186594513Y-72028500D01*
X186785487Y-72028500D01*
X186791939Y-72027128D01*
X186791944Y-72027128D01*
X186878888Y-72008647D01*
X186972288Y-71988794D01*
X186978319Y-71986109D01*
X187140722Y-71913803D01*
X187140724Y-71913802D01*
X187146752Y-71911118D01*
X187301253Y-71798866D01*
X187305675Y-71793955D01*
X187424621Y-71661852D01*
X187424622Y-71661851D01*
X187429040Y-71656944D01*
X187524527Y-71491556D01*
X187583542Y-71309928D01*
X187592269Y-71226900D01*
X187602814Y-71126565D01*
X187603504Y-71120000D01*
X187583542Y-70930072D01*
X187524527Y-70748444D01*
X187429040Y-70583056D01*
X187375580Y-70523682D01*
X187305675Y-70446045D01*
X187305674Y-70446044D01*
X187301253Y-70441134D01*
X187159978Y-70338491D01*
X187152094Y-70332763D01*
X187152093Y-70332762D01*
X187146752Y-70328882D01*
X187140724Y-70326198D01*
X187140722Y-70326197D01*
X186978319Y-70253891D01*
X186978318Y-70253891D01*
X186972288Y-70251206D01*
X186878888Y-70231353D01*
X186791944Y-70212872D01*
X186791939Y-70212872D01*
X186785487Y-70211500D01*
X186594513Y-70211500D01*
X186588061Y-70212872D01*
X186588056Y-70212872D01*
X186501112Y-70231353D01*
X186407712Y-70251206D01*
X186401682Y-70253891D01*
X186401681Y-70253891D01*
X186239278Y-70326197D01*
X186239276Y-70326198D01*
X186233248Y-70328882D01*
X186227907Y-70332762D01*
X186227906Y-70332763D01*
X186220022Y-70338491D01*
X186078747Y-70441134D01*
X186074326Y-70446044D01*
X186074325Y-70446045D01*
X186004421Y-70523682D01*
X185950960Y-70583056D01*
X185855473Y-70748444D01*
X185796458Y-70930072D01*
X185776496Y-71120000D01*
X182523504Y-71120000D01*
X182503542Y-70930072D01*
X182444527Y-70748444D01*
X182349040Y-70583056D01*
X182295580Y-70523682D01*
X182225675Y-70446045D01*
X182225674Y-70446044D01*
X182221253Y-70441134D01*
X182079978Y-70338491D01*
X182072094Y-70332763D01*
X182072093Y-70332762D01*
X182066752Y-70328882D01*
X182060724Y-70326198D01*
X182060722Y-70326197D01*
X181898319Y-70253891D01*
X181898318Y-70253891D01*
X181892288Y-70251206D01*
X181798888Y-70231353D01*
X181711944Y-70212872D01*
X181711939Y-70212872D01*
X181705487Y-70211500D01*
X181514513Y-70211500D01*
X181508061Y-70212872D01*
X181508056Y-70212872D01*
X181421112Y-70231353D01*
X181327712Y-70251206D01*
X181321682Y-70253891D01*
X181321681Y-70253891D01*
X181159278Y-70326197D01*
X181159276Y-70326198D01*
X181153248Y-70328882D01*
X181147907Y-70332762D01*
X181147906Y-70332763D01*
X181140022Y-70338491D01*
X180998747Y-70441134D01*
X180994326Y-70446044D01*
X180994325Y-70446045D01*
X180924421Y-70523682D01*
X180870960Y-70583056D01*
X180775473Y-70748444D01*
X180716458Y-70930072D01*
X180696496Y-71120000D01*
X177443504Y-71120000D01*
X177423542Y-70930072D01*
X177364527Y-70748444D01*
X177269040Y-70583056D01*
X177215580Y-70523682D01*
X177145675Y-70446045D01*
X177145674Y-70446044D01*
X177141253Y-70441134D01*
X176999978Y-70338491D01*
X176992094Y-70332763D01*
X176992093Y-70332762D01*
X176986752Y-70328882D01*
X176980724Y-70326198D01*
X176980722Y-70326197D01*
X176818319Y-70253891D01*
X176818318Y-70253891D01*
X176812288Y-70251206D01*
X176718888Y-70231353D01*
X176631944Y-70212872D01*
X176631939Y-70212872D01*
X176625487Y-70211500D01*
X176434513Y-70211500D01*
X176428061Y-70212872D01*
X176428056Y-70212872D01*
X176341112Y-70231353D01*
X176247712Y-70251206D01*
X176241682Y-70253891D01*
X176241681Y-70253891D01*
X176079278Y-70326197D01*
X176079276Y-70326198D01*
X176073248Y-70328882D01*
X176067907Y-70332762D01*
X176067906Y-70332763D01*
X176060022Y-70338491D01*
X175918747Y-70441134D01*
X175914326Y-70446044D01*
X175914325Y-70446045D01*
X175844421Y-70523682D01*
X175790960Y-70583056D01*
X175695473Y-70748444D01*
X175636458Y-70930072D01*
X175616496Y-71120000D01*
X172363504Y-71120000D01*
X172343542Y-70930072D01*
X172284527Y-70748444D01*
X172189040Y-70583056D01*
X172135580Y-70523682D01*
X172065675Y-70446045D01*
X172065674Y-70446044D01*
X172061253Y-70441134D01*
X171919978Y-70338491D01*
X171912094Y-70332763D01*
X171912093Y-70332762D01*
X171906752Y-70328882D01*
X171900724Y-70326198D01*
X171900722Y-70326197D01*
X171738319Y-70253891D01*
X171738318Y-70253891D01*
X171732288Y-70251206D01*
X171638888Y-70231353D01*
X171551944Y-70212872D01*
X171551939Y-70212872D01*
X171545487Y-70211500D01*
X171354513Y-70211500D01*
X171348061Y-70212872D01*
X171348056Y-70212872D01*
X171261112Y-70231353D01*
X171167712Y-70251206D01*
X171161682Y-70253891D01*
X171161681Y-70253891D01*
X170999278Y-70326197D01*
X170999276Y-70326198D01*
X170993248Y-70328882D01*
X170987907Y-70332762D01*
X170987906Y-70332763D01*
X170980022Y-70338491D01*
X170838747Y-70441134D01*
X170834326Y-70446044D01*
X170834325Y-70446045D01*
X170764421Y-70523682D01*
X170710960Y-70583056D01*
X170615473Y-70748444D01*
X170556458Y-70930072D01*
X170536496Y-71120000D01*
X167283504Y-71120000D01*
X167263542Y-70930072D01*
X167204527Y-70748444D01*
X167109040Y-70583056D01*
X167055580Y-70523682D01*
X166985675Y-70446045D01*
X166985674Y-70446044D01*
X166981253Y-70441134D01*
X166839978Y-70338491D01*
X166832094Y-70332763D01*
X166832093Y-70332762D01*
X166826752Y-70328882D01*
X166820724Y-70326198D01*
X166820722Y-70326197D01*
X166658319Y-70253891D01*
X166658318Y-70253891D01*
X166652288Y-70251206D01*
X166558888Y-70231353D01*
X166471944Y-70212872D01*
X166471939Y-70212872D01*
X166465487Y-70211500D01*
X166274513Y-70211500D01*
X166268061Y-70212872D01*
X166268056Y-70212872D01*
X166181112Y-70231353D01*
X166087712Y-70251206D01*
X166081682Y-70253891D01*
X166081681Y-70253891D01*
X165919278Y-70326197D01*
X165919276Y-70326198D01*
X165913248Y-70328882D01*
X165907907Y-70332762D01*
X165907906Y-70332763D01*
X165900022Y-70338491D01*
X165758747Y-70441134D01*
X165754326Y-70446044D01*
X165754325Y-70446045D01*
X165684421Y-70523682D01*
X165630960Y-70583056D01*
X165535473Y-70748444D01*
X165476458Y-70930072D01*
X165456496Y-71120000D01*
X162203504Y-71120000D01*
X162183542Y-70930072D01*
X162124527Y-70748444D01*
X162029040Y-70583056D01*
X161975580Y-70523682D01*
X161905675Y-70446045D01*
X161905674Y-70446044D01*
X161901253Y-70441134D01*
X161759978Y-70338491D01*
X161752094Y-70332763D01*
X161752093Y-70332762D01*
X161746752Y-70328882D01*
X161740724Y-70326198D01*
X161740722Y-70326197D01*
X161578319Y-70253891D01*
X161578318Y-70253891D01*
X161572288Y-70251206D01*
X161478888Y-70231353D01*
X161391944Y-70212872D01*
X161391939Y-70212872D01*
X161385487Y-70211500D01*
X161194513Y-70211500D01*
X161188061Y-70212872D01*
X161188056Y-70212872D01*
X161101112Y-70231353D01*
X161007712Y-70251206D01*
X161001682Y-70253891D01*
X161001681Y-70253891D01*
X160839278Y-70326197D01*
X160839276Y-70326198D01*
X160833248Y-70328882D01*
X160827907Y-70332762D01*
X160827906Y-70332763D01*
X160820022Y-70338491D01*
X160678747Y-70441134D01*
X160674326Y-70446044D01*
X160674325Y-70446045D01*
X160604421Y-70523682D01*
X160550960Y-70583056D01*
X160455473Y-70748444D01*
X160396458Y-70930072D01*
X160376496Y-71120000D01*
X156582449Y-71120000D01*
X156615383Y-71066810D01*
X156683402Y-70891233D01*
X156718000Y-70706146D01*
X156718000Y-70517854D01*
X156683402Y-70332767D01*
X156636423Y-70211500D01*
X156617488Y-70162623D01*
X156617487Y-70162621D01*
X156615383Y-70157190D01*
X156516259Y-69997100D01*
X156389407Y-69857950D01*
X156239147Y-69744478D01*
X156070594Y-69660549D01*
X155889489Y-69609020D01*
X155883696Y-69608483D01*
X155883695Y-69608483D01*
X155744063Y-69595545D01*
X155734782Y-69594335D01*
X155719347Y-69591738D01*
X155714539Y-69590929D01*
X155707999Y-69590849D01*
X155706859Y-69590835D01*
X155706855Y-69590835D01*
X155702000Y-69590776D01*
X155674412Y-69594727D01*
X155656549Y-69596000D01*
X154177000Y-69596000D01*
X154108879Y-69575998D01*
X154062386Y-69522342D01*
X154051000Y-69470000D01*
X154051000Y-62024001D01*
X154071002Y-61955880D01*
X154124658Y-61909387D01*
X154177000Y-61898001D01*
X204372673Y-61898001D01*
X204392057Y-61899501D01*
G37*
%TD.AperFunction*%
%TD*%
M02*
