%TF.GenerationSoftware,KiCad,Pcbnew,8.0.4*%
%TF.CreationDate,2024-10-31T19:52:35+03:00*%
%TF.ProjectId,Driver_Inductor,44726976-6572-45f4-996e-647563746f72,rev?*%
%TF.SameCoordinates,Original*%
%TF.FileFunction,Copper,L5,Inr*%
%TF.FilePolarity,Positive*%
%FSLAX46Y46*%
G04 Gerber Fmt 4.6, Leading zero omitted, Abs format (unit mm)*
G04 Created by KiCad (PCBNEW 8.0.4) date 2024-10-31 19:52:35*
%MOMM*%
%LPD*%
G01*
G04 APERTURE LIST*
G04 Aperture macros list*
%AMRoundRect*
0 Rectangle with rounded corners*
0 $1 Rounding radius*
0 $2 $3 $4 $5 $6 $7 $8 $9 X,Y pos of 4 corners*
0 Add a 4 corners polygon primitive as box body*
4,1,4,$2,$3,$4,$5,$6,$7,$8,$9,$2,$3,0*
0 Add four circle primitives for the rounded corners*
1,1,$1+$1,$2,$3*
1,1,$1+$1,$4,$5*
1,1,$1+$1,$6,$7*
1,1,$1+$1,$8,$9*
0 Add four rect primitives between the rounded corners*
20,1,$1+$1,$2,$3,$4,$5,0*
20,1,$1+$1,$4,$5,$6,$7,0*
20,1,$1+$1,$6,$7,$8,$9,0*
20,1,$1+$1,$8,$9,$2,$3,0*%
G04 Aperture macros list end*
%TA.AperFunction,ComponentPad*%
%ADD10O,2.300000X1.700000*%
%TD*%
%TA.AperFunction,ComponentPad*%
%ADD11C,2.400000*%
%TD*%
%TA.AperFunction,ComponentPad*%
%ADD12C,3.000000*%
%TD*%
%TA.AperFunction,ComponentPad*%
%ADD13C,10.000000*%
%TD*%
%TA.AperFunction,ComponentPad*%
%ADD14O,2.300000X1.600000*%
%TD*%
%TA.AperFunction,ComponentPad*%
%ADD15RoundRect,0.250001X0.499999X0.499999X-0.499999X0.499999X-0.499999X-0.499999X0.499999X-0.499999X0*%
%TD*%
%TA.AperFunction,ComponentPad*%
%ADD16C,1.500000*%
%TD*%
%TA.AperFunction,ViaPad*%
%ADD17C,0.800000*%
%TD*%
G04 APERTURE END LIST*
D10*
%TO.N,+15V*%
%TO.C,D12*%
X175450000Y-112268000D03*
%TO.N,GND*%
X175450000Y-109728000D03*
%TO.N,+5V*%
X175450000Y-107188000D03*
%TD*%
D11*
%TO.N,DESAT_H*%
%TO.C,C10*%
X87000000Y-83250000D03*
%TO.N,-VDC*%
X87000000Y-110750000D03*
%TD*%
D12*
%TO.N,Net-(D20-E1)*%
%TO.C,D20*%
X114572000Y-118232000D03*
X118382000Y-118232000D03*
%TO.N,G2*%
X126002000Y-118232000D03*
%TO.N,E2*%
X129812000Y-118232000D03*
%TO.N,G3*%
X137432000Y-118232000D03*
%TO.N,E3*%
X141242000Y-118232000D03*
%TO.N,Net-(D20-E4)*%
X148862000Y-118232000D03*
X152672000Y-118232000D03*
%TO.N,Net-(D20-E5)*%
X160292000Y-118232000D03*
X164102000Y-118232000D03*
%TO.N,Net-(D20-E6)*%
X171722000Y-118232000D03*
X175532000Y-118232000D03*
%TO.N,unconnected-(D20-DC--Pad13)*%
X184652000Y-108712000D03*
%TO.N,unconnected-(D20-DC--Pad14)*%
X184652000Y-104902000D03*
%TO.N,unconnected-(D20-DC+-Pad15)*%
X184652000Y-89662000D03*
%TO.N,unconnected-(D20-DC+-Pad16)*%
X184652000Y-85852000D03*
%TO.N,NTC1*%
X175532000Y-76332000D03*
%TO.N,NTC2*%
X171722000Y-76332000D03*
%TO.N,unconnected-(D20-OUT3-Pad19)*%
X160292000Y-76332000D03*
%TO.N,unconnected-(D20-OUT3-Pad20)*%
X156482000Y-76332000D03*
%TO.N,OUT2*%
X141242000Y-76332000D03*
X137432000Y-76332000D03*
%TO.N,OUT1*%
X122192000Y-76332000D03*
X118382000Y-76332000D03*
%TO.N,DESAT_H*%
X105452000Y-85852000D03*
X105452000Y-89662000D03*
%TO.N,-VDC*%
X105452000Y-104902000D03*
X105452000Y-108712000D03*
%TD*%
D13*
%TO.N,OUT2_Sens*%
%TO.C,J5*%
X139500000Y-68000000D03*
%TD*%
%TO.N,DESAT_H*%
%TO.C,J2*%
X98500000Y-78500000D03*
%TD*%
D14*
%TO.N,GND*%
%TO.C,D11*%
X151475005Y-90169995D03*
%TO.N,+15V*%
X151475005Y-92709995D03*
%TO.N,unconnected-(D11-Ctrl-Pad3)*%
X151475005Y-95249995D03*
%TO.N,unconnected-(D11-NC-Pad5)*%
X151475005Y-100329995D03*
%TO.N,+15V_H*%
X151475005Y-102869995D03*
%TO.N,E3*%
X151475005Y-105409995D03*
%TO.N,-15V_H*%
X151475005Y-107949995D03*
%TD*%
D15*
%TO.N,Temp_N*%
%TO.C,J1*%
X175500000Y-91420000D03*
D16*
%TO.N,+15V*%
X172500000Y-91420000D03*
%TO.N,PWM1_P*%
X169500000Y-91420000D03*
%TO.N,Fault_P*%
X166500000Y-91420000D03*
%TO.N,PWM2_P*%
X163500000Y-91420000D03*
%TO.N,Reset*%
X160500000Y-91420000D03*
%TO.N,Temp_P*%
X175500000Y-88420000D03*
%TO.N,GND*%
X172500000Y-88420000D03*
%TO.N,PWM1_N*%
X169500000Y-88420000D03*
%TO.N,Fault_N*%
X166500000Y-88420000D03*
%TO.N,PWM2_N*%
X163500000Y-88420000D03*
%TO.N,Current*%
X160500000Y-88420000D03*
%TD*%
D14*
%TO.N,GND*%
%TO.C,D8*%
X118455005Y-90169995D03*
%TO.N,+15V*%
X118455005Y-92709995D03*
%TO.N,unconnected-(D8-Ctrl-Pad3)*%
X118455005Y-95249995D03*
%TO.N,unconnected-(D8-NC-Pad5)*%
X118455005Y-100329995D03*
%TO.N,+15V_L*%
X118455005Y-102869995D03*
%TO.N,E2*%
X118455005Y-105409995D03*
%TO.N,-15V_L*%
X118455005Y-107949995D03*
%TD*%
D13*
%TO.N,OUT1*%
%TO.C,J4*%
X120000000Y-68000000D03*
%TD*%
%TO.N,-VDC*%
%TO.C,J3*%
X98500000Y-116000000D03*
%TD*%
D17*
%TO.N,+5V*%
X130800000Y-86000000D03*
%TO.N,GND*%
X154686000Y-82804000D03*
X164595000Y-73595000D03*
X121666000Y-82550000D03*
X122152500Y-91037500D03*
X154686000Y-83820000D03*
X154675000Y-65825000D03*
X136652000Y-89154000D03*
X121666000Y-83566000D03*
X133582500Y-91037500D03*
X126365000Y-88011000D03*
X187095000Y-75095000D03*
X132080000Y-92710000D03*
X181380000Y-75120000D03*
X168402000Y-108458000D03*
X168402000Y-110998000D03*
X127762000Y-85598000D03*
X143510000Y-92710000D03*
X145415000Y-80985000D03*
%TO.N,E2*%
X121920000Y-107950000D03*
X128016000Y-106172000D03*
%TO.N,FLT*%
X126746000Y-85598000D03*
X127000000Y-92710000D03*
X138430000Y-92710000D03*
X140335000Y-85217000D03*
%TO.N,RDY*%
X139700000Y-92710000D03*
X128270000Y-92710000D03*
X125730000Y-85598000D03*
X137795000Y-85217000D03*
X146715000Y-82185000D03*
%TO.N,+5VP*%
X185190000Y-72810000D03*
X159004000Y-111506000D03*
X160020000Y-111506000D03*
X172550000Y-65550000D03*
X161036000Y-111506000D03*
%TO.N,Net-(D14-DI)*%
X164500000Y-68500000D03*
X127696000Y-81092000D03*
%TO.N,+15V*%
X121666000Y-86360000D03*
X121666000Y-87376000D03*
X168402000Y-114046000D03*
X168402000Y-113030000D03*
X154686000Y-87376000D03*
X154686000Y-86360000D03*
%TO.N,+5V*%
X125796000Y-81092000D03*
X190905000Y-75095000D03*
X168402000Y-105410000D03*
X154675000Y-72175000D03*
X138176000Y-80960000D03*
X142875000Y-85385000D03*
X168402000Y-106426000D03*
X168405000Y-73595000D03*
X124227500Y-91037500D03*
X135657500Y-91037500D03*
X185190000Y-75190000D03*
%TO.N,PWM2_P*%
X130810000Y-92710000D03*
%TO.N,PWM2_N*%
X129540000Y-92710000D03*
%TO.N,Net-(D2-DESAT)*%
X134780959Y-105316959D03*
X113538000Y-112776000D03*
%TO.N,Net-(D1-DESAT)*%
X123096959Y-105316959D03*
X115570000Y-82804000D03*
%TO.N,G2*%
X130048000Y-104902000D03*
%TO.N,PWM1_P*%
X142240000Y-92710000D03*
%TO.N,PWM1_N*%
X140970000Y-92710000D03*
%TO.N,Net-(D9-A)*%
X142875000Y-81153000D03*
%TO.N,Net-(D10-A)*%
X145415000Y-85090000D03*
%TO.N,+15V_L*%
X125984000Y-109728000D03*
%TO.N,Reset*%
X135255000Y-80899000D03*
%TO.N,G3*%
X141732000Y-105156000D03*
%TO.N,E3*%
X155448000Y-106934000D03*
X139446000Y-106172000D03*
X133350000Y-107950000D03*
X155448000Y-105918000D03*
%TO.N,NTC1*%
X174450000Y-65550000D03*
%TO.N,+15V_H*%
X137414000Y-109728000D03*
%TO.N,-15V_H*%
X133350000Y-105410000D03*
X173500000Y-70500000D03*
X143764000Y-107950000D03*
X181380000Y-72880000D03*
X160782000Y-105918000D03*
X160782000Y-106934000D03*
%TO.N,-15V_L*%
X121920000Y-105410000D03*
X131064000Y-109728000D03*
%TD*%
%TA.AperFunction,Conductor*%
%TO.N,OUT2_Sens*%
G36*
X147506061Y-61500597D02*
G01*
X147682941Y-61518018D01*
X147706769Y-61522757D01*
X147871001Y-61572576D01*
X147893453Y-61581877D01*
X148044798Y-61662772D01*
X148065010Y-61676277D01*
X148197666Y-61785145D01*
X148214854Y-61802333D01*
X148323722Y-61934989D01*
X148337227Y-61955201D01*
X148418121Y-62106543D01*
X148427424Y-62129001D01*
X148477240Y-62293224D01*
X148481982Y-62317065D01*
X148499403Y-62493938D01*
X148500000Y-62506092D01*
X148500000Y-67993907D01*
X148499403Y-68006061D01*
X148481982Y-68182934D01*
X148477240Y-68206775D01*
X148427424Y-68370998D01*
X148418121Y-68393456D01*
X148337227Y-68544798D01*
X148323722Y-68565010D01*
X148214854Y-68697666D01*
X148197666Y-68714854D01*
X148065010Y-68823722D01*
X148044798Y-68837227D01*
X147893456Y-68918121D01*
X147870998Y-68927424D01*
X147706775Y-68977240D01*
X147682934Y-68981982D01*
X147506061Y-68999403D01*
X147493907Y-69000000D01*
X145000000Y-69000000D01*
X145000000Y-62500000D01*
X134000000Y-62500000D01*
X134000000Y-73000000D01*
X132506093Y-73000000D01*
X132493939Y-72999403D01*
X132317065Y-72981982D01*
X132293224Y-72977240D01*
X132129001Y-72927424D01*
X132106543Y-72918121D01*
X131955201Y-72837227D01*
X131934989Y-72823722D01*
X131802333Y-72714854D01*
X131785145Y-72697666D01*
X131676277Y-72565010D01*
X131662772Y-72544798D01*
X131581878Y-72393456D01*
X131572575Y-72370998D01*
X131522757Y-72206769D01*
X131518018Y-72182941D01*
X131500597Y-72006061D01*
X131500000Y-71993907D01*
X131500000Y-62506092D01*
X131500597Y-62493938D01*
X131518018Y-62317056D01*
X131522757Y-62293232D01*
X131572577Y-62128994D01*
X131581875Y-62106549D01*
X131662775Y-61955195D01*
X131676272Y-61934995D01*
X131785149Y-61802328D01*
X131802328Y-61785149D01*
X131934995Y-61676272D01*
X131955195Y-61662775D01*
X132106549Y-61581875D01*
X132128994Y-61572577D01*
X132293232Y-61522757D01*
X132317056Y-61518018D01*
X132493939Y-61500597D01*
X132506093Y-61500000D01*
X147493907Y-61500000D01*
X147506061Y-61500597D01*
G37*
%TD.AperFunction*%
%TD*%
%TA.AperFunction,Conductor*%
%TO.N,OUT1*%
G36*
X127506061Y-61500597D02*
G01*
X127682941Y-61518018D01*
X127706769Y-61522757D01*
X127871001Y-61572576D01*
X127893453Y-61581877D01*
X128044798Y-61662772D01*
X128065010Y-61676277D01*
X128197666Y-61785145D01*
X128214854Y-61802333D01*
X128323722Y-61934989D01*
X128337227Y-61955201D01*
X128418121Y-62106543D01*
X128427424Y-62129001D01*
X128477240Y-62293224D01*
X128481982Y-62317065D01*
X128499403Y-62493938D01*
X128500000Y-62506092D01*
X128500000Y-76993907D01*
X128499403Y-77006061D01*
X128481982Y-77182934D01*
X128477240Y-77206775D01*
X128427424Y-77370998D01*
X128418121Y-77393456D01*
X128337227Y-77544798D01*
X128323722Y-77565010D01*
X128214854Y-77697666D01*
X128197666Y-77714854D01*
X128065010Y-77823722D01*
X128044798Y-77837227D01*
X127893456Y-77918121D01*
X127870998Y-77927424D01*
X127706775Y-77977240D01*
X127682934Y-77981982D01*
X127506061Y-77999403D01*
X127493907Y-78000000D01*
X118506093Y-78000000D01*
X118493939Y-77999403D01*
X118317065Y-77981982D01*
X118293224Y-77977240D01*
X118129001Y-77927424D01*
X118106543Y-77918121D01*
X117955201Y-77837227D01*
X117934989Y-77823722D01*
X117802333Y-77714854D01*
X117785145Y-77697666D01*
X117676277Y-77565010D01*
X117662772Y-77544798D01*
X117581878Y-77393456D01*
X117572575Y-77370998D01*
X117522757Y-77206769D01*
X117518018Y-77182941D01*
X117500597Y-77006061D01*
X117500000Y-76993907D01*
X117500000Y-75000003D01*
X117500000Y-75000000D01*
X117500000Y-74000000D01*
X116500000Y-74000000D01*
X116499997Y-74000000D01*
X115506093Y-74000000D01*
X115493939Y-73999403D01*
X115317065Y-73981982D01*
X115293224Y-73977240D01*
X115129001Y-73927424D01*
X115106543Y-73918121D01*
X114955201Y-73837227D01*
X114934989Y-73823722D01*
X114802333Y-73714854D01*
X114785145Y-73697666D01*
X114676277Y-73565010D01*
X114662772Y-73544798D01*
X114581878Y-73393456D01*
X114572575Y-73370998D01*
X114522757Y-73206769D01*
X114518018Y-73182941D01*
X114500597Y-73006061D01*
X114500000Y-72993907D01*
X114500000Y-62506092D01*
X114500597Y-62493938D01*
X114518018Y-62317056D01*
X114522757Y-62293232D01*
X114572577Y-62128994D01*
X114581875Y-62106549D01*
X114662775Y-61955195D01*
X114676272Y-61934995D01*
X114785149Y-61802328D01*
X114802328Y-61785149D01*
X114934995Y-61676272D01*
X114955195Y-61662775D01*
X115106549Y-61581875D01*
X115128994Y-61572577D01*
X115293232Y-61522757D01*
X115317056Y-61518018D01*
X115493939Y-61500597D01*
X115506093Y-61500000D01*
X127493907Y-61500000D01*
X127506061Y-61500597D01*
G37*
%TD.AperFunction*%
%TD*%
%TA.AperFunction,Conductor*%
%TO.N,OUT2*%
G36*
X143000000Y-78000000D02*
G01*
X135500000Y-78000000D01*
X135500000Y-74500000D01*
X143000000Y-74500000D01*
X143000000Y-78000000D01*
G37*
%TD.AperFunction*%
%TD*%
%TA.AperFunction,Conductor*%
%TO.N,OUT2*%
G36*
X147548444Y-69504771D02*
G01*
X147682943Y-69518018D01*
X147706769Y-69522757D01*
X147871001Y-69572576D01*
X147893453Y-69581877D01*
X148044798Y-69662772D01*
X148065010Y-69676277D01*
X148197666Y-69785145D01*
X148214854Y-69802333D01*
X148323722Y-69934989D01*
X148337227Y-69955201D01*
X148418121Y-70106543D01*
X148427424Y-70129001D01*
X148477240Y-70293224D01*
X148481982Y-70317065D01*
X148499403Y-70493938D01*
X148500000Y-70506092D01*
X148500000Y-76993907D01*
X148499403Y-77006061D01*
X148481982Y-77182934D01*
X148477240Y-77206775D01*
X148427424Y-77370998D01*
X148418121Y-77393456D01*
X148337227Y-77544798D01*
X148323722Y-77565010D01*
X148214854Y-77697666D01*
X148197666Y-77714854D01*
X148065010Y-77823722D01*
X148044798Y-77837227D01*
X147893456Y-77918121D01*
X147870998Y-77927424D01*
X147706775Y-77977240D01*
X147682934Y-77981982D01*
X147506061Y-77999403D01*
X147493907Y-78000000D01*
X143000000Y-78000000D01*
X143000000Y-74500000D01*
X135500000Y-74500000D01*
X135500000Y-78000000D01*
X132506093Y-78000000D01*
X132493939Y-77999403D01*
X132317065Y-77981982D01*
X132293224Y-77977240D01*
X132129001Y-77927424D01*
X132106543Y-77918121D01*
X131955201Y-77837227D01*
X131934989Y-77823722D01*
X131802333Y-77714854D01*
X131785145Y-77697666D01*
X131676277Y-77565010D01*
X131662772Y-77544798D01*
X131581878Y-77393456D01*
X131572575Y-77370998D01*
X131522757Y-77206769D01*
X131518018Y-77182941D01*
X131500597Y-77006061D01*
X131500000Y-76993907D01*
X131500000Y-74506092D01*
X131500597Y-74493938D01*
X131518018Y-74317056D01*
X131522757Y-74293232D01*
X131572577Y-74128994D01*
X131581875Y-74106549D01*
X131662775Y-73955195D01*
X131676272Y-73934995D01*
X131785149Y-73802328D01*
X131802328Y-73785149D01*
X131934995Y-73676272D01*
X131955195Y-73662775D01*
X132106549Y-73581875D01*
X132128994Y-73572577D01*
X132293232Y-73522757D01*
X132317054Y-73518018D01*
X132451556Y-73504771D01*
X132469757Y-73504324D01*
X132481293Y-73504891D01*
X132506093Y-73505500D01*
X132506110Y-73505500D01*
X136325966Y-73505500D01*
X136325976Y-73505500D01*
X136391963Y-73501175D01*
X136392831Y-73501060D01*
X136393698Y-73501003D01*
X136393981Y-73500976D01*
X136393981Y-73500985D01*
X136409016Y-73500000D01*
X138454986Y-73500000D01*
X138470020Y-73500985D01*
X138470021Y-73500976D01*
X138470303Y-73501003D01*
X138471170Y-73501060D01*
X138472039Y-73501175D01*
X138538024Y-73505500D01*
X138538034Y-73505500D01*
X140135966Y-73505500D01*
X140135976Y-73505500D01*
X140201963Y-73501175D01*
X140202831Y-73501060D01*
X140203698Y-73501003D01*
X140203981Y-73500976D01*
X140203981Y-73500985D01*
X140219016Y-73500000D01*
X140307427Y-73500000D01*
X140500000Y-73500000D01*
X140829845Y-73368061D01*
X140856473Y-73360726D01*
X140956923Y-73344817D01*
X141012088Y-73332890D01*
X141038742Y-73325548D01*
X141092237Y-73307544D01*
X143151978Y-72483648D01*
X143159212Y-72480689D01*
X143162769Y-72479202D01*
X143170034Y-72476098D01*
X143250336Y-72426377D01*
X143292360Y-72400358D01*
X143292366Y-72400353D01*
X143345918Y-72355503D01*
X143345929Y-72355494D01*
X143441963Y-72248356D01*
X143595063Y-72018707D01*
X143743680Y-71795780D01*
X145216793Y-69586111D01*
X145270355Y-69541254D01*
X145283918Y-69536253D01*
X145328193Y-69522807D01*
X145352051Y-69518056D01*
X145473338Y-69506098D01*
X145485505Y-69505500D01*
X147493890Y-69505500D01*
X147493907Y-69505500D01*
X147518707Y-69504891D01*
X147530242Y-69504324D01*
X147548444Y-69504771D01*
G37*
%TD.AperFunction*%
%TD*%
%TA.AperFunction,Conductor*%
%TO.N,OUT2_Sens*%
G36*
X145000000Y-69000000D02*
G01*
X143021362Y-71967955D01*
X142967797Y-72012816D01*
X142964240Y-72014303D01*
X140904499Y-72838199D01*
X140877845Y-72845541D01*
X140513211Y-72903294D01*
X140513209Y-72903294D01*
X140431586Y-72925164D01*
X140168065Y-72995775D01*
X140135976Y-73000000D01*
X138538024Y-73000000D01*
X138505934Y-72995775D01*
X138160794Y-72903295D01*
X138160790Y-72903294D01*
X138160789Y-72903294D01*
X137798405Y-72845898D01*
X137432001Y-72826696D01*
X137431999Y-72826696D01*
X137065594Y-72845898D01*
X136703211Y-72903294D01*
X136703209Y-72903294D01*
X136621586Y-72925164D01*
X136358065Y-72995775D01*
X136325976Y-73000000D01*
X134000000Y-73000000D01*
X134000000Y-62500000D01*
X145000000Y-62500000D01*
X145000000Y-69000000D01*
G37*
%TD.AperFunction*%
%TD*%
%TA.AperFunction,Conductor*%
%TO.N,-VDC*%
G36*
X96145372Y-102509438D02*
G01*
X96548143Y-102676272D01*
X96560123Y-102681234D01*
X96669395Y-102716738D01*
X96989877Y-102820869D01*
X97429267Y-102926357D01*
X97875580Y-102997046D01*
X98326062Y-103032500D01*
X98326070Y-103032500D01*
X98777930Y-103032500D01*
X98777938Y-103032500D01*
X99228420Y-102997046D01*
X99674733Y-102926357D01*
X100114123Y-102820869D01*
X100543882Y-102681232D01*
X100958627Y-102509438D01*
X101006080Y-102500000D01*
X104993907Y-102500000D01*
X105006061Y-102500597D01*
X105182941Y-102518018D01*
X105206769Y-102522757D01*
X105371001Y-102572576D01*
X105393453Y-102581877D01*
X105544798Y-102662772D01*
X105565010Y-102676277D01*
X105697666Y-102785145D01*
X105714854Y-102802333D01*
X105823722Y-102934989D01*
X105837227Y-102955201D01*
X105918121Y-103106543D01*
X105927424Y-103129001D01*
X105977240Y-103293224D01*
X105981982Y-103317065D01*
X105999403Y-103493938D01*
X106000000Y-103506092D01*
X106000000Y-108993907D01*
X105999403Y-109006061D01*
X105981982Y-109182934D01*
X105977240Y-109206775D01*
X105927424Y-109370998D01*
X105918121Y-109393456D01*
X105837227Y-109544798D01*
X105823722Y-109565010D01*
X105714854Y-109697666D01*
X105697666Y-109714854D01*
X105565010Y-109823722D01*
X105544798Y-109837227D01*
X105393456Y-109918121D01*
X105370998Y-109927424D01*
X105206775Y-109977240D01*
X105182934Y-109981982D01*
X105006061Y-109999403D01*
X104993907Y-110000000D01*
X88500000Y-110000000D01*
X88500000Y-111000000D01*
X97493907Y-111000000D01*
X97506061Y-111000597D01*
X97682941Y-111018018D01*
X97706769Y-111022757D01*
X97871001Y-111072576D01*
X97893453Y-111081877D01*
X98044798Y-111162772D01*
X98065010Y-111176277D01*
X98197666Y-111285145D01*
X98214854Y-111302333D01*
X98323722Y-111434989D01*
X98337227Y-111455201D01*
X98418121Y-111606543D01*
X98427424Y-111629001D01*
X98477240Y-111793224D01*
X98481982Y-111817065D01*
X98499403Y-111993938D01*
X98500000Y-112006092D01*
X98500000Y-120493907D01*
X98499403Y-120506061D01*
X98481982Y-120682934D01*
X98477240Y-120706775D01*
X98427424Y-120870998D01*
X98418121Y-120893456D01*
X98337227Y-121044798D01*
X98323722Y-121065010D01*
X98214854Y-121197666D01*
X98197666Y-121214854D01*
X98065010Y-121323722D01*
X98044798Y-121337227D01*
X97893456Y-121418121D01*
X97870998Y-121427424D01*
X97706775Y-121477240D01*
X97682934Y-121481982D01*
X97506061Y-121499403D01*
X97493907Y-121500000D01*
X82731684Y-121500000D01*
X82720879Y-121499528D01*
X82709675Y-121498548D01*
X82688991Y-121496738D01*
X82667707Y-121492985D01*
X82637090Y-121484781D01*
X82624242Y-121480575D01*
X82588544Y-121466693D01*
X82583543Y-121464621D01*
X82547353Y-121448696D01*
X82544892Y-121447581D01*
X82230969Y-121301197D01*
X82228529Y-121300027D01*
X82193018Y-121282515D01*
X82188218Y-121280016D01*
X82153521Y-121260980D01*
X82151165Y-121259654D01*
X81851189Y-121086464D01*
X81848952Y-121085140D01*
X81815035Y-121064559D01*
X81810503Y-121061671D01*
X81777577Y-121039670D01*
X81775345Y-121038144D01*
X81491586Y-120839453D01*
X81489389Y-120837878D01*
X81457513Y-120814506D01*
X81453220Y-120811212D01*
X81422342Y-120786430D01*
X81420251Y-120784714D01*
X81298954Y-120682934D01*
X81154877Y-120562039D01*
X81152951Y-120560387D01*
X81123113Y-120534220D01*
X81119131Y-120530571D01*
X81090528Y-120503190D01*
X81088594Y-120501297D01*
X80843702Y-120256405D01*
X80841809Y-120254471D01*
X80814428Y-120225868D01*
X80810775Y-120221882D01*
X80784606Y-120192041D01*
X80782967Y-120190129D01*
X80560285Y-119924748D01*
X80558569Y-119922657D01*
X80533787Y-119891779D01*
X80530493Y-119887486D01*
X80507121Y-119855610D01*
X80505546Y-119853413D01*
X80306855Y-119569654D01*
X80305329Y-119567422D01*
X80283328Y-119534496D01*
X80280447Y-119529976D01*
X80259843Y-119496020D01*
X80258559Y-119493850D01*
X80085345Y-119193834D01*
X80084019Y-119191478D01*
X80064983Y-119156781D01*
X80062484Y-119151981D01*
X80044982Y-119116491D01*
X80043811Y-119114049D01*
X80034276Y-119093600D01*
X80029240Y-119081057D01*
X80012313Y-119031193D01*
X80006469Y-119004832D01*
X80000737Y-118952487D01*
X80000000Y-118938989D01*
X80000000Y-103506092D01*
X80000597Y-103493938D01*
X80018018Y-103317056D01*
X80022757Y-103293232D01*
X80072577Y-103128994D01*
X80081875Y-103106549D01*
X80162775Y-102955195D01*
X80176272Y-102934995D01*
X80285149Y-102802328D01*
X80302328Y-102785149D01*
X80434995Y-102676272D01*
X80455195Y-102662775D01*
X80606549Y-102581875D01*
X80628994Y-102572577D01*
X80793232Y-102522757D01*
X80817056Y-102518018D01*
X80993939Y-102500597D01*
X81006093Y-102500000D01*
X96097920Y-102500000D01*
X96145372Y-102509438D01*
G37*
%TD.AperFunction*%
%TD*%
%TA.AperFunction,Conductor*%
%TO.N,DESAT_H*%
G36*
X97506061Y-73000597D02*
G01*
X97682941Y-73018018D01*
X97706769Y-73022757D01*
X97871001Y-73072576D01*
X97893453Y-73081877D01*
X98044798Y-73162772D01*
X98065010Y-73176277D01*
X98197666Y-73285145D01*
X98214854Y-73302333D01*
X98323722Y-73434989D01*
X98337227Y-73455201D01*
X98418121Y-73606543D01*
X98427424Y-73629001D01*
X98477240Y-73793224D01*
X98481982Y-73817065D01*
X98499403Y-73993938D01*
X98500000Y-74006092D01*
X98500000Y-82493907D01*
X98499403Y-82506061D01*
X98481982Y-82682934D01*
X98477240Y-82706775D01*
X98427424Y-82870998D01*
X98418121Y-82893456D01*
X98337227Y-83044798D01*
X98323722Y-83065010D01*
X98214854Y-83197666D01*
X98197666Y-83214854D01*
X98065010Y-83323722D01*
X98044798Y-83337227D01*
X97893456Y-83418121D01*
X97870998Y-83427424D01*
X97706775Y-83477240D01*
X97682934Y-83481982D01*
X97506061Y-83499403D01*
X97493907Y-83500000D01*
X88500000Y-83500000D01*
X88500000Y-84500000D01*
X104993907Y-84500000D01*
X105006061Y-84500597D01*
X105182941Y-84518018D01*
X105206769Y-84522757D01*
X105371001Y-84572576D01*
X105393453Y-84581877D01*
X105544798Y-84662772D01*
X105565010Y-84676277D01*
X105697666Y-84785145D01*
X105714854Y-84802333D01*
X105823722Y-84934989D01*
X105837227Y-84955201D01*
X105918121Y-85106543D01*
X105927424Y-85129001D01*
X105977240Y-85293224D01*
X105981982Y-85317065D01*
X105999403Y-85493938D01*
X106000000Y-85506092D01*
X106000000Y-90993907D01*
X105999403Y-91006061D01*
X105981982Y-91182934D01*
X105977240Y-91206775D01*
X105927424Y-91370998D01*
X105918121Y-91393456D01*
X105837227Y-91544798D01*
X105823722Y-91565010D01*
X105714854Y-91697666D01*
X105697666Y-91714854D01*
X105565010Y-91823722D01*
X105544798Y-91837227D01*
X105393456Y-91918121D01*
X105370998Y-91927424D01*
X105206775Y-91977240D01*
X105182934Y-91981982D01*
X105006061Y-91999403D01*
X104993907Y-92000000D01*
X100851570Y-92000000D01*
X100804117Y-91990561D01*
X100771957Y-91977240D01*
X100741086Y-91964452D01*
X100543876Y-91882765D01*
X100238101Y-91783413D01*
X100114123Y-91743131D01*
X99674733Y-91637643D01*
X99674727Y-91637642D01*
X99228429Y-91566955D01*
X99228420Y-91566954D01*
X99228418Y-91566953D01*
X99228410Y-91566953D01*
X98777943Y-91531500D01*
X98777938Y-91531500D01*
X98326062Y-91531500D01*
X98326056Y-91531500D01*
X97875589Y-91566953D01*
X97875570Y-91566955D01*
X97429272Y-91637642D01*
X97429269Y-91637642D01*
X97429267Y-91637643D01*
X97271910Y-91675420D01*
X96989888Y-91743128D01*
X96989882Y-91743129D01*
X96989877Y-91743131D01*
X96989865Y-91743135D01*
X96560123Y-91882765D01*
X96299883Y-91990561D01*
X96252430Y-92000000D01*
X81006093Y-92000000D01*
X80993939Y-91999403D01*
X80817065Y-91981982D01*
X80793224Y-91977240D01*
X80629001Y-91927424D01*
X80606543Y-91918121D01*
X80455201Y-91837227D01*
X80434989Y-91823722D01*
X80302333Y-91714854D01*
X80285145Y-91697666D01*
X80176277Y-91565010D01*
X80162772Y-91544798D01*
X80081878Y-91393456D01*
X80072575Y-91370998D01*
X80022757Y-91206769D01*
X80018018Y-91182941D01*
X80000597Y-91006061D01*
X80000000Y-90993907D01*
X80000000Y-74006092D01*
X80000597Y-73993938D01*
X80018018Y-73817056D01*
X80022757Y-73793232D01*
X80072577Y-73628994D01*
X80081875Y-73606549D01*
X80162775Y-73455195D01*
X80176272Y-73434995D01*
X80285149Y-73302328D01*
X80302328Y-73285149D01*
X80434995Y-73176272D01*
X80455195Y-73162775D01*
X80606549Y-73081875D01*
X80628994Y-73072577D01*
X80793232Y-73022757D01*
X80817056Y-73018018D01*
X80993939Y-73000597D01*
X81006093Y-73000000D01*
X97493907Y-73000000D01*
X97506061Y-73000597D01*
G37*
%TD.AperFunction*%
%TD*%
%TA.AperFunction,Conductor*%
%TO.N,-15V_L*%
G36*
X129439007Y-104413685D02*
G01*
X129484762Y-104466489D01*
X129494706Y-104535647D01*
X129474017Y-104588441D01*
X129467781Y-104597474D01*
X129467780Y-104597476D01*
X129411762Y-104745181D01*
X129392722Y-104901999D01*
X129392722Y-104902000D01*
X129411762Y-105058818D01*
X129460461Y-105187224D01*
X129467780Y-105206523D01*
X129557517Y-105336530D01*
X129675760Y-105441283D01*
X129675762Y-105441284D01*
X129815634Y-105514696D01*
X129969014Y-105552500D01*
X129969015Y-105552500D01*
X130126985Y-105552500D01*
X130280365Y-105514696D01*
X130322503Y-105492580D01*
X130420240Y-105441283D01*
X130538483Y-105336530D01*
X130628220Y-105206523D01*
X130684237Y-105058818D01*
X130703278Y-104902000D01*
X130701527Y-104887574D01*
X130684237Y-104745181D01*
X130662187Y-104687042D01*
X130628220Y-104597477D01*
X130628218Y-104597474D01*
X130621983Y-104588441D01*
X130600099Y-104522087D01*
X130617564Y-104454435D01*
X130668831Y-104406965D01*
X130724032Y-104394000D01*
X130819907Y-104394000D01*
X130832061Y-104394597D01*
X131008941Y-104412018D01*
X131032769Y-104416757D01*
X131197001Y-104466576D01*
X131219453Y-104475877D01*
X131347573Y-104544358D01*
X131370798Y-104556772D01*
X131391008Y-104570276D01*
X131424152Y-104597476D01*
X131523666Y-104679145D01*
X131540854Y-104696333D01*
X131649722Y-104828989D01*
X131663227Y-104849201D01*
X131744121Y-105000543D01*
X131753424Y-105023001D01*
X131803240Y-105187224D01*
X131807982Y-105211065D01*
X131825403Y-105387938D01*
X131826000Y-105400092D01*
X131826000Y-109483907D01*
X131825403Y-109496061D01*
X131807982Y-109672934D01*
X131803240Y-109696775D01*
X131753424Y-109860998D01*
X131744121Y-109883456D01*
X131663227Y-110034798D01*
X131649722Y-110055010D01*
X131540854Y-110187666D01*
X131523666Y-110204854D01*
X131391010Y-110313722D01*
X131370798Y-110327227D01*
X131219456Y-110408121D01*
X131196998Y-110417424D01*
X131032775Y-110467240D01*
X131008934Y-110471982D01*
X130832061Y-110489403D01*
X130819907Y-110490000D01*
X126431509Y-110490000D01*
X126364470Y-110470315D01*
X126318715Y-110417511D01*
X126308771Y-110348353D01*
X126337796Y-110284797D01*
X126351142Y-110272839D01*
X126350626Y-110272256D01*
X126356238Y-110267283D01*
X126356240Y-110267283D01*
X126474483Y-110162530D01*
X126564220Y-110032523D01*
X126620237Y-109884818D01*
X126639278Y-109728000D01*
X126635634Y-109697984D01*
X126620237Y-109571181D01*
X126579643Y-109464144D01*
X126564220Y-109423477D01*
X126474483Y-109293470D01*
X126356240Y-109188717D01*
X126356238Y-109188716D01*
X126356237Y-109188715D01*
X126216365Y-109115303D01*
X126062986Y-109077500D01*
X126062985Y-109077500D01*
X125905015Y-109077500D01*
X125905014Y-109077500D01*
X125751634Y-109115303D01*
X125611762Y-109188715D01*
X125559400Y-109235103D01*
X125502944Y-109285119D01*
X125493516Y-109293471D01*
X125403781Y-109423475D01*
X125403780Y-109423476D01*
X125347762Y-109571181D01*
X125328722Y-109727999D01*
X125328722Y-109728000D01*
X125347762Y-109884818D01*
X125388358Y-109991858D01*
X125403780Y-110032523D01*
X125493517Y-110162530D01*
X125611760Y-110267283D01*
X125611761Y-110267283D01*
X125617374Y-110272256D01*
X125615437Y-110274441D01*
X125650929Y-110318250D01*
X125658577Y-110387700D01*
X125627465Y-110450260D01*
X125567468Y-110486068D01*
X125536491Y-110490000D01*
X118100093Y-110490000D01*
X118087939Y-110489403D01*
X117911065Y-110471982D01*
X117887224Y-110467240D01*
X117723001Y-110417424D01*
X117700543Y-110408121D01*
X117549201Y-110327227D01*
X117528989Y-110313722D01*
X117396333Y-110204854D01*
X117379145Y-110187666D01*
X117270277Y-110055010D01*
X117256772Y-110034798D01*
X117175878Y-109883456D01*
X117166575Y-109860998D01*
X117126231Y-109727999D01*
X117116757Y-109696769D01*
X117112018Y-109672941D01*
X117094597Y-109496061D01*
X117094000Y-109483907D01*
X117094000Y-108723278D01*
X117113685Y-108656239D01*
X117166489Y-108610484D01*
X117235647Y-108600540D01*
X117299203Y-108629565D01*
X117305681Y-108635597D01*
X117435665Y-108765581D01*
X117435669Y-108765584D01*
X117607636Y-108880489D01*
X117607646Y-108880494D01*
X117798730Y-108959644D01*
X117798738Y-108959646D01*
X118001584Y-108999994D01*
X118001588Y-108999995D01*
X118205005Y-108999995D01*
X118205005Y-108383007D01*
X118262012Y-108415920D01*
X118389179Y-108449995D01*
X118520831Y-108449995D01*
X118647998Y-108415920D01*
X118705005Y-108383007D01*
X118705005Y-108999995D01*
X118908422Y-108999995D01*
X118908425Y-108999994D01*
X119111271Y-108959646D01*
X119111279Y-108959644D01*
X119302363Y-108880494D01*
X119302373Y-108880489D01*
X119474340Y-108765584D01*
X119474344Y-108765581D01*
X119620591Y-108619334D01*
X119620594Y-108619330D01*
X119735499Y-108447363D01*
X119735504Y-108447353D01*
X119814653Y-108256271D01*
X119814654Y-108256269D01*
X119825848Y-108199995D01*
X118888017Y-108199995D01*
X118920930Y-108142988D01*
X118955005Y-108015821D01*
X118955005Y-107949999D01*
X121264722Y-107949999D01*
X121264722Y-107950000D01*
X121283762Y-108106818D01*
X121317014Y-108194495D01*
X121339780Y-108254523D01*
X121429517Y-108384530D01*
X121547760Y-108489283D01*
X121547762Y-108489284D01*
X121687634Y-108562696D01*
X121841014Y-108600500D01*
X121841015Y-108600500D01*
X121998985Y-108600500D01*
X122152365Y-108562696D01*
X122194503Y-108540580D01*
X122292240Y-108489283D01*
X122410483Y-108384530D01*
X122500220Y-108254523D01*
X122556237Y-108106818D01*
X122575278Y-107950000D01*
X122573564Y-107935879D01*
X122556237Y-107793181D01*
X122520896Y-107699995D01*
X122500220Y-107645477D01*
X122410483Y-107515470D01*
X122292240Y-107410717D01*
X122292238Y-107410716D01*
X122292237Y-107410715D01*
X122152365Y-107337303D01*
X121998986Y-107299500D01*
X121998985Y-107299500D01*
X121841015Y-107299500D01*
X121841014Y-107299500D01*
X121687634Y-107337303D01*
X121547762Y-107410715D01*
X121429516Y-107515471D01*
X121339781Y-107645475D01*
X121339780Y-107645476D01*
X121283762Y-107793181D01*
X121264722Y-107949999D01*
X118955005Y-107949999D01*
X118955005Y-107884169D01*
X118920930Y-107757002D01*
X118888017Y-107699995D01*
X119825848Y-107699995D01*
X119814654Y-107643720D01*
X119814653Y-107643718D01*
X119735504Y-107452636D01*
X119735499Y-107452626D01*
X119620594Y-107280659D01*
X119620591Y-107280655D01*
X119474344Y-107134408D01*
X119474340Y-107134405D01*
X119302373Y-107019500D01*
X119302363Y-107019495D01*
X119111279Y-106940345D01*
X119111271Y-106940343D01*
X118908425Y-106899995D01*
X118705005Y-106899995D01*
X118705005Y-107516983D01*
X118647998Y-107484070D01*
X118520831Y-107449995D01*
X118389179Y-107449995D01*
X118262012Y-107484070D01*
X118205005Y-107516983D01*
X118205005Y-106899995D01*
X118001584Y-106899995D01*
X117798738Y-106940343D01*
X117798730Y-106940345D01*
X117607646Y-107019495D01*
X117607636Y-107019500D01*
X117435669Y-107134405D01*
X117435665Y-107134408D01*
X117305681Y-107264393D01*
X117244358Y-107297878D01*
X117174666Y-107292894D01*
X117118733Y-107251022D01*
X117094316Y-107185558D01*
X117094000Y-107176712D01*
X117094000Y-106183985D01*
X117113685Y-106116946D01*
X117166489Y-106071191D01*
X117235647Y-106061247D01*
X117299203Y-106090272D01*
X117305681Y-106096304D01*
X117435347Y-106225970D01*
X117435350Y-106225972D01*
X117607407Y-106340936D01*
X117798585Y-106420125D01*
X118001535Y-106460494D01*
X118001539Y-106460495D01*
X118001540Y-106460495D01*
X118908471Y-106460495D01*
X118908472Y-106460494D01*
X119111425Y-106420125D01*
X119302603Y-106340936D01*
X119474660Y-106225972D01*
X119528633Y-106171999D01*
X127360722Y-106171999D01*
X127360722Y-106172000D01*
X127379762Y-106328818D01*
X127429701Y-106460494D01*
X127435780Y-106476523D01*
X127525517Y-106606530D01*
X127643760Y-106711283D01*
X127643762Y-106711284D01*
X127783634Y-106784696D01*
X127937014Y-106822500D01*
X127937015Y-106822500D01*
X128094985Y-106822500D01*
X128248365Y-106784696D01*
X128316213Y-106749086D01*
X128388240Y-106711283D01*
X128506483Y-106606530D01*
X128596220Y-106476523D01*
X128652237Y-106328818D01*
X128671278Y-106172000D01*
X128670172Y-106162887D01*
X128652237Y-106015181D01*
X128615380Y-105917998D01*
X128596220Y-105867477D01*
X128506483Y-105737470D01*
X128388240Y-105632717D01*
X128388238Y-105632716D01*
X128388237Y-105632715D01*
X128248365Y-105559303D01*
X128094986Y-105521500D01*
X128094985Y-105521500D01*
X127937015Y-105521500D01*
X127937014Y-105521500D01*
X127783634Y-105559303D01*
X127643762Y-105632715D01*
X127564931Y-105702552D01*
X127530465Y-105733087D01*
X127525516Y-105737471D01*
X127435781Y-105867475D01*
X127435780Y-105867476D01*
X127379762Y-106015181D01*
X127360722Y-106171999D01*
X119528633Y-106171999D01*
X119620982Y-106079650D01*
X119735946Y-105907593D01*
X119815135Y-105716415D01*
X119855505Y-105513460D01*
X119855505Y-105316958D01*
X122441681Y-105316958D01*
X122441681Y-105316959D01*
X122460721Y-105473777D01*
X122509825Y-105603251D01*
X122516739Y-105621482D01*
X122606476Y-105751489D01*
X122724719Y-105856242D01*
X122724721Y-105856243D01*
X122864593Y-105929655D01*
X123017973Y-105967459D01*
X123017974Y-105967459D01*
X123175944Y-105967459D01*
X123329324Y-105929655D01*
X123371243Y-105907654D01*
X123469199Y-105856242D01*
X123587442Y-105751489D01*
X123677179Y-105621482D01*
X123733196Y-105473777D01*
X123752237Y-105316959D01*
X123736485Y-105187224D01*
X123733196Y-105160140D01*
X123692601Y-105053101D01*
X123677179Y-105012436D01*
X123587442Y-104882429D01*
X123469199Y-104777676D01*
X123469197Y-104777675D01*
X123469196Y-104777674D01*
X123329324Y-104704262D01*
X123175945Y-104666459D01*
X123175944Y-104666459D01*
X123017974Y-104666459D01*
X123017973Y-104666459D01*
X122864593Y-104704262D01*
X122724721Y-104777674D01*
X122606475Y-104882430D01*
X122516740Y-105012434D01*
X122516739Y-105012435D01*
X122460721Y-105160140D01*
X122441681Y-105316958D01*
X119855505Y-105316958D01*
X119855505Y-105306530D01*
X119815135Y-105103575D01*
X119735946Y-104912397D01*
X119620982Y-104740340D01*
X119620980Y-104740337D01*
X119486324Y-104605681D01*
X119452839Y-104544358D01*
X119457823Y-104474666D01*
X119499695Y-104418733D01*
X119565159Y-104394316D01*
X119574005Y-104394000D01*
X129371968Y-104394000D01*
X129439007Y-104413685D01*
G37*
%TD.AperFunction*%
%TD*%
%TA.AperFunction,Conductor*%
%TO.N,-15V_H*%
G36*
X141351530Y-104413685D02*
G01*
X141397285Y-104466489D01*
X141407229Y-104535647D01*
X141378204Y-104599203D01*
X141364857Y-104611160D01*
X141365374Y-104611744D01*
X141359761Y-104616716D01*
X141359760Y-104616717D01*
X141269897Y-104696328D01*
X141241516Y-104721471D01*
X141151781Y-104851475D01*
X141151780Y-104851476D01*
X141095762Y-104999181D01*
X141076722Y-105155999D01*
X141076722Y-105156000D01*
X141095762Y-105312818D01*
X141132619Y-105410000D01*
X141151780Y-105460523D01*
X141241517Y-105590530D01*
X141359760Y-105695283D01*
X141359762Y-105695284D01*
X141499634Y-105768696D01*
X141653014Y-105806500D01*
X141653015Y-105806500D01*
X141810985Y-105806500D01*
X141964365Y-105768696D01*
X142104240Y-105695283D01*
X142222483Y-105590530D01*
X142312220Y-105460523D01*
X142368237Y-105312818D01*
X142387278Y-105156000D01*
X142382281Y-105114841D01*
X142368237Y-104999181D01*
X142331380Y-104901998D01*
X142312220Y-104851477D01*
X142222483Y-104721470D01*
X142104240Y-104616717D01*
X142104238Y-104616716D01*
X142098626Y-104611744D01*
X142100562Y-104609558D01*
X142065071Y-104565750D01*
X142057423Y-104496300D01*
X142088535Y-104433740D01*
X142148532Y-104397932D01*
X142179509Y-104394000D01*
X150356005Y-104394000D01*
X150423044Y-104413685D01*
X150468799Y-104466489D01*
X150478743Y-104535647D01*
X150449718Y-104599203D01*
X150443686Y-104605681D01*
X150309030Y-104740336D01*
X150309029Y-104740337D01*
X150194063Y-104912398D01*
X150114875Y-105103574D01*
X150114873Y-105103582D01*
X150074505Y-105306525D01*
X150074505Y-105513464D01*
X150114873Y-105716407D01*
X150114875Y-105716415D01*
X150184092Y-105883520D01*
X150194064Y-105907593D01*
X150221034Y-105947956D01*
X150309029Y-106079652D01*
X150455347Y-106225970D01*
X150455350Y-106225972D01*
X150627407Y-106340936D01*
X150818585Y-106420125D01*
X151021535Y-106460494D01*
X151021539Y-106460495D01*
X151021540Y-106460495D01*
X151928471Y-106460495D01*
X151928472Y-106460494D01*
X152131425Y-106420125D01*
X152322603Y-106340936D01*
X152494660Y-106225972D01*
X152640982Y-106079650D01*
X152748993Y-105917999D01*
X154792722Y-105917999D01*
X154792722Y-105918000D01*
X154811762Y-106074818D01*
X154848619Y-106172000D01*
X154867780Y-106222523D01*
X154896722Y-106264453D01*
X154959608Y-106355560D01*
X154981491Y-106421915D01*
X154964025Y-106489566D01*
X154959608Y-106496440D01*
X154867781Y-106629475D01*
X154867780Y-106629476D01*
X154811762Y-106777181D01*
X154792722Y-106933999D01*
X154792722Y-106934000D01*
X154811762Y-107090818D01*
X154828293Y-107134405D01*
X154867780Y-107238523D01*
X154957517Y-107368530D01*
X155075760Y-107473283D01*
X155075762Y-107473284D01*
X155215634Y-107546696D01*
X155369014Y-107584500D01*
X155369015Y-107584500D01*
X155526985Y-107584500D01*
X155680365Y-107546696D01*
X155820240Y-107473283D01*
X155938483Y-107368530D01*
X156028220Y-107238523D01*
X156084237Y-107090818D01*
X156103278Y-106934000D01*
X156099831Y-106905607D01*
X156084237Y-106777181D01*
X156053030Y-106694897D01*
X156028220Y-106629477D01*
X155938483Y-106499470D01*
X155938481Y-106499468D01*
X155936391Y-106496440D01*
X155914508Y-106430086D01*
X155931973Y-106362434D01*
X155936391Y-106355560D01*
X155938481Y-106352531D01*
X155938483Y-106352530D01*
X156028220Y-106222523D01*
X156084237Y-106074818D01*
X156103278Y-105918000D01*
X156099642Y-105888050D01*
X156084237Y-105761181D01*
X156059245Y-105695283D01*
X156028220Y-105613477D01*
X155938483Y-105483470D01*
X155820240Y-105378717D01*
X155820238Y-105378716D01*
X155820237Y-105378715D01*
X155680365Y-105305303D01*
X155526986Y-105267500D01*
X155526985Y-105267500D01*
X155369015Y-105267500D01*
X155369014Y-105267500D01*
X155215634Y-105305303D01*
X155075762Y-105378715D01*
X154957516Y-105483471D01*
X154867781Y-105613475D01*
X154867780Y-105613476D01*
X154811762Y-105761181D01*
X154792722Y-105917999D01*
X152748993Y-105917999D01*
X152755946Y-105907593D01*
X152835135Y-105716415D01*
X152875505Y-105513460D01*
X152875505Y-105306530D01*
X152835135Y-105103575D01*
X152755946Y-104912397D01*
X152640982Y-104740340D01*
X152640980Y-104740337D01*
X152506324Y-104605681D01*
X152472839Y-104544358D01*
X152477823Y-104474666D01*
X152519695Y-104418733D01*
X152585159Y-104394316D01*
X152594005Y-104394000D01*
X160537907Y-104394000D01*
X160550061Y-104394597D01*
X160726941Y-104412018D01*
X160750769Y-104416757D01*
X160915001Y-104466576D01*
X160937453Y-104475877D01*
X161065573Y-104544358D01*
X161088798Y-104556772D01*
X161109010Y-104570277D01*
X161241666Y-104679145D01*
X161258854Y-104696333D01*
X161367722Y-104828989D01*
X161381227Y-104849201D01*
X161462121Y-105000543D01*
X161471424Y-105023001D01*
X161521240Y-105187224D01*
X161525982Y-105211065D01*
X161543403Y-105387938D01*
X161544000Y-105400092D01*
X161544000Y-109483907D01*
X161543403Y-109496061D01*
X161525982Y-109672934D01*
X161521240Y-109696775D01*
X161471424Y-109860998D01*
X161462121Y-109883456D01*
X161381227Y-110034798D01*
X161367722Y-110055010D01*
X161258854Y-110187666D01*
X161241666Y-110204854D01*
X161109010Y-110313722D01*
X161088798Y-110327227D01*
X160937456Y-110408121D01*
X160914998Y-110417424D01*
X160750775Y-110467240D01*
X160726934Y-110471982D01*
X160550061Y-110489403D01*
X160537907Y-110490000D01*
X137861509Y-110490000D01*
X137794470Y-110470315D01*
X137748715Y-110417511D01*
X137738771Y-110348353D01*
X137767796Y-110284797D01*
X137781142Y-110272839D01*
X137780626Y-110272256D01*
X137786238Y-110267283D01*
X137786240Y-110267283D01*
X137904483Y-110162530D01*
X137994220Y-110032523D01*
X138050237Y-109884818D01*
X138069278Y-109728000D01*
X138065092Y-109693520D01*
X138050237Y-109571181D01*
X138017138Y-109483907D01*
X137994220Y-109423477D01*
X137904483Y-109293470D01*
X137786240Y-109188717D01*
X137786238Y-109188716D01*
X137786237Y-109188715D01*
X137646365Y-109115303D01*
X137492986Y-109077500D01*
X137492985Y-109077500D01*
X137335015Y-109077500D01*
X137335014Y-109077500D01*
X137181634Y-109115303D01*
X137041762Y-109188715D01*
X136989400Y-109235103D01*
X136932944Y-109285119D01*
X136923516Y-109293471D01*
X136833781Y-109423475D01*
X136833780Y-109423476D01*
X136777762Y-109571181D01*
X136758722Y-109727999D01*
X136758722Y-109728000D01*
X136777762Y-109884818D01*
X136833780Y-110032523D01*
X136923517Y-110162530D01*
X137041760Y-110267283D01*
X137041761Y-110267283D01*
X137047374Y-110272256D01*
X137045437Y-110274441D01*
X137080929Y-110318250D01*
X137088577Y-110387700D01*
X137057465Y-110450260D01*
X136997468Y-110486068D01*
X136966491Y-110490000D01*
X133848093Y-110490000D01*
X133835939Y-110489403D01*
X133659065Y-110471982D01*
X133635224Y-110467240D01*
X133471001Y-110417424D01*
X133448543Y-110408121D01*
X133297201Y-110327227D01*
X133276989Y-110313722D01*
X133144333Y-110204854D01*
X133127145Y-110187666D01*
X133018277Y-110055010D01*
X133004772Y-110034798D01*
X132923878Y-109883456D01*
X132914575Y-109860998D01*
X132874231Y-109727999D01*
X132864757Y-109696769D01*
X132860018Y-109672941D01*
X132842597Y-109496061D01*
X132842000Y-109483907D01*
X132842000Y-108623152D01*
X132861685Y-108556113D01*
X132914489Y-108510358D01*
X132983647Y-108500414D01*
X133023626Y-108513356D01*
X133117634Y-108562696D01*
X133271014Y-108600500D01*
X133271015Y-108600500D01*
X133428985Y-108600500D01*
X133582365Y-108562696D01*
X133624503Y-108540580D01*
X133722240Y-108489283D01*
X133840483Y-108384530D01*
X133930220Y-108254523D01*
X133986237Y-108106818D01*
X134005278Y-107950000D01*
X134003564Y-107935879D01*
X133986237Y-107793181D01*
X133950896Y-107699995D01*
X150104162Y-107699995D01*
X151041993Y-107699995D01*
X151009080Y-107757002D01*
X150975005Y-107884169D01*
X150975005Y-108015821D01*
X151009080Y-108142988D01*
X151041993Y-108199995D01*
X150104162Y-108199995D01*
X150115355Y-108256269D01*
X150115356Y-108256271D01*
X150194505Y-108447353D01*
X150194510Y-108447363D01*
X150309415Y-108619330D01*
X150309418Y-108619334D01*
X150455665Y-108765581D01*
X150455669Y-108765584D01*
X150627636Y-108880489D01*
X150627646Y-108880494D01*
X150818730Y-108959644D01*
X150818738Y-108959646D01*
X151021584Y-108999994D01*
X151021588Y-108999995D01*
X151225005Y-108999995D01*
X151225005Y-108383007D01*
X151282012Y-108415920D01*
X151409179Y-108449995D01*
X151540831Y-108449995D01*
X151667998Y-108415920D01*
X151725005Y-108383007D01*
X151725005Y-108999995D01*
X151928422Y-108999995D01*
X151928425Y-108999994D01*
X152131271Y-108959646D01*
X152131279Y-108959644D01*
X152322363Y-108880494D01*
X152322373Y-108880489D01*
X152494340Y-108765584D01*
X152494344Y-108765581D01*
X152640591Y-108619334D01*
X152640594Y-108619330D01*
X152755499Y-108447363D01*
X152755504Y-108447353D01*
X152834653Y-108256271D01*
X152834654Y-108256269D01*
X152845848Y-108199995D01*
X151908017Y-108199995D01*
X151940930Y-108142988D01*
X151975005Y-108015821D01*
X151975005Y-107884169D01*
X151940930Y-107757002D01*
X151908017Y-107699995D01*
X152845848Y-107699995D01*
X152834654Y-107643720D01*
X152834653Y-107643718D01*
X152755504Y-107452636D01*
X152755499Y-107452626D01*
X152640594Y-107280659D01*
X152640591Y-107280655D01*
X152494344Y-107134408D01*
X152494340Y-107134405D01*
X152322373Y-107019500D01*
X152322363Y-107019495D01*
X152131279Y-106940345D01*
X152131271Y-106940343D01*
X151928425Y-106899995D01*
X151725005Y-106899995D01*
X151725005Y-107516983D01*
X151667998Y-107484070D01*
X151540831Y-107449995D01*
X151409179Y-107449995D01*
X151282012Y-107484070D01*
X151225005Y-107516983D01*
X151225005Y-106899995D01*
X151021584Y-106899995D01*
X150818738Y-106940343D01*
X150818730Y-106940345D01*
X150627646Y-107019495D01*
X150627636Y-107019500D01*
X150455669Y-107134405D01*
X150455665Y-107134408D01*
X150309418Y-107280655D01*
X150309415Y-107280659D01*
X150194510Y-107452626D01*
X150194505Y-107452636D01*
X150115356Y-107643718D01*
X150115355Y-107643720D01*
X150104162Y-107699995D01*
X133950896Y-107699995D01*
X133930220Y-107645477D01*
X133840483Y-107515470D01*
X133722240Y-107410717D01*
X133722238Y-107410716D01*
X133722237Y-107410715D01*
X133582365Y-107337303D01*
X133428986Y-107299500D01*
X133428985Y-107299500D01*
X133271015Y-107299500D01*
X133271014Y-107299500D01*
X133117637Y-107337303D01*
X133023626Y-107386644D01*
X132955117Y-107400369D01*
X132890064Y-107374876D01*
X132849120Y-107318260D01*
X132842000Y-107276847D01*
X132842000Y-106171999D01*
X138790722Y-106171999D01*
X138790722Y-106172000D01*
X138809762Y-106328818D01*
X138859701Y-106460494D01*
X138865780Y-106476523D01*
X138955517Y-106606530D01*
X139073760Y-106711283D01*
X139073762Y-106711284D01*
X139213634Y-106784696D01*
X139367014Y-106822500D01*
X139367015Y-106822500D01*
X139524985Y-106822500D01*
X139678365Y-106784696D01*
X139818240Y-106711283D01*
X139936483Y-106606530D01*
X140026220Y-106476523D01*
X140082237Y-106328818D01*
X140101278Y-106172000D01*
X140100172Y-106162887D01*
X140082237Y-106015181D01*
X140032304Y-105883520D01*
X140026220Y-105867477D01*
X139936483Y-105737470D01*
X139818240Y-105632717D01*
X139818238Y-105632716D01*
X139818237Y-105632715D01*
X139678365Y-105559303D01*
X139524986Y-105521500D01*
X139524985Y-105521500D01*
X139367015Y-105521500D01*
X139367014Y-105521500D01*
X139213634Y-105559303D01*
X139073762Y-105632715D01*
X139073760Y-105632717D01*
X138979293Y-105716407D01*
X138955516Y-105737471D01*
X138865781Y-105867475D01*
X138865780Y-105867476D01*
X138809762Y-106015181D01*
X138790722Y-106171999D01*
X132842000Y-106171999D01*
X132842000Y-105400092D01*
X132842597Y-105387938D01*
X132849588Y-105316958D01*
X134125681Y-105316958D01*
X134125681Y-105316959D01*
X134144721Y-105473777D01*
X134177158Y-105559304D01*
X134200739Y-105621482D01*
X134290476Y-105751489D01*
X134408719Y-105856242D01*
X134408721Y-105856243D01*
X134548593Y-105929655D01*
X134701973Y-105967459D01*
X134701974Y-105967459D01*
X134859944Y-105967459D01*
X135013324Y-105929655D01*
X135055363Y-105907591D01*
X135153199Y-105856242D01*
X135271442Y-105751489D01*
X135361179Y-105621482D01*
X135417196Y-105473777D01*
X135436237Y-105316959D01*
X135420486Y-105187232D01*
X135417196Y-105160140D01*
X135368698Y-105032262D01*
X135361179Y-105012436D01*
X135271442Y-104882429D01*
X135153199Y-104777676D01*
X135153197Y-104777675D01*
X135153196Y-104777674D01*
X135013324Y-104704262D01*
X134859945Y-104666459D01*
X134859944Y-104666459D01*
X134701974Y-104666459D01*
X134701973Y-104666459D01*
X134548593Y-104704262D01*
X134408721Y-104777674D01*
X134290475Y-104882430D01*
X134200740Y-105012434D01*
X134200739Y-105012435D01*
X134144721Y-105160140D01*
X134125681Y-105316958D01*
X132849588Y-105316958D01*
X132860018Y-105211056D01*
X132864757Y-105187232D01*
X132914577Y-105022994D01*
X132923875Y-105000549D01*
X133004775Y-104849195D01*
X133018272Y-104828995D01*
X133127149Y-104696328D01*
X133144328Y-104679149D01*
X133276995Y-104570272D01*
X133297195Y-104556775D01*
X133448549Y-104475875D01*
X133470994Y-104466577D01*
X133635232Y-104416757D01*
X133659056Y-104412018D01*
X133835939Y-104394597D01*
X133848093Y-104394000D01*
X141284491Y-104394000D01*
X141351530Y-104413685D01*
G37*
%TD.AperFunction*%
%TD*%
%TA.AperFunction,Conductor*%
%TO.N,+15V*%
G36*
X116130074Y-79013685D02*
G01*
X116141071Y-79021634D01*
X116321635Y-79167852D01*
X116543551Y-79311965D01*
X116629348Y-79367682D01*
X116956264Y-79534255D01*
X117298801Y-79665742D01*
X117653206Y-79760705D01*
X118015596Y-79818102D01*
X118361734Y-79836241D01*
X118381999Y-79837304D01*
X118382000Y-79837304D01*
X118382001Y-79837304D01*
X118401203Y-79836297D01*
X118748404Y-79818102D01*
X119110794Y-79760705D01*
X119465199Y-79665742D01*
X119807736Y-79534255D01*
X120134652Y-79367682D01*
X120219465Y-79312603D01*
X120286409Y-79292600D01*
X120353542Y-79311965D01*
X120354472Y-79312563D01*
X120439348Y-79367682D01*
X120766264Y-79534255D01*
X121108801Y-79665742D01*
X121463206Y-79760705D01*
X121825596Y-79818102D01*
X122171734Y-79836241D01*
X122191999Y-79837304D01*
X122192000Y-79837304D01*
X122192001Y-79837304D01*
X122211203Y-79836297D01*
X122558404Y-79818102D01*
X122920794Y-79760705D01*
X123275199Y-79665742D01*
X123617736Y-79534255D01*
X123944652Y-79367682D01*
X124252366Y-79167851D01*
X124432929Y-79021634D01*
X124497417Y-78994742D01*
X124510965Y-78994000D01*
X135113035Y-78994000D01*
X135180074Y-79013685D01*
X135191071Y-79021634D01*
X135371635Y-79167852D01*
X135593551Y-79311965D01*
X135679348Y-79367682D01*
X136006264Y-79534255D01*
X136348801Y-79665742D01*
X136703206Y-79760705D01*
X137065596Y-79818102D01*
X137411734Y-79836241D01*
X137431999Y-79837304D01*
X137432000Y-79837304D01*
X137432001Y-79837304D01*
X137451203Y-79836297D01*
X137798404Y-79818102D01*
X138160794Y-79760705D01*
X138515199Y-79665742D01*
X138857736Y-79534255D01*
X139184652Y-79367682D01*
X139269465Y-79312603D01*
X139336409Y-79292600D01*
X139403542Y-79311965D01*
X139404472Y-79312563D01*
X139489348Y-79367682D01*
X139816264Y-79534255D01*
X140158801Y-79665742D01*
X140513206Y-79760705D01*
X140875596Y-79818102D01*
X141221734Y-79836241D01*
X141241999Y-79837304D01*
X141242000Y-79837304D01*
X141242001Y-79837304D01*
X141261203Y-79836297D01*
X141608404Y-79818102D01*
X141970794Y-79760705D01*
X142325199Y-79665742D01*
X142667736Y-79534255D01*
X142994652Y-79367682D01*
X143302366Y-79167851D01*
X143482929Y-79021634D01*
X143547417Y-78994742D01*
X143560965Y-78994000D01*
X196097907Y-78994000D01*
X196110061Y-78994597D01*
X196118025Y-78995381D01*
X196286941Y-79012018D01*
X196310769Y-79016757D01*
X196475001Y-79066576D01*
X196497453Y-79075877D01*
X196648798Y-79156772D01*
X196669010Y-79170277D01*
X196801666Y-79279145D01*
X196818854Y-79296333D01*
X196927722Y-79428989D01*
X196941227Y-79449201D01*
X197022121Y-79600543D01*
X197031424Y-79623001D01*
X197081240Y-79787224D01*
X197085982Y-79811065D01*
X197103403Y-79987938D01*
X197104000Y-80000092D01*
X197104000Y-95035542D01*
X197084315Y-95102581D01*
X197031511Y-95148336D01*
X196962353Y-95158280D01*
X196898797Y-95129255D01*
X196865439Y-95082995D01*
X196808470Y-94945460D01*
X196778307Y-94872640D01*
X196573160Y-94470016D01*
X196573154Y-94470007D01*
X196573152Y-94470002D01*
X196573149Y-94469997D01*
X196337061Y-94084737D01*
X196337057Y-94084732D01*
X196337055Y-94084728D01*
X196071449Y-93719153D01*
X196071444Y-93719147D01*
X196071433Y-93719133D01*
X195777996Y-93375562D01*
X195777987Y-93375552D01*
X195777980Y-93375544D01*
X195458456Y-93056020D01*
X195458448Y-93056013D01*
X195458437Y-93056003D01*
X195114866Y-92762566D01*
X195114839Y-92762545D01*
X194776878Y-92517002D01*
X194749272Y-92496945D01*
X194749269Y-92496943D01*
X194749262Y-92496938D01*
X194364002Y-92260850D01*
X194363997Y-92260847D01*
X194363987Y-92260842D01*
X194363984Y-92260840D01*
X193961360Y-92055693D01*
X193754484Y-91970002D01*
X193543876Y-91882765D01*
X193207752Y-91773553D01*
X193114123Y-91743131D01*
X192674733Y-91637643D01*
X192674727Y-91637642D01*
X192228429Y-91566955D01*
X192228420Y-91566954D01*
X192228418Y-91566953D01*
X192228410Y-91566953D01*
X191777943Y-91531500D01*
X191777938Y-91531500D01*
X191326062Y-91531500D01*
X191326056Y-91531500D01*
X190875589Y-91566953D01*
X190875570Y-91566955D01*
X190429272Y-91637642D01*
X190429269Y-91637642D01*
X190429267Y-91637643D01*
X190304445Y-91667610D01*
X189989888Y-91743128D01*
X189989882Y-91743129D01*
X189989877Y-91743131D01*
X189989865Y-91743135D01*
X189560123Y-91882765D01*
X189142642Y-92055692D01*
X188740002Y-92260847D01*
X188739997Y-92260850D01*
X188354737Y-92496938D01*
X188354726Y-92496946D01*
X187989160Y-92762545D01*
X187989133Y-92762566D01*
X187645562Y-93056003D01*
X187645536Y-93056027D01*
X187326027Y-93375536D01*
X187326003Y-93375562D01*
X187032566Y-93719133D01*
X187032545Y-93719160D01*
X186766946Y-94084726D01*
X186766938Y-94084737D01*
X186530850Y-94469997D01*
X186530847Y-94470002D01*
X186325692Y-94872642D01*
X186152765Y-95290123D01*
X186013135Y-95719865D01*
X186013128Y-95719888D01*
X185907642Y-96159272D01*
X185836955Y-96605570D01*
X185836953Y-96605589D01*
X185801500Y-97056056D01*
X185801500Y-97507943D01*
X185836953Y-97958410D01*
X185836955Y-97958429D01*
X185907642Y-98404727D01*
X185907643Y-98404733D01*
X186013131Y-98844123D01*
X186030386Y-98897227D01*
X186152765Y-99273876D01*
X186214044Y-99421815D01*
X186325693Y-99691360D01*
X186396729Y-99830776D01*
X186530847Y-100093997D01*
X186530850Y-100094002D01*
X186766938Y-100479262D01*
X186766946Y-100479273D01*
X187032545Y-100844839D01*
X187032566Y-100844866D01*
X187326003Y-101188437D01*
X187326013Y-101188448D01*
X187326020Y-101188456D01*
X187645544Y-101507980D01*
X187645552Y-101507987D01*
X187645562Y-101507996D01*
X187989133Y-101801433D01*
X187989147Y-101801444D01*
X187989153Y-101801449D01*
X188354728Y-102067055D01*
X188354732Y-102067057D01*
X188354737Y-102067061D01*
X188739997Y-102303149D01*
X188740002Y-102303152D01*
X188740007Y-102303154D01*
X188740016Y-102303160D01*
X189142640Y-102508307D01*
X189560118Y-102681232D01*
X189560123Y-102681234D01*
X189669395Y-102716738D01*
X189989877Y-102820869D01*
X190429267Y-102926357D01*
X190875580Y-102997046D01*
X191326062Y-103032500D01*
X191326070Y-103032500D01*
X191777930Y-103032500D01*
X191777938Y-103032500D01*
X192228420Y-102997046D01*
X192674733Y-102926357D01*
X193114123Y-102820869D01*
X193543882Y-102681232D01*
X193961360Y-102508307D01*
X194363984Y-102303160D01*
X194749272Y-102067055D01*
X195114847Y-101801449D01*
X195458456Y-101507980D01*
X195777980Y-101188456D01*
X196071449Y-100844847D01*
X196337055Y-100479272D01*
X196573160Y-100093984D01*
X196778307Y-99691360D01*
X196865439Y-99481003D01*
X196909280Y-99426601D01*
X196975574Y-99404536D01*
X197043274Y-99421815D01*
X197090884Y-99472953D01*
X197104000Y-99528457D01*
X197104000Y-118881907D01*
X197103403Y-118894061D01*
X197085982Y-119070934D01*
X197081240Y-119094775D01*
X197031424Y-119258998D01*
X197022121Y-119281456D01*
X196941227Y-119432798D01*
X196927722Y-119453010D01*
X196818854Y-119585666D01*
X196801666Y-119602854D01*
X196669010Y-119711722D01*
X196648798Y-119725227D01*
X196497456Y-119806121D01*
X196474998Y-119815424D01*
X196310775Y-119865240D01*
X196286934Y-119869982D01*
X196110061Y-119887403D01*
X196097907Y-119888000D01*
X177004497Y-119888000D01*
X176937458Y-119868315D01*
X176891703Y-119815511D01*
X176881759Y-119746353D01*
X176910784Y-119682797D01*
X176916816Y-119676319D01*
X177047729Y-119545405D01*
X177047739Y-119545395D01*
X177219226Y-119316315D01*
X177356367Y-119065161D01*
X177456369Y-118797046D01*
X177517196Y-118517428D01*
X177537610Y-118232000D01*
X177517196Y-117946572D01*
X177456369Y-117666954D01*
X177356367Y-117398839D01*
X177355144Y-117396600D01*
X177219229Y-117147690D01*
X177219224Y-117147682D01*
X177047745Y-116918612D01*
X177047729Y-116918594D01*
X176845405Y-116716270D01*
X176845387Y-116716254D01*
X176616317Y-116544775D01*
X176616309Y-116544770D01*
X176365166Y-116407635D01*
X176365167Y-116407635D01*
X176257915Y-116367632D01*
X176097046Y-116307631D01*
X176097043Y-116307630D01*
X176097037Y-116307628D01*
X175817433Y-116246804D01*
X175532001Y-116226390D01*
X175531999Y-116226390D01*
X175246566Y-116246804D01*
X174966962Y-116307628D01*
X174698833Y-116407635D01*
X174447690Y-116544770D01*
X174447682Y-116544775D01*
X174218612Y-116716254D01*
X174218594Y-116716270D01*
X174016270Y-116918594D01*
X174016254Y-116918612D01*
X173844775Y-117147682D01*
X173844770Y-117147690D01*
X173735832Y-117347195D01*
X173686427Y-117396600D01*
X173618154Y-117411452D01*
X173552689Y-117387035D01*
X173518168Y-117347195D01*
X173409229Y-117147690D01*
X173409224Y-117147682D01*
X173237745Y-116918612D01*
X173237729Y-116918594D01*
X173035405Y-116716270D01*
X173035387Y-116716254D01*
X172806317Y-116544775D01*
X172806309Y-116544770D01*
X172555166Y-116407635D01*
X172555167Y-116407635D01*
X172447915Y-116367632D01*
X172287046Y-116307631D01*
X172287043Y-116307630D01*
X172287037Y-116307628D01*
X172007433Y-116246804D01*
X171722001Y-116226390D01*
X171721999Y-116226390D01*
X171436566Y-116246804D01*
X171156962Y-116307628D01*
X170888833Y-116407635D01*
X170637690Y-116544770D01*
X170637682Y-116544775D01*
X170408612Y-116716254D01*
X170408594Y-116716270D01*
X170206270Y-116918594D01*
X170206254Y-116918612D01*
X170034775Y-117147682D01*
X170034770Y-117147690D01*
X169897635Y-117398833D01*
X169797628Y-117666962D01*
X169736804Y-117946566D01*
X169716390Y-118231998D01*
X169716390Y-118232001D01*
X169736804Y-118517433D01*
X169797628Y-118797037D01*
X169897635Y-119065166D01*
X170034770Y-119316309D01*
X170034775Y-119316317D01*
X170206254Y-119545387D01*
X170206270Y-119545405D01*
X170337184Y-119676319D01*
X170370669Y-119737642D01*
X170365685Y-119807334D01*
X170323813Y-119863267D01*
X170258349Y-119887684D01*
X170249503Y-119888000D01*
X165574497Y-119888000D01*
X165507458Y-119868315D01*
X165461703Y-119815511D01*
X165451759Y-119746353D01*
X165480784Y-119682797D01*
X165486816Y-119676319D01*
X165617729Y-119545405D01*
X165617739Y-119545395D01*
X165789226Y-119316315D01*
X165926367Y-119065161D01*
X166026369Y-118797046D01*
X166087196Y-118517428D01*
X166107610Y-118232000D01*
X166087196Y-117946572D01*
X166026369Y-117666954D01*
X165926367Y-117398839D01*
X165925144Y-117396600D01*
X165789229Y-117147690D01*
X165789224Y-117147682D01*
X165617745Y-116918612D01*
X165617729Y-116918594D01*
X165415405Y-116716270D01*
X165415387Y-116716254D01*
X165186317Y-116544775D01*
X165186309Y-116544770D01*
X164935166Y-116407635D01*
X164935167Y-116407635D01*
X164827915Y-116367632D01*
X164667046Y-116307631D01*
X164667043Y-116307630D01*
X164667037Y-116307628D01*
X164387433Y-116246804D01*
X164102001Y-116226390D01*
X164101999Y-116226390D01*
X163816566Y-116246804D01*
X163536962Y-116307628D01*
X163268833Y-116407635D01*
X163017690Y-116544770D01*
X163017682Y-116544775D01*
X162788612Y-116716254D01*
X162788594Y-116716270D01*
X162586270Y-116918594D01*
X162586254Y-116918612D01*
X162414775Y-117147682D01*
X162414770Y-117147690D01*
X162305832Y-117347195D01*
X162256427Y-117396600D01*
X162188154Y-117411452D01*
X162122689Y-117387035D01*
X162088168Y-117347195D01*
X161979229Y-117147690D01*
X161979224Y-117147682D01*
X161807745Y-116918612D01*
X161807729Y-116918594D01*
X161605405Y-116716270D01*
X161605387Y-116716254D01*
X161376317Y-116544775D01*
X161376309Y-116544770D01*
X161125166Y-116407635D01*
X161125167Y-116407635D01*
X161017915Y-116367632D01*
X160857046Y-116307631D01*
X160857043Y-116307630D01*
X160857037Y-116307628D01*
X160577433Y-116246804D01*
X160292001Y-116226390D01*
X160291999Y-116226390D01*
X160006566Y-116246804D01*
X159726962Y-116307628D01*
X159458833Y-116407635D01*
X159207690Y-116544770D01*
X159207682Y-116544775D01*
X158978612Y-116716254D01*
X158978594Y-116716270D01*
X158776270Y-116918594D01*
X158776254Y-116918612D01*
X158604775Y-117147682D01*
X158604770Y-117147690D01*
X158467635Y-117398833D01*
X158367628Y-117666962D01*
X158306804Y-117946566D01*
X158286390Y-118231998D01*
X158286390Y-118232001D01*
X158306804Y-118517433D01*
X158367628Y-118797037D01*
X158467635Y-119065166D01*
X158604770Y-119316309D01*
X158604775Y-119316317D01*
X158776254Y-119545387D01*
X158776270Y-119545405D01*
X158907184Y-119676319D01*
X158940669Y-119737642D01*
X158935685Y-119807334D01*
X158893813Y-119863267D01*
X158828349Y-119887684D01*
X158819503Y-119888000D01*
X156200093Y-119888000D01*
X156187939Y-119887403D01*
X156011065Y-119869982D01*
X155987224Y-119865240D01*
X155823001Y-119815424D01*
X155800543Y-119806121D01*
X155649201Y-119725227D01*
X155628989Y-119711722D01*
X155496333Y-119602854D01*
X155479145Y-119585666D01*
X155370277Y-119453010D01*
X155356772Y-119432798D01*
X155294512Y-119316317D01*
X155275877Y-119281453D01*
X155266575Y-119258998D01*
X155216757Y-119094769D01*
X155212018Y-119070941D01*
X155194597Y-118894061D01*
X155194000Y-118881907D01*
X155194000Y-112258092D01*
X155194597Y-112245938D01*
X155201201Y-112178888D01*
X155212018Y-112069056D01*
X155216757Y-112045232D01*
X155266577Y-111880994D01*
X155275875Y-111858549D01*
X155356775Y-111707195D01*
X155370272Y-111686995D01*
X155479149Y-111554328D01*
X155496328Y-111537149D01*
X155628995Y-111428272D01*
X155649195Y-111414775D01*
X155800549Y-111333875D01*
X155822994Y-111324577D01*
X155987232Y-111274757D01*
X156011056Y-111270018D01*
X156187939Y-111252597D01*
X156200093Y-111252000D01*
X157987521Y-111252000D01*
X158054560Y-111271685D01*
X158100315Y-111324489D01*
X158110841Y-111388957D01*
X158098540Y-111506000D01*
X158118326Y-111694256D01*
X158118327Y-111694259D01*
X158176818Y-111874277D01*
X158176821Y-111874284D01*
X158271467Y-112038216D01*
X158299236Y-112069056D01*
X158398129Y-112178888D01*
X158551265Y-112290148D01*
X158551270Y-112290151D01*
X158724192Y-112367142D01*
X158724197Y-112367144D01*
X158909354Y-112406500D01*
X158909355Y-112406500D01*
X159098644Y-112406500D01*
X159098646Y-112406500D01*
X159283803Y-112367144D01*
X159456730Y-112290151D01*
X159456734Y-112290148D01*
X159461563Y-112287998D01*
X159530813Y-112278712D01*
X159562437Y-112287998D01*
X159567265Y-112290148D01*
X159567270Y-112290151D01*
X159740197Y-112367144D01*
X159925354Y-112406500D01*
X159925355Y-112406500D01*
X160114644Y-112406500D01*
X160114646Y-112406500D01*
X160299803Y-112367144D01*
X160472730Y-112290151D01*
X160472734Y-112290148D01*
X160477563Y-112287998D01*
X160546813Y-112278712D01*
X160578437Y-112287998D01*
X160583265Y-112290148D01*
X160583270Y-112290151D01*
X160756197Y-112367144D01*
X160941354Y-112406500D01*
X160941355Y-112406500D01*
X161130644Y-112406500D01*
X161130646Y-112406500D01*
X161315803Y-112367144D01*
X161488730Y-112290151D01*
X161641871Y-112178888D01*
X161768533Y-112038216D01*
X161863179Y-111874284D01*
X161921674Y-111694256D01*
X161941460Y-111506000D01*
X161929158Y-111388958D01*
X161941727Y-111320232D01*
X161989459Y-111269208D01*
X162052479Y-111252000D01*
X163083997Y-111252000D01*
X163084000Y-111252000D01*
X164084000Y-111252000D01*
X164084000Y-110998000D01*
X167496540Y-110998000D01*
X167516326Y-111186256D01*
X167516327Y-111186259D01*
X167574818Y-111366277D01*
X167574821Y-111366284D01*
X167669467Y-111530216D01*
X167675710Y-111537149D01*
X167796129Y-111670888D01*
X167949265Y-111782148D01*
X167949270Y-111782151D01*
X168122192Y-111859142D01*
X168122197Y-111859144D01*
X168307354Y-111898500D01*
X168307355Y-111898500D01*
X168496644Y-111898500D01*
X168496646Y-111898500D01*
X168681803Y-111859144D01*
X168854730Y-111782151D01*
X169007871Y-111670888D01*
X169134533Y-111530216D01*
X169229179Y-111366284D01*
X169287674Y-111186256D01*
X169307460Y-110998000D01*
X169287674Y-110809744D01*
X169229179Y-110629716D01*
X169134533Y-110465784D01*
X169007871Y-110325112D01*
X169007870Y-110325111D01*
X168854734Y-110213851D01*
X168854729Y-110213848D01*
X168681807Y-110136857D01*
X168681802Y-110136855D01*
X168536001Y-110105865D01*
X168496646Y-110097500D01*
X168307354Y-110097500D01*
X168274897Y-110104398D01*
X168122197Y-110136855D01*
X168122192Y-110136857D01*
X167949270Y-110213848D01*
X167949265Y-110213851D01*
X167796129Y-110325111D01*
X167669466Y-110465785D01*
X167574821Y-110629715D01*
X167574818Y-110629722D01*
X167516327Y-110809740D01*
X167516326Y-110809744D01*
X167496540Y-110998000D01*
X164084000Y-110998000D01*
X164084000Y-105410000D01*
X167496540Y-105410000D01*
X167516326Y-105598256D01*
X167516327Y-105598259D01*
X167574820Y-105778283D01*
X167619690Y-105856001D01*
X167636162Y-105923901D01*
X167619690Y-105979999D01*
X167574820Y-106057716D01*
X167523584Y-106215405D01*
X167516326Y-106237744D01*
X167496540Y-106426000D01*
X167516326Y-106614256D01*
X167516327Y-106614259D01*
X167574818Y-106794277D01*
X167574821Y-106794284D01*
X167669467Y-106958216D01*
X167736933Y-107033144D01*
X167796129Y-107098888D01*
X167949265Y-107210148D01*
X167949270Y-107210151D01*
X168122192Y-107287142D01*
X168122197Y-107287144D01*
X168280114Y-107320710D01*
X168341596Y-107353902D01*
X168375372Y-107415065D01*
X168370720Y-107484780D01*
X168329115Y-107540912D01*
X168280114Y-107563290D01*
X168122197Y-107596855D01*
X168122192Y-107596857D01*
X167949270Y-107673848D01*
X167949265Y-107673851D01*
X167796129Y-107785111D01*
X167669466Y-107925785D01*
X167574821Y-108089715D01*
X167574818Y-108089722D01*
X167516327Y-108269740D01*
X167516326Y-108269744D01*
X167496540Y-108458000D01*
X167516326Y-108646256D01*
X167516327Y-108646259D01*
X167574818Y-108826277D01*
X167574821Y-108826284D01*
X167669467Y-108990216D01*
X167727900Y-109055112D01*
X167796129Y-109130888D01*
X167949265Y-109242148D01*
X167949270Y-109242151D01*
X168122192Y-109319142D01*
X168122197Y-109319144D01*
X168307354Y-109358500D01*
X168307355Y-109358500D01*
X168496644Y-109358500D01*
X168496646Y-109358500D01*
X168681803Y-109319144D01*
X168854730Y-109242151D01*
X169007871Y-109130888D01*
X169134533Y-108990216D01*
X169229179Y-108826284D01*
X169287674Y-108646256D01*
X169307460Y-108458000D01*
X169287674Y-108269744D01*
X169229179Y-108089716D01*
X169134533Y-107925784D01*
X169007871Y-107785112D01*
X168975708Y-107761744D01*
X168854734Y-107673851D01*
X168854729Y-107673848D01*
X168681807Y-107596857D01*
X168681802Y-107596855D01*
X168558509Y-107570649D01*
X168523884Y-107563289D01*
X168462403Y-107530098D01*
X168428627Y-107468935D01*
X168433279Y-107399220D01*
X168474883Y-107343088D01*
X168523884Y-107320710D01*
X168681803Y-107287144D01*
X168854730Y-107210151D01*
X169007871Y-107098888D01*
X169023335Y-107081713D01*
X173799500Y-107081713D01*
X173799500Y-107294286D01*
X173827161Y-107468935D01*
X173832754Y-107504243D01*
X173887863Y-107673851D01*
X173898444Y-107706414D01*
X173994951Y-107895820D01*
X174119890Y-108067786D01*
X174270213Y-108218109D01*
X174442182Y-108343050D01*
X174450946Y-108347516D01*
X174501742Y-108395491D01*
X174518536Y-108463312D01*
X174495998Y-108529447D01*
X174450946Y-108568484D01*
X174442182Y-108572949D01*
X174270213Y-108697890D01*
X174119890Y-108848213D01*
X173994951Y-109020179D01*
X173898444Y-109209585D01*
X173832753Y-109411760D01*
X173799500Y-109621713D01*
X173799500Y-109834286D01*
X173829768Y-110025395D01*
X173832754Y-110044243D01*
X173892372Y-110227729D01*
X173898444Y-110246414D01*
X173994951Y-110435820D01*
X174119890Y-110607786D01*
X174270213Y-110758109D01*
X174442179Y-110883048D01*
X174442181Y-110883049D01*
X174442184Y-110883051D01*
X174631588Y-110979557D01*
X174730715Y-111011765D01*
X174788388Y-111051201D01*
X174815587Y-111115560D01*
X174803673Y-111184406D01*
X174756429Y-111235882D01*
X174730722Y-111247623D01*
X174727746Y-111248589D01*
X174573475Y-111327195D01*
X174433397Y-111428967D01*
X174310967Y-111551397D01*
X174209195Y-111691475D01*
X174130591Y-111845744D01*
X174077085Y-112010415D01*
X174075884Y-112017999D01*
X174075885Y-112018000D01*
X175016988Y-112018000D01*
X174984075Y-112075007D01*
X174950000Y-112202174D01*
X174950000Y-112333826D01*
X174984075Y-112460993D01*
X175016988Y-112518000D01*
X174075885Y-112518000D01*
X174077085Y-112525584D01*
X174130591Y-112690255D01*
X174209195Y-112844524D01*
X174310967Y-112984602D01*
X174433397Y-113107032D01*
X174573475Y-113208804D01*
X174727742Y-113287408D01*
X174892415Y-113340914D01*
X175063429Y-113368000D01*
X175200000Y-113368000D01*
X175200000Y-112701012D01*
X175257007Y-112733925D01*
X175384174Y-112768000D01*
X175515826Y-112768000D01*
X175642993Y-112733925D01*
X175700000Y-112701012D01*
X175700000Y-113368000D01*
X175836571Y-113368000D01*
X176007584Y-113340914D01*
X176172257Y-113287408D01*
X176326524Y-113208804D01*
X176466602Y-113107032D01*
X176589032Y-112984602D01*
X176690804Y-112844524D01*
X176769408Y-112690255D01*
X176822914Y-112525584D01*
X176824115Y-112518000D01*
X175883012Y-112518000D01*
X175915925Y-112460993D01*
X175950000Y-112333826D01*
X175950000Y-112202174D01*
X175915925Y-112075007D01*
X175883012Y-112018000D01*
X176824115Y-112018000D01*
X176824115Y-112017999D01*
X176822914Y-112010415D01*
X176769408Y-111845744D01*
X176690804Y-111691475D01*
X176589032Y-111551397D01*
X176466602Y-111428967D01*
X176326524Y-111327195D01*
X176172256Y-111248591D01*
X176169282Y-111247625D01*
X176168296Y-111246951D01*
X176167760Y-111246729D01*
X176167806Y-111246616D01*
X176111608Y-111208185D01*
X176084412Y-111143826D01*
X176096328Y-111074980D01*
X176143574Y-111023506D01*
X176169280Y-111011766D01*
X176268412Y-110979557D01*
X176457816Y-110883051D01*
X176526552Y-110833112D01*
X176629786Y-110758109D01*
X176629788Y-110758106D01*
X176629792Y-110758104D01*
X176780104Y-110607792D01*
X176780106Y-110607788D01*
X176780109Y-110607786D01*
X176905048Y-110435820D01*
X176905047Y-110435820D01*
X176905051Y-110435816D01*
X177001557Y-110246412D01*
X177067246Y-110044243D01*
X177100500Y-109834287D01*
X177100500Y-109621713D01*
X177067246Y-109411757D01*
X177001557Y-109209588D01*
X176905051Y-109020184D01*
X176905049Y-109020181D01*
X176905048Y-109020179D01*
X176780109Y-108848213D01*
X176629786Y-108697890D01*
X176457820Y-108572951D01*
X176457115Y-108572591D01*
X176449054Y-108568485D01*
X176398259Y-108520512D01*
X176381463Y-108452692D01*
X176403999Y-108386556D01*
X176449054Y-108347515D01*
X176457816Y-108343051D01*
X176491905Y-108318284D01*
X176629786Y-108218109D01*
X176629788Y-108218106D01*
X176629792Y-108218104D01*
X176780104Y-108067792D01*
X176780106Y-108067788D01*
X176780109Y-108067786D01*
X176905048Y-107895820D01*
X176905047Y-107895820D01*
X176905051Y-107895816D01*
X177001557Y-107706412D01*
X177067246Y-107504243D01*
X177100500Y-107294287D01*
X177100500Y-107081713D01*
X177067246Y-106871757D01*
X177001557Y-106669588D01*
X176905051Y-106480184D01*
X176905049Y-106480181D01*
X176905048Y-106480179D01*
X176780109Y-106308213D01*
X176629786Y-106157890D01*
X176457820Y-106032951D01*
X176268414Y-105936444D01*
X176268413Y-105936443D01*
X176268412Y-105936443D01*
X176066243Y-105870754D01*
X176066241Y-105870753D01*
X176066240Y-105870753D01*
X175904957Y-105845208D01*
X175856287Y-105837500D01*
X175043713Y-105837500D01*
X174995042Y-105845208D01*
X174833760Y-105870753D01*
X174631585Y-105936444D01*
X174442179Y-106032951D01*
X174270213Y-106157890D01*
X174119890Y-106308213D01*
X173994951Y-106480179D01*
X173898444Y-106669585D01*
X173832753Y-106871760D01*
X173799500Y-107081713D01*
X169023335Y-107081713D01*
X169134533Y-106958216D01*
X169229179Y-106794284D01*
X169287674Y-106614256D01*
X169307460Y-106426000D01*
X169287674Y-106237744D01*
X169229179Y-106057716D01*
X169184308Y-105979997D01*
X169167836Y-105912100D01*
X169184309Y-105856001D01*
X169229179Y-105778284D01*
X169287674Y-105598256D01*
X169307460Y-105410000D01*
X169287674Y-105221744D01*
X169229179Y-105041716D01*
X169148513Y-104901998D01*
X182646390Y-104901998D01*
X182646390Y-104902001D01*
X182666804Y-105187433D01*
X182727628Y-105467037D01*
X182727630Y-105467043D01*
X182727631Y-105467046D01*
X182819938Y-105714529D01*
X182827635Y-105735166D01*
X182964770Y-105986309D01*
X182964775Y-105986317D01*
X183136254Y-106215387D01*
X183136270Y-106215405D01*
X183338594Y-106417729D01*
X183338612Y-106417745D01*
X183567682Y-106589224D01*
X183567690Y-106589229D01*
X183767195Y-106698168D01*
X183816600Y-106747573D01*
X183831452Y-106815846D01*
X183807035Y-106881311D01*
X183767195Y-106915832D01*
X183567690Y-107024770D01*
X183567682Y-107024775D01*
X183338612Y-107196254D01*
X183338594Y-107196270D01*
X183136270Y-107398594D01*
X183136254Y-107398612D01*
X182964775Y-107627682D01*
X182964770Y-107627690D01*
X182827635Y-107878833D01*
X182727628Y-108146962D01*
X182666804Y-108426566D01*
X182646390Y-108711998D01*
X182646390Y-108712001D01*
X182666804Y-108997433D01*
X182727628Y-109277037D01*
X182727630Y-109277043D01*
X182727631Y-109277046D01*
X182777876Y-109411757D01*
X182827635Y-109545166D01*
X182964770Y-109796309D01*
X182964775Y-109796317D01*
X183136254Y-110025387D01*
X183136270Y-110025405D01*
X183338594Y-110227729D01*
X183338612Y-110227745D01*
X183567682Y-110399224D01*
X183567690Y-110399229D01*
X183818833Y-110536364D01*
X183818832Y-110536364D01*
X183818836Y-110536365D01*
X183818839Y-110536367D01*
X184086954Y-110636369D01*
X184086960Y-110636370D01*
X184086962Y-110636371D01*
X184366566Y-110697195D01*
X184366568Y-110697195D01*
X184366572Y-110697196D01*
X184620220Y-110715337D01*
X184651999Y-110717610D01*
X184652000Y-110717610D01*
X184652001Y-110717610D01*
X184680595Y-110715564D01*
X184937428Y-110697196D01*
X185217046Y-110636369D01*
X185485161Y-110536367D01*
X185736315Y-110399226D01*
X185965395Y-110227739D01*
X186167739Y-110025395D01*
X186339226Y-109796315D01*
X186476367Y-109545161D01*
X186576369Y-109277046D01*
X186637196Y-108997428D01*
X186657610Y-108712000D01*
X186637196Y-108426572D01*
X186619998Y-108347516D01*
X186576371Y-108146962D01*
X186576370Y-108146960D01*
X186576369Y-108146954D01*
X186476367Y-107878839D01*
X186425187Y-107785111D01*
X186339229Y-107627690D01*
X186339224Y-107627682D01*
X186167745Y-107398612D01*
X186167729Y-107398594D01*
X185965405Y-107196270D01*
X185965387Y-107196254D01*
X185736317Y-107024775D01*
X185736309Y-107024770D01*
X185536804Y-106915832D01*
X185487399Y-106866427D01*
X185472547Y-106798154D01*
X185496964Y-106732689D01*
X185536804Y-106698168D01*
X185688720Y-106615215D01*
X185736315Y-106589226D01*
X185965395Y-106417739D01*
X186167739Y-106215395D01*
X186339226Y-105986315D01*
X186476367Y-105735161D01*
X186576369Y-105467046D01*
X186637196Y-105187428D01*
X186657610Y-104902000D01*
X186637196Y-104616572D01*
X186625493Y-104562776D01*
X186576371Y-104336962D01*
X186576370Y-104336960D01*
X186576369Y-104336954D01*
X186476367Y-104068839D01*
X186339226Y-103817685D01*
X186339224Y-103817682D01*
X186167745Y-103588612D01*
X186167729Y-103588594D01*
X185965405Y-103386270D01*
X185965387Y-103386254D01*
X185736317Y-103214775D01*
X185736309Y-103214770D01*
X185485166Y-103077635D01*
X185485167Y-103077635D01*
X185269099Y-102997046D01*
X185217046Y-102977631D01*
X185217043Y-102977630D01*
X185217037Y-102977628D01*
X184937433Y-102916804D01*
X184652001Y-102896390D01*
X184651999Y-102896390D01*
X184366566Y-102916804D01*
X184086962Y-102977628D01*
X183818833Y-103077635D01*
X183567690Y-103214770D01*
X183567682Y-103214775D01*
X183338612Y-103386254D01*
X183338594Y-103386270D01*
X183136270Y-103588594D01*
X183136254Y-103588612D01*
X182964775Y-103817682D01*
X182964770Y-103817690D01*
X182827635Y-104068833D01*
X182727628Y-104336962D01*
X182666804Y-104616566D01*
X182646390Y-104901998D01*
X169148513Y-104901998D01*
X169134533Y-104877784D01*
X169007871Y-104737112D01*
X169007870Y-104737111D01*
X168854734Y-104625851D01*
X168854729Y-104625848D01*
X168681807Y-104548857D01*
X168681802Y-104548855D01*
X168536001Y-104517865D01*
X168496646Y-104509500D01*
X168307354Y-104509500D01*
X168274897Y-104516398D01*
X168122197Y-104548855D01*
X168122192Y-104548857D01*
X167949270Y-104625848D01*
X167949265Y-104625851D01*
X167796129Y-104737111D01*
X167669466Y-104877785D01*
X167574821Y-105041715D01*
X167574818Y-105041722D01*
X167527476Y-105187428D01*
X167516326Y-105221744D01*
X167496540Y-105410000D01*
X164084000Y-105410000D01*
X164084000Y-99060000D01*
X163084000Y-99060000D01*
X163083997Y-99060000D01*
X152129712Y-99060000D01*
X152110314Y-99058473D01*
X152099483Y-99056757D01*
X151927357Y-99029495D01*
X151022653Y-99029495D01*
X150850526Y-99056757D01*
X150839696Y-99058473D01*
X150820298Y-99060000D01*
X145786093Y-99060000D01*
X145773939Y-99059403D01*
X145597065Y-99041982D01*
X145573224Y-99037240D01*
X145409001Y-98987424D01*
X145386543Y-98978121D01*
X145235201Y-98897227D01*
X145214989Y-98883722D01*
X145082333Y-98774854D01*
X145065145Y-98757666D01*
X144956277Y-98625010D01*
X144942772Y-98604798D01*
X144861878Y-98453456D01*
X144852575Y-98430998D01*
X144844606Y-98404727D01*
X144802757Y-98266769D01*
X144798018Y-98242941D01*
X144780597Y-98066061D01*
X144780000Y-98053907D01*
X144780000Y-95234003D01*
X144780000Y-95234000D01*
X144780000Y-94234000D01*
X143780000Y-94234000D01*
X143779997Y-94234000D01*
X119659440Y-94234000D01*
X119592401Y-94214315D01*
X119586555Y-94210318D01*
X119486617Y-94137709D01*
X119486613Y-94137707D01*
X119304228Y-94044776D01*
X119109541Y-93981518D01*
X119063402Y-93974210D01*
X119000268Y-93944280D01*
X118963338Y-93884968D01*
X118964336Y-93815105D01*
X119002947Y-93756873D01*
X119058625Y-93730117D01*
X119067363Y-93728380D01*
X119091540Y-93726000D01*
X119888000Y-93726000D01*
X119888000Y-92710000D01*
X126094540Y-92710000D01*
X126114326Y-92898256D01*
X126114327Y-92898259D01*
X126172818Y-93078277D01*
X126172821Y-93078284D01*
X126267467Y-93242216D01*
X126365000Y-93350537D01*
X126394129Y-93382888D01*
X126547265Y-93494148D01*
X126547270Y-93494151D01*
X126720192Y-93571142D01*
X126720197Y-93571144D01*
X126905354Y-93610500D01*
X126905355Y-93610500D01*
X127094644Y-93610500D01*
X127094646Y-93610500D01*
X127279803Y-93571144D01*
X127452730Y-93494151D01*
X127562117Y-93414676D01*
X127627920Y-93391198D01*
X127695974Y-93407023D01*
X127707871Y-93414668D01*
X127817266Y-93494148D01*
X127817270Y-93494151D01*
X127990192Y-93571142D01*
X127990197Y-93571144D01*
X128175354Y-93610500D01*
X128175355Y-93610500D01*
X128364644Y-93610500D01*
X128364646Y-93610500D01*
X128549803Y-93571144D01*
X128722730Y-93494151D01*
X128832117Y-93414676D01*
X128897920Y-93391198D01*
X128965974Y-93407023D01*
X128977871Y-93414668D01*
X129087266Y-93494148D01*
X129087270Y-93494151D01*
X129260192Y-93571142D01*
X129260197Y-93571144D01*
X129445354Y-93610500D01*
X129445355Y-93610500D01*
X129634644Y-93610500D01*
X129634646Y-93610500D01*
X129819803Y-93571144D01*
X129992730Y-93494151D01*
X130102117Y-93414676D01*
X130167920Y-93391198D01*
X130235974Y-93407023D01*
X130247871Y-93414668D01*
X130357266Y-93494148D01*
X130357270Y-93494151D01*
X130530192Y-93571142D01*
X130530197Y-93571144D01*
X130715354Y-93610500D01*
X130715355Y-93610500D01*
X130904644Y-93610500D01*
X130904646Y-93610500D01*
X131089803Y-93571144D01*
X131262730Y-93494151D01*
X131372117Y-93414676D01*
X131437920Y-93391198D01*
X131505974Y-93407023D01*
X131517871Y-93414668D01*
X131627266Y-93494148D01*
X131627270Y-93494151D01*
X131800192Y-93571142D01*
X131800197Y-93571144D01*
X131985354Y-93610500D01*
X131985355Y-93610500D01*
X132174644Y-93610500D01*
X132174646Y-93610500D01*
X132359803Y-93571144D01*
X132532730Y-93494151D01*
X132685871Y-93382888D01*
X132812533Y-93242216D01*
X132907179Y-93078284D01*
X132965674Y-92898256D01*
X132985460Y-92710000D01*
X137524540Y-92710000D01*
X137544326Y-92898256D01*
X137544327Y-92898259D01*
X137602818Y-93078277D01*
X137602821Y-93078284D01*
X137697467Y-93242216D01*
X137795000Y-93350537D01*
X137824129Y-93382888D01*
X137977265Y-93494148D01*
X137977270Y-93494151D01*
X138150192Y-93571142D01*
X138150197Y-93571144D01*
X138335354Y-93610500D01*
X138335355Y-93610500D01*
X138524644Y-93610500D01*
X138524646Y-93610500D01*
X138709803Y-93571144D01*
X138882730Y-93494151D01*
X138992117Y-93414676D01*
X139057920Y-93391198D01*
X139125974Y-93407023D01*
X139137871Y-93414668D01*
X139247266Y-93494148D01*
X139247270Y-93494151D01*
X139420192Y-93571142D01*
X139420197Y-93571144D01*
X139605354Y-93610500D01*
X139605355Y-93610500D01*
X139794644Y-93610500D01*
X139794646Y-93610500D01*
X139979803Y-93571144D01*
X140152730Y-93494151D01*
X140262117Y-93414676D01*
X140327920Y-93391198D01*
X140395974Y-93407023D01*
X140407871Y-93414668D01*
X140517266Y-93494148D01*
X140517270Y-93494151D01*
X140690192Y-93571142D01*
X140690197Y-93571144D01*
X140875354Y-93610500D01*
X140875355Y-93610500D01*
X141064644Y-93610500D01*
X141064646Y-93610500D01*
X141249803Y-93571144D01*
X141422730Y-93494151D01*
X141532117Y-93414676D01*
X141597920Y-93391198D01*
X141665974Y-93407023D01*
X141677871Y-93414668D01*
X141787266Y-93494148D01*
X141787270Y-93494151D01*
X141960192Y-93571142D01*
X141960197Y-93571144D01*
X142145354Y-93610500D01*
X142145355Y-93610500D01*
X142334644Y-93610500D01*
X142334646Y-93610500D01*
X142519803Y-93571144D01*
X142692730Y-93494151D01*
X142802117Y-93414676D01*
X142867920Y-93391198D01*
X142935974Y-93407023D01*
X142947871Y-93414668D01*
X143057266Y-93494148D01*
X143057270Y-93494151D01*
X143230192Y-93571142D01*
X143230197Y-93571144D01*
X143415354Y-93610500D01*
X143415355Y-93610500D01*
X143604644Y-93610500D01*
X143604646Y-93610500D01*
X143789803Y-93571144D01*
X143962730Y-93494151D01*
X144115871Y-93382888D01*
X144242533Y-93242216D01*
X144337179Y-93078284D01*
X144395674Y-92898256D01*
X144415460Y-92710000D01*
X144395674Y-92521744D01*
X144337179Y-92341716D01*
X144242533Y-92177784D01*
X144115871Y-92037112D01*
X144104432Y-92028801D01*
X143962734Y-91925851D01*
X143962729Y-91925848D01*
X143789807Y-91848857D01*
X143789802Y-91848855D01*
X143644001Y-91817865D01*
X143604646Y-91809500D01*
X143415354Y-91809500D01*
X143382897Y-91816398D01*
X143230197Y-91848855D01*
X143230192Y-91848857D01*
X143057270Y-91925848D01*
X143057265Y-91925851D01*
X142947885Y-92005321D01*
X142882079Y-92028801D01*
X142814025Y-92012975D01*
X142802115Y-92005321D01*
X142692734Y-91925851D01*
X142692729Y-91925848D01*
X142519807Y-91848857D01*
X142519802Y-91848855D01*
X142374001Y-91817865D01*
X142334646Y-91809500D01*
X142145354Y-91809500D01*
X142112897Y-91816398D01*
X141960197Y-91848855D01*
X141960192Y-91848857D01*
X141787270Y-91925848D01*
X141787265Y-91925851D01*
X141677885Y-92005321D01*
X141612079Y-92028801D01*
X141544025Y-92012975D01*
X141532115Y-92005321D01*
X141422734Y-91925851D01*
X141422729Y-91925848D01*
X141249807Y-91848857D01*
X141249802Y-91848855D01*
X141104001Y-91817865D01*
X141064646Y-91809500D01*
X140875354Y-91809500D01*
X140842897Y-91816398D01*
X140690197Y-91848855D01*
X140690192Y-91848857D01*
X140517270Y-91925848D01*
X140517265Y-91925851D01*
X140407885Y-92005321D01*
X140342079Y-92028801D01*
X140274025Y-92012975D01*
X140262115Y-92005321D01*
X140152734Y-91925851D01*
X140152729Y-91925848D01*
X139979807Y-91848857D01*
X139979802Y-91848855D01*
X139834001Y-91817865D01*
X139794646Y-91809500D01*
X139605354Y-91809500D01*
X139572897Y-91816398D01*
X139420197Y-91848855D01*
X139420192Y-91848857D01*
X139247270Y-91925848D01*
X139247265Y-91925851D01*
X139137885Y-92005321D01*
X139072079Y-92028801D01*
X139004025Y-92012975D01*
X138992115Y-92005321D01*
X138882734Y-91925851D01*
X138882729Y-91925848D01*
X138709807Y-91848857D01*
X138709802Y-91848855D01*
X138564001Y-91817865D01*
X138524646Y-91809500D01*
X138335354Y-91809500D01*
X138302897Y-91816398D01*
X138150197Y-91848855D01*
X138150192Y-91848857D01*
X137977270Y-91925848D01*
X137977265Y-91925851D01*
X137824129Y-92037111D01*
X137697466Y-92177785D01*
X137602821Y-92341715D01*
X137602818Y-92341722D01*
X137544327Y-92521740D01*
X137544326Y-92521744D01*
X137524540Y-92710000D01*
X132985460Y-92710000D01*
X132965674Y-92521744D01*
X132907179Y-92341716D01*
X132812533Y-92177784D01*
X132685871Y-92037112D01*
X132674432Y-92028801D01*
X132532734Y-91925851D01*
X132532729Y-91925848D01*
X132359807Y-91848857D01*
X132359802Y-91848855D01*
X132214001Y-91817865D01*
X132174646Y-91809500D01*
X131985354Y-91809500D01*
X131952897Y-91816398D01*
X131800197Y-91848855D01*
X131800192Y-91848857D01*
X131627270Y-91925848D01*
X131627265Y-91925851D01*
X131517885Y-92005321D01*
X131452079Y-92028801D01*
X131384025Y-92012975D01*
X131372115Y-92005321D01*
X131262734Y-91925851D01*
X131262729Y-91925848D01*
X131089807Y-91848857D01*
X131089802Y-91848855D01*
X130944001Y-91817865D01*
X130904646Y-91809500D01*
X130715354Y-91809500D01*
X130682897Y-91816398D01*
X130530197Y-91848855D01*
X130530192Y-91848857D01*
X130357270Y-91925848D01*
X130357265Y-91925851D01*
X130247885Y-92005321D01*
X130182079Y-92028801D01*
X130114025Y-92012975D01*
X130102115Y-92005321D01*
X129992734Y-91925851D01*
X129992729Y-91925848D01*
X129819807Y-91848857D01*
X129819802Y-91848855D01*
X129674001Y-91817865D01*
X129634646Y-91809500D01*
X129445354Y-91809500D01*
X129412897Y-91816398D01*
X129260197Y-91848855D01*
X129260192Y-91848857D01*
X129087270Y-91925848D01*
X129087265Y-91925851D01*
X128977885Y-92005321D01*
X128912079Y-92028801D01*
X128844025Y-92012975D01*
X128832115Y-92005321D01*
X128722734Y-91925851D01*
X128722729Y-91925848D01*
X128549807Y-91848857D01*
X128549802Y-91848855D01*
X128404001Y-91817865D01*
X128364646Y-91809500D01*
X128175354Y-91809500D01*
X128142897Y-91816398D01*
X127990197Y-91848855D01*
X127990192Y-91848857D01*
X127817270Y-91925848D01*
X127817265Y-91925851D01*
X127707885Y-92005321D01*
X127642079Y-92028801D01*
X127574025Y-92012975D01*
X127562115Y-92005321D01*
X127452734Y-91925851D01*
X127452729Y-91925848D01*
X127279807Y-91848857D01*
X127279802Y-91848855D01*
X127134001Y-91817865D01*
X127094646Y-91809500D01*
X126905354Y-91809500D01*
X126872897Y-91816398D01*
X126720197Y-91848855D01*
X126720192Y-91848857D01*
X126547270Y-91925848D01*
X126547265Y-91925851D01*
X126394129Y-92037111D01*
X126267466Y-92177785D01*
X126172821Y-92341715D01*
X126172818Y-92341722D01*
X126114327Y-92521740D01*
X126114326Y-92521744D01*
X126094540Y-92710000D01*
X119888000Y-92710000D01*
X119888000Y-91694000D01*
X119091591Y-91694000D01*
X119067400Y-91691617D01*
X119058612Y-91689869D01*
X118996701Y-91657485D01*
X118962127Y-91596769D01*
X118965866Y-91527000D01*
X119006732Y-91470327D01*
X119063405Y-91445779D01*
X119109539Y-91438472D01*
X119304224Y-91375215D01*
X119486615Y-91282282D01*
X119597087Y-91202020D01*
X119652218Y-91161966D01*
X119652220Y-91161963D01*
X119652224Y-91161961D01*
X119776685Y-91037500D01*
X121247040Y-91037500D01*
X121266826Y-91225756D01*
X121266827Y-91225759D01*
X121325318Y-91405777D01*
X121325321Y-91405784D01*
X121419967Y-91569716D01*
X121531873Y-91694000D01*
X121546629Y-91710388D01*
X121699765Y-91821648D01*
X121699770Y-91821651D01*
X121872692Y-91898642D01*
X121872697Y-91898644D01*
X122057854Y-91938000D01*
X122057855Y-91938000D01*
X122247144Y-91938000D01*
X122247146Y-91938000D01*
X122432303Y-91898644D01*
X122605230Y-91821651D01*
X122758371Y-91710388D01*
X122885033Y-91569716D01*
X122979679Y-91405784D01*
X123038174Y-91225756D01*
X123057960Y-91037500D01*
X123322040Y-91037500D01*
X123341826Y-91225756D01*
X123341827Y-91225759D01*
X123400318Y-91405777D01*
X123400321Y-91405784D01*
X123494967Y-91569716D01*
X123606873Y-91694000D01*
X123621629Y-91710388D01*
X123774765Y-91821648D01*
X123774770Y-91821651D01*
X123947692Y-91898642D01*
X123947697Y-91898644D01*
X124132854Y-91938000D01*
X124132855Y-91938000D01*
X124322144Y-91938000D01*
X124322146Y-91938000D01*
X124507303Y-91898644D01*
X124680230Y-91821651D01*
X124833371Y-91710388D01*
X124960033Y-91569716D01*
X125054679Y-91405784D01*
X125113174Y-91225756D01*
X125132960Y-91037500D01*
X132677040Y-91037500D01*
X132696826Y-91225756D01*
X132696827Y-91225759D01*
X132755318Y-91405777D01*
X132755321Y-91405784D01*
X132849967Y-91569716D01*
X132961873Y-91694000D01*
X132976629Y-91710388D01*
X133129765Y-91821648D01*
X133129770Y-91821651D01*
X133302692Y-91898642D01*
X133302697Y-91898644D01*
X133487854Y-91938000D01*
X133487855Y-91938000D01*
X133677144Y-91938000D01*
X133677146Y-91938000D01*
X133862303Y-91898644D01*
X134035230Y-91821651D01*
X134188371Y-91710388D01*
X134315033Y-91569716D01*
X134409679Y-91405784D01*
X134468174Y-91225756D01*
X134487960Y-91037500D01*
X134752040Y-91037500D01*
X134771826Y-91225756D01*
X134771827Y-91225759D01*
X134830318Y-91405777D01*
X134830321Y-91405784D01*
X134924967Y-91569716D01*
X135036873Y-91694000D01*
X135051629Y-91710388D01*
X135204765Y-91821648D01*
X135204770Y-91821651D01*
X135377692Y-91898642D01*
X135377697Y-91898644D01*
X135562854Y-91938000D01*
X135562855Y-91938000D01*
X135752144Y-91938000D01*
X135752146Y-91938000D01*
X135937303Y-91898644D01*
X136110230Y-91821651D01*
X136263371Y-91710388D01*
X136390033Y-91569716D01*
X136484679Y-91405784D01*
X136543174Y-91225756D01*
X136562960Y-91037500D01*
X136543174Y-90849244D01*
X136484679Y-90669216D01*
X136390033Y-90505284D01*
X136263371Y-90364612D01*
X136263370Y-90364611D01*
X136110234Y-90253351D01*
X136110229Y-90253348D01*
X135937307Y-90176357D01*
X135937302Y-90176355D01*
X135791501Y-90145365D01*
X135752146Y-90137000D01*
X135562854Y-90137000D01*
X135530397Y-90143898D01*
X135377697Y-90176355D01*
X135377692Y-90176357D01*
X135204770Y-90253348D01*
X135204765Y-90253351D01*
X135051629Y-90364611D01*
X134924966Y-90505285D01*
X134830321Y-90669215D01*
X134830318Y-90669222D01*
X134790308Y-90792362D01*
X134771826Y-90849244D01*
X134752040Y-91037500D01*
X134487960Y-91037500D01*
X134468174Y-90849244D01*
X134409679Y-90669216D01*
X134315033Y-90505284D01*
X134188371Y-90364612D01*
X134188370Y-90364611D01*
X134035234Y-90253351D01*
X134035229Y-90253348D01*
X133862307Y-90176357D01*
X133862302Y-90176355D01*
X133716501Y-90145365D01*
X133677146Y-90137000D01*
X133487854Y-90137000D01*
X133455397Y-90143898D01*
X133302697Y-90176355D01*
X133302692Y-90176357D01*
X133129770Y-90253348D01*
X133129765Y-90253351D01*
X132976629Y-90364611D01*
X132849966Y-90505285D01*
X132755321Y-90669215D01*
X132755318Y-90669222D01*
X132715308Y-90792362D01*
X132696826Y-90849244D01*
X132677040Y-91037500D01*
X125132960Y-91037500D01*
X125113174Y-90849244D01*
X125054679Y-90669216D01*
X124960033Y-90505284D01*
X124833371Y-90364612D01*
X124833370Y-90364611D01*
X124680234Y-90253351D01*
X124680229Y-90253348D01*
X124507307Y-90176357D01*
X124507302Y-90176355D01*
X124361501Y-90145365D01*
X124322146Y-90137000D01*
X124132854Y-90137000D01*
X124100397Y-90143898D01*
X123947697Y-90176355D01*
X123947692Y-90176357D01*
X123774770Y-90253348D01*
X123774765Y-90253351D01*
X123621629Y-90364611D01*
X123494966Y-90505285D01*
X123400321Y-90669215D01*
X123400318Y-90669222D01*
X123360308Y-90792362D01*
X123341826Y-90849244D01*
X123322040Y-91037500D01*
X123057960Y-91037500D01*
X123038174Y-90849244D01*
X122979679Y-90669216D01*
X122885033Y-90505284D01*
X122758371Y-90364612D01*
X122758370Y-90364611D01*
X122605234Y-90253351D01*
X122605229Y-90253348D01*
X122432307Y-90176357D01*
X122432302Y-90176355D01*
X122286501Y-90145365D01*
X122247146Y-90137000D01*
X122057854Y-90137000D01*
X122025397Y-90143898D01*
X121872697Y-90176355D01*
X121872692Y-90176357D01*
X121699770Y-90253348D01*
X121699765Y-90253351D01*
X121546629Y-90364611D01*
X121419966Y-90505285D01*
X121325321Y-90669215D01*
X121325318Y-90669222D01*
X121285308Y-90792362D01*
X121266826Y-90849244D01*
X121247040Y-91037500D01*
X119776685Y-91037500D01*
X119796971Y-91017214D01*
X119796973Y-91017210D01*
X119796976Y-91017208D01*
X119849737Y-90944585D01*
X119917292Y-90851605D01*
X120010225Y-90669214D01*
X120073482Y-90474529D01*
X120105505Y-90272347D01*
X120105505Y-90067643D01*
X149824505Y-90067643D01*
X149824505Y-90272346D01*
X149856527Y-90474529D01*
X149919786Y-90669218D01*
X150012720Y-90851608D01*
X150133033Y-91017208D01*
X150277791Y-91161966D01*
X150432754Y-91274551D01*
X150443395Y-91282282D01*
X150559612Y-91341498D01*
X150625781Y-91375213D01*
X150625783Y-91375213D01*
X150625786Y-91375215D01*
X150719846Y-91405777D01*
X150820470Y-91438472D01*
X150866604Y-91445779D01*
X150929739Y-91475708D01*
X150966670Y-91535020D01*
X150965672Y-91604882D01*
X150927062Y-91663115D01*
X150871399Y-91689869D01*
X150862612Y-91691617D01*
X150838419Y-91694000D01*
X150114000Y-91694000D01*
X150114000Y-92398319D01*
X150111618Y-92422508D01*
X150101344Y-92474160D01*
X150113166Y-92501993D01*
X150114000Y-92516350D01*
X150114000Y-92903639D01*
X150101452Y-92946371D01*
X150111618Y-92997480D01*
X150114000Y-93021670D01*
X150114000Y-93726000D01*
X150838470Y-93726000D01*
X150862649Y-93728380D01*
X150871386Y-93730117D01*
X150933300Y-93762496D01*
X150967881Y-93823208D01*
X150964148Y-93892978D01*
X150923287Y-93949654D01*
X150866607Y-93974210D01*
X150820468Y-93981518D01*
X150625781Y-94044776D01*
X150443391Y-94137710D01*
X150277791Y-94258023D01*
X150133033Y-94402781D01*
X150012720Y-94568381D01*
X149919786Y-94750771D01*
X149856527Y-94945460D01*
X149824505Y-95147643D01*
X149824505Y-95352346D01*
X149856527Y-95554529D01*
X149919786Y-95749218D01*
X150012720Y-95931608D01*
X150133033Y-96097208D01*
X150277791Y-96241966D01*
X150432754Y-96354551D01*
X150443395Y-96362282D01*
X150559612Y-96421498D01*
X150625781Y-96455213D01*
X150625783Y-96455213D01*
X150625786Y-96455215D01*
X150730142Y-96489122D01*
X150820470Y-96518472D01*
X150921562Y-96534483D01*
X151022653Y-96550495D01*
X151022654Y-96550495D01*
X151927356Y-96550495D01*
X151927357Y-96550495D01*
X152129539Y-96518472D01*
X152324224Y-96455215D01*
X152506615Y-96362282D01*
X152599595Y-96294727D01*
X152672218Y-96241966D01*
X152672220Y-96241963D01*
X152672224Y-96241961D01*
X152816971Y-96097214D01*
X152816973Y-96097210D01*
X152816976Y-96097208D01*
X152869737Y-96024585D01*
X152937292Y-95931605D01*
X153030225Y-95749214D01*
X153093482Y-95554529D01*
X153125505Y-95352347D01*
X153125505Y-95147643D01*
X153093482Y-94945461D01*
X153030225Y-94750776D01*
X153030223Y-94750773D01*
X153030223Y-94750771D01*
X152996508Y-94684602D01*
X152937292Y-94568385D01*
X152929561Y-94557744D01*
X152816976Y-94402781D01*
X152672218Y-94258023D01*
X152506618Y-94137710D01*
X152506617Y-94137709D01*
X152506615Y-94137708D01*
X152402654Y-94084737D01*
X152324228Y-94044776D01*
X152129541Y-93981518D01*
X152083402Y-93974210D01*
X152020268Y-93944280D01*
X151983338Y-93884968D01*
X151984336Y-93815105D01*
X152022947Y-93756873D01*
X152078625Y-93730117D01*
X152087363Y-93728380D01*
X152111540Y-93726000D01*
X152908000Y-93726000D01*
X152908000Y-91694000D01*
X152111591Y-91694000D01*
X152087400Y-91691617D01*
X152078612Y-91689869D01*
X152016701Y-91657485D01*
X151982127Y-91596769D01*
X151985866Y-91527000D01*
X152026732Y-91470327D01*
X152083405Y-91445779D01*
X152129539Y-91438472D01*
X152186390Y-91420000D01*
X159244723Y-91420000D01*
X159257579Y-91566954D01*
X159263793Y-91637975D01*
X159263793Y-91637979D01*
X159320422Y-91849322D01*
X159320424Y-91849326D01*
X159320425Y-91849330D01*
X159366661Y-91948484D01*
X159412897Y-92047638D01*
X159412898Y-92047639D01*
X159538402Y-92226877D01*
X159693123Y-92381598D01*
X159872361Y-92507102D01*
X160070670Y-92599575D01*
X160282023Y-92656207D01*
X160464926Y-92672208D01*
X160499998Y-92675277D01*
X160500000Y-92675277D01*
X160500002Y-92675277D01*
X160528254Y-92672805D01*
X160717977Y-92656207D01*
X160929330Y-92599575D01*
X161127639Y-92507102D01*
X161306877Y-92381598D01*
X161461598Y-92226877D01*
X161587102Y-92047639D01*
X161679575Y-91849330D01*
X161736207Y-91637977D01*
X161755277Y-91420000D01*
X162244723Y-91420000D01*
X162257579Y-91566954D01*
X162263793Y-91637975D01*
X162263793Y-91637979D01*
X162320422Y-91849322D01*
X162320424Y-91849326D01*
X162320425Y-91849330D01*
X162366661Y-91948484D01*
X162412897Y-92047638D01*
X162412898Y-92047639D01*
X162538402Y-92226877D01*
X162693123Y-92381598D01*
X162872361Y-92507102D01*
X163070670Y-92599575D01*
X163282023Y-92656207D01*
X163464926Y-92672208D01*
X163499998Y-92675277D01*
X163500000Y-92675277D01*
X163500002Y-92675277D01*
X163528254Y-92672805D01*
X163717977Y-92656207D01*
X163929330Y-92599575D01*
X164127639Y-92507102D01*
X164306877Y-92381598D01*
X164461598Y-92226877D01*
X164587102Y-92047639D01*
X164679575Y-91849330D01*
X164736207Y-91637977D01*
X164755277Y-91420000D01*
X165244723Y-91420000D01*
X165257579Y-91566954D01*
X165263793Y-91637975D01*
X165263793Y-91637979D01*
X165320422Y-91849322D01*
X165320424Y-91849326D01*
X165320425Y-91849330D01*
X165366661Y-91948484D01*
X165412897Y-92047638D01*
X165412898Y-92047639D01*
X165538402Y-92226877D01*
X165693123Y-92381598D01*
X165872361Y-92507102D01*
X166070670Y-92599575D01*
X166282023Y-92656207D01*
X166464926Y-92672208D01*
X166499998Y-92675277D01*
X166500000Y-92675277D01*
X166500002Y-92675277D01*
X166528254Y-92672805D01*
X166717977Y-92656207D01*
X166929330Y-92599575D01*
X167127639Y-92507102D01*
X167306877Y-92381598D01*
X167461598Y-92226877D01*
X167587102Y-92047639D01*
X167679575Y-91849330D01*
X167736207Y-91637977D01*
X167755277Y-91420000D01*
X168244723Y-91420000D01*
X168257579Y-91566954D01*
X168263793Y-91637975D01*
X168263793Y-91637979D01*
X168320422Y-91849322D01*
X168320424Y-91849326D01*
X168320425Y-91849330D01*
X168366661Y-91948484D01*
X168412897Y-92047638D01*
X168412898Y-92047639D01*
X168538402Y-92226877D01*
X168693123Y-92381598D01*
X168872361Y-92507102D01*
X169070670Y-92599575D01*
X169282023Y-92656207D01*
X169464926Y-92672208D01*
X169499998Y-92675277D01*
X169500000Y-92675277D01*
X169500002Y-92675277D01*
X169528254Y-92672805D01*
X169717977Y-92656207D01*
X169929330Y-92599575D01*
X170127639Y-92507102D01*
X170306877Y-92381598D01*
X170461598Y-92226877D01*
X170587102Y-92047639D01*
X170679575Y-91849330D01*
X170736207Y-91637977D01*
X170755277Y-91420000D01*
X171495161Y-91420000D01*
X171514468Y-91616032D01*
X171571651Y-91804537D01*
X171637923Y-91928522D01*
X172008871Y-91557574D01*
X172024755Y-91616853D01*
X172091898Y-91733147D01*
X172186853Y-91828102D01*
X172303147Y-91895245D01*
X172362424Y-91911128D01*
X171991476Y-92282075D01*
X172115462Y-92348348D01*
X172303969Y-92405531D01*
X172303965Y-92405531D01*
X172500000Y-92424838D01*
X172696032Y-92405531D01*
X172884537Y-92348348D01*
X173008523Y-92282076D01*
X173008523Y-92282075D01*
X172637575Y-91911127D01*
X172696853Y-91895245D01*
X172813147Y-91828102D01*
X172908102Y-91733147D01*
X172975245Y-91616853D01*
X172991128Y-91557575D01*
X173362076Y-91928523D01*
X173428348Y-91804537D01*
X173485531Y-91616032D01*
X173504838Y-91420000D01*
X173485531Y-91223967D01*
X173428348Y-91035462D01*
X173362075Y-90911476D01*
X172991127Y-91282423D01*
X172975245Y-91223147D01*
X172908102Y-91106853D01*
X172813147Y-91011898D01*
X172696853Y-90944755D01*
X172637575Y-90928871D01*
X172696462Y-90869984D01*
X174249500Y-90869984D01*
X174249500Y-91970015D01*
X174260000Y-92072795D01*
X174260001Y-92072796D01*
X174315186Y-92239335D01*
X174315187Y-92239337D01*
X174407286Y-92388651D01*
X174407289Y-92388655D01*
X174531344Y-92512710D01*
X174531348Y-92512713D01*
X174680662Y-92604812D01*
X174680664Y-92604813D01*
X174680666Y-92604814D01*
X174847203Y-92659999D01*
X174949992Y-92670500D01*
X174949997Y-92670500D01*
X176050003Y-92670500D01*
X176050008Y-92670500D01*
X176152797Y-92659999D01*
X176319334Y-92604814D01*
X176468655Y-92512711D01*
X176592711Y-92388655D01*
X176684814Y-92239334D01*
X176739999Y-92072797D01*
X176750500Y-91970008D01*
X176750500Y-90869992D01*
X176739999Y-90767203D01*
X176684814Y-90600666D01*
X176619740Y-90495166D01*
X176592713Y-90451348D01*
X176592710Y-90451344D01*
X176468655Y-90327289D01*
X176468651Y-90327286D01*
X176319337Y-90235187D01*
X176319335Y-90235186D01*
X176164240Y-90183793D01*
X176152797Y-90180001D01*
X176152795Y-90180000D01*
X176050015Y-90169500D01*
X176050008Y-90169500D01*
X174949992Y-90169500D01*
X174949984Y-90169500D01*
X174847204Y-90180000D01*
X174847203Y-90180001D01*
X174680664Y-90235186D01*
X174680662Y-90235187D01*
X174531348Y-90327286D01*
X174531344Y-90327289D01*
X174407289Y-90451344D01*
X174407286Y-90451348D01*
X174315187Y-90600662D01*
X174315186Y-90600664D01*
X174260001Y-90767203D01*
X174260000Y-90767204D01*
X174249500Y-90869984D01*
X172696462Y-90869984D01*
X173008522Y-90557923D01*
X172884537Y-90491651D01*
X172696030Y-90434468D01*
X172696034Y-90434468D01*
X172500000Y-90415161D01*
X172303967Y-90434468D01*
X172115466Y-90491649D01*
X171991476Y-90557923D01*
X172362424Y-90928871D01*
X172303147Y-90944755D01*
X172186853Y-91011898D01*
X172091898Y-91106853D01*
X172024755Y-91223147D01*
X172008871Y-91282424D01*
X171637923Y-90911476D01*
X171571649Y-91035466D01*
X171514468Y-91223967D01*
X171495161Y-91420000D01*
X170755277Y-91420000D01*
X170736207Y-91202023D01*
X170691577Y-91035462D01*
X170679577Y-90990677D01*
X170679576Y-90990676D01*
X170679575Y-90990670D01*
X170587102Y-90792362D01*
X170587100Y-90792359D01*
X170587099Y-90792357D01*
X170461599Y-90613124D01*
X170406398Y-90557923D01*
X170306877Y-90458402D01*
X170127639Y-90332898D01*
X170127640Y-90332898D01*
X170127638Y-90332897D01*
X169997787Y-90272347D01*
X169929330Y-90240425D01*
X169929326Y-90240424D01*
X169929322Y-90240422D01*
X169717977Y-90183793D01*
X169500002Y-90164723D01*
X169499998Y-90164723D01*
X169367019Y-90176357D01*
X169282023Y-90183793D01*
X169282020Y-90183793D01*
X169070677Y-90240422D01*
X169070668Y-90240426D01*
X168872361Y-90332898D01*
X168872357Y-90332900D01*
X168693121Y-90458402D01*
X168538402Y-90613121D01*
X168412900Y-90792357D01*
X168412898Y-90792361D01*
X168320426Y-90990668D01*
X168320422Y-90990677D01*
X168263793Y-91202020D01*
X168263793Y-91202024D01*
X168245967Y-91405784D01*
X168244723Y-91420000D01*
X167755277Y-91420000D01*
X167736207Y-91202023D01*
X167691577Y-91035462D01*
X167679577Y-90990677D01*
X167679576Y-90990676D01*
X167679575Y-90990670D01*
X167587102Y-90792362D01*
X167587100Y-90792359D01*
X167587099Y-90792357D01*
X167461599Y-90613124D01*
X167406398Y-90557923D01*
X167306877Y-90458402D01*
X167127639Y-90332898D01*
X167127640Y-90332898D01*
X167127638Y-90332897D01*
X166997787Y-90272347D01*
X166929330Y-90240425D01*
X166929326Y-90240424D01*
X166929322Y-90240422D01*
X166717977Y-90183793D01*
X166500002Y-90164723D01*
X166499998Y-90164723D01*
X166367019Y-90176357D01*
X166282023Y-90183793D01*
X166282020Y-90183793D01*
X166070677Y-90240422D01*
X166070668Y-90240426D01*
X165872361Y-90332898D01*
X165872357Y-90332900D01*
X165693121Y-90458402D01*
X165538402Y-90613121D01*
X165412900Y-90792357D01*
X165412898Y-90792361D01*
X165320426Y-90990668D01*
X165320422Y-90990677D01*
X165263793Y-91202020D01*
X165263793Y-91202024D01*
X165245967Y-91405784D01*
X165244723Y-91420000D01*
X164755277Y-91420000D01*
X164736207Y-91202023D01*
X164691577Y-91035462D01*
X164679577Y-90990677D01*
X164679576Y-90990676D01*
X164679575Y-90990670D01*
X164587102Y-90792362D01*
X164587100Y-90792359D01*
X164587099Y-90792357D01*
X164461599Y-90613124D01*
X164406398Y-90557923D01*
X164306877Y-90458402D01*
X164127639Y-90332898D01*
X164127640Y-90332898D01*
X164127638Y-90332897D01*
X163997787Y-90272347D01*
X163929330Y-90240425D01*
X163929326Y-90240424D01*
X163929322Y-90240422D01*
X163717977Y-90183793D01*
X163500002Y-90164723D01*
X163499998Y-90164723D01*
X163367019Y-90176357D01*
X163282023Y-90183793D01*
X163282020Y-90183793D01*
X163070677Y-90240422D01*
X163070668Y-90240426D01*
X162872361Y-90332898D01*
X162872357Y-90332900D01*
X162693121Y-90458402D01*
X162538402Y-90613121D01*
X162412900Y-90792357D01*
X162412898Y-90792361D01*
X162320426Y-90990668D01*
X162320422Y-90990677D01*
X162263793Y-91202020D01*
X162263793Y-91202024D01*
X162245967Y-91405784D01*
X162244723Y-91420000D01*
X161755277Y-91420000D01*
X161736207Y-91202023D01*
X161691577Y-91035462D01*
X161679577Y-90990677D01*
X161679576Y-90990676D01*
X161679575Y-90990670D01*
X161587102Y-90792362D01*
X161587100Y-90792359D01*
X161587099Y-90792357D01*
X161461599Y-90613124D01*
X161406398Y-90557923D01*
X161306877Y-90458402D01*
X161127639Y-90332898D01*
X161127640Y-90332898D01*
X161127638Y-90332897D01*
X160997787Y-90272347D01*
X160929330Y-90240425D01*
X160929326Y-90240424D01*
X160929322Y-90240422D01*
X160717977Y-90183793D01*
X160500002Y-90164723D01*
X160499998Y-90164723D01*
X160367019Y-90176357D01*
X160282023Y-90183793D01*
X160282020Y-90183793D01*
X160070677Y-90240422D01*
X160070668Y-90240426D01*
X159872361Y-90332898D01*
X159872357Y-90332900D01*
X159693121Y-90458402D01*
X159538402Y-90613121D01*
X159412900Y-90792357D01*
X159412898Y-90792361D01*
X159320426Y-90990668D01*
X159320422Y-90990677D01*
X159263793Y-91202020D01*
X159263793Y-91202024D01*
X159245967Y-91405784D01*
X159244723Y-91420000D01*
X152186390Y-91420000D01*
X152324224Y-91375215D01*
X152506615Y-91282282D01*
X152617087Y-91202020D01*
X152672218Y-91161966D01*
X152672220Y-91161963D01*
X152672224Y-91161961D01*
X152816971Y-91017214D01*
X152816973Y-91017210D01*
X152816976Y-91017208D01*
X152869737Y-90944585D01*
X152937292Y-90851605D01*
X153030225Y-90669214D01*
X153093482Y-90474529D01*
X153125505Y-90272347D01*
X153125505Y-90067643D01*
X153093482Y-89865461D01*
X153030225Y-89670776D01*
X153030223Y-89670773D01*
X153030223Y-89670771D01*
X152954564Y-89522284D01*
X152937292Y-89488385D01*
X152929561Y-89477744D01*
X152816976Y-89322781D01*
X152672218Y-89178023D01*
X152506618Y-89057710D01*
X152506617Y-89057709D01*
X152506615Y-89057708D01*
X152449658Y-89028686D01*
X152324228Y-88964776D01*
X152129539Y-88901517D01*
X151955000Y-88873873D01*
X151927357Y-88869495D01*
X151022653Y-88869495D01*
X151005941Y-88872142D01*
X150820470Y-88901517D01*
X150625781Y-88964776D01*
X150443391Y-89057710D01*
X150277791Y-89178023D01*
X150133033Y-89322781D01*
X150012720Y-89488381D01*
X149919786Y-89670771D01*
X149856527Y-89865460D01*
X149824505Y-90067643D01*
X120105505Y-90067643D01*
X120073482Y-89865461D01*
X120010225Y-89670776D01*
X120010223Y-89670773D01*
X120010223Y-89670771D01*
X119934564Y-89522284D01*
X119917292Y-89488385D01*
X119909561Y-89477744D01*
X119796976Y-89322781D01*
X119652218Y-89178023D01*
X119619153Y-89154000D01*
X135746540Y-89154000D01*
X135766326Y-89342256D01*
X135766327Y-89342259D01*
X135824818Y-89522277D01*
X135824821Y-89522284D01*
X135919467Y-89686216D01*
X136046129Y-89826888D01*
X136199265Y-89938148D01*
X136199270Y-89938151D01*
X136372192Y-90015142D01*
X136372197Y-90015144D01*
X136557354Y-90054500D01*
X136557355Y-90054500D01*
X136746644Y-90054500D01*
X136746646Y-90054500D01*
X136931803Y-90015144D01*
X137104730Y-89938151D01*
X137257871Y-89826888D01*
X137384533Y-89686216D01*
X137479179Y-89522284D01*
X137537674Y-89342256D01*
X137557460Y-89154000D01*
X137537674Y-88965744D01*
X137479179Y-88785716D01*
X137384533Y-88621784D01*
X137257871Y-88481112D01*
X137257870Y-88481111D01*
X137173758Y-88420000D01*
X159244723Y-88420000D01*
X159262376Y-88621785D01*
X159263793Y-88637975D01*
X159263793Y-88637979D01*
X159320422Y-88849322D01*
X159320424Y-88849326D01*
X159320425Y-88849330D01*
X159366661Y-88948484D01*
X159412897Y-89047638D01*
X159412898Y-89047639D01*
X159538402Y-89226877D01*
X159693123Y-89381598D01*
X159872361Y-89507102D01*
X160070670Y-89599575D01*
X160282023Y-89656207D01*
X160464926Y-89672208D01*
X160499998Y-89675277D01*
X160500000Y-89675277D01*
X160500002Y-89675277D01*
X160528254Y-89672805D01*
X160717977Y-89656207D01*
X160929330Y-89599575D01*
X161127639Y-89507102D01*
X161306877Y-89381598D01*
X161461598Y-89226877D01*
X161587102Y-89047639D01*
X161679575Y-88849330D01*
X161736207Y-88637977D01*
X161755277Y-88420000D01*
X162244723Y-88420000D01*
X162262376Y-88621785D01*
X162263793Y-88637975D01*
X162263793Y-88637979D01*
X162320422Y-88849322D01*
X162320424Y-88849326D01*
X162320425Y-88849330D01*
X162366661Y-88948484D01*
X162412897Y-89047638D01*
X162412898Y-89047639D01*
X162538402Y-89226877D01*
X162693123Y-89381598D01*
X162872361Y-89507102D01*
X163070670Y-89599575D01*
X163282023Y-89656207D01*
X163464926Y-89672208D01*
X163499998Y-89675277D01*
X163500000Y-89675277D01*
X163500002Y-89675277D01*
X163528254Y-89672805D01*
X163717977Y-89656207D01*
X163929330Y-89599575D01*
X164127639Y-89507102D01*
X164306877Y-89381598D01*
X164461598Y-89226877D01*
X164587102Y-89047639D01*
X164679575Y-88849330D01*
X164736207Y-88637977D01*
X164755277Y-88420000D01*
X165244723Y-88420000D01*
X165262376Y-88621785D01*
X165263793Y-88637975D01*
X165263793Y-88637979D01*
X165320422Y-88849322D01*
X165320424Y-88849326D01*
X165320425Y-88849330D01*
X165366661Y-88948484D01*
X165412897Y-89047638D01*
X165412898Y-89047639D01*
X165538402Y-89226877D01*
X165693123Y-89381598D01*
X165872361Y-89507102D01*
X166070670Y-89599575D01*
X166282023Y-89656207D01*
X166464926Y-89672208D01*
X166499998Y-89675277D01*
X166500000Y-89675277D01*
X166500002Y-89675277D01*
X166528254Y-89672805D01*
X166717977Y-89656207D01*
X166929330Y-89599575D01*
X167127639Y-89507102D01*
X167306877Y-89381598D01*
X167461598Y-89226877D01*
X167587102Y-89047639D01*
X167679575Y-88849330D01*
X167736207Y-88637977D01*
X167755277Y-88420000D01*
X168244723Y-88420000D01*
X168262376Y-88621785D01*
X168263793Y-88637975D01*
X168263793Y-88637979D01*
X168320422Y-88849322D01*
X168320424Y-88849326D01*
X168320425Y-88849330D01*
X168366661Y-88948484D01*
X168412897Y-89047638D01*
X168412898Y-89047639D01*
X168538402Y-89226877D01*
X168693123Y-89381598D01*
X168872361Y-89507102D01*
X169070670Y-89599575D01*
X169282023Y-89656207D01*
X169464926Y-89672208D01*
X169499998Y-89675277D01*
X169500000Y-89675277D01*
X169500002Y-89675277D01*
X169528254Y-89672805D01*
X169717977Y-89656207D01*
X169929330Y-89599575D01*
X170127639Y-89507102D01*
X170306877Y-89381598D01*
X170461598Y-89226877D01*
X170587102Y-89047639D01*
X170679575Y-88849330D01*
X170736207Y-88637977D01*
X170755277Y-88420000D01*
X171244723Y-88420000D01*
X171262376Y-88621785D01*
X171263793Y-88637975D01*
X171263793Y-88637979D01*
X171320422Y-88849322D01*
X171320424Y-88849326D01*
X171320425Y-88849330D01*
X171366661Y-88948484D01*
X171412897Y-89047638D01*
X171412898Y-89047639D01*
X171538402Y-89226877D01*
X171693123Y-89381598D01*
X171872361Y-89507102D01*
X172070670Y-89599575D01*
X172282023Y-89656207D01*
X172464926Y-89672208D01*
X172499998Y-89675277D01*
X172500000Y-89675277D01*
X172500002Y-89675277D01*
X172528254Y-89672805D01*
X172717977Y-89656207D01*
X172929330Y-89599575D01*
X173127639Y-89507102D01*
X173306877Y-89381598D01*
X173461598Y-89226877D01*
X173587102Y-89047639D01*
X173679575Y-88849330D01*
X173736207Y-88637977D01*
X173755277Y-88420000D01*
X174244723Y-88420000D01*
X174262376Y-88621785D01*
X174263793Y-88637975D01*
X174263793Y-88637979D01*
X174320422Y-88849322D01*
X174320424Y-88849326D01*
X174320425Y-88849330D01*
X174366661Y-88948484D01*
X174412897Y-89047638D01*
X174412898Y-89047639D01*
X174538402Y-89226877D01*
X174693123Y-89381598D01*
X174872361Y-89507102D01*
X175070670Y-89599575D01*
X175282023Y-89656207D01*
X175464926Y-89672208D01*
X175499998Y-89675277D01*
X175500000Y-89675277D01*
X175500002Y-89675277D01*
X175528254Y-89672805D01*
X175717977Y-89656207D01*
X175929330Y-89599575D01*
X176127639Y-89507102D01*
X176306877Y-89381598D01*
X176461598Y-89226877D01*
X176587102Y-89047639D01*
X176679575Y-88849330D01*
X176736207Y-88637977D01*
X176755277Y-88420000D01*
X176736207Y-88202023D01*
X176701023Y-88070716D01*
X176679577Y-87990677D01*
X176679576Y-87990676D01*
X176679575Y-87990670D01*
X176587102Y-87792362D01*
X176587100Y-87792359D01*
X176587099Y-87792357D01*
X176461599Y-87613124D01*
X176387699Y-87539224D01*
X176306877Y-87458402D01*
X176230742Y-87405092D01*
X177739500Y-87405092D01*
X177739500Y-87554907D01*
X177768723Y-87701822D01*
X177768725Y-87701830D01*
X177826051Y-87840229D01*
X177826056Y-87840238D01*
X177909280Y-87964790D01*
X177909283Y-87964794D01*
X178015205Y-88070716D01*
X178015209Y-88070719D01*
X178139761Y-88153943D01*
X178139767Y-88153946D01*
X178139768Y-88153947D01*
X178278170Y-88211275D01*
X178425092Y-88240499D01*
X178425096Y-88240500D01*
X178425097Y-88240500D01*
X178574904Y-88240500D01*
X178574905Y-88240499D01*
X178721830Y-88211275D01*
X178860232Y-88153947D01*
X178984791Y-88070719D01*
X179090719Y-87964791D01*
X179173947Y-87840232D01*
X179231275Y-87701830D01*
X179260500Y-87554903D01*
X179260500Y-87405097D01*
X179231275Y-87258170D01*
X179173947Y-87119768D01*
X179173946Y-87119767D01*
X179173943Y-87119761D01*
X179090719Y-86995209D01*
X179090716Y-86995205D01*
X178984794Y-86889283D01*
X178984790Y-86889280D01*
X178860238Y-86806056D01*
X178860229Y-86806051D01*
X178721830Y-86748725D01*
X178721822Y-86748723D01*
X178574907Y-86719500D01*
X178574903Y-86719500D01*
X178425097Y-86719500D01*
X178425092Y-86719500D01*
X178278177Y-86748723D01*
X178278169Y-86748725D01*
X178139770Y-86806051D01*
X178139761Y-86806056D01*
X178015209Y-86889280D01*
X178015205Y-86889283D01*
X177909283Y-86995205D01*
X177909280Y-86995209D01*
X177826056Y-87119761D01*
X177826051Y-87119770D01*
X177768725Y-87258169D01*
X177768723Y-87258177D01*
X177739500Y-87405092D01*
X176230742Y-87405092D01*
X176168978Y-87361844D01*
X176127638Y-87332897D01*
X175967384Y-87258170D01*
X175929330Y-87240425D01*
X175929326Y-87240424D01*
X175929322Y-87240422D01*
X175717977Y-87183793D01*
X175500002Y-87164723D01*
X175499998Y-87164723D01*
X175354682Y-87177436D01*
X175282023Y-87183793D01*
X175282020Y-87183793D01*
X175070677Y-87240422D01*
X175070668Y-87240426D01*
X174872361Y-87332898D01*
X174872357Y-87332900D01*
X174693121Y-87458402D01*
X174538402Y-87613121D01*
X174412900Y-87792357D01*
X174412898Y-87792361D01*
X174320426Y-87990668D01*
X174320422Y-87990677D01*
X174263793Y-88202020D01*
X174263793Y-88202023D01*
X174260427Y-88240499D01*
X174249111Y-88369849D01*
X174244723Y-88420000D01*
X173755277Y-88420000D01*
X173736207Y-88202023D01*
X173701023Y-88070716D01*
X173679577Y-87990677D01*
X173679576Y-87990676D01*
X173679575Y-87990670D01*
X173587102Y-87792362D01*
X173587100Y-87792359D01*
X173587099Y-87792357D01*
X173461599Y-87613124D01*
X173387699Y-87539224D01*
X173306877Y-87458402D01*
X173168978Y-87361844D01*
X173127638Y-87332897D01*
X172967384Y-87258170D01*
X172929330Y-87240425D01*
X172929326Y-87240424D01*
X172929322Y-87240422D01*
X172717977Y-87183793D01*
X172500002Y-87164723D01*
X172499998Y-87164723D01*
X172354682Y-87177436D01*
X172282023Y-87183793D01*
X172282020Y-87183793D01*
X172070677Y-87240422D01*
X172070668Y-87240426D01*
X171872361Y-87332898D01*
X171872357Y-87332900D01*
X171693121Y-87458402D01*
X171538402Y-87613121D01*
X171412900Y-87792357D01*
X171412898Y-87792361D01*
X171320426Y-87990668D01*
X171320422Y-87990677D01*
X171263793Y-88202020D01*
X171263793Y-88202023D01*
X171260427Y-88240499D01*
X171249111Y-88369849D01*
X171244723Y-88420000D01*
X170755277Y-88420000D01*
X170736207Y-88202023D01*
X170701023Y-88070716D01*
X170679577Y-87990677D01*
X170679576Y-87990676D01*
X170679575Y-87990670D01*
X170587102Y-87792362D01*
X170587100Y-87792359D01*
X170587099Y-87792357D01*
X170461599Y-87613124D01*
X170387699Y-87539224D01*
X170306877Y-87458402D01*
X170168978Y-87361844D01*
X170127638Y-87332897D01*
X169967384Y-87258170D01*
X169929330Y-87240425D01*
X169929326Y-87240424D01*
X169929322Y-87240422D01*
X169717977Y-87183793D01*
X169500002Y-87164723D01*
X169499998Y-87164723D01*
X169354682Y-87177436D01*
X169282023Y-87183793D01*
X169282020Y-87183793D01*
X169070677Y-87240422D01*
X169070668Y-87240426D01*
X168872361Y-87332898D01*
X168872357Y-87332900D01*
X168693121Y-87458402D01*
X168538402Y-87613121D01*
X168412900Y-87792357D01*
X168412898Y-87792361D01*
X168320426Y-87990668D01*
X168320422Y-87990677D01*
X168263793Y-88202020D01*
X168263793Y-88202023D01*
X168260427Y-88240499D01*
X168249111Y-88369849D01*
X168244723Y-88420000D01*
X167755277Y-88420000D01*
X167736207Y-88202023D01*
X167701023Y-88070716D01*
X167679577Y-87990677D01*
X167679576Y-87990676D01*
X167679575Y-87990670D01*
X167587102Y-87792362D01*
X167587100Y-87792359D01*
X167587099Y-87792357D01*
X167461599Y-87613124D01*
X167387699Y-87539224D01*
X167306877Y-87458402D01*
X167168978Y-87361844D01*
X167127638Y-87332897D01*
X166967384Y-87258170D01*
X166929330Y-87240425D01*
X166929326Y-87240424D01*
X166929322Y-87240422D01*
X166717977Y-87183793D01*
X166500002Y-87164723D01*
X166499998Y-87164723D01*
X166354682Y-87177436D01*
X166282023Y-87183793D01*
X166282020Y-87183793D01*
X166070677Y-87240422D01*
X166070668Y-87240426D01*
X165872361Y-87332898D01*
X165872357Y-87332900D01*
X165693121Y-87458402D01*
X165538402Y-87613121D01*
X165412900Y-87792357D01*
X165412898Y-87792361D01*
X165320426Y-87990668D01*
X165320422Y-87990677D01*
X165263793Y-88202020D01*
X165263793Y-88202023D01*
X165260427Y-88240499D01*
X165249111Y-88369849D01*
X165244723Y-88420000D01*
X164755277Y-88420000D01*
X164736207Y-88202023D01*
X164701023Y-88070716D01*
X164679577Y-87990677D01*
X164679576Y-87990676D01*
X164679575Y-87990670D01*
X164587102Y-87792362D01*
X164587100Y-87792359D01*
X164587099Y-87792357D01*
X164461599Y-87613124D01*
X164387699Y-87539224D01*
X164306877Y-87458402D01*
X164168978Y-87361844D01*
X164127638Y-87332897D01*
X163967384Y-87258170D01*
X163929330Y-87240425D01*
X163929326Y-87240424D01*
X163929322Y-87240422D01*
X163717977Y-87183793D01*
X163500002Y-87164723D01*
X163499998Y-87164723D01*
X163354682Y-87177436D01*
X163282023Y-87183793D01*
X163282020Y-87183793D01*
X163070677Y-87240422D01*
X163070668Y-87240426D01*
X162872361Y-87332898D01*
X162872357Y-87332900D01*
X162693121Y-87458402D01*
X162538402Y-87613121D01*
X162412900Y-87792357D01*
X162412898Y-87792361D01*
X162320426Y-87990668D01*
X162320422Y-87990677D01*
X162263793Y-88202020D01*
X162263793Y-88202023D01*
X162260427Y-88240499D01*
X162249111Y-88369849D01*
X162244723Y-88420000D01*
X161755277Y-88420000D01*
X161736207Y-88202023D01*
X161701023Y-88070716D01*
X161679577Y-87990677D01*
X161679576Y-87990676D01*
X161679575Y-87990670D01*
X161587102Y-87792362D01*
X161587100Y-87792359D01*
X161587099Y-87792357D01*
X161461599Y-87613124D01*
X161387699Y-87539224D01*
X161306877Y-87458402D01*
X161168978Y-87361844D01*
X161127638Y-87332897D01*
X160967384Y-87258170D01*
X160929330Y-87240425D01*
X160929326Y-87240424D01*
X160929322Y-87240422D01*
X160717977Y-87183793D01*
X160500002Y-87164723D01*
X160499998Y-87164723D01*
X160354682Y-87177436D01*
X160282023Y-87183793D01*
X160282020Y-87183793D01*
X160070677Y-87240422D01*
X160070668Y-87240426D01*
X159872361Y-87332898D01*
X159872357Y-87332900D01*
X159693121Y-87458402D01*
X159538402Y-87613121D01*
X159412900Y-87792357D01*
X159412898Y-87792361D01*
X159320426Y-87990668D01*
X159320422Y-87990677D01*
X159263793Y-88202020D01*
X159263793Y-88202023D01*
X159260427Y-88240499D01*
X159249111Y-88369849D01*
X159244723Y-88420000D01*
X137173758Y-88420000D01*
X137104734Y-88369851D01*
X137104729Y-88369848D01*
X136931807Y-88292857D01*
X136931802Y-88292855D01*
X136786001Y-88261865D01*
X136746646Y-88253500D01*
X136557354Y-88253500D01*
X136524897Y-88260398D01*
X136372197Y-88292855D01*
X136372192Y-88292857D01*
X136199270Y-88369848D01*
X136199265Y-88369851D01*
X136046129Y-88481111D01*
X135919466Y-88621785D01*
X135824821Y-88785715D01*
X135824818Y-88785722D01*
X135766327Y-88965740D01*
X135766326Y-88965744D01*
X135746540Y-89154000D01*
X119619153Y-89154000D01*
X119486618Y-89057710D01*
X119486617Y-89057709D01*
X119486615Y-89057708D01*
X119429658Y-89028686D01*
X119304228Y-88964776D01*
X119109539Y-88901517D01*
X118935000Y-88873873D01*
X118907357Y-88869495D01*
X118002653Y-88869495D01*
X117985941Y-88872142D01*
X117800470Y-88901517D01*
X117605781Y-88964776D01*
X117423391Y-89057710D01*
X117257791Y-89178023D01*
X117113033Y-89322781D01*
X116992720Y-89488381D01*
X116899786Y-89670771D01*
X116836527Y-89865460D01*
X116804505Y-90067643D01*
X116804505Y-90272346D01*
X116836527Y-90474529D01*
X116899786Y-90669218D01*
X116992720Y-90851608D01*
X117113033Y-91017208D01*
X117257791Y-91161966D01*
X117412754Y-91274551D01*
X117423395Y-91282282D01*
X117539612Y-91341498D01*
X117605781Y-91375213D01*
X117605783Y-91375213D01*
X117605786Y-91375215D01*
X117699846Y-91405777D01*
X117800470Y-91438472D01*
X117846604Y-91445779D01*
X117909739Y-91475708D01*
X117946670Y-91535020D01*
X117945672Y-91604882D01*
X117907062Y-91663115D01*
X117851399Y-91689869D01*
X117842612Y-91691617D01*
X117818419Y-91694000D01*
X117094000Y-91694000D01*
X117094000Y-92398319D01*
X117091618Y-92422508D01*
X117081344Y-92474160D01*
X117093166Y-92501993D01*
X117094000Y-92516350D01*
X117094000Y-92903639D01*
X117081452Y-92946371D01*
X117091618Y-92997480D01*
X117094000Y-93021670D01*
X117094000Y-93726000D01*
X117818470Y-93726000D01*
X117842649Y-93728380D01*
X117851386Y-93730117D01*
X117913300Y-93762496D01*
X117947881Y-93823208D01*
X117944148Y-93892978D01*
X117903287Y-93949654D01*
X117846607Y-93974210D01*
X117800468Y-93981518D01*
X117605781Y-94044776D01*
X117423396Y-94137707D01*
X117423392Y-94137709D01*
X117323455Y-94210318D01*
X117257648Y-94233798D01*
X117250570Y-94234000D01*
X112258093Y-94234000D01*
X112245939Y-94233403D01*
X112069065Y-94215982D01*
X112045224Y-94211240D01*
X111881001Y-94161424D01*
X111858543Y-94152121D01*
X111707201Y-94071227D01*
X111686989Y-94057722D01*
X111554333Y-93948854D01*
X111537145Y-93931666D01*
X111428277Y-93799010D01*
X111414772Y-93778798D01*
X111333877Y-93627453D01*
X111324575Y-93604998D01*
X111314305Y-93571142D01*
X111274757Y-93440769D01*
X111270018Y-93416941D01*
X111252597Y-93240061D01*
X111252000Y-93227907D01*
X111252000Y-88011000D01*
X125459540Y-88011000D01*
X125479326Y-88199256D01*
X125479327Y-88199259D01*
X125537818Y-88379277D01*
X125537821Y-88379284D01*
X125632467Y-88543216D01*
X125717792Y-88637979D01*
X125759129Y-88683888D01*
X125912265Y-88795148D01*
X125912270Y-88795151D01*
X126085192Y-88872142D01*
X126085197Y-88872144D01*
X126270354Y-88911500D01*
X126270355Y-88911500D01*
X126459644Y-88911500D01*
X126459646Y-88911500D01*
X126644803Y-88872144D01*
X126817730Y-88795151D01*
X126970871Y-88683888D01*
X127097533Y-88543216D01*
X127192179Y-88379284D01*
X127250674Y-88199256D01*
X127270460Y-88011000D01*
X127250674Y-87822744D01*
X127196112Y-87654823D01*
X127192181Y-87642722D01*
X127192180Y-87642721D01*
X127192179Y-87642716D01*
X127097533Y-87478784D01*
X127031180Y-87405092D01*
X156739500Y-87405092D01*
X156739500Y-87554907D01*
X156768723Y-87701822D01*
X156768725Y-87701830D01*
X156826051Y-87840229D01*
X156826056Y-87840238D01*
X156909280Y-87964790D01*
X156909283Y-87964794D01*
X157015205Y-88070716D01*
X157015209Y-88070719D01*
X157139761Y-88153943D01*
X157139767Y-88153946D01*
X157139768Y-88153947D01*
X157278170Y-88211275D01*
X157425092Y-88240499D01*
X157425096Y-88240500D01*
X157425097Y-88240500D01*
X157574904Y-88240500D01*
X157574905Y-88240499D01*
X157721830Y-88211275D01*
X157860232Y-88153947D01*
X157984791Y-88070719D01*
X158090719Y-87964791D01*
X158173947Y-87840232D01*
X158231275Y-87701830D01*
X158260500Y-87554903D01*
X158260500Y-87405097D01*
X158231275Y-87258170D01*
X158173947Y-87119768D01*
X158173946Y-87119767D01*
X158173943Y-87119761D01*
X158090719Y-86995209D01*
X158090716Y-86995205D01*
X157984794Y-86889283D01*
X157984790Y-86889280D01*
X157860238Y-86806056D01*
X157860229Y-86806051D01*
X157721830Y-86748725D01*
X157721822Y-86748723D01*
X157574907Y-86719500D01*
X157574903Y-86719500D01*
X157425097Y-86719500D01*
X157425092Y-86719500D01*
X157278177Y-86748723D01*
X157278169Y-86748725D01*
X157139770Y-86806051D01*
X157139761Y-86806056D01*
X157015209Y-86889280D01*
X157015205Y-86889283D01*
X156909283Y-86995205D01*
X156909280Y-86995209D01*
X156826056Y-87119761D01*
X156826051Y-87119770D01*
X156768725Y-87258169D01*
X156768723Y-87258177D01*
X156739500Y-87405092D01*
X127031180Y-87405092D01*
X126970871Y-87338112D01*
X126970870Y-87338111D01*
X126817734Y-87226851D01*
X126817729Y-87226848D01*
X126644807Y-87149857D01*
X126644802Y-87149855D01*
X126499001Y-87118865D01*
X126459646Y-87110500D01*
X126270354Y-87110500D01*
X126237897Y-87117398D01*
X126085197Y-87149855D01*
X126085192Y-87149857D01*
X125912270Y-87226848D01*
X125912265Y-87226851D01*
X125759129Y-87338111D01*
X125632466Y-87478785D01*
X125537821Y-87642715D01*
X125537818Y-87642722D01*
X125479327Y-87822740D01*
X125479326Y-87822744D01*
X125459540Y-88011000D01*
X111252000Y-88011000D01*
X111252000Y-85598000D01*
X124824540Y-85598000D01*
X124844326Y-85786256D01*
X124844327Y-85786259D01*
X124902818Y-85966277D01*
X124902821Y-85966284D01*
X124997467Y-86130216D01*
X125101848Y-86246142D01*
X125124129Y-86270888D01*
X125277265Y-86382148D01*
X125277270Y-86382151D01*
X125450192Y-86459142D01*
X125450197Y-86459144D01*
X125635354Y-86498500D01*
X125635355Y-86498500D01*
X125824644Y-86498500D01*
X125824646Y-86498500D01*
X126009803Y-86459144D01*
X126182730Y-86382151D01*
X126182734Y-86382148D01*
X126187563Y-86379998D01*
X126256813Y-86370712D01*
X126288437Y-86379998D01*
X126293265Y-86382148D01*
X126293270Y-86382151D01*
X126466197Y-86459144D01*
X126651354Y-86498500D01*
X126651355Y-86498500D01*
X126840644Y-86498500D01*
X126840646Y-86498500D01*
X127025803Y-86459144D01*
X127198730Y-86382151D01*
X127198734Y-86382148D01*
X127203563Y-86379998D01*
X127272813Y-86370712D01*
X127304437Y-86379998D01*
X127309265Y-86382148D01*
X127309270Y-86382151D01*
X127482197Y-86459144D01*
X127667354Y-86498500D01*
X127667355Y-86498500D01*
X127856644Y-86498500D01*
X127856646Y-86498500D01*
X128041803Y-86459144D01*
X128214730Y-86382151D01*
X128367871Y-86270888D01*
X128494533Y-86130216D01*
X128569713Y-86000000D01*
X129894540Y-86000000D01*
X129914326Y-86188256D01*
X129914327Y-86188259D01*
X129972818Y-86368277D01*
X129972821Y-86368284D01*
X130067467Y-86532216D01*
X130194129Y-86672888D01*
X130347265Y-86784148D01*
X130347270Y-86784151D01*
X130520192Y-86861142D01*
X130520197Y-86861144D01*
X130705354Y-86900500D01*
X130705355Y-86900500D01*
X130894644Y-86900500D01*
X130894646Y-86900500D01*
X131079803Y-86861144D01*
X131252730Y-86784151D01*
X131405871Y-86672888D01*
X131532533Y-86532216D01*
X131627179Y-86368284D01*
X131685674Y-86188256D01*
X131705460Y-86000000D01*
X131685674Y-85811744D01*
X131627179Y-85631716D01*
X131532533Y-85467784D01*
X131405871Y-85327112D01*
X131405870Y-85327111D01*
X131254315Y-85217000D01*
X136889540Y-85217000D01*
X136909326Y-85405256D01*
X136909327Y-85405259D01*
X136967818Y-85585277D01*
X136967821Y-85585284D01*
X137062467Y-85749216D01*
X137174957Y-85874148D01*
X137189129Y-85889888D01*
X137342265Y-86001148D01*
X137342270Y-86001151D01*
X137515192Y-86078142D01*
X137515197Y-86078144D01*
X137700354Y-86117500D01*
X137700355Y-86117500D01*
X137889644Y-86117500D01*
X137889646Y-86117500D01*
X138074803Y-86078144D01*
X138247730Y-86001151D01*
X138400871Y-85889888D01*
X138527533Y-85749216D01*
X138622179Y-85585284D01*
X138680674Y-85405256D01*
X138700460Y-85217000D01*
X139429540Y-85217000D01*
X139449326Y-85405256D01*
X139449327Y-85405259D01*
X139507818Y-85585277D01*
X139507821Y-85585284D01*
X139602467Y-85749216D01*
X139714957Y-85874148D01*
X139729129Y-85889888D01*
X139882265Y-86001148D01*
X139882270Y-86001151D01*
X140055192Y-86078142D01*
X140055197Y-86078144D01*
X140240354Y-86117500D01*
X140240355Y-86117500D01*
X140429644Y-86117500D01*
X140429646Y-86117500D01*
X140614803Y-86078144D01*
X140787730Y-86001151D01*
X140940871Y-85889888D01*
X141067533Y-85749216D01*
X141162179Y-85585284D01*
X141220674Y-85405256D01*
X141222803Y-85385000D01*
X141969540Y-85385000D01*
X141989326Y-85573256D01*
X141989327Y-85573259D01*
X142047818Y-85753277D01*
X142047821Y-85753284D01*
X142142467Y-85917216D01*
X142218040Y-86001148D01*
X142269129Y-86057888D01*
X142422265Y-86169148D01*
X142422270Y-86169151D01*
X142595192Y-86246142D01*
X142595197Y-86246144D01*
X142780354Y-86285500D01*
X142780355Y-86285500D01*
X142969644Y-86285500D01*
X142969646Y-86285500D01*
X143154803Y-86246144D01*
X143327730Y-86169151D01*
X143480871Y-86057888D01*
X143607533Y-85917216D01*
X143702179Y-85753284D01*
X143760674Y-85573256D01*
X143780460Y-85385000D01*
X143760674Y-85196744D01*
X143725991Y-85090000D01*
X144509540Y-85090000D01*
X144529326Y-85278256D01*
X144529327Y-85278259D01*
X144587818Y-85458277D01*
X144587821Y-85458284D01*
X144682467Y-85622216D01*
X144809129Y-85762888D01*
X144962265Y-85874148D01*
X144962270Y-85874151D01*
X145135192Y-85951142D01*
X145135197Y-85951144D01*
X145320354Y-85990500D01*
X145320355Y-85990500D01*
X145509644Y-85990500D01*
X145509646Y-85990500D01*
X145694803Y-85951144D01*
X145867730Y-85874151D01*
X145898221Y-85851998D01*
X182646390Y-85851998D01*
X182646390Y-85852001D01*
X182666804Y-86137433D01*
X182727628Y-86417037D01*
X182727630Y-86417043D01*
X182727631Y-86417046D01*
X182827633Y-86685161D01*
X182827635Y-86685166D01*
X182964770Y-86936309D01*
X182964775Y-86936317D01*
X183136254Y-87165387D01*
X183136270Y-87165405D01*
X183338594Y-87367729D01*
X183338612Y-87367745D01*
X183567682Y-87539224D01*
X183567690Y-87539229D01*
X183767195Y-87648168D01*
X183816600Y-87697573D01*
X183831452Y-87765846D01*
X183807035Y-87831311D01*
X183767195Y-87865832D01*
X183567690Y-87974770D01*
X183567682Y-87974775D01*
X183338612Y-88146254D01*
X183338594Y-88146270D01*
X183136270Y-88348594D01*
X183136254Y-88348612D01*
X182964775Y-88577682D01*
X182964770Y-88577690D01*
X182827635Y-88828833D01*
X182727628Y-89096962D01*
X182666804Y-89376566D01*
X182646390Y-89661998D01*
X182646390Y-89662001D01*
X182666804Y-89947433D01*
X182727628Y-90227037D01*
X182727630Y-90227043D01*
X182727631Y-90227046D01*
X182811292Y-90451348D01*
X182827635Y-90495166D01*
X182964770Y-90746309D01*
X182964775Y-90746317D01*
X183136254Y-90975387D01*
X183136270Y-90975405D01*
X183338594Y-91177729D01*
X183338612Y-91177745D01*
X183567682Y-91349224D01*
X183567690Y-91349229D01*
X183818833Y-91486364D01*
X183818832Y-91486364D01*
X183818836Y-91486365D01*
X183818839Y-91486367D01*
X184086954Y-91586369D01*
X184086960Y-91586370D01*
X184086962Y-91586371D01*
X184366566Y-91647195D01*
X184366568Y-91647195D01*
X184366572Y-91647196D01*
X184620220Y-91665337D01*
X184651999Y-91667610D01*
X184652000Y-91667610D01*
X184652001Y-91667610D01*
X184680595Y-91665564D01*
X184937428Y-91647196D01*
X184979808Y-91637977D01*
X185217037Y-91586371D01*
X185217037Y-91586370D01*
X185217046Y-91586369D01*
X185485161Y-91486367D01*
X185736315Y-91349226D01*
X185965395Y-91177739D01*
X186167739Y-90975395D01*
X186339226Y-90746315D01*
X186476367Y-90495161D01*
X186576369Y-90227046D01*
X186637196Y-89947428D01*
X186657610Y-89662000D01*
X186637196Y-89376572D01*
X186625493Y-89322776D01*
X186576371Y-89096962D01*
X186576370Y-89096960D01*
X186576369Y-89096954D01*
X186476367Y-88828839D01*
X186457970Y-88795148D01*
X186339229Y-88577690D01*
X186339224Y-88577682D01*
X186167745Y-88348612D01*
X186167729Y-88348594D01*
X185965405Y-88146270D01*
X185965387Y-88146254D01*
X185736317Y-87974775D01*
X185736309Y-87974770D01*
X185536804Y-87865832D01*
X185487399Y-87816427D01*
X185472547Y-87748154D01*
X185496964Y-87682689D01*
X185536804Y-87648168D01*
X185644272Y-87589485D01*
X185736315Y-87539226D01*
X185965395Y-87367739D01*
X186167739Y-87165395D01*
X186339226Y-86936315D01*
X186476367Y-86685161D01*
X186576369Y-86417046D01*
X186586448Y-86370712D01*
X186637195Y-86137433D01*
X186637195Y-86137432D01*
X186637196Y-86137428D01*
X186657610Y-85852000D01*
X186637196Y-85566572D01*
X186615706Y-85467785D01*
X186576371Y-85286962D01*
X186576370Y-85286960D01*
X186576369Y-85286954D01*
X186476367Y-85018839D01*
X186425187Y-84925111D01*
X186339229Y-84767690D01*
X186339224Y-84767682D01*
X186167745Y-84538612D01*
X186167729Y-84538594D01*
X185965405Y-84336270D01*
X185965387Y-84336254D01*
X185736317Y-84164775D01*
X185736309Y-84164770D01*
X185485166Y-84027635D01*
X185485167Y-84027635D01*
X185377915Y-83987632D01*
X185217046Y-83927631D01*
X185217043Y-83927630D01*
X185217037Y-83927628D01*
X184937433Y-83866804D01*
X184652001Y-83846390D01*
X184651999Y-83846390D01*
X184366566Y-83866804D01*
X184086962Y-83927628D01*
X183818833Y-84027635D01*
X183567690Y-84164770D01*
X183567682Y-84164775D01*
X183338612Y-84336254D01*
X183338594Y-84336270D01*
X183136270Y-84538594D01*
X183136254Y-84538612D01*
X182964775Y-84767682D01*
X182964770Y-84767690D01*
X182827635Y-85018833D01*
X182727628Y-85286962D01*
X182666804Y-85566566D01*
X182646390Y-85851998D01*
X145898221Y-85851998D01*
X146020871Y-85762888D01*
X146147533Y-85622216D01*
X146242179Y-85458284D01*
X146300674Y-85278256D01*
X146320460Y-85090000D01*
X146300674Y-84901744D01*
X146242179Y-84721716D01*
X146147533Y-84557784D01*
X146020871Y-84417112D01*
X146020870Y-84417111D01*
X145867734Y-84305851D01*
X145867729Y-84305848D01*
X145694807Y-84228857D01*
X145694802Y-84228855D01*
X145549001Y-84197865D01*
X145509646Y-84189500D01*
X145320354Y-84189500D01*
X145287897Y-84196398D01*
X145135197Y-84228855D01*
X145135192Y-84228857D01*
X144962270Y-84305848D01*
X144962265Y-84305851D01*
X144809129Y-84417111D01*
X144682466Y-84557785D01*
X144587821Y-84721715D01*
X144587818Y-84721722D01*
X144529327Y-84901740D01*
X144529326Y-84901744D01*
X144509540Y-85090000D01*
X143725991Y-85090000D01*
X143702179Y-85016716D01*
X143607533Y-84852784D01*
X143480871Y-84712112D01*
X143480870Y-84712111D01*
X143327734Y-84600851D01*
X143327729Y-84600848D01*
X143154807Y-84523857D01*
X143154802Y-84523855D01*
X143009001Y-84492865D01*
X142969646Y-84484500D01*
X142780354Y-84484500D01*
X142747897Y-84491398D01*
X142595197Y-84523855D01*
X142595192Y-84523857D01*
X142422270Y-84600848D01*
X142422265Y-84600851D01*
X142269129Y-84712111D01*
X142142466Y-84852785D01*
X142047821Y-85016715D01*
X142047818Y-85016722D01*
X141989327Y-85196740D01*
X141989326Y-85196744D01*
X141969540Y-85385000D01*
X141222803Y-85385000D01*
X141240460Y-85217000D01*
X141220674Y-85028744D01*
X141162179Y-84848716D01*
X141067533Y-84684784D01*
X140940871Y-84544112D01*
X140933301Y-84538612D01*
X140787734Y-84432851D01*
X140787729Y-84432848D01*
X140614807Y-84355857D01*
X140614802Y-84355855D01*
X140469001Y-84324865D01*
X140429646Y-84316500D01*
X140240354Y-84316500D01*
X140207897Y-84323398D01*
X140055197Y-84355855D01*
X140055192Y-84355857D01*
X139882270Y-84432848D01*
X139882265Y-84432851D01*
X139729129Y-84544111D01*
X139602466Y-84684785D01*
X139507821Y-84848715D01*
X139507818Y-84848722D01*
X139482998Y-84925112D01*
X139449326Y-85028744D01*
X139429540Y-85217000D01*
X138700460Y-85217000D01*
X138680674Y-85028744D01*
X138622179Y-84848716D01*
X138527533Y-84684784D01*
X138400871Y-84544112D01*
X138393301Y-84538612D01*
X138247734Y-84432851D01*
X138247729Y-84432848D01*
X138074807Y-84355857D01*
X138074802Y-84355855D01*
X137929001Y-84324865D01*
X137889646Y-84316500D01*
X137700354Y-84316500D01*
X137667897Y-84323398D01*
X137515197Y-84355855D01*
X137515192Y-84355857D01*
X137342270Y-84432848D01*
X137342265Y-84432851D01*
X137189129Y-84544111D01*
X137062466Y-84684785D01*
X136967821Y-84848715D01*
X136967818Y-84848722D01*
X136942998Y-84925112D01*
X136909326Y-85028744D01*
X136889540Y-85217000D01*
X131254315Y-85217000D01*
X131252734Y-85215851D01*
X131252729Y-85215848D01*
X131079807Y-85138857D01*
X131079802Y-85138855D01*
X130934001Y-85107865D01*
X130894646Y-85099500D01*
X130705354Y-85099500D01*
X130672897Y-85106398D01*
X130520197Y-85138855D01*
X130520192Y-85138857D01*
X130347270Y-85215848D01*
X130347265Y-85215851D01*
X130194129Y-85327111D01*
X130067466Y-85467785D01*
X129972821Y-85631715D01*
X129972818Y-85631722D01*
X129914327Y-85811740D01*
X129914326Y-85811744D01*
X129894540Y-86000000D01*
X128569713Y-86000000D01*
X128589179Y-85966284D01*
X128647674Y-85786256D01*
X128667460Y-85598000D01*
X128647674Y-85409744D01*
X128589179Y-85229716D01*
X128494533Y-85065784D01*
X128367871Y-84925112D01*
X128335708Y-84901744D01*
X128214734Y-84813851D01*
X128214729Y-84813848D01*
X128041807Y-84736857D01*
X128041802Y-84736855D01*
X127896001Y-84705865D01*
X127856646Y-84697500D01*
X127667354Y-84697500D01*
X127634897Y-84704398D01*
X127482197Y-84736855D01*
X127482192Y-84736857D01*
X127304436Y-84816001D01*
X127235186Y-84825286D01*
X127203564Y-84816001D01*
X127025807Y-84736857D01*
X127025802Y-84736855D01*
X126880001Y-84705865D01*
X126840646Y-84697500D01*
X126651354Y-84697500D01*
X126618897Y-84704398D01*
X126466197Y-84736855D01*
X126466192Y-84736857D01*
X126288436Y-84816001D01*
X126219186Y-84825286D01*
X126187564Y-84816001D01*
X126009807Y-84736857D01*
X126009802Y-84736855D01*
X125864001Y-84705865D01*
X125824646Y-84697500D01*
X125635354Y-84697500D01*
X125602897Y-84704398D01*
X125450197Y-84736855D01*
X125450192Y-84736857D01*
X125277270Y-84813848D01*
X125277265Y-84813851D01*
X125124129Y-84925111D01*
X124997466Y-85065785D01*
X124902821Y-85229715D01*
X124902818Y-85229722D01*
X124845784Y-85405256D01*
X124844326Y-85409744D01*
X124824540Y-85598000D01*
X111252000Y-85598000D01*
X111252000Y-82804000D01*
X114664540Y-82804000D01*
X114684326Y-82992256D01*
X114684327Y-82992259D01*
X114742818Y-83172277D01*
X114742821Y-83172283D01*
X114742821Y-83172284D01*
X114837467Y-83336216D01*
X114964129Y-83476888D01*
X115117265Y-83588148D01*
X115117270Y-83588151D01*
X115290192Y-83665142D01*
X115290197Y-83665144D01*
X115475354Y-83704500D01*
X115475355Y-83704500D01*
X115664644Y-83704500D01*
X115664646Y-83704500D01*
X115849803Y-83665144D01*
X116022730Y-83588151D01*
X116175871Y-83476888D01*
X116302533Y-83336216D01*
X116397179Y-83172284D01*
X116455674Y-82992256D01*
X116475460Y-82804000D01*
X116455674Y-82615744D01*
X116434312Y-82550000D01*
X120760540Y-82550000D01*
X120780326Y-82738256D01*
X120780327Y-82738259D01*
X120838820Y-82918283D01*
X120883690Y-82996001D01*
X120900162Y-83063901D01*
X120883690Y-83119999D01*
X120838820Y-83197716D01*
X120780327Y-83377740D01*
X120780326Y-83377744D01*
X120760540Y-83566000D01*
X120780326Y-83754256D01*
X120780327Y-83754259D01*
X120838818Y-83934277D01*
X120838821Y-83934284D01*
X120933467Y-84098216D01*
X121014559Y-84188277D01*
X121060129Y-84238888D01*
X121213265Y-84350148D01*
X121213270Y-84350151D01*
X121386192Y-84427142D01*
X121386197Y-84427144D01*
X121571354Y-84466500D01*
X121571355Y-84466500D01*
X121760644Y-84466500D01*
X121760646Y-84466500D01*
X121945803Y-84427144D01*
X122118730Y-84350151D01*
X122271871Y-84238888D01*
X122398533Y-84098216D01*
X122493179Y-83934284D01*
X122551674Y-83754256D01*
X122571460Y-83566000D01*
X122551674Y-83377744D01*
X122493179Y-83197716D01*
X122448308Y-83119997D01*
X122431836Y-83052100D01*
X122448309Y-82996001D01*
X122493179Y-82918284D01*
X122551674Y-82738256D01*
X122571460Y-82550000D01*
X122551674Y-82361744D01*
X122493179Y-82181716D01*
X122398533Y-82017784D01*
X122271871Y-81877112D01*
X122271870Y-81877111D01*
X122118734Y-81765851D01*
X122118729Y-81765848D01*
X121945807Y-81688857D01*
X121945802Y-81688855D01*
X121800001Y-81657865D01*
X121760646Y-81649500D01*
X121571354Y-81649500D01*
X121538897Y-81656398D01*
X121386197Y-81688855D01*
X121386192Y-81688857D01*
X121213270Y-81765848D01*
X121213265Y-81765851D01*
X121060129Y-81877111D01*
X120933466Y-82017785D01*
X120838821Y-82181715D01*
X120838818Y-82181722D01*
X120780327Y-82361740D01*
X120780326Y-82361744D01*
X120760540Y-82550000D01*
X116434312Y-82550000D01*
X116397179Y-82435716D01*
X116302533Y-82271784D01*
X116175871Y-82131112D01*
X116175870Y-82131111D01*
X116022734Y-82019851D01*
X116022729Y-82019848D01*
X115849807Y-81942857D01*
X115849802Y-81942855D01*
X115704001Y-81911865D01*
X115664646Y-81903500D01*
X115475354Y-81903500D01*
X115442897Y-81910398D01*
X115290197Y-81942855D01*
X115290192Y-81942857D01*
X115117270Y-82019848D01*
X115117265Y-82019851D01*
X114964129Y-82131111D01*
X114837466Y-82271785D01*
X114742821Y-82435715D01*
X114742818Y-82435722D01*
X114684327Y-82615740D01*
X114684326Y-82615744D01*
X114664540Y-82804000D01*
X111252000Y-82804000D01*
X111252000Y-81092000D01*
X124890540Y-81092000D01*
X124910326Y-81280256D01*
X124910327Y-81280259D01*
X124968818Y-81460277D01*
X124968821Y-81460284D01*
X125063467Y-81624216D01*
X125140382Y-81709638D01*
X125190129Y-81764888D01*
X125343265Y-81876148D01*
X125343270Y-81876151D01*
X125516192Y-81953142D01*
X125516197Y-81953144D01*
X125701354Y-81992500D01*
X125701355Y-81992500D01*
X125890644Y-81992500D01*
X125890646Y-81992500D01*
X126075803Y-81953144D01*
X126248730Y-81876151D01*
X126401871Y-81764888D01*
X126528533Y-81624216D01*
X126623179Y-81460284D01*
X126628069Y-81445235D01*
X126667506Y-81387560D01*
X126731865Y-81360361D01*
X126800711Y-81372275D01*
X126852187Y-81419520D01*
X126863931Y-81445235D01*
X126868818Y-81460278D01*
X126868821Y-81460284D01*
X126963467Y-81624216D01*
X127040382Y-81709638D01*
X127090129Y-81764888D01*
X127243265Y-81876148D01*
X127243270Y-81876151D01*
X127416192Y-81953142D01*
X127416197Y-81953144D01*
X127601354Y-81992500D01*
X127601355Y-81992500D01*
X127790644Y-81992500D01*
X127790646Y-81992500D01*
X127975803Y-81953144D01*
X128148730Y-81876151D01*
X128301871Y-81764888D01*
X128428533Y-81624216D01*
X128523179Y-81460284D01*
X128581674Y-81280256D01*
X128601460Y-81092000D01*
X128581674Y-80903744D01*
X128580133Y-80899000D01*
X134349540Y-80899000D01*
X134369326Y-81087256D01*
X134369327Y-81087259D01*
X134427818Y-81267277D01*
X134427821Y-81267284D01*
X134522467Y-81431216D01*
X134599900Y-81517214D01*
X134649129Y-81571888D01*
X134802265Y-81683148D01*
X134802270Y-81683151D01*
X134975192Y-81760142D01*
X134975197Y-81760144D01*
X135160354Y-81799500D01*
X135160355Y-81799500D01*
X135349644Y-81799500D01*
X135349646Y-81799500D01*
X135534803Y-81760144D01*
X135707730Y-81683151D01*
X135860871Y-81571888D01*
X135987533Y-81431216D01*
X136082179Y-81267284D01*
X136140674Y-81087256D01*
X136154049Y-80960000D01*
X137270540Y-80960000D01*
X137290326Y-81148256D01*
X137290327Y-81148259D01*
X137348818Y-81328277D01*
X137348821Y-81328284D01*
X137443467Y-81492216D01*
X137562319Y-81624214D01*
X137570129Y-81632888D01*
X137723265Y-81744148D01*
X137723270Y-81744151D01*
X137896192Y-81821142D01*
X137896197Y-81821144D01*
X138081354Y-81860500D01*
X138081355Y-81860500D01*
X138270644Y-81860500D01*
X138270646Y-81860500D01*
X138455803Y-81821144D01*
X138628730Y-81744151D01*
X138781871Y-81632888D01*
X138908533Y-81492216D01*
X139003179Y-81328284D01*
X139060133Y-81153000D01*
X141969540Y-81153000D01*
X141989326Y-81341256D01*
X141989327Y-81341259D01*
X142047818Y-81521277D01*
X142047821Y-81521284D01*
X142142467Y-81685216D01*
X142260876Y-81816722D01*
X142269129Y-81825888D01*
X142422265Y-81937148D01*
X142422270Y-81937151D01*
X142595192Y-82014142D01*
X142595197Y-82014144D01*
X142780354Y-82053500D01*
X142780355Y-82053500D01*
X142969644Y-82053500D01*
X142969646Y-82053500D01*
X143154803Y-82014144D01*
X143327730Y-81937151D01*
X143480871Y-81825888D01*
X143607533Y-81685216D01*
X143702179Y-81521284D01*
X143760674Y-81341256D01*
X143780460Y-81153000D01*
X143762803Y-80985000D01*
X144509540Y-80985000D01*
X144529326Y-81173256D01*
X144529327Y-81173258D01*
X144529327Y-81173259D01*
X144587818Y-81353277D01*
X144587821Y-81353284D01*
X144682467Y-81517216D01*
X144778809Y-81624214D01*
X144809129Y-81657888D01*
X144962265Y-81769148D01*
X144962270Y-81769151D01*
X145135192Y-81846142D01*
X145135197Y-81846144D01*
X145320354Y-81885500D01*
X145320355Y-81885500D01*
X145509644Y-81885500D01*
X145509646Y-81885500D01*
X145682447Y-81848770D01*
X145752113Y-81854086D01*
X145807847Y-81896223D01*
X145831952Y-81961803D01*
X145829917Y-81990271D01*
X145830006Y-81990281D01*
X145829727Y-81992927D01*
X145829521Y-81995822D01*
X145829328Y-81996729D01*
X145829327Y-81996740D01*
X145829326Y-81996744D01*
X145809540Y-82185000D01*
X145829326Y-82373256D01*
X145829327Y-82373259D01*
X145887818Y-82553277D01*
X145887821Y-82553284D01*
X145982467Y-82717216D01*
X146060608Y-82804000D01*
X146109129Y-82857888D01*
X146262265Y-82969148D01*
X146262270Y-82969151D01*
X146435192Y-83046142D01*
X146435197Y-83046144D01*
X146620354Y-83085500D01*
X146620355Y-83085500D01*
X146809644Y-83085500D01*
X146809646Y-83085500D01*
X146994803Y-83046144D01*
X147167730Y-82969151D01*
X147320871Y-82857888D01*
X147369392Y-82804000D01*
X153780540Y-82804000D01*
X153800326Y-82992256D01*
X153800327Y-82992259D01*
X153858820Y-83172283D01*
X153903690Y-83250001D01*
X153920162Y-83317901D01*
X153903690Y-83373999D01*
X153858820Y-83451716D01*
X153814491Y-83588148D01*
X153800326Y-83631744D01*
X153780540Y-83820000D01*
X153800326Y-84008256D01*
X153800327Y-84008259D01*
X153858818Y-84188277D01*
X153858821Y-84188284D01*
X153953467Y-84352216D01*
X154056369Y-84466500D01*
X154080129Y-84492888D01*
X154233265Y-84604148D01*
X154233270Y-84604151D01*
X154406192Y-84681142D01*
X154406197Y-84681144D01*
X154591354Y-84720500D01*
X154591355Y-84720500D01*
X154780644Y-84720500D01*
X154780646Y-84720500D01*
X154965803Y-84681144D01*
X155138730Y-84604151D01*
X155291871Y-84492888D01*
X155418533Y-84352216D01*
X155513179Y-84188284D01*
X155571674Y-84008256D01*
X155591460Y-83820000D01*
X155571674Y-83631744D01*
X155513179Y-83451716D01*
X155468308Y-83373997D01*
X155451836Y-83306100D01*
X155468309Y-83250001D01*
X155513179Y-83172284D01*
X155571674Y-82992256D01*
X155591460Y-82804000D01*
X155571674Y-82615744D01*
X155513179Y-82435716D01*
X155418533Y-82271784D01*
X155291871Y-82131112D01*
X155291870Y-82131111D01*
X155138734Y-82019851D01*
X155138729Y-82019848D01*
X154965807Y-81942857D01*
X154965802Y-81942855D01*
X154820001Y-81911865D01*
X154780646Y-81903500D01*
X154591354Y-81903500D01*
X154558897Y-81910398D01*
X154406197Y-81942855D01*
X154406192Y-81942857D01*
X154233270Y-82019848D01*
X154233265Y-82019851D01*
X154080129Y-82131111D01*
X153953466Y-82271785D01*
X153858821Y-82435715D01*
X153858818Y-82435722D01*
X153800327Y-82615740D01*
X153800326Y-82615744D01*
X153780540Y-82804000D01*
X147369392Y-82804000D01*
X147447533Y-82717216D01*
X147542179Y-82553284D01*
X147600674Y-82373256D01*
X147620460Y-82185000D01*
X147600674Y-81996744D01*
X147542179Y-81816716D01*
X147447533Y-81652784D01*
X147320871Y-81512112D01*
X147320870Y-81512111D01*
X147167734Y-81400851D01*
X147167729Y-81400848D01*
X146994807Y-81323857D01*
X146994802Y-81323855D01*
X146849001Y-81292865D01*
X146809646Y-81284500D01*
X146620354Y-81284500D01*
X146620352Y-81284500D01*
X146447552Y-81321229D01*
X146377885Y-81315913D01*
X146322152Y-81273775D01*
X146298047Y-81208195D01*
X146300083Y-81179728D01*
X146299994Y-81179719D01*
X146300276Y-81177034D01*
X146300482Y-81174157D01*
X146300673Y-81173258D01*
X146300674Y-81173256D01*
X146320460Y-80985000D01*
X146300674Y-80796744D01*
X146242179Y-80616716D01*
X146147533Y-80452784D01*
X146020871Y-80312112D01*
X146020870Y-80312111D01*
X145867734Y-80200851D01*
X145867729Y-80200848D01*
X145694807Y-80123857D01*
X145694802Y-80123855D01*
X145549001Y-80092865D01*
X145509646Y-80084500D01*
X145320354Y-80084500D01*
X145287897Y-80091398D01*
X145135197Y-80123855D01*
X145135192Y-80123857D01*
X144962270Y-80200848D01*
X144962265Y-80200851D01*
X144809129Y-80312111D01*
X144682466Y-80452785D01*
X144587821Y-80616715D01*
X144587818Y-80616722D01*
X144529327Y-80796740D01*
X144529326Y-80796744D01*
X144509540Y-80985000D01*
X143762803Y-80985000D01*
X143760674Y-80964744D01*
X143702179Y-80784716D01*
X143607533Y-80620784D01*
X143480871Y-80480112D01*
X143480870Y-80480111D01*
X143327734Y-80368851D01*
X143327729Y-80368848D01*
X143154807Y-80291857D01*
X143154802Y-80291855D01*
X143009001Y-80260865D01*
X142969646Y-80252500D01*
X142780354Y-80252500D01*
X142747897Y-80259398D01*
X142595197Y-80291855D01*
X142595192Y-80291857D01*
X142422270Y-80368848D01*
X142422265Y-80368851D01*
X142269129Y-80480111D01*
X142142466Y-80620785D01*
X142047821Y-80784715D01*
X142047818Y-80784722D01*
X142009146Y-80903744D01*
X141989326Y-80964744D01*
X141969540Y-81153000D01*
X139060133Y-81153000D01*
X139061674Y-81148256D01*
X139081460Y-80960000D01*
X139061674Y-80771744D01*
X139003179Y-80591716D01*
X138908533Y-80427784D01*
X138781871Y-80287112D01*
X138781870Y-80287111D01*
X138628734Y-80175851D01*
X138628729Y-80175848D01*
X138455807Y-80098857D01*
X138455802Y-80098855D01*
X138310001Y-80067865D01*
X138270646Y-80059500D01*
X138081354Y-80059500D01*
X138048897Y-80066398D01*
X137896197Y-80098855D01*
X137896192Y-80098857D01*
X137723270Y-80175848D01*
X137723265Y-80175851D01*
X137570129Y-80287111D01*
X137443466Y-80427785D01*
X137348821Y-80591715D01*
X137348818Y-80591722D01*
X137305931Y-80723716D01*
X137290326Y-80771744D01*
X137270540Y-80960000D01*
X136154049Y-80960000D01*
X136160460Y-80899000D01*
X136140674Y-80710744D01*
X136082179Y-80530716D01*
X135987533Y-80366784D01*
X135860871Y-80226112D01*
X135860870Y-80226111D01*
X135707734Y-80114851D01*
X135707729Y-80114848D01*
X135534807Y-80037857D01*
X135534802Y-80037855D01*
X135389001Y-80006865D01*
X135349646Y-79998500D01*
X135160354Y-79998500D01*
X135127897Y-80005398D01*
X134975197Y-80037855D01*
X134975192Y-80037857D01*
X134802270Y-80114848D01*
X134802265Y-80114851D01*
X134649129Y-80226111D01*
X134522466Y-80366785D01*
X134427821Y-80530715D01*
X134427818Y-80530722D01*
X134369327Y-80710740D01*
X134369326Y-80710744D01*
X134349540Y-80899000D01*
X128580133Y-80899000D01*
X128523179Y-80723716D01*
X128428533Y-80559784D01*
X128301871Y-80419112D01*
X128301870Y-80419111D01*
X128148734Y-80307851D01*
X128148729Y-80307848D01*
X127975807Y-80230857D01*
X127975802Y-80230855D01*
X127830001Y-80199865D01*
X127790646Y-80191500D01*
X127601354Y-80191500D01*
X127568897Y-80198398D01*
X127416197Y-80230855D01*
X127416192Y-80230857D01*
X127243270Y-80307848D01*
X127243265Y-80307851D01*
X127090129Y-80419111D01*
X126963466Y-80559785D01*
X126868821Y-80723715D01*
X126868820Y-80723717D01*
X126863931Y-80738766D01*
X126824492Y-80796440D01*
X126760133Y-80823638D01*
X126691287Y-80811723D01*
X126639812Y-80764478D01*
X126628069Y-80738766D01*
X126623179Y-80723717D01*
X126623178Y-80723715D01*
X126528533Y-80559784D01*
X126401871Y-80419112D01*
X126401870Y-80419111D01*
X126248734Y-80307851D01*
X126248729Y-80307848D01*
X126075807Y-80230857D01*
X126075802Y-80230855D01*
X125930001Y-80199865D01*
X125890646Y-80191500D01*
X125701354Y-80191500D01*
X125668897Y-80198398D01*
X125516197Y-80230855D01*
X125516192Y-80230857D01*
X125343270Y-80307848D01*
X125343265Y-80307851D01*
X125190129Y-80419111D01*
X125063466Y-80559785D01*
X124968821Y-80723715D01*
X124968818Y-80723722D01*
X124936354Y-80823638D01*
X124910326Y-80903744D01*
X124890540Y-81092000D01*
X111252000Y-81092000D01*
X111252000Y-80000092D01*
X111252597Y-79987938D01*
X111267433Y-79837304D01*
X111270018Y-79811056D01*
X111274757Y-79787232D01*
X111324577Y-79622994D01*
X111333875Y-79600549D01*
X111414775Y-79449195D01*
X111428272Y-79428995D01*
X111537149Y-79296328D01*
X111554328Y-79279149D01*
X111686995Y-79170272D01*
X111707195Y-79156775D01*
X111858549Y-79075875D01*
X111880994Y-79066577D01*
X112045232Y-79016757D01*
X112069056Y-79012018D01*
X112238895Y-78995290D01*
X112245939Y-78994597D01*
X112258093Y-78994000D01*
X116063035Y-78994000D01*
X116130074Y-79013685D01*
G37*
%TD.AperFunction*%
%TD*%
M02*
