%TF.GenerationSoftware,KiCad,Pcbnew,8.0.8*%
%TF.CreationDate,2025-03-20T13:59:38+03:00*%
%TF.ProjectId,Driver_Inductor,44726976-6572-45f4-996e-647563746f72,rev?*%
%TF.SameCoordinates,Original*%
%TF.FileFunction,Legend,Bot*%
%TF.FilePolarity,Positive*%
%FSLAX46Y46*%
G04 Gerber Fmt 4.6, Leading zero omitted, Abs format (unit mm)*
G04 Created by KiCad (PCBNEW 8.0.8) date 2025-03-20 13:59:38*
%MOMM*%
%LPD*%
G01*
G04 APERTURE LIST*
%ADD10C,0.150000*%
%ADD11C,0.120000*%
G04 APERTURE END LIST*
D10*
X122152580Y-106640333D02*
X122200200Y-106592714D01*
X122200200Y-106592714D02*
X122247819Y-106449857D01*
X122247819Y-106449857D02*
X122247819Y-106354619D01*
X122247819Y-106354619D02*
X122200200Y-106211762D01*
X122200200Y-106211762D02*
X122104961Y-106116524D01*
X122104961Y-106116524D02*
X122009723Y-106068905D01*
X122009723Y-106068905D02*
X121819247Y-106021286D01*
X121819247Y-106021286D02*
X121676390Y-106021286D01*
X121676390Y-106021286D02*
X121485914Y-106068905D01*
X121485914Y-106068905D02*
X121390676Y-106116524D01*
X121390676Y-106116524D02*
X121295438Y-106211762D01*
X121295438Y-106211762D02*
X121247819Y-106354619D01*
X121247819Y-106354619D02*
X121247819Y-106449857D01*
X121247819Y-106449857D02*
X121295438Y-106592714D01*
X121295438Y-106592714D02*
X121343057Y-106640333D01*
X121247819Y-107497476D02*
X121247819Y-107307000D01*
X121247819Y-107307000D02*
X121295438Y-107211762D01*
X121295438Y-107211762D02*
X121343057Y-107164143D01*
X121343057Y-107164143D02*
X121485914Y-107068905D01*
X121485914Y-107068905D02*
X121676390Y-107021286D01*
X121676390Y-107021286D02*
X122057342Y-107021286D01*
X122057342Y-107021286D02*
X122152580Y-107068905D01*
X122152580Y-107068905D02*
X122200200Y-107116524D01*
X122200200Y-107116524D02*
X122247819Y-107211762D01*
X122247819Y-107211762D02*
X122247819Y-107402238D01*
X122247819Y-107402238D02*
X122200200Y-107497476D01*
X122200200Y-107497476D02*
X122152580Y-107545095D01*
X122152580Y-107545095D02*
X122057342Y-107592714D01*
X122057342Y-107592714D02*
X121819247Y-107592714D01*
X121819247Y-107592714D02*
X121724009Y-107545095D01*
X121724009Y-107545095D02*
X121676390Y-107497476D01*
X121676390Y-107497476D02*
X121628771Y-107402238D01*
X121628771Y-107402238D02*
X121628771Y-107211762D01*
X121628771Y-107211762D02*
X121676390Y-107116524D01*
X121676390Y-107116524D02*
X121724009Y-107068905D01*
X121724009Y-107068905D02*
X121819247Y-107021286D01*
X88719819Y-104132142D02*
X88243628Y-103798809D01*
X88719819Y-103560714D02*
X87719819Y-103560714D01*
X87719819Y-103560714D02*
X87719819Y-103941666D01*
X87719819Y-103941666D02*
X87767438Y-104036904D01*
X87767438Y-104036904D02*
X87815057Y-104084523D01*
X87815057Y-104084523D02*
X87910295Y-104132142D01*
X87910295Y-104132142D02*
X88053152Y-104132142D01*
X88053152Y-104132142D02*
X88148390Y-104084523D01*
X88148390Y-104084523D02*
X88196009Y-104036904D01*
X88196009Y-104036904D02*
X88243628Y-103941666D01*
X88243628Y-103941666D02*
X88243628Y-103560714D01*
X88719819Y-105084523D02*
X88719819Y-104513095D01*
X88719819Y-104798809D02*
X87719819Y-104798809D01*
X87719819Y-104798809D02*
X87862676Y-104703571D01*
X87862676Y-104703571D02*
X87957914Y-104608333D01*
X87957914Y-104608333D02*
X88005533Y-104513095D01*
X87719819Y-105703571D02*
X87719819Y-105798809D01*
X87719819Y-105798809D02*
X87767438Y-105894047D01*
X87767438Y-105894047D02*
X87815057Y-105941666D01*
X87815057Y-105941666D02*
X87910295Y-105989285D01*
X87910295Y-105989285D02*
X88100771Y-106036904D01*
X88100771Y-106036904D02*
X88338866Y-106036904D01*
X88338866Y-106036904D02*
X88529342Y-105989285D01*
X88529342Y-105989285D02*
X88624580Y-105941666D01*
X88624580Y-105941666D02*
X88672200Y-105894047D01*
X88672200Y-105894047D02*
X88719819Y-105798809D01*
X88719819Y-105798809D02*
X88719819Y-105703571D01*
X88719819Y-105703571D02*
X88672200Y-105608333D01*
X88672200Y-105608333D02*
X88624580Y-105560714D01*
X88624580Y-105560714D02*
X88529342Y-105513095D01*
X88529342Y-105513095D02*
X88338866Y-105465476D01*
X88338866Y-105465476D02*
X88100771Y-105465476D01*
X88100771Y-105465476D02*
X87910295Y-105513095D01*
X87910295Y-105513095D02*
X87815057Y-105560714D01*
X87815057Y-105560714D02*
X87767438Y-105608333D01*
X87767438Y-105608333D02*
X87719819Y-105703571D01*
X167142857Y-73679580D02*
X167190476Y-73727200D01*
X167190476Y-73727200D02*
X167333333Y-73774819D01*
X167333333Y-73774819D02*
X167428571Y-73774819D01*
X167428571Y-73774819D02*
X167571428Y-73727200D01*
X167571428Y-73727200D02*
X167666666Y-73631961D01*
X167666666Y-73631961D02*
X167714285Y-73536723D01*
X167714285Y-73536723D02*
X167761904Y-73346247D01*
X167761904Y-73346247D02*
X167761904Y-73203390D01*
X167761904Y-73203390D02*
X167714285Y-73012914D01*
X167714285Y-73012914D02*
X167666666Y-72917676D01*
X167666666Y-72917676D02*
X167571428Y-72822438D01*
X167571428Y-72822438D02*
X167428571Y-72774819D01*
X167428571Y-72774819D02*
X167333333Y-72774819D01*
X167333333Y-72774819D02*
X167190476Y-72822438D01*
X167190476Y-72822438D02*
X167142857Y-72870057D01*
X166190476Y-73774819D02*
X166761904Y-73774819D01*
X166476190Y-73774819D02*
X166476190Y-72774819D01*
X166476190Y-72774819D02*
X166571428Y-72917676D01*
X166571428Y-72917676D02*
X166666666Y-73012914D01*
X166666666Y-73012914D02*
X166761904Y-73060533D01*
X165333333Y-72774819D02*
X165523809Y-72774819D01*
X165523809Y-72774819D02*
X165619047Y-72822438D01*
X165619047Y-72822438D02*
X165666666Y-72870057D01*
X165666666Y-72870057D02*
X165761904Y-73012914D01*
X165761904Y-73012914D02*
X165809523Y-73203390D01*
X165809523Y-73203390D02*
X165809523Y-73584342D01*
X165809523Y-73584342D02*
X165761904Y-73679580D01*
X165761904Y-73679580D02*
X165714285Y-73727200D01*
X165714285Y-73727200D02*
X165619047Y-73774819D01*
X165619047Y-73774819D02*
X165428571Y-73774819D01*
X165428571Y-73774819D02*
X165333333Y-73727200D01*
X165333333Y-73727200D02*
X165285714Y-73679580D01*
X165285714Y-73679580D02*
X165238095Y-73584342D01*
X165238095Y-73584342D02*
X165238095Y-73346247D01*
X165238095Y-73346247D02*
X165285714Y-73251009D01*
X165285714Y-73251009D02*
X165333333Y-73203390D01*
X165333333Y-73203390D02*
X165428571Y-73155771D01*
X165428571Y-73155771D02*
X165619047Y-73155771D01*
X165619047Y-73155771D02*
X165714285Y-73203390D01*
X165714285Y-73203390D02*
X165761904Y-73251009D01*
X165761904Y-73251009D02*
X165809523Y-73346247D01*
X189642857Y-75179580D02*
X189690476Y-75227200D01*
X189690476Y-75227200D02*
X189833333Y-75274819D01*
X189833333Y-75274819D02*
X189928571Y-75274819D01*
X189928571Y-75274819D02*
X190071428Y-75227200D01*
X190071428Y-75227200D02*
X190166666Y-75131961D01*
X190166666Y-75131961D02*
X190214285Y-75036723D01*
X190214285Y-75036723D02*
X190261904Y-74846247D01*
X190261904Y-74846247D02*
X190261904Y-74703390D01*
X190261904Y-74703390D02*
X190214285Y-74512914D01*
X190214285Y-74512914D02*
X190166666Y-74417676D01*
X190166666Y-74417676D02*
X190071428Y-74322438D01*
X190071428Y-74322438D02*
X189928571Y-74274819D01*
X189928571Y-74274819D02*
X189833333Y-74274819D01*
X189833333Y-74274819D02*
X189690476Y-74322438D01*
X189690476Y-74322438D02*
X189642857Y-74370057D01*
X189309523Y-74274819D02*
X188690476Y-74274819D01*
X188690476Y-74274819D02*
X189023809Y-74655771D01*
X189023809Y-74655771D02*
X188880952Y-74655771D01*
X188880952Y-74655771D02*
X188785714Y-74703390D01*
X188785714Y-74703390D02*
X188738095Y-74751009D01*
X188738095Y-74751009D02*
X188690476Y-74846247D01*
X188690476Y-74846247D02*
X188690476Y-75084342D01*
X188690476Y-75084342D02*
X188738095Y-75179580D01*
X188738095Y-75179580D02*
X188785714Y-75227200D01*
X188785714Y-75227200D02*
X188880952Y-75274819D01*
X188880952Y-75274819D02*
X189166666Y-75274819D01*
X189166666Y-75274819D02*
X189261904Y-75227200D01*
X189261904Y-75227200D02*
X189309523Y-75179580D01*
X187833333Y-74274819D02*
X188023809Y-74274819D01*
X188023809Y-74274819D02*
X188119047Y-74322438D01*
X188119047Y-74322438D02*
X188166666Y-74370057D01*
X188166666Y-74370057D02*
X188261904Y-74512914D01*
X188261904Y-74512914D02*
X188309523Y-74703390D01*
X188309523Y-74703390D02*
X188309523Y-75084342D01*
X188309523Y-75084342D02*
X188261904Y-75179580D01*
X188261904Y-75179580D02*
X188214285Y-75227200D01*
X188214285Y-75227200D02*
X188119047Y-75274819D01*
X188119047Y-75274819D02*
X187928571Y-75274819D01*
X187928571Y-75274819D02*
X187833333Y-75227200D01*
X187833333Y-75227200D02*
X187785714Y-75179580D01*
X187785714Y-75179580D02*
X187738095Y-75084342D01*
X187738095Y-75084342D02*
X187738095Y-74846247D01*
X187738095Y-74846247D02*
X187785714Y-74751009D01*
X187785714Y-74751009D02*
X187833333Y-74703390D01*
X187833333Y-74703390D02*
X187928571Y-74655771D01*
X187928571Y-74655771D02*
X188119047Y-74655771D01*
X188119047Y-74655771D02*
X188214285Y-74703390D01*
X188214285Y-74703390D02*
X188261904Y-74751009D01*
X188261904Y-74751009D02*
X188309523Y-74846247D01*
X145854819Y-86357142D02*
X145378628Y-86023809D01*
X145854819Y-85785714D02*
X144854819Y-85785714D01*
X144854819Y-85785714D02*
X144854819Y-86166666D01*
X144854819Y-86166666D02*
X144902438Y-86261904D01*
X144902438Y-86261904D02*
X144950057Y-86309523D01*
X144950057Y-86309523D02*
X145045295Y-86357142D01*
X145045295Y-86357142D02*
X145188152Y-86357142D01*
X145188152Y-86357142D02*
X145283390Y-86309523D01*
X145283390Y-86309523D02*
X145331009Y-86261904D01*
X145331009Y-86261904D02*
X145378628Y-86166666D01*
X145378628Y-86166666D02*
X145378628Y-85785714D01*
X145854819Y-87309523D02*
X145854819Y-86738095D01*
X145854819Y-87023809D02*
X144854819Y-87023809D01*
X144854819Y-87023809D02*
X144997676Y-86928571D01*
X144997676Y-86928571D02*
X145092914Y-86833333D01*
X145092914Y-86833333D02*
X145140533Y-86738095D01*
X144950057Y-87690476D02*
X144902438Y-87738095D01*
X144902438Y-87738095D02*
X144854819Y-87833333D01*
X144854819Y-87833333D02*
X144854819Y-88071428D01*
X144854819Y-88071428D02*
X144902438Y-88166666D01*
X144902438Y-88166666D02*
X144950057Y-88214285D01*
X144950057Y-88214285D02*
X145045295Y-88261904D01*
X145045295Y-88261904D02*
X145140533Y-88261904D01*
X145140533Y-88261904D02*
X145283390Y-88214285D01*
X145283390Y-88214285D02*
X145854819Y-87642857D01*
X145854819Y-87642857D02*
X145854819Y-88261904D01*
X184142857Y-75179580D02*
X184190476Y-75227200D01*
X184190476Y-75227200D02*
X184333333Y-75274819D01*
X184333333Y-75274819D02*
X184428571Y-75274819D01*
X184428571Y-75274819D02*
X184571428Y-75227200D01*
X184571428Y-75227200D02*
X184666666Y-75131961D01*
X184666666Y-75131961D02*
X184714285Y-75036723D01*
X184714285Y-75036723D02*
X184761904Y-74846247D01*
X184761904Y-74846247D02*
X184761904Y-74703390D01*
X184761904Y-74703390D02*
X184714285Y-74512914D01*
X184714285Y-74512914D02*
X184666666Y-74417676D01*
X184666666Y-74417676D02*
X184571428Y-74322438D01*
X184571428Y-74322438D02*
X184428571Y-74274819D01*
X184428571Y-74274819D02*
X184333333Y-74274819D01*
X184333333Y-74274819D02*
X184190476Y-74322438D01*
X184190476Y-74322438D02*
X184142857Y-74370057D01*
X183809523Y-74274819D02*
X183190476Y-74274819D01*
X183190476Y-74274819D02*
X183523809Y-74655771D01*
X183523809Y-74655771D02*
X183380952Y-74655771D01*
X183380952Y-74655771D02*
X183285714Y-74703390D01*
X183285714Y-74703390D02*
X183238095Y-74751009D01*
X183238095Y-74751009D02*
X183190476Y-74846247D01*
X183190476Y-74846247D02*
X183190476Y-75084342D01*
X183190476Y-75084342D02*
X183238095Y-75179580D01*
X183238095Y-75179580D02*
X183285714Y-75227200D01*
X183285714Y-75227200D02*
X183380952Y-75274819D01*
X183380952Y-75274819D02*
X183666666Y-75274819D01*
X183666666Y-75274819D02*
X183761904Y-75227200D01*
X183761904Y-75227200D02*
X183809523Y-75179580D01*
X182285714Y-74274819D02*
X182761904Y-74274819D01*
X182761904Y-74274819D02*
X182809523Y-74751009D01*
X182809523Y-74751009D02*
X182761904Y-74703390D01*
X182761904Y-74703390D02*
X182666666Y-74655771D01*
X182666666Y-74655771D02*
X182428571Y-74655771D01*
X182428571Y-74655771D02*
X182333333Y-74703390D01*
X182333333Y-74703390D02*
X182285714Y-74751009D01*
X182285714Y-74751009D02*
X182238095Y-74846247D01*
X182238095Y-74846247D02*
X182238095Y-75084342D01*
X182238095Y-75084342D02*
X182285714Y-75179580D01*
X182285714Y-75179580D02*
X182333333Y-75227200D01*
X182333333Y-75227200D02*
X182428571Y-75274819D01*
X182428571Y-75274819D02*
X182666666Y-75274819D01*
X182666666Y-75274819D02*
X182761904Y-75227200D01*
X182761904Y-75227200D02*
X182809523Y-75179580D01*
X85097857Y-72114580D02*
X85145476Y-72162200D01*
X85145476Y-72162200D02*
X85288333Y-72209819D01*
X85288333Y-72209819D02*
X85383571Y-72209819D01*
X85383571Y-72209819D02*
X85526428Y-72162200D01*
X85526428Y-72162200D02*
X85621666Y-72066961D01*
X85621666Y-72066961D02*
X85669285Y-71971723D01*
X85669285Y-71971723D02*
X85716904Y-71781247D01*
X85716904Y-71781247D02*
X85716904Y-71638390D01*
X85716904Y-71638390D02*
X85669285Y-71447914D01*
X85669285Y-71447914D02*
X85621666Y-71352676D01*
X85621666Y-71352676D02*
X85526428Y-71257438D01*
X85526428Y-71257438D02*
X85383571Y-71209819D01*
X85383571Y-71209819D02*
X85288333Y-71209819D01*
X85288333Y-71209819D02*
X85145476Y-71257438D01*
X85145476Y-71257438D02*
X85097857Y-71305057D01*
X84145476Y-72209819D02*
X84716904Y-72209819D01*
X84431190Y-72209819D02*
X84431190Y-71209819D01*
X84431190Y-71209819D02*
X84526428Y-71352676D01*
X84526428Y-71352676D02*
X84621666Y-71447914D01*
X84621666Y-71447914D02*
X84716904Y-71495533D01*
X83669285Y-72209819D02*
X83478809Y-72209819D01*
X83478809Y-72209819D02*
X83383571Y-72162200D01*
X83383571Y-72162200D02*
X83335952Y-72114580D01*
X83335952Y-72114580D02*
X83240714Y-71971723D01*
X83240714Y-71971723D02*
X83193095Y-71781247D01*
X83193095Y-71781247D02*
X83193095Y-71400295D01*
X83193095Y-71400295D02*
X83240714Y-71305057D01*
X83240714Y-71305057D02*
X83288333Y-71257438D01*
X83288333Y-71257438D02*
X83383571Y-71209819D01*
X83383571Y-71209819D02*
X83574047Y-71209819D01*
X83574047Y-71209819D02*
X83669285Y-71257438D01*
X83669285Y-71257438D02*
X83716904Y-71305057D01*
X83716904Y-71305057D02*
X83764523Y-71400295D01*
X83764523Y-71400295D02*
X83764523Y-71638390D01*
X83764523Y-71638390D02*
X83716904Y-71733628D01*
X83716904Y-71733628D02*
X83669285Y-71781247D01*
X83669285Y-71781247D02*
X83574047Y-71828866D01*
X83574047Y-71828866D02*
X83383571Y-71828866D01*
X83383571Y-71828866D02*
X83288333Y-71781247D01*
X83288333Y-71781247D02*
X83240714Y-71733628D01*
X83240714Y-71733628D02*
X83193095Y-71638390D01*
X133582580Y-106640333D02*
X133630200Y-106592714D01*
X133630200Y-106592714D02*
X133677819Y-106449857D01*
X133677819Y-106449857D02*
X133677819Y-106354619D01*
X133677819Y-106354619D02*
X133630200Y-106211762D01*
X133630200Y-106211762D02*
X133534961Y-106116524D01*
X133534961Y-106116524D02*
X133439723Y-106068905D01*
X133439723Y-106068905D02*
X133249247Y-106021286D01*
X133249247Y-106021286D02*
X133106390Y-106021286D01*
X133106390Y-106021286D02*
X132915914Y-106068905D01*
X132915914Y-106068905D02*
X132820676Y-106116524D01*
X132820676Y-106116524D02*
X132725438Y-106211762D01*
X132725438Y-106211762D02*
X132677819Y-106354619D01*
X132677819Y-106354619D02*
X132677819Y-106449857D01*
X132677819Y-106449857D02*
X132725438Y-106592714D01*
X132725438Y-106592714D02*
X132773057Y-106640333D01*
X132677819Y-107545095D02*
X132677819Y-107068905D01*
X132677819Y-107068905D02*
X133154009Y-107021286D01*
X133154009Y-107021286D02*
X133106390Y-107068905D01*
X133106390Y-107068905D02*
X133058771Y-107164143D01*
X133058771Y-107164143D02*
X133058771Y-107402238D01*
X133058771Y-107402238D02*
X133106390Y-107497476D01*
X133106390Y-107497476D02*
X133154009Y-107545095D01*
X133154009Y-107545095D02*
X133249247Y-107592714D01*
X133249247Y-107592714D02*
X133487342Y-107592714D01*
X133487342Y-107592714D02*
X133582580Y-107545095D01*
X133582580Y-107545095D02*
X133630200Y-107497476D01*
X133630200Y-107497476D02*
X133677819Y-107402238D01*
X133677819Y-107402238D02*
X133677819Y-107164143D01*
X133677819Y-107164143D02*
X133630200Y-107068905D01*
X133630200Y-107068905D02*
X133582580Y-107021286D01*
X127287257Y-86770380D02*
X127334876Y-86818000D01*
X127334876Y-86818000D02*
X127477733Y-86865619D01*
X127477733Y-86865619D02*
X127572971Y-86865619D01*
X127572971Y-86865619D02*
X127715828Y-86818000D01*
X127715828Y-86818000D02*
X127811066Y-86722761D01*
X127811066Y-86722761D02*
X127858685Y-86627523D01*
X127858685Y-86627523D02*
X127906304Y-86437047D01*
X127906304Y-86437047D02*
X127906304Y-86294190D01*
X127906304Y-86294190D02*
X127858685Y-86103714D01*
X127858685Y-86103714D02*
X127811066Y-86008476D01*
X127811066Y-86008476D02*
X127715828Y-85913238D01*
X127715828Y-85913238D02*
X127572971Y-85865619D01*
X127572971Y-85865619D02*
X127477733Y-85865619D01*
X127477733Y-85865619D02*
X127334876Y-85913238D01*
X127334876Y-85913238D02*
X127287257Y-85960857D01*
X126334876Y-86865619D02*
X126906304Y-86865619D01*
X126620590Y-86865619D02*
X126620590Y-85865619D01*
X126620590Y-85865619D02*
X126715828Y-86008476D01*
X126715828Y-86008476D02*
X126811066Y-86103714D01*
X126811066Y-86103714D02*
X126906304Y-86151333D01*
X125430114Y-85865619D02*
X125906304Y-85865619D01*
X125906304Y-85865619D02*
X125953923Y-86341809D01*
X125953923Y-86341809D02*
X125906304Y-86294190D01*
X125906304Y-86294190D02*
X125811066Y-86246571D01*
X125811066Y-86246571D02*
X125572971Y-86246571D01*
X125572971Y-86246571D02*
X125477733Y-86294190D01*
X125477733Y-86294190D02*
X125430114Y-86341809D01*
X125430114Y-86341809D02*
X125382495Y-86437047D01*
X125382495Y-86437047D02*
X125382495Y-86675142D01*
X125382495Y-86675142D02*
X125430114Y-86770380D01*
X125430114Y-86770380D02*
X125477733Y-86818000D01*
X125477733Y-86818000D02*
X125572971Y-86865619D01*
X125572971Y-86865619D02*
X125811066Y-86865619D01*
X125811066Y-86865619D02*
X125906304Y-86818000D01*
X125906304Y-86818000D02*
X125953923Y-86770380D01*
X134312819Y-108608905D02*
X133312819Y-108608905D01*
X133312819Y-108608905D02*
X133312819Y-108847000D01*
X133312819Y-108847000D02*
X133360438Y-108989857D01*
X133360438Y-108989857D02*
X133455676Y-109085095D01*
X133455676Y-109085095D02*
X133550914Y-109132714D01*
X133550914Y-109132714D02*
X133741390Y-109180333D01*
X133741390Y-109180333D02*
X133884247Y-109180333D01*
X133884247Y-109180333D02*
X134074723Y-109132714D01*
X134074723Y-109132714D02*
X134169961Y-109085095D01*
X134169961Y-109085095D02*
X134265200Y-108989857D01*
X134265200Y-108989857D02*
X134312819Y-108847000D01*
X134312819Y-108847000D02*
X134312819Y-108608905D01*
X133312819Y-109513667D02*
X133312819Y-110132714D01*
X133312819Y-110132714D02*
X133693771Y-109799381D01*
X133693771Y-109799381D02*
X133693771Y-109942238D01*
X133693771Y-109942238D02*
X133741390Y-110037476D01*
X133741390Y-110037476D02*
X133789009Y-110085095D01*
X133789009Y-110085095D02*
X133884247Y-110132714D01*
X133884247Y-110132714D02*
X134122342Y-110132714D01*
X134122342Y-110132714D02*
X134217580Y-110085095D01*
X134217580Y-110085095D02*
X134265200Y-110037476D01*
X134265200Y-110037476D02*
X134312819Y-109942238D01*
X134312819Y-109942238D02*
X134312819Y-109656524D01*
X134312819Y-109656524D02*
X134265200Y-109561286D01*
X134265200Y-109561286D02*
X134217580Y-109513667D01*
X122882819Y-108481905D02*
X121882819Y-108481905D01*
X121882819Y-108481905D02*
X121882819Y-108720000D01*
X121882819Y-108720000D02*
X121930438Y-108862857D01*
X121930438Y-108862857D02*
X122025676Y-108958095D01*
X122025676Y-108958095D02*
X122120914Y-109005714D01*
X122120914Y-109005714D02*
X122311390Y-109053333D01*
X122311390Y-109053333D02*
X122454247Y-109053333D01*
X122454247Y-109053333D02*
X122644723Y-109005714D01*
X122644723Y-109005714D02*
X122739961Y-108958095D01*
X122739961Y-108958095D02*
X122835200Y-108862857D01*
X122835200Y-108862857D02*
X122882819Y-108720000D01*
X122882819Y-108720000D02*
X122882819Y-108481905D01*
X122216152Y-109910476D02*
X122882819Y-109910476D01*
X121835200Y-109672381D02*
X122549485Y-109434286D01*
X122549485Y-109434286D02*
X122549485Y-110053333D01*
X160027857Y-95704819D02*
X160361190Y-95228628D01*
X160599285Y-95704819D02*
X160599285Y-94704819D01*
X160599285Y-94704819D02*
X160218333Y-94704819D01*
X160218333Y-94704819D02*
X160123095Y-94752438D01*
X160123095Y-94752438D02*
X160075476Y-94800057D01*
X160075476Y-94800057D02*
X160027857Y-94895295D01*
X160027857Y-94895295D02*
X160027857Y-95038152D01*
X160027857Y-95038152D02*
X160075476Y-95133390D01*
X160075476Y-95133390D02*
X160123095Y-95181009D01*
X160123095Y-95181009D02*
X160218333Y-95228628D01*
X160218333Y-95228628D02*
X160599285Y-95228628D01*
X159694523Y-94704819D02*
X159075476Y-94704819D01*
X159075476Y-94704819D02*
X159408809Y-95085771D01*
X159408809Y-95085771D02*
X159265952Y-95085771D01*
X159265952Y-95085771D02*
X159170714Y-95133390D01*
X159170714Y-95133390D02*
X159123095Y-95181009D01*
X159123095Y-95181009D02*
X159075476Y-95276247D01*
X159075476Y-95276247D02*
X159075476Y-95514342D01*
X159075476Y-95514342D02*
X159123095Y-95609580D01*
X159123095Y-95609580D02*
X159170714Y-95657200D01*
X159170714Y-95657200D02*
X159265952Y-95704819D01*
X159265952Y-95704819D02*
X159551666Y-95704819D01*
X159551666Y-95704819D02*
X159646904Y-95657200D01*
X159646904Y-95657200D02*
X159694523Y-95609580D01*
X158170714Y-94704819D02*
X158646904Y-94704819D01*
X158646904Y-94704819D02*
X158694523Y-95181009D01*
X158694523Y-95181009D02*
X158646904Y-95133390D01*
X158646904Y-95133390D02*
X158551666Y-95085771D01*
X158551666Y-95085771D02*
X158313571Y-95085771D01*
X158313571Y-95085771D02*
X158218333Y-95133390D01*
X158218333Y-95133390D02*
X158170714Y-95181009D01*
X158170714Y-95181009D02*
X158123095Y-95276247D01*
X158123095Y-95276247D02*
X158123095Y-95514342D01*
X158123095Y-95514342D02*
X158170714Y-95609580D01*
X158170714Y-95609580D02*
X158218333Y-95657200D01*
X158218333Y-95657200D02*
X158313571Y-95704819D01*
X158313571Y-95704819D02*
X158551666Y-95704819D01*
X158551666Y-95704819D02*
X158646904Y-95657200D01*
X158646904Y-95657200D02*
X158694523Y-95609580D01*
X180982857Y-101799819D02*
X181316190Y-101323628D01*
X181554285Y-101799819D02*
X181554285Y-100799819D01*
X181554285Y-100799819D02*
X181173333Y-100799819D01*
X181173333Y-100799819D02*
X181078095Y-100847438D01*
X181078095Y-100847438D02*
X181030476Y-100895057D01*
X181030476Y-100895057D02*
X180982857Y-100990295D01*
X180982857Y-100990295D02*
X180982857Y-101133152D01*
X180982857Y-101133152D02*
X181030476Y-101228390D01*
X181030476Y-101228390D02*
X181078095Y-101276009D01*
X181078095Y-101276009D02*
X181173333Y-101323628D01*
X181173333Y-101323628D02*
X181554285Y-101323628D01*
X180649523Y-100799819D02*
X180030476Y-100799819D01*
X180030476Y-100799819D02*
X180363809Y-101180771D01*
X180363809Y-101180771D02*
X180220952Y-101180771D01*
X180220952Y-101180771D02*
X180125714Y-101228390D01*
X180125714Y-101228390D02*
X180078095Y-101276009D01*
X180078095Y-101276009D02*
X180030476Y-101371247D01*
X180030476Y-101371247D02*
X180030476Y-101609342D01*
X180030476Y-101609342D02*
X180078095Y-101704580D01*
X180078095Y-101704580D02*
X180125714Y-101752200D01*
X180125714Y-101752200D02*
X180220952Y-101799819D01*
X180220952Y-101799819D02*
X180506666Y-101799819D01*
X180506666Y-101799819D02*
X180601904Y-101752200D01*
X180601904Y-101752200D02*
X180649523Y-101704580D01*
X179459047Y-101228390D02*
X179554285Y-101180771D01*
X179554285Y-101180771D02*
X179601904Y-101133152D01*
X179601904Y-101133152D02*
X179649523Y-101037914D01*
X179649523Y-101037914D02*
X179649523Y-100990295D01*
X179649523Y-100990295D02*
X179601904Y-100895057D01*
X179601904Y-100895057D02*
X179554285Y-100847438D01*
X179554285Y-100847438D02*
X179459047Y-100799819D01*
X179459047Y-100799819D02*
X179268571Y-100799819D01*
X179268571Y-100799819D02*
X179173333Y-100847438D01*
X179173333Y-100847438D02*
X179125714Y-100895057D01*
X179125714Y-100895057D02*
X179078095Y-100990295D01*
X179078095Y-100990295D02*
X179078095Y-101037914D01*
X179078095Y-101037914D02*
X179125714Y-101133152D01*
X179125714Y-101133152D02*
X179173333Y-101180771D01*
X179173333Y-101180771D02*
X179268571Y-101228390D01*
X179268571Y-101228390D02*
X179459047Y-101228390D01*
X179459047Y-101228390D02*
X179554285Y-101276009D01*
X179554285Y-101276009D02*
X179601904Y-101323628D01*
X179601904Y-101323628D02*
X179649523Y-101418866D01*
X179649523Y-101418866D02*
X179649523Y-101609342D01*
X179649523Y-101609342D02*
X179601904Y-101704580D01*
X179601904Y-101704580D02*
X179554285Y-101752200D01*
X179554285Y-101752200D02*
X179459047Y-101799819D01*
X179459047Y-101799819D02*
X179268571Y-101799819D01*
X179268571Y-101799819D02*
X179173333Y-101752200D01*
X179173333Y-101752200D02*
X179125714Y-101704580D01*
X179125714Y-101704580D02*
X179078095Y-101609342D01*
X179078095Y-101609342D02*
X179078095Y-101418866D01*
X179078095Y-101418866D02*
X179125714Y-101323628D01*
X179125714Y-101323628D02*
X179173333Y-101276009D01*
X179173333Y-101276009D02*
X179268571Y-101228390D01*
X128442857Y-113804819D02*
X128776190Y-113328628D01*
X129014285Y-113804819D02*
X129014285Y-112804819D01*
X129014285Y-112804819D02*
X128633333Y-112804819D01*
X128633333Y-112804819D02*
X128538095Y-112852438D01*
X128538095Y-112852438D02*
X128490476Y-112900057D01*
X128490476Y-112900057D02*
X128442857Y-112995295D01*
X128442857Y-112995295D02*
X128442857Y-113138152D01*
X128442857Y-113138152D02*
X128490476Y-113233390D01*
X128490476Y-113233390D02*
X128538095Y-113281009D01*
X128538095Y-113281009D02*
X128633333Y-113328628D01*
X128633333Y-113328628D02*
X129014285Y-113328628D01*
X128109523Y-112804819D02*
X127490476Y-112804819D01*
X127490476Y-112804819D02*
X127823809Y-113185771D01*
X127823809Y-113185771D02*
X127680952Y-113185771D01*
X127680952Y-113185771D02*
X127585714Y-113233390D01*
X127585714Y-113233390D02*
X127538095Y-113281009D01*
X127538095Y-113281009D02*
X127490476Y-113376247D01*
X127490476Y-113376247D02*
X127490476Y-113614342D01*
X127490476Y-113614342D02*
X127538095Y-113709580D01*
X127538095Y-113709580D02*
X127585714Y-113757200D01*
X127585714Y-113757200D02*
X127680952Y-113804819D01*
X127680952Y-113804819D02*
X127966666Y-113804819D01*
X127966666Y-113804819D02*
X128061904Y-113757200D01*
X128061904Y-113757200D02*
X128109523Y-113709580D01*
X127157142Y-112804819D02*
X126538095Y-112804819D01*
X126538095Y-112804819D02*
X126871428Y-113185771D01*
X126871428Y-113185771D02*
X126728571Y-113185771D01*
X126728571Y-113185771D02*
X126633333Y-113233390D01*
X126633333Y-113233390D02*
X126585714Y-113281009D01*
X126585714Y-113281009D02*
X126538095Y-113376247D01*
X126538095Y-113376247D02*
X126538095Y-113614342D01*
X126538095Y-113614342D02*
X126585714Y-113709580D01*
X126585714Y-113709580D02*
X126633333Y-113757200D01*
X126633333Y-113757200D02*
X126728571Y-113804819D01*
X126728571Y-113804819D02*
X127014285Y-113804819D01*
X127014285Y-113804819D02*
X127109523Y-113757200D01*
X127109523Y-113757200D02*
X127157142Y-113709580D01*
X139842857Y-117104819D02*
X140176190Y-116628628D01*
X140414285Y-117104819D02*
X140414285Y-116104819D01*
X140414285Y-116104819D02*
X140033333Y-116104819D01*
X140033333Y-116104819D02*
X139938095Y-116152438D01*
X139938095Y-116152438D02*
X139890476Y-116200057D01*
X139890476Y-116200057D02*
X139842857Y-116295295D01*
X139842857Y-116295295D02*
X139842857Y-116438152D01*
X139842857Y-116438152D02*
X139890476Y-116533390D01*
X139890476Y-116533390D02*
X139938095Y-116581009D01*
X139938095Y-116581009D02*
X140033333Y-116628628D01*
X140033333Y-116628628D02*
X140414285Y-116628628D01*
X139509523Y-116104819D02*
X138890476Y-116104819D01*
X138890476Y-116104819D02*
X139223809Y-116485771D01*
X139223809Y-116485771D02*
X139080952Y-116485771D01*
X139080952Y-116485771D02*
X138985714Y-116533390D01*
X138985714Y-116533390D02*
X138938095Y-116581009D01*
X138938095Y-116581009D02*
X138890476Y-116676247D01*
X138890476Y-116676247D02*
X138890476Y-116914342D01*
X138890476Y-116914342D02*
X138938095Y-117009580D01*
X138938095Y-117009580D02*
X138985714Y-117057200D01*
X138985714Y-117057200D02*
X139080952Y-117104819D01*
X139080952Y-117104819D02*
X139366666Y-117104819D01*
X139366666Y-117104819D02*
X139461904Y-117057200D01*
X139461904Y-117057200D02*
X139509523Y-117009580D01*
X138033333Y-116438152D02*
X138033333Y-117104819D01*
X138271428Y-116057200D02*
X138509523Y-116771485D01*
X138509523Y-116771485D02*
X137890476Y-116771485D01*
X83639819Y-104608333D02*
X83163628Y-104275000D01*
X83639819Y-104036905D02*
X82639819Y-104036905D01*
X82639819Y-104036905D02*
X82639819Y-104417857D01*
X82639819Y-104417857D02*
X82687438Y-104513095D01*
X82687438Y-104513095D02*
X82735057Y-104560714D01*
X82735057Y-104560714D02*
X82830295Y-104608333D01*
X82830295Y-104608333D02*
X82973152Y-104608333D01*
X82973152Y-104608333D02*
X83068390Y-104560714D01*
X83068390Y-104560714D02*
X83116009Y-104513095D01*
X83116009Y-104513095D02*
X83163628Y-104417857D01*
X83163628Y-104417857D02*
X83163628Y-104036905D01*
X83639819Y-105084524D02*
X83639819Y-105275000D01*
X83639819Y-105275000D02*
X83592200Y-105370238D01*
X83592200Y-105370238D02*
X83544580Y-105417857D01*
X83544580Y-105417857D02*
X83401723Y-105513095D01*
X83401723Y-105513095D02*
X83211247Y-105560714D01*
X83211247Y-105560714D02*
X82830295Y-105560714D01*
X82830295Y-105560714D02*
X82735057Y-105513095D01*
X82735057Y-105513095D02*
X82687438Y-105465476D01*
X82687438Y-105465476D02*
X82639819Y-105370238D01*
X82639819Y-105370238D02*
X82639819Y-105179762D01*
X82639819Y-105179762D02*
X82687438Y-105084524D01*
X82687438Y-105084524D02*
X82735057Y-105036905D01*
X82735057Y-105036905D02*
X82830295Y-104989286D01*
X82830295Y-104989286D02*
X83068390Y-104989286D01*
X83068390Y-104989286D02*
X83163628Y-105036905D01*
X83163628Y-105036905D02*
X83211247Y-105084524D01*
X83211247Y-105084524D02*
X83258866Y-105179762D01*
X83258866Y-105179762D02*
X83258866Y-105370238D01*
X83258866Y-105370238D02*
X83211247Y-105465476D01*
X83211247Y-105465476D02*
X83163628Y-105513095D01*
X83163628Y-105513095D02*
X83068390Y-105560714D01*
X140759580Y-86233333D02*
X140807200Y-86185714D01*
X140807200Y-86185714D02*
X140854819Y-86042857D01*
X140854819Y-86042857D02*
X140854819Y-85947619D01*
X140854819Y-85947619D02*
X140807200Y-85804762D01*
X140807200Y-85804762D02*
X140711961Y-85709524D01*
X140711961Y-85709524D02*
X140616723Y-85661905D01*
X140616723Y-85661905D02*
X140426247Y-85614286D01*
X140426247Y-85614286D02*
X140283390Y-85614286D01*
X140283390Y-85614286D02*
X140092914Y-85661905D01*
X140092914Y-85661905D02*
X139997676Y-85709524D01*
X139997676Y-85709524D02*
X139902438Y-85804762D01*
X139902438Y-85804762D02*
X139854819Y-85947619D01*
X139854819Y-85947619D02*
X139854819Y-86042857D01*
X139854819Y-86042857D02*
X139902438Y-86185714D01*
X139902438Y-86185714D02*
X139950057Y-86233333D01*
X139854819Y-86566667D02*
X139854819Y-87233333D01*
X139854819Y-87233333D02*
X140854819Y-86804762D01*
X175637580Y-67357142D02*
X175685200Y-67309523D01*
X175685200Y-67309523D02*
X175732819Y-67166666D01*
X175732819Y-67166666D02*
X175732819Y-67071428D01*
X175732819Y-67071428D02*
X175685200Y-66928571D01*
X175685200Y-66928571D02*
X175589961Y-66833333D01*
X175589961Y-66833333D02*
X175494723Y-66785714D01*
X175494723Y-66785714D02*
X175304247Y-66738095D01*
X175304247Y-66738095D02*
X175161390Y-66738095D01*
X175161390Y-66738095D02*
X174970914Y-66785714D01*
X174970914Y-66785714D02*
X174875676Y-66833333D01*
X174875676Y-66833333D02*
X174780438Y-66928571D01*
X174780438Y-66928571D02*
X174732819Y-67071428D01*
X174732819Y-67071428D02*
X174732819Y-67166666D01*
X174732819Y-67166666D02*
X174780438Y-67309523D01*
X174780438Y-67309523D02*
X174828057Y-67357142D01*
X174732819Y-67690476D02*
X174732819Y-68309523D01*
X174732819Y-68309523D02*
X175113771Y-67976190D01*
X175113771Y-67976190D02*
X175113771Y-68119047D01*
X175113771Y-68119047D02*
X175161390Y-68214285D01*
X175161390Y-68214285D02*
X175209009Y-68261904D01*
X175209009Y-68261904D02*
X175304247Y-68309523D01*
X175304247Y-68309523D02*
X175542342Y-68309523D01*
X175542342Y-68309523D02*
X175637580Y-68261904D01*
X175637580Y-68261904D02*
X175685200Y-68214285D01*
X175685200Y-68214285D02*
X175732819Y-68119047D01*
X175732819Y-68119047D02*
X175732819Y-67833333D01*
X175732819Y-67833333D02*
X175685200Y-67738095D01*
X175685200Y-67738095D02*
X175637580Y-67690476D01*
X175732819Y-69261904D02*
X175732819Y-68690476D01*
X175732819Y-68976190D02*
X174732819Y-68976190D01*
X174732819Y-68976190D02*
X174875676Y-68880952D01*
X174875676Y-68880952D02*
X174970914Y-68785714D01*
X174970914Y-68785714D02*
X175018533Y-68690476D01*
X143254819Y-86357142D02*
X142778628Y-86023809D01*
X143254819Y-85785714D02*
X142254819Y-85785714D01*
X142254819Y-85785714D02*
X142254819Y-86166666D01*
X142254819Y-86166666D02*
X142302438Y-86261904D01*
X142302438Y-86261904D02*
X142350057Y-86309523D01*
X142350057Y-86309523D02*
X142445295Y-86357142D01*
X142445295Y-86357142D02*
X142588152Y-86357142D01*
X142588152Y-86357142D02*
X142683390Y-86309523D01*
X142683390Y-86309523D02*
X142731009Y-86261904D01*
X142731009Y-86261904D02*
X142778628Y-86166666D01*
X142778628Y-86166666D02*
X142778628Y-85785714D01*
X143254819Y-87309523D02*
X143254819Y-86738095D01*
X143254819Y-87023809D02*
X142254819Y-87023809D01*
X142254819Y-87023809D02*
X142397676Y-86928571D01*
X142397676Y-86928571D02*
X142492914Y-86833333D01*
X142492914Y-86833333D02*
X142540533Y-86738095D01*
X143254819Y-88261904D02*
X143254819Y-87690476D01*
X143254819Y-87976190D02*
X142254819Y-87976190D01*
X142254819Y-87976190D02*
X142397676Y-87880952D01*
X142397676Y-87880952D02*
X142492914Y-87785714D01*
X142492914Y-87785714D02*
X142540533Y-87690476D01*
X160027857Y-98879819D02*
X160361190Y-98403628D01*
X160599285Y-98879819D02*
X160599285Y-97879819D01*
X160599285Y-97879819D02*
X160218333Y-97879819D01*
X160218333Y-97879819D02*
X160123095Y-97927438D01*
X160123095Y-97927438D02*
X160075476Y-97975057D01*
X160075476Y-97975057D02*
X160027857Y-98070295D01*
X160027857Y-98070295D02*
X160027857Y-98213152D01*
X160027857Y-98213152D02*
X160075476Y-98308390D01*
X160075476Y-98308390D02*
X160123095Y-98356009D01*
X160123095Y-98356009D02*
X160218333Y-98403628D01*
X160218333Y-98403628D02*
X160599285Y-98403628D01*
X159694523Y-97879819D02*
X159075476Y-97879819D01*
X159075476Y-97879819D02*
X159408809Y-98260771D01*
X159408809Y-98260771D02*
X159265952Y-98260771D01*
X159265952Y-98260771D02*
X159170714Y-98308390D01*
X159170714Y-98308390D02*
X159123095Y-98356009D01*
X159123095Y-98356009D02*
X159075476Y-98451247D01*
X159075476Y-98451247D02*
X159075476Y-98689342D01*
X159075476Y-98689342D02*
X159123095Y-98784580D01*
X159123095Y-98784580D02*
X159170714Y-98832200D01*
X159170714Y-98832200D02*
X159265952Y-98879819D01*
X159265952Y-98879819D02*
X159551666Y-98879819D01*
X159551666Y-98879819D02*
X159646904Y-98832200D01*
X159646904Y-98832200D02*
X159694523Y-98784580D01*
X158218333Y-97879819D02*
X158408809Y-97879819D01*
X158408809Y-97879819D02*
X158504047Y-97927438D01*
X158504047Y-97927438D02*
X158551666Y-97975057D01*
X158551666Y-97975057D02*
X158646904Y-98117914D01*
X158646904Y-98117914D02*
X158694523Y-98308390D01*
X158694523Y-98308390D02*
X158694523Y-98689342D01*
X158694523Y-98689342D02*
X158646904Y-98784580D01*
X158646904Y-98784580D02*
X158599285Y-98832200D01*
X158599285Y-98832200D02*
X158504047Y-98879819D01*
X158504047Y-98879819D02*
X158313571Y-98879819D01*
X158313571Y-98879819D02*
X158218333Y-98832200D01*
X158218333Y-98832200D02*
X158170714Y-98784580D01*
X158170714Y-98784580D02*
X158123095Y-98689342D01*
X158123095Y-98689342D02*
X158123095Y-98451247D01*
X158123095Y-98451247D02*
X158170714Y-98356009D01*
X158170714Y-98356009D02*
X158218333Y-98308390D01*
X158218333Y-98308390D02*
X158313571Y-98260771D01*
X158313571Y-98260771D02*
X158504047Y-98260771D01*
X158504047Y-98260771D02*
X158599285Y-98308390D01*
X158599285Y-98308390D02*
X158646904Y-98356009D01*
X158646904Y-98356009D02*
X158694523Y-98451247D01*
X184142857Y-70179580D02*
X184190476Y-70227200D01*
X184190476Y-70227200D02*
X184333333Y-70274819D01*
X184333333Y-70274819D02*
X184428571Y-70274819D01*
X184428571Y-70274819D02*
X184571428Y-70227200D01*
X184571428Y-70227200D02*
X184666666Y-70131961D01*
X184666666Y-70131961D02*
X184714285Y-70036723D01*
X184714285Y-70036723D02*
X184761904Y-69846247D01*
X184761904Y-69846247D02*
X184761904Y-69703390D01*
X184761904Y-69703390D02*
X184714285Y-69512914D01*
X184714285Y-69512914D02*
X184666666Y-69417676D01*
X184666666Y-69417676D02*
X184571428Y-69322438D01*
X184571428Y-69322438D02*
X184428571Y-69274819D01*
X184428571Y-69274819D02*
X184333333Y-69274819D01*
X184333333Y-69274819D02*
X184190476Y-69322438D01*
X184190476Y-69322438D02*
X184142857Y-69370057D01*
X183809523Y-69274819D02*
X183190476Y-69274819D01*
X183190476Y-69274819D02*
X183523809Y-69655771D01*
X183523809Y-69655771D02*
X183380952Y-69655771D01*
X183380952Y-69655771D02*
X183285714Y-69703390D01*
X183285714Y-69703390D02*
X183238095Y-69751009D01*
X183238095Y-69751009D02*
X183190476Y-69846247D01*
X183190476Y-69846247D02*
X183190476Y-70084342D01*
X183190476Y-70084342D02*
X183238095Y-70179580D01*
X183238095Y-70179580D02*
X183285714Y-70227200D01*
X183285714Y-70227200D02*
X183380952Y-70274819D01*
X183380952Y-70274819D02*
X183666666Y-70274819D01*
X183666666Y-70274819D02*
X183761904Y-70227200D01*
X183761904Y-70227200D02*
X183809523Y-70179580D01*
X182333333Y-69608152D02*
X182333333Y-70274819D01*
X182571428Y-69227200D02*
X182809523Y-69941485D01*
X182809523Y-69941485D02*
X182190476Y-69941485D01*
X85097857Y-88624580D02*
X85145476Y-88672200D01*
X85145476Y-88672200D02*
X85288333Y-88719819D01*
X85288333Y-88719819D02*
X85383571Y-88719819D01*
X85383571Y-88719819D02*
X85526428Y-88672200D01*
X85526428Y-88672200D02*
X85621666Y-88576961D01*
X85621666Y-88576961D02*
X85669285Y-88481723D01*
X85669285Y-88481723D02*
X85716904Y-88291247D01*
X85716904Y-88291247D02*
X85716904Y-88148390D01*
X85716904Y-88148390D02*
X85669285Y-87957914D01*
X85669285Y-87957914D02*
X85621666Y-87862676D01*
X85621666Y-87862676D02*
X85526428Y-87767438D01*
X85526428Y-87767438D02*
X85383571Y-87719819D01*
X85383571Y-87719819D02*
X85288333Y-87719819D01*
X85288333Y-87719819D02*
X85145476Y-87767438D01*
X85145476Y-87767438D02*
X85097857Y-87815057D01*
X84764523Y-87719819D02*
X84145476Y-87719819D01*
X84145476Y-87719819D02*
X84478809Y-88100771D01*
X84478809Y-88100771D02*
X84335952Y-88100771D01*
X84335952Y-88100771D02*
X84240714Y-88148390D01*
X84240714Y-88148390D02*
X84193095Y-88196009D01*
X84193095Y-88196009D02*
X84145476Y-88291247D01*
X84145476Y-88291247D02*
X84145476Y-88529342D01*
X84145476Y-88529342D02*
X84193095Y-88624580D01*
X84193095Y-88624580D02*
X84240714Y-88672200D01*
X84240714Y-88672200D02*
X84335952Y-88719819D01*
X84335952Y-88719819D02*
X84621666Y-88719819D01*
X84621666Y-88719819D02*
X84716904Y-88672200D01*
X84716904Y-88672200D02*
X84764523Y-88624580D01*
X83812142Y-87719819D02*
X83145476Y-87719819D01*
X83145476Y-87719819D02*
X83574047Y-88719819D01*
X156388857Y-66438580D02*
X156436476Y-66486200D01*
X156436476Y-66486200D02*
X156579333Y-66533819D01*
X156579333Y-66533819D02*
X156674571Y-66533819D01*
X156674571Y-66533819D02*
X156817428Y-66486200D01*
X156817428Y-66486200D02*
X156912666Y-66390961D01*
X156912666Y-66390961D02*
X156960285Y-66295723D01*
X156960285Y-66295723D02*
X157007904Y-66105247D01*
X157007904Y-66105247D02*
X157007904Y-65962390D01*
X157007904Y-65962390D02*
X156960285Y-65771914D01*
X156960285Y-65771914D02*
X156912666Y-65676676D01*
X156912666Y-65676676D02*
X156817428Y-65581438D01*
X156817428Y-65581438D02*
X156674571Y-65533819D01*
X156674571Y-65533819D02*
X156579333Y-65533819D01*
X156579333Y-65533819D02*
X156436476Y-65581438D01*
X156436476Y-65581438D02*
X156388857Y-65629057D01*
X156007904Y-65629057D02*
X155960285Y-65581438D01*
X155960285Y-65581438D02*
X155865047Y-65533819D01*
X155865047Y-65533819D02*
X155626952Y-65533819D01*
X155626952Y-65533819D02*
X155531714Y-65581438D01*
X155531714Y-65581438D02*
X155484095Y-65629057D01*
X155484095Y-65629057D02*
X155436476Y-65724295D01*
X155436476Y-65724295D02*
X155436476Y-65819533D01*
X155436476Y-65819533D02*
X155484095Y-65962390D01*
X155484095Y-65962390D02*
X156055523Y-66533819D01*
X156055523Y-66533819D02*
X155436476Y-66533819D01*
X155103142Y-65533819D02*
X154436476Y-65533819D01*
X154436476Y-65533819D02*
X154865047Y-66533819D01*
X85097857Y-95609580D02*
X85145476Y-95657200D01*
X85145476Y-95657200D02*
X85288333Y-95704819D01*
X85288333Y-95704819D02*
X85383571Y-95704819D01*
X85383571Y-95704819D02*
X85526428Y-95657200D01*
X85526428Y-95657200D02*
X85621666Y-95561961D01*
X85621666Y-95561961D02*
X85669285Y-95466723D01*
X85669285Y-95466723D02*
X85716904Y-95276247D01*
X85716904Y-95276247D02*
X85716904Y-95133390D01*
X85716904Y-95133390D02*
X85669285Y-94942914D01*
X85669285Y-94942914D02*
X85621666Y-94847676D01*
X85621666Y-94847676D02*
X85526428Y-94752438D01*
X85526428Y-94752438D02*
X85383571Y-94704819D01*
X85383571Y-94704819D02*
X85288333Y-94704819D01*
X85288333Y-94704819D02*
X85145476Y-94752438D01*
X85145476Y-94752438D02*
X85097857Y-94800057D01*
X84716904Y-94800057D02*
X84669285Y-94752438D01*
X84669285Y-94752438D02*
X84574047Y-94704819D01*
X84574047Y-94704819D02*
X84335952Y-94704819D01*
X84335952Y-94704819D02*
X84240714Y-94752438D01*
X84240714Y-94752438D02*
X84193095Y-94800057D01*
X84193095Y-94800057D02*
X84145476Y-94895295D01*
X84145476Y-94895295D02*
X84145476Y-94990533D01*
X84145476Y-94990533D02*
X84193095Y-95133390D01*
X84193095Y-95133390D02*
X84764523Y-95704819D01*
X84764523Y-95704819D02*
X84145476Y-95704819D01*
X83669285Y-95704819D02*
X83478809Y-95704819D01*
X83478809Y-95704819D02*
X83383571Y-95657200D01*
X83383571Y-95657200D02*
X83335952Y-95609580D01*
X83335952Y-95609580D02*
X83240714Y-95466723D01*
X83240714Y-95466723D02*
X83193095Y-95276247D01*
X83193095Y-95276247D02*
X83193095Y-94895295D01*
X83193095Y-94895295D02*
X83240714Y-94800057D01*
X83240714Y-94800057D02*
X83288333Y-94752438D01*
X83288333Y-94752438D02*
X83383571Y-94704819D01*
X83383571Y-94704819D02*
X83574047Y-94704819D01*
X83574047Y-94704819D02*
X83669285Y-94752438D01*
X83669285Y-94752438D02*
X83716904Y-94800057D01*
X83716904Y-94800057D02*
X83764523Y-94895295D01*
X83764523Y-94895295D02*
X83764523Y-95133390D01*
X83764523Y-95133390D02*
X83716904Y-95228628D01*
X83716904Y-95228628D02*
X83669285Y-95276247D01*
X83669285Y-95276247D02*
X83574047Y-95323866D01*
X83574047Y-95323866D02*
X83383571Y-95323866D01*
X83383571Y-95323866D02*
X83288333Y-95276247D01*
X83288333Y-95276247D02*
X83240714Y-95228628D01*
X83240714Y-95228628D02*
X83193095Y-95133390D01*
X85097857Y-79099580D02*
X85145476Y-79147200D01*
X85145476Y-79147200D02*
X85288333Y-79194819D01*
X85288333Y-79194819D02*
X85383571Y-79194819D01*
X85383571Y-79194819D02*
X85526428Y-79147200D01*
X85526428Y-79147200D02*
X85621666Y-79051961D01*
X85621666Y-79051961D02*
X85669285Y-78956723D01*
X85669285Y-78956723D02*
X85716904Y-78766247D01*
X85716904Y-78766247D02*
X85716904Y-78623390D01*
X85716904Y-78623390D02*
X85669285Y-78432914D01*
X85669285Y-78432914D02*
X85621666Y-78337676D01*
X85621666Y-78337676D02*
X85526428Y-78242438D01*
X85526428Y-78242438D02*
X85383571Y-78194819D01*
X85383571Y-78194819D02*
X85288333Y-78194819D01*
X85288333Y-78194819D02*
X85145476Y-78242438D01*
X85145476Y-78242438D02*
X85097857Y-78290057D01*
X84716904Y-78290057D02*
X84669285Y-78242438D01*
X84669285Y-78242438D02*
X84574047Y-78194819D01*
X84574047Y-78194819D02*
X84335952Y-78194819D01*
X84335952Y-78194819D02*
X84240714Y-78242438D01*
X84240714Y-78242438D02*
X84193095Y-78290057D01*
X84193095Y-78290057D02*
X84145476Y-78385295D01*
X84145476Y-78385295D02*
X84145476Y-78480533D01*
X84145476Y-78480533D02*
X84193095Y-78623390D01*
X84193095Y-78623390D02*
X84764523Y-79194819D01*
X84764523Y-79194819D02*
X84145476Y-79194819D01*
X83193095Y-79194819D02*
X83764523Y-79194819D01*
X83478809Y-79194819D02*
X83478809Y-78194819D01*
X83478809Y-78194819D02*
X83574047Y-78337676D01*
X83574047Y-78337676D02*
X83669285Y-78432914D01*
X83669285Y-78432914D02*
X83764523Y-78480533D01*
X180982857Y-94054819D02*
X181316190Y-93578628D01*
X181554285Y-94054819D02*
X181554285Y-93054819D01*
X181554285Y-93054819D02*
X181173333Y-93054819D01*
X181173333Y-93054819D02*
X181078095Y-93102438D01*
X181078095Y-93102438D02*
X181030476Y-93150057D01*
X181030476Y-93150057D02*
X180982857Y-93245295D01*
X180982857Y-93245295D02*
X180982857Y-93388152D01*
X180982857Y-93388152D02*
X181030476Y-93483390D01*
X181030476Y-93483390D02*
X181078095Y-93531009D01*
X181078095Y-93531009D02*
X181173333Y-93578628D01*
X181173333Y-93578628D02*
X181554285Y-93578628D01*
X180649523Y-93054819D02*
X180030476Y-93054819D01*
X180030476Y-93054819D02*
X180363809Y-93435771D01*
X180363809Y-93435771D02*
X180220952Y-93435771D01*
X180220952Y-93435771D02*
X180125714Y-93483390D01*
X180125714Y-93483390D02*
X180078095Y-93531009D01*
X180078095Y-93531009D02*
X180030476Y-93626247D01*
X180030476Y-93626247D02*
X180030476Y-93864342D01*
X180030476Y-93864342D02*
X180078095Y-93959580D01*
X180078095Y-93959580D02*
X180125714Y-94007200D01*
X180125714Y-94007200D02*
X180220952Y-94054819D01*
X180220952Y-94054819D02*
X180506666Y-94054819D01*
X180506666Y-94054819D02*
X180601904Y-94007200D01*
X180601904Y-94007200D02*
X180649523Y-93959580D01*
X179697142Y-93054819D02*
X179030476Y-93054819D01*
X179030476Y-93054819D02*
X179459047Y-94054819D01*
X138159580Y-86233333D02*
X138207200Y-86185714D01*
X138207200Y-86185714D02*
X138254819Y-86042857D01*
X138254819Y-86042857D02*
X138254819Y-85947619D01*
X138254819Y-85947619D02*
X138207200Y-85804762D01*
X138207200Y-85804762D02*
X138111961Y-85709524D01*
X138111961Y-85709524D02*
X138016723Y-85661905D01*
X138016723Y-85661905D02*
X137826247Y-85614286D01*
X137826247Y-85614286D02*
X137683390Y-85614286D01*
X137683390Y-85614286D02*
X137492914Y-85661905D01*
X137492914Y-85661905D02*
X137397676Y-85709524D01*
X137397676Y-85709524D02*
X137302438Y-85804762D01*
X137302438Y-85804762D02*
X137254819Y-85947619D01*
X137254819Y-85947619D02*
X137254819Y-86042857D01*
X137254819Y-86042857D02*
X137302438Y-86185714D01*
X137302438Y-86185714D02*
X137350057Y-86233333D01*
X137683390Y-86804762D02*
X137635771Y-86709524D01*
X137635771Y-86709524D02*
X137588152Y-86661905D01*
X137588152Y-86661905D02*
X137492914Y-86614286D01*
X137492914Y-86614286D02*
X137445295Y-86614286D01*
X137445295Y-86614286D02*
X137350057Y-86661905D01*
X137350057Y-86661905D02*
X137302438Y-86709524D01*
X137302438Y-86709524D02*
X137254819Y-86804762D01*
X137254819Y-86804762D02*
X137254819Y-86995238D01*
X137254819Y-86995238D02*
X137302438Y-87090476D01*
X137302438Y-87090476D02*
X137350057Y-87138095D01*
X137350057Y-87138095D02*
X137445295Y-87185714D01*
X137445295Y-87185714D02*
X137492914Y-87185714D01*
X137492914Y-87185714D02*
X137588152Y-87138095D01*
X137588152Y-87138095D02*
X137635771Y-87090476D01*
X137635771Y-87090476D02*
X137683390Y-86995238D01*
X137683390Y-86995238D02*
X137683390Y-86804762D01*
X137683390Y-86804762D02*
X137731009Y-86709524D01*
X137731009Y-86709524D02*
X137778628Y-86661905D01*
X137778628Y-86661905D02*
X137873866Y-86614286D01*
X137873866Y-86614286D02*
X138064342Y-86614286D01*
X138064342Y-86614286D02*
X138159580Y-86661905D01*
X138159580Y-86661905D02*
X138207200Y-86709524D01*
X138207200Y-86709524D02*
X138254819Y-86804762D01*
X138254819Y-86804762D02*
X138254819Y-86995238D01*
X138254819Y-86995238D02*
X138207200Y-87090476D01*
X138207200Y-87090476D02*
X138159580Y-87138095D01*
X138159580Y-87138095D02*
X138064342Y-87185714D01*
X138064342Y-87185714D02*
X137873866Y-87185714D01*
X137873866Y-87185714D02*
X137778628Y-87138095D01*
X137778628Y-87138095D02*
X137731009Y-87090476D01*
X137731009Y-87090476D02*
X137683390Y-86995238D01*
X92434580Y-66032142D02*
X92482200Y-65984523D01*
X92482200Y-65984523D02*
X92529819Y-65841666D01*
X92529819Y-65841666D02*
X92529819Y-65746428D01*
X92529819Y-65746428D02*
X92482200Y-65603571D01*
X92482200Y-65603571D02*
X92386961Y-65508333D01*
X92386961Y-65508333D02*
X92291723Y-65460714D01*
X92291723Y-65460714D02*
X92101247Y-65413095D01*
X92101247Y-65413095D02*
X91958390Y-65413095D01*
X91958390Y-65413095D02*
X91767914Y-65460714D01*
X91767914Y-65460714D02*
X91672676Y-65508333D01*
X91672676Y-65508333D02*
X91577438Y-65603571D01*
X91577438Y-65603571D02*
X91529819Y-65746428D01*
X91529819Y-65746428D02*
X91529819Y-65841666D01*
X91529819Y-65841666D02*
X91577438Y-65984523D01*
X91577438Y-65984523D02*
X91625057Y-66032142D01*
X92529819Y-66984523D02*
X92529819Y-66413095D01*
X92529819Y-66698809D02*
X91529819Y-66698809D01*
X91529819Y-66698809D02*
X91672676Y-66603571D01*
X91672676Y-66603571D02*
X91767914Y-66508333D01*
X91767914Y-66508333D02*
X91815533Y-66413095D01*
X91863152Y-67841666D02*
X92529819Y-67841666D01*
X91482200Y-67603571D02*
X92196485Y-67365476D01*
X92196485Y-67365476D02*
X92196485Y-67984523D01*
D11*
%TO.C,C6*%
X125356252Y-105945000D02*
X124833748Y-105945000D01*
X125356252Y-107415000D02*
X124833748Y-107415000D01*
%TO.C,R10*%
X86555000Y-106952064D02*
X86555000Y-102597936D01*
X89975000Y-106952064D02*
X89975000Y-102597936D01*
%TO.C,C16*%
X166238748Y-74265000D02*
X166761252Y-74265000D01*
X166238748Y-75735000D02*
X166761252Y-75735000D01*
%TO.C,C36*%
X188738748Y-75765000D02*
X189261252Y-75765000D01*
X188738748Y-77235000D02*
X189261252Y-77235000D01*
%TO.C,R12*%
X144680000Y-82957936D02*
X144680000Y-83412064D01*
X146150000Y-82957936D02*
X146150000Y-83412064D01*
%TO.C,C35*%
X183238748Y-75765000D02*
X183761252Y-75765000D01*
X183238748Y-77235000D02*
X183761252Y-77235000D01*
%TO.C,C19*%
X83039252Y-69145000D02*
X85870748Y-69145000D01*
X83039252Y-74365000D02*
X85870748Y-74365000D01*
%TO.C,C5*%
X136786252Y-105945000D02*
X136263748Y-105945000D01*
X136786252Y-107415000D02*
X136263748Y-107415000D01*
%TO.C,C15*%
X126011000Y-83573252D02*
X126011000Y-83050748D01*
X127481000Y-83573252D02*
X127481000Y-83050748D01*
%TO.C,D3*%
X134800000Y-108220000D02*
X134800000Y-110220000D01*
X138810000Y-108220000D02*
X134800000Y-108220000D01*
X138810000Y-110220000D02*
X134800000Y-110220000D01*
%TO.C,D4*%
X123370000Y-108220000D02*
X123370000Y-110220000D01*
X127380000Y-108220000D02*
X123370000Y-108220000D01*
X127380000Y-110220000D02*
X123370000Y-110220000D01*
%TO.C,R35*%
X162787064Y-94515000D02*
X162332936Y-94515000D01*
X162787064Y-95985000D02*
X162332936Y-95985000D01*
%TO.C,R38*%
X180567064Y-98960000D02*
X180112936Y-98960000D01*
X180567064Y-100430000D02*
X180112936Y-100430000D01*
%TO.C,R33*%
X127572936Y-115735000D02*
X128027064Y-115735000D01*
X127572936Y-114265000D02*
X128027064Y-114265000D01*
%TO.C,R34*%
X139427064Y-115735000D02*
X138972936Y-115735000D01*
X139427064Y-114265000D02*
X138972936Y-114265000D01*
%TO.C,R9*%
X81475000Y-106952064D02*
X81475000Y-102597936D01*
X84895000Y-106952064D02*
X84895000Y-102597936D01*
%TO.C,C7*%
X139600000Y-82923748D02*
X139600000Y-83446252D01*
X141070000Y-82923748D02*
X141070000Y-83446252D01*
%TO.C,C31*%
X172765000Y-68261252D02*
X172765000Y-67738748D01*
X174235000Y-68261252D02*
X174235000Y-67738748D01*
%TO.C,R11*%
X142140000Y-83412064D02*
X142140000Y-82957936D01*
X143610000Y-83412064D02*
X143610000Y-82957936D01*
%TO.C,R36*%
X162332936Y-97690000D02*
X162787064Y-97690000D01*
X162332936Y-99160000D02*
X162787064Y-99160000D01*
%TO.C,C34*%
X183238748Y-70765000D02*
X183761252Y-70765000D01*
X183238748Y-72235000D02*
X183761252Y-72235000D01*
%TO.C,C37*%
X83039252Y-85655000D02*
X85870748Y-85655000D01*
X83039252Y-90875000D02*
X85870748Y-90875000D01*
%TO.C,C27*%
X155265000Y-68738748D02*
X155265000Y-69261252D01*
X156735000Y-68738748D02*
X156735000Y-69261252D01*
%TO.C,C29*%
X83039252Y-92640000D02*
X85870748Y-92640000D01*
X83039252Y-97860000D02*
X85870748Y-97860000D01*
%TO.C,C21*%
X83039252Y-76130000D02*
X85870748Y-76130000D01*
X83039252Y-81350000D02*
X85870748Y-81350000D01*
%TO.C,R37*%
X180112936Y-94515000D02*
X180567064Y-94515000D01*
X180112936Y-95985000D02*
X180567064Y-95985000D01*
%TO.C,C8*%
X137060000Y-82923748D02*
X137060000Y-83446252D01*
X138530000Y-82923748D02*
X138530000Y-83446252D01*
%TO.C,C14*%
X89465000Y-65259252D02*
X89465000Y-68090748D01*
X94685000Y-65259252D02*
X94685000Y-68090748D01*
%TD*%
M02*
